<svg viewBox="0 0 24 24" xmlns="http://www.w3.org/2000/svg" class="a"><style>.b{fill: currentColor;}.a{}</style><path d="M11.26 10.86l.74.43 .74-.43L12 9.81l-.74 1.05Z" class="b"/><path d="M12.88 14.43l0-2.91 -.56.32 0 2.59 .56 0Z" class="b"/><path d="M10.6 15.07h2.79v.56H10.6Z" class="b"/><path d="M10.6 16.53c0 .18.14.32.32.32h2.15c.18 0 .32-.14.32-.32v-.26H10.6v.26Z" class="b"/><path d="M11.12 14.43l.56 0 0-2.59 -.56-.32 0 2.91Z" class="b"/><path d="M11.97 7.14c-1.79.01-3.26 1.49-3.26 3.3 0 1.04.47 2 1.3 2.63 .17.13.32.27.46.43v-2.53c0-.07.02-.13.06-.18l1.2-1.72c.13-.18.4-.18.53 0l1.2 1.72c.04.05.06.12.06.18v2.53c.14-.16.29-.3.46-.43 .83-.63 1.3-1.58 1.3-2.62 0-1.85-1.51-3.32-3.31-3.31Z" class="b"/><path d="M12 .98C5.75.98.68 5.91.68 12c0 6.09 5.07 11.02 11.32 11.02s11.32-4.93 11.32-11.02C23.32 5.91 18.25.98 12 .98ZM8.22 15.07h-.37v.37c0 .18-.14.32-.32.32s-.32-.14-.32-.32v-.37h-.39c-.18 0-.32-.14-.32-.32s.14-.32.32-.32h.39v-.37c0-.18.14-.32.32-.32s.32.14.32.32v.37h.37c.18 0 .32.14.32.32s-.14.32-.32.32Zm6.16-1.49c-.3.23-.54.52-.7.84h.05c.18 0 .32.14.32.32v.88h.19c.18 0 .32.14.32.32s-.14.32-.32.32h-.19v.26c0 .53-.43.97-.97.97h-2.15c-.53 0-.97-.43-.97-.97v-.26h-.19c-.18 0-.32-.14-.32-.32s.14-.32.32-.32h.19v-.88c0-.18.14-.32.32-.32h.05c-.16-.33-.4-.61-.7-.84 -.96-.73-1.56-1.88-1.56-3.15 0-2.16 1.76-3.92 3.9-3.94 2.19-.01 3.96 1.77 3.96 3.95 0 1.27-.6 2.41-1.56 3.13Zm2.8-5.73h-.39v.37c0 .18-.14.32-.32.32s-.32-.14-.32-.32v-.37h-.37c-.18 0-.32-.14-.32-.32s.14-.32.32-.32h.37v-.39c0-.18.14-.32.32-.32s.32.14.32.32v.39h.39c.18 0 .32.14.32.32s-.14.32-.32.32Z" class="b"/></svg>