<svg viewBox="0 0 21 20.15" xmlns="http://www.w3.org/2000/svg" class="a"><style>.b{fill: currentColor;}.a{}</style><path d="M10.72 12.5V9.92l.56-.32v2.9ZM9.66 8.94l.74.42 .73-.42 -.73-1ZM9 14.61v0c0 .17.14.32.32.32h2.15c.32 0 .34-.34.32-.58H9Zm.51-2.11h.56V9.92l-.56-.32ZM9 13.71h2.79v-.56H9Zm1.37-8.49c-3.56.21-4.37 4.43-1.5 6.36l-.001 0c-.04-.91-.02-1.82.06-2.72l1.2-1.72v0c.1-.15.31-.18.46-.07 .02.01.04.04.06.06l1.2 1.72h0c.07.9.09 1.81.06 2.72 2.91-1.93 2.02-6.23-1.55-6.36ZM21 4.45l-.84 11.25h-.001c-.23 2.5-2.31 4.42-4.82 4.45H5.44h0c-2.43-.14-4.39-2.04-4.61-4.45L-.01 4.45l-.001 0C-.21 2.19 1.45.21 3.7.01c.14-.02.29-.02.43-.02h12.7v0c2.25-.05 4.12 1.75 4.16 4.01 0 .14-.01.29-.02.43ZM7 12.83c0-.38-.43-.33-.69-.33 0-.25 0-.68-.32-.68s-.33.43-.33.68c-.25 0-.7-.06-.7.33s.45.32.7.32c0 .26 0 .69.33.69s.32-.44.32-.69c.2-.001.63.05.63-.32Zm7.39-4.3v0c-.03-2.18-1.81-3.92-3.99-3.9 -2.18.02-3.92 1.8-3.9 3.98 .01 1.18.56 2.3 1.48 3.04v0c.29.22.53.51.7.84 -.55 0-.32.76-.37 1.21 -.22 0-.52 0-.51.32 .01.32.29.35.51.32v0c-.13.53.2 1.07.74 1.2 .08.01.17.02.25.02h2.15v0c.55.01 1.01-.43 1.02-.98 0-.09-.01-.18-.03-.26 .22 0 .52 0 .51-.32 -.01-.32-.29-.35-.51-.32 0-.45.18-1.24-.37-1.21v0c.16-.33.4-.62.7-.84v0c.96-.75 1.52-1.91 1.52-3.13Zm1.51-2.92c0-.38-.45-.33-.71-.33 0-.25.06-.7-.33-.7s-.32.45-.32.7c-.25 0-.69 0-.69.33s.44.32.69.32c0 .26 0 .69.32.69s.33-.43.33-.69c.26 0 .71.07.71-.32Z" transform="translate(0-.07501)" class="b"/></svg>