<svg viewBox="0 0 14 14" xmlns="http://www.w3.org/2000/svg" class="a"><style>.b{fill: currentColor;}.a{}</style><path d="M13.59.9h-.49V.41v0c0-.23-.19-.41-.41-.41v0c-.23 0-.41.18-.41.41V.9h-.47l0-.001c-.23 0-.41.18-.41.41v0c0 .22.18.41.41.41h.47v.47 0c0 .22.18.41.41.41h-.001c.22-.01.4-.19.41-.41v-.47h.49v0c.22 0 .41-.19.41-.41v0c0-.23-.19-.41-.41-.41Z" class="b"/><path d="M2.19 10.09h-.47v-.47h0c0-.23-.19-.41-.41-.41v0c-.23 0-.41.18-.41.41v.47H.41v0c-.23 0-.41.18-.41.41 0 .22.18.41.41.41H.9v.47 0c0 .22.18.4.41.41v0c.22 0 .41-.19.41-.41v-.47h.47v0c.22 0 .41-.19.41-.41 0-.23-.19-.41-.41-.41Z" class="b"/><path d="M5.66 10.14h.93V6.82l-.93-.47Z" class="b"/><path d="M5.85 5.53L7 6.1l1.15-.57L7 3.8Z" class="b"/><path d="M8.34 10.14V6.35l-.93.47v3.32Z" class="b"/><path d="M7 0v0C4.23 0 2 2.23 2 5c0 1.57.74 3.05 2 4v0c.35.26.64.61.86 1V5.69v0c-.01-.09.02-.17.07-.23l1.73-2.63v0c.12-.19.38-.24.56-.12 .04.02.08.06.11.11l1.75 2.63v0c.04.06.07.14.07.23v4.31 0c.2-.39.49-.73.84-1v0c2.2-1.67 2.64-4.8.98-7.01 -.16-.21-.32-.4-.5-.57v0C9.53.49 8.28-.02 6.98-.02Z" class="b"/><path d="M9.16 11.38v0c-.02-.22-.2-.39-.41-.38h-3.5v0c-.23-.01-.42.18-.42.4 -.01 0 0 0 0 .01v.68h4.32Z" class="b"/><path d="M6.07 14h1.86 0c.63-.01 1.16-.49 1.23-1.12H4.84v-.001c.06.63.59 1.11 1.23 1.12Z" class="b"/><path d="M4.84 12.06h-.25v0c-.23 0-.41.18-.41.41 0 .22.18.41.41.41h.25Z" class="b"/><path d="M9.41 12.06h-.25v.82h.25v0c.22 0 .41-.19.41-.41 0-.23-.19-.41-.41-.41Z" class="b"/></svg>