<svg viewBox="0 0 14 14" xmlns="http://www.w3.org/2000/svg" class="a"><style>.b{fill: currentColor;}.a{}</style><path d="M7 0v0C4.23 0 2 2.23 2 5v0c0 1.57.74 3.05 2 4h0c.37.28.68.64.89 1.07h-.08v0c-.23 0-.41.18-.41.41v1.12h-.24v0c-.23 0-.41.18-.41.41 0 .22.18.41.41.41h.24v.33 0c-.02.67.53 1.23 1.2 1.24 0 0 .01 0 .02 0h2.74v0c.67-.001 1.23-.56 1.23-1.23v-.33h.24v0c.22 0 .41-.19.41-.41 0-.23-.19-.41-.41-.41h-.24v-1.12 0c0-.23-.19-.41-.41-.41h-.06v0c.2-.43.5-.8.87-1.09v0c2.2-1.66 2.65-4.8 1-7 -.95-1.26-2.43-2-4-2ZM5.88 10.09v-3.7l.71.41v3.29ZM7.41 6.8l.71-.41v3.7h-.71ZM7 6.09l-.94-.54L7 4.22l.94 1.33Zm1.78 6.68v0c0 .22-.19.41-.41.41H5.63v0c-.23 0-.41-.19-.41-.41v-.33h3.56Zm-3.56-1.15v-.71h3.56v.71Zm4.31-3.26v0c-.22.16-.42.34-.59.55V5.69v0c0-.09-.03-.17-.07-.24L7.34 3.26v0c-.14-.19-.4-.23-.59-.1 -.04.02-.07.05-.1.09L5.12 5.44v0c-.05.07-.08.15-.07.24V8.9h0c-.18-.21-.38-.39-.59-.54H4.45c-1.85-1.4-2.21-4.03-.81-5.87C5.03.64 7.66.28 9.5 1.68c1.84 1.39 2.2 4.02.8 5.86 -.24.3-.51.57-.81.8Z" class="b"/><path d="M13.59.9h-.49V.41v0c0-.23-.19-.41-.41-.41v0c-.23 0-.41.18-.41.41V.9h-.47l0-.001c-.23 0-.41.18-.41.41v0c0 .22.18.41.41.41h.47v.47 0c0 .22.18.41.41.41h-.001c.22-.01.4-.19.41-.41v-.47h.49v0c.22 0 .41-.19.41-.41v0c0-.23-.19-.41-.41-.41Z" class="b"/><path d="M2.19 10.09h-.47v-.47h0c0-.23-.19-.41-.41-.41v0c-.23 0-.41.18-.41.41v.47H.41v0c-.23 0-.41.18-.41.41 0 .22.18.41.41.41H.9v.47 0c0 .22.18.4.41.41v0c.22 0 .41-.19.41-.41v-.47h.47v0c.22 0 .41-.19.41-.41 0-.23-.19-.41-.41-.41Z" class="b"/></svg>