<svg viewBox="0 0 24 24" xmlns="http://www.w3.org/2000/svg" class="a"><style>.b{fill: currentColor;}.a{}</style><path d="M12.09 6.76c-.5.38-.91.84-1.22 1.37h2.44c-.3-.53-.72-1-1.22-1.37Z" class="b"/><path d="M7.72 16.09c-.2 0-.36.16-.36.36 0 .2.16.36.36.36 .2 0 .36-.16.36-.36 0-.2-.16-.36-.36-.36Z" class="b"/><path d="M12.09 1.15C5.88 1.15.86 6.04.86 12.08c0 6.04 5.03 10.94 11.23 10.94s11.23-4.9 11.23-10.94c0-6.04-5.03-10.93-11.23-10.93Zm4.37 16.4c-.47 0-.88-.3-1.03-.73h-1.44l-.73-2.91h-.81v2.27c.42.15.73.55.73 1.03 0 .6-.49 1.09-1.09 1.09 -.6 0-1.09-.49-1.09-1.09 0-.47.3-.88.73-1.03v-2.27h-.81l-.73 2.91H8.75c-.15.42-.55.73-1.03.73 -.6 0-1.09-.49-1.09-1.09 0-.6.49-1.09 1.09-1.09 .47 0 .88.3 1.03.73h.87l.55-2.18h-.63v-.67c-.42.15-.73.55-.73 1.03v.36h-.73v-2.47c0-.88.63-1.61 1.46-1.78 0-1.76.88-3.39 2.35-4.37l.2-.13 .2.13c1.46.98 2.34 2.61 2.35 4.37 .83.17 1.46.9 1.46 1.78v2.47h-.73v-.36c0-.47-.3-.88-.73-1.03v.67h-.63l.55 2.18h.87c.15-.42.55-.73 1.03-.73 .6 0 1.09.49 1.09 1.09 0 .6-.49 1.09-1.09 1.09Z" class="b"/><path d="M12.09 16.84c-.2 0-.36.16-.36.36 0 .2.16.36.36.36 .2 0 .36-.16.36-.36 0-.2-.16-.36-.36-.36Z" class="b"/><path d="M15.36 12.16c0-.47-.3-.88-.73-1.03v1.36c.27.05.52.17.73.33v-.66Z" class="b"/><path d="M8.81 12.16v.66c.21-.16.46-.27.73-.33v-1.36c-.42.15-.73.55-.73 1.03Z" class="b"/><path d="M10.53 8.86c-.17.48-.27 1-.27 1.53v2.79h3.64v-2.79c0-.53-.09-1.05-.27-1.53h-3.11Zm1.55 2.94c-.6 0-1.09-.49-1.09-1.09 0-.6.49-1.09 1.09-1.09 .6 0 1.09.49 1.09 1.09 0 .6-.49 1.09-1.09 1.09Z" class="b"/><path d="M16.45 16.09c-.2 0-.36.16-.36.36 0 .2.16.36.36.36 .2 0 .36-.16.36-.36 0-.2-.16-.36-.36-.36Z" class="b"/><path d="M12.09 10.34c-.2 0-.36.16-.36.36 0 .2.16.36.36.36 .2 0 .36-.16.36-.36 0-.2-.16-.36-.36-.36Z" class="b"/></svg>