<svg viewBox="0 0 21 20.15" xmlns="http://www.w3.org/2000/svg" class="a"><style>.b{fill: currentColor;}.a{}</style><path d="M10.87 8.68h-.001c0 .2-.17.37-.37.37 -.21 0-.37-.17-.37-.37v0c0-.21.16-.37.37-.37 .2 0 .37.16.37.37Zm-.37 6.19v0c-.21.03-.34.22-.31.42 .02.15.14.27.3.3v-.001c.2-.04.33-.23.3-.43 -.03-.16-.15-.28-.31-.31Zm-4.4-.76h0c-.21.03-.34.22-.31.42 .02.15.14.27.3.3h0c.2-.04.33-.23.3-.43 -.03-.16-.15-.28-.31-.31Zm4.4-9.4v0c-.5.37-.92.84-1.23 1.38h2.46v0c-.32-.54-.74-1.01-1.23-1.38Zm4.4 9.4v0c-.21.03-.34.22-.31.42 .02.15.14.27.3.3v0c.2-.04.33-.23.3-.43 -.03-.16-.15-.28-.31-.31ZM21 4.45l-.84 11.25h-.001c-.23 2.5-2.31 4.42-4.82 4.45H5.44h0c-2.43-.14-4.39-2.04-4.61-4.45L-.01 4.45l-.001 0C-.21 2.19 1.45.21 3.7.01c.14-.02.29-.02.43-.02h12.7v0c2.25-.05 4.12 1.75 4.16 4.01 0 .14-.01.29-.02.43Zm-5 10v-.001c0-.61-.49-1.11-1.09-1.12 -.48-.01-.9.29-1.06.74h-.86l-.55-2.2h.63v-.67 0c.54.23.85.81.73 1.4h.73v-2.46h0c-.01-.87-.61-1.63-1.46-1.8h0c-.02-1.86-1-3.58-2.58-4.53V3.8c-1.59.96-2.56 2.67-2.57 4.53h-.001c-.86.17-1.46.93-1.46 1.8v2.49h.73v0c-.13-.59.18-1.17.73-1.4v.67h.63l-.56 2.2h-.86v0c-.21-.58-.83-.88-1.41-.68 -.58.2-.88.82-.68 1.4 .2.57.82.87 1.4.67 .31-.12.56-.36.67-.68h1.45l.73-2.93h.81v2.29 0c-.58.2-.88.83-.67 1.4 .2.57.83.87 1.4.66 .57-.21.87-.84.66-1.41 -.12-.32-.36-.56-.67-.67v-2.29h.81l.73 2.93h1.45 -.001c.19.57.82.87 1.39.68 .44-.16.74-.58.74-1.05Zm-3.93-7.62c.42 1 .22 3.29.26 4.35H8.67c0-1.07-.17-3.37.26-4.35Zm-.47 1.85v0c0-.61-.5-1.1-1.1-1.1 -.61 0-1.1.49-1.1 1.1v0c0 .6.49 1.1 1.1 1.1 .6-.01 1.09-.5 1.1-1.1Zm2.2 1.47v-.001c-.02-.46-.31-.85-.73-1v1.37 0c.26.05.51.16.73.33Zm-6.6 0v.66 0c.21-.17.46-.28.73-.33V9.11L7.92 9.1c-.44.15-.73.57-.73 1.04Z" transform="translate(0-.07501)" class="b"/></svg>