<svg viewBox="0 0 14 15.93" xmlns="http://www.w3.org/2000/svg" class="a"><style>.b{fill: currentColor;}.a{}</style><g transform="translate(0 .035)" class="a"><path d="M7 4.79c-.77 0-1.4.63-1.4 1.4 0 .77.63 1.4 1.4 1.4 .77 0 1.4-.63 1.4-1.4 0-.77-.63-1.4-1.4-1.4Zm0 1.87c-.26 0-.47-.21-.47-.47s.21-.47.47-.47 .47.21.47.47 -.21.47-.47.47Z" class="b"/><path d="M12.6 12.16c-.61 0-1.13.39-1.32.93h-1.12l-.7-2.8h.8v-.85c.54.19.93.71.93 1.32v.47h.93V8.06c0-1.13-.8-2.07-1.87-2.29 0-2.26-1.13-4.35-3.01-5.6L6.98 0l-.26.17c-1.88 1.25-3 3.34-3.01 5.6 -1.06.22-1.87 1.16-1.87 2.29v3.17h.93v-.47c0-.61.39-1.13.93-1.32v.85h.8l-.7 2.8H2.68c-.19-.54-.71-.93-1.32-.93 -.77 0-1.4.63-1.4 1.4 0 .77.63 1.4 1.4 1.4 .61 0 1.13-.39 1.32-.93h1.84l.93-3.73h1.04v2.91c-.54.19-.93.71-.93 1.32 0 .77.63 1.4 1.4 1.4 .77 0 1.4-.63 1.4-1.4 0-.61-.39-1.13-.93-1.32V10.3h1.04l.93 3.73h1.84c.19.54.71.93 1.32.93 .77 0 1.4-.63 1.4-1.4 0-.77-.63-1.4-1.4-1.4v0ZM1.4 14.03c-.26 0-.47-.21-.47-.47s.21-.47.47-.47 .47.21.47.47 -.21.47-.47.47Zm5.6.96c-.26 0-.47-.21-.47-.47s.21-.47.47-.47 .47.21.47.47 -.21.47-.47.47Zm4.2-6.94v.84c-.27-.2-.59-.35-.93-.42V6.73c.54.19.93.71.93 1.32ZM7 1.13c.64.48 1.17 1.08 1.56 1.76H5.44c.39-.68.92-1.28 1.56-1.76ZM4.67 5.79c0-.68.12-1.34.34-1.97H9c.22.62.34 1.28.34 1.97v3.57H4.67V5.79ZM2.8 8.9v-.84c0-.61.39-1.13.93-1.32v1.74c-.34.07-.66.22-.93.42Zm9.8 5.13c-.26 0-.47-.21-.47-.47s.21-.47.47-.47 .47.21.47.47 -.21.47-.47.47Z" class="b"/></g></svg>