<svg viewBox="0 0 14 15.93" xmlns="http://www.w3.org/2000/svg" class="a"><style>.b{fill: currentColor;}.a{}</style><g transform="translate(0 .035)" class="a"><path d="M2.8 6.11h0c-.6.44-.94 1.14-.93 1.89v3.27h.93V6.11Z" class="b"/><path d="M12.13 8v0c-.01-.73-.35-1.42-.93-1.85v5.12h.93Z" class="b"/><path d="M7 5.69a.47.47 0 1 0 0 .94 .47.47 0 1 0 0-.94Z" class="b"/><path d="M7.26.17L7 0l-.26.17 -.001-.001c-1.01.68-1.82 1.62-2.34 2.72h5.2l-.001 0C9.07 1.77 8.268.83 7.25.16Z" class="b"/><path d="M3.73 5.8v4.5h.81l-.7 2.8H2.71h-.001c-.26-.73-1.06-1.12-1.79-.86 -.73.25-1.12 1.05-.86 1.78 .25.72 1.05 1.11 1.78.85 .4-.15.71-.46.85-.86h1.85l.94-3.73h1v2.91 0c-.73.25-1.11 1.06-.85 1.78 .25.72 1.06 1.1 1.78.84 .72-.26 1.1-1.07.84-1.79 -.15-.4-.46-.71-.85-.85v-2.91h1l1 3.7h1.85v0c.24.72 1.02 1.12 1.75.88 .57-.19.95-.73.95-1.33V13.5c.01-.77-.6-1.41-1.37-1.42 -.61-.02-1.16.37-1.35.95h-1.13l-.7-2.8h.81v-4.5h0c-.01-.68-.11-1.36-.31-2H3.93V3.73c-.19.64-.28 1.32-.27 2ZM7 4.76v0c.77 0 1.4.62 1.4 1.4 0 .77-.63 1.4-1.4 1.4 -.78 0-1.4-.63-1.4-1.4v0c0-.78.62-1.4 1.4-1.4Z" class="b"/></g></svg>