<svg xmlns="http://www.w3.org/2000/svg" viewBox="0 0 14 10.8"><g id="b544cc15-ad69-4617-8612-704839e9b3f4" data-name="Layer 2"><g id="b10f4dc9-ea6c-4381-af68-ffc82d4dae22" data-name="Layer 1"><path d="M3.36,9.52a.1.1,0,0,1-.09.1h0a.1.1,0,0,1-.09-.1V6.44a.09.09,0,0,1,.09-.09h0a.09.09,0,0,1,.09.09Z"/><path d="M3.75,9.16a.09.09,0,0,1-.08.09h0a.09.09,0,0,1-.09-.09V6.81a.09.09,0,0,1,.09-.09h0a.09.09,0,0,1,.08.09Z"/><path d="M4.15,8.74a.09.09,0,0,1-.08.09H4a.09.09,0,0,1-.08-.09V7.22A.09.09,0,0,1,4,7.14h.06a.09.09,0,0,1,.08.08Z"/><path d="M4.54,9.1a.09.09,0,0,1-.09.09h0a.09.09,0,0,1-.09-.09V6.87a.1.1,0,0,1,.09-.1h0a.1.1,0,0,1,.09.1Z"/><path d="M4.94,9.34a.1.1,0,0,1-.09.1h0a.1.1,0,0,1-.09-.1V6.62a.09.09,0,0,1,.09-.09h0a.09.09,0,0,1,.09.09Z"/><rect x="5.12" y="5.66" width="0.22" height="4.65" rx="0.1"/><rect x="5.51" y="6.4" width="0.22" height="3.17" rx="0.1"/><path d="M6.12,9.69A.1.1,0,0,1,6,9.8H6a.1.1,0,0,1-.1-.11V6.27a.09.09,0,0,1,.1-.1H6a.09.09,0,0,1,.1.1Z"/><path d="M6.38,7.28h.07a.07.07,0,0,1,.07.07V8.61a.08.08,0,0,1-.08.08H6.37a.07.07,0,0,1-.07-.07V7.36A.08.08,0,0,1,6.38,7.28Z"/><path d="M6.91,9a.09.09,0,0,1-.09.09h0A.09.09,0,0,1,6.69,9V7a.09.09,0,0,1,.09-.09h0A.09.09,0,0,1,6.91,7Z"/><rect x="7.09" y="6.43" width="0.22" height="3.11" rx="0.1"/><rect x="7.48" y="5.87" width="0.22" height="4.23" rx="0.1"/><path d="M8.09,9.61A.1.1,0,0,1,8,9.72H8a.1.1,0,0,1-.1-.11V6.35a.1.1,0,0,1,.1-.1H8a.1.1,0,0,1,.09.1Z"/><rect x="8.27" y="6.57" width="0.22" height="2.82" rx="0.1"/><path d="M8.88,8.88A.08.08,0,0,1,8.8,9H8.75a.09.09,0,0,1-.08-.09V7.08A.09.09,0,0,1,8.75,7H8.8a.08.08,0,0,1,.08.08Z"/><path d="M9.28,9.41a.1.1,0,0,1-.1.1h0a.1.1,0,0,1-.1-.1V6.56a.11.11,0,0,1,.1-.11h0a.11.11,0,0,1,.1.11Z"/><rect x="9.46" y="5.8" width="0.22" height="4.36" rx="0.1"/><rect x="9.85" y="6.16" width="0.22" height="3.65" rx="0.1"/><path d="M10.46,9a.09.09,0,0,1-.09.09h0A.09.09,0,0,1,10.25,9V7a.09.09,0,0,1,.09-.1h0a.09.09,0,0,1,.09.1Z"/><path d="M10.86,9.84a.11.11,0,0,1-.1.11h0a.1.1,0,0,1-.1-.11V6.12a.09.09,0,0,1,.1-.1h0a.1.1,0,0,1,.1.1Z"/><path d="M13.47,10.23a.65.65,0,0,1-.74.56l-1.27-.2a.68.68,0,0,1-.54-.77l.18-1.18s-.07,0-.07-.06V7.39a.08.08,0,0,1,.07-.07h.08a.07.07,0,0,1,.07.07v.19l.2-1.37A.64.64,0,0,1,12,5.66a4.86,4.86,0,0,0-.37-1.21.72.72,0,0,1-.54-.36A4.8,4.8,0,0,0,6.91,1.57,4.79,4.79,0,0,0,2.76,4.09a.73.73,0,0,1-.55.37,5.88,5.88,0,0,0-.37,1.19.64.64,0,0,1,.71.56l.2,1.37V7.45a.07.07,0,0,1,.07-.07H2.9A.07.07,0,0,1,3,7.45V8.52a.07.07,0,0,1-.07.07h0l.18,1.23a.68.68,0,0,1-.54.77l-1.27.2a.65.65,0,0,1-.74-.56L0,6.62a.67.67,0,0,1,.54-.77l.52-.08a6.18,6.18,0,0,1,.44-1.61.83.83,0,0,1-.05-.86A6.49,6.49,0,0,1,3.72.91a6.06,6.06,0,0,1,6.39,0A6.57,6.57,0,0,1,12.37,3.3a.83.83,0,0,1,0,.86,6.49,6.49,0,0,1,.44,1.58l.69.11a.67.67,0,0,1,.54.77Z"/></g></g></svg>