<svg xmlns="http://www.w3.org/2000/svg" xmlns:xlink="http://www.w3.org/1999/xlink" width="1080" zoomAndPan="magnify" viewBox="0 0 810 809.999993" height="1080" preserveAspectRatio="xMidYMid meet" version="1.0"><defs><clipPath id="id1"><path d="M 213.835938 257 L 596.335938 257 L 596.335938 553 L 213.835938 553 Z M 213.835938 257 " clip-rule="nonzero"/></clipPath></defs><path fill="rgb(0%, 0%, 0%)" d="M 401.976562 85.03125 L 409.609375 85.175781 C 411.40625 85.179688 413.675781 84.984375 415.222656 85.320312 C 417.480469 85.808594 419.945312 85.164062 421.992188 85.609375 L 424.585938 85.609375 C 426.484375 86.027344 428.90625 85.773438 430.777344 86.183594 L 434.230469 86.328125 C 437.238281 87 440.792969 86.808594 443.734375 87.480469 L 447.191406 87.769531 C 451.445312 88.765625 456.1875 88.886719 460.296875 89.929688 C 462.253906 90.425781 463.976562 90.292969 465.910156 90.792969 C 472.820312 92.574219 480.121094 93.578125 486.648438 95.6875 C 490.171875 96.828125 493.5625 97.273438 497.015625 98.425781 C 507.113281 101.789062 517.203125 105.035156 526.535156 109.078125 C 538.5 114.265625 550.191406 119.160156 560.808594 125.640625 C 562.523438 126.6875 564.285156 127.328125 565.992188 128.375 C 574.117188 133.359375 582.183594 138.375 589.894531 143.785156 C 595.113281 147.441406 600.058594 151.496094 605.160156 155.304688 C 610.363281 159.1875 614.816406 164.066406 619.992188 167.976562 L 621.289062 169.414062 C 622.042969 170.085938 622.78125 170.675781 623.59375 171.289062 C 624.410156 172.152344 625.222656 173.015625 626.039062 173.878906 C 628.503906 175.742188 630.496094 178.191406 632.664062 180.359375 C 635.804688 183.5 639.183594 186.585938 641.878906 190.152344 C 642.894531 191.496094 644.460938 192.546875 645.480469 193.894531 C 648.863281 198.375 652.953125 202.335938 656.28125 206.855469 C 664.289062 217.742188 672.175781 228.707031 679.464844 240.40625 C 688.8125 255.421875 696.257812 272.039062 703.367188 289.222656 C 707.722656 299.75 710.519531 311.050781 714.167969 322.34375 C 715.742188 327.210938 716.398438 332.40625 717.769531 337.320312 C 719.464844 343.417969 719.730469 349.949219 721.222656 356.183594 L 723.382812 373.464844 C 723.875 375.679688 723.507812 378.019531 723.960938 380.089844 C 724.105469 383.160156 724.246094 386.230469 724.390625 389.304688 C 724.910156 391.71875 724.148438 395.011719 724.679688 397.511719 C 725.179688 399.847656 724.824219 403.117188 724.824219 405.71875 C 724.824219 407.828125 725.082031 410.492188 724.679688 412.34375 C 724.632812 415.078125 724.585938 417.816406 724.535156 420.550781 C 724.191406 422.121094 724.628906 424.007812 724.246094 425.734375 C 723.863281 430.246094 723.480469 434.757812 723.097656 439.273438 C 722.570312 441.59375 722.804688 444.175781 722.230469 446.617188 C 720.609375 453.546875 720.398438 461.027344 718.632812 467.640625 C 718.441406 468.839844 718.25 470.039062 718.054688 471.238281 C 716.183594 477.886719 715.269531 484.785156 713.160156 491.257812 C 708.757812 504.75 704.859375 517.894531 699.480469 530.28125 C 690.5 550.964844 679.910156 570.25 667.65625 587.734375 C 663.914062 593.078125 659.84375 598.183594 655.992188 603.433594 C 654.480469 605.492188 652.480469 607.300781 650.953125 609.335938 C 647.902344 613.398438 644.203125 616.828125 641.160156 620.855469 L 637.414062 624.601562 C 636.3125 626.054688 634.746094 627.066406 633.671875 628.488281 C 632.179688 630.449219 630.449219 632.179688 628.488281 633.671875 C 627.769531 634.441406 627.046875 635.207031 626.328125 635.976562 C 624.53125 637.773438 622.605469 639.621094 620.566406 641.160156 C 620.136719 641.640625 619.703125 642.121094 619.273438 642.601562 C 616.472656 644.71875 614.132812 647.417969 611.351562 649.511719 C 605.417969 653.980469 599.878906 659.035156 593.785156 663.335938 C 586.414062 668.539062 578.878906 673.578125 571.175781 678.457031 C 566.363281 681.492188 561.203125 683.992188 556.34375 686.953125 C 554.625 688 552.796875 688.578125 551.015625 689.542969 C 547.925781 691.222656 544.730469 692.8125 541.367188 694.296875 C 537.742188 695.894531 533.972656 697.878906 530.28125 699.480469 C 521.179688 703.421875 511.601562 706.777344 501.910156 709.992188 C 492.671875 713.054688 482.96875 714.917969 473.257812 717.625 C 469.417969 718.691406 465.386719 718.964844 461.59375 719.929688 C 455.679688 721.429688 449.183594 721.304688 443.160156 722.664062 C 437.351562 723.191406 431.542969 723.71875 425.734375 724.246094 C 424.007812 724.625 422.125 724.191406 420.550781 724.535156 C 418.089844 725.074219 414.757812 724.296875 412.34375 724.824219 L 407.304688 724.824219 C 404.214844 724.824219 400.320312 725.289062 397.511719 724.679688 C 394.777344 724.632812 392.039062 724.585938 389.304688 724.535156 C 387.777344 724.199219 385.941406 724.617188 384.265625 724.246094 C 379.503906 723.199219 373.925781 723.84375 369.289062 722.808594 C 365.890625 722.050781 362.398438 722.464844 359.0625 721.65625 C 355.878906 720.882812 352.40625 720.914062 349.128906 720.070312 C 342.078125 718.261719 334.832031 717.5625 327.960938 715.609375 C 318.761719 712.992188 309.195312 710.867188 300.742188 707.398438 C 298.652344 706.542969 296.625 706.238281 294.550781 705.382812 C 288.707031 702.976562 282.742188 700.859375 276.984375 698.328125 C 273.777344 696.917969 270.5 695.113281 267.335938 693.71875 C 261.226562 691.027344 255.277344 688.007812 249.769531 684.648438 C 246.660156 682.753906 243.472656 681.367188 240.40625 679.464844 C 233.683594 675.285156 226.980469 671.019531 220.535156 666.503906 C 217.050781 664.058594 213.722656 661.234375 210.3125 658.726562 C 205.777344 655.394531 201.671875 651.714844 197.207031 648.359375 C 195.191406 646.84375 193.492188 644.863281 191.449219 643.320312 C 191.015625 642.839844 190.585938 642.359375 190.152344 641.878906 C 188.578125 640.683594 187.089844 639.386719 185.6875 637.992188 C 185.0625 637.320312 184.441406 636.648438 183.816406 635.976562 C 181.507812 634.230469 179.652344 631.957031 177.625 629.929688 C 174.882812 627.1875 171.914062 624.546875 169.558594 621.433594 C 167.769531 619.066406 165.164062 617.183594 163.367188 614.808594 C 158.875 608.855469 153.6875 603.414062 149.257812 597.382812 C 135.535156 578.71875 122.828125 558.464844 112.96875 536.039062 C 108.375 525.59375 104.167969 514.738281 100.441406 503.496094 C 99.117188 499.511719 98.113281 495.476562 96.839844 491.542969 C 96.292969 489.855469 96.238281 488.34375 95.6875 486.648438 C 94.007812 481.472656 93.160156 475.636719 91.65625 470.230469 C 91.367188 468.503906 91.078125 466.777344 90.792969 465.046875 C 89.527344 460.105469 89.246094 454.492188 88.054688 449.351562 C 87.53125 447.078125 87.675781 444.71875 87.191406 442.585938 C 86.566406 439.816406 86.910156 436.878906 86.328125 434.230469 C 85.644531 431.136719 86.269531 427.605469 85.609375 424.585938 L 85.609375 421.992188 C 85.453125 421.277344 85.65625 420.003906 85.464844 419.113281 C 84.855469 416.28125 85.191406 412.386719 85.175781 409.175781 C 85.164062 407.019531 84.71875 404.089844 85.175781 401.976562 L 85.175781 394.777344 C 85.402344 393.742188 85.054688 392.097656 85.320312 390.886719 C 85.488281 390.128906 85.257812 388.800781 85.464844 387.863281 C 86.308594 384.015625 85.652344 379.503906 86.472656 375.769531 C 86.617188 373.847656 86.761719 371.929688 86.902344 370.007812 C 87.261719 368.441406 87.085938 366.6875 87.480469 364.96875 C 88.199219 360.121094 88.921875 355.273438 89.640625 350.425781 C 91.179688 344.265625 91.667969 337.882812 93.382812 331.847656 C 94.59375 327.597656 95.3125 323.132812 96.695312 318.886719 C 100.050781 308.613281 102.773438 298.300781 106.777344 288.648438 C 113.453125 272.550781 120.40625 256.882812 129.097656 242.710938 C 134.445312 233.988281 139.984375 225.480469 145.800781 217.222656 C 149.464844 212.023438 153.664062 207.195312 157.464844 202.105469 C 161.34375 196.90625 166.375 192.582031 170.28125 187.414062 L 175.894531 181.800781 C 177.601562 179.566406 179.566406 177.601562 181.800781 175.894531 C 183.113281 174.90625 184.050781 173.460938 185.398438 172.441406 L 187.414062 170.28125 C 189.996094 168.328125 192.0625 165.730469 194.617188 163.800781 C 200.046875 159.695312 204.957031 154.882812 210.457031 150.839844 C 220.839844 143.207031 231.527344 135.972656 242.710938 129.097656 C 245.910156 127.132812 249.273438 125.730469 252.503906 123.769531 C 261.023438 118.59375 270.714844 114.320312 280.152344 110.230469 C 285.074219 108.097656 290.175781 106.359375 295.128906 104.328125 C 297.628906 103.304688 300.0625 102.828125 302.617188 101.878906 C 311.832031 98.457031 321.894531 96.183594 331.847656 93.382812 C 336.332031 92.125 341.058594 91.640625 345.527344 90.503906 C 351.820312 88.902344 358.546875 88.929688 364.96875 87.480469 L 380.953125 85.894531 C 382.417969 85.578125 383.980469 85.890625 385.273438 85.609375 C 387.136719 85.203125 389.175781 85.691406 390.886719 85.320312 L 398.808594 85.175781 C 399.695312 85.175781 401.371094 85.410156 401.976562 85.03125 Z M 403.992188 133.992188 C 402.777344 134.71875 397.75 133.734375 395.929688 134.136719 C 393.941406 134.570312 391.578125 133.953125 389.449219 134.425781 L 372.886719 135.863281 L 358.054688 138.023438 C 354.261719 139 350.226562 139.246094 346.390625 140.328125 C 338.605469 142.523438 330.660156 144.238281 323.351562 146.664062 C 320.632812 147.566406 318.046875 148.039062 315.433594 149.113281 C 310.832031 151.003906 306.035156 152.457031 301.464844 154.441406 C 289.726562 159.53125 278.132812 164.84375 267.625 171.289062 C 257.652344 177.402344 248.214844 183.941406 238.96875 190.726562 C 235.074219 193.585938 231.597656 197.03125 227.734375 199.945312 C 226.550781 200.839844 225.609375 202.21875 224.425781 203.113281 C 220.824219 205.832031 217.871094 209.246094 214.632812 212.328125 C 212.417969 214.4375 210.007812 216.496094 208.152344 218.953125 L 204.40625 222.695312 C 200.472656 227.894531 195.609375 232.40625 191.734375 237.671875 C 184.613281 247.351562 177.714844 257.171875 171.289062 267.625 C 163.449219 280.378906 157.429688 294.558594 151.414062 309.097656 C 150.578125 311.125 150.242188 313.097656 149.398438 315.144531 C 145.429688 324.8125 143.3125 335.675781 140.328125 346.390625 C 139.367188 351.433594 138.40625 356.472656 137.449219 361.511719 C 136.777344 366.597656 136.105469 371.6875 135.433594 376.777344 C 134.960938 378.890625 135.292969 381.128906 134.855469 383.113281 C 134.195312 386.128906 134.917969 389.40625 134.28125 392.328125 C 134.230469 396.214844 134.183594 400.105469 134.136719 403.992188 C 133.925781 404.984375 134.132812 406.019531 134.136719 407.160156 C 134.140625 409.316406 133.867188 412.03125 134.28125 413.929688 L 134.28125 417.671875 C 134.90625 420.515625 134.394531 423.96875 135 426.742188 C 135.046875 427.894531 135.097656 429.046875 135.144531 430.199219 C 135.964844 433.863281 135.566406 437.859375 136.441406 441.574219 C 137.28125 445.167969 137.230469 449.023438 138.167969 452.664062 C 140.070312 460.058594 140.972656 467.785156 143.207031 474.695312 C 144.78125 479.5625 145.664062 484.230469 147.238281 488.953125 C 150.410156 498.4375 154.003906 507.617188 157.894531 516.457031 C 166.574219 536.164062 177.980469 553.625 190.007812 570.023438 C 193.234375 574.421875 197.09375 578.34375 200.375 582.695312 C 201.355469 583.992188 202.855469 585.003906 203.832031 586.296875 C 204.984375 587.816406 206.234375 589.257812 207.574219 590.617188 C 208.296875 591.289062 209.015625 591.960938 209.734375 592.632812 C 210.847656 594.101562 212.195312 595.234375 213.480469 596.519531 C 214.765625 597.804688 215.898438 599.152344 217.367188 600.265625 C 217.800781 600.742188 218.230469 601.222656 218.664062 601.703125 C 219.746094 602.789062 220.898438 603.800781 222.121094 604.726562 C 222.550781 605.207031 222.984375 605.6875 223.414062 606.167969 C 225.515625 607.753906 227.246094 609.792969 229.320312 611.351562 C 233.1875 614.265625 236.765625 617.394531 240.695312 620.28125 C 242.53125 621.625 244.300781 623.28125 246.167969 624.601562 C 259.328125 633.890625 273.289062 642.824219 288.792969 649.65625 C 291.328125 650.773438 293.996094 652.273438 296.566406 653.398438 C 301.757812 655.675781 307.140625 657.574219 312.40625 659.734375 C 314.101562 660.429688 315.742188 660.617188 317.449219 661.320312 C 324.578125 664.246094 332.714844 666.046875 340.488281 668.230469 C 347.996094 670.34375 355.980469 670.960938 363.816406 672.839844 C 366.636719 673.515625 369.59375 673.378906 372.3125 673.992188 C 373.175781 674.039062 374.039062 674.085938 374.902344 674.136719 C 378.386719 674.914062 382.539062 674.5 386.136719 675.289062 C 387.71875 675.636719 389.453125 675.261719 390.886719 675.574219 C 393.480469 675.625 396.070312 675.671875 398.664062 675.71875 C 401.042969 676.226562 404.367188 675.863281 407.015625 675.863281 L 411.191406 675.863281 C 413.53125 675.351562 416.542969 676.109375 418.96875 675.574219 C 420.449219 675.25 422.226562 675.648438 423.863281 675.289062 C 428.039062 674.902344 432.214844 674.519531 436.390625 674.136719 C 441.671875 673.367188 446.949219 672.601562 452.230469 671.832031 C 455.347656 671.03125 458.691406 670.859375 461.878906 669.960938 C 470.503906 667.53125 479.167969 665.929688 487.367188 663.191406 C 565.636719 637.042969 623 583.515625 654.550781 510.695312 C 659.085938 500.234375 662.386719 489.101562 666.070312 477.71875 C 667.367188 472.441406 668.664062 467.160156 669.960938 461.878906 C 670.152344 460.679688 670.34375 459.480469 670.535156 458.28125 C 671.992188 452.855469 672.238281 446.714844 673.558594 441 C 674.117188 438.589844 673.914062 436.089844 674.425781 433.800781 C 674.808594 428.855469 675.191406 423.914062 675.574219 418.96875 C 675.789062 417.984375 675.542969 416.605469 675.71875 415.800781 L 675.71875 411.191406 C 676.097656 409.421875 675.863281 406.878906 675.863281 404.855469 C 675.863281 402.878906 676.09375 400.386719 675.71875 398.664062 C 675.183594 396.195312 675.9375 393.207031 675.433594 390.886719 C 675.335938 388.632812 675.238281 386.375 675.144531 384.121094 C 674.796875 382.558594 675.09375 380.78125 674.710938 379.078125 C 674.089844 373.992188 673.464844 368.90625 672.839844 363.816406 C 671.308594 357.511719 670.980469 350.929688 669.238281 344.808594 C 668.324219 341.582031 667.851562 338.125 666.792969 334.871094 C 663.578125 324.996094 661.109375 315.140625 657.289062 305.929688 C 653.589844 297.015625 649.71875 287.191406 644.902344 279.289062 C 643.554688 277.078125 642.785156 274.71875 641.449219 272.519531 C 634.832031 261.65625 628.214844 251.15625 620.855469 241.128906 C 616.308594 234.929688 610.773438 229.511719 606.167969 223.414062 C 605.6875 222.984375 605.207031 222.550781 604.726562 222.121094 C 603.800781 220.898438 602.789062 219.746094 601.703125 218.664062 C 601.222656 218.230469 600.746094 217.800781 600.265625 217.367188 C 598.917969 215.585938 597.222656 214.179688 595.65625 212.617188 C 593.746094 210.707031 591.925781 208.640625 589.753906 207 C 588.085938 205.742188 586.8125 203.800781 585.144531 202.535156 C 580.539062 199.054688 576.449219 195.039062 571.753906 191.59375 C 568.894531 189.496094 566.167969 187.023438 563.257812 184.96875 C 550.859375 176.214844 537.359375 167.484375 522.792969 161.0625 C 518.550781 159.195312 514.179688 156.898438 509.832031 155.015625 C 505.207031 153.011719 500.378906 151.453125 495.71875 149.542969 C 490.480469 147.398438 484.480469 145.984375 479.015625 144.214844 C 477.511719 143.730469 476.210938 143.699219 474.695312 143.207031 C 470.339844 141.792969 465.417969 141.015625 460.871094 139.753906 L 455.6875 138.886719 C 452.21875 138 448.195312 137.71875 444.601562 136.871094 L 440.425781 136.441406 C 437.707031 135.8125 434.421875 135.90625 431.640625 135.289062 L 428.472656 135.144531 C 426.78125 134.773438 424.566406 134.941406 422.855469 134.566406 L 420.40625 134.566406 C 418.445312 134.140625 416.09375 134.75 413.929688 134.28125 C 411.484375 133.75 406.648438 134.003906 403.992188 133.992188 Z M 403.992188 133.992188 " fill-opacity="1" fill-rule="evenodd"/><path fill="rgb(0%, 0%, 0%)" d="M 305.636719 517.253906 C 305.636719 517.59375 305.578125 517.921875 305.457031 518.238281 C 305.335938 518.554688 305.164062 518.839844 304.933594 519.089844 C 304.707031 519.34375 304.441406 519.546875 304.140625 519.699219 C 303.835938 519.851562 303.515625 519.945312 303.175781 519.980469 C 302.839844 519.945312 302.519531 519.851562 302.214844 519.699219 C 301.914062 519.546875 301.648438 519.34375 301.421875 519.089844 C 301.191406 518.839844 301.019531 518.554688 300.898438 518.238281 C 300.777344 517.921875 300.71875 517.59375 300.71875 517.253906 L 300.71875 433.222656 C 300.71875 432.898438 300.78125 432.585938 300.90625 432.285156 C 301.03125 431.984375 301.207031 431.71875 301.4375 431.488281 C 301.667969 431.257812 301.933594 431.078125 302.238281 430.953125 C 302.539062 430.832031 302.851562 430.769531 303.175781 430.769531 C 303.503906 430.769531 303.816406 430.832031 304.117188 430.953125 C 304.417969 431.078125 304.6875 431.257812 304.917969 431.488281 C 305.148438 431.71875 305.324219 431.984375 305.449219 432.285156 C 305.574219 432.585938 305.636719 432.898438 305.636719 433.222656 Z M 305.636719 517.253906 " fill-opacity="1" fill-rule="nonzero"/><path fill="rgb(0%, 0%, 0%)" d="M 316.292969 507.429688 C 316.292969 507.734375 316.242188 508.027344 316.132812 508.3125 C 316.027344 508.597656 315.871094 508.851562 315.671875 509.078125 C 315.46875 509.304688 315.234375 509.488281 314.964844 509.625 C 314.695312 509.765625 314.40625 509.851562 314.105469 509.886719 C 313.78125 509.886719 313.464844 509.824219 313.164062 509.699219 C 312.863281 509.574219 312.597656 509.398438 312.367188 509.167969 C 312.136719 508.9375 311.960938 508.671875 311.835938 508.371094 C 311.710938 508.070312 311.648438 507.757812 311.648438 507.429688 L 311.648438 443.316406 C 311.648438 442.992188 311.710938 442.679688 311.835938 442.378906 C 311.960938 442.078125 312.136719 441.8125 312.367188 441.582031 C 312.597656 441.351562 312.863281 441.175781 313.164062 441.050781 C 313.464844 440.925781 313.78125 440.863281 314.105469 440.863281 C 314.40625 440.894531 314.695312 440.984375 314.964844 441.121094 C 315.234375 441.261719 315.46875 441.445312 315.671875 441.671875 C 315.871094 441.898438 316.027344 442.152344 316.132812 442.4375 C 316.242188 442.722656 316.292969 443.015625 316.292969 443.316406 Z M 316.292969 507.429688 " fill-opacity="1" fill-rule="nonzero"/><path fill="rgb(0%, 0%, 0%)" d="M 327.21875 495.972656 C 327.222656 496.277344 327.167969 496.570312 327.0625 496.851562 C 326.957031 497.136719 326.800781 497.390625 326.597656 497.617188 C 326.398438 497.847656 326.160156 498.027344 325.890625 498.167969 C 325.621094 498.308594 325.335938 498.394531 325.035156 498.429688 L 323.121094 498.429688 C 322.820312 498.394531 322.535156 498.308594 322.265625 498.167969 C 321.996094 498.027344 321.757812 497.847656 321.558594 497.617188 C 321.355469 497.390625 321.203125 497.136719 321.09375 496.851562 C 320.988281 496.570312 320.933594 496.277344 320.9375 495.972656 L 320.9375 454.503906 C 320.964844 454.222656 321.042969 453.957031 321.164062 453.703125 C 321.285156 453.449219 321.445312 453.226562 321.644531 453.027344 C 321.84375 452.828125 322.066406 452.667969 322.320312 452.546875 C 322.574219 452.425781 322.84375 452.351562 323.121094 452.320312 L 324.761719 452.320312 C 325.042969 452.351562 325.308594 452.425781 325.5625 452.546875 C 325.816406 452.667969 326.042969 452.828125 326.242188 453.027344 C 326.441406 453.226562 326.597656 453.449219 326.722656 453.703125 C 326.84375 453.957031 326.917969 454.222656 326.945312 454.503906 Z M 327.21875 495.972656 " fill-opacity="1" fill-rule="nonzero"/><path fill="rgb(0%, 0%, 0%)" d="M 337.875 505.792969 C 337.875 506.121094 337.8125 506.433594 337.6875 506.734375 C 337.5625 507.035156 337.386719 507.300781 337.15625 507.53125 C 336.925781 507.761719 336.660156 507.9375 336.359375 508.0625 C 336.054688 508.1875 335.742188 508.25 335.417969 508.25 C 335.089844 508.25 334.777344 508.1875 334.476562 508.0625 C 334.175781 507.9375 333.910156 507.761719 333.679688 507.53125 C 333.449219 507.300781 333.269531 507.035156 333.144531 506.734375 C 333.019531 506.433594 332.957031 506.121094 332.957031 505.792969 L 332.957031 444.953125 C 332.957031 444.617188 333.015625 444.289062 333.136719 443.96875 C 333.257812 443.652344 333.433594 443.367188 333.660156 443.117188 C 333.886719 442.863281 334.152344 442.660156 334.453125 442.507812 C 334.757812 442.355469 335.078125 442.261719 335.417969 442.226562 C 335.753906 442.261719 336.074219 442.355469 336.378906 442.507812 C 336.683594 442.660156 336.945312 442.863281 337.175781 443.117188 C 337.402344 443.367188 337.574219 443.652344 337.695312 443.96875 C 337.816406 444.289062 337.878906 444.617188 337.875 444.953125 Z M 337.875 505.792969 " fill-opacity="1" fill-rule="nonzero"/><path fill="rgb(0%, 0%, 0%)" d="M 348.804688 512.34375 C 348.804688 512.679688 348.746094 513.007812 348.625 513.328125 C 348.503906 513.644531 348.332031 513.929688 348.101562 514.179688 C 347.875 514.433594 347.609375 514.636719 347.308594 514.789062 C 347.003906 514.941406 346.683594 515.035156 346.34375 515.070312 C 346.007812 515.035156 345.6875 514.941406 345.382812 514.789062 C 345.082031 514.636719 344.816406 514.433594 344.585938 514.179688 C 344.359375 513.929688 344.1875 513.644531 344.066406 513.328125 C 343.945312 513.007812 343.886719 512.679688 343.886719 512.34375 L 343.886719 438.132812 C 343.886719 437.808594 343.949219 437.496094 344.074219 437.195312 C 344.199219 436.894531 344.375 436.628906 344.605469 436.398438 C 344.835938 436.167969 345.101562 435.992188 345.40625 435.867188 C 345.707031 435.742188 346.019531 435.679688 346.34375 435.679688 C 346.671875 435.679688 346.984375 435.742188 347.285156 435.867188 C 347.585938 435.992188 347.855469 436.167969 348.085938 436.398438 C 348.316406 436.628906 348.492188 436.894531 348.617188 437.195312 C 348.742188 437.496094 348.804688 437.808594 348.804688 438.132812 Z M 348.804688 512.34375 " fill-opacity="1" fill-rule="nonzero"/><path fill="rgb(0%, 0%, 0%)" d="M 356.453125 411.945312 L 357 411.945312 C 357.363281 411.945312 357.710938 412.011719 358.046875 412.152344 C 358.382812 412.289062 358.675781 412.488281 358.933594 412.742188 C 359.1875 413 359.386719 413.292969 359.523438 413.628906 C 359.664062 413.960938 359.734375 414.308594 359.734375 414.671875 L 359.734375 536.078125 C 359.734375 536.4375 359.664062 536.789062 359.523438 537.121094 C 359.386719 537.457031 359.1875 537.75 358.933594 538.007812 C 358.675781 538.261719 358.382812 538.460938 358.046875 538.597656 C 357.710938 538.738281 357.363281 538.804688 357 538.804688 L 356.453125 538.804688 C 356.09375 538.804688 355.742188 538.738281 355.410156 538.597656 C 355.074219 538.460938 354.777344 538.261719 354.523438 538.007812 C 354.265625 537.75 354.070312 537.457031 353.929688 537.121094 C 353.792969 536.789062 353.722656 536.4375 353.722656 536.078125 L 353.722656 414.671875 C 353.722656 414.308594 353.792969 413.960938 353.929688 413.628906 C 354.070312 413.292969 354.265625 413 354.523438 412.742188 C 354.777344 412.488281 355.074219 412.289062 355.410156 412.152344 C 355.742188 412.011719 356.09375 411.945312 356.453125 411.945312 Z M 356.453125 411.945312 " fill-opacity="1" fill-rule="nonzero"/><path fill="rgb(0%, 0%, 0%)" d="M 367.109375 432.132812 L 367.65625 432.132812 C 368.019531 432.132812 368.367188 432.203125 368.703125 432.339844 C 369.035156 432.476562 369.332031 432.675781 369.589844 432.929688 C 369.84375 433.1875 370.042969 433.480469 370.179688 433.816406 C 370.320312 434.152344 370.386719 434.5 370.386719 434.859375 L 370.386719 515.886719 C 370.386719 516.25 370.320312 516.597656 370.179688 516.933594 C 370.042969 517.265625 369.84375 517.5625 369.589844 517.816406 C 369.332031 518.074219 369.035156 518.269531 368.703125 518.410156 C 368.367188 518.546875 368.019531 518.617188 367.65625 518.617188 L 367.109375 518.617188 C 366.746094 518.617188 366.398438 518.546875 366.0625 518.410156 C 365.730469 518.269531 365.433594 518.074219 365.179688 517.816406 C 364.921875 517.5625 364.722656 517.265625 364.585938 516.933594 C 364.445312 516.597656 364.378906 516.25 364.378906 515.886719 L 364.378906 434.859375 C 364.378906 434.5 364.445312 434.152344 364.585938 433.816406 C 364.722656 433.480469 364.921875 433.1875 365.179688 432.929688 C 365.433594 432.675781 365.730469 432.476562 366.0625 432.339844 C 366.398438 432.203125 366.746094 432.132812 367.109375 432.132812 Z M 367.109375 432.132812 " fill-opacity="1" fill-rule="nonzero"/><path fill="rgb(0%, 0%, 0%)" d="M 381.042969 521.890625 C 381.070312 522.105469 381.070312 522.320312 381.046875 522.539062 C 381.019531 522.753906 380.96875 522.964844 380.894531 523.167969 C 380.820312 523.371094 380.722656 523.5625 380.601562 523.742188 C 380.480469 523.921875 380.339844 524.085938 380.179688 524.234375 C 380.019531 524.378906 379.84375 524.507812 379.652344 524.613281 C 379.460938 524.714844 379.261719 524.796875 379.050781 524.855469 C 378.839844 524.910156 378.628906 524.945312 378.410156 524.949219 C 378.191406 524.957031 377.976562 524.9375 377.765625 524.890625 C 377.378906 524.894531 377.007812 524.816406 376.652344 524.660156 C 376.296875 524.503906 375.992188 524.285156 375.730469 524 C 375.46875 523.710938 375.277344 523.386719 375.15625 523.019531 C 375.035156 522.652344 374.996094 522.277344 375.03125 521.890625 L 375.03125 428.585938 C 375.011719 428.402344 375.011719 428.214844 375.03125 428.03125 C 375.050781 427.847656 375.089844 427.667969 375.152344 427.492188 C 375.210938 427.316406 375.292969 427.148438 375.390625 426.992188 C 375.488281 426.835938 375.605469 426.691406 375.734375 426.558594 C 375.867188 426.429688 376.011719 426.3125 376.167969 426.214844 C 376.328125 426.117188 376.492188 426.035156 376.667969 425.976562 C 376.84375 425.914062 377.027344 425.875 377.210938 425.855469 C 377.394531 425.835938 377.582031 425.835938 377.765625 425.855469 C 377.949219 425.835938 378.132812 425.835938 378.320312 425.855469 C 378.503906 425.875 378.683594 425.914062 378.859375 425.976562 C 379.035156 426.035156 379.203125 426.117188 379.359375 426.214844 C 379.519531 426.3125 379.664062 426.429688 379.792969 426.558594 C 379.925781 426.691406 380.039062 426.835938 380.140625 426.992188 C 380.238281 427.148438 380.316406 427.316406 380.378906 427.492188 C 380.441406 427.667969 380.480469 427.847656 380.5 428.03125 C 380.519531 428.214844 380.519531 428.402344 380.496094 428.585938 Z M 381.042969 521.890625 " fill-opacity="1" fill-rule="nonzero"/><path fill="rgb(0%, 0%, 0%)" d="M 388.148438 456.140625 L 390.058594 456.140625 C 390.3125 456.140625 390.558594 456.1875 390.792969 456.285156 C 391.027344 456.382812 391.234375 456.519531 391.410156 456.699219 C 391.589844 456.878906 391.730469 457.085938 391.828125 457.320312 C 391.921875 457.554688 391.972656 457.796875 391.972656 458.050781 L 391.972656 492.425781 C 391.972656 492.714844 391.917969 492.992188 391.804688 493.261719 C 391.695312 493.527344 391.535156 493.765625 391.332031 493.96875 C 391.128906 494.175781 390.890625 494.332031 390.621094 494.441406 C 390.355469 494.554688 390.078125 494.609375 389.785156 494.609375 L 387.875 494.609375 C 387.621094 494.609375 387.375 494.558594 387.140625 494.464844 C 386.90625 494.367188 386.699219 494.226562 386.523438 494.050781 C 386.34375 493.871094 386.203125 493.664062 386.105469 493.429688 C 386.011719 493.195312 385.960938 492.953125 385.960938 492.699219 L 385.960938 458.324219 C 385.960938 458.035156 386.015625 457.753906 386.128906 457.488281 C 386.238281 457.21875 386.398438 456.984375 386.601562 456.78125 C 386.804688 456.574219 387.042969 456.417969 387.3125 456.308594 C 387.578125 456.195312 387.855469 456.140625 388.148438 456.140625 Z M 388.148438 456.140625 " fill-opacity="1" fill-rule="nonzero"/><path fill="rgb(0%, 0%, 0%)" d="M 402.628906 503.066406 C 402.628906 503.390625 402.566406 503.703125 402.441406 504.003906 C 402.316406 504.304688 402.136719 504.570312 401.90625 504.800781 C 401.675781 505.03125 401.410156 505.210938 401.109375 505.335938 C 400.808594 505.460938 400.496094 505.519531 400.167969 505.519531 C 399.765625 505.722656 399.339844 505.808594 398.890625 505.777344 C 398.441406 505.746094 398.03125 505.605469 397.660156 505.347656 C 397.292969 505.089844 397.011719 504.757812 396.824219 504.351562 C 396.636719 503.941406 396.570312 503.511719 396.617188 503.066406 L 396.617188 448.5 C 396.617188 448.175781 396.679688 447.863281 396.804688 447.5625 C 396.929688 447.261719 397.105469 446.996094 397.335938 446.765625 C 397.566406 446.535156 397.832031 446.359375 398.136719 446.234375 C 398.4375 446.109375 398.75 446.046875 399.074219 446.046875 C 399.476562 445.84375 399.902344 445.757812 400.351562 445.789062 C 400.800781 445.820312 401.210938 445.964844 401.582031 446.21875 C 401.953125 446.476562 402.230469 446.808594 402.417969 447.21875 C 402.605469 447.625 402.675781 448.054688 402.628906 448.5 Z M 402.628906 503.066406 " fill-opacity="1" fill-rule="nonzero"/><path fill="rgb(0%, 0%, 0%)" d="M 410.277344 432.949219 L 410.824219 432.949219 C 411.1875 432.949219 411.535156 433.019531 411.871094 433.160156 C 412.203125 433.296875 412.5 433.492188 412.757812 433.75 C 413.011719 434.003906 413.210938 434.300781 413.347656 434.636719 C 413.488281 434.96875 413.554688 435.316406 413.554688 435.679688 L 413.554688 515.070312 C 413.554688 515.433594 413.488281 515.78125 413.347656 516.113281 C 413.210938 516.449219 413.011719 516.742188 412.757812 517 C 412.5 517.253906 412.203125 517.453125 411.871094 517.589844 C 411.535156 517.730469 411.1875 517.796875 410.824219 517.796875 L 410.277344 517.796875 C 409.914062 517.796875 409.566406 517.730469 409.230469 517.589844 C 408.898438 517.453125 408.601562 517.253906 408.34375 517 C 408.089844 516.742188 407.890625 516.449219 407.753906 516.113281 C 407.613281 515.78125 407.546875 515.433594 407.546875 515.070312 L 407.546875 435.679688 C 407.546875 435.316406 407.613281 434.96875 407.753906 434.636719 C 407.890625 434.300781 408.089844 434.003906 408.34375 433.75 C 408.601562 433.492188 408.898438 433.296875 409.230469 433.160156 C 409.566406 433.019531 409.914062 432.949219 410.277344 432.949219 Z M 410.277344 432.949219 " fill-opacity="1" fill-rule="nonzero"/><path fill="rgb(0%, 0%, 0%)" d="M 420.933594 417.671875 L 421.480469 417.671875 C 421.839844 417.671875 422.191406 417.742188 422.523438 417.878906 C 422.859375 418.019531 423.15625 418.214844 423.410156 418.472656 C 423.667969 418.726562 423.863281 419.023438 424.003906 419.355469 C 424.140625 419.691406 424.210938 420.039062 424.210938 420.402344 L 424.210938 530.347656 C 424.210938 530.710938 424.140625 531.058594 424.003906 531.390625 C 423.863281 531.726562 423.667969 532.023438 423.410156 532.277344 C 423.15625 532.53125 422.859375 532.730469 422.523438 532.867188 C 422.191406 533.007812 421.839844 533.078125 421.480469 533.078125 L 420.933594 533.078125 C 420.570312 533.078125 420.222656 533.007812 419.886719 532.867188 C 419.550781 532.730469 419.257812 532.53125 419 532.277344 C 418.746094 532.023438 418.546875 531.726562 418.410156 531.390625 C 418.269531 531.058594 418.199219 530.710938 418.199219 530.347656 L 418.199219 420.402344 C 418.199219 420.039062 418.269531 419.691406 418.410156 419.355469 C 418.546875 419.023438 418.746094 418.726562 419 418.472656 C 419.257812 418.214844 419.550781 418.019531 419.886719 417.878906 C 420.222656 417.742188 420.570312 417.671875 420.933594 417.671875 Z M 420.933594 417.671875 " fill-opacity="1" fill-rule="nonzero"/><path fill="rgb(0%, 0%, 0%)" d="M 434.867188 519.707031 C 434.90625 520.070312 434.871094 520.425781 434.765625 520.773438 C 434.664062 521.125 434.496094 521.4375 434.265625 521.722656 C 434.035156 522.003906 433.757812 522.230469 433.433594 522.402344 C 433.113281 522.570312 432.769531 522.675781 432.40625 522.710938 C 432.019531 522.710938 431.648438 522.632812 431.296875 522.480469 C 430.941406 522.324219 430.632812 522.101562 430.371094 521.816406 C 430.113281 521.53125 429.921875 521.203125 429.800781 520.835938 C 429.679688 520.46875 429.636719 520.09375 429.675781 519.707031 L 429.675781 430.769531 C 429.675781 430.40625 429.746094 430.058594 429.882812 429.722656 C 430.023438 429.390625 430.21875 429.09375 430.476562 428.839844 C 430.730469 428.582031 431.027344 428.386719 431.363281 428.246094 C 431.695312 428.109375 432.046875 428.039062 432.40625 428.039062 C 432.746094 428.074219 433.066406 428.167969 433.371094 428.320312 C 433.671875 428.472656 433.9375 428.675781 434.164062 428.929688 C 434.394531 429.179688 434.566406 429.464844 434.6875 429.785156 C 434.808594 430.101562 434.867188 430.429688 434.867188 430.769531 Z M 434.867188 519.707031 " fill-opacity="1" fill-rule="nonzero"/><path fill="rgb(0%, 0%, 0%)" d="M 442.515625 436.769531 L 443.0625 436.769531 C 443.425781 436.769531 443.773438 436.839844 444.109375 436.976562 C 444.445312 437.117188 444.738281 437.3125 444.996094 437.570312 C 445.25 437.824219 445.449219 438.121094 445.585938 438.453125 C 445.726562 438.789062 445.796875 439.136719 445.796875 439.5 L 445.796875 510.976562 C 445.796875 511.339844 445.726562 511.6875 445.585938 512.023438 C 445.449219 512.355469 445.25 512.652344 444.996094 512.90625 C 444.738281 513.164062 444.445312 513.359375 444.109375 513.5 C 443.773438 513.636719 443.425781 513.707031 443.0625 513.707031 L 442.515625 513.707031 C 442.15625 513.707031 441.804688 513.636719 441.472656 513.5 C 441.136719 513.359375 440.839844 513.164062 440.585938 512.90625 C 440.328125 512.652344 440.132812 512.355469 439.992188 512.023438 C 439.855469 511.6875 439.785156 511.339844 439.785156 510.976562 L 439.785156 439.5 C 439.785156 439.136719 439.855469 438.789062 439.992188 438.453125 C 440.132812 438.121094 440.328125 437.824219 440.585938 437.570312 C 440.839844 437.3125 441.136719 437.117188 441.472656 436.976562 C 441.804688 436.839844 442.15625 436.769531 442.515625 436.769531 Z M 442.515625 436.769531 " fill-opacity="1" fill-rule="nonzero"/><path fill="rgb(0%, 0%, 0%)" d="M 456.449219 499.792969 C 456.664062 500.152344 456.765625 500.542969 456.753906 500.960938 C 456.746094 501.382812 456.621094 501.765625 456.390625 502.117188 C 456.15625 502.464844 455.847656 502.726562 455.464844 502.898438 C 455.082031 503.066406 454.679688 503.125 454.265625 503.066406 L 452.898438 503.066406 C 452.597656 503.03125 452.3125 502.945312 452.042969 502.804688 C 451.773438 502.667969 451.535156 502.484375 451.335938 502.257812 C 451.132812 502.03125 450.976562 501.773438 450.871094 501.492188 C 450.765625 501.207031 450.710938 500.914062 450.714844 500.609375 L 450.714844 450.683594 C 450.742188 450.40625 450.820312 450.136719 450.941406 449.886719 C 451.0625 449.632812 451.222656 449.40625 451.417969 449.207031 C 451.617188 449.007812 451.84375 448.847656 452.097656 448.726562 C 452.351562 448.605469 452.621094 448.53125 452.898438 448.5 L 454.265625 448.5 C 454.554688 448.5 454.832031 448.558594 455.101562 448.667969 C 455.371094 448.777344 455.605469 448.9375 455.8125 449.140625 C 456.015625 449.34375 456.171875 449.582031 456.285156 449.847656 C 456.394531 450.117188 456.449219 450.394531 456.449219 450.683594 Z M 456.449219 499.792969 " fill-opacity="1" fill-rule="nonzero"/><path fill="rgb(0%, 0%, 0%)" d="M 467.378906 514.25 C 467.378906 514.613281 467.308594 514.960938 467.171875 515.296875 C 467.03125 515.628906 466.835938 515.925781 466.578125 516.179688 C 466.324219 516.4375 466.027344 516.632812 465.691406 516.773438 C 465.359375 516.910156 465.007812 516.980469 464.648438 516.980469 C 464.285156 516.980469 463.9375 516.910156 463.601562 516.773438 C 463.265625 516.632812 462.972656 516.4375 462.714844 516.179688 C 462.460938 515.925781 462.261719 515.628906 462.121094 515.296875 C 461.984375 514.960938 461.914062 514.613281 461.914062 514.25 L 461.914062 436.496094 C 461.914062 436.121094 461.980469 435.757812 462.113281 435.410156 C 462.25 435.058594 462.445312 434.742188 462.695312 434.464844 C 462.949219 434.1875 463.246094 433.964844 463.582031 433.796875 C 463.917969 433.632812 464.273438 433.53125 464.648438 433.496094 C 465.023438 433.53125 465.378906 433.632812 465.714844 433.796875 C 466.050781 433.964844 466.34375 434.1875 466.597656 434.464844 C 466.851562 434.742188 467.042969 435.058594 467.179688 435.410156 C 467.3125 435.757812 467.382812 436.121094 467.378906 436.496094 Z M 467.378906 514.25 " fill-opacity="1" fill-rule="nonzero"/><path fill="rgb(0%, 0%, 0%)" d="M 475.03125 415.761719 L 475.574219 415.761719 C 475.9375 415.761719 476.285156 415.832031 476.621094 415.96875 C 476.957031 416.109375 477.25 416.304688 477.507812 416.5625 C 477.765625 416.816406 477.960938 417.113281 478.101562 417.445312 C 478.238281 417.78125 478.308594 418.128906 478.308594 418.492188 L 478.308594 531.984375 C 478.308594 532.347656 478.238281 532.695312 478.101562 533.027344 C 477.960938 533.363281 477.765625 533.660156 477.507812 533.914062 C 477.25 534.171875 476.957031 534.367188 476.621094 534.503906 C 476.285156 534.644531 475.9375 534.714844 475.574219 534.714844 L 475.03125 534.714844 C 474.667969 534.714844 474.320312 534.644531 473.984375 534.503906 C 473.648438 534.367188 473.355469 534.171875 473.097656 533.914062 C 472.839844 533.660156 472.644531 533.363281 472.503906 533.027344 C 472.367188 532.695312 472.296875 532.347656 472.296875 531.984375 L 472.296875 418.492188 C 472.296875 418.128906 472.367188 417.78125 472.503906 417.445312 C 472.644531 417.113281 472.839844 416.816406 473.097656 416.5625 C 473.355469 416.304688 473.648438 416.109375 473.984375 415.96875 C 474.320312 415.832031 474.667969 415.761719 475.03125 415.761719 Z M 475.03125 415.761719 " fill-opacity="1" fill-rule="nonzero"/><path fill="rgb(0%, 0%, 0%)" d="M 485.683594 425.585938 L 486.230469 425.585938 C 486.59375 425.585938 486.941406 425.652344 487.277344 425.792969 C 487.613281 425.929688 487.90625 426.128906 488.164062 426.382812 C 488.417969 426.640625 488.617188 426.933594 488.753906 427.269531 C 488.894531 427.601562 488.964844 427.949219 488.964844 428.3125 L 488.964844 522.4375 C 488.964844 522.796875 488.894531 523.144531 488.753906 523.480469 C 488.617188 523.816406 488.417969 524.109375 488.164062 524.367188 C 487.90625 524.621094 487.613281 524.820312 487.277344 524.957031 C 486.941406 525.09375 486.59375 525.164062 486.230469 525.164062 L 485.683594 525.164062 C 485.324219 525.164062 484.972656 525.09375 484.640625 524.957031 C 484.304688 524.820312 484.007812 524.621094 483.753906 524.367188 C 483.496094 524.109375 483.300781 523.816406 483.160156 523.480469 C 483.023438 523.144531 482.953125 522.796875 482.953125 522.4375 L 482.953125 428.3125 C 482.953125 427.949219 483.023438 427.601562 483.160156 427.269531 C 483.300781 426.933594 483.496094 426.640625 483.753906 426.382812 C 484.007812 426.128906 484.304688 425.929688 484.640625 425.792969 C 484.972656 425.652344 485.324219 425.585938 485.683594 425.585938 Z M 485.683594 425.585938 " fill-opacity="1" fill-rule="nonzero"/><path fill="rgb(0%, 0%, 0%)" d="M 499.617188 503.066406 C 499.617188 503.390625 499.554688 503.703125 499.429688 504.003906 C 499.304688 504.304688 499.128906 504.570312 498.898438 504.800781 C 498.667969 505.03125 498.402344 505.210938 498.101562 505.335938 C 497.800781 505.460938 497.484375 505.519531 497.160156 505.519531 C 496.96875 505.589844 496.773438 505.632812 496.570312 505.652344 C 496.367188 505.671875 496.167969 505.664062 495.964844 505.636719 C 495.765625 505.605469 495.570312 505.550781 495.382812 505.472656 C 495.199219 505.394531 495.023438 505.292969 494.859375 505.171875 C 494.699219 505.050781 494.554688 504.910156 494.425781 504.753906 C 494.296875 504.597656 494.191406 504.425781 494.105469 504.242188 C 494.019531 504.058594 493.957031 503.867188 493.921875 503.667969 C 493.882812 503.46875 493.871094 503.269531 493.882812 503.066406 L 493.882812 448.5 C 493.84375 448.152344 493.875 447.8125 493.984375 447.476562 C 494.089844 447.144531 494.261719 446.847656 494.496094 446.585938 C 494.730469 446.324219 495.011719 446.125 495.332031 445.984375 C 495.652344 445.839844 495.988281 445.769531 496.339844 445.773438 C 496.691406 445.769531 497.027344 445.839844 497.347656 445.984375 C 497.671875 446.125 497.949219 446.324219 498.183594 446.585938 C 498.417969 446.847656 498.589844 447.144531 498.695312 447.476562 C 498.804688 447.8125 498.839844 448.152344 498.800781 448.5 Z M 499.617188 503.066406 " fill-opacity="1" fill-rule="nonzero"/><path fill="rgb(0%, 0%, 0%)" d="M 510.546875 525.984375 C 510.546875 526.359375 510.480469 526.722656 510.347656 527.070312 C 510.210938 527.421875 510.019531 527.738281 509.765625 528.015625 C 509.511719 528.292969 509.21875 528.515625 508.882812 528.683594 C 508.542969 528.847656 508.1875 528.949219 507.816406 528.984375 C 507.429688 528.984375 507.058594 528.910156 506.703125 528.753906 C 506.347656 528.597656 506.039062 528.378906 505.78125 528.089844 C 505.519531 527.804688 505.328125 527.476562 505.207031 527.109375 C 505.085938 526.742188 505.042969 526.367188 505.082031 525.984375 L 505.082031 424.492188 C 505.0625 424.308594 505.058594 424.125 505.078125 423.941406 C 505.101562 423.753906 505.140625 423.574219 505.199219 423.398438 C 505.261719 423.222656 505.34375 423.058594 505.441406 422.898438 C 505.539062 422.742188 505.65625 422.597656 505.785156 422.46875 C 505.917969 422.335938 506.0625 422.21875 506.21875 422.121094 C 506.378906 422.023438 506.542969 421.945312 506.71875 421.882812 C 506.894531 421.824219 507.074219 421.78125 507.261719 421.761719 C 507.445312 421.742188 507.628906 421.742188 507.816406 421.765625 C 508.175781 421.765625 508.527344 421.835938 508.859375 421.972656 C 509.195312 422.109375 509.492188 422.308594 509.746094 422.5625 C 510.003906 422.820312 510.199219 423.113281 510.339844 423.449219 C 510.476562 423.785156 510.546875 424.132812 510.546875 424.492188 Z M 510.546875 525.984375 " fill-opacity="1" fill-rule="nonzero"/><g clip-path="url(#id1)"><path fill="rgb(0%, 0%, 0%)" d="M 581.855469 536.625 C 581.78125 537.207031 581.675781 537.785156 581.542969 538.355469 C 581.410156 538.929688 581.25 539.496094 581.0625 540.050781 C 580.871094 540.609375 580.65625 541.152344 580.414062 541.6875 C 580.171875 542.226562 579.902344 542.746094 579.605469 543.253906 C 579.308594 543.765625 578.988281 544.257812 578.644531 544.734375 C 578.300781 545.210938 577.933594 545.667969 577.542969 546.109375 C 577.152344 546.550781 576.742188 546.96875 576.3125 547.367188 C 575.878906 547.769531 575.429688 548.144531 574.960938 548.5 C 574.488281 548.855469 574.003906 549.1875 573.5 549.492188 C 573 549.796875 572.484375 550.078125 571.953125 550.335938 C 571.421875 550.589844 570.878906 550.816406 570.328125 551.019531 C 569.773438 551.222656 569.210938 551.394531 568.640625 551.539062 C 568.070312 551.6875 567.496094 551.804688 566.914062 551.890625 C 566.332031 551.980469 565.746094 552.039062 565.15625 552.070312 C 564.570312 552.101562 563.980469 552.101562 563.394531 552.074219 C 562.804688 552.042969 562.21875 551.988281 561.636719 551.902344 L 526.941406 546.445312 C 526.359375 546.328125 525.785156 546.1875 525.21875 546.019531 C 524.652344 545.847656 524.09375 545.652344 523.546875 545.429688 C 523 545.207031 522.464844 544.960938 521.941406 544.683594 C 521.414062 544.410156 520.90625 544.113281 520.410156 543.789062 C 519.914062 543.46875 519.433594 543.125 518.972656 542.753906 C 518.507812 542.386719 518.066406 541.996094 517.640625 541.585938 C 517.214844 541.175781 516.808594 540.746094 516.425781 540.296875 C 516.042969 539.847656 515.679688 539.382812 515.339844 538.898438 C 515 538.414062 514.683594 537.917969 514.390625 537.402344 C 514.101562 536.890625 513.832031 536.363281 513.59375 535.824219 C 513.351562 535.285156 513.136719 534.734375 512.945312 534.175781 C 512.757812 533.613281 512.59375 533.046875 512.460938 532.472656 C 512.324219 531.898438 512.21875 531.316406 512.140625 530.730469 C 512.058594 530.144531 512.007812 529.558594 511.988281 528.96875 C 511.964844 528.378906 511.96875 527.789062 512.003906 527.199219 C 512.035156 526.609375 512.097656 526.019531 512.1875 525.4375 L 517.105469 493.246094 C 517.105469 493.246094 515.191406 493.246094 515.191406 491.609375 L 515.191406 459.140625 C 515.222656 458.898438 515.289062 458.667969 515.394531 458.445312 C 515.503906 458.226562 515.644531 458.027344 515.816406 457.855469 C 515.992188 457.683594 516.1875 457.542969 516.40625 457.4375 C 516.628906 457.328125 516.859375 457.261719 517.105469 457.230469 L 519.289062 457.230469 C 519.542969 457.230469 519.789062 457.28125 520.023438 457.378906 C 520.257812 457.472656 520.464844 457.613281 520.640625 457.792969 C 520.820312 457.96875 520.960938 458.175781 521.058594 458.410156 C 521.152344 458.644531 521.203125 458.886719 521.203125 459.140625 L 521.203125 464.324219 L 526.667969 426.949219 C 526.792969 426.003906 526.996094 425.078125 527.273438 424.164062 C 527.550781 423.253906 527.898438 422.371094 528.324219 421.519531 C 528.746094 420.664062 529.234375 419.851562 529.789062 419.078125 C 530.347656 418.300781 530.960938 417.578125 531.636719 416.90625 C 532.308594 416.230469 533.035156 415.617188 533.808594 415.0625 C 534.585938 414.507812 535.398438 414.019531 536.253906 413.597656 C 537.109375 413.175781 537.996094 412.824219 538.90625 412.546875 C 539.820312 412.269531 540.75 412.070312 541.695312 411.945312 C 539.769531 400.496094 536.402344 389.492188 531.585938 378.933594 C 530.054688 378.746094 528.570312 378.386719 527.125 377.855469 C 525.679688 377.320312 524.316406 376.628906 523.035156 375.773438 C 521.753906 374.921875 520.589844 373.933594 519.542969 372.804688 C 518.492188 371.679688 517.589844 370.449219 516.832031 369.109375 C 515.445312 366.546875 513.976562 364.035156 512.425781 361.570312 C 510.871094 359.105469 509.238281 356.695312 507.527344 354.339844 C 505.8125 351.988281 504.023438 349.691406 502.15625 347.453125 C 500.289062 345.21875 498.347656 343.046875 496.335938 340.941406 C 494.324219 338.832031 492.246094 336.796875 490.097656 334.828125 C 487.949219 332.859375 485.738281 330.964844 483.464844 329.140625 C 481.1875 327.320312 478.855469 325.578125 476.464844 323.910156 C 474.074219 322.246094 471.628906 320.660156 469.132812 319.15625 C 466.636719 317.65625 464.09375 316.234375 461.5 314.902344 C 458.910156 313.570312 456.277344 312.324219 453.601562 311.164062 C 450.925781 310.007812 448.214844 308.9375 445.46875 307.960938 C 442.722656 306.984375 439.949219 306.097656 437.144531 305.304688 C 434.339844 304.511719 431.507812 303.8125 428.65625 303.207031 C 425.804688 302.605469 422.9375 302.09375 420.050781 301.679688 C 417.164062 301.269531 414.269531 300.949219 411.359375 300.730469 C 408.453125 300.507812 405.542969 300.386719 402.628906 300.359375 C 399.730469 300.398438 396.835938 300.539062 393.945312 300.769531 C 391.054688 301.003906 388.175781 301.332031 385.308594 301.757812 C 382.441406 302.183594 379.589844 302.699219 376.757812 303.3125 C 373.921875 303.925781 371.113281 304.632812 368.328125 305.433594 C 365.542969 306.234375 362.785156 307.125 360.058594 308.109375 C 357.332031 309.089844 354.640625 310.164062 351.984375 311.324219 C 349.328125 312.488281 346.714844 313.734375 344.140625 315.070312 C 341.570312 316.40625 339.042969 317.824219 336.566406 319.328125 C 334.089844 320.828125 331.664062 322.414062 329.289062 324.074219 C 326.917969 325.738281 324.601562 327.480469 322.34375 329.296875 C 320.089844 331.113281 317.894531 333.003906 315.761719 334.96875 C 313.632812 336.929688 311.570312 338.960938 309.574219 341.0625 C 307.578125 343.160156 305.652344 345.324219 303.800781 347.550781 C 301.949219 349.777344 300.171875 352.066406 298.472656 354.410156 C 296.773438 356.753906 295.152344 359.15625 293.613281 361.605469 C 292.074219 364.058594 290.617188 366.5625 289.242188 369.109375 C 288.480469 370.484375 287.5625 371.75 286.5 372.90625 C 285.433594 374.0625 284.25 375.082031 282.945312 375.957031 C 281.636719 376.835938 280.246094 377.550781 278.773438 378.097656 C 277.296875 378.644531 275.777344 379.015625 274.21875 379.203125 C 269.691406 389.667969 266.324219 400.488281 264.109375 411.671875 C 264.675781 411.605469 265.246094 411.566406 265.816406 411.554688 C 266.390625 411.542969 266.960938 411.5625 267.53125 411.605469 C 268.101562 411.652344 268.667969 411.726562 269.230469 411.828125 C 269.792969 411.925781 270.351562 412.054688 270.902344 412.210938 C 271.453125 412.367188 271.992188 412.546875 272.527344 412.757812 C 273.058594 412.964844 273.578125 413.199219 274.089844 413.457031 C 274.597656 413.71875 275.09375 414.003906 275.574219 414.308594 C 276.058594 414.617188 276.523438 414.949219 276.972656 415.304688 C 277.421875 415.65625 277.851562 416.03125 278.265625 416.425781 C 278.675781 416.824219 279.066406 417.238281 279.4375 417.671875 C 279.8125 418.105469 280.160156 418.558594 280.488281 419.027344 C 280.8125 419.496094 281.117188 419.980469 281.398438 420.476562 C 281.675781 420.976562 281.929688 421.488281 282.160156 422.011719 C 282.390625 422.535156 282.59375 423.066406 282.769531 423.609375 C 282.949219 424.152344 283.097656 424.703125 283.21875 425.261719 C 283.34375 425.820312 283.4375 426.382812 283.507812 426.949219 L 288.96875 464.324219 L 288.96875 460.777344 C 288.96875 460.523438 289.019531 460.28125 289.117188 460.046875 C 289.214844 459.8125 289.351562 459.605469 289.53125 459.429688 C 289.710938 459.25 289.917969 459.109375 290.152344 459.015625 C 290.386719 458.917969 290.628906 458.867188 290.882812 458.867188 L 293.070312 458.867188 C 293.378906 458.71875 293.707031 458.660156 294.050781 458.6875 C 294.398438 458.714844 294.710938 458.828125 294.996094 459.023438 C 295.277344 459.222656 295.492188 459.480469 295.636719 459.792969 C 295.78125 460.105469 295.835938 460.433594 295.800781 460.777344 L 295.800781 489.96875 C 295.800781 490.222656 295.753906 490.46875 295.65625 490.703125 C 295.558594 490.933594 295.417969 491.140625 295.242188 491.320312 C 295.0625 491.5 294.855469 491.636719 294.621094 491.734375 C 294.386719 491.832031 294.140625 491.878906 293.886719 491.878906 L 298.804688 525.4375 C 298.894531 526.019531 298.957031 526.609375 298.992188 527.199219 C 299.023438 527.789062 299.027344 528.378906 299.007812 528.96875 C 298.984375 529.558594 298.933594 530.144531 298.851562 530.730469 C 298.773438 531.316406 298.667969 531.898438 298.53125 532.472656 C 298.398438 533.046875 298.234375 533.613281 298.046875 534.175781 C 297.855469 534.734375 297.640625 535.285156 297.398438 535.824219 C 297.160156 536.363281 296.890625 536.890625 296.601562 537.402344 C 296.308594 537.917969 295.992188 538.414062 295.652344 538.898438 C 295.3125 539.382812 294.949219 539.847656 294.566406 540.296875 C 294.183594 540.746094 293.777344 541.175781 293.351562 541.585938 C 292.925781 541.996094 292.484375 542.386719 292.019531 542.753906 C 291.558594 543.125 291.078125 543.46875 290.582031 543.789062 C 290.085938 544.113281 289.578125 544.410156 289.054688 544.683594 C 288.527344 544.960938 287.992188 545.207031 287.445312 545.429688 C 286.898438 545.652344 286.339844 545.847656 285.773438 546.019531 C 285.207031 546.1875 284.632812 546.328125 284.050781 546.445312 L 249.355469 551.902344 C 248.773438 551.988281 248.1875 552.042969 247.597656 552.074219 C 247.011719 552.101562 246.421875 552.101562 245.835938 552.070312 C 245.246094 552.039062 244.660156 551.980469 244.078125 551.890625 C 243.496094 551.804688 242.921875 551.6875 242.351562 551.539062 C 241.78125 551.394531 241.21875 551.222656 240.664062 551.019531 C 240.113281 550.816406 239.570312 550.589844 239.039062 550.335938 C 238.511719 550.078125 237.992188 549.796875 237.492188 549.492188 C 236.988281 549.1875 236.503906 548.855469 236.035156 548.5 C 235.5625 548.144531 235.113281 547.769531 234.679688 547.367188 C 234.25 546.96875 233.839844 546.550781 233.449219 546.109375 C 233.058594 545.667969 232.691406 545.210938 232.347656 544.734375 C 232.003906 544.257812 231.683594 543.765625 231.386719 543.253906 C 231.09375 542.746094 230.824219 542.226562 230.578125 541.6875 C 230.335938 541.152344 230.121094 540.609375 229.929688 540.050781 C 229.742188 539.496094 229.582031 538.929688 229.449219 538.355469 C 229.316406 537.785156 229.210938 537.207031 229.136719 536.625 L 213.835938 438.132812 C 213.738281 437.550781 213.667969 436.960938 213.628906 436.371094 C 213.585938 435.777344 213.574219 435.1875 213.589844 434.59375 C 213.609375 434 213.652344 433.410156 213.726562 432.820312 C 213.800781 432.234375 213.902344 431.648438 214.035156 431.070312 C 214.167969 430.492188 214.324219 429.921875 214.511719 429.359375 C 214.699219 428.796875 214.914062 428.242188 215.152344 427.703125 C 215.394531 427.160156 215.660156 426.628906 215.953125 426.113281 C 216.246094 425.597656 216.5625 425.097656 216.902344 424.613281 C 217.242188 424.125 217.605469 423.65625 217.992188 423.207031 C 218.378906 422.757812 218.789062 422.328125 219.214844 421.917969 C 219.644531 421.507812 220.089844 421.117188 220.558594 420.75 C 221.023438 420.382812 221.507812 420.039062 222.007812 419.71875 C 222.507812 419.398438 223.023438 419.105469 223.550781 418.835938 C 224.078125 418.5625 224.621094 418.320312 225.171875 418.101562 C 225.726562 417.886719 226.285156 417.695312 226.855469 417.53125 C 227.429688 417.367188 228.007812 417.234375 228.589844 417.128906 L 242.796875 414.945312 C 244.804688 399.757812 248.8125 385.117188 254.820312 371.019531 C 254.230469 370.171875 253.707031 369.285156 253.242188 368.367188 C 252.777344 367.445312 252.375 366.496094 252.039062 365.523438 C 251.703125 364.546875 251.4375 363.554688 251.238281 362.542969 C 251.039062 361.53125 250.910156 360.507812 250.847656 359.480469 C 250.789062 358.449219 250.800781 357.421875 250.878906 356.394531 C 250.960938 355.367188 251.109375 354.347656 251.332031 353.339844 C 251.550781 352.332031 251.839844 351.34375 252.195312 350.375 C 252.550781 349.40625 252.96875 348.46875 253.453125 347.558594 C 257.113281 340.910156 261.1875 334.523438 265.671875 328.398438 C 270.15625 322.273438 275.015625 316.460938 280.246094 310.957031 C 285.480469 305.457031 291.042969 300.3125 296.9375 295.523438 C 302.835938 290.738281 309.011719 286.347656 315.472656 282.351562 C 318.730469 280.335938 322.050781 278.433594 325.441406 276.644531 C 328.828125 274.859375 332.277344 273.191406 335.78125 271.640625 C 339.285156 270.09375 342.839844 268.667969 346.445312 267.367188 C 350.050781 266.066406 353.695312 264.890625 357.378906 263.839844 C 361.066406 262.792969 364.785156 261.871094 368.535156 261.078125 C 372.28125 260.289062 376.054688 259.628906 379.851562 259.097656 C 383.648438 258.570312 387.457031 258.171875 391.28125 257.90625 C 395.105469 257.640625 398.929688 257.507812 402.765625 257.507812 C 406.597656 257.507812 410.425781 257.640625 414.25 257.90625 C 418.070312 258.171875 421.882812 258.570312 425.675781 259.097656 C 429.472656 259.628906 433.246094 260.289062 436.996094 261.078125 C 440.746094 261.871094 444.460938 262.792969 448.148438 263.839844 C 451.835938 264.890625 455.480469 266.066406 459.082031 267.367188 C 462.6875 268.667969 466.242188 270.09375 469.746094 271.640625 C 473.25 273.191406 476.699219 274.859375 480.085938 276.644531 C 483.476562 278.433594 486.800781 280.335938 490.054688 282.351562 C 496.476562 286.375 502.617188 290.785156 508.480469 295.585938 C 514.339844 300.386719 519.875 305.535156 525.082031 311.035156 C 530.289062 316.535156 535.128906 322.339844 539.601562 328.449219 C 544.070312 334.5625 548.140625 340.929688 551.800781 347.558594 C 552.335938 348.4375 552.808594 349.351562 553.21875 350.292969 C 553.628906 351.238281 553.96875 352.207031 554.246094 353.199219 C 554.523438 354.191406 554.734375 355.195312 554.875 356.214844 C 555.011719 357.234375 555.082031 358.257812 555.082031 359.289062 C 555.082031 360.316406 555.011719 361.34375 554.875 362.363281 C 554.734375 363.382812 554.523438 364.386719 554.246094 365.378906 C 553.96875 366.371094 553.628906 367.339844 553.21875 368.28125 C 552.808594 369.226562 552.335938 370.140625 551.800781 371.019531 C 557.640625 384.878906 561.648438 399.246094 563.824219 414.125 L 582.675781 417.128906 C 583.261719 417.234375 583.835938 417.367188 584.410156 417.53125 C 584.980469 417.695312 585.542969 417.886719 586.09375 418.101562 C 586.644531 418.320312 587.1875 418.5625 587.714844 418.835938 C 588.242188 419.105469 588.757812 419.398438 589.257812 419.71875 C 589.757812 420.039062 590.242188 420.382812 590.707031 420.75 C 591.175781 421.117188 591.621094 421.507812 592.050781 421.917969 C 592.480469 422.328125 592.886719 422.757812 593.273438 423.207031 C 593.660156 423.65625 594.023438 424.125 594.363281 424.613281 C 594.703125 425.097656 595.023438 425.597656 595.3125 426.113281 C 595.605469 426.628906 595.871094 427.160156 596.113281 427.703125 C 596.351562 428.242188 596.566406 428.796875 596.753906 429.359375 C 596.941406 429.921875 597.097656 430.492188 597.230469 431.070312 C 597.363281 431.648438 597.464844 432.234375 597.539062 432.820312 C 597.613281 433.410156 597.660156 434 597.675781 434.59375 C 597.691406 435.1875 597.679688 435.777344 597.636719 436.371094 C 597.597656 436.960938 597.527344 437.550781 597.429688 438.132812 Z M 581.855469 536.625 " fill-opacity="1" fill-rule="nonzero"/></g></svg>