<svg xmlns="http://www.w3.org/2000/svg" viewBox="0 0 22.7 21.78"><g id="fbd44e35-5f7a-43eb-9c5e-bd3a1924f3e4" data-name="Layer 2"><g id="a825eea6-e68d-4b96-af88-2dd8ddce9864" data-name="Layer 1"><path d="M18.22,0H4.48A4.43,4.43,0,0,0,0,4.81L.91,17a5.3,5.3,0,0,0,5,4.81H16.58A5.3,5.3,0,0,0,21.79,17l.89-12.16A4.42,4.42,0,0,0,18.22,0ZM7.71,15a.1.1,0,0,1-.09.1h0a.1.1,0,0,1-.09-.1V11.94a.09.09,0,0,1,.09-.1h0a.09.09,0,0,1,.09.1Zm.39-.36a.09.09,0,0,1-.09.09H8a.09.09,0,0,1-.09-.09V12.3A.09.09,0,0,1,8,12.21H8a.09.09,0,0,1,.09.09Zm.4-.42a.09.09,0,0,1-.08.09H8.36a.09.09,0,0,1-.08-.09V12.71a.09.09,0,0,1,.08-.08h.06a.09.09,0,0,1,.08.08Zm.39.36a.09.09,0,0,1-.09.09h0a.09.09,0,0,1-.09-.09V12.36a.1.1,0,0,1,.09-.1h0a.1.1,0,0,1,.09.1Zm.4.24a.09.09,0,0,1-.09.1h0a.09.09,0,0,1-.09-.1V12.11A.09.09,0,0,1,9.16,12h0a.09.09,0,0,1,.09.09Zm.39.86a.1.1,0,0,1-.1.11h0a.1.1,0,0,1-.09-.11V11.26a.1.1,0,0,1,.09-.11h0a.1.1,0,0,1,.1.11Zm.4-.74a.11.11,0,0,1-.1.11h0a.1.1,0,0,1-.1-.11V12a.1.1,0,0,1,.1-.11h0a.11.11,0,0,1,.1.11Zm.39.24a.1.1,0,0,1-.1.1h0a.11.11,0,0,1-.1-.1V11.76a.11.11,0,0,1,.1-.1h0a.1.1,0,0,1,.1.1Zm.4-1.09a.09.09,0,0,1-.08.08h-.07a.08.08,0,0,1-.07-.08V12.85a.08.08,0,0,1,.07-.08h.07a.09.09,0,0,1,.08.08Zm.39.35a.09.09,0,0,1-.09.09h0a.09.09,0,0,1-.09-.09V12.5a.09.09,0,0,1,.09-.09h0a.09.09,0,0,1,.09.09Zm.39.48a.1.1,0,0,1-.1.1h0a.1.1,0,0,1-.1-.1V12a.09.09,0,0,1,.1-.1h0a.09.09,0,0,1,.1.1Zm.4.56a.11.11,0,0,1-.1.1h0a.11.11,0,0,1-.1-.1v-4a.1.1,0,0,1,.1-.1h0a.1.1,0,0,1,.1.1Zm.39-.39a.1.1,0,0,1-.1.11h0a.1.1,0,0,1-.1-.11V11.85a.1.1,0,0,1,.1-.11h0a.1.1,0,0,1,.1.11Zm.4-.32a.11.11,0,0,1-.1.11h0a.11.11,0,0,1-.1-.11V12.17a.11.11,0,0,1,.1-.11h0a.11.11,0,0,1,.1.11Zm.39-.41a.09.09,0,0,1-.08.09H13.1a.08.08,0,0,1-.08-.09V12.58a.08.08,0,0,1,.08-.09h.05a.09.09,0,0,1,.08.09Zm.4.53a.11.11,0,0,1-.1.11h0a.1.1,0,0,1-.1-.11V12.05a.1.1,0,0,1,.1-.11h0a.11.11,0,0,1,.1.11Zm.39.65a.09.09,0,0,1-.1.1h0a.1.1,0,0,1-.1-.1V11.4a.1.1,0,0,1,.1-.1h0a.09.09,0,0,1,.1.1Zm.4-.35a.11.11,0,0,1-.1.1h0a.1.1,0,0,1-.1-.1V11.75a.09.09,0,0,1,.1-.1h0a.1.1,0,0,1,.1.1Zm.39-.73a.1.1,0,0,1-.09.1h0a.1.1,0,0,1-.09-.1v-2a.1.1,0,0,1,.09-.1h0a.1.1,0,0,1,.09.1Zm.39.87a.1.1,0,0,1-.09.1h0a.1.1,0,0,1-.1-.1V11.61a.09.09,0,0,1,.1-.1h0a.09.09,0,0,1,.09.1Zm2.62.38a.65.65,0,0,1-.74.56l-1.27-.2a.68.68,0,0,1-.54-.77l.17-1.18a.06.06,0,0,1-.06-.06V12.88a.07.07,0,0,1,.07-.07h.08a.07.07,0,0,1,.07.07v.19l.2-1.37a.64.64,0,0,1,.53-.55A6.07,6.07,0,0,0,16,9.94a.68.68,0,0,1-.54-.36,4.69,4.69,0,0,0-8.31,0,.73.73,0,0,1-.55.37,5.88,5.88,0,0,0-.37,1.19.64.64,0,0,1,.71.56l.2,1.37v-.13a.07.07,0,0,1,.06-.07h.09a.07.07,0,0,1,.06.07V14a.07.07,0,0,1-.06.07h0l.17,1.23a.66.66,0,0,1-.53.77l-1.28.2a.64.64,0,0,1-.73-.56l-.52-3.61a.66.66,0,0,1,.53-.77l.52-.08a6.31,6.31,0,0,1,.45-1.61.79.79,0,0,1-.05-.86A6.48,6.48,0,0,1,8.07,6.4a6.06,6.06,0,0,1,6.39,0,6.65,6.65,0,0,1,2.26,2.39.83.83,0,0,1,0,.86,6.49,6.49,0,0,1,.44,1.58l.69.11a.68.68,0,0,1,.54.77Z"/></g></g></svg>