<svg xmlns="http://www.w3.org/2000/svg" viewBox="0 0 22.63 22.04"><g id="ffbf54da-f028-484b-8856-0118ad349950" data-name="Layer 2"><g id="feb26614-4ce7-4950-873a-fccd6208e7a8" data-name="Layer 1"><path d="M11.32,0A11.17,11.17,0,0,0,0,11,11.17,11.17,0,0,0,11.32,22,11.16,11.16,0,0,0,22.63,11,11.16,11.16,0,0,0,11.32,0ZM7.72,14.66a.09.09,0,0,1-.08.09h0a.09.09,0,0,1-.09-.09V11.58a.09.09,0,0,1,.09-.09h0a.09.09,0,0,1,.08.09Zm.4-.36a.09.09,0,0,1-.09.09H8a.09.09,0,0,1-.09-.09V12a.1.1,0,0,1,.09-.1H8a.1.1,0,0,1,.09.1Zm.39-.42a.07.07,0,0,1-.08.08h0a.07.07,0,0,1-.08-.08V12.36a.08.08,0,0,1,.08-.08h0a.08.08,0,0,1,.08.08Zm.4.36a.09.09,0,0,1-.09.09h0a.09.09,0,0,1-.09-.09V12a.09.09,0,0,1,.09-.1h0a.09.09,0,0,1,.09.1Zm.39.24a.1.1,0,0,1-.09.1h0a.1.1,0,0,1-.08-.1V11.76a.09.09,0,0,1,.08-.09h0a.09.09,0,0,1,.09.09Zm.4.86a.1.1,0,0,1-.1.1h0a.09.09,0,0,1-.1-.1V10.9a.09.09,0,0,1,.1-.1h0a.1.1,0,0,1,.1.1Zm.39-.74a.09.09,0,0,1-.1.1h0a.1.1,0,0,1-.1-.1v-3a.1.1,0,0,1,.1-.1h0a.09.09,0,0,1,.1.1Zm.4.23a.11.11,0,0,1-.1.11h0a.1.1,0,0,1-.1-.11V11.41a.09.09,0,0,1,.1-.1h0a.1.1,0,0,1,.1.1Zm.39-1.08a.07.07,0,0,1-.07.07h-.07a.08.08,0,0,1-.08-.07V12.49a.08.08,0,0,1,.08-.07h.07a.07.07,0,0,1,.07.07Zm.39.34a.09.09,0,0,1-.08.1h0a.09.09,0,0,1-.09-.1V12.15a.09.09,0,0,1,.09-.09h0a.09.09,0,0,1,.08.09Zm.4.48a.11.11,0,0,1-.1.11h0a.11.11,0,0,1-.1-.11v-2.9a.11.11,0,0,1,.1-.11h0a.11.11,0,0,1,.1.11Zm.39.56a.1.1,0,0,1-.1.11h0a.1.1,0,0,1-.1-.11v-4A.09.09,0,0,1,12,11h0a.09.09,0,0,1,.1.1Zm.4-.38a.1.1,0,0,1-.1.1h0a.1.1,0,0,1-.1-.1V11.49a.1.1,0,0,1,.1-.1h0a.1.1,0,0,1,.1.1Zm.39-.32a.09.09,0,0,1-.1.1h0a.09.09,0,0,1-.1-.1V11.81a.1.1,0,0,1,.1-.1h0a.1.1,0,0,1,.1.1Zm.4-.41a.09.09,0,0,1-.09.09h0A.09.09,0,0,1,13,14v-1.8a.09.09,0,0,1,.09-.09h0a.09.09,0,0,1,.09.09Zm.39.53a.09.09,0,0,1-.1.1h0a.09.09,0,0,1-.09-.1V11.69a.1.1,0,0,1,.09-.1h0a.1.1,0,0,1,.1.1Zm.4.65a.11.11,0,0,1-.1.1h0a.1.1,0,0,1-.1-.1V11.05a.1.1,0,0,1,.1-.11h0a.11.11,0,0,1,.1.11Zm.39-.36a.1.1,0,0,1-.1.11h0a.11.11,0,0,1-.1-.11V11.4a.1.1,0,0,1,.1-.1h0a.09.09,0,0,1,.1.1Zm.4-.72a.09.09,0,0,1-.09.09h0a.09.09,0,0,1-.09-.09v-2A.09.09,0,0,1,14.7,12h0a.09.09,0,0,1,.09.09Zm.39.86a.1.1,0,0,1-.1.11h0A.11.11,0,0,1,15,15V11.26a.1.1,0,0,1,.1-.1h0a.09.09,0,0,1,.1.1Zm2.61.38a.64.64,0,0,1-.73.57l-1.27-.2a.67.67,0,0,1-.54-.77l.17-1.18a.07.07,0,0,1-.06-.07V12.53a.08.08,0,0,1,.07-.08h.07a.08.08,0,0,1,.07.08v.19l.2-1.37a.67.67,0,0,1,.54-.56A5.41,5.41,0,0,0,16,9.59a.74.74,0,0,1-.54-.36,4.79,4.79,0,0,0-4.15-2.52A4.8,4.8,0,0,0,7.12,9.23a.73.73,0,0,1-.54.37,5.31,5.31,0,0,0-.37,1.19.64.64,0,0,1,.7.56l.2,1.37v-.14a.08.08,0,0,1,.07-.07h.08a.08.08,0,0,1,.07.07v1.08a.07.07,0,0,1-.07.07h0L7.44,15a.68.68,0,0,1-.54.77l-1.27.2a.64.64,0,0,1-.73-.57l-.53-3.6A.67.67,0,0,1,4.91,11l.52-.09a6.52,6.52,0,0,1,.44-1.6.83.83,0,0,1,0-.86A6.57,6.57,0,0,1,8.08,6.05a6.06,6.06,0,0,1,6.39,0,6.41,6.41,0,0,1,2.26,2.39.79.79,0,0,1-.05.86,6.37,6.37,0,0,1,.44,1.58l.7.11a.67.67,0,0,1,.54.77Z"/></g></g></svg>