<svg viewBox="0 0 21 20.15" xmlns="http://www.w3.org/2000/svg" class="a"><style>.b{fill: currentColor;}.a{}</style><path d="M7.75 8.45l5.5-2.2v6.65l-5.09-2H8.1l-.35-.14Zm-.45 2.88h-.49l.39 2.75H8l-.3-2.61ZM21 4.45l-.84 11.25v-.001c-.23 2.48-2.3 4.4-4.79 4.45H5.45h0c-2.43-.14-4.39-2.04-4.61-4.45L0 4.44l-.001 0C-.21 2.18 1.45.2 3.7 0c.14-.02.29-.02.43-.02h12.7v0c2.25-.05 4.12 1.75 4.16 4.01 0 .14-.01.29-.02.43Zm-6.41 4v0c.07.08.17.13.29.14h-.001c.08 0 .17-.04.24-.09l1.25-1v0c.14-.13.16-.35.05-.5v0c-.14-.17-.37-.19-.53-.06l-1.25 1h-.001c-.15.12-.17.34-.06.5ZM14 5.7v0c0-.13-.06-.24-.16-.31l-.001-.001c-.12-.06-.24-.06-.35 0l-6.19 2.44H5.61l-.001-.001c-.62-.01-1.13.5-1.13 1.11 -.01.01 0 .03 0 .05v1.38 0c-.01.55.44 1 .99 1 .04 0 .08-.01.12-.01h.43l.45 3.12v0c.02.18.18.32.37.33h1.5v0c.1-.01.21-.05.28-.13v0c.07-.08.11-.19.1-.29l-.3-2.62 5 2h-.001c.04 0 .08 0 .13 0v0c.07-.01.15-.03.22-.07v0c.1-.08.16-.19.16-.31Zm2.36 6.46l-1.25-1v0c-.17-.13-.4-.11-.53.06v0c-.13.16-.11.39.05.51 0 0 0 0 0 0l1.25 1v-.001c.06.05.14.08.23.09v-.001c.11-.01.22-.06.3-.14v0c.12-.17.1-.4-.06-.53Zm.14-2.33v0c0-.21-.18-.38-.38-.38h-1.25v0c-.21.03-.35.22-.32.43 .02.16.15.28.31.31h1.25v0c.2 0 .37-.17.38-.37ZM7 8.58H5.62v-.001c-.21-.01-.38.16-.38.36 -.01.01 0 .03 0 .05v1.38c0 .2.2.25.37.25h1.38Z" transform="translate(0-.07501)" class="b"/></svg>