<svg viewBox="0 0 14 11.08" xmlns="http://www.w3.org/2000/svg" class="a"><style>.b{fill: currentColor;}.a{}</style><g transform="translate(0-.04001)" class="a"><path d="M10.48.03L3.27 2.92H1.31C.59 2.92 0 3.51 0 4.23v1.6C0 6.52.54 7 1.31 7h.5l.53 3.71c.03.22.22.38.43.38h1.75c.12 0 .24-.05.33-.15 .08-.09.12-.22.11-.34l-.34-3.06 5.87 2.35c.05.02.11.03.16.03 .09 0 .17-.03.25-.08 .12-.08.19-.22.19-.36V.44c0-.15-.07-.28-.19-.36 -.12-.08-.27-.1-.41-.04Z" class="b"/><path d="M12.38 3.7l1.46-1.17c.19-.15.22-.43.07-.62s-.43-.22-.62-.07l-1.46 1.17c-.19.15-.22.43-.07.62 .09.11.21.16.34.16 .1 0 .19-.03.27-.1v0Z" class="b"/><path d="M12.38 6.8c-.19-.15-.46-.12-.62.07 -.15.19-.12.46.07.62l1.46 1.17c.08.06.18.1.27.1 .13 0 .26-.06.34-.16 .15-.19.12-.46-.07-.62l-1.46-1.17Z" class="b"/><path d="M13.56 4.81H12.1c-.24 0-.44.2-.44.44s.2.44.44.44h1.46c.24 0 .44-.2.44-.44s-.2-.44-.44-.44Z" class="b"/></g></svg>