<svg viewBox="0 0 24 24" xmlns="http://www.w3.org/2000/svg" class="a"><style>.b{fill: currentColor;}.a{}</style><path d="M9.25 12.61l.35.14s.04.02.07.03l5.08 2.06 .03-6.64 -5.51 2.18v2.24Z" class="b"/><path d="M8.8 13.24l-.5-.01 .38 2.75 .76.01 -.28-2.61 -.36-.14Z" class="b"/><path d="M8.51 10.48H7.14c-.21 0-.38.16-.38.37v1.37c0 .21.2.25.37.25H8.5v-1.99Z" class="b"/><path d="M12.05.98C5.8.95.71 5.86.68 11.95 .65 18.04 5.7 22.99 11.95 23.02c6.25.03 11.34-4.88 11.37-10.97C23.35 5.96 18.3 1.01 12.05.98Zm4.1 8.87l1.25-.99c.16-.13.4-.1.53.06s.1.4-.06.53l-1.25.99c-.07.05-.15.08-.23.08 -.11 0-.22-.05-.29-.14 -.13-.16-.1-.4.06-.53Zm-.67 5.54c0 .12-.06.24-.17.31 -.06.04-.14.06-.21.06 -.05 0-.09 0-.14-.03l-5.02-2.04 .28 2.62c.01.11-.02.21-.09.29 -.07.08-.17.12-.28.12h-1.5c-.19 0-.34-.15-.37-.33l-.44-3.18h-.42c-.66 0-1.12-.42-1.12-1.01v-1.37c0-.62.52-1.12 1.14-1.12h1.68l6.19-2.44c.12-.05.25-.03.35.04 .1.07.16.19.16.31l-.04 7.75Zm2.42-.75c-.07.09-.18.14-.29.14 -.08 0-.16-.03-.23-.08l-1.25-1.01c-.16-.13-.19-.37-.06-.53 .13-.16.37-.19.53-.06l1.25 1.01c.16.13.19.37.06.53Zm-.28-2.49h-1.25c-.21 0-.37-.18-.37-.38s.17-.37.38-.37h1.25c.21 0 .37.18.37.38s-.17.37-.38.37Z" class="b"/></svg>