<svg viewBox="0 0 23 18.21" xmlns="http://www.w3.org/2000/svg" class="a"><style>.b{fill: currentColor;}.a{}</style><g transform="translate(0-.10501)" class="a"><path d="M17.22.05L5.37 4.79H2.16v-.001c-1.2-.01-2.17.96-2.17 2.15 -.01.01 0 .03 0 .05v2.58h0c.04 1.1.96 1.96 2.07 1.92 .02-.01.05-.01.08-.01h.84l.87 6.09 -.001-.001c.04.35.35.62.71.62H7.4v0c.39-.01.71-.33.71-.73 -.01-.03-.01-.05-.01-.08l-.56-5 9.64 3.86v0c.08.03.17.04.27.05v0c.14 0 .28-.05.4-.12v0c.19-.14.31-.36.32-.6V.68 .68c0-.4-.32-.73-.72-.73 -.1-.01-.2.01-.29.05ZM1.44 9.58V7l0-.001c0-.4.32-.72.72-.72h2.63v3.83H2.16c-.33-.05-.72-.11-.72-.53Zm5.18 7.19H5.17l-.75-5.27h1l.69.28Zm10.15-2.26L7 10.61h-.13l-.66-.27V6l10.56-4.22Z" class="b"/><path d="M20.33 6.07l2.4-1.91v-.001c.32-.25.37-.71.12-1.03 -.25-.33-.71-.38-1.03-.13l-2.39 2v0c-.31.24-.36.7-.11 1.01 .13.16.34.26.55.26v0c.16 0 .31-.06.44-.16Z" class="b"/><path d="M20.33 11.18v0c-.31-.25-.76-.2-1 .11l-.001-.001c-.24.31-.19.75.12 1l2.39 1.92v-.001c.12.09.28.15.45.15v0c.39-.01.71-.33.71-.73 -.01-.22-.1-.43-.27-.56Z" class="b"/><path d="M22.28 7.91h-2.39v0c-.4-.05-.76.23-.8.63 -.05.39.23.75.63.79 .05 0 .11 0 .16 0h2.39v0c.39.04.75-.24.79-.64 .04-.4-.24-.76-.64-.8 -.06-.01-.12-.01-.17 0Z" class="b"/></g></svg>