<svg xmlns="http://www.w3.org/2000/svg" xmlns:xlink="http://www.w3.org/1999/xlink" width="1957" height="1500" version="1.0" viewBox="0 0 1467.75 1125"><defs><path id="reuse-0" d="m937.691 427.797 68.903-68.899 68.902 68.899-68.902 68.906Zm0 0"/></defs><defs><clipPath id="a"><path d="M877.934 317.746h74.168V436.77h-74.168Zm0 0"/></clipPath><clipPath id="b"><path d="M915.016 317.746c-20.48 0-37.082 26.645-37.082 59.512 0 32.867 16.601 59.512 37.082 59.512 20.48 0 37.086-26.645 37.086-59.512 0-32.867-16.606-59.512-37.086-59.512"/></clipPath><clipPath id="c"><path d="M1055.484 322.305h77.313v112.297h-77.313Zm0 0"/></clipPath><clipPath id="d"><path d="M1094.14 322.305c-21.347 0-38.656 25.14-38.656 56.148 0 31.012 17.309 56.149 38.657 56.149 21.347 0 38.656-25.137 38.656-56.149 0-31.008-17.309-56.148-38.656-56.148"/></clipPath><clipPath id="e"><path d="M911.43 329.105h74.164v98.692H911.43Zm0 0"/></clipPath><clipPath id="f"><path d="M948.512 329.105c-20.48 0-37.082 22.098-37.082 49.348 0 27.254 16.601 49.344 37.082 49.344 20.48 0 37.082-22.09 37.082-49.344 0-27.25-16.602-49.348-37.082-49.348"/></clipPath><clipPath id="g"><path d="M1026.55 339.273h74.169v88.524h-74.168Zm0 0"/></clipPath><clipPath id="h"><path d="M1063.637 339.273c-20.48 0-37.086 19.817-37.086 44.262s16.605 44.262 37.086 44.262c20.48 0 37.082-19.817 37.082-44.262s-16.602-44.262-37.082-44.262"/></clipPath><clipPath id="i"><path d="M991.79 321.48h102.35v88.524H991.79Zm0 0"/></clipPath><clipPath id="j"><path d="M1042.965 321.48c-28.266 0-51.176 19.817-51.176 44.262s22.91 44.262 51.176 44.262c28.262 0 51.176-19.817 51.176-44.262s-22.914-44.262-51.176-44.262"/></clipPath><clipPath id="k"><path d="M911.43 321.48h102.351v88.524H911.43Zm0 0"/></clipPath><clipPath id="l"><path d="M962.605 321.48c-28.265 0-51.175 19.817-51.175 44.262s22.91 44.262 51.175 44.262c28.262 0 51.176-19.817 51.176-44.262s-22.914-44.262-51.176-44.262"/></clipPath><clipPath id="m"><path d="M937.3 358.723h138.587V496.77H937.3Zm0 0"/></clipPath><clipPath id="n"><use xlink:href="#reuse-0"/></clipPath><clipPath id="o"><use xlink:href="#reuse-0"/></clipPath></defs><path fill="#2f2f2f" d="m216.031 654.762-50-115.453c-.613-1.207-1.52-1.817-2.726-1.817h-19.086c-1.52 0-2.274.766-2.274 2.27v113.183c0 2.13-.61 3.79-1.816 4.996-1.203 1.207-2.879 1.817-4.992 1.817H63.309c-2.133 0-3.793-.61-4.996-1.817-1.223-1.207-1.817-2.882-1.817-4.996v-304.55c0-2.114.61-3.79 1.816-4.997 1.204-1.207 2.88-1.816 4.997-1.816h137.718c20.61 0 38.711 4.242 54.32 12.73 15.598 8.489 27.735 20.387 36.364 35.688 8.644 15.297 12.95 32.96 12.95 52.957 0 19.996-4.934 37.504-14.766 52.508-9.852 15-23.41 25.992-40.684 32.945-1.52.61-1.973 1.676-1.363 3.18l57.734 119.992c.613 1.816.91 2.883.91 3.18 0 1.52-.61 2.726-1.816 3.633-1.223.91-2.727 1.363-4.543 1.363h-76.367c-3.946 0-6.516-1.66-7.735-4.996ZM141.93 417.043v53.176c0 1.52.754 2.273 2.273 2.273h42.73c9.696 0 17.57-2.648 23.633-7.957 6.059-5.293 9.098-12.195 9.098-20.683 0-8.489-3.039-15.832-9.098-21.141-6.062-5.293-13.937-7.953-23.632-7.953h-42.73c-1.52 0-2.274.765-2.274 2.27ZM553.293 412.941c-1.219 1.22-2.879 1.817-4.996 1.817H412.395c-1.52 0-2.27.765-2.27 2.27v42.734c0 1.52.75 2.27 2.27 2.27h84.09c2.113 0 3.788.609 4.992 1.816 1.207 1.222 1.816 2.882 1.816 4.996v59.097c0 2.13-.61 3.79-1.816 4.993-1.22 1.222-2.88 1.816-4.993 1.816h-84.09c-1.519 0-2.269.77-2.269 2.273v47.274c0 1.52.75 2.27 2.27 2.27h135.902c2.117 0 3.793.613 4.996 1.816 1.207 1.222 1.816 2.883 1.816 4.996v59.55c0 2.13-.609 3.79-1.816 4.997-1.219 1.222-2.879 1.816-4.996 1.816H331.484c-2.129 0-3.789-.61-4.996-1.816-1.222-1.207-1.816-2.883-1.816-4.996V348.395c0-2.114.61-3.79 1.816-4.997 1.207-1.207 2.883-1.816 4.996-1.816h216.817c2.113 0 3.789.61 4.992 1.816 1.207 1.223 1.816 2.883 1.816 4.997v59.55c0 2.13-.609 3.79-1.816 4.996ZM657.395 658.176c-1.52-1.067-2.426-2.504-2.723-4.32L565.132 349.3c-.312-.61-.452-1.363-.452-2.27 0-3.633 2.113-5.449 6.355-5.449h77.73c3.934 0 6.36 1.973 7.266 5.902l45.461 191.825c.297 1.222.75 1.816 1.363 1.816.61 0 1.063-.61 1.36-1.816l44.097-191.825c.907-3.93 3.336-5.902 7.266-5.902h75.914c2.426 0 4.164.688 5.23 2.05 1.067 1.364 1.286 3.259.673 5.684l-90.461 304.555c-.297 1.817-1.223 3.254-2.723 4.32-1.52 1.067-3.18 1.598-4.996 1.598H662.39a8.464 8.464 0 0 1-4.996-1.598ZM216.031 1018.398l-50-115.457c-.613-1.203-1.52-1.816-2.726-1.816h-19.086c-1.52 0-2.274.77-2.274 2.273v113.184c0 2.129-.61 3.79-1.816 4.992-1.203 1.207-2.879 1.817-4.992 1.817H63.309c-2.133 0-3.793-.61-4.996-1.817-1.223-1.203-1.817-2.879-1.817-4.992V712.027c0-2.113.61-3.789 1.816-4.996 1.204-1.203 2.88-1.816 4.997-1.816h137.718c20.61 0 38.711 4.246 54.32 12.73 15.598 8.489 27.735 20.39 36.364 35.688 8.644 15.3 12.95 32.965 12.95 52.96 0 19.997-4.934 37.505-14.766 52.505-9.852 15-23.41 25.992-40.684 32.945-1.52.613-1.973 1.676-1.363 3.18l57.734 119.996c.613 1.816.91 2.879.91 3.18 0 1.515-.61 2.722-1.816 3.632-1.223.907-2.727 1.36-4.543 1.36h-76.367c-3.946 0-6.516-1.66-7.735-4.993ZM141.93 780.66v53.18c0 1.52.754 2.27 2.273 2.27h42.73c9.696 0 17.57-2.645 23.633-7.954 6.059-5.293 9.098-12.199 9.098-20.687 0-8.489-3.039-15.832-9.098-21.14-6.062-5.294-13.937-7.954-23.632-7.954h-42.73c-1.52 0-2.274.766-2.274 2.27ZM553.293 776.574c-1.219 1.223-2.879 1.817-4.996 1.817H412.395c-1.52 0-2.27.765-2.27 2.27v42.734c0 1.52.75 2.27 2.27 2.27h84.09c2.113 0 3.788.612 4.992 1.815 1.207 1.223 1.816 2.883 1.816 4.997v59.097c0 2.13-.61 3.79-1.816 4.996-1.22 1.22-2.88 1.817-4.993 1.817h-84.09c-1.519 0-2.269.765-2.269 2.27v47.273c0 1.52.75 2.273 2.27 2.273h135.902c2.117 0 3.793.61 4.996 1.817 1.207 1.218 1.816 2.878 1.816 4.992v59.554c0 2.13-.609 3.79-1.816 4.993-1.219 1.222-2.879 1.816-4.996 1.816H331.484c-2.129 0-3.789-.61-4.996-1.816-1.222-1.204-1.816-2.88-1.816-4.993V712.012c0-2.114.61-3.79 1.816-4.996 1.207-1.203 2.883-1.817 4.996-1.817h216.817c2.113 0 3.789.614 4.992 1.817 1.207 1.222 1.816 2.882 1.816 4.996v59.55c0 2.13-.609 3.79-1.816 4.997ZM779.66 860.68c13.64 7.578 23.63 17.27 30.004 29.093 6.356 11.825 9.55 26.07 9.55 42.735 0 31.207-10.913 54.164-32.726 68.867-21.812 14.703-50.156 22.047-84.996 22.047H579.211c-2.129 0-3.79-.61-4.996-1.817-1.223-1.203-1.817-2.878-1.817-4.992V712.06c0-2.114.594-3.79 1.817-4.996 1.207-1.204 2.883-1.817 4.996-1.817h118.176c38.789 0 67.96 6.89 87.504 20.688 19.543 13.793 29.312 36.89 29.312 69.32 0 28.797-11.523 49.703-34.543 62.73-1.219.91-1.219 1.817 0 2.727Zm-121.812-80.004v45.46c0 1.516.754 2.27 2.273 2.27h37.266c22.113 0 33.183-8.332 33.183-25.008 0-16.675-11.07-25.007-33.183-25.007H660.12c-1.52 0-2.273.765-2.273 2.27Zm75.918 142.734c0-16.976-10.618-25.46-31.82-25.46H660.12c-1.52 0-2.273.765-2.273 2.269v47.726c0 1.52.754 2.274 2.273 2.274h41.371c21.516 0 32.274-8.942 32.274-26.824ZM1069.21 776.574c-1.218 1.223-2.878 1.817-4.991 1.817H928.312c-1.519 0-2.269.765-2.269 2.27v42.734c0 1.52.75 2.27 2.27 2.27h84.09c2.113 0 3.788.612 4.995 1.815 1.204 1.223 1.817 2.883 1.817 4.997v59.097c0 2.13-.613 3.79-1.817 4.996-1.222 1.22-2.882 1.817-4.996 1.817h-84.09c-1.519 0-2.269.765-2.269 2.27v47.273c0 1.52.75 2.273 2.27 2.273h135.906c2.113 0 3.789.61 4.992 1.817 1.207 1.218 1.816 2.878 1.816 4.992v59.554c0 2.13-.609 3.79-1.816 4.993-1.219 1.222-2.879 1.816-4.992 1.816H847.402c-2.129 0-3.789-.61-4.996-1.816-1.222-1.204-1.816-2.88-1.816-4.993V712.012c0-2.114.594-3.79 1.816-4.996 1.207-1.203 2.883-1.817 4.996-1.817h216.817c2.113 0 3.789.614 4.992 1.817 1.207 1.222 1.816 2.882 1.816 4.996v59.55c0 2.13-.609 3.79-1.816 4.997ZM1090.117 1021.574c-1.222-1.203-1.816-2.879-1.816-4.992V712.027c0-2.113.594-3.789 1.816-4.996 1.207-1.203 2.883-1.816 4.996-1.816h71.813c2.113 0 3.789.613 4.996 1.816 1.203 1.223 1.816 2.883 1.816 4.996v235.918c0 1.52.75 2.274 2.27 2.274h140.46c2.114 0 3.79.61 4.997 1.816 1.203 1.219 1.816 2.88 1.816 4.992v59.555c0 2.129-.613 3.79-1.816 4.992-1.223 1.223-2.883 1.817-4.996 1.817h-221.371c-2.13 0-3.79-.61-4.996-1.817ZM1346.254 1015c-8.035-8.035-12.043-18.262-12.043-30.676 0-12.418 4.008-23.02 12.043-30.914 8.016-7.875 18.258-11.82 30.676-11.82s22.64 3.945 30.675 11.82c8.016 7.88 12.04 18.18 12.04 30.914 0 12.73-4.086 22.266-12.274 30.457-8.176 8.188-18.34 12.274-30.457 12.274-12.121 0-22.66-4.008-30.676-12.04ZM667.11 142.875c0-6.25-3.2-9.375-9.594-9.375h-12.5v52.016h12.5c6.395 0 9.594-3.125 9.594-9.375Zm-55.797-38.39h50.453c12.05 0 21.535 2.902 28.453 8.703 6.914 5.804 10.375 14.359 10.375 25.672v41.296c0 11.305-3.46 19.86-10.375 25.672-6.918 5.805-16.402 8.703-28.453 8.703h-16.75v44.641h-33.703ZM779.615 143.985c0-7.438-4.43-11.157-13.281-11.157-8.856 0-13.281 3.719-13.281 11.157v75.671c0 7.45 4.425 11.172 13.28 11.172 8.852 0 13.282-3.722 13.282-11.172Zm-60.047-1.782c0-12.195 3.942-21.906 11.828-29.125 7.883-7.218 19.489-10.828 34.813-10.828 15.332 0 26.976 3.61 34.937 10.828 7.97 7.219 11.954 16.93 11.954 29.125v79.25c0 12.2-3.985 21.907-11.954 29.125-7.96 7.219-19.605 10.828-34.937 10.828-15.324 0-26.93-3.609-34.813-10.828-7.886-7.218-11.828-16.925-11.828-29.125ZM928.94 104.485h28.796l-20.53 154.687h-29.907l-9.156-61.156-4.907-42.64c-1.199 16.523-2.687 30.734-4.468 42.64l-9.375 61.156H847.47l-19.875-154.687h29.25c5.656 40.625 8.781 64.359 9.375 71.203.594 6.843 1.113 14.289 1.562 22.328 2.227-20.54 5.946-51.719 11.157-93.531h28.359l10.484 91.968c.739-14.883 2.004-28.578 3.797-41.078ZM974.478 104.485h78.344V133.5h-44.86v32.813h38.844v29.015h-38.844v34.828h44.86v29.016h-78.344ZM1107.515 203.375v55.797h-33.485V104.485h50.453c12.196 0 21.719 2.902 28.563 8.703 6.844 5.804 10.265 14.289 10.265 25.453v28.562c0 17.856-6.101 29.016-18.296 33.485l24.328 58.484h-36.828l-20.766-55.797Zm0-70.328v43.75h13.171c3.414 0 5.79-.738 7.125-2.219 1.344-1.488 2.016-4.093 2.016-7.812V141.53c0-3.27-.746-5.5-2.234-6.687-1.48-1.195-3.782-1.797-6.907-1.797ZM1187.198 104.485h78.344V133.5h-44.86v32.813h38.844v29.015h-38.843v34.828h44.859v29.016h-78.344ZM1345.454 140.203c0-2.687-.637-4.734-1.907-6.14-1.261-1.414-3.68-2.125-7.25-2.125h-16.062v98.437h16.062c6.102 0 9.157-3.422 9.157-10.265Zm-58.703-35.718h54.234c12.062 0 21.398 2.902 28.016 8.703 6.625 5.804 9.937 14.359 9.937 25.672v83.921c0 24.262-11.98 36.391-35.937 36.391h-56.25ZM1264.425 362.37v14.516c0 14.437-5.281 23.293-15.844 26.562 11.458 2.68 17.188 11.606 17.188 26.782v15.859c0 23.656-12.652 35.484-37.953 35.484h-54.235V326.886h52.907c25.289 0 37.937 11.828 37.937 35.484Zm-43.515-7.36h-13.844v33.704h13.844c6.988 0 10.484-3.195 10.484-9.594v-14.515c0-6.395-3.496-9.594-10.484-9.594Zm11.828 88.845v-15.86c0-6.394-3.5-9.594-10.5-9.594h-15.172v35.047h15.172c7 0 10.5-3.195 10.5-9.593ZM1349.924 481.573h-33.938V433.59l-36.828-106.703h34.375l7.36 23.437c5.812 18.305 9.976 34.524 12.5 48.657 2.831-14.438 7.078-30.805 12.734-49.11l7.14-22.984h33.485l-36.828 106.703Zm0 0"/><g clip-path="url(#a)"><g clip-path="url(#b)"><path fill="#fff" d="M877.934 317.746h74.168V436.77h-74.168Zm0 0"/></g></g><g clip-path="url(#c)"><g clip-path="url(#d)"><path fill="#fff" d="M1055.484 322.305h77.313v112.297h-77.313Zm0 0"/></g></g><g clip-path="url(#e)"><g clip-path="url(#f)"><path fill="#fff" d="M911.43 329.105h74.164v98.692H911.43Zm0 0"/></g></g><g clip-path="url(#g)"><g clip-path="url(#h)"><path fill="#fff" d="M1026.55 339.273h74.169v88.524h-74.168Zm0 0"/></g></g><g clip-path="url(#i)"><g clip-path="url(#j)"><path fill="#fff" d="M991.79 321.48h102.35v88.524H991.79Zm0 0"/></g></g><g clip-path="url(#k)"><g clip-path="url(#l)"><path fill="#fff" d="M911.43 321.48h102.351v88.524H911.43Zm0 0"/></g></g><g clip-path="url(#m)"><g clip-path="url(#n)"><g clip-path="url(#o)"><path fill="#fff" d="m937.691 427.797 68.903-68.902 68.902 68.902-68.902 68.906Zm0 0"/></g></g></g><path fill="#0b182e" d="M911.79 309.094c-2.38.5-6.099 2.09-8.185 3.469-2.132 1.46-6.933 6.472-10.44 10.859-7.395 9.273-13.911 23.64-16.333 36.129-.879 4.512-.965 6.14-.922 16.289 0 10.61.086 11.613 1.13 16.582 3.468 16.293 11.57 31.535 22.847 42.855 5.722 5.723 12.824 8.106 19.965 6.684 4.304-.836 7.144-2.172 10.273-4.68l2.426-2.004 31.617 31.536c34.293 34.25 33.289 33.375 38.762 34.125 3.093.417 6.726-.168 9.484-1.504 1.668-.875 8.77-7.684 33.707-32.622l31.574-31.535 2.672 2.047c5.684 4.301 11.7 5.848 17.965 4.598 6.473-1.254 10.398-3.973 16.79-11.531 8.855-10.524 15.788-24.977 18.21-37.883 4.844-25.774-.918-49.664-16.875-70.133-3.926-5.055-9.187-9.898-12.363-11.402-8.73-4.094-18.586-2.38-25.395 4.386l-2.672 2.672-2.925-1.293c-8.106-3.636-13.91-5.136-22.762-5.847-15.332-1.297-31.121 3.507-44.527 13.53-.293.212-1.961-.667-4.555-2.417-11.067-7.524-23.305-11.238-36.63-11.238-9.48.043-17.042 1.586-25.855 5.386l-4.343 1.84-2.547-2.633c-2.84-2.882-7.227-5.304-11.028-6.097-2.132-.461-7.351-.543-9.066-.168Zm8.398 17.71c.75.712 1.46 1.923 1.628 2.716.5 2.714-.129 4.218-3.093 7.433-3.297 3.55-7.891 10.36-9.692 14.328-4.843 10.735-6.054 19.215-4.758 33.207.293 3.215 3.133 12.282 4.512 14.535.5.793.875 1.504.793 1.586-.125.125 1.668 3.47 3.3 6.141 1.083 1.71 6.095 7.977 8.184 10.148.836.836 1.13 3.383.586 5.141-.918 3.09-5.136 4.969-7.894 3.55-.711-.378-2.922-2.468-4.887-4.679-4.719-5.348-7.476-9.523-11.527-17.71-1.086-2.255-3.594-10.61-4.555-15.247-1.086-5.3-1.254-18.125-.25-23.39.332-1.836.711-3.84.836-4.508.75-4.387 5.305-15.582 8.102-20.051 4.511-7.02 10.277-13.867 12.324-14.492 2.297-.668 4.887-.168 6.39 1.293Zm179.226.837c5.18 5.054 10.066 12.363 13.242 19.714.793 1.922 1.754 4.008 2.09 4.676.332.711.711 1.797.836 2.426.125.668.457 2.09.793 3.129 1.629 5.348 2.172 9.816 2.172 18.254 0 6.433-.168 9.148-.754 11.906-1.461 6.852-3.426 12.863-5.598 17.125-.75 1.504-1.379 2.84-1.379 3.047 0 .168-1.586 2.715-3.507 5.64-4.258 6.434-9.606 11.946-12.028 12.407-1.922.375-4.886-1.004-5.89-2.719-.793-1.293-.918-3.965-.332-5.512.207-.543 1.918-2.754 3.8-4.93 2.965-3.464 7.934-10.734 7.934-11.609 0-.168.418-1.043.879-1.965 2.215-4.132 4.344-12.445 4.926-19.335.254-2.758.379-5.31.297-5.598-.13-.293-.297-2.258-.422-4.344-.29-4.887-2.293-12.7-4.426-17.21-.918-1.923-1.672-3.595-1.672-3.802 0-.164-.29-.668-.625-1.086-.375-.457-1.25-1.796-2.004-3.007-2.465-3.926-3.55-5.43-5.848-7.895-2.8-3.047-3.214-3.84-3.214-6.012 0-2.632 1.543-5.015 3.546-5.554.461-.13 1.754-.168 2.844-.13 1.793.13 2.254.38 4.34 2.384Zm-124.426.375c6.848 1.504 13.824 4.718 19.211 8.855 1.297 1 4.344 3.715 6.77 6.055l4.426 4.262 3.55-3.594c8.606-8.727 15.414-12.781 25.856-15.41 5.219-1.293 15.828-1.422 21.094-.211 11.023 2.468 20.882 8.562 27.48 16.875 6.645 8.355 9.484 15.332 10.777 26.273 1.004 8.856-1.168 19.59-5.593 27.484-3.426 6.141-5.391 8.27-44.235 47.114l-38.969 38.93-40.101-40.184c-36.379-36.504-40.266-40.555-42.145-43.645-2.34-3.968-3.55-6.851-5.304-12.53-1.043-3.427-1.293-5.099-1.504-9.942-.293-7.102.25-11.57 2.004-17.125 3.804-12.114 11.488-21.68 22.43-27.942 4.011-2.34 7.562-3.719 12.824-5.097 5.18-1.293 15.914-1.422 21.43-.168Zm0 0"/></svg>