<svg xmlns="http://www.w3.org/2000/svg" version="1.0" viewBox="0 0 1976.25 1050"><path fill="#2f2f2f" d="M77.871 128.556c0-6.195-3.171-9.296-9.515-9.296h-12.39v51.593h12.39c6.344 0 9.515-3.101 9.515-9.312ZM22.528 90.463h50.03c11.958 0 21.368 2.882 28.235 8.64 6.864 5.762 10.297 14.25 10.297 25.47v40.952c0 11.219-3.433 19.711-10.297 25.469-6.867 5.762-16.277 8.64-28.234 8.64H55.965v44.282H22.528ZM189.47 129.666c0-7.383-4.39-11.078-13.171-11.078-8.782 0-13.172 3.695-13.172 11.078v75.062c0 7.375 4.39 11.063 13.172 11.063 8.78 0 13.171-3.688 13.171-11.063Zm-59.562-1.781c0-12.102 3.91-21.735 11.734-28.891 7.82-7.156 19.332-10.734 34.532-10.734 15.207 0 26.757 3.578 34.656 10.734 7.906 7.156 11.86 16.789 11.86 28.89v78.61c0 12.105-3.954 21.742-11.86 28.906-7.899 7.156-19.45 10.735-34.656 10.735-15.2 0-26.711-3.579-34.532-10.735-7.824-7.164-11.734-16.8-11.734-28.906ZM337.589 90.463h28.578l-20.375 153.453H316.12l-9.078-60.672-4.875-42.297c-1.18 16.387-2.653 30.484-4.422 42.297l-9.297 60.672h-31.672L237.073 90.463h29c5.613 40.304 8.711 63.851 9.297 70.64.594 6.793 1.113 14.172 1.562 22.14 2.207-20.362 5.895-51.288 11.063-92.78h28.125l10.406 91.234c.738-14.758 1.992-28.344 3.766-40.75ZM382.765 90.463h77.719v28.797h-44.516v32.546h38.531v28.782h-38.531v34.547h44.516v28.78h-77.72ZM514.718 188.556v55.36h-33.203V90.463h50.031c12.102 0 21.55 2.882 28.344 8.64 6.789 5.762 10.187 14.18 10.187 25.25v28.344c0 17.711-6.054 28.777-18.156 33.203l24.14 58.016h-36.546l-20.578-55.36Zm0-69.75v43.407h13.062c3.395 0 5.754-.739 7.078-2.22 1.333-1.476 2-4.062 2-7.75v-25.015c0-3.25-.742-5.46-2.218-6.64-1.469-1.188-3.758-1.782-6.86-1.782ZM593.77 90.463h77.72v28.797h-44.516v32.546h38.531v28.782h-38.531v34.547h44.515v28.78h-77.718ZM750.755 125.9c0-2.656-.633-4.68-1.89-6.078-1.25-1.406-3.65-2.11-7.188-2.11h-15.953v97.641h15.953c6.05 0 9.078-3.394 9.078-10.187ZM692.52 90.463h53.797c11.957 0 21.22 2.882 27.782 8.64 6.57 5.762 9.859 14.25 9.859 25.47v83.25c0 24.062-11.883 36.093-35.64 36.093H692.52ZM112.637 343.413v14.39c0 14.313-5.242 23.094-15.719 26.344 11.364 2.656 17.047 11.516 17.047 26.578v15.719c0 23.469-12.547 35.203-37.64 35.203H22.528V308.194h52.468c25.094 0 37.641 11.742 37.641 35.219ZM69.465 336.1H55.731v33.438h13.734c6.938 0 10.406-3.172 10.406-9.516v-14.406c0-6.344-3.468-9.516-10.406-9.516ZM81.2 424.225v-15.719c0-6.343-3.47-9.515-10.407-9.515H55.731v34.75h15.062c6.938 0 10.407-3.172 10.407-9.516ZM197.438 461.647h-33.656v-47.61L127.25 308.195h34.094l7.313 23.25c5.757 18.156 9.894 34.25 12.406 48.281 2.8-14.32 7.004-30.562 12.61-48.719l7.093-22.812h33.203l-36.531 105.844Zm0 0"/><path fill="#0b182e" d="M292.54 297.273c-2.29.48-5.872 2.008-7.88 3.336-2.05 1.407-6.676 6.235-10.055 10.454-7.117 8.93-13.39 22.761-15.722 34.785-.844 4.343-.926 5.91-.887 15.683 0 10.211.082 11.176 1.09 15.961 3.336 15.684 11.137 30.36 21.992 41.258 5.512 5.512 12.348 7.8 19.223 6.434 4.14-.805 6.875-2.09 9.894-4.504l2.328-1.93 30.442 30.36c33.015 32.972 32.05 32.132 37.316 32.855 2.977.402 6.473-.164 9.13-1.45 1.609-.843 8.444-7.398 32.448-31.406l30.399-30.359 2.574 1.973c5.473 4.14 11.262 5.629 17.293 4.422 6.23-1.207 10.012-3.82 16.164-11.098 8.527-10.137 15.2-24.047 17.531-36.473 4.664-24.808-.882-47.812-16.246-67.515-3.777-4.868-8.844-9.532-11.898-10.977-8.406-3.941-17.895-2.293-24.453 4.223l-2.57 2.574-2.817-1.246c-7.8-3.5-13.39-4.95-21.914-5.633-14.758-1.246-29.957 3.379-42.867 13.031-.282.2-1.887-.644-4.383-2.336-10.656-7.234-22.438-10.816-35.266-10.816-9.125.043-16.406 1.531-24.89 5.187l-4.18 1.77-2.453-2.531c-2.735-2.778-6.957-5.11-10.617-5.871-2.051-.442-7.079-.524-8.727-.16Zm8.085 17.047c.723.684 1.406 1.852 1.566 2.618.48 2.613-.12 4.058-2.976 7.156-3.176 3.418-7.602 9.972-9.328 13.793-4.664 10.332-5.832 18.496-4.586 31.965.281 3.097 3.015 11.824 4.344 13.996.48.761.843 1.445.765 1.527-.12.121 1.61 3.336 3.176 5.91 1.047 1.649 5.871 7.684 7.879 9.774.805.804 1.09 3.257.566 4.945-.886 2.976-4.949 4.785-7.601 3.418-.684-.363-2.817-2.371-4.703-4.504-4.543-5.148-7.2-9.168-11.102-17.05-1.043-2.169-3.457-10.216-4.383-14.677-1.043-5.109-1.203-17.449-.238-22.52.32-1.769.683-3.698.805-4.339.722-4.223 5.105-15 7.8-19.305 4.34-6.754 9.891-13.347 11.864-13.953 2.21-.64 4.703-.16 6.152 1.246Zm172.543.805c4.988 4.867 9.695 11.902 12.75 18.98a88.32 88.32 0 0 0 2.008 4.504c.324.684.683 1.73.804 2.332.122.645.446 2.012.766 3.016 1.567 5.148 2.09 9.45 2.09 17.574 0 6.192-.16 8.805-.723 11.457-1.406 6.594-3.297 12.387-5.386 16.489-.727 1.449-1.329 2.734-1.329 2.933 0 .164-1.527 2.617-3.378 5.43-4.102 6.195-9.247 11.5-11.582 11.945-1.848.36-4.704-.969-5.668-2.617-.762-1.246-.887-3.816-.32-5.305.198-.523 1.847-2.656 3.655-4.746 2.856-3.336 7.641-10.336 7.641-11.18 0-.16.402-1.003.844-1.89 2.133-3.98 4.183-11.98 4.746-18.617.242-2.653.363-5.106.281-5.387-.12-.281-.281-2.172-.402-4.184-.281-4.703-2.211-12.222-4.262-16.566-.887-1.852-1.61-3.457-1.61-3.66 0-.16-.28-.64-.6-1.043-.364-.442-1.208-1.73-1.93-2.899-2.375-3.777-3.418-5.226-5.63-7.597-2.695-2.938-3.097-3.7-3.097-5.793 0-2.531 1.488-4.824 3.418-5.348.441-.121 1.687-.16 2.734-.121 1.73.121 2.172.363 4.18 2.293Zm-119.79.363c6.599 1.45 13.313 4.543 18.5 8.524 1.243.965 4.18 3.578 6.513 5.832l4.265 4.101 3.418-3.46c8.281-8.403 14.836-12.305 24.887-14.837 5.027-1.246 15.242-1.367 20.309-.199 10.613 2.371 20.105 8.242 26.46 16.242 6.391 8.043 9.125 14.758 10.375 25.297.965 8.524-1.128 18.86-5.39 26.457-3.297 5.91-5.188 7.961-42.582 45.36l-37.52 37.476-38.601-38.683c-35.024-35.145-38.766-39.047-40.575-42.02-2.253-3.82-3.417-6.598-5.105-12.066-1.008-3.297-1.25-4.907-1.45-9.57-.28-6.837.243-11.137 1.93-16.485 3.66-11.66 11.06-20.871 21.594-26.902 3.86-2.254 7.278-3.578 12.344-4.907 4.988-1.246 15.32-1.367 20.629-.16Zm0 0"/><path fill="#2f2f2f" d="m747.063 611.582-50.106-115.703c-.613-1.207-1.523-1.82-2.73-1.82h-19.13c-1.523 0-2.277.77-2.277 2.277v113.426c0 2.133-.61 3.797-1.82 5.004-1.207 1.21-2.887 1.82-5.004 1.82h-71.984c-2.133 0-3.797-.61-5.004-1.82-1.223-1.207-1.82-2.887-1.82-5.004V304.555c0-2.118.613-3.797 1.82-5.004 1.207-1.207 2.887-1.82 5.004-1.82h138.015c20.653 0 38.793 4.253 54.438 12.757 15.633 8.504 27.793 20.434 36.441 35.762 8.66 15.332 12.977 33.035 12.977 53.074 0 20.04-4.946 37.582-14.797 52.617-9.871 15.032-23.461 26.051-40.77 33.016-1.523.613-1.98 1.68-1.367 3.188l57.86 120.25c.613 1.82.91 2.886.91 3.187 0 1.52-.614 2.73-1.82 3.64-1.223.91-2.731 1.364-4.551 1.364h-76.532c-3.957 0-6.53-1.664-7.754-5.004Zm-74.258-238.23v53.293c0 1.523.754 2.273 2.277 2.273h42.824c9.715 0 17.606-2.648 23.68-7.969 6.074-5.304 9.117-12.226 9.117-20.73 0-8.508-3.043-15.867-9.117-21.184-6.074-5.305-13.965-7.973-23.68-7.973h-42.824c-1.523 0-2.277.77-2.277 2.274ZM1085.047 369.242c-1.223 1.223-2.887 1.82-5.004 1.82H943.848c-1.524 0-2.278.77-2.278 2.274v42.824c0 1.524.754 2.277 2.278 2.277h84.27c2.116 0 3.796.614 5.003 1.82 1.207 1.223 1.82 2.888 1.82 5.005v59.226c0 2.133-.613 3.797-1.82 5.004-1.223 1.227-2.887 1.82-5.004 1.82h-84.27c-1.523 0-2.277.77-2.277 2.278v47.375c0 1.523.754 2.273 2.278 2.273h136.195c2.117 0 3.797.614 5.004 1.82 1.21 1.227 1.82 2.891 1.82 5.008v59.68c0 2.133-.61 3.797-1.82 5.004-1.223 1.227-2.887 1.82-5.004 1.82H862.762c-2.133 0-3.797-.61-5.004-1.82-1.223-1.207-1.82-2.887-1.82-5.004V304.555c0-2.118.613-3.797 1.82-5.004 1.207-1.207 2.887-1.82 5.004-1.82h217.281c2.117 0 3.797.613 5.004 1.82 1.21 1.222 1.82 2.887 1.82 5.004v59.68c0 2.136-.61 3.796-1.82 5.007ZM1189.371 615c-1.52-1.066-2.43-2.508-2.73-4.328l-89.73-305.207c-.313-.61-.454-1.363-.454-2.274 0-3.64 2.117-5.46 6.371-5.46h77.899c3.937 0 6.37 1.976 7.28 5.914l45.555 192.234c.297 1.226.754 1.82 1.364 1.82.613 0 1.07-.61 1.367-1.82l44.191-192.234c.91-3.938 3.34-5.915 7.282-5.915h76.078c2.43 0 4.172.692 5.238 2.055 1.066 1.367 1.29 3.266.676 5.695l-90.656 305.207c-.297 1.82-1.223 3.262-2.73 4.329-1.524 1.07-3.185 1.601-5.005 1.601h-76.988c-1.82 0-3.5-.531-5.008-1.601ZM747.063 975.992l-50.106-115.699c-.613-1.211-1.523-1.82-2.73-1.82h-19.13c-1.523 0-2.277.77-2.277 2.273v113.426c0 2.133-.61 3.797-1.82 5.008-1.207 1.207-2.887 1.82-5.004 1.82h-71.984c-2.133 0-3.797-.613-5.004-1.82-1.223-1.211-1.82-2.89-1.82-5.008V668.969c0-2.117.613-3.797 1.82-5.008 1.207-1.207 2.887-1.82 5.004-1.82h138.015c20.653 0 38.793 4.254 54.438 12.757 15.633 8.508 27.793 20.434 36.441 35.766 8.66 15.332 12.977 33.031 12.977 53.07 0 20.04-4.946 37.586-14.797 52.618-9.871 15.035-23.461 26.05-40.77 33.02-1.523.608-1.98 1.679-1.367 3.183l57.86 120.254c.613 1.82.91 2.886.91 3.183 0 1.524-.614 2.73-1.82 3.64-1.223.911-2.731 1.368-4.551 1.368h-76.532c-3.957 0-6.53-1.664-7.754-5.008ZM672.804 737.75v53.29c0 1.523.754 2.276 2.277 2.276h42.824c9.715 0 17.606-2.652 23.68-7.972 6.074-5.305 9.117-12.223 9.117-20.73 0-8.505-3.043-15.864-9.117-21.184-6.074-5.305-13.965-7.973-23.68-7.973h-42.824c-1.523 0-2.277.77-2.277 2.277ZM1085.047 733.652c-1.223 1.227-2.887 1.82-5.004 1.82H943.848c-1.524 0-2.278.77-2.278 2.278v42.824c0 1.524.754 2.274 2.278 2.274h84.27c2.116 0 3.796.613 5.003 1.82 1.207 1.227 1.82 2.89 1.82 5.008v59.222c0 2.133-.613 3.797-1.82 5.008-1.223 1.223-2.887 1.82-5.004 1.82h-84.27c-1.523 0-2.277.77-2.277 2.274v47.375c0 1.523.754 2.277 2.278 2.277h136.195c2.117 0 3.797.614 5.004 1.82 1.21 1.223 1.82 2.887 1.82 5.005v59.68c0 2.136-.61 3.796-1.82 5.007-1.223 1.223-2.887 1.82-5.004 1.82H862.762c-2.133 0-3.797-.613-5.004-1.82-1.223-1.21-1.82-2.89-1.82-5.008V668.953c0-2.117.613-3.797 1.82-5.008 1.207-1.207 2.887-1.82 5.004-1.82h217.281c2.117 0 3.797.613 5.004 1.82 1.21 1.227 1.82 2.89 1.82 5.008v59.68c0 2.133-.61 3.797-1.82 5.004ZM1311.898 817.938c13.668 7.593 23.68 17.308 30.067 29.156 6.37 11.847 9.574 26.129 9.574 42.824 0 31.277-10.937 54.281-32.797 69.016-21.86 14.738-50.265 22.097-85.18 22.097H1111.02c-2.133 0-3.797-.613-5.008-1.82-1.223-1.211-1.82-2.887-1.82-5.008V669c0-2.117.597-3.797 1.82-5.008 1.21-1.207 2.89-1.82 5.008-1.82h118.43c38.87 0 68.105 6.906 87.69 20.73 19.587 13.825 29.376 36.973 29.376 69.473 0 28.86-11.547 49.809-34.618 62.863-1.222.91-1.222 1.82 0 2.73Zm-122.07-80.172v45.554c0 1.524.754 2.274 2.274 2.274h37.347c22.16 0 33.254-8.348 33.254-25.059 0-16.715-11.094-25.062-33.254-25.062h-37.347c-1.52 0-2.274.77-2.274 2.277Zm76.078 143.035c0-17.008-10.64-25.516-31.89-25.516h-41.914c-1.52 0-2.274.77-2.274 2.278v47.828c0 1.523.754 2.277 2.274 2.277h41.46c21.563 0 32.344-8.961 32.344-26.883ZM1602.07 733.652c-1.222 1.227-2.886 1.82-5.007 1.82h-136.196c-1.52 0-2.273.77-2.273 2.278v42.824c0 1.524.754 2.274 2.273 2.274h84.27c2.12 0 3.797.613 5.008 1.82 1.207 1.227 1.82 2.89 1.82 5.008v59.222c0 2.133-.613 3.797-1.82 5.008-1.227 1.223-2.887 1.82-5.008 1.82h-84.27c-1.52 0-2.273.77-2.273 2.274v47.375c0 1.523.754 2.277 2.273 2.277h136.196c2.12 0 3.8.614 5.007 1.82 1.207 1.223 1.82 2.887 1.82 5.005v59.68c0 2.136-.613 3.796-1.82 5.007-1.222 1.223-2.886 1.82-5.007 1.82h-217.278c-2.133 0-3.797-.613-5.004-1.82-1.226-1.21-1.82-2.89-1.82-5.008V668.953c0-2.117.594-3.797 1.82-5.008 1.207-1.207 2.887-1.82 5.004-1.82h217.277c2.122 0 3.801.613 5.008 1.82 1.207 1.227 1.82 2.89 1.82 5.008v59.68c0 2.133-.613 3.797-1.82 5.004ZM1623.02 979.18c-1.223-1.211-1.82-2.89-1.82-5.008V668.969c0-2.117.597-3.797 1.82-5.008 1.207-1.207 2.886-1.82 5.007-1.82h71.965c2.117 0 3.797.613 5.004 1.82 1.211 1.226 1.82 2.89 1.82 5.008V905.39c0 1.523.754 2.277 2.278 2.277h140.761c2.118 0 3.797.613 5.004 1.82 1.211 1.223 1.82 2.887 1.82 5.004v59.68c0 2.133-.609 3.797-1.82 5.008-1.222 1.222-2.886 1.82-5.004 1.82h-221.843c-2.137 0-3.801-.613-5.008-1.82ZM1879.703 972.586c-8.05-8.047-12.07-18.297-12.07-30.738 0-12.446 4.02-23.07 12.07-30.98 8.035-7.891 18.297-11.848 30.742-11.848 12.442 0 22.692 3.957 30.743 11.847 8.03 7.895 12.066 18.219 12.066 30.98 0 12.758-4.098 22.313-12.305 30.52-8.191 8.207-18.375 12.305-30.52 12.305-12.148 0-22.706-4.02-30.742-12.07Zm0 0"/></svg>