<svg xmlns="http://www.w3.org/2000/svg" xmlns:xlink="http://www.w3.org/1999/xlink" width="463.158" height="200" version="1.0" viewBox="0 0 375 150"><defs><path id="a" d="m315.454 104.344 3.698 -3.698 3.699 3.698 -3.699 3.699Zm0 0"/></defs><defs><clipPath id="b"><path d="M312.246 98.436h3.981v6.389h-3.981Zm0 0"/></clipPath><clipPath id="c"><path d="M314.237 98.436c-1.099 0 -1.991 1.43 -1.991 3.195 0 1.764 0.891 3.194 1.991 3.194 1.099 0 1.99 -1.43 1.99 -3.194 0 -1.764 -0.892 -3.195 -1.99 -3.195"/></clipPath><clipPath id="d"><path d="M321.777 98.681h4.15v6.028h-4.15Zm0 0"/></clipPath><clipPath id="e"><path d="M323.852 98.681c-1.146 0 -2.075 1.349 -2.075 3.014 0 1.665 0.929 3.014 2.075 3.014 1.146 0 2.075 -1.349 2.075 -3.014 0 -1.664 -0.929 -3.014 -2.075 -3.014"/></clipPath><clipPath id="f"><path d="M314.044 99.047h3.981v5.297h-3.981Zm0 0"/></clipPath><clipPath id="g"><path d="M316.035 99.047c-1.1 0 -1.991 1.186 -1.991 2.648 0 1.463 0.891 2.649 1.991 2.649 1.099 0 1.99 -1.186 1.99 -2.649 0 -1.462 -0.891 -2.648 -1.99 -2.648"/></clipPath><clipPath id="h"><path d="M320.224 99.592h3.981v4.752h-3.981Zm0 0"/></clipPath><clipPath id="i"><path d="M322.215 99.592c-1.099 0 -1.991 1.064 -1.991 2.376 0 1.312 0.891 2.376 1.991 2.376 1.099 0 1.99 -1.064 1.99 -2.376 0 -1.312 -0.891 -2.376 -1.99 -2.376"/></clipPath><clipPath id="j"><path d="M318.358 98.637h5.494v4.752h-5.494Zm0 0"/></clipPath><clipPath id="k"><path d="M321.105 98.637c-1.517 0 -2.747 1.064 -2.747 2.376 0 1.312 1.23 2.376 2.747 2.376 1.517 0 2.747 -1.064 2.747 -2.376 0 -1.312 -1.229 -2.376 -2.747 -2.376"/></clipPath><clipPath id="l"><path d="M314.044 98.637h5.494v4.752h-5.494Zm0 0"/></clipPath><clipPath id="m"><path d="M316.791 98.637c-1.517 0 -2.747 1.064 -2.747 2.376 0 1.312 1.23 2.376 2.747 2.376 1.517 0 2.747 -1.064 2.747 -2.376 0 -1.312 -1.23 -2.376 -2.747 -2.376"/></clipPath><clipPath id="n"><path d="M315.433 100.636h7.439v7.41h-7.439Zm0 0"/></clipPath><clipPath id="o"><use xlink:href="#a"/></clipPath><clipPath id="p"><use xlink:href="#a"/></clipPath><clipPath id="q"><path d="M3.966 84.774h58.276V141.266H3.966Zm0 0"/></clipPath></defs><path fill="#2f2f2f" d="m274.75 116.722 -2.7 -6.236c-0.033 -0.065 -0.082 -0.098 -0.147 -0.098h-1.031c-0.082 0 -0.123 0.041 -0.123 0.122v6.113c0 0.115 -0.033 0.204 -0.098 0.27 -0.065 0.065 -0.156 0.098 -0.269 0.098h-3.879c-0.115 0 -0.204 -0.033 -0.269 -0.098 -0.066 -0.066 -0.098 -0.156 -0.098 -0.27V100.175c0 -0.114 0.033 -0.204 0.098 -0.27 0.065 -0.065 0.156 -0.098 0.269 -0.098h7.438c1.113 0 2.09 0.229 2.934 0.688 0.842 0.458 1.498 1.101 1.964 1.927 0.467 0.826 0.699 1.78 0.699 2.86 0 1.08 -0.266 2.025 -0.797 2.836 -0.532 0.81 -1.264 1.404 -2.197 1.779 -0.082 0.033 -0.107 0.091 -0.073 0.172l3.118 6.48c0.033 0.098 0.049 0.156 0.049 0.172 0 0.082 -0.033 0.146 -0.098 0.196 -0.066 0.049 -0.147 0.073 -0.246 0.073h-4.124c-0.213 0 -0.352 -0.089 -0.418 -0.269Zm-4.002 -12.839v2.872c0 0.082 0.041 0.123 0.122 0.123h2.308c0.524 0 0.949 -0.143 1.276 -0.43 0.327 -0.286 0.491 -0.659 0.491 -1.117 0 -0.458 -0.164 -0.855 -0.491 -1.142 -0.327 -0.285 -0.753 -0.43 -1.276 -0.43h-2.308c-0.081 0 -0.122 0.042 -0.122 0.123Zm22.216 -0.222c-0.066 0.066 -0.156 0.098 -0.269 0.098H285.355c-0.082 0 -0.123 0.042 -0.123 0.123v2.308c0 0.082 0.041 0.123 0.123 0.123h4.542c0.114 0 0.204 0.033 0.27 0.098 0.065 0.066 0.098 0.156 0.098 0.27v3.192c0 0.115 -0.033 0.204 -0.098 0.27 -0.066 0.066 -0.156 0.098 -0.27 0.098h-4.542c-0.082 0 -0.123 0.042 -0.123 0.123v2.553c0 0.082 0.041 0.123 0.123 0.123h7.34c0.114 0 0.204 0.033 0.269 0.098 0.066 0.066 0.098 0.156 0.098 0.269v3.216c0 0.115 -0.033 0.205 -0.098 0.27 -0.066 0.066 -0.156 0.098 -0.269 0.098h-11.71c-0.115 0 -0.204 -0.033 -0.269 -0.098 -0.066 -0.065 -0.098 -0.156 -0.098 -0.27V100.175c0 -0.114 0.033 -0.204 0.098 -0.27 0.065 -0.065 0.156 -0.098 0.269 -0.098h11.71c0.114 0 0.204 0.033 0.269 0.098 0.066 0.066 0.098 0.156 0.098 0.27v3.216c0 0.115 -0.033 0.204 -0.098 0.27Zm5.622 13.244a0.342 0.342 0 0 1 -0.147 -0.233l-4.836 -16.448c-0.017 -0.033 -0.024 -0.073 -0.024 -0.122 0 -0.197 0.114 -0.294 0.343 -0.294h4.198c0.212 0 0.343 0.107 0.392 0.319l2.455 10.359c0.016 0.066 0.04 0.098 0.074 0.098 0.033 0 0.057 -0.033 0.073 -0.098l2.381 -10.359c0.049 -0.212 0.181 -0.319 0.393 -0.319h4.1c0.131 0 0.225 0.037 0.283 0.111 0.057 0.073 0.069 0.176 0.036 0.307l-4.885 16.448a0.345 0.345 0 0 1 -0.147 0.233 0.458 0.458 0 0 1 -0.27 0.086h-4.149a0.455 0.455 0 0 1 -0.27 -0.086Zm-23.837 19.454 -2.7 -6.236c-0.033 -0.065 -0.082 -0.098 -0.147 -0.098h-1.031c-0.082 0 -0.123 0.041 -0.123 0.123v6.112c0 0.115 -0.033 0.205 -0.098 0.27 -0.065 0.065 -0.156 0.098 -0.269 0.098h-3.879c-0.115 0 -0.204 -0.033 -0.269 -0.098 -0.066 -0.065 -0.098 -0.156 -0.098 -0.27V119.814c0 -0.114 0.033 -0.204 0.098 -0.269 0.065 -0.066 0.156 -0.098 0.269 -0.098h7.438c1.113 0 2.09 0.229 2.934 0.688 0.842 0.458 1.498 1.101 1.964 1.927 0.467 0.826 0.699 1.78 0.699 2.86 0 1.08 -0.266 2.026 -0.797 2.836 -0.532 0.81 -1.264 1.404 -2.197 1.779 -0.082 0.033 -0.107 0.091 -0.073 0.172l3.118 6.481c0.033 0.098 0.049 0.156 0.049 0.172 0 0.082 -0.033 0.147 -0.098 0.196 -0.066 0.049 -0.147 0.073 -0.246 0.073h-4.124c-0.213 0 -0.352 -0.089 -0.418 -0.269Zm-4.002 -12.84v2.872c0 0.082 0.041 0.123 0.122 0.123h2.308c0.524 0 0.949 -0.143 1.276 -0.43 0.327 -0.286 0.491 -0.659 0.491 -1.117 0 -0.458 -0.164 -0.855 -0.491 -1.142 -0.327 -0.286 -0.753 -0.43 -1.276 -0.43h-2.308c-0.081 0 -0.122 0.042 -0.122 0.123Zm22.216 -0.221c-0.066 0.066 -0.156 0.098 -0.269 0.098H285.355c-0.082 0 -0.123 0.041 -0.123 0.122v2.308c0 0.082 0.041 0.123 0.123 0.123h4.542c0.114 0 0.204 0.033 0.27 0.098 0.065 0.066 0.098 0.156 0.098 0.269v3.192c0 0.115 -0.033 0.205 -0.098 0.27 -0.066 0.066 -0.156 0.098 -0.27 0.098h-4.542c-0.082 0 -0.123 0.042 -0.123 0.123v2.554c0 0.082 0.041 0.122 0.123 0.122h7.34c0.114 0 0.204 0.034 0.269 0.098 0.066 0.066 0.098 0.156 0.098 0.27v3.216c0 0.115 -0.033 0.204 -0.098 0.269 -0.066 0.066 -0.156 0.098 -0.269 0.098h-11.71c-0.115 0 -0.204 -0.033 -0.269 -0.098 -0.066 -0.065 -0.098 -0.156 -0.098 -0.269V119.813c0 -0.114 0.033 -0.205 0.098 -0.27 0.065 -0.065 0.156 -0.098 0.269 -0.098h11.71c0.114 0 0.204 0.033 0.269 0.098 0.066 0.066 0.098 0.156 0.098 0.27v3.216c0 0.115 -0.033 0.204 -0.098 0.27Zm12.226 4.542c0.737 0.409 1.276 0.933 1.62 1.571 0.343 0.638 0.516 1.408 0.516 2.308 0 1.685 -0.589 2.925 -1.768 3.719 -1.178 0.794 -2.708 1.191 -4.59 1.191h-6.604c-0.115 0 -0.204 -0.033 -0.27 -0.098 -0.066 -0.066 -0.098 -0.156 -0.098 -0.27V119.816c0 -0.114 0.032 -0.204 0.098 -0.27 0.066 -0.065 0.156 -0.098 0.27 -0.098h6.382c2.095 0 3.67 0.372 4.726 1.117 1.055 0.745 1.583 1.992 1.583 3.744 0 1.555 -0.622 2.684 -1.865 3.388 -0.066 0.049 -0.066 0.098 0 0.147Zm-6.579 -4.32v2.455c0 0.082 0.04 0.122 0.123 0.122h2.013c1.194 0 1.793 -0.45 1.793 -1.35 0 -0.901 -0.598 -1.35 -1.793 -1.35h-2.013c-0.082 0 -0.123 0.041 -0.123 0.122Zm4.1 7.708c0 -0.917 -0.573 -1.375 -1.719 -1.375h-2.259c-0.082 0 -0.123 0.041 -0.123 0.123v2.577c0 0.082 0.04 0.123 0.123 0.123h2.234c1.162 0 1.743 -0.483 1.743 -1.449Zm18.116 -7.93c-0.066 0.066 -0.156 0.098 -0.27 0.098h-7.34c-0.082 0 -0.122 0.041 -0.122 0.122v2.308c0 0.082 0.04 0.123 0.122 0.123h4.542c0.114 0 0.205 0.033 0.27 0.098 0.065 0.066 0.098 0.156 0.098 0.269v3.192c0 0.115 -0.033 0.205 -0.098 0.27 -0.066 0.066 -0.156 0.098 -0.27 0.098h-4.542c-0.082 0 -0.122 0.042 -0.122 0.123v2.554c0 0.082 0.04 0.122 0.122 0.122h7.34c0.114 0 0.205 0.034 0.27 0.098 0.065 0.066 0.098 0.156 0.098 0.27v3.216c0 0.115 -0.033 0.204 -0.098 0.269 -0.066 0.066 -0.156 0.098 -0.27 0.098H308.848c-0.115 0 -0.205 -0.033 -0.27 -0.098 -0.066 -0.065 -0.098 -0.156 -0.098 -0.269V119.813c0 -0.114 0.032 -0.205 0.098 -0.27 0.065 -0.065 0.156 -0.098 0.27 -0.098h11.709c0.114 0 0.205 0.033 0.27 0.098 0.065 0.066 0.098 0.156 0.098 0.27v3.216c0 0.115 -0.033 0.204 -0.098 0.27Zm1.129 13.232c-0.066 -0.065 -0.098 -0.156 -0.098 -0.27V119.814c0 -0.114 0.032 -0.204 0.098 -0.269 0.066 -0.066 0.156 -0.098 0.27 -0.098h3.878c0.114 0 0.205 0.033 0.27 0.098 0.065 0.066 0.098 0.156 0.098 0.269v12.741c0 0.082 0.041 0.123 0.122 0.123h7.586c0.114 0 0.204 0.033 0.27 0.098 0.065 0.066 0.098 0.156 0.098 0.27v3.216c0 0.115 -0.033 0.205 -0.098 0.27 -0.066 0.066 -0.156 0.098 -0.27 0.098h-11.955c-0.115 0 -0.205 -0.033 -0.27 -0.098Zm13.833 -0.355c-0.434 -0.434 -0.65 -0.986 -0.65 -1.657 0 -0.671 0.216 -1.243 0.65 -1.67 0.433 -0.425 0.986 -0.638 1.657 -0.638 0.671 0 1.223 0.213 1.657 0.638 0.433 0.426 0.651 0.982 0.651 1.67 0 0.687 -0.221 1.203 -0.663 1.645 -0.441 0.442 -0.99 0.663 -1.645 0.663 -0.655 0 -1.224 -0.217 -1.657 -0.651Zm-34.045 -47.101c0 -0.337 -0.173 -0.505 -0.52 -0.505h-0.675v2.808h0.675c0.346 0 0.52 -0.168 0.52 -0.505Zm-3.013 -2.074h2.722c0.651 0 1.164 0.157 1.537 0.472 0.373 0.314 0.56 0.775 0.56 1.385v2.231c0 0.61 -0.187 1.073 -0.56 1.387 -0.374 0.314 -0.886 0.47 -1.537 0.47h-0.903v2.41h-1.819Zm9.087 2.136c0 -0.402 -0.24 -0.603 -0.717 -0.603 -0.477 0 -0.715 0.201 -0.715 0.603v4.086c0 0.402 0.238 0.603 0.715 0.603 0.478 0 0.717 -0.201 0.717 -0.603Zm-3.242 -0.098c0 -0.659 0.213 -1.184 0.639 -1.573 0.426 -0.389 1.052 -0.584 1.881 -0.584 0.828 0 1.456 0.195 1.886 0.584 0.43 0.39 0.646 0.914 0.646 1.573v4.279c0 0.66 -0.216 1.185 -0.646 1.576 -0.429 0.39 -1.058 0.584 -1.886 0.584 -0.828 0 -1.455 -0.194 -1.881 -0.584 -0.426 -0.391 -0.639 -0.916 -0.639 -1.576Zm11.307 -2.038h1.557l-1.111 8.355h-1.614l-0.496 -3.304 -0.265 -2.303c-0.064 0.893 -0.144 1.661 -0.241 2.303l-0.505 3.304h-1.726l-1.073 -8.355h1.58c0.305 2.195 0.473 3.477 0.505 3.847 0.032 0.369 0.06 0.77 0.086 1.204 0.119 -1.107 0.319 -2.791 0.601 -5.051h1.533l0.565 4.968c0.041 -0.804 0.11 -1.543 0.205 -2.219Zm2.461 0h4.231v1.569h-2.424v1.771h2.098v1.568h-2.098v1.881h2.424v1.566h-4.231Zm7.183 5.342v3.013h-1.807v-8.355h2.722c0.659 0 1.173 0.157 1.542 0.472 0.37 0.314 0.555 0.771 0.555 1.373v1.545c0 0.963 -0.329 1.566 -0.987 1.807l1.314 3.158h-1.988l-1.123 -3.013Zm0 -3.797v2.362h0.71c0.186 0 0.315 -0.039 0.386 -0.119 0.073 -0.081 0.11 -0.222 0.11 -0.424v-1.361c0 -0.176 -0.041 -0.296 -0.122 -0.36 -0.08 -0.065 -0.204 -0.098 -0.374 -0.098Zm4.305 -1.545h4.231v1.569h-2.424v1.771h2.098v1.568h-2.098v1.881h2.424v1.566h-4.231Zm8.547 1.931c0 -0.144 -0.035 -0.255 -0.103 -0.331 -0.069 -0.076 -0.2 -0.114 -0.393 -0.114h-0.868v5.316h0.868c0.33 0 0.496 -0.185 0.496 -0.555Zm-3.17 -1.931h2.927c0.651 0 1.156 0.157 1.514 0.472 0.357 0.314 0.536 0.775 0.536 1.385v4.534c0 1.31 -0.647 1.964 -1.94 1.964h-3.037Zm-1.206 13.93v0.782c0 0.781 -0.285 1.259 -0.856 1.435 0.618 0.145 0.927 0.627 0.927 1.447v0.856c0 1.278 -0.683 1.917 -2.05 1.917h-2.927V99.013h2.856c1.366 0 2.05 0.64 2.05 1.919Zm-2.35 -0.398h-0.748v1.819h0.748c0.377 0 0.565 -0.172 0.565 -0.517v-0.784c0 -0.345 -0.188 -0.517 -0.565 -0.517Zm0.639 4.796v-0.856c0 -0.344 -0.189 -0.517 -0.567 -0.517h-0.82v1.893h0.82c0.378 0 0.567 -0.173 0.567 -0.52Zm6.328 2.038h-1.833V104.777l-1.988 -5.764h1.857l0.398 1.266c0.313 0.989 0.537 1.865 0.675 2.629 0.153 -0.78 0.381 -1.664 0.686 -2.653l0.386 -1.242h1.807l-1.988 5.764Zm0 0"/><g clip-path="url(#b)"><g clip-path="url(#c)"><path fill="#fff" d="M312.246 98.436h3.981v6.389h-3.981Zm0 0"/></g></g><g clip-path="url(#d)"><g clip-path="url(#e)"><path fill="#fff" d="M321.777 98.681h4.15v6.028h-4.15Zm0 0"/></g></g><g clip-path="url(#f)"><g clip-path="url(#g)"><path fill="#fafafa" d="M314.044 99.047h3.981v5.297h-3.981Zm0 0"/></g></g><g clip-path="url(#h)"><g clip-path="url(#i)"><path fill="#fafafa" d="M320.224 99.592h3.981v4.752h-3.981Zm0 0"/></g></g><g clip-path="url(#j)"><g clip-path="url(#k)"><path fill="#fafafa" d="M318.358 98.637h5.494v4.752h-5.494Zm0 0"/></g></g><g clip-path="url(#l)"><g clip-path="url(#m)"><path fill="#fafafa" d="M314.044 98.637h5.494v4.752h-5.494Zm0 0"/></g></g><g clip-path="url(#n)"><g clip-path="url(#o)"><g clip-path="url(#p)"><path fill="#fafafa" d="m315.454 104.344 3.698 -3.698 3.699 3.698 -3.699 3.699Zm0 0"/></g></g></g><path fill="#2f2f2f" d="M314.064 97.972c-0.128 0.027 -0.327 0.112 -0.439 0.186 -0.114 0.079 -0.372 0.347 -0.561 0.583 -0.397 0.498 -0.747 1.269 -0.877 1.94 -0.047 0.242 -0.052 0.33 -0.049 0.874 0 0.57 0.005 0.623 0.061 0.89 0.186 0.874 0.621 1.692 1.226 2.3 0.307 0.308 0.688 0.435 1.071 0.359 0.231 -0.045 0.384 -0.117 0.552 -0.251l0.13 -0.108 1.697 1.693c1.841 1.838 1.787 1.791 2.081 1.832 0.166 0.022 0.361 -0.01 0.509 -0.081 0.089 -0.047 0.471 -0.412 1.809 -1.751l1.695 -1.693 0.144 0.11c0.305 0.231 0.628 0.314 0.964 0.247 0.348 -0.067 0.558 -0.213 0.901 -0.618 0.476 -0.565 0.847 -1.341 0.978 -2.034 0.26 -1.383 -0.049 -2.666 -0.906 -3.764 -0.211 -0.271 -0.493 -0.531 -0.664 -0.612 -0.468 -0.22 -0.998 -0.128 -1.363 0.235l-0.144 0.144 -0.157 -0.07c-0.435 -0.195 -0.746 -0.275 -1.222 -0.314 -0.823 -0.07 -1.67 0.188 -2.39 0.726 -0.016 0.011 -0.106 -0.036 -0.244 -0.13 -0.594 -0.404 -1.251 -0.604 -1.966 -0.604 -0.509 0.002 -0.915 0.085 -1.387 0.29l-0.234 0.098 -0.136 -0.141c-0.153 -0.154 -0.388 -0.284 -0.592 -0.327 -0.114 -0.024 -0.395 -0.029 -0.486 -0.009Zm0.45 0.95c0.04 0.038 0.079 0.103 0.088 0.146 0.027 0.145 -0.007 0.226 -0.166 0.399 -0.178 0.191 -0.424 0.556 -0.52 0.769 -0.26 0.576 -0.325 1.031 -0.256 1.782 0.016 0.173 0.168 0.659 0.242 0.78 0.027 0.043 0.047 0.081 0.043 0.085 -0.007 0.007 0.089 0.187 0.177 0.33 0.058 0.092 0.327 0.429 0.439 0.545 0.045 0.045 0.061 0.181 0.031 0.275 -0.049 0.166 -0.276 0.267 -0.424 0.191 -0.038 -0.02 -0.157 -0.132 -0.262 -0.251 -0.253 -0.287 -0.402 -0.511 -0.619 -0.951 -0.058 -0.121 -0.193 -0.569 -0.244 -0.818 -0.058 -0.284 -0.067 -0.973 -0.013 -1.256 0.018 -0.098 0.038 -0.206 0.045 -0.242 0.041 -0.235 0.285 -0.836 0.435 -1.076 0.242 -0.377 0.551 -0.744 0.661 -0.778 0.123 -0.036 0.262 -0.009 0.343 0.069Zm9.621 0.045c0.278 0.272 0.54 0.664 0.71 1.058 0.043 0.103 0.094 0.215 0.112 0.251 0.018 0.038 0.038 0.097 0.045 0.13 0.007 0.036 0.024 0.112 0.042 0.168 0.088 0.287 0.117 0.527 0.117 0.98 0 0.346 -0.009 0.491 -0.04 0.639 -0.079 0.368 -0.184 0.691 -0.3 0.919 -0.04 0.081 -0.074 0.153 -0.074 0.164 0 0.009 -0.085 0.146 -0.188 0.303 -0.229 0.345 -0.516 0.641 -0.646 0.666 -0.103 0.02 -0.262 -0.054 -0.316 -0.146 -0.043 -0.069 -0.05 -0.213 -0.018 -0.295 0.011 -0.029 0.103 -0.148 0.204 -0.265 0.159 -0.186 0.426 -0.576 0.426 -0.623 0 -0.009 0.022 -0.056 0.047 -0.105 0.119 -0.222 0.233 -0.668 0.265 -1.038 0.013 -0.148 0.02 -0.285 0.016 -0.3 -0.007 -0.015 -0.016 -0.121 -0.023 -0.233 -0.016 -0.262 -0.123 -0.682 -0.237 -0.924 -0.049 -0.104 -0.09 -0.193 -0.09 -0.204 0 -0.009 -0.016 -0.036 -0.033 -0.058 -0.02 -0.024 -0.067 -0.096 -0.108 -0.161 -0.132 -0.211 -0.191 -0.292 -0.314 -0.424 -0.15 -0.163 -0.172 -0.206 -0.172 -0.322 0 -0.141 0.083 -0.269 0.191 -0.299 0.024 -0.007 0.094 -0.009 0.152 -0.007 0.097 0.007 0.122 0.02 0.234 0.127Zm-6.679 0.02c0.368 0.081 0.742 0.253 1.031 0.476 0.07 0.054 0.233 0.2 0.363 0.325l0.237 0.229 0.191 -0.193c0.462 -0.469 0.828 -0.686 1.388 -0.828 0.281 -0.069 0.85 -0.076 1.132 -0.011 0.592 0.132 1.121 0.459 1.475 0.906 0.356 0.448 0.509 0.822 0.579 1.41 0.054 0.476 -0.063 1.052 -0.3 1.476 -0.184 0.33 -0.29 0.444 -2.375 2.529l-2.092 2.089 -2.153 -2.157c-1.953 -1.96 -2.161 -2.178 -2.262 -2.343 -0.126 -0.213 -0.191 -0.368 -0.285 -0.673 -0.056 -0.184 -0.07 -0.274 -0.081 -0.533 -0.015 -0.381 0.014 -0.621 0.108 -0.919 0.204 -0.65 0.617 -1.163 1.204 -1.5 0.215 -0.125 0.406 -0.199 0.688 -0.274 0.278 -0.069 0.854 -0.076 1.151 -0.009ZM73.46 121.002c-0.326 0 -0.583 -0.093 -0.77 -0.279 -0.186 -0.186 -0.279 -0.442 -0.279 -0.77v-9.089c0 -0.327 0.093 -0.584 0.279 -0.77 0.187 -0.186 0.444 -0.279 0.77 -0.279h24.125c0.326 0 0.582 0.093 0.768 0.279 0.187 0.186 0.281 0.443 0.281 0.77v9.089c0 0.328 -0.094 0.584 -0.281 0.77 -0.186 0.186 -0.442 0.279 -0.768 0.279Zm59.866 -33.562c0 -0.327 0.093 -0.584 0.279 -0.77 0.186 -0.187 0.442 -0.281 0.77 -0.281h11.048c0.325 0 0.582 0.094 0.768 0.281 0.187 0.186 0.281 0.443 0.281 0.77v46.849c0 0.326 -0.094 0.583 -0.281 0.77 -0.186 0.186 -0.442 0.279 -0.768 0.279h-11.048c-0.328 0 -0.584 -0.093 -0.77 -0.279 -0.186 -0.187 -0.279 -0.444 -0.279 -0.77V116.528c0 -0.234 -0.117 -0.35 -0.35 -0.35h-10.908c-0.234 0 -0.35 0.117 -0.35 0.35v17.761c0 0.326 -0.094 0.583 -0.281 0.77 -0.186 0.186 -0.442 0.279 -0.767 0.279H109.62c-0.326 0 -0.583 -0.093 -0.77 -0.279 -0.186 -0.187 -0.279 -0.444 -0.279 -0.77V87.44c0 -0.327 0.093 -0.584 0.279 -0.77 0.187 -0.187 0.444 -0.281 0.77 -0.281h11.048c0.325 0 0.582 0.094 0.768 0.281 0.187 0.186 0.281 0.443 0.281 0.77v17.132c0 0.232 0.117 0.348 0.35 0.348h10.908c0.234 0 0.35 -0.116 0.35 -0.348Zm42.513 48.458c-3.778 0 -7.122 -0.722 -10.035 -2.167 -2.913 -1.446 -5.162 -3.497 -6.748 -6.155 -1.584 -2.657 -2.377 -5.733 -2.377 -9.23V87.44c0 -0.327 0.093 -0.584 0.279 -0.77 0.186 -0.187 0.442 -0.281 0.77 -0.281h11.048c0.325 0 0.582 0.094 0.768 0.281 0.187 0.186 0.281 0.443 0.281 0.77v30.907c0 1.91 0.547 3.437 1.642 4.579 1.095 1.143 2.552 1.714 4.372 1.714 1.77 0 3.202 -0.582 4.298 -1.747 1.096 -1.166 1.645 -2.682 1.645 -4.546V87.44c0 -0.327 0.093 -0.584 0.279 -0.77 0.187 -0.187 0.444 -0.281 0.77 -0.281h11.048c0.325 0 0.582 0.094 0.768 0.281 0.187 0.186 0.281 0.443 0.281 0.77v30.907c0 3.496 -0.793 6.573 -2.379 9.23 -1.584 2.657 -3.822 4.709 -6.712 6.155 -2.889 1.445 -6.221 2.167 -9.997 2.167Zm61.811 -26.013c-0.188 0.14 -0.188 0.28 0 0.42 2.098 1.165 3.636 2.657 4.615 4.477 0.978 1.818 1.468 4.009 1.468 6.572 0 4.802 -1.678 8.335 -5.034 10.595 -3.356 2.26 -7.715 3.39 -13.077 3.39h-18.809c-0.326 0 -0.583 -0.093 -0.77 -0.279 -0.186 -0.187 -0.279 -0.444 -0.279 -0.77V87.44c0 -0.327 0.093 -0.584 0.279 -0.77 0.187 -0.187 0.444 -0.281 0.77 -0.281h18.18c5.967 0 10.454 1.061 13.461 3.182 3.006 2.121 4.51 5.677 4.51 10.665 0 4.429 -1.771 7.646 -5.313 9.649Zm-18.39 -12.238c-0.234 0 -0.35 0.117 -0.35 0.35v6.994c0 0.232 0.117 0.348 0.35 0.348h5.733c3.404 0 5.106 -1.281 5.106 -3.845 0 -2.565 -1.702 -3.847 -5.106 -3.847Zm6.362 26.433c3.31 0 4.965 -1.375 4.965 -4.126 0 -2.609 -1.632 -3.914 -4.894 -3.914h-6.434c-0.234 0 -0.35 0.116 -0.35 0.348v7.342c0 0.234 0.117 0.35 0.35 0.35Zm0 0"/><g clip-path="url(#q)"><path fill="#2f2f2f" d="M33.132 84.774a28.934 28.934 0 0 0 -1.405 0.016 28.884 28.884 0 0 0 -2.798 0.237c-0.464 0.063 -0.927 0.136 -1.387 0.221a29.167 29.167 0 0 0 -1.375 0.289 28.085 28.085 0 0 0 -1.359 0.356 28.589 28.589 0 0 0 -3.949 1.461 28.321 28.321 0 0 0 -2.495 1.289 27.623 27.623 0 0 0 -1.197 0.735 28.609 28.609 0 0 0 -3.356 2.543 28.89 28.89 0 0 0 -1.032 0.953 28.905 28.905 0 0 0 -1.915 2.054 28.732 28.732 0 0 0 -1.706 2.231 28.843 28.843 0 0 0 -0.769 1.176 27.981 27.981 0 0 0 -0.71 1.212 28.683 28.683 0 0 0 -0.65 1.245 29.386 29.386 0 0 0 -0.588 1.276 28.979 28.979 0 0 0 -0.985 2.63 28.384 28.384 0 0 0 -0.395 1.348 28.331 28.331 0 0 0 -0.328 1.365 28.704 28.704 0 0 0 -0.454 2.771 28.894 28.894 0 0 0 -0.18 2.803 28.961 28.961 0 0 0 0.18 2.803 28.679 28.679 0 0 0 0.454 2.771c0.098 0.458 0.207 0.914 0.328 1.366a29.089 29.089 0 0 0 0.395 1.348 28.846 28.846 0 0 0 0.985 2.63 29.386 29.386 0 0 0 0.588 1.276 28.683 28.683 0 0 0 0.65 1.245 27.981 27.981 0 0 0 0.71 1.212 28.822 28.822 0 0 0 1.594 2.312 29.208 29.208 0 0 0 0.88 1.095 28.821 28.821 0 0 0 1.915 2.053 28.82 28.82 0 0 0 2.108 1.856 28.595 28.595 0 0 0 1.12 0.848 27.442 27.442 0 0 0 1.16 0.793 28.854 28.854 0 0 0 2.428 1.41c0.416 0.214 0.837 0.42 1.263 0.614a28.581 28.581 0 0 0 2.609 1.038 28.379 28.379 0 0 0 2.698 0.778 28.427 28.427 0 0 0 1.375 0.288 28.561 28.561 0 0 0 1.387 0.222c0.464 0.062 0.93 0.113 1.396 0.153 0.467 0.039 0.934 0.068 1.402 0.084 0.468 0.017 0.936 0.022 1.405 0.016 0.468 0.007 0.936 0.001 1.404 -0.016 0.468 -0.017 0.935 -0.045 1.402 -0.084a28.209 28.209 0 0 0 1.396 -0.153 28.385 28.385 0 0 0 2.76 -0.51 27.883 27.883 0 0 0 1.358 -0.356 29.182 29.182 0 0 0 1.34 -0.422 28.802 28.802 0 0 0 2.608 -1.039 28.354 28.354 0 0 0 1.263 -0.614 27.698 27.698 0 0 0 1.231 -0.675 27.603 27.603 0 0 0 1.197 -0.735 28.557 28.557 0 0 0 5.366 -4.5 28.788 28.788 0 0 0 1.811 -2.145 28.563 28.563 0 0 0 1.592 -2.312 28.682 28.682 0 0 0 2.469 -5.035 28.83 28.83 0 0 0 0.459 -1.327c0.142 -0.446 0.273 -0.895 0.393 -1.348a28.236 28.236 0 0 0 0.586 -2.745c0.076 -0.462 0.139 -0.926 0.192 -1.391 0.052 -0.465 0.094 -0.932 0.123 -1.399 0.029 -0.467 0.048 -0.935 0.054 -1.403 -0.007 -0.468 -0.025 -0.935 -0.054 -1.403a28.934 28.934 0 0 0 -0.123 -1.399 28.148 28.148 0 0 0 -0.192 -1.391 28.528 28.528 0 0 0 -1.439 -5.42 28.673 28.673 0 0 0 -1.111 -2.578 28.661 28.661 0 0 0 -0.649 -1.245 28.599 28.599 0 0 0 -2.301 -3.524 28.716 28.716 0 0 0 -3.823 -4.102 29.312 29.312 0 0 0 -1.076 -0.902 29.173 29.173 0 0 0 -1.119 -0.849 29.458 29.458 0 0 0 -1.159 -0.793 29.232 29.232 0 0 0 -1.197 -0.735 28.973 28.973 0 0 0 -1.231 -0.675 28.668 28.668 0 0 0 -6.568 -2.431 28.38 28.38 0 0 0 -1.373 -0.288 28.707 28.707 0 0 0 -1.387 -0.222 28.942 28.942 0 0 0 -2.797 -0.237c-0.468 -0.017 -0.936 -0.021 -1.404 -0.016Zm-9.335 38.467a0.228 0.228 0 0 1 -0.076 0.147 0.231 0.231 0 0 1 -0.155 0.058 0.249 0.249 0 0 1 -0.055 0.019 0.23 0.23 0 0 1 -0.214 -0.066 0.222 0.222 0 0 1 -0.035 -0.046 0.224 0.224 0 0 1 -0.022 -0.054 0.208 0.208 0 0 1 -0.008 -0.058v-7.693c0 -0.031 0.005 -0.06 0.017 -0.088a0.23 0.23 0 0 1 0.302 -0.125 0.244 0.244 0 0 1 0.075 0.05c0.021 0.022 0.038 0.047 0.05 0.075 0.011 0.028 0.017 0.058 0.017 0.088Zm1.001 -0.897c-0.037 0.076 -0.097 0.118 -0.18 0.128 -0.03 0 -0.059 -0.005 -0.088 -0.017a0.244 0.244 0 0 1 -0.075 -0.05 0.22 0.22 0 0 1 -0.049 -0.075 0.224 0.224 0 0 1 -0.018 -0.088v-5.744c0 -0.031 0.006 -0.06 0.018 -0.089 0.011 -0.028 0.028 -0.053 0.049 -0.075a0.224 0.224 0 0 1 0.075 -0.05 0.227 0.227 0 0 1 0.177 0c0.028 0.011 0.053 0.028 0.074 0.05 0.022 0.021 0.039 0.047 0.05 0.075 0.012 0.029 0.018 0.058 0.018 0.089Zm1 -1.026a0.178 0.178 0 0 1 -0.043 0.144 0.172 0.172 0 0 1 -0.061 0.046c-0.024 0.011 -0.049 0.016 -0.075 0.016h-0.154a0.179 0.179 0 0 1 -0.198 -0.122 0.18 0.18 0 0 1 -0.007 -0.083v-3.821a0.206 0.206 0 0 1 0.06 -0.145c0.019 -0.019 0.042 -0.034 0.067 -0.044 0.025 -0.011 0.051 -0.015 0.078 -0.015h0.154c0.051 0.006 0.094 0.029 0.129 0.068 0.034 0.039 0.051 0.085 0.051 0.137Zm1.025 0.872a0.23 0.23 0 0 1 -0.319 0.213 0.23 0.23 0 0 1 -0.142 -0.213V116.626a0.227 0.227 0 0 1 0.067 -0.163c0.021 -0.021 0.047 -0.038 0.075 -0.05a0.224 0.224 0 0 1 0.177 0c0.029 0.012 0.054 0.028 0.075 0.05 0.021 0.021 0.038 0.047 0.05 0.074 0.011 0.029 0.017 0.058 0.017 0.089Zm1.001 0.616a0.225 0.225 0 0 1 -0.076 0.147 0.231 0.231 0 0 1 -0.155 0.058 0.254 0.254 0 0 1 -0.169 0.099 0.258 0.258 0 0 1 -0.19 -0.048 0.254 0.254 0 0 1 -0.099 -0.169 0.246 0.246 0 0 1 0.005 -0.1c0.009 -0.033 0.023 -0.063 0.044 -0.09v-6.668a0.23 0.23 0 0 1 0.319 -0.213 0.23 0.23 0 0 1 0.142 0.213Zm1.025 2.077c0 0.034 -0.006 0.067 -0.02 0.098a0.255 0.255 0 0 1 -0.335 0.139 0.255 0.255 0 0 1 -0.139 -0.139 0.249 0.249 0 0 1 -0.02 -0.098v-10.951a0.254 0.254 0 0 1 0.075 -0.181c0.024 -0.024 0.052 -0.043 0.083 -0.056a0.254 0.254 0 0 1 0.196 0c0.032 0.013 0.06 0.031 0.083 0.056a0.254 0.254 0 0 1 0.075 0.181Zm1 -1.796a0.254 0.254 0 0 1 -0.075 0.182 0.254 0.254 0 0 1 -0.279 0.055 0.259 0.259 0 0 1 -0.139 -0.139 0.265 0.265 0 0 1 -0.019 -0.098v-7.334a0.232 0.232 0 0 1 0.011 -0.103 0.232 0.232 0 0 1 0.142 -0.142c0.033 -0.012 0.068 -0.015 0.103 -0.011 0.035 -0.004 0.069 -0.001 0.103 0.011a0.23 0.23 0 0 1 0.154 0.246Zm1.026 0.564a0.254 0.254 0 0 1 -0.075 0.181 0.254 0.254 0 0 1 -0.182 0.075c-0.034 0 -0.067 -0.007 -0.098 -0.019a0.259 0.259 0 0 1 -0.139 -0.139 0.254 0.254 0 0 1 -0.02 -0.098V115.164c0.003 -0.034 0.011 -0.065 0.026 -0.095 0.014 -0.03 0.032 -0.056 0.056 -0.08a0.28 0.28 0 0 1 0.175 -0.082c0.033 0.003 0.065 0.011 0.095 0.026a0.279 0.279 0 0 1 0.137 0.136c0.014 0.03 0.023 0.061 0.026 0.095Zm1 -2.564a0.18 0.18 0 0 1 -0.111 0.166c-0.022 0.009 -0.045 0.014 -0.069 0.014h-0.179a0.183 0.183 0 0 1 -0.128 -0.052 0.182 0.182 0 0 1 -0.052 -0.127v-3.077c0 -0.024 0.005 -0.047 0.014 -0.069a0.184 0.184 0 0 1 0.097 -0.097c0.022 -0.009 0.045 -0.014 0.069 -0.014h0.179a0.18 0.18 0 0 1 0.166 0.111c0.009 0.022 0.014 0.045 0.014 0.069Zm1.026 0.821c0 0.03 -0.005 0.059 -0.017 0.088a0.23 0.23 0 0 1 -0.302 0.125 0.23 0.23 0 0 1 -0.142 -0.213v-4.924c0 -0.031 0.006 -0.06 0.017 -0.088a0.23 0.23 0 0 1 0.302 -0.125 0.23 0.23 0 0 1 0.142 0.213Zm1.001 1.179a0.233 0.233 0 0 1 -0.066 0.191 0.233 0.233 0 0 1 -0.191 0.066c-0.034 0 -0.067 -0.007 -0.098 -0.02a0.255 0.255 0 0 1 -0.159 -0.237v-7.283c0.003 -0.034 0.011 -0.065 0.026 -0.095 0.014 -0.03 0.032 -0.057 0.056 -0.08 0.023 -0.023 0.05 -0.042 0.08 -0.056a0.27 0.27 0 0 1 0.094 -0.026 0.262 0.262 0 0 1 0.182 0.075 0.262 0.262 0 0 1 0.075 0.182Zm1.025 1.385c-0.003 0.033 -0.011 0.064 -0.026 0.095a0.276 0.276 0 0 1 -0.136 0.137c-0.03 0.014 -0.061 0.023 -0.094 0.025a0.253 0.253 0 0 1 -0.182 -0.075 0.254 0.254 0 0 1 -0.075 -0.181v-10.027a0.233 0.233 0 0 1 0.066 -0.191 0.232 0.232 0 0 1 0.191 -0.066c0.034 0 0.067 0.007 0.098 0.02a0.255 0.255 0 0 1 0.159 0.237Zm1 -0.949a0.23 0.23 0 0 1 -0.256 0.256 0.254 0.254 0 0 1 -0.181 -0.075 0.252 0.252 0 0 1 -0.056 -0.083 0.265 0.265 0 0 1 -0.019 -0.098v-8.155a0.277 0.277 0 0 1 0.081 -0.175 0.276 0.276 0 0 1 0.175 -0.082 0.252 0.252 0 0 1 0.181 0.075c0.024 0.024 0.043 0.052 0.056 0.083 0.013 0.032 0.019 0.064 0.019 0.098Zm1.001 -0.769c0 0.031 -0.006 0.06 -0.018 0.088a0.224 0.224 0 0 1 -0.05 0.075c-0.021 0.021 -0.046 0.038 -0.074 0.05a0.238 0.238 0 0 1 -0.089 0.017 0.228 0.228 0 0 1 -0.096 -0.01 0.228 0.228 0 0 1 -0.084 -0.048 0.229 0.229 0 0 1 -0.076 -0.173V116.343a0.222 0.222 0 0 1 0.011 -0.103c0.011 -0.033 0.03 -0.063 0.055 -0.088 0.025 -0.025 0.054 -0.043 0.088 -0.055 0.033 -0.012 0.067 -0.015 0.103 -0.011a0.233 0.233 0 0 1 0.173 0.076c0.022 0.024 0.038 0.052 0.048 0.084 0.01 0.032 0.013 0.063 0.01 0.096Zm1.025 -1.026c0 0.031 -0.006 0.06 -0.017 0.089a0.234 0.234 0 0 1 -0.05 0.074 0.224 0.224 0 0 1 -0.075 0.05 0.227 0.227 0 0 1 -0.177 0 0.213 0.213 0 0 1 -0.075 -0.05c-0.021 -0.021 -0.038 -0.047 -0.05 -0.074a0.227 0.227 0 0 1 -0.018 -0.089v-4.565c0 -0.031 0.006 -0.059 0.018 -0.088 0.012 -0.028 0.029 -0.053 0.05 -0.075 0.021 -0.022 0.047 -0.039 0.075 -0.05a0.227 0.227 0 0 1 0.176 0c0.028 0.011 0.053 0.028 0.075 0.05 0.021 0.022 0.038 0.047 0.05 0.075 0.011 0.029 0.017 0.058 0.017 0.088Zm1 1.308c0 0.034 -0.007 0.067 -0.019 0.098a0.246 0.246 0 0 1 -0.056 0.083 0.252 0.252 0 0 1 -0.181 0.076 0.254 0.254 0 0 1 -0.181 -0.076 0.246 0.246 0 0 1 -0.056 -0.083 0.265 0.265 0 0 1 -0.019 -0.098v-7.155a0.232 0.232 0 0 1 0.011 -0.103 0.232 0.232 0 0 1 0.142 -0.142c0.034 -0.011 0.068 -0.015 0.103 -0.011a0.234 0.234 0 0 1 0.191 0.066c0.025 0.025 0.043 0.054 0.055 0.088 0.011 0.033 0.015 0.068 0.011 0.103Zm1.026 1.59a0.271 0.271 0 0 1 -0.025 0.095 0.279 0.279 0 0 1 -0.137 0.137 0.273 0.273 0 0 1 -0.095 0.026 0.273 0.273 0 0 1 -0.094 -0.026 0.279 0.279 0 0 1 -0.137 -0.137 0.273 0.273 0 0 1 -0.026 -0.095v-10.258a0.262 0.262 0 0 1 0.075 -0.182c0.024 -0.024 0.052 -0.042 0.083 -0.055a0.254 0.254 0 0 1 0.196 0c0.032 0.013 0.059 0.032 0.083 0.055a0.262 0.262 0 0 1 0.075 0.182Zm1 -0.872c0.004 0.035 0.001 0.07 -0.011 0.103a0.232 0.232 0 0 1 -0.142 0.142 0.23 0.23 0 0 1 -0.102 0.011 0.234 0.234 0 0 1 -0.103 -0.011 0.232 0.232 0 0 1 -0.142 -0.142 0.233 0.233 0 0 1 -0.011 -0.103v-8.616a0.262 0.262 0 0 1 0.075 -0.182 0.262 0.262 0 0 1 0.182 -0.075c0.034 0 0.067 0.007 0.098 0.02a0.255 0.255 0 0 1 0.159 0.237Zm1.026 -1.769c0 0.031 -0.005 0.06 -0.017 0.088a0.23 0.23 0 0 1 -0.302 0.125 0.237 0.237 0 0 1 -0.075 -0.05 0.244 0.244 0 0 1 -0.05 -0.075 0.235 0.235 0 0 1 -0.017 -0.088v-4.873c0 -0.031 0.006 -0.059 0.017 -0.088a0.226 0.226 0 0 1 0.125 -0.124 0.224 0.224 0 0 1 0.176 0c0.029 0.011 0.054 0.028 0.075 0.049 0.022 0.022 0.038 0.047 0.05 0.075 0.012 0.029 0.017 0.058 0.017 0.088Zm1 2.103c0.004 0.035 0.001 0.069 -0.011 0.103 -0.011 0.034 -0.03 0.063 -0.055 0.088a0.225 0.225 0 0 1 -0.087 0.055 0.225 0.225 0 0 1 -0.103 0.011 0.232 0.232 0 0 1 -0.221 -0.16 0.228 0.228 0 0 1 -0.009 -0.096v-9.284a0.227 0.227 0 0 1 0.01 -0.096 0.228 0.228 0 0 1 0.127 -0.141 0.232 0.232 0 0 1 0.094 -0.02 0.226 0.226 0 0 1 0.103 0.011c0.033 0.011 0.063 0.03 0.088 0.055 0.025 0.025 0.043 0.054 0.055 0.088 0.012 0.033 0.015 0.067 0.011 0.103Zm6.693 0.949a1.664 1.664 0 0 1 -0.078 0.313c-0.036 0.102 -0.082 0.199 -0.138 0.292a1.638 1.638 0 0 1 -0.709 0.642 1.625 1.625 0 0 1 -0.625 0.154 1.623 1.623 0 0 1 -0.322 -0.017l-3.257 -0.616a1.659 1.659 0 0 1 -0.606 -0.216 1.699 1.699 0 0 1 -0.259 -0.193c-0.08 -0.073 -0.153 -0.153 -0.217 -0.24 -0.064 -0.087 -0.119 -0.18 -0.166 -0.278a1.651 1.651 0 0 1 -0.154 -0.624c-0.005 -0.108 0.001 -0.216 0.017 -0.323l0.436 -2.897a0.151 0.151 0 0 1 -0.059 -0.012 0.15 0.15 0 0 1 -0.05 -0.033 0.15 0.15 0 0 1 -0.033 -0.05 0.151 0.151 0 0 1 -0.012 -0.059v-2.975a0.18 0.18 0 0 1 0.111 -0.166c0.022 -0.009 0.045 -0.014 0.069 -0.014h0.205c0.047 0.006 0.087 0.025 0.121 0.059 0.033 0.033 0.053 0.073 0.058 0.12v0.462l0.513 -3.359a1.604 1.604 0 0 1 0.157 -0.484 1.609 1.609 0 0 1 0.301 -0.409 1.609 1.609 0 0 1 0.415 -0.293 1.578 1.578 0 0 1 0.238 -0.093 1.533 1.533 0 0 1 0.249 -0.054 13.638 13.638 0 0 0 -0.949 -2.949 1.951 1.951 0 0 1 -1.411 -0.897 12.312 12.312 0 0 0 -0.892 -1.338 12.305 12.305 0 0 0 -1.059 -1.21 12.313 12.313 0 0 0 -2.545 -1.955 12.304 12.304 0 0 0 -1.441 -0.712 12.258 12.258 0 0 0 -3.099 -0.831 12.246 12.246 0 0 0 -3.209 0 12.218 12.218 0 0 0 -1.577 0.313 12.308 12.308 0 0 0 -2.965 1.229 12.312 12.312 0 0 0 -1.337 0.894 12.306 12.306 0 0 0 -2.267 2.27 12.231 12.231 0 0 0 -0.893 1.338 1.968 1.968 0 0 1 -0.989 0.816 1.969 1.969 0 0 1 -0.421 0.107 13.212 13.212 0 0 0 -0.949 2.898 1.62 1.62 0 0 1 0.909 0.152 1.627 1.627 0 0 1 0.493 0.374c0.069 0.078 0.131 0.161 0.184 0.251a1.616 1.616 0 0 1 0.209 0.583l0.513 3.359v-0.256c0.007 -0.045 0.027 -0.082 0.061 -0.111 0.034 -0.029 0.074 -0.043 0.119 -0.043h0.206c0.045 0 0.084 0.014 0.119 0.043 0.034 0.029 0.054 0.066 0.061 0.111v2.564a0.18 0.18 0 0 1 -0.111 0.166c-0.022 0.01 -0.045 0.014 -0.069 0.014l0.461 3a1.627 1.627 0 0 1 -0.029 0.642 1.636 1.636 0 0 1 -0.274 0.582 1.644 1.644 0 0 1 -0.217 0.239c-0.08 0.073 -0.166 0.137 -0.259 0.192 -0.093 0.056 -0.19 0.102 -0.292 0.138a1.681 1.681 0 0 1 -0.314 0.078l-3.257 0.513c-0.107 0.017 -0.215 0.022 -0.323 0.017a1.613 1.613 0 0 1 -0.32 -0.047 1.638 1.638 0 0 1 -0.582 -0.274 1.621 1.621 0 0 1 -0.24 -0.217 1.606 1.606 0 0 1 -0.193 -0.259 1.612 1.612 0 0 1 -0.138 -0.292 1.63 1.63 0 0 1 -0.078 -0.314l-1.359 -8.848a1.623 1.623 0 0 1 -0.017 -0.322c0.005 -0.108 0.02 -0.215 0.046 -0.32a1.623 1.623 0 0 1 0.274 -0.582 1.623 1.623 0 0 1 0.217 -0.24 1.633 1.633 0 0 1 0.552 -0.331 1.664 1.664 0 0 1 0.314 -0.078l1.333 -0.205a15.331 15.331 0 0 1 1.129 -3.924 1.882 1.882 0 0 1 -0.237 -0.502 1.884 1.884 0 0 1 0 -1.098 1.882 1.882 0 0 1 0.236 -0.502 16.181 16.181 0 0 1 1.841 -2.574 16.04 16.04 0 0 1 1.492 -1.494 16.001 16.001 0 0 1 0.816 -0.671 16.185 16.185 0 0 1 1.755 -1.174c0.305 -0.177 0.616 -0.343 0.931 -0.498a15.858 15.858 0 0 1 0.962 -0.436 15.859 15.859 0 0 1 0.989 -0.372 15.781 15.781 0 0 1 1.011 -0.307c0.34 -0.092 0.683 -0.172 1.029 -0.24a15.867 15.867 0 0 1 1.042 -0.172 16.031 16.031 0 0 1 2.107 -0.138c0.353 0 0.704 0.011 1.056 0.034a16.339 16.339 0 0 1 1.051 0.104c0.35 0.046 0.697 0.103 1.043 0.172 0.345 0.068 0.688 0.148 1.029 0.24 0.34 0.091 0.677 0.193 1.011 0.307 0.334 0.113 0.663 0.237 0.989 0.372a16.026 16.026 0 0 1 1.894 0.934 16.185 16.185 0 0 1 1.755 1.174 16.001 16.001 0 0 1 0.816 0.671 16.332 16.332 0 0 1 0.77 0.722 16.256 16.256 0 0 1 1.391 1.589 16.177 16.177 0 0 1 1.172 1.757c0.098 0.161 0.169 0.333 0.214 0.516a1.834 1.834 0 0 1 0.051 0.556 1.822 1.822 0 0 1 -0.118 0.546 1.822 1.822 0 0 1 -0.275 0.486 15.041 15.041 0 0 1 1.128 3.847l1.796 0.282c0.107 0.016 0.211 0.042 0.313 0.078 0.102 0.036 0.199 0.082 0.292 0.138 0.093 0.055 0.179 0.12 0.259 0.193 0.08 0.073 0.153 0.153 0.217 0.24 0.064 0.087 0.12 0.179 0.166 0.277 0.046 0.098 0.082 0.2 0.108 0.305 0.026 0.105 0.041 0.212 0.046 0.32a1.623 1.623 0 0 1 -0.017 0.322Zm0 0"/></g><path fill="#2f2f2f" d="M32.769 64.615c-0.622 0 -1.027 -0.263 -1.218 -0.789L23.658 45.602c-0.095 -0.192 -0.24 -0.288 -0.431 -0.288h-3.013c-0.24 0 -0.36 0.12 -0.36 0.36v17.866c0 0.334 -0.095 0.597 -0.286 0.789 -0.191 0.191 -0.454 0.286 -0.789 0.286H7.442c-0.334 0 -0.597 -0.095 -0.789 -0.286 -0.191 -0.192 -0.286 -0.455 -0.286 -0.789v-48.072c0 -0.335 0.095 -0.598 0.286 -0.789 0.192 -0.191 0.455 -0.286 0.789 -0.286h21.739c3.252 0 6.111 0.67 8.574 2.009 2.463 1.339 4.376 3.215 5.74 5.63 1.363 2.416 2.045 5.202 2.045 8.36 0 3.156 -0.778 5.918 -2.334 8.286 -1.554 2.368 -3.694 4.102 -6.419 5.201 -0.24 0.097 -0.312 0.265 -0.214 0.503l9.11 18.941c0.095 0.288 0.143 0.455 0.143 0.503 0 0.238 -0.095 0.43 -0.286 0.574 -0.191 0.143 -0.43 0.215 -0.717 0.215Zm-12.555 -38.67c-0.24 0 -0.36 0.119 -0.36 0.358v8.395c0 0.238 0.12 0.358 0.36 0.358h6.743c1.53 0 2.773 -0.418 3.73 -1.254 0.957 -0.837 1.435 -1.926 1.435 -3.266 0 -1.387 -0.479 -2.499 -1.435 -3.335 -0.957 -0.837 -2.2 -1.256 -3.73 -1.256Zm64.859 -1.077c0 0.336 -0.097 0.6 -0.288 0.791 -0.191 0.191 -0.453 0.286 -0.787 0.286H62.544c-0.24 0 -0.36 0.119 -0.36 0.358v6.743c0 0.24 0.12 0.36 0.36 0.36h13.272c0.335 0 0.598 0.096 0.789 0.288 0.192 0.191 0.288 0.453 0.288 0.787v9.327c0 0.336 -0.096 0.6 -0.288 0.791 -0.191 0.191 -0.454 0.286 -0.789 0.286h-13.272c-0.24 0 -0.36 0.119 -0.36 0.357v7.463c0 0.238 0.12 0.358 0.36 0.358h21.453c0.334 0 0.596 0.097 0.787 0.288 0.192 0.191 0.288 0.454 0.288 0.789v9.399c0 0.334 -0.097 0.597 -0.288 0.789 -0.191 0.191 -0.453 0.286 -0.787 0.286H49.773c-0.334 0 -0.597 -0.095 -0.789 -0.286 -0.191 -0.192 -0.286 -0.455 -0.286 -0.789v-48.072c0 -0.335 0.095 -0.598 0.286 -0.789 0.192 -0.191 0.455 -0.286 0.789 -0.286h34.225c0.334 0 0.596 0.095 0.787 0.286 0.192 0.191 0.288 0.454 0.288 0.789Zm21.739 40.322c-4.018 0 -7.534 -0.658 -10.548 -1.974 -3.013 -1.316 -5.346 -3.193 -6.996 -5.633 -1.649 -2.439 -2.474 -5.261 -2.474 -8.464v-1.006c0 -0.334 0.095 -0.596 0.286 -0.787 0.192 -0.192 0.456 -0.288 0.791 -0.288h11.12c0.335 0 0.598 0.097 0.789 0.288 0.192 0.191 0.288 0.453 0.288 0.787v0.431c0 1.34 0.706 2.524 2.117 3.552 1.411 1.029 3.288 1.542 5.63 1.542 1.77 0 3.037 -0.37 3.802 -1.111 0.766 -0.742 1.149 -1.567 1.149 -2.477 0 -1.052 -0.478 -1.841 -1.435 -2.367 -0.957 -0.526 -2.703 -1.172 -5.237 -1.938l-2.081 -0.574c-4.736 -1.435 -8.706 -3.348 -11.911 -5.74 -3.204 -2.391 -4.805 -5.859 -4.805 -10.402 0 -3.013 0.813 -5.679 2.439 -8 1.627 -2.32 3.864 -4.101 6.71 -5.344 2.846 -1.244 6.038 -1.866 9.578 -1.866 3.731 0 7.115 0.694 10.152 2.081 3.037 1.387 5.428 3.349 7.175 5.883 1.746 2.535 2.62 5.429 2.62 8.681v0.646c0 0.334 -0.097 0.597 -0.288 0.789 -0.191 0.191 -0.454 0.286 -0.789 0.286h-11.12c-0.336 0 -0.6 -0.095 -0.791 -0.286 -0.191 -0.192 -0.286 -0.455 -0.286 -0.789v-0.072c0 -1.435 -0.646 -2.738 -1.938 -3.909 -1.291 -1.173 -3.036 -1.759 -5.237 -1.759 -1.53 0 -2.738 0.311 -3.623 0.932 -0.885 0.621 -1.328 1.483 -1.328 2.584 0 0.86 0.323 1.589 0.968 2.188 0.647 0.598 1.64 1.172 2.98 1.721 1.34 0.55 3.396 1.256 6.169 2.117 0.383 0.143 2.069 0.657 5.058 1.542 2.99 0.886 5.49 2.488 7.499 4.808 2.008 2.32 3.013 5.13 3.013 8.429 0 3.205 -0.814 5.968 -2.441 8.288 -1.626 2.32 -3.897 4.102 -6.815 5.347 -2.918 1.243 -6.314 1.864 -10.188 1.864Zm41.829 0.286c-3.971 0 -7.475 -0.801 -10.512 -2.403 -3.037 -1.602 -5.393 -3.85 -7.068 -6.744 -1.673 -2.894 -2.51 -6.254 -2.51 -10.081v-13.489c0 -3.731 0.837 -7.032 2.51 -9.902 1.675 -2.87 4.031 -5.094 7.068 -6.672C141.166 14.607 144.67 13.818 148.641 13.818c4.017 0 7.544 0.789 10.581 2.367 3.038 1.578 5.394 3.802 7.068 6.672 1.674 2.87 2.512 6.171 2.512 9.902v13.489c0 3.827 -0.838 7.187 -2.513 10.081 -1.673 2.894 -4.029 5.142 -7.067 6.743 -3.037 1.602 -6.564 2.403 -10.581 2.403Zm0 -11.551c2.008 0 3.622 -0.657 4.841 -1.971 1.22 -1.316 1.831 -3.074 1.831 -5.275v-14.061c0 -2.201 -0.61 -3.958 -1.831 -5.273 -1.219 -1.316 -2.833 -1.974 -4.841 -1.974 -1.961 0 -3.551 0.658 -4.772 1.974 -1.219 1.315 -1.828 3.072 -1.828 5.273v14.061c0 2.201 0.609 3.959 1.828 5.275 1.22 1.315 2.811 1.971 4.772 1.971Zm42.69 11.265c-3.875 0 -7.307 -0.741 -10.297 -2.224 -2.989 -1.483 -5.298 -3.587 -6.925 -6.314 -1.626 -2.727 -2.439 -5.884 -2.439 -9.47V15.468c0 -0.335 0.095 -0.598 0.286 -0.789 0.192 -0.191 0.456 -0.286 0.791 -0.286h11.337c0.334 0 0.596 0.095 0.787 0.286 0.192 0.191 0.288 0.454 0.288 0.789v31.712c0 1.961 0.561 3.528 1.685 4.701 1.125 1.172 2.62 1.757 4.486 1.757 1.816 0 3.286 -0.597 4.41 -1.793 1.125 -1.197 1.688 -2.751 1.688 -4.665V15.468c0 -0.335 0.095 -0.598 0.286 -0.789 0.192 -0.191 0.455 -0.286 0.789 -0.286h11.337c0.335 0 0.598 0.095 0.789 0.286 0.192 0.191 0.288 0.454 0.288 0.789v31.712c0 3.587 -0.814 6.744 -2.441 9.47 -1.626 2.727 -3.921 4.832 -6.886 6.314 -2.965 1.483 -6.385 2.224 -10.259 2.224Zm49.503 -0.574c-0.622 0 -1.027 -0.263 -1.218 -0.789l-7.892 -18.223c-0.095 -0.192 -0.24 -0.288 -0.431 -0.288h-3.013c-0.24 0 -0.36 0.12 -0.36 0.36v17.866c0 0.334 -0.095 0.597 -0.286 0.789 -0.191 0.191 -0.454 0.286 -0.789 0.286h-11.337c-0.334 0 -0.597 -0.095 -0.789 -0.286 -0.191 -0.192 -0.286 -0.455 -0.286 -0.789v-48.072c0 -0.335 0.095 -0.598 0.286 -0.789 0.192 -0.191 0.455 -0.286 0.789 -0.286h21.739c3.252 0 6.111 0.67 8.574 2.009 2.463 1.339 4.376 3.215 5.74 5.63 1.363 2.416 2.045 5.202 2.045 8.36 0 3.156 -0.778 5.918 -2.334 8.286 -1.554 2.368 -3.694 4.102 -6.419 5.201 -0.24 0.097 -0.312 0.265 -0.214 0.503l9.11 18.941c0.095 0.288 0.143 0.455 0.143 0.503 0 0.238 -0.095 0.43 -0.286 0.574 -0.191 0.143 -0.43 0.215 -0.717 0.215Zm-12.555 -38.67c-0.24 0 -0.36 0.119 -0.36 0.358v8.395c0 0.238 0.12 0.358 0.36 0.358h6.743c1.53 0 2.773 -0.418 3.73 -1.254 0.957 -0.837 1.435 -1.926 1.435 -3.266 0 -1.387 -0.479 -2.499 -1.435 -3.335 -0.957 -0.837 -2.2 -1.256 -3.73 -1.256Zm47.639 39.245c-3.922 0 -7.378 -0.765 -10.367 -2.296 -2.989 -1.532 -5.31 -3.696 -6.96 -6.493 -1.65 -2.798 -2.474 -6.039 -2.474 -9.723v-14.493c0 -3.634 0.825 -6.839 2.474 -9.613 1.651 -2.775 3.971 -4.927 6.96 -6.457 2.989 -1.53 6.444 -2.296 10.367 -2.296 3.922 0 7.378 0.717 10.367 2.153 2.99 1.435 5.311 3.456 6.96 6.064 1.651 2.606 2.477 5.631 2.477 9.075 0 0.431 -0.359 0.694 -1.077 0.789l-11.337 0.717h-0.215c-0.574 0 -0.86 -0.263 -0.86 -0.789 0 -1.961 -0.575 -3.527 -1.723 -4.698 -1.148 -1.173 -2.678 -1.759 -4.591 -1.759 -1.914 0 -3.444 0.586 -4.591 1.759 -1.148 1.172 -1.721 2.738 -1.721 4.698v15.425c0 1.913 0.573 3.456 1.721 4.629 1.147 1.172 2.677 1.757 4.591 1.757 1.913 0 3.443 -0.585 4.591 -1.757 1.149 -1.173 1.723 -2.715 1.723 -4.629 0 -0.287 0.095 -0.503 0.286 -0.646 0.192 -0.143 0.455 -0.191 0.789 -0.143l11.337 0.575c0.718 0.048 1.077 0.287 1.077 0.717 0 3.444 -0.826 6.481 -2.477 9.113 -1.649 2.631 -3.97 4.674 -6.96 6.133 -2.989 1.459 -6.445 2.188 -10.367 2.188Zm59.12 -40.322c0 0.336 -0.097 0.6 -0.288 0.791 -0.191 0.191 -0.453 0.286 -0.787 0.286h-21.453c-0.24 0 -0.36 0.119 -0.36 0.358v6.743c0 0.24 0.12 0.36 0.36 0.36h13.272c0.335 0 0.598 0.096 0.789 0.288 0.192 0.191 0.288 0.453 0.288 0.787v9.327c0 0.336 -0.097 0.6 -0.288 0.791 -0.191 0.191 -0.454 0.286 -0.789 0.286h-13.272c-0.24 0 -0.36 0.119 -0.36 0.357v7.463c0 0.238 0.12 0.358 0.36 0.358h21.453c0.334 0 0.596 0.097 0.787 0.288 0.192 0.191 0.288 0.454 0.288 0.789v9.399c0 0.334 -0.096 0.597 -0.288 0.789 -0.191 0.191 -0.453 0.286 -0.787 0.286h-34.225c-0.334 0 -0.597 -0.095 -0.789 -0.286 -0.191 -0.192 -0.286 -0.455 -0.286 -0.789v-48.072c0 -0.335 0.095 -0.598 0.286 -0.789 0.192 -0.191 0.455 -0.286 0.789 -0.286h34.225c0.334 0 0.596 0.095 0.787 0.286 0.192 0.191 0.288 0.454 0.288 0.789Zm0 0"/></svg>