<svg xmlns="http://www.w3.org/2000/svg" version="1.0" viewBox="0 0 500 215.909" width="500" height="215.909"><defs><clipPath id="a"><path d="M430.2 120.962h8.388v13.462h-8.388Zm0 0"/></clipPath><clipPath id="b"><path d="M434.393 120.962c-2.316 0 -4.194 3.013 -4.194 6.731 0 3.717 1.877 6.731 4.194 6.731 2.317 0 4.194 -3.014 4.194 -6.731 0 -3.718 -1.877 -6.731 -4.194 -6.731"/></clipPath><clipPath id="c"><path d="M450.28 121.478h8.744v12.701h-8.744Zm0 0"/></clipPath><clipPath id="d"><path d="M454.652 121.478c-2.415 0 -4.372 2.844 -4.372 6.351 0 3.507 1.957 6.35 4.372 6.35s4.372 -2.844 4.372 -6.35c0 -3.507 -1.957 -6.351 -4.372 -6.351"/></clipPath><clipPath id="e"><path d="M433.987 122.247h8.388v11.162h-8.388Zm0 0"/></clipPath><clipPath id="f"><path d="M438.182 122.247c-2.317 0 -4.194 2.499 -4.194 5.581 0 3.082 1.877 5.581 4.194 5.581 2.316 0 4.194 -2.499 4.194 -5.581 0 -3.083 -1.877 -5.581 -4.194 -5.581"/></clipPath><clipPath id="g"><path d="M447.007 123.398h8.388v10.012h-8.388Zm0 0"/></clipPath><clipPath id="h"><path d="M451.202 123.398c-2.316 0 -4.194 2.241 -4.194 5.006s1.879 5.006 4.194 5.006c2.316 0 4.194 -2.241 4.194 -5.006s-1.877 -5.006 -4.194 -5.006"/></clipPath><clipPath id="i"><path d="M443.076 121.386h11.575v10.012h-11.575Zm0 0"/></clipPath><clipPath id="j"><path d="M448.864 121.386c-3.196 0 -5.787 2.241 -5.787 5.006s2.591 5.006 5.787 5.006c3.197 0 5.788 -2.241 5.788 -5.006s-2.591 -5.006 -5.788 -5.006"/></clipPath><clipPath id="k"><path d="M433.987 121.386h11.576v10.012h-11.577Zm0 0"/></clipPath><clipPath id="l"><path d="M439.776 121.386c-3.197 0 -5.788 2.241 -5.788 5.006s2.592 5.006 5.788 5.006c3.196 0 5.788 -2.241 5.788 -5.006s-2.592 -5.006 -5.788 -5.006"/></clipPath><clipPath id="m"><path d="M436.913 125.604H452.569v15.606h-15.656Zm0 0"/></clipPath><clipPath id="n"><path d="m436.958 133.41 7.793 -7.793 7.793 7.793 -7.793 7.793Zm0 0"/></clipPath><clipPath id="o"><path d="m436.958 133.41 7.793 -7.793 7.793 7.793 -7.793 7.793Zm0 0"/></clipPath><clipPath id="p"><path d="M140.097 7.123h100.132V104.304H140.097Zm0 0"/></clipPath></defs><path fill="#2f2f2f" d="m351.196 159.488 -5.69 -13.138c-0.07 -0.137 -0.173 -0.206 -0.31 -0.206h-2.172c-0.173 0 -0.258 0.087 -0.258 0.258v12.879c0 0.242 -0.069 0.431 -0.207 0.568 -0.137 0.137 -0.329 0.207 -0.569 0.207h-8.174c-0.242 0 -0.43 -0.07 -0.568 -0.207 -0.139 -0.137 -0.207 -0.328 -0.207 -0.568v-34.655c0 -0.24 0.069 -0.431 0.207 -0.568 0.137 -0.137 0.328 -0.207 0.568 -0.207h15.671c2.345 0 4.405 0.483 6.181 1.449 1.775 0.965 3.155 2.319 4.138 4.061 0.983 1.74 1.474 3.75 1.474 6.026 0 2.276 -0.562 4.267 -1.68 5.974 -1.121 1.707 -2.664 2.958 -4.629 3.749 -0.172 0.069 -0.225 0.19 -0.155 0.362l6.57 13.654c0.069 0.207 0.104 0.328 0.104 0.362 0 0.172 -0.07 0.31 -0.207 0.413 -0.139 0.104 -0.31 0.155 -0.517 0.155h-8.69c-0.449 0 -0.741 -0.189 -0.88 -0.568Zm-8.431 -27.051v6.052c0 0.172 0.085 0.258 0.258 0.258h4.863c1.102 0 1.999 -0.301 2.688 -0.905 0.69 -0.603 1.035 -1.389 1.035 -2.355 0 -0.965 -0.346 -1.801 -1.035 -2.405 -0.69 -0.602 -1.586 -0.905 -2.688 -0.905h-4.863c-0.173 0 -0.258 0.087 -0.258 0.258Zm46.808 -0.467c-0.139 0.139 -0.328 0.207 -0.569 0.207h-15.464c-0.173 0 -0.258 0.087 -0.258 0.258v4.863c0 0.173 0.086 0.258 0.258 0.258h9.569c0.24 0 0.43 0.069 0.568 0.207 0.137 0.139 0.207 0.328 0.207 0.569v6.725c0 0.242 -0.069 0.43 -0.207 0.568 -0.139 0.139 -0.328 0.207 -0.568 0.207h-9.569c-0.173 0 -0.258 0.088 -0.258 0.258v5.38c0 0.172 0.086 0.258 0.258 0.258h15.464c0.241 0 0.431 0.069 0.569 0.207 0.137 0.139 0.207 0.328 0.207 0.569v6.775c0 0.243 -0.07 0.431 -0.207 0.569 -0.139 0.139 -0.328 0.207 -0.569 0.207h-24.671c-0.242 0 -0.431 -0.07 -0.569 -0.207 -0.139 -0.137 -0.206 -0.328 -0.206 -0.569V124.626c0 -0.24 0.07 -0.431 0.206 -0.568 0.137 -0.137 0.329 -0.207 0.569 -0.207h24.671c0.241 0 0.431 0.069 0.569 0.206 0.137 0.139 0.207 0.328 0.207 0.568v6.776c0 0.243 -0.07 0.431 -0.207 0.569Zm11.846 27.905a0.72 0.72 0 0 1 -0.311 -0.491L390.92 124.73c-0.035 -0.07 -0.051 -0.155 -0.051 -0.258 0 -0.413 0.241 -0.62 0.724 -0.62h8.845c0.448 0 0.724 0.224 0.827 0.671l5.172 21.827c0.034 0.139 0.086 0.207 0.155 0.207 0.07 0 0.121 -0.07 0.155 -0.207l5.018 -21.827c0.103 -0.448 0.379 -0.671 0.826 -0.671h8.639c0.276 0 0.474 0.078 0.595 0.233 0.121 0.155 0.146 0.371 0.076 0.647l-10.293 34.655c-0.034 0.207 -0.139 0.37 -0.31 0.491a0.961 0.961 0 0 1 -0.568 0.182h-8.742a0.957 0.957 0 0 1 -0.568 -0.182Zm-50.223 40.989 -5.69 -13.137c-0.07 -0.137 -0.173 -0.207 -0.31 -0.207h-2.172c-0.173 0 -0.258 0.087 -0.258 0.258v12.879c0 0.243 -0.069 0.431 -0.207 0.569 -0.137 0.137 -0.329 0.207 -0.569 0.207h-8.174c-0.242 0 -0.43 -0.069 -0.568 -0.207 -0.139 -0.137 -0.207 -0.328 -0.207 -0.569V166.004c0 -0.24 0.069 -0.431 0.207 -0.568 0.137 -0.137 0.328 -0.207 0.568 -0.207h15.671c2.345 0 4.405 0.482 6.181 1.448 1.775 0.966 3.155 2.32 4.138 4.061 0.983 1.74 1.474 3.75 1.474 6.026 0 2.276 -0.562 4.267 -1.68 5.974 -1.121 1.707 -2.664 2.958 -4.629 3.749 -0.172 0.069 -0.225 0.19 -0.155 0.361l6.57 13.655c0.069 0.207 0.104 0.328 0.104 0.361 0 0.173 -0.07 0.31 -0.207 0.413 -0.139 0.104 -0.31 0.155 -0.517 0.155h-8.69c-0.449 0 -0.741 -0.189 -0.88 -0.569Zm-8.431 -27.051v6.051c0 0.173 0.085 0.259 0.258 0.259h4.863c1.102 0 1.999 -0.301 2.688 -0.906 0.69 -0.602 1.035 -1.388 1.035 -2.354 0 -0.966 -0.346 -1.801 -1.035 -2.405 -0.69 -0.602 -1.586 -0.905 -2.688 -0.905h-4.863c-0.173 0 -0.258 0.087 -0.258 0.258Zm46.808 -0.465c-0.139 0.139 -0.328 0.207 -0.569 0.207h-15.464c-0.173 0 -0.258 0.088 -0.258 0.258v4.863c0 0.173 0.086 0.258 0.258 0.258h9.569c0.24 0 0.43 0.07 0.568 0.207 0.137 0.139 0.207 0.328 0.207 0.569v6.724c0 0.243 -0.069 0.431 -0.207 0.569 -0.139 0.139 -0.328 0.207 -0.568 0.207h-9.569c-0.173 0 -0.258 0.087 -0.258 0.258v5.38c0 0.172 0.086 0.258 0.258 0.258h15.464c0.241 0 0.431 0.07 0.569 0.207 0.137 0.139 0.207 0.328 0.207 0.568v6.776c0 0.243 -0.07 0.431 -0.207 0.569 -0.139 0.139 -0.328 0.207 -0.569 0.207h-24.671c-0.242 0 -0.431 -0.069 -0.569 -0.207 -0.139 -0.137 -0.206 -0.328 -0.206 -0.569V166.002c0 -0.24 0.07 -0.431 0.206 -0.569 0.137 -0.137 0.329 -0.207 0.569 -0.207h24.671c0.241 0 0.431 0.07 0.569 0.207 0.137 0.139 0.207 0.329 0.207 0.569v6.776c0 0.243 -0.07 0.431 -0.207 0.569Zm25.758 9.57c1.552 0.862 2.689 1.965 3.414 3.311 0.724 1.345 1.088 2.966 1.088 4.862 0 3.551 -1.242 6.164 -3.724 7.837 -2.482 1.673 -5.708 2.509 -9.672 2.509h-13.914c-0.243 0 -0.431 -0.07 -0.569 -0.207 -0.139 -0.137 -0.207 -0.328 -0.207 -0.568v-34.655c0 -0.24 0.068 -0.43 0.207 -0.568 0.137 -0.137 0.328 -0.207 0.569 -0.207h13.447c4.414 0 7.734 0.784 9.957 2.354 2.224 1.57 3.336 4.198 3.336 7.888 0 3.277 -1.311 5.655 -3.931 7.138 -0.139 0.103 -0.139 0.207 0 0.31Zm-13.861 -9.103v5.172c0 0.173 0.086 0.259 0.258 0.259h4.241c2.516 0 3.776 -0.949 3.776 -2.846 0 -1.897 -1.26 -2.845 -3.776 -2.845h-4.241c-0.172 0 -0.258 0.088 -0.258 0.258Zm8.639 16.242c0 -1.932 -1.209 -2.898 -3.621 -2.898h-4.76c-0.172 0 -0.258 0.088 -0.258 0.258v5.431c0 0.173 0.086 0.258 0.258 0.258h4.707c2.449 0 3.673 -1.017 3.673 -3.053Zm38.169 -16.708c-0.139 0.139 -0.327 0.207 -0.568 0.207h-15.465c-0.172 0 -0.258 0.088 -0.258 0.258v4.863c0 0.173 0.086 0.258 0.258 0.258h9.568c0.24 0 0.431 0.07 0.569 0.207 0.137 0.139 0.207 0.328 0.207 0.569v6.724c0 0.243 -0.07 0.431 -0.207 0.569 -0.139 0.139 -0.329 0.207 -0.569 0.207h-9.568c-0.172 0 -0.258 0.087 -0.258 0.258v5.38c0 0.172 0.086 0.258 0.258 0.258h15.465c0.24 0 0.431 0.07 0.568 0.207 0.137 0.139 0.207 0.328 0.207 0.568v6.776c0 0.243 -0.069 0.431 -0.207 0.569 -0.139 0.139 -0.328 0.207 -0.568 0.207h-24.671c-0.243 0 -0.431 -0.069 -0.569 -0.207 -0.139 -0.137 -0.206 -0.328 -0.206 -0.569V166.002c0 -0.24 0.068 -0.431 0.206 -0.569 0.137 -0.137 0.328 -0.207 0.569 -0.207h24.671c0.24 0 0.431 0.07 0.568 0.207 0.137 0.139 0.207 0.329 0.207 0.569v6.776c0 0.243 -0.069 0.431 -0.207 0.569Zm2.38 27.878c-0.139 -0.137 -0.207 -0.328 -0.207 -0.569V166.004c0 -0.24 0.068 -0.431 0.207 -0.568 0.137 -0.137 0.328 -0.207 0.568 -0.207h8.172c0.24 0 0.43 0.07 0.568 0.207 0.137 0.139 0.207 0.328 0.207 0.568v26.845c0 0.173 0.086 0.258 0.259 0.258h15.983c0.24 0 0.431 0.07 0.569 0.207 0.137 0.139 0.207 0.328 0.207 0.568v6.776c0 0.243 -0.069 0.431 -0.207 0.569 -0.139 0.139 -0.329 0.207 -0.569 0.207h-25.19c-0.242 0 -0.43 -0.069 -0.568 -0.207Zm29.145 -0.748c-0.914 -0.914 -1.371 -2.078 -1.371 -3.491 0 -1.413 0.456 -2.619 1.371 -3.517 0.912 -0.896 2.078 -1.346 3.49 -1.346 1.413 0 2.577 0.449 3.491 1.346 0.912 0.895 1.37 2.068 1.37 3.517 0 1.449 -0.465 2.534 -1.397 3.466 -0.931 0.931 -2.087 1.397 -3.466 1.397 -1.379 0 -2.578 -0.457 -3.49 -1.37Zm-71.73 -99.238c0 -0.711 -0.364 -1.067 -1.091 -1.067h-1.424v5.919h1.424c0.727 0 1.091 -0.355 1.091 -1.067Zm-6.351 -4.368h5.74c1.372 0 2.451 0.331 3.239 0.991 0.787 0.659 1.18 1.632 1.18 2.92v4.697c0 1.288 -0.394 2.263 -1.18 2.923 -0.787 0.659 -1.866 0.988 -3.239 0.988h-1.904v5.081h-3.836Zm19.153 4.495c0 -0.846 -0.504 -1.27 -1.513 -1.27 -1.007 0 -1.51 0.424 -1.51 1.27v8.612c0 0.847 0.503 1.27 1.51 1.27 1.009 0 1.513 -0.423 1.513 -1.27Zm-6.835 -0.202c0 -1.388 0.448 -2.493 1.345 -3.314 0.899 -0.821 2.22 -1.232 3.963 -1.232 1.745 0 3.071 0.411 3.977 1.232 0.906 0.822 1.359 1.926 1.359 3.314v9.017c0 1.389 -0.453 2.494 -1.359 3.314 -0.906 0.822 -2.232 1.232 -3.977 1.232 -1.743 0 -3.064 -0.41 -3.963 -1.232 -0.897 -0.821 -1.345 -1.926 -1.345 -3.314Zm23.825 -4.292h3.277l-2.336 17.601h-3.404l-1.043 -6.958 -0.559 -4.852c-0.136 1.879 -0.305 3.495 -0.508 4.852l-1.064 6.958h-3.634l-2.261 -17.601h3.328c0.643 4.623 0.997 7.324 1.064 8.104 0.069 0.778 0.129 1.625 0.182 2.539 0.254 -2.338 0.677 -5.885 1.269 -10.643h3.225l1.194 10.465c0.084 -1.695 0.228 -3.253 0.432 -4.673Zm5.18 0h8.917v3.301h-5.105v3.733h4.419v3.304h-4.419v3.963h5.105v3.301h-8.917Zm15.14 11.25v6.351h-3.812v-17.601h5.74c1.388 0 2.471 0.331 3.249 0.991 0.78 0.659 1.17 1.623 1.17 2.892v3.253c0 2.031 -0.695 3.301 -2.083 3.809l2.769 6.656h-4.189l-2.364 -6.351Zm0 -8.001v4.978h1.496c0.391 0 0.662 -0.084 0.813 -0.254 0.153 -0.169 0.23 -0.465 0.23 -0.889v-2.868c0 -0.372 -0.085 -0.626 -0.254 -0.762 -0.17 -0.137 -0.432 -0.206 -0.789 -0.206Zm9.065 -3.249h8.917v3.301h-5.105v3.733h4.419v3.304h-4.419v3.963h5.105v3.301h-8.917Zm18.008 4.062c0 -0.304 -0.072 -0.536 -0.216 -0.697 -0.144 -0.162 -0.419 -0.244 -0.823 -0.244h-1.829v11.202h1.829c0.693 0 1.04 -0.389 1.04 -1.17Zm-6.68 -4.062h6.173c1.372 0 2.434 0.331 3.187 0.991 0.755 0.659 1.132 1.632 1.132 2.92v9.549c0 2.761 -1.364 4.141 -4.09 4.141h-6.402Zm-2.54 29.345v1.65c0 1.643 -0.6 2.65 -1.801 3.023 1.304 0.305 1.956 1.32 1.956 3.047v1.805c0 2.692 -1.44 4.038 -4.32 4.038h-6.173v-17.601h6.022c2.877 0 4.316 1.347 4.316 4.038Zm-4.951 -0.841h-1.575v3.836h1.575c0.796 0 1.194 -0.364 1.194 -1.091v-1.65c0 -0.729 -0.398 -1.094 -1.194 -1.094Zm1.345 10.111v-1.805c0 -0.727 -0.398 -1.091 -1.194 -1.091h-1.726v3.987h1.726c0.796 0 1.194 -0.364 1.194 -1.091Zm13.335 4.292h-3.863v-5.462l-4.189 -12.139h3.911l0.837 2.666c0.66 2.084 1.135 3.93 1.424 5.538 0.323 -1.642 0.805 -3.505 1.448 -5.589l0.813 -2.614h3.809l-4.19 12.139Zm0 0"/><g clip-path="url(#a)"><g clip-path="url(#b)"><path fill="#fff" d="M430.2 120.962h8.388v13.462h-8.388Zm0 0"/></g></g><g clip-path="url(#c)"><g clip-path="url(#d)"><path fill="#fff" d="M450.28 121.478h8.744v12.701h-8.744Zm0 0"/></g></g><g clip-path="url(#e)"><g clip-path="url(#f)"><path fill="#fafafa" d="M433.987 122.247h8.388v11.162h-8.388Zm0 0"/></g></g><g clip-path="url(#g)"><g clip-path="url(#h)"><path fill="#fafafa" d="M447.007 123.398h8.388v10.012h-8.388Zm0 0"/></g></g><g clip-path="url(#i)"><g clip-path="url(#j)"><path fill="#fafafa" d="M443.076 121.386h11.575v10.012h-11.575Zm0 0"/></g></g><g clip-path="url(#k)"><g clip-path="url(#l)"><path fill="#fafafa" d="M433.987 121.386h11.576v10.012h-11.576Zm0 0"/></g></g><g clip-path="url(#m)"><g clip-path="url(#n)"><g clip-path="url(#o)"><path fill="#fafafa" d="m436.958 133.41 7.793 -7.793 7.793 7.793 -7.793 7.793Zm0 0"/></g></g></g><path fill="#2f2f2f" d="M434.029 119.984c-0.269 0.058 -0.69 0.237 -0.925 0.393 -0.241 0.165 -0.785 0.731 -1.181 1.227 -0.836 1.049 -1.573 2.674 -1.847 4.086 -0.099 0.51 -0.109 0.695 -0.105 1.842 0 1.2 0.009 1.313 0.128 1.875 0.392 1.842 1.309 3.566 2.584 4.847 0.648 0.647 1.45 0.916 2.258 0.756 0.486 -0.094 0.808 -0.245 1.162 -0.529l0.274 -0.227 3.576 3.567c3.879 3.874 3.765 3.774 4.384 3.859 0.349 0.048 0.761 -0.019 1.072 -0.17 0.189 -0.099 0.993 -0.869 3.812 -3.689l3.572 -3.567 0.302 0.232c0.642 0.486 1.323 0.661 2.032 0.52 0.732 -0.142 1.176 -0.449 1.898 -1.304 1.002 -1.191 1.786 -2.825 2.06 -4.285 0.547 -2.915 -0.105 -5.617 -1.909 -7.932 -0.444 -0.572 -1.04 -1.119 -1.399 -1.29 -0.987 -0.462 -2.101 -0.269 -2.872 0.497l-0.302 0.302 -0.331 -0.147c-0.916 -0.411 -1.573 -0.581 -2.574 -0.661 -1.734 -0.146 -3.52 0.397 -5.036 1.531 -0.033 0.023 -0.222 -0.076 -0.515 -0.274 -1.252 -0.85 -2.637 -1.27 -4.143 -1.27 -1.072 0.004 -1.927 0.179 -2.924 0.609l-0.491 0.208 -0.288 -0.297c-0.321 -0.326 -0.818 -0.601 -1.247 -0.69 -0.241 -0.053 -0.831 -0.062 -1.025 -0.02Zm0.95 2.004c0.085 0.08 0.166 0.217 0.184 0.307 0.056 0.307 -0.015 0.477 -0.35 0.841 -0.373 0.401 -0.893 1.172 -1.096 1.62 -0.547 1.214 -0.685 2.173 -0.538 3.755 0.033 0.364 0.354 1.389 0.509 1.644 0.058 0.089 0.1 0.17 0.09 0.179 -0.014 0.014 0.189 0.392 0.373 0.694 0.123 0.194 0.69 0.903 0.926 1.148 0.094 0.094 0.127 0.383 0.066 0.581 -0.104 0.35 -0.581 0.563 -0.893 0.401 -0.081 -0.042 -0.331 -0.279 -0.553 -0.529 -0.534 -0.604 -0.845 -1.076 -1.303 -2.003 -0.124 -0.255 -0.407 -1.2 -0.516 -1.724 -0.123 -0.599 -0.141 -2.05 -0.028 -2.645 0.038 -0.208 0.081 -0.434 0.094 -0.509 0.085 -0.497 0.601 -1.763 0.917 -2.268 0.51 -0.793 1.161 -1.568 1.393 -1.639 0.26 -0.075 0.553 -0.019 0.723 0.147Zm20.271 0.094c0.585 0.571 1.138 1.398 1.497 2.229 0.09 0.218 0.199 0.454 0.237 0.529 0.038 0.081 0.08 0.203 0.094 0.274 0.014 0.076 0.051 0.237 0.089 0.354 0.184 0.606 0.246 1.111 0.246 2.065 0 0.727 -0.019 1.034 -0.085 1.347 -0.166 0.774 -0.388 1.455 -0.633 1.937 -0.085 0.17 -0.156 0.321 -0.156 0.345 0 0.019 -0.179 0.307 -0.397 0.637 -0.481 0.727 -1.086 1.351 -1.359 1.403 -0.218 0.042 -0.553 -0.113 -0.667 -0.307 -0.09 -0.147 -0.104 -0.449 -0.038 -0.624 0.023 -0.062 0.217 -0.311 0.43 -0.558 0.336 -0.392 0.897 -1.214 0.897 -1.313 0 -0.019 0.047 -0.119 0.099 -0.222 0.25 -0.468 0.492 -1.408 0.558 -2.187 0.028 -0.312 0.042 -0.6 0.033 -0.633 -0.015 -0.032 -0.034 -0.255 -0.048 -0.491 -0.032 -0.553 -0.259 -1.437 -0.501 -1.946 -0.104 -0.218 -0.189 -0.407 -0.189 -0.43 0 -0.019 -0.032 -0.076 -0.07 -0.124 -0.043 -0.051 -0.142 -0.202 -0.227 -0.34 -0.278 -0.444 -0.401 -0.614 -0.661 -0.893 -0.316 -0.345 -0.364 -0.435 -0.364 -0.68 0 -0.298 0.175 -0.567 0.401 -0.628 0.052 -0.014 0.199 -0.02 0.322 -0.014 0.203 0.015 0.255 0.042 0.491 0.269Zm-14.072 0.042c0.775 0.171 1.563 0.534 2.173 1.002 0.147 0.113 0.491 0.42 0.765 0.684l0.501 0.482 0.401 -0.406c0.973 -0.987 1.743 -1.445 2.924 -1.743 0.59 -0.146 1.79 -0.16 2.385 -0.023 1.247 0.279 2.362 0.968 3.108 1.908 0.751 0.944 1.072 1.734 1.219 2.971 0.113 1.001 -0.133 2.216 -0.633 3.109 -0.388 0.694 -0.61 0.935 -5.003 5.328l-4.407 4.403 -4.535 -4.545c-4.114 -4.128 -4.554 -4.586 -4.766 -4.935 -0.265 -0.449 -0.402 -0.775 -0.6 -1.418 -0.118 -0.387 -0.147 -0.576 -0.17 -1.124 -0.034 -0.804 0.028 -1.309 0.226 -1.937 0.43 -1.37 1.3 -2.452 2.537 -3.161 0.454 -0.264 0.855 -0.42 1.45 -0.576 0.586 -0.146 1.801 -0.16 2.424 -0.019ZM52.923 96.444c-1.05 0 -1.738 -0.444 -2.062 -1.335L37.511 64.278c-0.163 -0.322 -0.407 -0.484 -0.731 -0.484H31.682c-0.403 0 -0.604 0.202 -0.604 0.604v30.224c0 0.568 -0.163 1.014 -0.487 1.338 -0.322 0.322 -0.767 0.484 -1.334 0.484H10.076c-0.565 0 -1.011 -0.161 -1.335 -0.484 -0.323 -0.324 -0.484 -0.77 -0.484 -1.338V13.299c0 -0.567 0.161 -1.012 0.484 -1.335 0.324 -0.324 0.769 -0.487 1.335 -0.487h36.781c5.501 0 10.335 1.134 14.503 3.4 4.167 2.264 7.404 5.441 9.71 9.528 2.307 4.086 3.462 8.799 3.462 14.139 0 5.341 -1.316 10.014 -3.946 14.02 -2.631 4.006 -6.252 6.939 -10.863 8.801 -0.405 0.163 -0.527 0.446 -0.367 0.851l15.416 32.043c0.162 0.485 0.244 0.769 0.244 0.851 0 0.405 -0.163 0.729 -0.487 0.971 -0.322 0.243 -0.726 0.364 -1.211 0.364Zm-21.242 -65.423c-0.403 0 -0.604 0.202 -0.604 0.607v14.201c0 0.405 0.201 0.607 0.604 0.607h11.412c2.589 0 4.692 -0.708 6.31 -2.124 1.619 -1.418 2.429 -3.259 2.429 -5.524 0 -2.347 -0.81 -4.228 -2.429 -5.644 -1.618 -1.415 -3.721 -2.124 -6.31 -2.124Zm50.981 40.541c-0.568 0 -1.014 -0.161 -1.338 -0.484 -0.323 -0.324 -0.484 -0.77 -0.484 -1.338v-15.78c0 -0.567 0.161 -1.012 0.484 -1.334 0.324 -0.324 0.77 -0.487 1.338 -0.487H124.539c0.567 0 1.012 0.163 1.335 0.487 0.324 0.323 0.487 0.768 0.487 1.335v15.78c0 0.568 -0.163 1.014 -0.487 1.338 -0.322 0.323 -0.767 0.484 -1.334 0.484Zm-33.671 50.085c0 -0.564 0.161 -1.009 0.484 -1.331 0.324 -0.324 0.769 -0.487 1.335 -0.487h19.176c0.567 0 1.012 0.163 1.335 0.487 0.324 0.323 0.487 0.767 0.487 1.331v81.316c0 0.568 -0.163 1.014 -0.487 1.338 -0.322 0.322 -0.768 0.484 -1.335 0.484H50.81c-0.565 0 -1.01 -0.161 -1.335 -0.484 -0.323 -0.324 -0.484 -0.77 -0.484 -1.338V172.138c0 -0.405 -0.202 -0.607 -0.607 -0.607h-18.933c-0.405 0 -0.607 0.202 -0.607 0.607V202.962c0 0.568 -0.163 1.014 -0.487 1.338 -0.323 0.322 -0.768 0.484 -1.335 0.484H7.847c-0.565 0 -1.011 -0.161 -1.335 -0.484 -0.323 -0.324 -0.484 -0.77 -0.484 -1.338V121.646c0 -0.564 0.161 -1.009 0.484 -1.331 0.324 -0.324 0.769 -0.487 1.335 -0.487h19.176c0.567 0 1.012 0.163 1.335 0.487 0.324 0.323 0.487 0.767 0.487 1.331V151.383c0 0.405 0.202 0.607 0.607 0.607h18.933c0.405 0 0.607 -0.202 0.607 -0.607ZM123.265 205.755c-6.553 0 -12.358 -1.253 -17.416 -3.76 -5.057 -2.509 -8.962 -6.07 -11.714 -10.681 -2.75 -4.613 -4.124 -9.954 -4.124 -16.023V121.646c0 -0.564 0.161 -1.009 0.484 -1.331 0.324 -0.324 0.77 -0.487 1.338 -0.487h19.176c0.564 0 1.009 0.163 1.331 0.487 0.324 0.323 0.487 0.767 0.487 1.331v53.644c0 3.319 0.951 5.97 2.851 7.953 1.903 1.981 4.431 2.971 7.586 2.971 3.074 0 5.562 -1.01 7.462 -3.033 1.903 -2.024 2.855 -4.654 2.855 -7.892V121.646c0 -0.564 0.161 -1.009 0.484 -1.331 0.324 -0.324 0.77 -0.487 1.338 -0.487h19.173c0.567 0 1.012 0.163 1.335 0.487 0.324 0.323 0.487 0.767 0.487 1.331v53.644c0 6.069 -1.376 11.41 -4.128 16.023 -2.75 4.611 -6.634 8.172 -11.652 10.681 -5.016 2.507 -10.801 3.761 -17.354 3.761Zm107.776 -45.149c-0.325 0.243 -0.325 0.486 0 0.727 3.639 2.024 6.308 4.615 8.008 7.771 1.699 3.155 2.549 6.957 2.549 11.405 0 8.336 -2.913 14.465 -8.739 18.39 -5.826 3.923 -13.391 5.884 -22.697 5.884H177.516c-0.565 0 -1.011 -0.161 -1.335 -0.484 -0.323 -0.324 -0.484 -0.77 -0.484 -1.338V121.646c0 -0.564 0.161 -1.009 0.484 -1.331 0.324 -0.324 0.769 -0.487 1.335 -0.487h31.555c10.357 0 18.144 1.842 23.362 5.524 5.22 3.681 7.83 9.85 7.83 18.507 0 7.686 -3.074 13.268 -9.223 16.747ZM199.122 139.368c-0.405 0 -0.607 0.202 -0.607 0.607v12.136c0 0.405 0.202 0.607 0.607 0.607h9.95c5.906 0 8.859 -2.225 8.859 -6.677 0 -4.448 -2.953 -6.673 -8.859 -6.673Zm11.041 45.877c5.745 0 8.619 -2.386 8.619 -7.161 0 -4.531 -2.832 -6.797 -8.495 -6.797H199.122c-0.405 0 -0.607 0.202 -0.607 0.607v12.743c0 0.405 0.202 0.607 0.607 0.607Zm0 0"/><g clip-path="url(#p)"><path fill="#2f2f2f" d="M190.101 7.123a48.531 48.531 0 0 0 -2.419 0.026c-0.806 0.029 -1.611 0.076 -2.415 0.145 -0.804 0.068 -1.605 0.155 -2.404 0.264a48.636 48.636 0 0 0 -2.389 0.381 49.338 49.338 0 0 0 -2.367 0.497 49.102 49.102 0 0 0 -2.34 0.613 49.225 49.225 0 0 0 -6.8 2.515 48.913 48.913 0 0 0 -2.176 1.058 48.842 48.842 0 0 0 -2.121 1.162 49.115 49.115 0 0 0 -4.059 2.63 49.018 49.018 0 0 0 -3.782 3.014 49.484 49.484 0 0 0 -1.776 1.643 49.5 49.5 0 0 0 -3.299 3.537 49.2 49.2 0 0 0 -2.937 3.843 49.08 49.08 0 0 0 -1.324 2.024 47.872 47.872 0 0 0 -1.223 2.087 50.341 50.341 0 0 0 -1.119 2.144 49.326 49.326 0 0 0 -1.012 2.197 48.801 48.801 0 0 0 -0.904 2.244 48.567 48.567 0 0 0 -0.793 2.285 49.854 49.854 0 0 0 -0.679 2.321c-0.209 0.78 -0.396 1.564 -0.565 2.352a49.013 49.013 0 0 0 -0.782 4.773 49.35 49.35 0 0 0 -0.31 4.827 49.255 49.255 0 0 0 0.643 7.222 49.561 49.561 0 0 0 1.014 4.729 49.247 49.247 0 0 0 2.376 6.85 48.882 48.882 0 0 0 2.132 4.341 47.872 47.872 0 0 0 1.223 2.087 49.109 49.109 0 0 0 4.261 5.867 50.152 50.152 0 0 0 1.606 1.809 49.476 49.476 0 0 0 5.323 4.924 49.018 49.018 0 0 0 1.928 1.461 48.511 48.511 0 0 0 1.997 1.365 49.797 49.797 0 0 0 4.182 2.428 49.862 49.862 0 0 0 4.401 2.006 49.225 49.225 0 0 0 4.575 1.565 49.102 49.102 0 0 0 4.708 1.111 50.845 50.845 0 0 0 2.389 0.381c0.799 0.107 1.601 0.195 2.404 0.263 0.804 0.068 1.608 0.116 2.415 0.145 0.805 0.028 1.612 0.037 2.419 0.027 0.805 0.01 1.612 0.002 2.417 -0.026a49.711 49.711 0 0 0 4.818 -0.41 48.813 48.813 0 0 0 2.387 -0.381 48.286 48.286 0 0 0 2.366 -0.497 49.827 49.827 0 0 0 2.339 -0.613 49.558 49.558 0 0 0 4.574 -1.566 49.124 49.124 0 0 0 4.398 -2.007 48.651 48.651 0 0 0 2.12 -1.163 48.169 48.169 0 0 0 2.06 -1.265 47.906 47.906 0 0 0 1.996 -1.365 49.314 49.314 0 0 0 3.779 -3.015 48.681 48.681 0 0 0 1.775 -1.643 49.451 49.451 0 0 0 4.81 -5.422 49.612 49.612 0 0 0 2.742 -3.982 48.704 48.704 0 0 0 1.22 -2.087 48.85 48.85 0 0 0 1.118 -2.144 48.868 48.868 0 0 0 1.913 -4.44 50.262 50.262 0 0 0 0.791 -2.285 49.521 49.521 0 0 0 1.241 -4.673 49.507 49.507 0 0 0 0.777 -4.772 49.359 49.359 0 0 0 0.305 -4.825 49.359 49.359 0 0 0 -0.305 -4.825 50.072 50.072 0 0 0 -0.33 -2.396 49.932 49.932 0 0 0 -0.447 -2.376c-0.169 -0.788 -0.357 -1.572 -0.564 -2.352a49.834 49.834 0 0 0 -0.678 -2.321 50.262 50.262 0 0 0 -0.791 -2.285 50.13 50.13 0 0 0 -0.902 -2.243 49.311 49.311 0 0 0 -2.129 -4.341 48.704 48.704 0 0 0 -2.543 -4.111 49.157 49.157 0 0 0 -4.538 -5.652 49.451 49.451 0 0 0 -1.691 -1.728 49.458 49.458 0 0 0 -5.554 -4.658 48.755 48.755 0 0 0 -1.996 -1.365 49.056 49.056 0 0 0 -2.06 -1.265 49.797 49.797 0 0 0 -2.12 -1.163 50.815 50.815 0 0 0 -2.174 -1.058 48.72 48.72 0 0 0 -2.223 -0.949 49.924 49.924 0 0 0 -2.268 -0.84 49.547 49.547 0 0 0 -4.646 -1.34 49.311 49.311 0 0 0 -11.989 -1.313ZM174.025 73.368a0.396 0.396 0 0 1 -0.255 0.328 0.388 0.388 0 0 1 -0.143 0.026c-0.031 0.015 -0.062 0.026 -0.095 0.033a0.353 0.353 0 0 1 -0.099 0.009 0.432 0.432 0 0 1 -0.1 -0.017 0.435 0.435 0 0 1 -0.091 -0.041 0.372 0.372 0 0 1 -0.078 -0.063 0.397 0.397 0 0 1 -0.112 -0.273v-13.249c0 -0.053 0.01 -0.104 0.031 -0.152a0.394 0.394 0 0 1 0.367 -0.245c0.052 0 0.103 0.009 0.152 0.03a0.4 0.4 0 0 1 0.245 0.367Zm1.722 -1.546a0.389 0.389 0 0 1 -0.126 0.15 0.404 0.404 0 0 1 -0.183 0.071 0.389 0.389 0 0 1 -0.153 -0.031 0.394 0.394 0 0 1 -0.129 -0.086 0.405 0.405 0 0 1 -0.087 -0.129 0.404 0.404 0 0 1 -0.03 -0.153v-9.892c0 -0.053 0.01 -0.104 0.031 -0.152a0.394 0.394 0 0 1 0.367 -0.245c0.052 0 0.103 0.009 0.152 0.03a0.4 0.4 0 0 1 0.245 0.367Zm1.722 -1.766a0.292 0.292 0 0 1 -0.009 0.131 0.303 0.303 0 0 1 -0.063 0.116 0.308 0.308 0 0 1 -0.236 0.106h-0.265a0.316 0.316 0 0 1 -0.144 -0.012 0.304 0.304 0 0 1 -0.123 -0.076 0.298 0.298 0 0 1 -0.076 -0.123 0.301 0.301 0 0 1 -0.011 -0.143V63.476a0.35 0.35 0 0 1 0.103 -0.249c0.034 -0.034 0.072 -0.059 0.115 -0.077 0.044 -0.017 0.088 -0.027 0.135 -0.027h0.265c0.043 0.005 0.083 0.018 0.122 0.039 0.038 0.02 0.071 0.047 0.099 0.079a0.356 0.356 0 0 1 0.087 0.236Zm1.767 1.501a0.403 0.403 0 0 1 -0.117 0.281 0.403 0.403 0 0 1 -0.281 0.117c-0.052 0 -0.103 -0.01 -0.152 -0.031a0.385 0.385 0 0 1 -0.129 -0.086 0.405 0.405 0 0 1 -0.087 -0.129 0.404 0.404 0 0 1 -0.03 -0.153V61.974c0 -0.052 0.01 -0.103 0.03 -0.152 0.021 -0.049 0.049 -0.092 0.087 -0.129 0.037 -0.038 0.08 -0.066 0.129 -0.087a0.403 0.403 0 0 1 0.305 0 0.401 0.401 0 0 1 0.214 0.215c0.021 0.049 0.031 0.099 0.031 0.152Zm1.722 1.06c-0.006 0.049 -0.02 0.095 -0.042 0.139a0.411 0.411 0 0 1 -0.089 0.114 0.402 0.402 0 0 1 -0.267 0.1 0.455 0.455 0 0 1 -0.128 0.115c-0.051 0.029 -0.105 0.048 -0.163 0.057a0.431 0.431 0 0 1 -0.171 -0.009 0.442 0.442 0 0 1 -0.318 -0.537 0.455 0.455 0 0 1 0.074 -0.155v-11.483c0 -0.052 0.01 -0.103 0.031 -0.152 0.02 -0.049 0.049 -0.092 0.086 -0.13a0.417 0.417 0 0 1 0.129 -0.086 0.404 0.404 0 0 1 0.305 0 0.398 0.398 0 0 1 0.245 0.367Zm1.766 3.577c0 0.059 -0.011 0.115 -0.033 0.169a0.436 0.436 0 0 1 -0.239 0.239 0.44 0.44 0 0 1 -0.169 0.033 0.44 0.44 0 0 1 -0.407 -0.273 0.422 0.422 0 0 1 -0.034 -0.169v-18.858c0 -0.058 0.011 -0.115 0.034 -0.169 0.022 -0.054 0.054 -0.102 0.095 -0.143a0.44 0.44 0 0 1 0.312 -0.13 0.44 0.44 0 0 1 0.312 0.13 0.44 0.44 0 0 1 0.13 0.312Zm1.722 -3.092a0.437 0.437 0 0 1 -0.13 0.312 0.437 0.437 0 0 1 -0.312 0.13 0.44 0.44 0 0 1 -0.408 -0.273 0.422 0.422 0 0 1 -0.034 -0.169v-12.631a0.39 0.39 0 0 1 0.02 -0.177 0.397 0.397 0 0 1 0.245 -0.245c0.058 -0.02 0.117 -0.026 0.177 -0.019a0.397 0.397 0 0 1 0.423 0.264c0.02 0.058 0.026 0.117 0.019 0.178Zm1.767 0.972c0 0.058 -0.011 0.115 -0.034 0.169a0.439 0.439 0 0 1 -0.407 0.273 0.437 0.437 0 0 1 -0.312 -0.13 0.44 0.44 0 0 1 -0.13 -0.312v-14.618a0.488 0.488 0 0 1 0.141 -0.302 0.47 0.47 0 0 1 0.138 -0.096c0.051 -0.025 0.105 -0.04 0.163 -0.044 0.057 0.004 0.111 0.019 0.163 0.044a0.481 0.481 0 0 1 0.235 0.235c0.024 0.052 0.039 0.105 0.044 0.163Zm1.722 -4.417c0 0.041 -0.008 0.081 -0.024 0.118a0.303 0.303 0 0 1 -0.067 0.1 0.303 0.303 0 0 1 -0.1 0.067 0.292 0.292 0 0 1 -0.118 0.024h-0.309c-0.041 0 -0.081 -0.008 -0.119 -0.024a0.303 0.303 0 0 1 -0.1 -0.067 0.31 0.31 0 0 1 -0.091 -0.219v-5.299a0.31 0.31 0 0 1 0.191 -0.286c0.038 -0.016 0.077 -0.024 0.119 -0.024h0.309c0.041 0 0.081 0.008 0.119 0.024 0.038 0.015 0.071 0.038 0.1 0.067 0.029 0.029 0.052 0.063 0.067 0.1 0.016 0.038 0.024 0.077 0.024 0.118Zm1.766 1.413c0 0.052 -0.01 0.103 -0.03 0.152a0.4 0.4 0 0 1 -0.215 0.215 0.403 0.403 0 0 1 -0.305 0 0.417 0.417 0 0 1 -0.129 -0.086 0.397 0.397 0 0 1 -0.086 -0.13 0.388 0.388 0 0 1 -0.031 -0.152v-8.48c0 -0.052 0.01 -0.103 0.031 -0.152 0.02 -0.049 0.049 -0.092 0.086 -0.128 0.038 -0.038 0.081 -0.066 0.129 -0.087a0.404 0.404 0 0 1 0.305 0c0.049 0.021 0.092 0.049 0.129 0.087a0.392 0.392 0 0 1 0.117 0.28Zm1.722 2.031a0.397 0.397 0 0 1 -0.264 0.423c-0.058 0.02 -0.117 0.026 -0.178 0.019a0.44 0.44 0 0 1 -0.407 -0.273 0.422 0.422 0 0 1 -0.034 -0.169v-12.542a0.484 0.484 0 0 1 0.141 -0.301 0.484 0.484 0 0 1 0.301 -0.141 0.437 0.437 0 0 1 0.312 0.129 0.437 0.437 0 0 1 0.13 0.312Zm1.767 2.385a0.484 0.484 0 0 1 -0.141 0.301 0.502 0.502 0 0 1 -0.138 0.097c-0.052 0.024 -0.106 0.039 -0.163 0.044 -0.058 0 -0.115 -0.012 -0.169 -0.034a0.436 0.436 0 0 1 -0.143 -0.095 0.44 0.44 0 0 1 -0.13 -0.312v-17.268a0.403 0.403 0 0 1 0.019 -0.178c0.02 -0.058 0.052 -0.107 0.094 -0.15 0.044 -0.044 0.094 -0.075 0.151 -0.095 0.057 -0.02 0.116 -0.026 0.177 -0.019a0.44 0.44 0 0 1 0.312 0.13 0.44 0.44 0 0 1 0.13 0.312Zm1.722 -1.634c0.007 0.06 0.001 0.119 -0.02 0.177 -0.02 0.057 -0.052 0.108 -0.094 0.151 -0.043 0.043 -0.094 0.075 -0.151 0.094 -0.058 0.02 -0.117 0.026 -0.177 0.019a0.44 0.44 0 0 1 -0.312 -0.129 0.44 0.44 0 0 1 -0.13 -0.312v-14.045a0.484 0.484 0 0 1 0.279 -0.397c0.051 -0.025 0.106 -0.04 0.163 -0.044a0.44 0.44 0 0 1 0.312 0.129c0.041 0.042 0.073 0.089 0.096 0.143 0.022 0.055 0.034 0.111 0.034 0.169Zm1.722 -1.325c0 0.052 -0.01 0.104 -0.031 0.152a0.394 0.394 0 0 1 -0.367 0.245 0.388 0.388 0 0 1 -0.166 -0.016 0.38 0.38 0 0 1 -0.144 -0.083 0.392 0.392 0 0 1 -0.098 -0.135 0.394 0.394 0 0 1 -0.034 -0.163v-11.041a0.4 0.4 0 0 1 0.114 -0.328 0.393 0.393 0 0 1 0.328 -0.114c0.058 0 0.112 0.011 0.163 0.034 0.052 0.022 0.097 0.055 0.135 0.098 0.038 0.042 0.065 0.09 0.082 0.144 0.018 0.054 0.023 0.109 0.017 0.166Zm1.766 -1.767a0.398 0.398 0 0 1 -0.549 0.368 0.4 0.4 0 0 1 -0.246 -0.368v-7.861c0 -0.053 0.01 -0.104 0.031 -0.153a0.394 0.394 0 0 1 0.215 -0.215 0.388 0.388 0 0 1 0.304 0c0.049 0.02 0.092 0.049 0.13 0.086 0.037 0.037 0.065 0.081 0.086 0.129 0.02 0.049 0.03 0.099 0.03 0.153Zm1.722 2.253a0.437 0.437 0 0 1 -0.13 0.312 0.417 0.417 0 0 1 -0.143 0.096 0.435 0.435 0 0 1 -0.169 0.033 0.44 0.44 0 0 1 -0.441 -0.442v-12.322a0.387 0.387 0 0 1 0.019 -0.177 0.391 0.391 0 0 1 0.094 -0.151c0.043 -0.043 0.093 -0.075 0.151 -0.094 0.057 -0.02 0.116 -0.026 0.177 -0.02 0.061 -0.007 0.12 -0.001 0.178 0.02 0.058 0.02 0.108 0.052 0.151 0.094 0.043 0.043 0.075 0.094 0.094 0.151 0.02 0.057 0.027 0.117 0.019 0.177Zm1.767 2.739a0.484 0.484 0 0 1 -0.141 0.301 0.502 0.502 0 0 1 -0.138 0.097c-0.051 0.024 -0.106 0.039 -0.163 0.043a0.468 0.468 0 0 1 -0.163 -0.043 0.502 0.502 0 0 1 -0.138 -0.097 0.484 0.484 0 0 1 -0.141 -0.301V58.087c0 -0.058 0.011 -0.114 0.033 -0.169a0.437 0.437 0 0 1 0.239 -0.238 0.44 0.44 0 0 1 0.481 0.095c0.041 0.042 0.073 0.089 0.096 0.143 0.022 0.055 0.033 0.111 0.033 0.169Zm1.722 -1.502a0.4 0.4 0 0 1 -0.019 0.177 0.387 0.387 0 0 1 -0.095 0.151 0.393 0.393 0 0 1 -0.328 0.114 0.398 0.398 0 0 1 -0.177 -0.019 0.387 0.387 0 0 1 -0.151 -0.095 0.386 0.386 0 0 1 -0.095 -0.151 0.399 0.399 0 0 1 -0.019 -0.177v-14.839a0.44 0.44 0 0 1 0.13 -0.312 0.44 0.44 0 0 1 0.312 -0.13 0.44 0.44 0 0 1 0.312 0.13 0.439 0.439 0 0 1 0.13 0.312Zm1.766 -3.047a0.394 0.394 0 0 1 -0.245 0.367 0.388 0.388 0 0 1 -0.304 0 0.394 0.394 0 0 1 -0.245 -0.367v-8.391a0.394 0.394 0 0 1 0.245 -0.367 0.388 0.388 0 0 1 0.304 0 0.394 0.394 0 0 1 0.245 0.367Zm1.722 3.621c0.008 0.061 0.001 0.12 -0.019 0.177 -0.02 0.058 -0.051 0.108 -0.094 0.151 -0.043 0.043 -0.093 0.075 -0.151 0.094 -0.057 0.02 -0.116 0.026 -0.177 0.019a0.396 0.396 0 0 1 -0.397 -0.442v-15.987a0.4 0.4 0 0 1 0.099 -0.31 0.396 0.396 0 0 1 0.298 -0.131c0.061 -0.008 0.12 -0.001 0.178 0.019a0.397 0.397 0 0 1 0.264 0.423Zm11.528 1.634c-0.027 0.184 -0.072 0.365 -0.135 0.54a2.804 2.804 0 0 1 -0.238 0.503c-0.095 0.16 -0.206 0.309 -0.331 0.447a2.8 2.8 0 0 1 -0.89 0.659c-0.169 0.08 -0.343 0.142 -0.524 0.186a2.843 2.843 0 0 1 -1.107 0.051l-5.609 -1.06c-0.184 -0.026 -0.365 -0.072 -0.54 -0.135a2.839 2.839 0 0 1 -0.504 -0.237 2.861 2.861 0 0 1 -0.447 -0.332 2.792 2.792 0 0 1 -0.373 -0.413 2.861 2.861 0 0 1 -0.285 -0.478c-0.079 -0.168 -0.141 -0.343 -0.186 -0.524a2.804 2.804 0 0 1 -0.05 -1.107l0.751 -4.99a0.265 0.265 0 0 1 -0.244 -0.163 0.261 0.261 0 0 1 -0.021 -0.102V64.183c0 -0.041 0.008 -0.081 0.024 -0.118 0.015 -0.038 0.038 -0.071 0.067 -0.1 0.028 -0.029 0.061 -0.051 0.1 -0.067 0.038 -0.015 0.077 -0.024 0.118 -0.024h0.352c0.081 0.011 0.151 0.044 0.209 0.101 0.057 0.058 0.092 0.127 0.101 0.209v0.795l0.884 -5.786a2.749 2.749 0 0 1 0.269 -0.833 2.705 2.705 0 0 1 0.231 -0.373 2.713 2.713 0 0 1 0.625 -0.613 2.875 2.875 0 0 1 0.377 -0.224 2.733 2.733 0 0 1 0.837 -0.254 23.379 23.379 0 0 0 -1.634 -5.079 3.362 3.362 0 0 1 -1.967 -0.964 3.319 3.319 0 0 1 -0.462 -0.581 21.008 21.008 0 0 0 -1.537 -2.303 21.038 21.038 0 0 0 -0.878 -1.071 21.117 21.117 0 0 0 -0.946 -1.012 21.483 21.483 0 0 0 -1.01 -0.947 20.953 20.953 0 0 0 -1.07 -0.879 20.859 20.859 0 0 0 -1.126 -0.808 20.692 20.692 0 0 0 -1.176 -0.732 21.101 21.101 0 0 0 -3.779 -1.714 21.039 21.039 0 0 0 -2.675 -0.717 20.925 20.925 0 0 0 -1.367 -0.226 20.592 20.592 0 0 0 -1.378 -0.136 21.281 21.281 0 0 0 -1.384 -0.046c-0.461 0 -0.923 0.015 -1.384 0.045a20.648 20.648 0 0 0 -1.379 0.136 21.118 21.118 0 0 0 -5.338 1.431 21.113 21.113 0 0 0 -3.659 1.957 20.838 20.838 0 0 0 -1.125 0.808 20.232 20.232 0 0 0 -1.07 0.879 20.669 20.669 0 0 0 -1.011 0.947 20.707 20.707 0 0 0 -0.947 1.012 21.038 21.038 0 0 0 -1.684 2.197 21.008 21.008 0 0 0 -0.731 1.177 3.408 3.408 0 0 1 -0.459 0.591 3.409 3.409 0 0 1 -1.97 0.999 22.697 22.697 0 0 0 -1.634 4.991 2.766 2.766 0 0 1 1.064 0.075 2.777 2.777 0 0 1 0.957 0.468 2.788 2.788 0 0 1 1.07 1.798l0.883 5.785v-0.442c0.011 -0.077 0.045 -0.141 0.105 -0.191a0.301 0.301 0 0 1 0.204 -0.074h0.353c0.077 -0.001 0.146 0.024 0.204 0.074 0.059 0.051 0.094 0.114 0.105 0.191v4.416a0.31 0.31 0 0 1 -0.09 0.219 0.303 0.303 0 0 1 -0.1 0.067 0.296 0.296 0 0 1 -0.119 0.024l0.795 5.167a2.843 2.843 0 0 1 -0.051 1.107 2.833 2.833 0 0 1 -0.471 1.002 2.892 2.892 0 0 1 -0.374 0.412 2.809 2.809 0 0 1 -0.95 0.569c-0.176 0.063 -0.356 0.107 -0.54 0.135l-5.609 0.883a2.804 2.804 0 0 1 -1.106 -0.05 2.827 2.827 0 0 1 -1.414 -0.845 2.861 2.861 0 0 1 -0.332 -0.447 2.839 2.839 0 0 1 -0.237 -0.504 2.775 2.775 0 0 1 -0.135 -0.54l-2.341 -15.236a2.843 2.843 0 0 1 0.051 -1.107c0.045 -0.181 0.106 -0.356 0.186 -0.524 0.079 -0.169 0.174 -0.328 0.285 -0.478a2.802 2.802 0 0 1 0.82 -0.744c0.16 -0.096 0.328 -0.175 0.504 -0.238 0.176 -0.063 0.355 -0.107 0.54 -0.135l2.297 -0.354a26.367 26.367 0 0 1 1.943 -6.757 3.276 3.276 0 0 1 -0.235 -0.418 3.229 3.229 0 0 1 -0.277 -0.915 3.288 3.288 0 0 1 0 -0.956c0.023 -0.159 0.058 -0.314 0.105 -0.468 0.046 -0.154 0.104 -0.303 0.172 -0.448a3.208 3.208 0 0 1 0.235 -0.417 27.611 27.611 0 0 1 0.96 -1.547 27.816 27.816 0 0 1 4.781 -5.46 27.372 27.372 0 0 1 1.406 -1.155 27.763 27.763 0 0 1 3.023 -2.022 27.924 27.924 0 0 1 3.261 -1.61 27.836 27.836 0 0 1 3.443 -1.17 27.924 27.924 0 0 1 3.567 -0.71c0.602 -0.079 1.205 -0.139 1.811 -0.179a27.968 27.968 0 0 1 3.637 0c0.606 0.04 1.209 0.1 1.811 0.179a27.787 27.787 0 0 1 7.01 1.88 27.686 27.686 0 0 1 1.657 0.751 27.641 27.641 0 0 1 4.627 2.881 27.372 27.372 0 0 1 1.406 1.154 27.966 27.966 0 0 1 2.57 2.574 27.816 27.816 0 0 1 2.211 2.886c0.337 0.505 0.657 1.021 0.96 1.547a3.161 3.161 0 0 1 0.37 0.887c0.039 0.157 0.065 0.316 0.08 0.476a3.215 3.215 0 0 1 -0.058 0.96 3.157 3.157 0 0 1 -0.343 0.898 3.23 3.23 0 0 1 -0.268 0.401 25.934 25.934 0 0 1 1.943 6.625l3.091 0.485c0.184 0.028 0.365 0.072 0.54 0.135 0.175 0.063 0.343 0.141 0.503 0.238 0.16 0.095 0.309 0.206 0.447 0.331 0.138 0.125 0.263 0.262 0.373 0.413a2.821 2.821 0 0 1 0.522 2.108Zm0 0"/></g></svg>