<svg xmlns="http://www.w3.org/2000/svg" xmlns:xlink="http://www.w3.org/1999/xlink" width="400" height="456.621" version="1.0" viewBox="0 0 300 342.466"><defs><path id="reuse-0" d="m113.809 283.143 5.645 -5.644 5.644 5.644 -5.644 5.645Zm0 0"/></defs><defs><clipPath id="a"><path d="M108.915 274.128h6.075v9.749h-6.075Zm0 0"/></clipPath><clipPath id="b"><path d="M111.952 274.128c-1.678 0 -3.037 2.182 -3.037 4.874 0 2.692 1.359 4.875 3.037 4.875 1.678 0 3.038 -2.183 3.038 -4.875 0 -2.692 -1.36 -4.874 -3.038 -4.874"/></clipPath><clipPath id="c"><path d="M123.458 274.502h6.333v9.199H123.458Zm0 0"/></clipPath><clipPath id="d"><path d="M126.624 274.502c-1.748 0 -3.166 2.06 -3.166 4.6 0 2.54 1.419 4.599 3.167 4.599 1.749 0 3.167 -2.06 3.167 -4.6 0 -2.54 -1.417 -4.599 -3.167 -4.599"/></clipPath><clipPath id="e"><path d="M111.658 275.058h6.075v8.085h-6.075Zm0 0"/></clipPath><clipPath id="f"><path d="M114.695 275.058c-1.676 0 -3.037 1.81 -3.037 4.043 0 2.232 1.36 4.042 3.037 4.042 1.678 0 3.038 -1.81 3.038 -4.042 0 -2.233 -1.36 -4.043 -3.038 -4.043"/></clipPath><clipPath id="g"><path d="M121.088 275.892h6.076v7.251h-6.076Zm0 0"/></clipPath><clipPath id="h"><path d="M124.126 275.892c-1.678 0 -3.038 1.623 -3.038 3.626s1.36 3.626 3.038 3.626c1.678 0 3.038 -1.623 3.038 -3.626s-1.36 -3.626 -3.038 -3.626"/></clipPath><clipPath id="i"><path d="M118.241 274.434h8.383v7.251h-8.384Zm0 0"/></clipPath><clipPath id="j"><path d="M122.433 274.434c-2.315 0 -4.192 1.623 -4.192 3.626s1.877 3.626 4.192 3.626c2.315 0 4.192 -1.623 4.192 -3.626s-1.876 -3.626 -4.192 -3.626"/></clipPath><clipPath id="k"><path d="M111.658 274.434h8.384v7.251h-8.384Zm0 0"/></clipPath><clipPath id="l"><path d="M115.85 274.434c-2.315 0 -4.192 1.623 -4.192 3.626s1.877 3.626 4.192 3.626c2.315 0 4.193 -1.623 4.193 -3.626s-1.878 -3.626 -4.193 -3.626"/></clipPath><clipPath id="m"><path d="M113.777 277.486H125.114v11.307h-11.337Zm0 0"/></clipPath><clipPath id="n"><use xlink:href="#reuse-0"/></clipPath><clipPath id="o"><use xlink:href="#reuse-0"/></clipPath><clipPath id="p"><path d="M173.82 7.216h116.895V120.548H173.82Zm0 0"/></clipPath></defs><path fill="#0b182e" d="M25.48 277.641c0 -0.51 -0.262 -0.766 -0.785 -0.766H23.668v4.257h1.027c0.524 0 0.785 -0.254 0.785 -0.766Zm-4.571 -3.144h4.133c0.986 0 1.763 0.238 2.331 0.714 0.567 0.476 0.851 1.177 0.851 2.102v3.382c0 0.926 -0.284 1.627 -0.851 2.102 -0.568 0.476 -1.345 0.714 -2.331 0.714H23.668v3.658h-2.759Zm13.788 3.234c0 -0.609 -0.364 -0.913 -1.089 -0.913 -0.727 0 -1.089 0.304 -1.089 0.913v6.202c0 0.609 0.363 0.913 1.089 0.913 0.725 0 1.089 -0.304 1.089 -0.913Zm-4.918 -0.142c0 -0.999 0.321 -1.793 0.966 -2.383 0.647 -0.592 1.598 -0.889 2.854 -0.889s2.208 0.297 2.858 0.889c0.653 0.59 0.98 1.384 0.98 2.383v6.488c0 1.002 -0.327 1.798 -0.98 2.388 -0.65 0.59 -1.603 0.885 -2.858 0.885 -1.256 0 -2.207 -0.295 -2.854 -0.885 -0.644 -0.59 -0.966 -1.385 -0.966 -2.388Zm17.146 -3.092h2.359l-1.679 12.671h-2.449l-0.752 -5.009 -0.404 -3.491c-0.095 1.351 -0.218 2.515 -0.366 3.491l-0.766 5.009h-2.616l-1.627 -12.671h2.397c0.463 3.33 0.718 5.275 0.766 5.836 0.05 0.559 0.093 1.168 0.128 1.826 0.183 -1.683 0.488 -4.238 0.913 -7.663h2.326l0.856 7.534c0.059 -1.22 0.164 -2.341 0.314 -3.363Zm3.732 0h6.416v2.378h-3.672v2.687h3.177v2.378h-3.177v2.849h3.672v2.378h-6.416Zm10.899 8.1v4.571h-2.744v-12.671h4.133c0.999 0 1.779 0.238 2.34 0.714 0.561 0.476 0.842 1.17 0.842 2.083v2.34c0 1.465 -0.502 2.381 -1.503 2.745l1.993 4.79h-3.016l-1.698 -4.571Zm0 -5.76v3.586h1.075c0.282 0 0.477 -0.059 0.585 -0.181 0.111 -0.124 0.166 -0.338 0.166 -0.642v-2.069c0 -0.266 -0.062 -0.448 -0.185 -0.547 -0.121 -0.097 -0.309 -0.147 -0.566 -0.147Zm6.525 -2.34h6.416v2.378h-3.672v2.687H74.003v2.378h-3.177v2.849h3.672v2.378h-6.416Zm12.963 2.925c0 -0.219 -0.052 -0.385 -0.157 -0.499 -0.102 -0.117 -0.3 -0.176 -0.595 -0.176h-1.313v8.062h1.313c0.501 0 0.752 -0.28 0.752 -0.842Zm-4.809 -2.925h4.443c0.986 0 1.75 0.238 2.293 0.714 0.545 0.476 0.818 1.177 0.818 2.102v6.873c0 1.988 -0.982 2.982 -2.944 2.982h-4.609Zm20.768 2.906v1.189c0 1.183 -0.432 1.91 -1.294 2.178 0.938 0.219 1.408 0.95 1.408 2.193v1.299c0 1.938 -1.037 2.906 -3.111 2.906h-4.442v-12.671h4.333c2.07 0 3.106 0.969 3.106 2.906Zm-3.563 -0.604h-1.132v2.763h1.132c0.573 0 0.861 -0.262 0.861 -0.785v-1.189c0 -0.526 -0.288 -0.79 -0.861 -0.79Zm0.97 7.277v-1.298c0 -0.524 -0.288 -0.785 -0.861 -0.785h-1.241v2.873h1.241c0.573 0 0.861 -0.263 0.861 -0.79Zm9.6 3.092h-2.783v-3.929l-3.016 -8.742h2.816l0.604 1.922c0.476 1.501 0.816 2.829 1.023 3.986 0.23 -1.182 0.578 -2.524 1.041 -4.024l0.585 -1.884h2.745l-3.016 8.743Zm0 0"/><g clip-path="url(#a)"><g clip-path="url(#b)"><path fill="#fff" d="M108.915 274.128h6.075v9.749h-6.075Zm0 0"/></g></g><g clip-path="url(#c)"><g clip-path="url(#d)"><path fill="#fff" d="M123.458 274.502h6.333v9.199H123.458Zm0 0"/></g></g><g clip-path="url(#e)"><g clip-path="url(#f)"><path fill="#fff" d="M111.658 275.058h6.075v8.085h-6.075Zm0 0"/></g></g><g clip-path="url(#g)"><g clip-path="url(#h)"><path fill="#fff" d="M121.088 275.892h6.076v7.251h-6.076Zm0 0"/></g></g><g clip-path="url(#i)"><g clip-path="url(#j)"><path fill="#fff" d="M118.241 274.434h8.383v7.251h-8.384Zm0 0"/></g></g><g clip-path="url(#k)"><g clip-path="url(#l)"><path fill="#fff" d="M111.658 274.434h8.384v7.251h-8.384Zm0 0"/></g></g><g clip-path="url(#m)"><g clip-path="url(#n)"><g clip-path="url(#o)"><path fill="#fff" d="m113.809 283.143 5.645 -5.644 5.644 5.644 -5.644 5.645Zm0 0"/></g></g></g><path fill="#0b182e" d="M111.688 273.42c-0.195 0.04 -0.5 0.171 -0.671 0.284 -0.175 0.119 -0.568 0.53 -0.855 0.889 -0.606 0.759 -1.14 1.936 -1.338 2.96 -0.072 0.368 -0.079 0.503 -0.076 1.334 0 0.869 0.007 0.951 0.093 1.358 0.284 1.334 0.948 2.583 1.872 3.511 0.469 0.468 1.05 0.664 1.635 0.548 0.353 -0.069 0.585 -0.178 0.842 -0.384l0.198 -0.164 2.59 2.584c2.809 2.805 2.727 2.734 3.175 2.795a1.434 1.434 0 0 0 0.776 -0.123c0.137 -0.072 0.72 -0.63 2.761 -2.672l2.588 -2.584 0.219 0.167c0.465 0.353 0.957 0.479 1.471 0.377 0.53 -0.104 0.851 -0.326 1.376 -0.944 0.725 -0.862 1.292 -2.046 1.491 -3.104 0.397 -2.111 -0.075 -4.068 -1.382 -5.745 -0.322 -0.414 -0.753 -0.811 -1.013 -0.935 -0.715 -0.335 -1.522 -0.195 -2.08 0.359l-0.219 0.22 -0.24 -0.107c-0.664 -0.297 -1.139 -0.421 -1.865 -0.478 -1.256 -0.107 -2.549 0.286 -3.647 1.108 -0.024 0.017 -0.161 -0.055 -0.374 -0.198 -0.906 -0.616 -1.909 -0.92 -3 -0.92 -0.776 0.004 -1.396 0.13 -2.118 0.441l-0.357 0.151 -0.208 -0.216c-0.233 -0.236 -0.592 -0.434 -0.904 -0.5 -0.174 -0.037 -0.602 -0.044 -0.742 -0.013Zm0.687 1.451c0.062 0.058 0.12 0.157 0.135 0.222 0.04 0.223 -0.011 0.345 -0.253 0.609 -0.271 0.292 -0.647 0.849 -0.795 1.174 -0.397 0.879 -0.496 1.574 -0.39 2.72 0.023 0.264 0.257 1.006 0.37 1.191 0.04 0.064 0.071 0.122 0.064 0.13 -0.009 0.011 0.137 0.284 0.272 0.503 0.088 0.14 0.499 0.654 0.671 0.831 0.068 0.069 0.091 0.277 0.047 0.421 -0.075 0.253 -0.421 0.407 -0.647 0.291 -0.058 -0.031 -0.239 -0.202 -0.401 -0.384 -0.387 -0.438 -0.612 -0.78 -0.944 -1.451 -0.089 -0.184 -0.294 -0.868 -0.372 -1.249 -0.089 -0.434 -0.104 -1.485 -0.021 -1.916 0.027 -0.151 0.058 -0.315 0.069 -0.37 0.062 -0.359 0.434 -1.276 0.664 -1.642 0.37 -0.574 0.842 -1.135 1.01 -1.187 0.188 -0.055 0.401 -0.014 0.523 0.106Zm14.682 0.068c0.425 0.414 0.824 1.013 1.085 1.615 0.065 0.158 0.144 0.329 0.171 0.384 0.027 0.058 0.058 0.146 0.068 0.199 0.011 0.055 0.038 0.171 0.065 0.256 0.133 0.438 0.178 0.805 0.178 1.496 0 0.527 -0.014 0.749 -0.062 0.975 -0.12 0.561 -0.281 1.053 -0.459 1.403 -0.061 0.122 -0.113 0.232 -0.113 0.248 0 0.014 -0.13 0.224 -0.287 0.463 -0.35 0.527 -0.787 0.979 -0.986 1.017 -0.157 0.03 -0.401 -0.083 -0.483 -0.224 -0.064 -0.106 -0.075 -0.325 -0.027 -0.451 0.018 -0.045 0.158 -0.226 0.311 -0.404 0.243 -0.284 0.651 -0.879 0.651 -0.951 0 -0.013 0.033 -0.086 0.071 -0.161 0.182 -0.339 0.356 -1.019 0.404 -1.584 0.02 -0.226 0.031 -0.435 0.024 -0.459 -0.011 -0.024 -0.024 -0.184 -0.035 -0.356 -0.024 -0.401 -0.188 -1.04 -0.363 -1.409 -0.075 -0.158 -0.137 -0.295 -0.137 -0.311 0 -0.014 -0.023 -0.055 -0.051 -0.089a3.579 3.579 0 0 1 -0.164 -0.246c-0.202 -0.322 -0.291 -0.445 -0.479 -0.647 -0.23 -0.25 -0.264 -0.315 -0.264 -0.492 0 -0.216 0.127 -0.412 0.291 -0.456 0.038 -0.011 0.144 -0.013 0.233 -0.011 0.146 0.011 0.184 0.031 0.356 0.195Zm-10.193 0.031c0.561 0.124 1.133 0.387 1.574 0.725 0.106 0.082 0.356 0.304 0.554 0.496l0.363 0.349 0.291 -0.295c0.704 -0.714 1.262 -1.046 2.118 -1.261 0.427 -0.106 1.296 -0.117 1.728 -0.018 0.903 0.202 1.71 0.701 2.251 1.383 0.544 0.684 0.777 1.256 0.882 2.152 0.082 0.725 -0.095 1.604 -0.458 2.251 -0.281 0.503 -0.441 0.678 -3.623 3.86l-3.193 3.188 -3.284 -3.292c-2.98 -2.991 -3.299 -3.322 -3.452 -3.576 -0.191 -0.325 -0.291 -0.561 -0.435 -1.026 -0.085 -0.281 -0.106 -0.418 -0.122 -0.815 -0.025 -0.581 0.02 -0.948 0.164 -1.402 0.311 -0.993 0.941 -1.777 1.837 -2.289 0.328 -0.191 0.619 -0.304 1.05 -0.417 0.424 -0.106 1.304 -0.117 1.755 -0.015Zm-76.924 56.98 -6.228 -14.384c-0.078 -0.147 -0.193 -0.225 -0.34 -0.225h-2.376c-0.186 0 -0.285 0.093 -0.285 0.286v14.097c0 0.263 -0.077 0.472 -0.225 0.619 -0.155 0.155 -0.356 0.223 -0.627 0.223H20.914c-0.263 0 -0.472 -0.077 -0.626 -0.223 -0.155 -0.147 -0.225 -0.357 -0.225 -0.619V293.781c0 -0.263 0.077 -0.472 0.225 -0.626 0.147 -0.146 0.356 -0.224 0.626 -0.224h17.154c2.568 0 4.819 0.526 6.77 1.585 1.942 1.061 3.451 2.539 4.534 4.45 1.075 1.903 1.617 4.108 1.617 6.6 0 2.491 -0.611 4.673 -1.842 6.538 -1.23 1.873 -2.917 3.234 -5.068 4.108 -0.185 0.077 -0.247 0.209 -0.17 0.395l7.188 14.948c0.077 0.225 0.116 0.356 0.116 0.395 0 0.186 -0.078 0.34 -0.224 0.448 -0.155 0.117 -0.341 0.17 -0.565 0.17H40.907c-0.486 0 -0.812 -0.208 -0.959 -0.618Zm-9.23 -29.619v6.623c0 0.186 0.093 0.286 0.285 0.286h5.324c1.207 0 2.189 -0.333 2.948 -0.99s1.13 -1.516 1.13 -2.577c0 -1.059 -0.379 -1.973 -1.129 -2.63 -0.759 -0.658 -1.733 -0.991 -2.948 -0.991H30.995c-0.186 0 -0.285 0.093 -0.285 0.287Zm51.251 -0.51c-0.155 0.155 -0.356 0.224 -0.618 0.224h-16.929c-0.186 0 -0.287 0.094 -0.287 0.286v5.324c0 0.185 0.093 0.286 0.287 0.286h10.476c0.263 0 0.472 0.078 0.626 0.224 0.148 0.155 0.225 0.357 0.225 0.619v7.358c0 0.263 -0.077 0.472 -0.225 0.627 -0.147 0.155 -0.356 0.223 -0.626 0.223h-10.476c-0.186 0 -0.287 0.094 -0.287 0.287v5.888c0 0.193 0.093 0.287 0.287 0.287h16.929c0.263 0 0.471 0.077 0.618 0.223 0.148 0.155 0.225 0.357 0.225 0.627v7.42c0 0.263 -0.077 0.472 -0.225 0.619 -0.147 0.146 -0.356 0.223 -0.618 0.223h-27.019c-0.263 0 -0.472 -0.077 -0.626 -0.223 -0.155 -0.147 -0.225 -0.357 -0.225 -0.619V293.781c0 -0.263 0.077 -0.472 0.225 -0.626 0.147 -0.146 0.355 -0.224 0.626 -0.224h27.011c0.263 0 0.472 0.077 0.62 0.224 0.146 0.155 0.223 0.357 0.223 0.626v7.413c0 0.263 -0.077 0.472 -0.223 0.626Zm12.967 30.546c-0.193 -0.131 -0.301 -0.309 -0.34 -0.541L83.431 293.889c-0.038 -0.077 -0.053 -0.17 -0.053 -0.286 0 -0.457 0.263 -0.681 0.789 -0.681h9.686c0.488 0 0.79 0.247 0.905 0.735l5.664 23.9c0.039 0.156 0.093 0.225 0.17 0.225 0.077 0 0.132 -0.077 0.17 -0.225l5.494 -23.9c0.117 -0.487 0.419 -0.735 0.905 -0.735h9.456c0.301 0 0.518 0.086 0.649 0.256 0.132 0.17 0.163 0.402 0.086 0.711l-11.266 37.943c-0.039 0.225 -0.155 0.403 -0.34 0.542 -0.186 0.131 -0.395 0.201 -0.627 0.201h-9.571c-0.225 0 -0.434 -0.062 -0.619 -0.201Zm44.397 -0.417 -6.229 -14.384c-0.077 -0.147 -0.194 -0.225 -0.34 -0.225h-2.376c-0.186 0 -0.287 0.093 -0.287 0.286v14.097c0 0.263 -0.077 0.472 -0.223 0.619 -0.155 0.155 -0.357 0.223 -0.627 0.223h-8.944c-0.263 0 -0.472 -0.077 -0.627 -0.223 -0.155 -0.147 -0.225 -0.357 -0.225 -0.619V293.781c0 -0.263 0.077 -0.472 0.225 -0.626 0.146 -0.146 0.356 -0.224 0.627 -0.224h17.161c2.568 0 4.819 0.526 6.77 1.585 1.942 1.061 3.451 2.539 4.534 4.45 1.075 1.903 1.617 4.108 1.617 6.6 0 2.491 -0.611 4.673 -1.842 6.538 -1.23 1.873 -2.917 3.234 -5.068 4.108 -0.185 0.077 -0.247 0.209 -0.17 0.395l7.188 14.948c0.077 0.225 0.117 0.356 0.117 0.395 0 0.186 -0.077 0.34 -0.225 0.448 -0.155 0.117 -0.34 0.17 -0.565 0.17h-9.516c-0.488 0 -0.813 -0.208 -0.96 -0.618Zm-9.231 -29.619v6.623c0 0.186 0.093 0.286 0.287 0.286h5.324c1.207 0 2.189 -0.333 2.948 -0.99 0.757 -0.658 1.129 -1.516 1.129 -2.577 0 -1.059 -0.379 -1.973 -1.129 -2.63 -0.759 -0.658 -1.734 -0.991 -2.948 -0.991h-5.324c-0.186 0 -0.287 0.093 -0.287 0.287Zm51.244 -0.51c-0.155 0.155 -0.356 0.224 -0.618 0.224H163.79c-0.186 0 -0.287 0.094 -0.287 0.286v5.324c0 0.185 0.093 0.286 0.287 0.286h10.476c0.263 0 0.472 0.078 0.626 0.224 0.148 0.155 0.225 0.357 0.225 0.619v7.358c0 0.263 -0.077 0.472 -0.225 0.627 -0.146 0.155 -0.356 0.223 -0.626 0.223H163.79c-0.186 0 -0.287 0.094 -0.287 0.287v5.888c0 0.193 0.093 0.287 0.287 0.287h16.929c0.263 0 0.472 0.077 0.618 0.223 0.155 0.155 0.225 0.357 0.225 0.627v7.42c0 0.263 -0.077 0.472 -0.225 0.619 -0.155 0.155 -0.356 0.223 -0.618 0.223h-27.011c-0.263 0 -0.472 -0.077 -0.627 -0.223 -0.155 -0.147 -0.225 -0.357 -0.225 -0.619V293.781c0 -0.263 0.077 -0.472 0.225 -0.626 0.146 -0.146 0.356 -0.224 0.627 -0.224h27.011c0.263 0 0.472 0.077 0.618 0.224 0.155 0.155 0.225 0.357 0.225 0.626v7.413c0 0.263 -0.077 0.472 -0.225 0.626Zm28.202 10.476c1.703 0.944 2.948 2.151 3.737 3.621 0.79 1.47 1.191 3.25 1.191 5.324 0 3.891 -1.361 6.746 -4.077 8.581 -2.716 1.833 -6.251 2.746 -10.593 2.746h-15.234c-0.264 0 -0.472 -0.078 -0.619 -0.224 -0.155 -0.147 -0.225 -0.357 -0.225 -0.619V293.781c0 -0.263 0.077 -0.472 0.225 -0.626 0.147 -0.146 0.356 -0.224 0.619 -0.224h14.724c4.836 0 8.464 0.858 10.902 2.576 2.436 1.718 3.652 4.596 3.652 8.635 0 3.59 -1.432 6.189 -4.302 7.815 -0.155 0.116 -0.155 0.224 0 0.34Zm-15.172 -9.966v5.664c0 0.186 0.093 0.286 0.286 0.286h4.642c2.755 0 4.132 -1.037 4.132 -3.118 0 -2.082 -1.377 -3.119 -4.132 -3.119h-4.642c-0.186 0 -0.286 0.094 -0.286 0.286Zm9.455 17.781c0 -2.113 -1.324 -3.172 -3.962 -3.172h-5.207c-0.185 0 -0.285 0.093 -0.285 0.286v5.942c0 0.193 0.093 0.287 0.286 0.287h5.154c2.676 0 4.023 -1.114 4.023 -3.342Zm41.788 -18.291c-0.155 0.155 -0.356 0.224 -0.627 0.224h-16.928c-0.186 0 -0.286 0.094 -0.286 0.286v5.324c0 0.185 0.093 0.286 0.286 0.286h10.476c0.263 0 0.472 0.078 0.627 0.224 0.147 0.155 0.225 0.357 0.225 0.619v7.358c0 0.263 -0.077 0.472 -0.225 0.627 -0.155 0.155 -0.356 0.223 -0.627 0.223h-10.476c-0.186 0 -0.286 0.094 -0.286 0.287v5.888c0 0.193 0.093 0.287 0.286 0.287h16.928c0.264 0 0.472 0.077 0.626 0.223 0.147 0.155 0.225 0.357 0.225 0.627v7.42c0 0.263 -0.077 0.472 -0.225 0.619 -0.155 0.155 -0.356 0.223 -0.627 0.223h-27.009c-0.264 0 -0.472 -0.077 -0.619 -0.223 -0.155 -0.147 -0.225 -0.357 -0.225 -0.619V293.781c0 -0.263 0.077 -0.472 0.225 -0.626 0.147 -0.146 0.356 -0.224 0.619 -0.224h27.009c0.264 0 0.472 0.077 0.627 0.224 0.147 0.155 0.225 0.357 0.225 0.626v7.413c0 0.263 -0.077 0.472 -0.225 0.626Zm2.608 30.524c-0.154 -0.147 -0.223 -0.357 -0.223 -0.619V293.781c0 -0.263 0.077 -0.472 0.223 -0.626 0.148 -0.146 0.357 -0.224 0.62 -0.224h8.944c0.263 0 0.471 0.077 0.619 0.224 0.147 0.155 0.225 0.357 0.225 0.626v29.387c0 0.193 0.093 0.287 0.286 0.287h17.502c0.263 0 0.472 0.077 0.618 0.223 0.148 0.155 0.225 0.357 0.225 0.627v7.42c0 0.263 -0.078 0.472 -0.225 0.619 -0.146 0.146 -0.355 0.223 -0.618 0.223h-27.576c-0.263 0 -0.472 -0.077 -0.62 -0.223Zm31.909 -0.82c-0.998 -0.998 -1.501 -2.275 -1.501 -3.822 0 -1.548 0.503 -2.871 1.501 -3.854 0.998 -0.982 2.275 -1.47 3.822 -1.47 1.548 0 2.824 0.487 3.823 1.47 0.998 0.983 1.501 2.268 1.501 3.854s-0.511 2.778 -1.532 3.791c-1.021 1.013 -2.283 1.532 -3.792 1.532 -1.509 0 -2.824 -0.503 -3.822 -1.501ZM67.84 140.661c0 -0.659 0.188 -1.177 0.566 -1.556 0.377 -0.377 0.895 -0.566 1.556 -0.566h22.346c0.659 0 1.177 0.189 1.555 0.566 0.377 0.378 0.566 0.896 0.566 1.556v94.749c0 0.66 -0.189 1.178 -0.566 1.555 -0.378 0.378 -0.896 0.566 -1.556 0.566h-22.346c-0.66 0 -1.178 -0.188 -1.556 -0.566 -0.378 -0.377 -0.566 -0.895 -0.566 -1.555v-35.921c0 -0.468 -0.236 -0.704 -0.704 -0.704h-22.061c-0.473 0 -0.709 0.235 -0.709 0.704v35.921c0 0.66 -0.189 1.178 -0.566 1.556 -0.378 0.378 -0.896 0.566 -1.555 0.566H19.9c-0.66 0 -1.178 -0.188 -1.556 -0.566 -0.374 -0.377 -0.561 -0.895 -0.561 -1.555v-94.749c0 -0.659 0.187 -1.177 0.561 -1.556 0.377 -0.377 0.895 -0.566 1.556 -0.566h22.346c0.659 0 1.177 0.189 1.556 0.566 0.377 0.378 0.566 0.896 0.566 1.556v34.646c0 0.473 0.235 0.709 0.708 0.709h22.061c0.469 0 0.704 -0.236 0.704 -0.709ZM154.389 238.664c-7.637 0 -14.401 -1.46 -20.296 -4.381 -5.892 -2.923 -10.44 -7.073 -13.646 -12.448 -3.203 -5.375 -4.804 -11.598 -4.804 -18.669V140.661c0 -0.659 0.187 -1.177 0.561 -1.556 0.377 -0.377 0.896 -0.566 1.56 -0.566h22.341c0.659 0 1.177 0.189 1.556 0.566 0.377 0.378 0.566 0.896 0.566 1.556V203.166c0 3.866 1.106 6.954 3.32 9.266 2.217 2.309 5.163 3.463 8.842 3.463 3.583 0 6.481 -1.177 8.695 -3.534 2.216 -2.356 3.325 -5.42 3.325 -9.194V140.661c0 -0.659 0.188 -1.177 0.566 -1.556 0.377 -0.377 0.895 -0.566 1.556 -0.566h22.341c0.662 0 1.181 0.189 1.556 0.566 0.377 0.378 0.566 0.896 0.566 1.556V203.166c0 7.072 -1.603 13.294 -4.809 18.669 -3.204 5.375 -7.728 9.525 -13.575 12.447 -5.845 2.921 -12.584 4.381 -20.22 4.381ZM279.967 186.057c-0.378 0.283 -0.378 0.565 0 0.847 4.243 2.359 7.353 5.378 9.332 9.056 1.979 3.675 2.968 8.105 2.968 13.289 0 9.71 -3.395 16.851 -10.184 21.423 -6.786 4.573 -15.6 6.859 -26.441 6.859H217.6c-0.66 0 -1.178 -0.188 -1.556 -0.566 -0.374 -0.377 -0.561 -0.895 -0.561 -1.555v-94.749c0 -0.659 0.187 -1.177 0.561 -1.556 0.377 -0.377 0.895 -0.566 1.556 -0.566H254.371c12.065 0 21.138 2.145 27.216 6.435 6.081 4.29 9.123 11.48 9.123 21.566 0 8.955 -3.582 15.461 -10.745 19.516ZM242.775 161.309c-0.473 0 -0.709 0.237 -0.709 0.709v14.141c0 0.47 0.236 0.704 0.709 0.704h11.596c6.88 0 10.321 -2.592 10.321 -7.777 0 -5.184 -3.441 -7.777 -10.321 -7.777Zm12.866 53.453c6.693 0 10.041 -2.78 10.041 -8.343 0 -5.28 -3.3 -7.92 -9.898 -7.92h-13.009c-0.473 0 -0.709 0.237 -0.709 0.709v14.85c0 0.47 0.236 0.704 0.709 0.704Zm0 0"/><g clip-path="url(#p)"><path fill="#2d3243" d="M232.264 7.216a57.105 57.105 0 0 0 -2.818 0.031c-0.938 0.033 -1.876 0.089 -2.812 0.169a58.329 58.329 0 0 0 -2.803 0.307c-0.931 0.125 -1.858 0.274 -2.782 0.444a57.684 57.684 0 0 0 -10.816 3.118 58.5 58.5 0 0 0 -2.592 1.107 55.953 55.953 0 0 0 -2.535 1.232 55.899 55.899 0 0 0 -2.471 1.355 57.734 57.734 0 0 0 -2.403 1.473 58.551 58.551 0 0 0 -2.326 1.59 56.859 56.859 0 0 0 -2.248 1.703 58.135 58.135 0 0 0 -2.159 1.81 58.305 58.305 0 0 0 -2.069 1.914 57.265 57.265 0 0 0 -3.845 4.12 57.956 57.956 0 0 0 -1.766 2.196 56.5 56.5 0 0 0 -1.655 2.281 56.948 56.948 0 0 0 -1.542 2.359 56.478 56.478 0 0 0 -1.426 2.432 57.867 57.867 0 0 0 -1.304 2.498 55.96 55.96 0 0 0 -1.18 2.56 55.766 55.766 0 0 0 -1.053 2.614 58.682 58.682 0 0 0 -0.924 2.663 57.04 57.04 0 0 0 -1.45 5.446 57.371 57.371 0 0 0 -0.524 2.77 57.862 57.862 0 0 0 -0.636 5.598c-0.061 0.938 -0.097 1.877 -0.112 2.816a57.193 57.193 0 0 0 0.361 5.625c0.106 0.933 0.236 1.863 0.387 2.791 0.152 0.928 0.327 1.851 0.524 2.77a57.04 57.04 0 0 0 1.45 5.445c0.287 0.896 0.595 1.784 0.924 2.664a55.767 55.767 0 0 0 1.054 2.614 56.554 56.554 0 0 0 1.18 2.56 57.211 57.211 0 0 0 2.729 4.93 56.948 56.948 0 0 0 1.542 2.359 57.355 57.355 0 0 0 1.655 2.281 58.917 58.917 0 0 0 1.766 2.196 57.265 57.265 0 0 0 3.844 4.12 58.305 58.305 0 0 0 2.069 1.914 56.83 56.83 0 0 0 4.407 3.511 57.334 57.334 0 0 0 2.326 1.591 57.733 57.733 0 0 0 2.403 1.473 57.246 57.246 0 0 0 7.598 3.692 56.311 56.311 0 0 0 2.644 0.978 58.709 58.709 0 0 0 2.689 0.847 57.684 57.684 0 0 0 5.484 1.294 58.429 58.429 0 0 0 2.782 0.444c0.932 0.125 1.866 0.227 2.803 0.307 0.936 0.079 1.874 0.136 2.812 0.169 0.939 0.033 1.879 0.044 2.818 0.031a57.237 57.237 0 0 0 5.63 -0.2 58.231 58.231 0 0 0 2.801 -0.307 57.866 57.866 0 0 0 5.54 -1.024c0.913 -0.216 1.822 -0.454 2.725 -0.714a57.178 57.178 0 0 0 5.328 -1.825 57.202 57.202 0 0 0 5.125 -2.338 58.474 58.474 0 0 0 2.471 -1.355 57.334 57.334 0 0 0 6.97 -4.767 58.166 58.166 0 0 0 2.16 -1.811 56.156 56.156 0 0 0 2.067 -1.914 57.231 57.231 0 0 0 7.259 -8.598 57.306 57.306 0 0 0 1.541 -2.358 58.44 58.44 0 0 0 1.422 -2.432 57.887 57.887 0 0 0 2.481 -5.058 59.025 59.025 0 0 0 1.051 -2.614 58.633 58.633 0 0 0 0.92 -2.662 57.696 57.696 0 0 0 0.791 -2.705 57.62 57.62 0 0 0 1.809 -11.106c0.06 -0.937 0.095 -1.877 0.11 -2.816a58.462 58.462 0 0 0 -0.11 -2.815 58.242 58.242 0 0 0 -0.247 -2.806 57.573 57.573 0 0 0 -1.561 -8.3 57.696 57.696 0 0 0 -0.791 -2.705 58.633 58.633 0 0 0 -0.92 -2.662 58.447 58.447 0 0 0 -1.051 -2.614 57.868 57.868 0 0 0 -1.178 -2.56 58.547 58.547 0 0 0 -1.302 -2.498c-0.454 -0.822 -0.928 -1.633 -1.422 -2.432a58.166 58.166 0 0 0 -1.541 -2.359c-0.533 -0.773 -1.085 -1.534 -1.654 -2.281a57.696 57.696 0 0 0 -3.634 -4.304 56.22 56.22 0 0 0 -1.972 -2.013 57.026 57.026 0 0 0 -4.226 -3.725 56.745 56.745 0 0 0 -4.57 -3.293 57.157 57.157 0 0 0 -4.872 -2.829 57.858 57.858 0 0 0 -5.125 -2.339 57.616 57.616 0 0 0 -8.054 -2.539 58.813 58.813 0 0 0 -2.758 -0.58 57.858 57.858 0 0 0 -5.583 -0.75 56.987 56.987 0 0 0 -2.812 -0.169 57.105 57.105 0 0 0 -2.818 -0.031Zm-18.731 77.188a0.447 0.447 0 0 1 -0.049 0.161c-0.026 0.051 -0.061 0.095 -0.104 0.133a0.46 0.46 0 0 1 -0.311 0.118 0.478 0.478 0 0 1 -0.227 0.047 0.448 0.448 0 0 1 -0.221 -0.069 0.447 0.447 0 0 1 -0.161 -0.166 0.504 0.504 0 0 1 -0.044 -0.108 0.549 0.549 0 0 1 -0.015 -0.116v-15.437a0.46 0.46 0 0 1 0.286 -0.428 0.458 0.458 0 0 1 0.504 0.101c0.044 0.043 0.077 0.093 0.101 0.15 0.023 0.057 0.034 0.115 0.034 0.177Zm2.007 -1.8c-0.074 0.151 -0.194 0.237 -0.36 0.257 -0.061 0 -0.12 -0.012 -0.177 -0.034a0.445 0.445 0 0 1 -0.15 -0.101 0.457 0.457 0 0 1 -0.135 -0.327v-11.527c0 -0.062 0.012 -0.12 0.034 -0.177 0.024 -0.057 0.057 -0.107 0.101 -0.15 0.043 -0.044 0.093 -0.077 0.15 -0.101a0.47 0.47 0 0 1 0.354 0 0.462 0.462 0 0 1 0.251 0.251c0.024 0.057 0.036 0.115 0.036 0.177Zm2.007 -2.058c0.007 0.052 0.003 0.104 -0.012 0.153a0.36 0.36 0 0 1 -0.197 0.227c-0.049 0.021 -0.099 0.031 -0.151 0.031h-0.309a0.356 0.356 0 0 1 -0.311 -0.101 0.356 0.356 0 0 1 -0.101 -0.311v-7.667c0 -0.055 0.011 -0.107 0.031 -0.158 0.021 -0.05 0.051 -0.095 0.089 -0.133 0.04 -0.038 0.083 -0.068 0.135 -0.089 0.05 -0.021 0.102 -0.031 0.157 -0.031h0.309c0.104 0.013 0.189 0.058 0.258 0.137 0.069 0.079 0.104 0.17 0.102 0.275Zm2.058 1.749c0 0.062 -0.012 0.12 -0.036 0.177a0.478 0.478 0 0 1 -0.1 0.151 0.478 0.478 0 0 1 -0.151 0.1 0.458 0.458 0 0 1 -0.354 0 0.472 0.472 0 0 1 -0.15 -0.1 0.44 0.44 0 0 1 -0.1 -0.151 0.454 0.454 0 0 1 -0.036 -0.177v-11.167c0 -0.061 0.012 -0.12 0.036 -0.177a0.447 0.447 0 0 1 0.1 -0.15c0.043 -0.043 0.094 -0.077 0.15 -0.1a0.458 0.458 0 0 1 0.354 0 0.458 0.458 0 0 1 0.286 0.427Zm2.007 1.236a0.468 0.468 0 0 1 -0.153 0.295 0.468 0.468 0 0 1 -0.311 0.117 0.488 0.488 0 0 1 -0.15 0.133 0.513 0.513 0 0 1 -0.77 -0.37 0.514 0.514 0 0 1 0.097 -0.381v-13.38c0 -0.061 0.012 -0.12 0.035 -0.177 0.024 -0.057 0.057 -0.107 0.101 -0.15 0.043 -0.044 0.093 -0.077 0.15 -0.101a0.475 0.475 0 0 1 0.354 0 0.462 0.462 0 0 1 0.251 0.251c0.024 0.057 0.036 0.116 0.036 0.177Zm2.058 4.167a0.513 0.513 0 0 1 -0.319 0.476 0.508 0.508 0 0 1 -0.56 -0.112 0.513 0.513 0 0 1 -0.151 -0.364v-21.973a0.508 0.508 0 0 1 0.151 -0.364 0.508 0.508 0 0 1 0.56 -0.112 0.513 0.513 0 0 1 0.319 0.476Zm2.006 -3.602a0.528 0.528 0 0 1 -0.15 0.364c-0.049 0.047 -0.105 0.086 -0.168 0.112a0.508 0.508 0 0 1 -0.56 -0.112 0.511 0.511 0 0 1 -0.112 -0.167 0.507 0.507 0 0 1 -0.04 -0.196v-14.718a0.448 0.448 0 0 1 0.023 -0.206 0.444 0.444 0 0 1 0.11 -0.176c0.05 -0.05 0.109 -0.087 0.176 -0.111a0.472 0.472 0 0 1 0.207 -0.023 0.465 0.465 0 0 1 0.492 0.309c0.023 0.067 0.03 0.136 0.021 0.206Zm2.058 1.132a0.528 0.528 0 0 1 -0.15 0.364c-0.049 0.047 -0.105 0.086 -0.167 0.112a0.508 0.508 0 0 1 -0.56 -0.112 0.511 0.511 0 0 1 -0.112 -0.167 0.507 0.507 0 0 1 -0.039 -0.196V68.195c0.006 -0.067 0.023 -0.13 0.051 -0.19 0.027 -0.061 0.065 -0.114 0.112 -0.161 0.047 -0.047 0.101 -0.086 0.161 -0.113 0.061 -0.029 0.124 -0.046 0.191 -0.051 0.065 0.006 0.13 0.023 0.189 0.051 0.061 0.027 0.114 0.065 0.162 0.113 0.046 0.047 0.084 0.1 0.112 0.161 0.029 0.061 0.045 0.124 0.051 0.19Zm2.007 -5.147a0.361 0.361 0 0 1 -0.222 0.333 0.344 0.344 0 0 1 -0.138 0.027h-0.36a0.344 0.344 0 0 1 -0.138 -0.027 0.35 0.35 0 0 1 -0.117 -0.077 0.361 0.361 0 0 1 -0.106 -0.256v-6.175c0 -0.047 0.01 -0.093 0.027 -0.138a0.387 0.387 0 0 1 0.079 -0.117 0.357 0.357 0 0 1 0.254 -0.106h0.36a0.359 0.359 0 0 1 0.333 0.222c0.018 0.045 0.027 0.09 0.027 0.138Zm2.058 1.647c0 0.062 -0.012 0.12 -0.036 0.177a0.458 0.458 0 0 1 -0.427 0.286c-0.062 0 -0.121 -0.012 -0.178 -0.036a0.458 0.458 0 0 1 -0.25 -0.251 0.454 0.454 0 0 1 -0.036 -0.177V71.848c0 -0.061 0.012 -0.12 0.036 -0.177a0.454 0.454 0 0 1 0.1 -0.15 0.447 0.447 0 0 1 0.15 -0.1 0.459 0.459 0 0 1 0.356 0c0.056 0.023 0.106 0.056 0.15 0.1 0.043 0.043 0.077 0.094 0.1 0.15 0.024 0.057 0.036 0.116 0.036 0.177Zm2.007 2.368c0.009 0.07 0.001 0.139 -0.023 0.206a0.447 0.447 0 0 1 -0.111 0.176 0.461 0.461 0 0 1 -0.176 0.111 0.463 0.463 0 0 1 -0.206 0.023 0.513 0.513 0 0 1 -0.475 -0.319 0.507 0.507 0 0 1 -0.04 -0.196v-14.614c0.006 -0.067 0.023 -0.13 0.051 -0.19 0.028 -0.061 0.065 -0.114 0.113 -0.16a0.545 0.545 0 0 1 0.161 -0.113c0.061 -0.029 0.124 -0.045 0.19 -0.051a0.513 0.513 0 0 1 0.364 0.151 0.508 0.508 0 0 1 0.151 0.364Zm2.058 2.779a0.566 0.566 0 0 1 -0.325 0.464c-0.061 0.027 -0.124 0.045 -0.19 0.05a0.513 0.513 0 0 1 -0.364 -0.15 0.511 0.511 0 0 1 -0.112 -0.167 0.507 0.507 0 0 1 -0.039 -0.196v-20.121a0.448 0.448 0 0 1 0.023 -0.206c0.023 -0.068 0.059 -0.126 0.111 -0.176 0.05 -0.051 0.108 -0.087 0.175 -0.111a0.472 0.472 0 0 1 0.207 -0.023 0.513 0.513 0 0 1 0.364 0.151 0.518 0.518 0 0 1 0.151 0.364Zm2.006 -1.905a0.454 0.454 0 0 1 -0.132 0.383 0.444 0.444 0 0 1 -0.176 0.11 0.448 0.448 0 0 1 -0.205 0.022 0.508 0.508 0 0 1 -0.364 -0.151 0.508 0.508 0 0 1 -0.151 -0.364v-16.363a0.559 0.559 0 0 1 0.164 -0.351 0.545 0.545 0 0 1 0.161 -0.113c0.061 -0.029 0.124 -0.045 0.19 -0.051 0.068 0 0.133 0.013 0.196 0.039a0.523 0.523 0 0 1 0.279 0.278c0.025 0.063 0.038 0.129 0.038 0.197Zm2.007 -1.543a0.462 0.462 0 0 1 -0.286 0.428 0.458 0.458 0 0 1 -0.177 0.036 0.464 0.464 0 0 1 -0.361 -0.117 0.468 0.468 0 0 1 -0.114 -0.157 0.474 0.474 0 0 1 -0.04 -0.19v-12.865a0.448 0.448 0 0 1 0.023 -0.206c0.023 -0.067 0.059 -0.126 0.11 -0.176 0.051 -0.05 0.109 -0.087 0.176 -0.111 0.068 -0.023 0.135 -0.03 0.207 -0.021 0.065 -0.001 0.129 0.012 0.189 0.039 0.061 0.026 0.113 0.064 0.158 0.114a0.46 0.46 0 0 1 0.115 0.36Zm2.058 -2.058a0.462 0.462 0 0 1 -0.286 0.428 0.458 0.458 0 0 1 -0.354 0 0.478 0.478 0 0 1 -0.151 -0.1 0.478 0.478 0 0 1 -0.1 -0.151 0.449 0.449 0 0 1 -0.036 -0.177v-9.16c0 -0.061 0.012 -0.12 0.036 -0.177a0.46 0.46 0 0 1 0.251 -0.251 0.47 0.47 0 0 1 0.354 0 0.457 0.457 0 0 1 0.15 0.101c0.044 0.043 0.077 0.093 0.101 0.15 0.023 0.057 0.035 0.117 0.035 0.177Zm2.007 2.624a0.508 0.508 0 0 1 -0.151 0.364 0.508 0.508 0 0 1 -0.56 0.112 0.513 0.513 0 0 1 -0.319 -0.476v-14.356c-0.008 -0.071 0 -0.14 0.023 -0.207a0.47 0.47 0 0 1 0.286 -0.286c0.067 -0.023 0.135 -0.03 0.206 -0.021 0.07 -0.009 0.139 -0.001 0.207 0.021 0.066 0.024 0.125 0.061 0.176 0.111 0.05 0.05 0.087 0.11 0.11 0.176 0.023 0.067 0.03 0.136 0.022 0.207Zm2.058 3.19c-0.006 0.067 -0.023 0.13 -0.051 0.191a0.545 0.545 0 0 1 -0.113 0.16 0.524 0.524 0 0 1 -0.16 0.113c-0.061 0.029 -0.124 0.045 -0.19 0.051a0.558 0.558 0 0 1 -0.351 -0.164 0.545 0.545 0 0 1 -0.113 -0.16c-0.027 -0.061 -0.046 -0.124 -0.051 -0.19v-20.584c0 -0.068 0.013 -0.133 0.04 -0.196 0.026 -0.063 0.064 -0.119 0.111 -0.168 0.049 -0.047 0.105 -0.086 0.168 -0.112a0.528 0.528 0 0 1 0.394 0 0.513 0.513 0 0 1 0.278 0.279c0.026 0.063 0.039 0.128 0.039 0.196Zm2.007 -1.749a0.465 0.465 0 0 1 -0.515 0.515 0.465 0.465 0 0 1 -0.515 -0.515v-17.29a0.508 0.508 0 0 1 0.151 -0.364 0.508 0.508 0 0 1 0.56 -0.112 0.513 0.513 0 0 1 0.319 0.476Zm2.058 -3.551c0 0.062 -0.012 0.12 -0.036 0.177a0.46 0.46 0 0 1 -0.251 0.251 0.452 0.452 0 0 1 -0.177 0.034 0.457 0.457 0 0 1 -0.327 -0.135 0.445 0.445 0 0 1 -0.101 -0.15 0.475 0.475 0 0 1 -0.035 -0.177v-9.777a0.462 0.462 0 0 1 0.286 -0.428 0.458 0.458 0 0 1 0.354 0c0.057 0.024 0.107 0.057 0.151 0.1 0.043 0.044 0.076 0.094 0.1 0.151 0.024 0.056 0.036 0.116 0.036 0.177Zm2.006 4.22c0.009 0.07 0.001 0.139 -0.021 0.205a0.47 0.47 0 0 1 -0.286 0.287 0.464 0.464 0 0 1 -0.206 0.021 0.437 0.437 0 0 1 -0.19 -0.039c-0.061 -0.026 -0.113 -0.064 -0.157 -0.114a0.441 0.441 0 0 1 -0.097 -0.167 0.46 0.46 0 0 1 -0.019 -0.193v-18.629a0.46 0.46 0 0 1 0.117 -0.361c0.044 -0.049 0.096 -0.087 0.157 -0.114 0.061 -0.026 0.124 -0.04 0.19 -0.04 0.07 -0.008 0.139 -0.001 0.206 0.023 0.068 0.023 0.126 0.059 0.176 0.111 0.05 0.05 0.087 0.108 0.111 0.175 0.023 0.068 0.03 0.137 0.021 0.207Zm13.431 1.904a3.288 3.288 0 0 1 -0.156 0.629 3.342 3.342 0 0 1 -0.277 0.586c-0.112 0.186 -0.24 0.359 -0.387 0.521a3.261 3.261 0 0 1 -0.48 0.434 3.297 3.297 0 0 1 -0.556 0.333 3.307 3.307 0 0 1 -1.9 0.276l-6.536 -1.235a3.338 3.338 0 0 1 -1.215 -0.433 3.247 3.247 0 0 1 -0.521 -0.387 3.401 3.401 0 0 1 -0.435 -0.48 3.371 3.371 0 0 1 -0.332 -0.556 3.333 3.333 0 0 1 -0.311 -1.253c-0.009 -0.216 0.002 -0.433 0.035 -0.647l0.875 -5.815a0.318 0.318 0 0 1 -0.219 -0.09 0.318 0.318 0 0 1 -0.09 -0.219v-5.97c0 -0.047 0.01 -0.094 0.027 -0.138a0.373 0.373 0 0 1 0.195 -0.195c0.044 -0.018 0.091 -0.027 0.138 -0.027h0.411c0.095 0.012 0.176 0.051 0.243 0.118 0.068 0.068 0.107 0.149 0.118 0.242v0.926l1.03 -6.741a3.215 3.215 0 0 1 0.314 -0.97c0.079 -0.152 0.167 -0.297 0.27 -0.434 0.101 -0.138 0.213 -0.268 0.335 -0.387a3.147 3.147 0 0 1 0.832 -0.589 3.09 3.09 0 0 1 0.476 -0.188c0.164 -0.049 0.331 -0.085 0.499 -0.108a27.3 27.3 0 0 0 -1.904 -5.918 3.85 3.85 0 0 1 -0.841 -0.201c-0.273 -0.097 -0.533 -0.225 -0.776 -0.381a3.896 3.896 0 0 1 -0.674 -0.542 3.937 3.937 0 0 1 -0.539 -0.677 24.27 24.27 0 0 0 -1.791 -2.684 24.544 24.544 0 0 0 -2.126 -2.428 24.702 24.702 0 0 0 -2.425 -2.128 24.714 24.714 0 0 0 -2.682 -1.793 24.741 24.741 0 0 0 -2.893 -1.428 24.766 24.766 0 0 0 -3.055 -1.038 24.739 24.739 0 0 0 -6.384 -0.841 24.739 24.739 0 0 0 -6.384 0.841 24.766 24.766 0 0 0 -3.055 1.038 24.741 24.741 0 0 0 -2.893 1.428 24.714 24.714 0 0 0 -2.682 1.793 24.702 24.702 0 0 0 -2.424 2.128 24.544 24.544 0 0 0 -2.126 2.428 24.27 24.27 0 0 0 -1.791 2.684 4.049 4.049 0 0 1 -0.535 0.689 3.909 3.909 0 0 1 -0.673 0.554 3.982 3.982 0 0 1 -1.622 0.61 26.405 26.405 0 0 0 -1.904 5.815 3.254 3.254 0 0 1 1.238 0.086 3.256 3.256 0 0 1 1.117 0.547c0.167 0.126 0.319 0.266 0.458 0.422 0.14 0.156 0.263 0.323 0.37 0.503 0.107 0.18 0.196 0.367 0.266 0.565 0.07 0.196 0.121 0.397 0.153 0.604l1.029 6.741v-0.515c0.013 -0.089 0.053 -0.163 0.122 -0.221a0.344 0.344 0 0 1 0.238 -0.087h0.412c0.09 -0.001 0.17 0.027 0.239 0.087 0.068 0.058 0.11 0.132 0.121 0.221v5.146c0 0.048 -0.008 0.094 -0.027 0.138a0.35 0.35 0 0 1 -0.077 0.117 0.361 0.361 0 0 1 -0.256 0.106l0.926 6.02c0.033 0.215 0.045 0.43 0.034 0.647a3.242 3.242 0 0 1 -0.093 0.642c-0.052 0.21 -0.125 0.414 -0.216 0.611a3.297 3.297 0 0 1 -0.768 1.037 3.254 3.254 0 0 1 -1.106 0.662 3.218 3.218 0 0 1 -0.629 0.157l-6.536 1.03c-0.215 0.032 -0.43 0.044 -0.648 0.034a3.335 3.335 0 0 1 -1.252 -0.311 3.297 3.297 0 0 1 -0.556 -0.333 3.202 3.202 0 0 1 -0.48 -0.434 3.357 3.357 0 0 1 -0.387 -0.521 3.26 3.26 0 0 1 -0.433 -1.216l-2.728 -17.753a3.282 3.282 0 0 1 0.058 -1.289 3.308 3.308 0 0 1 0.549 -1.168c0.13 -0.175 0.275 -0.334 0.435 -0.48a3.303 3.303 0 0 1 1.107 -0.664c0.205 -0.072 0.414 -0.125 0.629 -0.156l2.676 -0.412a30.729 30.729 0 0 1 2.264 -7.873 3.78 3.78 0 0 1 -0.475 -1.009 3.761 3.761 0 0 1 -0.163 -1.102c0 -0.375 0.054 -0.742 0.163 -1.103 0.108 -0.359 0.266 -0.694 0.475 -1.007a32.663 32.663 0 0 1 1.118 -1.802 32.472 32.472 0 0 1 4.025 -4.911 32.427 32.427 0 0 1 4.907 -4.032c0.588 -0.393 1.187 -0.766 1.799 -1.12a33.525 33.525 0 0 1 1.869 -1 32.156 32.156 0 0 1 3.915 -1.622c0.669 -0.228 1.345 -0.433 2.027 -0.616a32.452 32.452 0 0 1 6.265 -1.036c0.706 -0.046 1.412 -0.069 2.119 -0.069a32.28 32.28 0 0 1 8.384 1.105c0.683 0.183 1.359 0.388 2.029 0.616 0.669 0.227 1.33 0.475 1.983 0.747 0.653 0.271 1.296 0.563 1.93 0.875a33.525 33.525 0 0 1 1.869 1 31.977 31.977 0 0 1 3.522 2.357 32.267 32.267 0 0 1 1.639 1.345 32.98 32.98 0 0 1 1.546 1.451c0.499 0.499 0.982 1.016 1.448 1.548 0.465 0.532 0.913 1.079 1.344 1.639a33.145 33.145 0 0 1 1.233 1.724 32.663 32.663 0 0 1 1.118 1.802 3.659 3.659 0 0 1 0.43 1.034 3.708 3.708 0 0 1 0.102 1.115 3.721 3.721 0 0 1 -0.237 1.095 3.748 3.748 0 0 1 -0.553 0.975 30.177 30.177 0 0 1 2.264 7.718l3.602 0.566a3.266 3.266 0 0 1 1.215 0.433 3.323 3.323 0 0 1 0.956 0.867c0.128 0.175 0.239 0.36 0.332 0.556 0.093 0.196 0.165 0.401 0.218 0.611 0.051 0.211 0.082 0.425 0.093 0.641 0.01 0.218 -0.002 0.433 -0.034 0.648Zm0 0"/></g><path fill="#0b182e" d="M72.426 111.293c-1.225 0 -2.025 -0.518 -2.402 -1.556l-15.559 -35.925c-0.19 -0.377 -0.474 -0.566 -0.851 -0.566h-5.936c-0.473 0 -0.709 0.237 -0.709 0.709V109.172c0 0.66 -0.189 1.178 -0.566 1.556 -0.378 0.378 -0.896 0.566 -1.556 0.566H22.503c-0.66 0 -1.178 -0.188 -1.555 -0.566 -0.378 -0.377 -0.566 -0.895 -0.566 -1.556V14.414c0 -0.662 0.188 -1.182 0.566 -1.56 0.377 -0.377 0.895 -0.566 1.556 -0.566h42.851c6.412 0 12.044 1.321 16.9 3.962 4.858 2.642 8.629 6.344 11.315 11.106 2.689 4.76 4.033 10.25 4.033 16.472 0 6.225 -1.534 11.671 -4.599 16.339 -3.063 4.668 -7.282 8.086 -12.657 10.255 -0.47 0.188 -0.611 0.518 -0.423 0.989l17.96 37.338c0.19 0.565 0.285 0.894 0.285 0.989 0 0.473 -0.189 0.85 -0.566 1.132 -0.378 0.283 -0.849 0.423 -1.412 0.423Zm-24.748 -76.232c-0.473 0 -0.709 0.237 -0.709 0.709v16.548c0 0.469 0.236 0.704 0.709 0.704h13.294c3.016 0 5.466 -0.824 7.354 -2.473 1.886 -1.652 2.83 -3.797 2.83 -6.435 0 -2.733 -0.944 -4.925 -2.83 -6.574 -1.887 -1.651 -4.338 -2.478 -7.354 -2.478Zm59.398 47.237c-0.66 0 -1.178 -0.188 -1.556 -0.566 -0.378 -0.377 -0.566 -0.895 -0.566 -1.556v-18.384c0 -0.659 0.188 -1.177 0.566 -1.556 0.377 -0.377 0.895 -0.566 1.556 -0.566h48.796c0.659 0 1.177 0.189 1.556 0.566 0.377 0.378 0.566 0.896 0.566 1.556v18.384c0 0.66 -0.189 1.178 -0.566 1.556 -0.378 0.378 -0.896 0.566 -1.555 0.566Zm0 0"/></svg>