<svg viewBox="0 0 23 23" xmlns="http://www.w3.org/2000/svg" class="a"><style>.b{fill: currentColor;}.a{}</style><path d="M13.22 5.24v-.001c-.57-.16-1.14-.24-1.72-.24v0c-3.59 0-6.49 2.91-6.48 6.5 0 3.58 2.91 6.48 6.5 6.47 3.57-.01 6.47-2.91 6.47-6.48h-.001c-.01-.59-.08-1.16-.23-1.72v0c-.11-.39.12-.79.5-.89 .38-.11.78.12.88.5v0c.18.68.27 1.39.28 2.1v0c-.01 4.37-3.56 7.92-7.94 7.92 -4.38-.01-7.93-3.56-7.93-7.94 0-4.38 3.54-7.93 7.92-7.93l0 0c.7 0 1.41.09 2.1.28v0c.31.08.52.37.53.7v0c0 .06 0 .12 0 .19V4.69c-.11.38-.5.61-.89.5 -.01-.01-.02-.01-.03-.01Zm8.42 2.51v0c-.38.1-.6.49-.5.87 0 0 0 .01 0 .01h0c.27.92.4 1.89.41 2.86v0c0 5.55-4.51 10.06-10.06 10.06 -5.56 0-10.06-4.51-10.06-10.06 0-5.56 4.5-10.06 10.06-10.06v0c.96 0 1.93.13 2.86.41v0c.37.11.77-.1.88-.48 0-.01 0-.02 0-.02v0c.01-.07.01-.14 0-.2h-.001c0-.32-.21-.6-.51-.69L14.71.44c-1.06-.31-2.15-.47-3.24-.47v0c-6.36 0-11.5 5.15-11.5 11.5 0 3.04 1.21 5.97 3.36 8.12H3.33c4.49 4.49 11.77 4.48 16.26-.01 2.15-2.16 3.36-5.08 3.36-8.13v0c-.01-1.11-.16-2.21-.47-3.27v0c-.11-.38-.51-.6-.89-.49 -.01 0-.01 0-.01 0Zm-10.14.88h.32 -.001c.38.04.74-.24.78-.63 0-.01 0-.01 0-.01v0c.04-.4-.25-.76-.64-.8h-.47v0c-2.39 0-4.31 1.92-4.31 4.31 0 2.38 1.92 4.31 4.31 4.31 2.38 0 4.31-1.93 4.31-4.31v0c-.01-.4-.33-.72-.72-.72 -.4 0-.72.32-.72.72v0c-.01 1.59-1.29 2.87-2.89 2.87 -1.6-.01-2.88-1.29-2.88-2.89s1.28-2.88 2.88-2.88c0 0 0 0 0 0Zm3.67-1.82l.36-3.59v0c.01-.17.08-.32.2-.43L18.31.21v0c.19-.22.48-.3.76-.21V-.01c.26.1.43.34.46.62l.21 2.6 2.6.21v0c.27.02.51.19.62.46v0c.09.26.02.56-.17.76l-2.58 2.62v0c-.12.11-.27.18-.43.2l-3.59.36 -4.19 4.17v0c-.33.22-.78.13-1-.2 -.17-.25-.17-.57 0-.81Zm1.49-.47l2.72-.27 1.29-1.29L19 4.65v0c-.35-.04-.62-.31-.65-.65l-.13-1.66 -1.29 1.28Z" class="b"/></svg>