<svg viewBox="0 0 13 13" xmlns="http://www.w3.org/2000/svg" class="a"><style>.b{fill: currentColor;}.a{}</style><path d="M6.9 4.48c-.13-.03-.26-.04-.4-.04 -1.13 0-2.06.92-2.06 2.06 0 1.14.92 2.06 2.06 2.06 1.14 0 2.06-.92 2.06-2.06 0-.14-.01-.27-.04-.4L7.31 7.31c-.22.22-.5.33-.81.33 -.31 0-.59-.12-.81-.33 -.22-.21-.33-.5-.33-.81 0-.31.12-.59.33-.81L6.9 4.48Z" class="b"/><path d="M12.42 3.81l-.82.82c-.08.08-.17.15-.27.2 .18.52.28 1.08.28 1.66 0 2.81-2.29 5.1-5.1 5.1 -2.81 0-5.11-2.28-5.11-5.09 -.001-2.81 2.29-5.1 5.1-5.1 .58-.001 1.14.1 1.66.28 .05-.1.12-.19.2-.27l.82-.82C8.36.22 7.45.01 6.49.01 2.92 0-.001 2.92-.001 6.5c0 3.58 2.92 6.5 6.5 6.5s6.5-2.92 6.5-6.5c0-.96-.21-1.87-.58-2.69Z" class="b"/><path d="M8.12 3.27l-.07-.82c-.48-.18-1-.29-1.55-.29 -2.39 0-4.34 1.95-4.34 4.34 0 2.39 1.95 4.34 4.34 4.34 2.39 0 4.34-1.95 4.34-4.34 0-.55-.1-1.07-.29-1.55l-.82-.07 -.6.6c.12.31.19.66.19 1.01 0 1.55-1.26 2.82-2.82 2.82 -1.56 0-2.82-1.26-2.82-2.82 0-1.56 1.26-2.82 2.82-2.82 .36 0 .7.07 1.01.19l.6-.6Z" class="b"/><path d="M8.8 2.24l.11 1.31 -2.68 2.68c-.15.15-.15.39 0 .54 .07.07.17.11.27.11s.19-.04.27-.11l2.68-2.68 1.31.11h.03c.1 0 .2-.04.27-.11l1.62-1.62c.1-.1.14-.26.09-.4 -.05-.14-.18-.24-.33-.25l-1.17-.1 -.1-1.17c-.01-.15-.11-.27-.25-.33 -.14-.05-.3-.02-.4.09L8.9 1.93c-.08.08-.12.19-.11.3Z" class="b"/></svg>