<svg viewBox="0 0 25 24" xmlns="http://www.w3.org/2000/svg" class="a"><style>.b{fill: currentColor;}.a{}</style><g transform="translate(.07788-1e-05) scale(1.00502)" class="a"><path d="M17.14 8.43l-.86-.07c-.18-.01-.33-.16-.34-.34l-.07-.86 -.67.67 -.14 1.42 1.42-.14 .67-.67Z" class="b"/><path d="M12.36.92C6.11.92 1.04 5.85 1.04 11.94c-.001 6.09 5.07 11.02 11.32 11.02s11.32-4.93 11.32-11.02C23.68 5.85 18.61.92 12.36.92Zm2.21 6.47l1.34-1.34c.1-.1.26-.14.4-.09 .14.05.23.18.24.32l.11 1.36 1.36.11c.15.01.27.11.32.24 .05.14.02.29-.09.4l-1.34 1.34c-.06.06-.14.1-.23.11l-1.87.19 -2.18 2.18c-.07.07-.17.11-.27.11s-.19-.04-.27-.11c-.15-.15-.15-.38 0-.53l2.18-2.18 .19-1.87c0-.09.05-.17.11-.23Zm-2.21 6.05c.83 0 1.5-.67 1.5-1.5 0-.21.17-.38.38-.38s.38.17.38.38c0 1.24-1.01 2.25-2.25 2.25s-2.25-1.01-2.25-2.25 1.01-2.25 2.25-2.25c.08 0 .17 0 .25.01 .21.02.35.21.33.41 -.02.2-.21.35-.41.33 -.05 0-.11 0-.17 0 -.83 0-1.5.67-1.5 1.5s.67 1.5 1.5 1.5Zm0-4.89c-1.87 0-3.39 1.52-3.39 3.39s1.52 3.39 3.39 3.39 3.39-1.52 3.39-3.39c0-.3-.04-.61-.12-.9 -.05-.2.06-.41.26-.46 .2-.05.41.06.46.26 .1.36.15.72.15 1.1 0 2.28-1.86 4.14-4.14 4.14 -2.28 0-4.14-1.86-4.14-4.14 0-2.28 1.86-4.14 4.14-4.14 .37 0 .74.05 1.1.15 .17.05.28.2.28.36 0 .03 0 .07-.01.1 -.05.2-.26.32-.46.26 -.29-.08-.59-.12-.9-.12Zm4.24 7.63c-1.13 1.13-2.64 1.76-4.24 1.76s-3.11-.62-4.24-1.76c-1.13-1.13-1.76-2.64-1.76-4.24s.62-3.11 1.76-4.24c1.13-1.13 2.64-1.76 4.24-1.76 .58 0 1.15.08 1.71.25 .16.05.27.2.27.36 0 .04 0 .07-.02.11 -.06.2-.27.31-.47.25 -.48-.14-.98-.22-1.49-.22 -2.89 0-5.25 2.36-5.25 5.25s2.36 5.25 5.25 5.25 5.25-2.36 5.25-5.25c0-.51-.07-1.01-.22-1.49 -.06-.2.05-.41.25-.47s.41.05.47.25c.16.55.25 1.13.25 1.71 0 1.6-.62 3.11-1.76 4.24Z" class="b"/></g></svg>