<svg viewBox="0 0 21 20.15" xmlns="http://www.w3.org/2000/svg" class="a"><style>.b{fill: currentColor;}.a{}</style><path d="M16.85 0H4.15v0C1.89-.05.02 1.75-.02 4.01c-.01.14 0 .29.01.43l.84 11.25H.82C1.04 18.1 3 20 5.43 20.14h9.89v-.001c2.51-.03 4.59-1.95 4.82-4.45l.84-11.25v0c.19-2.26-1.47-4.24-3.72-4.44 -.15-.02-.3-.02-.44-.02Zm-4.32 5.91l1.23-1.23v0c.13-.14.34-.14.48-.01 .05.05.09.13.09.21l.1 1.25 1.24.09v0c.19.01.33.18.31.38 -.01.07-.05.15-.1.2l-1.23 1.23 0 0c-.64.15-1.28.24-1.93.27l-2 2v0c-.14.13-.35.13-.48 0h0c-.14-.14-.14-.35-.01-.49 0-.01 0-.01 0-.01l2-2c.04-.14.1-1.83.27-1.92Zm-2 5.54v0c.75 0 1.37-.62 1.37-1.37v0c.03-.2.21-.32.4-.29 .14.02.26.13.28.28h-.001c-.01 1.14-.94 2.06-2.09 2.05 -1.15-.01-2.07-.94-2.06-2.09 0-1.14.91-2.05 2.04-2.06 .7-.09.71.83 0 .69v0c-.77 0-1.38.61-1.38 1.38 0 .76.61 1.38 1.38 1.38ZM10.5 7l0-.001c-1.72 0-3.1 1.38-3.1 3.1 0 1.71 1.38 3.09 3.1 3.09 1.7-.01 3.09-1.39 3.09-3.09 .09-.41-.38-1.05.13-1.25v0c.18-.06.37.05.43.24v0c.54 2.03-.68 4.13-2.72 4.67 -.31.08-.63.12-.95.12 -5.69-.33-4.57-8.65 1-7.45h-.001c.18.04.28.23.24.41 -.01 0-.01 0-.01 0 -.2.49-.84.02-1.24.13Zm3.89 7v0c-2.17 2.13-5.65 2.1-7.78-.07 -2.14-2.17-2.11-5.65.06-7.78 1.02-1.01 2.39-1.58 3.82-1.58v0c.52-.01 1.05.07 1.56.22v0c.17.04.28.22.23.4 -.01 0-.01.01-.01.02L12.26 5.2c-.06.17-.25.28-.42.23l-.001-.001c-.45-.14-.91-.2-1.37-.2 -6.36.2-6.36 9.43 0 9.63v0c2.66-.02 4.81-2.19 4.8-4.86 -.01-.45-.07-.9-.2-1.33 -.13-.43.55-.63.66-.2v0c.59 1.94.06 4.05-1.38 5.49Zm-.12-6.48L13 7.61l.13-1.3 .62-.62 .06.79c0 .46.77.31 1.11.38Z" transform="translate(0-.07501)" class="b"/></svg>