<svg viewBox="0 0 21 20.15" xmlns="http://www.w3.org/2000/svg" class="a"><style>.b{fill: currentColor;}.a{}</style><path d="M6.88 6.12v-.001c.04.05.06.12.06.19v.69h0c0 .07-.02.15-.05.22v0c-.06.05-.14.08-.21.07H6.3V6.06h.38v0c.07-.01.14.01.2.05ZM21 4.45l-.84 11.25v-.001c-.23 2.48-2.3 4.4-4.79 4.45H5.45h0c-2.43-.14-4.39-2.04-4.61-4.45L0 4.44l-.001 0C-.21 2.18 1.45.2 3.7 0c.14-.02.29-.02.43-.02h12.7v0c2.25-.05 4.12 1.75 4.16 4.01 0 .14-.01.29-.02.43Zm-13.23 8h-.95V14v0c-.1.01-.2.01-.29 0h0c-.1.03-.2.03-.29 0v0c-.07-.07-.11-.15-.1-.24v-2.15 0c0-.1.05-.2.14-.24v0c.16-.08.34-.11.52-.09v0c.26 0 .52.05.77.14v-.91l-.001-.001c-.3-.09-.61-.13-.91-.12v0c-.39-.03-.78.07-1.1.3v0c-.25.19-.4.48-.39.8v2.34 0c-.01.3.11.59.35.79H5.51c.3.21.67.31 1.05.29v0c.41.01.82-.09 1.19-.27Zm.31-2.75L7.38 8c.35-.12.53-.45.53-1v-.77 0c.01-.28-.1-.55-.3-.73v0c-.24-.18-.53-.27-.82-.25H5.34V9.7h1V8.09h.12L7 9.7Zm3.36.72H9.19v4.45h2.25V14h-1.29v-1h1.12v-.8h-1.12v-.94h1.29Zm.2-5.17H9.38V9.7h2.26v-.84h-1.29v-1h1.11V7h-1.11V6h1.29Zm4 5.17h-.95v1.12h0c-.02.61.03 1.22.15 1.82v0c-.15-.5-.31-.98-.5-1.45l-.59-1.49h-.95v4.45h.95v-1.18 0c.02-.59-.03-1.18-.13-1.75 .1.34.46 1.31 1.1 2.93h.92Zm.15-5.17h-1l-.3 1.89c-.06.38-.13 1-.21 1.72 0-.4-.09-.75-.13-1 -.04-.25-.15-1.2-.39-2.61h-1l.86 4.45H15Z" transform="translate(0-.07501)" class="b"/></svg>