<svg viewBox="0 0 16 15" xmlns="http://www.w3.org/2000/svg" class="a"><style>.b{fill: currentColor;}.a{}</style><path d="M1.67 4.4v2.48H.25V0H2.4h0c.43-.03.86.11 1.21.39l0-.001c.3.29.46.7.44 1.13v1.27c0 .79-.26 1.29-.78 1.49l1 2.6H2.74l-.88-2.48Zm0-3.13v2h.56v0c.11 0 .22-.03.31-.1v0c.06-.11.09-.23.08-.35V1.65l-.001-.001c.01-.11-.02-.22-.09-.3V1.34c-.09-.06-.2-.09-.3-.08ZM6.23 0h3.33v1.29H7.65v1.46H9.3V4H7.65v1.59h1.91v1.29H6.23Zm8 0h1.48L14.5 6.88h-2L11.25 0h1.45c.37 2.19.58 3.51.64 4 .06.49.12 1 .19 1.62 .12-1.19.22-2.07.31-2.66ZM0 9.66h0c-.02-.49.19-.95.57-1.25h0c.48-.32 1.06-.47 1.64-.41v0c.45-.02.9.05 1.34.19v1.36 0c-.37-.15-.75-.23-1.14-.23v0c-.27-.03-.54.02-.77.14v0c-.13.08-.21.22-.2.38v3.26 0c-.01.13.04.27.14.37l-.001-.001c.12.08.27.13.43.12v0c.14 0 .29-.03.43-.08v-2.32h1.38v3.32l-.001-.001c-.54.29-1.14.43-1.75.42v-.001c-.55.03-1.1-.12-1.54-.44H.52c-.36-.31-.56-.76-.53-1.23ZM5.94 8h3.33v1.29H7.36v1.46H9V12H7.36v1.55h1.91v1.29H5.94Zm8.19 0h1.4v6.88h-1.36q-1.41-3.75-1.63-4.53v-.001c.16.88.23 1.79.2 2.7v1.83h-1.4v-6.88h1.4l.87 2.3c.36 1 .61 1.74.74 2.25l-.001-.001c-.18-.93-.25-1.88-.22-2.82Z" transform="translate(.08305 0) scale(1.00468)" class="b"/></svg>