<svg xmlns="http://www.w3.org/2000/svg" version="1.0" viewBox="0 0 400 211.111" width="400" height="211.111"><path d="m51.231 96.564 -14.256 -32.91c-0.174 -0.344 -0.433 -0.519 -0.777 -0.519h-5.442c-0.433 0 -0.647 0.219 -0.647 0.647v32.264c0 0.607 -0.175 1.08 -0.519 1.424 -0.344 0.344 -0.822 0.519 -1.424 0.519H7.689c-0.607 0 -1.08 -0.175 -1.423 -0.519 -0.348 -0.344 -0.519 -0.821 -0.519 -1.424V9.233c0 -0.603 0.175 -1.08 0.519 -1.424 0.344 -0.344 0.821 -0.519 1.423 -0.519h39.265c5.875 0 11.036 1.211 15.487 3.63 4.447 2.419 7.906 5.812 10.367 10.173 2.464 4.361 3.692 9.396 3.692 15.096 0 5.7 -1.406 10.691 -4.21 14.966 -2.808 4.277 -6.674 7.41 -11.599 9.391 -0.433 0.175 -0.562 0.478 -0.388 0.906l16.46 34.205c0.175 0.519 0.259 0.822 0.259 0.906 0 0.433 -0.174 0.777 -0.517 1.036 -0.348 0.259 -0.777 0.389 -1.295 0.389h-21.773c-1.125 0 -1.858 -0.473 -2.205 -1.425Zm-21.126 -67.763v15.159c0 0.433 0.214 0.648 0.647 0.648h12.184c2.763 0 5.009 -0.755 6.736 -2.268 1.728 -1.508 2.593 -3.477 2.593 -5.896 0 -2.419 -0.865 -4.513 -2.593 -6.027 -1.727 -1.508 -3.973 -2.267 -6.736 -2.267h-12.184c-0.433 0 -0.647 0.219 -0.647 0.648Zm117.281 -1.169c-0.348 0.348 -0.822 0.517 -1.424 0.517H107.215c-0.433 0 -0.647 0.219 -0.647 0.648v12.181c0 0.433 0.214 0.647 0.647 0.647h23.975c0.603 0 1.08 0.175 1.423 0.519 0.344 0.348 0.519 0.821 0.519 1.424v16.846c0 0.606 -0.175 1.08 -0.519 1.423 -0.348 0.348 -0.821 0.517 -1.423 0.517h-23.975c-0.433 0 -0.647 0.219 -0.647 0.648v13.476c0 0.433 0.214 0.647 0.647 0.647h38.748c0.602 0 1.08 0.174 1.424 0.517 0.344 0.348 0.519 0.822 0.519 1.424v16.976c0 0.607 -0.175 1.08 -0.519 1.423 -0.348 0.348 -0.822 0.519 -1.424 0.519H84.147c-0.607 0 -1.08 -0.175 -1.424 -0.519 -0.348 -0.344 -0.519 -0.821 -0.519 -1.423V9.233c0 -0.603 0.175 -1.08 0.519 -1.424 0.344 -0.344 0.822 -0.519 1.424 -0.519h61.816c0.602 0 1.08 0.175 1.424 0.519 0.344 0.348 0.519 0.821 0.519 1.424v16.976c0 0.607 -0.175 1.08 -0.519 1.424Zm29.679 69.905c-0.433 -0.303 -0.691 -0.714 -0.777 -1.232L150.761 9.492c-0.089 -0.175 -0.129 -0.389 -0.129 -0.647 0 -1.036 0.603 -1.555 1.812 -1.555h22.162c1.12 0 1.812 0.563 2.072 1.683l12.961 54.681c0.084 0.347 0.214 0.517 0.388 0.517 0.175 0 0.304 -0.174 0.389 -0.517l12.572 -54.681c0.259 -1.12 0.951 -1.683 2.072 -1.683h21.644c0.692 0 1.188 0.197 1.491 0.586 0.305 0.388 0.367 0.928 0.192 1.62l-25.791 86.812c-0.086 0.519 -0.348 0.929 -0.778 1.233 -0.433 0.303 -0.906 0.455 -1.424 0.455h-21.903a2.415 2.415 0 0 1 -1.423 -0.455Zm-125.835 102.681 -14.256 -32.911c-0.174 -0.344 -0.433 -0.517 -0.777 -0.517h-5.442c-0.433 0 -0.647 0.219 -0.647 0.647v32.264c0 0.607 -0.175 1.08 -0.519 1.424 -0.344 0.344 -0.822 0.517 -1.424 0.517H7.689c-0.607 0 -1.08 -0.174 -1.423 -0.517 -0.348 -0.344 -0.519 -0.822 -0.519 -1.424V112.888c0 -0.603 0.175 -1.08 0.519 -1.424 0.344 -0.344 0.821 -0.519 1.423 -0.519h39.265c5.875 0 11.036 1.209 15.487 3.63 4.447 2.419 7.906 5.812 10.367 10.172 2.464 4.361 3.692 9.396 3.692 15.096 0 5.7 -1.406 10.69 -4.21 14.966 -2.808 4.277 -6.674 7.41 -11.599 9.391 -0.433 0.175 -0.562 0.478 -0.388 0.906l16.46 34.205c0.175 0.519 0.259 0.822 0.259 0.906 0 0.433 -0.174 0.777 -0.517 1.036 -0.348 0.258 -0.777 0.388 -1.295 0.388h-21.773c-1.125 0 -1.858 -0.472 -2.205 -1.424Zm-21.126 -67.767v15.159c0 0.433 0.214 0.647 0.647 0.647h12.184c2.763 0 5.009 -0.753 6.736 -2.267 1.728 -1.508 2.593 -3.477 2.593 -5.896 0 -2.419 -0.865 -4.513 -2.593 -6.027 -1.727 -1.508 -3.973 -2.267 -6.736 -2.267h-12.184c-0.433 0 -0.647 0.219 -0.647 0.647Zm117.281 -1.164c-0.348 0.348 -0.822 0.517 -1.424 0.517H107.215c-0.433 0 -0.647 0.219 -0.647 0.647v12.182c0 0.433 0.214 0.647 0.647 0.647h23.975c0.603 0 1.08 0.175 1.423 0.519 0.344 0.347 0.519 0.821 0.519 1.424v16.846c0 0.607 -0.175 1.08 -0.519 1.424 -0.348 0.348 -0.821 0.517 -1.423 0.517h-23.975c-0.433 0 -0.647 0.219 -0.647 0.647v13.476c0 0.433 0.214 0.648 0.647 0.648h38.748c0.602 0 1.08 0.174 1.424 0.517 0.344 0.348 0.519 0.822 0.519 1.424v16.976c0 0.606 -0.175 1.08 -0.519 1.423 -0.348 0.348 -0.822 0.517 -1.424 0.517H84.147c-0.607 0 -1.08 -0.174 -1.424 -0.517 -0.348 -0.344 -0.519 -0.822 -0.519 -1.423V112.883c0 -0.603 0.175 -1.08 0.519 -1.423 0.344 -0.344 0.822 -0.519 1.424 -0.519h61.816c0.602 0 1.08 0.175 1.424 0.519 0.344 0.348 0.519 0.821 0.519 1.423v16.976c0 0.607 -0.175 1.08 -0.519 1.424Zm64.538 23.973c3.889 2.161 6.737 4.924 8.554 8.294 1.812 3.37 2.724 7.432 2.724 12.182 0 8.896 -3.112 15.44 -9.331 19.631 -6.219 4.191 -14.3 6.285 -24.233 6.285H154.775c-0.607 0 -1.08 -0.174 -1.425 -0.517 -0.347 -0.344 -0.517 -0.822 -0.517 -1.425V112.897c0 -0.603 0.17 -1.081 0.517 -1.425 0.345 -0.344 0.822 -0.517 1.425 -0.517h33.693c11.059 0 19.376 1.964 24.948 5.897 5.572 3.932 8.357 10.516 8.357 19.76 0 8.209 -3.286 14.167 -9.849 17.881 -0.348 0.259 -0.348 0.517 0 0.777Zm-34.729 -22.804v12.958c0 0.433 0.215 0.647 0.648 0.647h10.625c6.304 0 9.461 -2.375 9.461 -7.129s-3.156 -7.128 -9.461 -7.128h-10.625c-0.433 0 -0.648 0.219 -0.648 0.647Zm21.644 40.686c0 -4.839 -3.028 -7.258 -9.072 -7.258h-11.925c-0.433 0 -0.648 0.219 -0.648 0.647v13.605c0 0.433 0.215 0.647 0.648 0.647h11.795c6.134 0 9.201 -2.549 9.201 -7.646Zm95.638 -41.855c-0.348 0.348 -0.822 0.517 -1.425 0.517h-38.747c-0.433 0 -0.648 0.219 -0.648 0.647v12.182c0 0.433 0.215 0.647 0.648 0.647h23.973c0.603 0 1.081 0.175 1.425 0.519 0.344 0.347 0.517 0.821 0.517 1.424v16.846c0 0.607 -0.174 1.08 -0.517 1.424 -0.348 0.348 -0.822 0.517 -1.425 0.517h-23.973c-0.433 0 -0.648 0.219 -0.648 0.647v13.476c0 0.433 0.215 0.648 0.648 0.648h38.747c0.603 0 1.081 0.174 1.425 0.517 0.344 0.348 0.517 0.822 0.517 1.424v16.976c0 0.606 -0.174 1.08 -0.517 1.423 -0.348 0.348 -0.822 0.517 -1.425 0.517H231.239c-0.608 0 -1.08 -0.174 -1.424 -0.517 -0.348 -0.344 -0.519 -0.822 -0.519 -1.423V112.883c0 -0.603 0.17 -1.08 0.519 -1.423 0.344 -0.344 0.821 -0.519 1.424 -0.519h61.815c0.603 0 1.081 0.175 1.425 0.519 0.344 0.348 0.517 0.821 0.517 1.423v16.976c0 0.607 -0.174 1.08 -0.517 1.424Zm5.96 69.838c-0.348 -0.344 -0.518 -0.822 -0.518 -1.424V112.888c0 -0.603 0.169 -1.08 0.518 -1.424 0.344 -0.344 0.822 -0.519 1.425 -0.519h20.473c0.603 0 1.081 0.175 1.425 0.519 0.344 0.347 0.517 0.821 0.517 1.424v67.249c0 0.433 0.214 0.647 0.648 0.647h40.046c0.602 0 1.08 0.175 1.424 0.519 0.344 0.348 0.517 0.821 0.517 1.423v16.976c0 0.607 -0.174 1.08 -0.517 1.424 -0.348 0.348 -0.822 0.517 -1.424 0.517H301.858c-0.608 0 -1.081 -0.174 -1.425 -0.517Zm73.025 -1.875c-2.291 -2.289 -3.433 -5.205 -3.433 -8.744s1.142 -6.561 3.433 -8.811c2.286 -2.245 5.206 -3.37 8.747 -3.37 3.539 0 6.455 1.125 8.745 3.37 2.286 2.245 3.433 5.183 3.433 8.811 0 3.63 -1.164 6.347 -3.5 8.681 -2.33 2.335 -5.228 3.5 -8.683 3.5 -3.456 0 -6.46 -1.144 -8.747 -3.433Zm0 0"/></svg>