<svg xmlns="http://www.w3.org/2000/svg" version="1" viewBox="4.9 4.9 391.998 58.8" width="391.998" height="70"><path d="m33.599 59.479 -8.811 -20.331c-0.11 -0.209 -0.273 -0.318 -0.481 -0.318h-3.361c-0.264 0 -0.406 0.132 -0.406 0.405V59.162c0 0.371 -0.109 0.666 -0.317 0.874 -0.219 0.219 -0.504 0.318 -0.888 0.318H6.685c-0.371 0 -0.667 -0.11 -0.887 -0.318s-0.318 -0.503 -0.318 -0.874V5.525c0 -0.372 0.111 -0.667 0.318 -0.886 0.209 -0.209 0.503 -0.318 0.887 -0.318h24.266c3.634 0 6.819 0.744 9.577 2.241 2.747 1.498 4.881 3.589 6.414 6.29 1.522 2.69 2.288 5.807 2.288 9.329s-0.865 6.606 -2.605 9.242c-1.74 2.647 -4.127 4.572 -7.17 5.807 -0.263 0.111 -0.35 0.296 -0.241 0.558l10.168 21.131c0.109 0.317 0.164 0.503 0.164 0.558a0.761 0.761 0 0 1 -0.317 0.634c-0.22 0.164 -0.483 0.241 -0.799 0.241H34.968c-0.69 0 -1.151 -0.296 -1.357 -0.875zM20.541 17.611v9.362c0 0.264 0.132 0.406 0.406 0.406h7.53c1.706 0 3.097 -0.471 4.17 -1.4 1.073 -0.929 1.598 -2.143 1.598 -3.643 0 -1.498 -0.536 -2.789 -1.598 -3.718 -1.072 -0.93 -2.452 -1.4 -4.17 -1.4h-7.53c-0.263 0 -0.406 0.131 -0.406 0.405zm72.5 -0.722c-0.219 0.219 -0.504 0.318 -0.875 0.318H68.217c-0.264 0 -0.406 0.131 -0.406 0.405v7.524c0 0.263 0.132 0.406 0.406 0.406h14.819c0.371 0 0.667 0.109 0.887 0.317 0.209 0.219 0.317 0.503 0.317 0.875v10.401c0 0.371 -0.109 0.667 -0.317 0.887 -0.209 0.219 -0.504 0.317 -0.888 0.317H68.217c-0.264 0 -0.406 0.131 -0.406 0.405v8.324c0 0.273 0.132 0.405 0.406 0.405h23.948c0.371 0 0.667 0.11 0.875 0.318 0.209 0.219 0.318 0.503 0.318 0.885v10.489c0 0.371 -0.11 0.666 -0.318 0.875 -0.209 0.209 -0.504 0.318 -0.875 0.318h-38.22c-0.372 0 -0.668 -0.11 -0.887 -0.318 -0.219 -0.209 -0.318 -0.503 -0.318 -0.874V5.525c0 -0.372 0.11 -0.667 0.318 -0.886 0.209 -0.209 0.504 -0.318 0.887 -0.318h38.21c0.371 0 0.667 0.111 0.875 0.318 0.209 0.219 0.317 0.503 0.317 0.886v10.477c0 0.373 -0.109 0.667 -0.317 0.887zm18.345 43.181a1.096 1.096 0 0 1 -0.482 -0.765L95.12 5.68a0.902 0.902 0 0 1 -0.076 -0.406c0 -0.645 0.371 -0.962 1.116 -0.962h13.703c0.689 0 1.116 0.35 1.281 1.039l8.011 33.784c0.054 0.219 0.131 0.318 0.241 0.318 0.109 0 0.186 -0.11 0.241 -0.318l7.77 -33.784c0.165 -0.689 0.591 -1.039 1.281 -1.039h13.374c0.426 0 0.734 0.121 0.92 0.362 0.186 0.241 0.229 0.568 0.121 1.006l-15.937 53.635c-0.055 0.317 -0.219 0.568 -0.481 0.765a1.502 1.502 0 0 1 -0.887 0.284h-13.539a1.426 1.426 0 0 1 -0.875 -0.284zm62.803 -0.59 -8.811 -20.331c-0.109 -0.209 -0.273 -0.318 -0.481 -0.318h-3.36c-0.262 0 -0.405 0.132 -0.405 0.405v19.928c0 0.371 -0.11 0.666 -0.318 0.874 -0.219 0.219 -0.503 0.318 -0.887 0.318h-12.652c-0.373 0 -0.668 -0.11 -0.888 -0.318 -0.219 -0.209 -0.317 -0.503 -0.317 -0.874V5.525c0 -0.372 0.109 -0.667 0.317 -0.886 0.209 -0.209 0.504 -0.318 0.888 -0.318h24.275c3.634 0 6.819 0.744 9.577 2.241 2.747 1.498 4.881 3.589 6.414 6.29 1.522 2.69 2.287 5.807 2.287 9.329s-0.863 6.606 -2.604 9.242c-1.74 2.647 -4.127 4.572 -7.17 5.807 -0.263 0.111 -0.35 0.296 -0.241 0.558l10.167 21.131c0.109 0.317 0.164 0.503 0.164 0.558a0.759 0.759 0 0 1 -0.318 0.634c-0.219 0.164 -0.481 0.241 -0.798 0.241h-13.462c-0.69 0 -1.151 -0.296 -1.358 -0.875zm-13.056 -41.867v9.362c0 0.264 0.131 0.406 0.405 0.406h7.53c1.707 0 3.097 -0.471 4.17 -1.4 1.073 -0.929 1.597 -2.143 1.597 -3.643 0 -1.498 -0.536 -2.789 -1.597 -3.718 -1.073 -0.93 -2.452 -1.4 -4.17 -1.4h-7.53c-0.262 0 -0.405 0.131 -0.405 0.405zm72.489 -0.722c-0.219 0.219 -0.504 0.318 -0.875 0.318H208.798c-0.264 0 -0.406 0.131 -0.406 0.405v7.524c0 0.263 0.132 0.406 0.406 0.406h14.819c0.373 0 0.667 0.109 0.888 0.317 0.208 0.219 0.317 0.503 0.317 0.875v10.401c0 0.371 -0.109 0.667 -0.317 0.887 -0.208 0.219 -0.504 0.317 -0.887 0.317h-14.819c-0.264 0 -0.406 0.131 -0.406 0.405v8.324c0 0.273 0.132 0.405 0.406 0.405h23.948c0.371 0 0.667 0.11 0.875 0.318 0.22 0.219 0.318 0.503 0.318 0.885v10.489c0 0.371 -0.11 0.666 -0.318 0.875 -0.219 0.219 -0.504 0.318 -0.875 0.318h-38.21c-0.371 0 -0.667 -0.11 -0.886 -0.318 -0.22 -0.209 -0.318 -0.503 -0.318 -0.874V5.525c0 -0.372 0.11 -0.667 0.318 -0.886 0.207 -0.209 0.503 -0.318 0.886 -0.318h38.209c0.371 0 0.667 0.111 0.875 0.318 0.22 0.219 0.318 0.503 0.318 0.886v10.477c0 0.373 -0.11 0.667 -0.318 0.887zm39.895 14.81c2.409 1.334 4.17 3.04 5.287 5.119 1.117 2.077 1.687 4.592 1.687 7.524 0 5.502 -1.927 9.536 -5.768 12.129 -3.842 2.593 -8.844 3.883 -14.984 3.883h-21.551c-0.371 0 -0.667 -0.11 -0.875 -0.318 -0.219 -0.209 -0.318 -0.503 -0.318 -0.874V5.525c0 -0.372 0.11 -0.667 0.318 -0.886 0.209 -0.209 0.504 -0.318 0.875 -0.318h20.829c6.839 0 11.974 1.214 15.421 3.643 3.448 2.427 5.167 6.496 5.167 12.206 0 5.075 -2.025 8.75 -6.086 11.047 -0.219 0.164 -0.219 0.317 0 0.481zm-21.462 -14.087v8.006c0 0.263 0.131 0.405 0.405 0.405h6.567c3.896 0 5.846 -1.464 5.846 -4.407s-1.948 -4.408 -5.846 -4.408h-6.567c-0.262 0 -0.405 0.131 -0.405 0.405zm13.374 25.134c0 -2.986 -1.871 -4.483 -5.604 -4.483h-7.367c-0.262 0 -0.405 0.131 -0.405 0.405v8.4c0 0.273 0.131 0.405 0.405 0.405h7.289c3.788 0 5.692 -1.575 5.692 -4.725zm59.115 -25.856c-0.219 0.219 -0.504 0.318 -0.887 0.318h-23.949c-0.262 0 -0.405 0.131 -0.405 0.405v7.524c0 0.263 0.131 0.406 0.405 0.406h14.82c0.371 0 0.667 0.109 0.887 0.317 0.209 0.219 0.318 0.503 0.318 0.875v10.401c0 0.371 -0.111 0.667 -0.318 0.887 -0.219 0.219 -0.503 0.317 -0.886 0.317h-14.82c-0.262 0 -0.405 0.131 -0.405 0.405v8.324c0 0.273 0.131 0.405 0.405 0.405h23.949c0.371 0 0.667 0.11 0.887 0.318 0.209 0.219 0.318 0.503 0.318 0.885v10.489c0 0.371 -0.11 0.666 -0.318 0.875 -0.219 0.219 -0.504 0.318 -0.887 0.318h-38.209c-0.372 0 -0.668 -0.11 -0.876 -0.318 -0.219 -0.209 -0.317 -0.503 -0.317 -0.874V5.525c0 -0.372 0.11 -0.667 0.317 -0.886 0.209 -0.209 0.504 -0.318 0.876 -0.318h38.209c0.371 0 0.667 0.111 0.887 0.318 0.209 0.219 0.318 0.503 0.318 0.886v10.477c0 0.373 -0.11 0.667 -0.318 0.887zm3.689 43.147c-0.219 -0.209 -0.318 -0.503 -0.318 -0.874V5.525c0 -0.372 0.111 -0.667 0.318 -0.886 0.209 -0.209 0.504 -0.318 0.875 -0.318h12.652c0.373 0 0.668 0.111 0.875 0.318 0.209 0.219 0.318 0.503 0.318 0.886v41.539c0 0.273 0.131 0.405 0.406 0.405h24.758c0.371 0 0.667 0.11 0.875 0.318 0.209 0.219 0.317 0.503 0.317 0.885v10.489c0 0.371 -0.109 0.666 -0.317 0.875 -0.209 0.209 -0.504 0.318 -0.875 0.318h-39.01c-0.371 0 -0.667 -0.11 -0.875 -0.318zm45.138 -1.159c-1.412 -1.41 -2.124 -3.214 -2.124 -5.403 0 -2.186 0.711 -4.057 2.124 -5.447 1.412 -1.389 3.217 -2.077 5.407 -2.077s3.994 0.689 5.407 2.077c1.412 1.39 2.123 3.205 2.123 5.447s-0.722 3.926 -2.167 5.36 -3.229 2.166 -5.363 2.166c-2.134 0 -3.994 -0.711 -5.407 -2.123zm0 0"/></svg>