<svg viewBox="0 0 16 8.11" xmlns="http://www.w3.org/2000/svg" class="a"><style>.b{fill: currentColor;}.a{}</style><g transform="translate(0-.055)" class="a"><path d="M14.27 4.63h-.21v0c-.94 0-1.85-.31-2.59-.86l-1.16 1.17 -.67-.66 1.1-1.1 -.55-.46L9 3.93l-.66-.66 1.13-1.15 -.55-.46 -1.26 1.27L7 2.26l1.2-1.2L7.13.17l0 0c-.14-.12-.31-.18-.48-.17h0c-.42 0-.75.33-.75.75v.41 0c0 1.34-1.09 2.43-2.43 2.43v0c-.95-.01-1.81-.56-2.21-1.41l-.11-.24v0c-.11-.22-.32-.35-.55-.35v0c-.34 0-.6.26-.6.6v4h16 -.001c-.1-.89-.84-1.56-1.73-1.56Z" class="b"/><path d="M.18 7.14h0c.28.6.88.99 1.56 1h12.52v0c.67-.01 1.27-.4 1.56-1Z" class="b"/></g></svg>