<svg viewBox="0 0 21 20.27" xmlns="http://www.w3.org/2000/svg" class="a"><style>.b{fill: currentColor;}.a{}</style><path d="M4.43 12.58h12v0c-.24.41-.67.66-1.14.66H5.56v0c-.47 0-.91-.26-1.13-.66Zm10.87-1.95h-.001c-.78.02-1.54-.2-2.17-.63l-.87.87 -.58-.58 .82-.81 -.36-.3 -.91.91 -.58-.58 .86-.86 -.36-.29 -1 .95 -.58-.58 .9-.9 -.79-.66v0c-.24-.19-.58-.16-.76.07 -.08.09-.12.21-.13.33v.32 0c-.13 1.09-1.13 1.88-2.23 1.75 -.69-.09-1.28-.51-1.57-1.13v0c-.12-.22-.38-.3-.59-.19 -.14.07-.23.2-.23.36v3.07h12.4v-.001c-.08-.66-.64-1.16-1.3-1.15Zm5.68-6L20 15.87v0c-.26 2.5-2.36 4.4-4.87 4.4v0l-9.7-.1h-.15 -.001C2.84 20 .9 18.09.71 15.67L-.01 4.41l0 0C-.19 2.15 1.49.18 3.74.01c.14-.02.28-.02.43-.02h1.31l9.88.11h1.52v0c2.25-.02 4.1 1.79 4.12 4.05 0 .15-.01.3-.03.46Zm-3.55 7.3v0c0-1.18-.96-2.13-2.13-2.13v0c-.67.03-1.32-.18-1.83-.6l-3.22-2.68h0c-.58-.51-1.45-.45-1.95.13 -.3.33-.41.79-.31 1.22v0c-.03.62-.57 1.11-1.19 1.08 -.49-.03-.91-.35-1.05-.81H5.74c-.31-.62-1.06-.88-1.68-.57 -.42.2-.69.62-.7 1.09v3.24H3.36c0 1.17.95 2.13 2.13 2.13h9.77v0c1.17 0 2.13-.96 2.13-2.13Z" transform="translate(0-.135)" class="b"/></svg>