<svg viewBox="0 0 24 24" xmlns="http://www.w3.org/2000/svg" class="a"><style>.b{fill: currentColor;}.a{}</style><path d="M7.48 14.89h9.04c.45 0 .85-.25 1.06-.62H6.42c.21.37.6.62 1.06.62Z" class="b"/><path d="M16.52 12.45h-.15c-.67 0-1.32-.21-1.86-.6l-.82.82 -.54-.54 .76-.76 -.33-.28 -.85.85 -.54-.54 .8-.8 -.33-.28 -.89.89 -.54-.54 .84-.84 -.73-.61c-.09-.07-.2-.12-.32-.12 -.27 0-.5.22-.5.5v.29c0 .99-.81 1.8-1.8 1.8 -.7 0-1.34-.41-1.63-1.04l-.08-.18c-.06-.14-.2-.23-.36-.23 -.22 0-.39.18-.39.39v2.85h11.47c-.08-.59-.59-1.05-1.21-1.05Z" class="b"/><path d="M12 .98C5.75.98.68 5.91.68 12c0 6.09 5.07 11.02 11.32 11.02s11.32-4.93 11.32-11.02C23.32 5.91 18.25.98 12 .98Zm4.52 14.67H7.48c-1.09 0-1.98-.89-1.98-1.98v-3.02c0-.64.52-1.15 1.15-1.15 .45 0 .86.26 1.05.67l.08.18c.17.36.54.6.94.6 .57 0 1.04-.47 1.04-1.04v-.29c0-.69.57-1.26 1.26-1.26 .29 0 .58.1.81.29l2.99 2.49c.43.36.98.56 1.55.56h.15c1.09 0 1.98.89 1.98 1.98 0 1.09-.89 1.98-1.98 1.98Z" class="b"/></svg>