<svg viewBox="0 0 16 8.98" xmlns="http://www.w3.org/2000/svg" class="a"><style>.b{fill: currentColor;}.a{}</style><path d="M13.57 4.11h-.19v0c-.7-.01-1.38-.25-1.91-.69L7.79.36v0C7.13-.19 6.15-.1 5.6.56c-.24.27-.36.62-.36.98v.36 0c-.01.7-.58 1.27-1.29 1.27 -.5-.01-.95-.29-1.16-.74l-.1-.22h0c-.24-.5-.74-.82-1.29-.82l0 0c-.79 0-1.42.63-1.42 1.42v3.72H-.03c-.02 1.34 1.06 2.43 2.4 2.44 0 0 .01 0 .02 0h11.14 0c1.34-.09 2.36-1.25 2.27-2.6 -.08-1.23-1.06-2.21-2.28-2.28Zm0 3.93H2.43v0c-.54 0-1.04-.29-1.3-.75h13.74v0c-.28.44-.78.71-1.3.71ZM.94 6.35V2.83h0c0-.27.21-.48.48-.48l0 0c.18 0 .35.1.44.28l.1.22h0c.52 1.11 1.84 1.58 2.95 1.06 .77-.37 1.27-1.15 1.27-2.01v-.36 0c0-.34.27-.61.61-.61h0c.14 0 .27.04.39.14l.9.75 -1 1 .66.66 1.07-1.06 .41.34 -1 1 .67.67 1-1 .41.34 -.94.94 .66.66 1-1V4.36c.66.48 1.46.74 2.29.74h.19V5.1c.74 0 1.37.56 1.48 1.3Z" transform="translate(0 .00999)" class="b"/></svg>