<svg xmlns="http://www.w3.org/2000/svg" xmlns:xlink="http://www.w3.org/1999/xlink" width="300" height="294.621" version="1.0" viewBox="0 0 225 220.966"><defs><path id="reuse-0" d="M164.142 160.207h49.57v49.568H164.142Zm0 0"/><path id="reuse-1" d="M19.994 115.259h49.57v49.568H19.994Zm0 0"/><path id="reuse-2" d="M162.79 18.874h49.57v49.57H162.79Zm0 0"/><path id="reuse-3" d="m70.864 68.062 22.106 20.539 -4.46 4.799 -22.105 -20.539Zm0 0"/><path id="reuse-4" d="M11.187 10.776H83.371v72.184H11.187Zm0 0"/><path id="reuse-5" d="m138.22 89.163 20.882 -21.781 4.73 4.534 -20.884 21.781Zm0 0"/><path id="reuse-6" d="m142.036 138.048 22.106 20.539 -4.46 4.799 -22.105 -20.539Zm0 0"/><path id="reuse-7" d="M164.142 104.947h23.99v23.99h-23.99Zm0 0"/><path id="reuse-8" d="m70.13 126.546 18.01 -3.094 1.111 6.457 -18.01 3.094Zm0 0"/></defs><defs><clipPath id="a"><use xlink:href="#reuse-0"/></clipPath><clipPath id="b"><path d="M188.926 160.207c-13.687 0 -24.784 11.096 -24.784 24.784 0 13.69 11.096 24.784 24.784 24.784 13.689 0 24.786 -11.095 24.786 -24.784 0 -13.688 -11.097 -24.784 -24.786 -24.784Zm0 0"/></clipPath><clipPath id="c"><path d="M164.142 160.207h49.563v49.561H164.142Zm0 0"/></clipPath><clipPath id="d"><path d="M188.926 160.207c-13.687 0 -24.784 11.096 -24.784 24.784 0 13.688 11.096 24.782 24.784 24.782s24.784 -11.095 24.784 -24.782c0 -13.688 -11.097 -24.784 -24.784 -24.784Zm0 0"/></clipPath><clipPath id="e"><use xlink:href="#reuse-1"/></clipPath><clipPath id="f"><path d="M44.779 115.259c-13.687 0 -24.784 11.096 -24.784 24.784 0 13.688 11.097 24.784 24.784 24.784 13.689 0 24.785 -11.096 24.785 -24.784 0 -13.688 -11.096 -24.784 -24.785 -24.784Zm0 0"/></clipPath><clipPath id="g"><path d="M19.994 115.259h49.563v49.561H19.994Zm0 0"/></clipPath><clipPath id="h"><path d="M44.779 115.259c-13.687 0 -24.784 11.095 -24.784 24.782 0 13.69 11.097 24.784 24.784 24.784s24.784 -11.095 24.784 -24.784c0 -13.688 -11.096 -24.782 -24.784 -24.782Zm0 0"/></clipPath><clipPath id="i"><use xlink:href="#reuse-2"/></clipPath><clipPath id="j"><path d="M187.576 18.874c-13.689 0 -24.786 11.097 -24.786 24.784 0 13.689 11.097 24.785 24.786 24.785 13.687 0 24.784 -11.096 24.784 -24.785 0 -13.687 -11.096 -24.784 -24.784 -24.784Zm0 0"/></clipPath><clipPath id="k"><path d="M162.79 18.874h49.563v49.563H162.79Zm0 0"/></clipPath><clipPath id="l"><path d="M187.574 18.874c-13.687 0 -24.784 11.097 -24.784 24.784s11.097 24.784 24.784 24.784 24.784 -11.096 24.784 -24.784 -11.096 -24.784 -24.784 -24.784Zm0 0"/></clipPath><clipPath id="m"><path d="M66.207 67.862h26.897v25.655h-26.897Zm0 0"/></clipPath><clipPath id="n"><use xlink:href="#reuse-3"/></clipPath><clipPath id="o"><path d="m70.864 68.062 22.106 20.538 -4.461 4.801 -22.104 -20.539Zm0 0"/></clipPath><clipPath id="p"><use xlink:href="#reuse-4"/></clipPath><clipPath id="q"><path d="M47.279 10.776c-19.933 0 -36.092 16.159 -36.092 36.092 0 19.933 16.159 36.092 36.092 36.092 19.933 0 36.092 -16.159 36.092 -36.092s-16.159 -36.092 -36.092 -36.092Zm0 0"/></clipPath><clipPath id="r"><path d="M11.187 10.776h72.175v72.175H11.187Zm0 0"/></clipPath><clipPath id="s"><path d="M47.276 10.776c-19.932 0 -36.089 16.157 -36.089 36.091 0 19.932 16.157 36.089 36.089 36.089 19.933 0 36.091 -16.157 36.091 -36.089 0 -19.933 -16.157 -36.091 -36.091 -36.091Zm0 0"/></clipPath><clipPath id="t"><path d="M138.207 67.034h25.655v26.897h-25.655Zm0 0"/></clipPath><clipPath id="u"><use xlink:href="#reuse-5"/></clipPath><clipPath id="v"><path d="m138.22 89.163 20.882 -21.781 4.73 4.535 -20.884 21.78Zm0 0"/></clipPath><clipPath id="w"><path d="M137.379 137.793h26.897v25.655h-26.897Zm0 0"/></clipPath><clipPath id="x"><use xlink:href="#reuse-6"/></clipPath><clipPath id="y"><path d="m142.036 138.048 22.104 20.538 -4.459 4.801 -22.104 -20.539Zm0 0"/></clipPath><clipPath id="z"><use xlink:href="#reuse-7"/></clipPath><clipPath id="A"><path d="M176.137 104.947c-6.624 0 -11.995 5.371 -11.995 11.995 0 6.626 5.371 11.995 11.995 11.995 6.626 0 11.995 -5.37 11.995 -11.995 0 -6.624 -5.369 -11.995 -11.995 -11.995Zm0 0"/></clipPath><clipPath id="B"><path d="M164.142 104.947h23.851v23.853h-23.851Zm0 0"/></clipPath><clipPath id="C"><path d="M176.135 104.947c-6.624 0 -11.993 5.37 -11.993 11.993 0 6.624 5.369 11.994 11.993 11.994 6.624 0 11.994 -5.37 11.994 -11.994 0 -6.624 -5.37 -11.993 -11.994 -11.993Zm0 0"/></clipPath><clipPath id="D"><path d="M69.931 123.31h19.448v9.931h-19.448Zm0 0"/></clipPath><clipPath id="E"><use xlink:href="#reuse-8"/></clipPath><clipPath id="F"><path d="m70.13 126.546 18.007 -3.094 1.109 6.457 -18.005 3.094Zm0 0"/></clipPath><clipPath id="G"><path d="M96 93.401h43.862v42.127H96Zm0 0"/></clipPath><clipPath id="H"><path d="M173.68 41.793H175.034v3.724h-1.354Zm0 0"/></clipPath><clipPath id="I"><path d="M184.966 30.362h1.655v26.64h-1.655Zm0 0"/></clipPath><clipPath id="J"><path d="M201.103 41.793h1.384v3.724H201.103Zm0 0"/></clipPath><clipPath id="K"><path d="M25.986 44.276H28.138v5.793h-2.152Zm0 0"/></clipPath><clipPath id="L"><path d="M44.276 25.879h2.069v42.436h-2.069Zm0 0"/></clipPath><clipPath id="M"><path d="M70.345 44.276h1.796v5.793H70.345Zm0 0"/></clipPath><clipPath id="N"><path d="M30.327 140.276H31.862v3.724h-1.535Zm0 0"/></clipPath><clipPath id="O"><path d="M41.793 128.937h1.655v26.641h-1.655Zm0 0"/></clipPath><clipPath id="P"><path d="M57.931 140.276h1.202v3.724H57.931Zm0 0"/></clipPath><clipPath id="Q"><path d="M172.945 182.897H174.621v4.138h-1.676Zm0 0"/></clipPath><clipPath id="R"><path d="M185.379 170.289h1.655v29.428h-1.655Zm0 0"/></clipPath><clipPath id="S"><path d="M203.586 182.897h1.264v4.138H203.586Zm0 0"/></clipPath><clipPath id="T"><path d="M169.217 115.862H170.069v2.069h-0.852Zm0 0"/></clipPath><clipPath id="U"><path d="M174.621 110.669h0.828v12.699h-0.828Zm0 0"/></clipPath><clipPath id="V"><path d="M182.483 115.862h0.674v2.069H182.483Zm0 0"/></clipPath></defs><g clip-path="url(#a)"><g clip-path="url(#b)"><use xlink:href="#reuse-0"/></g></g><g clip-path="url(#c)"><g clip-path="url(#d)"><path fill="none" stroke="#000" stroke-width="4.3367172413793105" d="M188.926 160.207c-13.687 0 -24.784 11.096 -24.784 24.784 0 13.688 11.096 24.782 24.784 24.782s24.784 -11.095 24.784 -24.782c0 -13.688 -11.097 -24.784 -24.784 -24.784Zm0 0"/></g></g><g clip-path="url(#e)"><g clip-path="url(#f)"><use xlink:href="#reuse-1"/></g></g><g clip-path="url(#g)"><g clip-path="url(#h)"><path fill="none" stroke="#000" stroke-width="4.3367172413793105" d="M44.779 115.259c-13.687 0 -24.784 11.095 -24.784 24.782 0 13.69 11.097 24.784 24.784 24.784s24.784 -11.095 24.784 -24.784c0 -13.688 -11.096 -24.782 -24.784 -24.782Zm0 0"/></g></g><g clip-path="url(#i)"><g clip-path="url(#j)"><use xlink:href="#reuse-2"/></g></g><g clip-path="url(#k)"><g clip-path="url(#l)"><path fill="none" stroke="#000" stroke-width="4.3367172413793105" d="M187.574 18.874c-13.687 0 -24.784 11.097 -24.784 24.784s11.097 24.784 24.784 24.784 24.784 -11.096 24.784 -24.784 -11.096 -24.784 -24.784 -24.784Zm0 0"/></g></g><g clip-path="url(#m)"><g clip-path="url(#n)"><g clip-path="url(#o)"><use xlink:href="#reuse-3"/></g></g></g><g clip-path="url(#p)"><g clip-path="url(#q)"><use xlink:href="#reuse-4"/></g></g><g clip-path="url(#r)"><g clip-path="url(#s)"><path fill="none" stroke="#000" stroke-width="4.3367172413793105" d="M47.276 10.776c-19.932 0 -36.089 16.157 -36.089 36.091 0 19.932 16.157 36.089 36.089 36.089 19.933 0 36.091 -16.157 36.091 -36.089 0 -19.933 -16.157 -36.091 -36.091 -36.091Zm0 0"/></g></g><g clip-path="url(#t)"><g clip-path="url(#u)"><g clip-path="url(#v)"><use xlink:href="#reuse-5"/></g></g></g><g clip-path="url(#w)"><g clip-path="url(#x)"><g clip-path="url(#y)"><use xlink:href="#reuse-6"/></g></g></g><g clip-path="url(#z)"><g clip-path="url(#A)"><use xlink:href="#reuse-7"/></g></g><g clip-path="url(#B)"><g clip-path="url(#C)"><path fill="none" stroke="#000" stroke-width="4.3367172413793105" d="M176.135 104.947c-6.624 0 -11.993 5.37 -11.993 11.993 0 6.624 5.369 11.994 11.993 11.994 6.624 0 11.994 -5.37 11.994 -11.994 0 -6.624 -5.37 -11.993 -11.994 -11.993Zm0 0"/></g></g><g clip-path="url(#D)"><g clip-path="url(#E)"><g clip-path="url(#F)"><use xlink:href="#reuse-8"/></g></g></g><g clip-path="url(#G)"><path d="M117.939 93.401a21.244 21.244 0 0 0 -2.103 0.074c-0.7 0.058 -1.397 0.152 -2.087 0.278 -0.69 0.128 -1.374 0.288 -2.048 0.482a20.917 20.917 0 0 0 -1.991 0.677 21.45 21.45 0 0 0 -5.446 3.142 21.346 21.346 0 0 0 -1.579 1.384 21.019 21.019 0 0 0 -1.435 1.529 21.524 21.524 0 0 0 -1.279 1.663 21.504 21.504 0 0 0 -1.109 1.779 21.162 21.162 0 0 0 -1.665 3.839 21.158 21.158 0 0 0 -0.883 4.09 21.349 21.349 0 0 0 -0.136 2.088 21.463 21.463 0 0 0 0.475 4.154 20.712 20.712 0 0 0 0.543 2.022 21.193 21.193 0 0 0 0.737 1.961 21.774 21.774 0 0 0 0.928 1.879 20.978 20.978 0 0 0 1.109 1.779 21.218 21.218 0 0 0 1.279 1.663 21.043 21.043 0 0 0 1.435 1.531 21.729 21.729 0 0 0 1.579 1.384 21.896 21.896 0 0 0 1.709 1.224 21.895 21.895 0 0 0 1.822 1.051 21.705 21.705 0 0 0 1.915 0.868 21.381 21.381 0 0 0 1.991 0.677c0.674 0.194 1.358 0.354 2.048 0.48a21.56 21.56 0 0 0 4.19 0.354 21.527 21.527 0 0 0 4.188 -0.354 21.036 21.036 0 0 0 2.048 -0.48 21.228 21.228 0 0 0 3.905 -1.547 21.173 21.173 0 0 0 1.82 -1.051 20.878 20.878 0 0 0 1.707 -1.224 21.427 21.427 0 0 0 3.014 -2.914 21.598 21.598 0 0 0 1.277 -1.663 21.176 21.176 0 0 0 1.106 -1.778 20.673 20.673 0 0 0 0.926 -1.88 21.338 21.338 0 0 0 0.737 -1.959 20.884 20.884 0 0 0 0.54 -2.023c0.147 -0.682 0.26 -1.371 0.339 -2.064 0.078 -0.695 0.123 -1.39 0.132 -2.088a21.459 21.459 0 0 0 -0.132 -2.088 21.319 21.319 0 0 0 -1.616 -6.048 21.469 21.469 0 0 0 -2.032 -3.658 21.598 21.598 0 0 0 -1.277 -1.663 21.439 21.439 0 0 0 -4.721 -4.136 21.623 21.623 0 0 0 -1.82 -1.052 21.674 21.674 0 0 0 -1.914 -0.868 21.072 21.072 0 0 0 -1.991 -0.677 21.526 21.526 0 0 0 -2.048 -0.482 21.523 21.523 0 0 0 -2.085 -0.278 21.226 21.226 0 0 0 -2.103 -0.074Zm-6.92 28.022a0.166 0.166 0 0 1 -0.044 0.115 0.163 0.163 0 0 1 -0.11 0.057 0.166 0.166 0 0 1 -0.123 -0.05 0.165 0.165 0 0 1 -0.05 -0.121v-5.887a0.172 0.172 0 0 1 0.173 -0.173 0.171 0.171 0 0 1 0.154 0.173Zm0.77 -0.689a0.161 0.161 0 0 1 -0.052 0.121 0.164 0.164 0 0 1 -0.121 0.052h-0.058a0.167 0.167 0 0 1 -0.123 -0.052 0.16 0.16 0 0 1 -0.05 -0.121v-4.397c0 -0.048 0.016 -0.092 0.05 -0.127 0.033 -0.037 0.074 -0.058 0.123 -0.063a0.186 0.186 0 0 1 0.124 0.063 0.185 0.185 0 0 1 0.049 0.127Zm0.75 -0.802a0.129 0.129 0 0 1 -0.039 0.115 0.13 0.13 0 0 1 -0.116 0.037 0.128 0.128 0 0 1 -0.115 -0.037 0.129 0.129 0 0 1 -0.038 -0.115v-2.906a0.153 0.153 0 0 1 0.045 -0.108 0.153 0.153 0 0 1 0.218 0c0.029 0.031 0.046 0.066 0.046 0.108Zm0.768 0.687a0.172 0.172 0 0 1 -0.294 0.123 0.167 0.167 0 0 1 -0.052 -0.123v-4.282a0.172 0.172 0 0 1 0.173 -0.19 0.17 0.17 0 0 1 0.13 0.056 0.161 0.161 0 0 1 0.043 0.134Zm0.75 0.459c0 0.05 -0.017 0.092 -0.05 0.129a0.188 0.188 0 0 1 -0.123 0.061 0.177 0.177 0 0 1 -0.112 -0.068 0.178 0.178 0 0 1 -0.042 -0.123v-5.198a0.171 0.171 0 0 1 0.153 -0.173 0.172 0.172 0 0 1 0.173 0.173Zm0.77 1.644a0.185 0.185 0 0 1 -0.057 0.136 0.184 0.184 0 0 1 -0.136 0.055 0.169 0.169 0 0 1 -0.144 -0.048 0.166 0.166 0 0 1 -0.049 -0.142V114.236a0.164 0.164 0 0 1 0.049 -0.142 0.166 0.166 0 0 1 0.144 -0.05c0.054 0 0.099 0.019 0.136 0.057 0.037 0.037 0.057 0.083 0.057 0.136Zm0.748 -1.414a0.163 0.163 0 0 1 -0.049 0.142 0.167 0.167 0 0 1 -0.142 0.048 0.19 0.19 0 0 1 -0.137 -0.055 0.184 0.184 0 0 1 -0.055 -0.136V115.572a0.192 0.192 0 0 1 0.192 -0.19 0.164 0.164 0 0 1 0.142 0.05 0.158 0.158 0 0 1 0.048 0.141Zm0.77 0.44a0.202 0.202 0 0 1 -0.055 0.142 0.204 0.204 0 0 1 -0.137 0.068 0.183 0.183 0 0 1 -0.142 -0.063 0.184 0.184 0 0 1 -0.05 -0.147v-6.537a0.161 0.161 0 0 1 0.05 -0.142 0.162 0.162 0 0 1 0.142 -0.05c0.054 0 0.098 0.019 0.136 0.057 0.039 0.037 0.057 0.082 0.057 0.136Zm0.75 -2.064a0.128 0.128 0 0 1 -0.039 0.094 0.128 0.128 0 0 1 -0.095 0.041h-0.136a0.149 0.149 0 0 1 -0.102 -0.039 0.148 0.148 0 0 1 -0.052 -0.095v-2.408a0.152 0.152 0 0 1 0.154 -0.134h0.136a0.133 0.133 0 0 1 0.134 0.134Zm0.75 0.65a0.167 0.167 0 0 1 -0.037 0.128 0.168 0.168 0 0 1 -0.116 0.063 0.169 0.169 0 0 1 -0.131 -0.057 0.163 0.163 0 0 1 -0.042 -0.134v-3.708a0.172 0.172 0 0 1 0.173 -0.173 0.174 0.174 0 0 1 0.154 0.173Zm0.768 0.917a0.199 0.199 0 0 1 -0.055 0.144 0.208 0.208 0 0 1 -0.137 0.068 0.208 0.208 0 0 1 -0.136 -0.068 0.199 0.199 0 0 1 -0.055 -0.144v-5.543a0.194 0.194 0 0 1 0.055 -0.142 0.201 0.201 0 0 1 0.136 -0.068 0.201 0.201 0 0 1 0.137 0.068 0.194 0.194 0 0 1 0.055 0.142Zm0.75 1.072a0.177 0.177 0 0 1 -0.048 0.147 0.186 0.186 0 0 1 -0.144 0.063 0.183 0.183 0 0 1 -0.142 -0.063 0.184 0.184 0 0 1 -0.05 -0.147v-7.645a0.179 0.179 0 0 1 -0.049 -0.131 0.173 0.173 0 0 1 0.058 -0.127 0.18 0.18 0 0 1 0.133 -0.048 0.178 0.178 0 0 1 0.128 0.058 0.166 0.166 0 0 1 0.142 0.048 0.165 0.165 0 0 1 0.05 0.142Zm0.77 -0.727a0.185 0.185 0 0 1 -0.057 0.136c-0.037 0.037 -0.083 0.056 -0.136 0.056a0.185 0.185 0 0 1 -0.136 -0.056 0.185 0.185 0 0 1 -0.056 -0.136v-6.231c0 -0.052 0.019 -0.097 0.056 -0.134a0.186 0.186 0 0 1 0.136 -0.057 0.186 0.186 0 0 1 0.136 0.057c0.037 0.037 0.056 0.082 0.056 0.134Zm0.75 -0.611a0.164 0.164 0 0 1 -0.05 0.142 0.166 0.166 0 0 1 -0.142 0.048 0.169 0.169 0 0 1 -0.144 -0.048 0.167 0.167 0 0 1 -0.048 -0.142v-5.008c0 -0.053 0.018 -0.098 0.057 -0.136 0.037 -0.037 0.083 -0.056 0.136 -0.056 0.053 0 0.098 0.019 0.136 0.056 0.037 0.037 0.057 0.083 0.057 0.136Zm0.768 -0.784a0.163 0.163 0 0 1 -0.05 0.121 0.167 0.167 0 0 1 -0.123 0.052 0.172 0.172 0 0 1 -0.12 0.076 0.177 0.177 0 0 1 -0.139 -0.029 0.183 0.183 0 0 1 -0.077 -0.12 0.178 0.178 0 0 1 0.029 -0.139v-3.44a0.161 0.161 0 0 1 0.05 -0.121 0.17 0.17 0 0 1 0.123 -0.052c0.048 0 0.089 0.018 0.123 0.052a0.16 0.16 0 0 1 0.05 0.121Zm0.75 1.014a0.167 0.167 0 0 1 -0.048 0.142 0.169 0.169 0 0 1 -0.144 0.049 0.163 0.163 0 0 1 -0.129 -0.057 0.17 0.17 0 0 1 -0.044 -0.134v-5.467a0.186 0.186 0 0 1 0.05 -0.13 0.181 0.181 0 0 1 0.123 -0.061c0.053 0 0.098 0.018 0.136 0.055 0.039 0.037 0.057 0.082 0.057 0.136Zm0.77 1.241a0.208 0.208 0 0 1 -0.062 0.131 0.208 0.208 0 0 1 -0.131 0.062 0.185 0.185 0 0 1 -0.136 -0.057 0.185 0.185 0 0 1 -0.056 -0.136v-7.932a0.182 0.182 0 0 1 0.048 -0.147 0.189 0.189 0 0 1 0.144 -0.063 0.204 0.204 0 0 1 0.137 0.068c0.037 0.041 0.055 0.087 0.055 0.142Zm0.75 -0.687a0.184 0.184 0 0 1 -0.05 0.147 0.183 0.183 0 0 1 -0.142 0.063 0.204 0.204 0 0 1 -0.137 -0.068 0.202 0.202 0 0 1 -0.055 -0.142v-6.576c0 -0.053 0.018 -0.098 0.057 -0.136a0.184 0.184 0 0 1 0.136 -0.055 0.166 0.166 0 0 1 0.142 0.048 0.167 0.167 0 0 1 0.05 0.142Zm0.768 -1.378a0.172 0.172 0 0 1 -0.294 0.123 0.167 0.167 0 0 1 -0.052 -0.123v-3.823a0.168 0.168 0 0 1 -0.002 -0.134 0.169 0.169 0 0 1 0.099 -0.095c0.047 0 0.087 0.017 0.121 0.051a0.161 0.161 0 0 1 0.052 0.121Zm0.75 1.644a0.186 0.186 0 0 1 -0.048 0.149 0.182 0.182 0 0 1 -0.144 0.061 0.197 0.197 0 0 1 -0.149 -0.041 0.197 0.197 0 0 1 -0.082 -0.131V114.923c0 -0.052 0.019 -0.097 0.057 -0.134a0.188 0.188 0 0 1 0.136 -0.056 0.169 0.169 0 0 1 0.144 0.048 0.166 0.166 0 0 1 0.048 0.142Zm5.017 0.727c-0.017 0.166 -0.066 0.322 -0.147 0.469a1.21 1.21 0 0 1 -0.32 0.375 1.237 1.237 0 0 1 -0.936 0.246l-2.442 -0.383a1.297 1.297 0 0 1 -0.462 -0.181 1.272 1.272 0 0 1 -0.359 -0.343 1.275 1.275 0 0 1 -0.216 -0.948l0.326 -2.256c-0.078 -0.011 -0.115 -0.055 -0.115 -0.132v-2.256c0 -0.039 0.012 -0.073 0.038 -0.102a0.146 0.146 0 0 1 0.095 -0.05h0.136a0.145 0.145 0 0 1 0.095 0.05c0.026 0.029 0.039 0.063 0.039 0.102v0.364l0.385 -2.619a1.241 1.241 0 0 1 0.118 -0.378c0.06 -0.12 0.136 -0.226 0.228 -0.323a1.301 1.301 0 0 1 0.692 -0.37 10.319 10.319 0 0 0 -0.672 -2.294 1.403 1.403 0 0 1 -0.6 -0.225 1.399 1.399 0 0 1 -0.439 -0.463 8.817 8.817 0 0 0 -0.648 -1.03 9.004 9.004 0 0 0 -0.781 -0.936 9.43 9.43 0 0 0 -0.899 -0.824 9.084 9.084 0 0 0 -1.001 -0.698 9.178 9.178 0 0 0 -2.235 -0.973 9.142 9.142 0 0 0 -2.413 -0.356 9.199 9.199 0 0 0 -1.229 0.091c-0.407 0.056 -0.808 0.141 -1.204 0.252a9.149 9.149 0 0 0 -2.256 0.97 9.017 9.017 0 0 0 -1.012 0.7 8.965 8.965 0 0 0 -0.907 0.828 9.309 9.309 0 0 0 -0.79 0.939c-0.241 0.331 -0.461 0.677 -0.655 1.037a1.397 1.397 0 0 1 -1.039 0.706 10.121 10.121 0 0 0 -0.711 2.275 1.253 1.253 0 0 1 0.894 0.262c0.126 0.1 0.228 0.221 0.306 0.36 0.079 0.141 0.127 0.29 0.147 0.449l0.385 2.619v-0.269c0.01 -0.079 0.053 -0.124 0.134 -0.134h0.154c0.081 0.01 0.124 0.055 0.134 0.134v2.064a0.128 0.128 0 0 1 -0.038 0.095 0.13 0.13 0 0 1 -0.095 0.039l0.346 2.428c0.026 0.165 0.019 0.33 -0.019 0.493a1.27 1.27 0 0 1 -0.202 0.449c-0.097 0.137 -0.217 0.252 -0.357 0.344 -0.141 0.091 -0.294 0.152 -0.459 0.186l-2.441 0.381a1.227 1.227 0 0 1 -0.936 -0.246 1.215 1.215 0 0 1 -0.467 -0.844l-1.02 -6.881a1.302 1.302 0 0 1 -0.005 -0.513c0.034 -0.17 0.098 -0.328 0.197 -0.472a1.285 1.285 0 0 1 0.845 -0.545l1.001 -0.173a12.348 12.348 0 0 1 0.845 -3.058 1.549 1.549 0 0 1 -0.231 -0.821c0 -0.296 0.077 -0.569 0.231 -0.823a12.488 12.488 0 0 1 1.833 -2.559 12.565 12.565 0 0 1 2.415 -2.028 11.673 11.673 0 0 1 2.948 -1.296 11.711 11.711 0 0 1 7.906 0.546 11.557 11.557 0 0 1 1.429 0.75 12.242 12.242 0 0 1 2.472 2.003 12.172 12.172 0 0 1 1.873 2.567c0.149 0.259 0.214 0.537 0.197 0.836a1.485 1.485 0 0 1 -0.294 0.808c0.414 0.97 0.695 1.977 0.847 3.019l1.345 0.21a1.299 1.299 0 0 1 0.823 0.524c0.097 0.139 0.163 0.29 0.201 0.453 0.038 0.165 0.042 0.33 0.014 0.496Zm0 0"/></g><g clip-path="url(#H)"><path fill="#fff" d="M174.259 41.924c-0.32 0 -0.578 0.259 -0.578 0.579v2.311a0.578 0.578 0 1 0 1.156 0v-2.311c0 -0.32 -0.259 -0.579 -0.577 -0.579Zm0 0"/></g><path fill="#fff" d="M176.57 39.611c-0.318 0 -0.577 0.26 -0.577 0.578v6.938a0.577 0.577 0 0 0 1.156 0V40.19a0.579 0.579 0 0 0 -0.578 -0.578Zm2.313 1.157c-0.32 0 -0.578 0.259 -0.578 0.577v4.625a0.578 0.578 0 1 0 1.156 0V41.345c0 -0.319 -0.259 -0.577 -0.577 -0.577Zm2.312 -4.624c-0.319 0 -0.577 0.259 -0.577 0.577v13.875a0.577 0.577 0 0 0 1.156 0v-13.874c0 -0.319 -0.259 -0.577 -0.578 -0.577Zm2.313 4.624c-0.32 0 -0.579 0.259 -0.579 0.577v4.625a0.578 0.578 0 1 0 1.156 0V41.345c0 -0.319 -0.259 -0.577 -0.577 -0.577Zm0 0"/><g clip-path="url(#I)"><path fill="#fff" d="M185.819 30.362c-0.319 0 -0.577 0.26 -0.577 0.578v25.436a0.578 0.578 0 1 0 1.156 0v-25.436a0.579 0.579 0 0 0 -0.579 -0.578Zm0 0"/></g><path fill="#fff" d="M188.132 34.986a0.579 0.579 0 0 0 -0.578 0.579v16.186c0 0.32 0.259 0.577 0.578 0.577 0.319 0 0.579 -0.257 0.579 -0.577V35.566c0 -0.319 -0.261 -0.578 -0.579 -0.578Zm2.311 2.313c-0.319 0 -0.577 0.259 -0.577 0.579v11.56a0.578 0.578 0 1 0 1.156 0V37.878c0 -0.32 -0.259 -0.578 -0.579 -0.578Zm2.313 3.469c-0.32 0 -0.578 0.259 -0.578 0.577v4.625c0 0.32 0.259 0.578 0.578 0.578 0.32 0 0.579 -0.259 0.579 -0.578V41.345c0 -0.319 -0.259 -0.577 -0.579 -0.577Zm2.311 1.156c-0.319 0 -0.577 0.259 -0.577 0.579v2.311a0.578 0.578 0 1 0 1.156 0v-2.311c0 -0.32 -0.259 -0.579 -0.579 -0.579Zm2.313 -4.625c-0.32 0 -0.579 0.259 -0.579 0.579v10.404c0 0.32 0.259 0.578 0.579 0.578 0.32 0 0.578 -0.259 0.578 -0.578V37.878c0 -0.32 -0.259 -0.578 -0.578 -0.578Zm2.313 3.469c-0.32 0 -0.579 0.259 -0.579 0.577v4.625a0.578 0.578 0 1 0 1.156 0V41.345c0 -0.319 -0.259 -0.577 -0.577 -0.577Zm0 0"/><g clip-path="url(#J)"><path fill="#fff" d="M202.006 41.924c-0.32 0 -0.579 0.259 -0.579 0.579v2.311c0 0.32 0.259 0.578 0.579 0.578 0.32 0 0.578 -0.259 0.578 -0.578v-2.311c0 -0.32 -0.259 -0.579 -0.578 -0.579Zm0 0"/></g><g clip-path="url(#K)"><path fill="#fff" d="M26.913 44.384c-0.511 0 -0.927 0.414 -0.927 0.924v3.701a0.926 0.926 0 0 0 1.851 0v-3.701c0 -0.511 -0.414 -0.924 -0.924 -0.924Zm0 0"/></g><path fill="#fff" d="M30.614 40.682c-0.511 0 -0.926 0.414 -0.926 0.925v11.105a0.926 0.926 0 0 0 1.851 0V41.607c0 -0.511 -0.414 -0.925 -0.925 -0.925Zm3.7 1.851c-0.511 0 -0.925 0.414 -0.925 0.924v7.403a0.926 0.926 0 0 0 1.851 0v-7.403a0.926 0.926 0 0 0 -0.926 -0.925Zm3.701 -7.404a0.926 0.926 0 0 0 -0.924 0.926V58.262c0 0.512 0.414 0.926 0.924 0.926s0.926 -0.414 0.926 -0.926V36.057a0.927 0.927 0 0 0 -0.926 -0.926Zm3.701 7.404c-0.511 0 -0.924 0.414 -0.924 0.924v7.403a0.924 0.924 0 1 0 1.849 0v-7.403c0 -0.511 -0.414 -0.925 -0.925 -0.925Zm0 0"/><g clip-path="url(#L)"><path fill="#fff" d="M45.419 25.879c-0.511 0 -0.926 0.414 -0.926 0.924v40.714a0.926 0.926 0 0 0 1.851 0v-40.713c0 -0.511 -0.414 -0.925 -0.924 -0.925Zm0 0"/></g><path fill="#fff" d="M49.12 33.28a0.927 0.927 0 0 0 -0.926 0.926v25.908a0.926 0.926 0 0 0 0.926 0.926c0.511 0 0.924 -0.414 0.924 -0.926V34.206c0 -0.511 -0.414 -0.926 -0.924 -0.926Zm3.7 3.701c-0.511 0 -0.924 0.414 -0.924 0.924v18.506a0.925 0.925 0 1 0 1.851 0V37.906c0 -0.511 -0.414 -0.924 -0.926 -0.924Zm3.702 5.553c-0.511 0 -0.925 0.414 -0.925 0.924v7.403c0 0.511 0.414 0.924 0.925 0.924 0.512 0 0.926 -0.414 0.926 -0.924v-7.403c0 -0.511 -0.414 -0.925 -0.926 -0.925Zm3.702 1.85c-0.513 0 -0.925 0.414 -0.925 0.924v3.701c0 0.511 0.412 0.925 0.924 0.925s0.924 -0.414 0.924 -0.925v-3.701a0.923 0.923 0 0 0 -0.924 -0.924Zm3.701 -7.403c-0.512 0 -0.926 0.414 -0.926 0.924v16.655a0.925 0.925 0 1 0 1.851 0v-16.655c0 -0.511 -0.414 -0.924 -0.925 -0.924Zm3.702 5.553c-0.513 0 -0.926 0.414 -0.926 0.924v7.403c0 0.511 0.414 0.924 0.926 0.924 0.511 0 0.924 -0.414 0.924 -0.924v-7.403c0 -0.511 -0.414 -0.925 -0.924 -0.925Zm0 0"/><g clip-path="url(#M)"><path fill="#fff" d="M71.326 44.384c-0.511 0 -0.924 0.414 -0.924 0.924v3.701c0 0.511 0.414 0.925 0.924 0.925 0.512 0 0.926 -0.414 0.926 -0.925v-3.701c0 -0.511 -0.414 -0.924 -0.926 -0.924Zm0 0"/></g><g clip-path="url(#N)"><path fill="#fff" d="M30.905 140.499c-0.32 0 -0.579 0.258 -0.579 0.578v2.311a0.578 0.578 0 1 0 1.156 0v-2.311c0 -0.32 -0.259 -0.578 -0.577 -0.578Zm0 0"/></g><path fill="#fff" d="M33.216 138.187c-0.319 0 -0.577 0.259 -0.577 0.577v6.937c0 0.32 0.259 0.577 0.577 0.577 0.32 0 0.579 -0.257 0.579 -0.577v-6.937c0 -0.319 -0.259 -0.577 -0.579 -0.577Zm2.313 1.156c-0.319 0 -0.578 0.259 -0.578 0.577v4.626a0.579 0.579 0 0 0 1.157 0v-4.626a0.579 0.579 0 0 0 -0.579 -0.577Zm2.312 -4.625c-0.319 0 -0.577 0.259 -0.577 0.577v13.875a0.577 0.577 0 0 0 1.156 0v-13.875c0 -0.319 -0.259 -0.577 -0.579 -0.577Zm2.313 4.625a0.579 0.579 0 0 0 -0.579 0.577v4.626a0.579 0.579 0 0 0 1.157 0v-4.626c0 -0.319 -0.26 -0.577 -0.578 -0.577Zm0 0"/><g clip-path="url(#O)"><path fill="#fff" d="M42.467 128.937a0.579 0.579 0 0 0 -0.579 0.578v25.435a0.578 0.578 0 1 0 1.156 0v-25.435c0 -0.319 -0.259 -0.578 -0.577 -0.578Zm0 0"/></g><path fill="#fff" d="M44.779 133.561c-0.319 0 -0.579 0.261 -0.579 0.579v16.186a0.579 0.579 0 0 0 1.157 0v-16.186a0.579 0.579 0 0 0 -0.578 -0.579Zm2.313 2.313c-0.32 0 -0.579 0.259 -0.579 0.579v11.56a0.578 0.578 0 1 0 1.156 0v-11.56c0 -0.32 -0.259 -0.579 -0.577 -0.579Zm2.311 3.469c-0.32 0 -0.577 0.259 -0.577 0.577v4.626a0.578 0.578 0 0 0 1.156 0v-4.626c0 -0.319 -0.259 -0.577 -0.578 -0.577Zm2.313 1.156c-0.32 0 -0.578 0.258 -0.578 0.578v2.311a0.578 0.578 0 1 0 1.156 0v-2.311c0 -0.32 -0.259 -0.578 -0.577 -0.578Zm2.311 -4.625c-0.32 0 -0.577 0.259 -0.577 0.579v10.404a0.578 0.578 0 1 0 1.156 0v-10.404c0 -0.32 -0.259 -0.579 -0.579 -0.579Zm2.313 3.469c-0.32 0 -0.578 0.259 -0.578 0.577v4.626a0.578 0.578 0 0 0 1.156 0v-4.626c0 -0.319 -0.257 -0.577 -0.577 -0.577Zm0 0"/><g clip-path="url(#P)"><path fill="#fff" d="M58.652 140.499c-0.319 0 -0.577 0.258 -0.577 0.578v2.311a0.578 0.578 0 1 0 1.156 0v-2.311c0 -0.32 -0.259 -0.578 -0.579 -0.578Zm0 0"/></g><g clip-path="url(#Q)"><path fill="#fff" d="M173.585 183.073a0.641 0.641 0 0 0 -0.64 0.64v2.557c0 0.352 0.288 0.638 0.64 0.638 0.353 0 0.638 -0.286 0.638 -0.638v-2.557c0 -0.352 -0.286 -0.64 -0.638 -0.64Zm0 0"/></g><path fill="#fff" d="M176.142 180.517c-0.354 0 -0.64 0.286 -0.64 0.638v7.67a0.639 0.639 0 1 0 1.279 0v-7.67c0 -0.353 -0.286 -0.638 -0.638 -0.638Zm2.556 1.277c-0.353 0 -0.638 0.288 -0.638 0.64v5.112a0.639 0.639 0 1 0 1.279 0v-5.112c0 -0.353 -0.286 -0.64 -0.64 -0.64Zm2.557 -5.113c-0.352 0 -0.638 0.286 -0.638 0.638v15.341a0.639 0.639 0 0 0 1.279 0v-15.341c0 -0.352 -0.288 -0.638 -0.64 -0.638Zm2.557 5.113a0.641 0.641 0 0 0 -0.64 0.64v5.112a0.639 0.639 0 1 0 1.279 0v-5.112c0 -0.353 -0.286 -0.64 -0.638 -0.64Zm0 0"/><g clip-path="url(#R)"><path fill="#fff" d="M186.368 170.29c-0.354 0 -0.64 0.286 -0.64 0.638v28.123a0.639 0.639 0 1 0 1.279 0v-28.123c0 -0.352 -0.286 -0.638 -0.638 -0.638Zm0 0"/></g><path fill="#fff" d="M188.924 175.403c-0.352 0 -0.638 0.286 -0.638 0.641v17.897c0 0.354 0.286 0.638 0.638 0.638 0.354 0 0.64 -0.284 0.64 -0.638v-17.897c0 -0.354 -0.286 -0.64 -0.64 -0.64Zm2.557 2.557c-0.354 0 -0.638 0.286 -0.638 0.638v12.784a0.639 0.639 0 1 0 1.279 0v-12.784c0 -0.352 -0.286 -0.638 -0.64 -0.638Zm2.557 3.834c-0.354 0 -0.64 0.288 -0.64 0.64v5.112a0.639 0.639 0 1 0 1.279 0v-5.112c0 -0.353 -0.285 -0.64 -0.638 -0.64Zm2.557 1.279c-0.354 0 -0.64 0.288 -0.64 0.64v2.557a0.639 0.639 0 0 0 1.279 0v-2.557c0 -0.353 -0.286 -0.64 -0.639 -0.64Zm2.556 -5.113c-0.352 0 -0.638 0.286 -0.638 0.638v11.506a0.639 0.639 0 1 0 1.279 0v-11.506c0 -0.352 -0.286 -0.638 -0.64 -0.638Zm2.557 3.834c-0.354 0 -0.638 0.288 -0.638 0.64v5.112a0.639 0.639 0 1 0 1.279 0v-5.112c0 -0.353 -0.286 -0.64 -0.64 -0.64Zm0 0"/><g clip-path="url(#S)"><path fill="#fff" d="M204.265 183.073c-0.354 0 -0.64 0.288 -0.64 0.64v2.557a0.639 0.639 0 0 0 1.279 0v-2.557c0 -0.353 -0.285 -0.64 -0.638 -0.64Zm0 0"/></g><g clip-path="url(#T)"><path fill="#fafafa" d="M169.495 116.226a0.279 0.279 0 0 0 -0.278 0.278v1.112a0.278 0.278 0 1 0 0.556 0v-1.112c0 -0.152 -0.124 -0.278 -0.278 -0.278Zm0 0"/></g><path fill="#fafafa" d="M170.607 115.115a0.278 0.278 0 0 0 -0.278 0.278v3.335a0.278 0.278 0 1 0 0.556 0v-3.335a0.278 0.278 0 0 0 -0.278 -0.278Zm1.112 0.557c-0.153 0 -0.278 0.124 -0.278 0.277v2.223a0.278 0.278 0 1 0 0.556 0v-2.222a0.279 0.279 0 0 0 -0.278 -0.278Zm1.111 -2.225c-0.154 0 -0.278 0.124 -0.278 0.278v6.669a0.278 0.278 0 1 0 0.556 0v-6.669a0.278 0.278 0 0 0 -0.278 -0.278Zm1.112 2.225c-0.154 0 -0.278 0.124 -0.278 0.277v2.223a0.278 0.278 0 1 0 0.556 0v-2.222c0 -0.154 -0.124 -0.278 -0.278 -0.278Zm0 0"/><g clip-path="url(#U)"><path fill="#fafafa" d="M175.054 110.669c-0.154 0 -0.278 0.124 -0.278 0.278v12.226a0.278 0.278 0 1 0 0.556 0v-12.226a0.279 0.279 0 0 0 -0.278 -0.278Zm0 0"/></g><path fill="#fafafa" d="M176.164 112.891a0.279 0.279 0 0 0 -0.278 0.278v7.781a0.278 0.278 0 1 0 0.556 0v-7.781c0 -0.152 -0.124 -0.278 -0.278 -0.278Zm1.112 1.112c-0.154 0 -0.278 0.124 -0.278 0.278v5.557a0.278 0.278 0 1 0 0.556 0v-5.557c0 -0.154 -0.124 -0.278 -0.278 -0.278Zm1.112 1.668a0.277 0.277 0 0 0 -0.278 0.277v2.223a0.278 0.278 0 1 0 0.556 0v-2.222c0 -0.154 -0.124 -0.278 -0.278 -0.278Zm1.111 0.554a0.279 0.279 0 0 0 -0.278 0.278v1.112a0.278 0.278 0 1 0 0.556 0v-1.112c0 -0.152 -0.124 -0.278 -0.278 -0.278Zm1.112 -2.222a0.277 0.277 0 0 0 -0.278 0.278v5.003c0 0.153 0.124 0.276 0.278 0.276a0.277 0.277 0 0 0 0.278 -0.276v-5.003c0 -0.154 -0.124 -0.278 -0.278 -0.278Zm1.112 1.668c-0.154 0 -0.278 0.124 -0.278 0.277v2.223a0.278 0.278 0 1 0 0.556 0v-2.222c0 -0.154 -0.124 -0.278 -0.278 -0.278Zm0 0"/><g clip-path="url(#V)"><path fill="#fafafa" d="M182.834 116.226a0.279 0.279 0 0 0 -0.278 0.278v1.112a0.278 0.278 0 1 0 0.556 0v-1.112a0.279 0.279 0 0 0 -0.278 -0.278Zm0 0"/></g></svg>