<svg xmlns="http://www.w3.org/2000/svg" version="1.0" viewBox="0 0 400 152.393" width="400" height="152.393"><defs><clipPath id="a"><path d="M233.415 104.389h16.001v15.493h-16.001Zm0 0"/></clipPath><clipPath id="b"><path d="m236.828 104.572 12.583 11.691 -3.275 3.523 -12.581 -11.69Zm0 0"/></clipPath><clipPath id="c"><path d="m236.828 104.572 12.578 11.687 -3.274 3.524 -12.578 -11.687Zm0 0"/></clipPath><clipPath id="d"><path d="M241.104 110.616h36.394v36.394h-36.394Zm0 0"/></clipPath><clipPath id="e"><path d="M259.301 110.616c-10.05 0 -18.197 8.147 -18.197 18.197 0 10.05 8.147 18.197 18.197 18.197 10.049 0 18.197 -8.147 18.197 -18.197 0 -10.049 -8.147 -18.197 -18.197 -18.197Zm0 0"/></clipPath><clipPath id="f"><path d="M241.104 110.616h36.392v36.391H241.104Zm0 0"/></clipPath><clipPath id="g"><path d="M259.3 110.616c-10.049 0 -18.196 8.146 -18.196 18.196 0 10.05 8.146 18.196 18.196 18.196s18.196 -8.146 18.196 -18.196c0 -10.049 -8.146 -18.196 -18.196 -18.196Zm0 0"/></clipPath><clipPath id="h"><path d="M143.846 89.054H180.24v36.394H143.846Zm0 0"/></clipPath><clipPath id="i"><path d="M162.043 89.054c-10.049 0 -18.197 8.146 -18.197 18.197 0 10.049 8.147 18.197 18.197 18.197 10.05 0 18.197 -8.147 18.197 -18.197 0 -10.05 -8.147 -18.197 -18.197 -18.197Zm0 0"/></clipPath><clipPath id="j"><path d="M143.846 89.054h36.391v36.392h-36.391Zm0 0"/></clipPath><clipPath id="k"><path d="M162.042 89.054c-10.049 0 -18.196 8.146 -18.196 18.196 0 10.05 8.146 18.196 18.196 18.196 10.05 0 18.196 -8.146 18.196 -18.196 0 -10.05 -8.146 -18.196 -18.196 -18.196Zm0 0"/></clipPath><clipPath id="l"><path d="M248.689 18.288h36.394v36.394h-36.394Zm0 0"/></clipPath><clipPath id="m"><path d="M266.885 18.288c-10.049 0 -18.197 8.147 -18.197 18.197 0 10.05 8.147 18.197 18.197 18.197 10.05 0 18.197 -8.146 18.197 -18.197 0 -10.049 -8.146 -18.197 -18.197 -18.197Zm0 0"/></clipPath><clipPath id="n"><path d="M248.689 18.288h36.392v36.392H248.689Zm0 0"/></clipPath><clipPath id="o"><path d="M266.884 18.288c-10.049 0 -18.196 8.146 -18.196 18.196 0 10.05 8.146 18.196 18.196 18.196 10.05 0 18.196 -8.146 18.196 -18.196 0 -10.05 -8.146 -18.196 -18.196 -18.196Zm0 0"/></clipPath><clipPath id="p"><path d="M173.474 48.004h23.621v22.351h-23.621Zm0 0"/></clipPath><clipPath id="q"><path d="m176.922 48.052 19.96 18.546 -3.274 3.524 -19.96 -18.546Zm0 0"/></clipPath><clipPath id="r"><path d="m176.922 48.052 19.959 18.545 -3.275 3.524 -19.958 -18.545Zm0 0"/></clipPath><clipPath id="s"><path d="M132.488 5.099h51.107v51.107h-51.107Zm0 0"/></clipPath><clipPath id="t"><path d="M158.042 5.099c-14.112 0 -25.554 11.44 -25.554 25.554 0 14.113 11.442 25.553 25.554 25.553 14.113 0 25.554 -11.44 25.554 -25.554 0 -14.113 -11.44 -25.553 -25.554 -25.553Zm0 0"/></clipPath><clipPath id="u"><path d="M132.488 5.099h51.107v51.107h-51.107Zm0 0"/></clipPath><clipPath id="v"><path d="M158.042 5.099c-14.113 0 -25.554 11.44 -25.554 25.554 0 14.113 11.441 25.553 25.554 25.553 14.113 0 25.554 -11.44 25.554 -25.554 0 -14.113 -11.44 -25.553 -25.554 -25.553Zm0 0"/></clipPath><clipPath id="w"><path d="M241.288 49.782h13.715v13.969h-13.715Zm0 0"/></clipPath><clipPath id="x"><path d="m241.481 60.374 9.988 -10.417 3.473 3.329 -9.988 10.418Zm0 0"/></clipPath><clipPath id="y"><path d="M241.481 60.374 251.466 49.959l3.473 3.33 -9.985 10.415Zm0 0"/></clipPath><clipPath id="z"><path d="M249.681 81.483h17.614v17.614h-17.614Zm0 0"/></clipPath><clipPath id="A"><path d="M258.487 81.483c-4.864 0 -8.806 3.943 -8.806 8.806 0 4.865 3.943 8.807 8.806 8.807 4.864 0 8.807 -3.943 8.807 -8.807 0 -4.863 -3.943 -8.806 -8.807 -8.806Zm0 0"/></clipPath><clipPath id="B"><path d="M249.681 81.483h17.536v17.536h-17.536Zm0 0"/></clipPath><clipPath id="C"><path d="M258.486 81.483c-4.863 0 -8.805 3.942 -8.805 8.805 0 4.864 3.942 8.805 8.805 8.805s8.805 -3.942 8.805 -8.805 -3.942 -8.805 -8.805 -8.805Zm0 0"/></clipPath><clipPath id="D"><path d="M185.157 94.483h7.366v6.096h-7.366Zm0 0"/></clipPath><clipPath id="E"><path d="m185.265 95.65 6.204 -1.066 0.815 4.741 -6.205 1.066Zm0 0"/></clipPath><clipPath id="F"><path d="m185.265 95.65 6.203 -1.066 0.814 4.741 -6.203 1.066Zm0 0"/></clipPath><clipPath id="G"><path d="M192.523 63.563h48.766v47.16H192.523Zm0 0"/></clipPath><clipPath id="H"><path d="M256.275 35.05H257.289v2.794h-1.015Zm0 0"/></clipPath><clipPath id="I"><path d="M264.655 26.722h1.016v19.433h-1.016Zm0 0"/></clipPath><clipPath id="J"><path d="M276.593 35.05h1.01v2.794H276.593Zm0 0"/></clipPath><clipPath id="K"><path d="M142.883 28.701H144.265v3.81h-1.382Zm0 0"/></clipPath><clipPath id="L"><path d="M154.932 16.707h1.524v27.964h-1.524Zm0 0"/></clipPath><clipPath id="M"><path d="M171.95 28.701h1.268v3.81H171.95Zm0 0"/></clipPath><clipPath id="N"><path d="M151.432 105.913H152.393v2.794h-0.96Zm0 0"/></clipPath><clipPath id="O"><path d="M159.758 97.489h1.016v19.432h-1.016Zm0 0"/></clipPath><clipPath id="P"><path d="M247.567 127.248H248.654v3.048h-1.087Zm0 0"/></clipPath><clipPath id="Q"><path d="M256.781 118.018h1.27v21.565h-1.27Zm0 0"/></clipPath><clipPath id="R"><path d="M269.989 127.248h1.04v3.048H269.989Zm0 0"/></clipPath><clipPath id="S"><path d="M253.386 89.658H253.988v1.27h-0.601Zm0 0"/></clipPath><clipPath id="T"><path d="M257.289 85.597h0.762V94.991h-0.762Zm0 0"/></clipPath><clipPath id="U"><path d="M263.131 89.658h0.445v1.27H263.131Zm0 0"/></clipPath></defs><path d="M35.146 124.703c-6.35 0 -11.896 -0.872 -16.636 -2.615 -4.738 -1.743 -8.384 -4.203 -10.933 -7.378 -2.548 -3.175 -3.822 -6.819 -3.822 -10.933v-1.476c0 -0.446 0.156 -0.826 0.468 -1.139 0.314 -0.311 0.695 -0.468 1.143 -0.468h18.109c0.447 0 0.826 0.157 1.139 0.468 0.315 0.312 0.472 0.693 0.472 1.139 0 1.702 0.938 3.111 2.817 4.231 1.878 1.117 4.247 1.675 7.108 1.675 2.505 0 4.494 -0.424 5.969 -1.274 1.476 -0.849 2.214 -1.989 2.214 -3.421 0 -1.431 -0.784 -2.481 -2.349 -3.151 -1.564 -0.672 -4.089 -1.321 -7.576 -1.949 -5.635 -1.072 -10.197 -2.367 -13.684 -3.889 -4.562 -1.878 -8.183 -4.224 -10.866 -7.04 -2.683 -2.818 -4.024 -6.687 -4.024 -11.608 0 -6.974 2.705 -12.495 8.116 -16.565 5.41 -4.069 12.543 -6.103 21.398 -6.103 5.99 0 11.243 0.962 15.759 2.885 4.516 1.921 8.026 4.626 10.529 8.116 2.505 3.487 3.758 7.511 3.758 12.072 0 0.448 -0.157 0.829 -0.468 1.143 -0.312 0.312 -0.693 0.468 -1.139 0.468h-17.577c-0.448 0 -0.827 -0.156 -1.139 -0.468 -0.312 -0.314 -0.468 -0.695 -0.468 -1.143 0 -1.698 -0.806 -3.084 -2.417 -4.159 -1.609 -1.073 -3.8 -1.611 -6.572 -1.611 -2.503 0 -4.538 0.427 -6.103 1.278 -1.564 0.85 -2.346 2.034 -2.346 3.552 0 1.522 0.849 2.618 2.548 3.29 1.698 0.67 4.56 1.407 8.584 2.21 5.188 1.075 8.81 1.924 10.866 2.548 5.545 1.789 9.86 4.205 12.945 7.247 3.084 3.04 4.627 7.11 4.627 12.207 0 6.975 -2.75 12.362 -8.251 16.164 -5.498 3.8 -12.898 5.699 -22.2 5.699Zm70.965 0c-7.334 0 -13.751 -1.832 -19.251 -5.497 -5.501 -3.667 -9.414 -8.72 -11.739 -15.16 -1.698 -4.294 -2.547 -9.435 -2.547 -15.426 0 -5.993 0.849 -11.136 2.547 -15.43 2.236 -6.259 6.126 -11.156 11.672 -14.688 5.545 -3.532 11.985 -5.298 19.319 -5.298 7.421 0 13.947 1.834 19.581 5.501 5.635 3.667 9.437 8.317 11.406 13.95 0.624 1.611 1.026 3.356 1.206 5.235 0 0.982 -0.492 1.562 -1.476 1.742l-18.644 2.818h-0.27c-0.805 0 -1.34 -0.447 -1.607 -1.341l-0.27 -1.206c-0.181 -0.716 -0.359 -1.344 -0.536 -1.881 -0.808 -1.699 -2.038 -3.083 -3.691 -4.155 -1.654 -1.073 -3.598 -1.611 -5.834 -1.611 -4.741 0 -7.872 2.102 -9.389 6.306 -0.984 2.503 -1.476 5.9 -1.476 10.191 0 3.847 0.447 7.202 1.341 10.064 1.699 4.562 4.874 6.842 9.525 6.842 2.326 0 4.338 -0.603 6.036 -1.81 1.698 -1.208 2.906 -2.931 3.623 -5.167 0.087 -0.18 0.131 -0.448 0.131 -0.805 0.089 -0.089 0.135 -0.268 0.135 -0.536 0.27 -1.073 0.895 -1.521 1.877 -1.341l18.783 2.949c0.894 0.18 1.341 0.673 1.341 1.476 0 1.341 -0.269 2.818 -0.805 4.429 -2.146 6.261 -6.014 11.134 -11.604 14.62 -5.591 3.487 -12.052 5.231 -19.382 5.231Zm213.142 -67.991c0 -0.423 0.148 -0.782 0.444 -1.075 0.296 -0.296 0.655 -0.444 1.076 -0.444h17.997c0.421 0 0.779 0.149 1.075 0.444 0.296 0.294 0.444 0.653 0.444 1.075v62.477c0 0.421 -0.149 0.78 -0.444 1.076 -0.297 0.297 -0.655 0.444 -1.075 0.444h-17.998c-0.421 0 -0.78 -0.148 -1.075 -0.444 -0.297 -0.296 -0.444 -0.655 -0.444 -1.076v-4.437c0 -0.254 -0.085 -0.423 -0.254 -0.508 -0.17 -0.084 -0.337 0 -0.504 0.254 -3.381 4.816 -8.705 7.223 -15.969 7.223 -6.421 0 -11.618 -2.026 -15.588 -6.08 -3.972 -4.056 -5.957 -9.716 -5.957 -16.982V56.712c0 -0.423 0.148 -0.782 0.444 -1.075 0.296 -0.296 0.656 -0.444 1.079 -0.444h17.993c0.423 0 0.782 0.149 1.076 0.444 0.296 0.294 0.444 0.653 0.444 1.075v37.13c0 2.958 0.76 5.325 2.282 7.1 1.521 1.773 3.591 2.659 6.211 2.659 2.365 0 4.328 -0.718 5.889 -2.155 1.564 -1.437 2.514 -3.337 2.853 -5.703Zm72.109 13.815c0 0.421 -0.149 0.78 -0.444 1.075 -0.297 0.297 -0.655 0.444 -1.075 0.444h-11.533c-0.424 0 -0.635 0.21 -0.635 0.631v23.065c0 4.816 1.942 7.223 5.83 7.223h4.687c0.423 0 0.783 0.149 1.079 0.444 0.296 0.297 0.444 0.657 0.444 1.079v14.7c0 0.929 -0.508 1.478 -1.524 1.647 -4.054 0.169 -7.011 0.254 -8.87 0.254 -7.35 0 -12.798 -1.161 -16.347 -3.484 -3.548 -2.326 -5.364 -6.74 -5.449 -13.243v-31.685c0 -0.421 -0.212 -0.631 -0.635 -0.631h-7.223c-0.424 0 -0.784 -0.148 -1.079 -0.444 -0.294 -0.296 -0.44 -0.655 -0.44 -1.075v-13.815c0 -0.423 0.147 -0.782 0.44 -1.075 0.296 -0.296 0.656 -0.444 1.079 -0.444h7.223c0.423 0 0.635 -0.211 0.635 -0.635v-15.335c0 -0.423 0.147 -0.782 0.441 -1.076 0.296 -0.296 0.656 -0.444 1.079 -0.444h17.109c0.422 0 0.782 0.149 1.075 0.444 0.296 0.294 0.444 0.653 0.444 1.076v15.335c0 0.424 0.211 0.635 0.635 0.635h11.533c0.421 0 0.779 0.149 1.075 0.444 0.296 0.294 0.444 0.653 0.444 1.075Zm0 0"/><g clip-path="url(#a)"><g clip-path="url(#b)"><g clip-path="url(#c)"><path d="m236.828 104.572 12.583 11.691 -3.275 3.523 -12.581 -11.69Zm0 0"/></g></g></g><g clip-path="url(#d)"><g clip-path="url(#e)"><path d="M241.104 110.616h36.394v36.394h-36.394Zm0 0"/></g></g><g clip-path="url(#f)"><g clip-path="url(#g)"><path fill="none" stroke="#000" stroke-width="2.6665342375292087" d="M259.3 110.616c-10.049 0 -18.196 8.146 -18.196 18.196 0 10.05 8.146 18.196 18.196 18.196s18.196 -8.146 18.196 -18.196c0 -10.049 -8.146 -18.196 -18.196 -18.196Zm0 0"/></g></g><g clip-path="url(#h)"><g clip-path="url(#i)"><path d="M143.846 89.054H180.24v36.394H143.846Zm0 0"/></g></g><g clip-path="url(#j)"><g clip-path="url(#k)"><path fill="none" stroke="#000" stroke-width="2.6665342375292087" d="M162.042 89.054c-10.049 0 -18.196 8.146 -18.196 18.196 0 10.05 8.146 18.196 18.196 18.196 10.05 0 18.196 -8.146 18.196 -18.196 0 -10.05 -8.146 -18.196 -18.196 -18.196Zm0 0"/></g></g><g clip-path="url(#l)"><g clip-path="url(#m)"><path d="M248.689 18.288h36.394v36.394h-36.394Zm0 0"/></g></g><g clip-path="url(#n)"><g clip-path="url(#o)"><path fill="none" stroke="#000" stroke-width="2.6665342375292087" d="M266.884 18.288c-10.049 0 -18.196 8.146 -18.196 18.196 0 10.05 8.146 18.196 18.196 18.196 10.05 0 18.196 -8.146 18.196 -18.196 0 -10.05 -8.146 -18.196 -18.196 -18.196Zm0 0"/></g></g><g clip-path="url(#p)"><g clip-path="url(#q)"><g clip-path="url(#r)"><path d="m176.922 48.052 19.96 18.546 -3.274 3.524 -19.961 -18.546Zm0 0"/></g></g></g><g clip-path="url(#s)"><g clip-path="url(#t)"><path d="M132.488 5.099h51.107v51.107h-51.107Zm0 0"/></g></g><g clip-path="url(#u)"><g clip-path="url(#v)"><path fill="none" stroke="#000" stroke-width="2.6665342375292087" d="M158.042 5.099c-14.113 0 -25.554 11.44 -25.554 25.554 0 14.113 11.441 25.553 25.554 25.553 14.113 0 25.554 -11.44 25.554 -25.554 0 -14.113 -11.44 -25.553 -25.554 -25.553Zm0 0"/></g></g><g clip-path="url(#w)"><g clip-path="url(#x)"><g clip-path="url(#y)"><path d="m241.481 60.374 9.988 -10.417 3.473 3.329 -9.988 10.418Zm0 0"/></g></g></g><g clip-path="url(#z)"><g clip-path="url(#A)"><path d="M249.681 81.483h17.614v17.614h-17.614Zm0 0"/></g></g><g clip-path="url(#B)"><g clip-path="url(#C)"><path fill="none" stroke="#000" stroke-width="2.6665342375292087" d="M258.486 81.483c-4.863 0 -8.805 3.942 -8.805 8.805 0 4.864 3.942 8.805 8.805 8.805s8.805 -3.942 8.805 -8.805 -3.942 -8.805 -8.805 -8.805Zm0 0"/></g></g><g clip-path="url(#D)"><g clip-path="url(#E)"><g clip-path="url(#F)"><path d="m185.265 95.65 6.204 -1.066 0.815 4.741 -6.205 1.066Zm0 0"/></g></g></g><g clip-path="url(#G)"><path d="M216.939 63.563a24.285 24.285 0 0 0 -1.172 0.013 24.408 24.408 0 0 0 -1.17 0.071 22.918 22.918 0 0 0 -1.164 0.128 22.803 22.803 0 0 0 -1.157 0.184c-0.384 0.071 -0.767 0.151 -1.147 0.24a24.687 24.687 0 0 0 -1.133 0.298 23.14 23.14 0 0 0 -1.117 0.352 23.893 23.893 0 0 0 -1.099 0.406 25.693 25.693 0 0 0 -1.077 0.46 23.423 23.423 0 0 0 -2.08 1.076 23.778 23.778 0 0 0 -0.998 0.613 23.08 23.08 0 0 0 -0.967 0.661 23.076 23.076 0 0 0 -0.933 0.709 23.226 23.226 0 0 0 -0.898 0.752 24.219 24.219 0 0 0 -0.86 0.796 24.153 24.153 0 0 0 -1.598 1.713 23.098 23.098 0 0 0 -0.734 0.914 23.083 23.083 0 0 0 -0.688 0.948 23.425 23.425 0 0 0 -1.233 1.992 22.406 22.406 0 0 0 -0.542 1.039 23.414 23.414 0 0 0 -0.929 2.151 24.324 24.324 0 0 0 -0.384 1.107 23.466 23.466 0 0 0 -0.602 2.264 23.791 23.791 0 0 0 -0.218 1.152 25.28 25.28 0 0 0 -0.161 1.161 24.175 24.175 0 0 0 -0.15 2.339 24.287 24.287 0 0 0 0.15 2.338c0.044 0.388 0.098 0.775 0.161 1.161 0.063 0.385 0.136 0.769 0.218 1.151a23.505 23.505 0 0 0 0.602 2.265 23.867 23.867 0 0 0 2.447 5.308 23.782 23.782 0 0 0 2.064 2.842 23.266 23.266 0 0 0 0.778 0.877 23.272 23.272 0 0 0 0.82 0.836 22.487 22.487 0 0 0 0.86 0.796 24.033 24.033 0 0 0 1.831 1.461 23.08 23.08 0 0 0 0.968 0.661 23.778 23.778 0 0 0 4.156 2.148 23.907 23.907 0 0 0 4.496 1.297 24.11 24.11 0 0 0 2.321 0.312c0.39 0.033 0.78 0.057 1.17 0.071 0.391 0.013 0.781 0.018 1.172 0.012a24.243 24.243 0 0 0 1.171 -0.012 24.213 24.213 0 0 0 1.168 -0.071 24.15 24.15 0 0 0 2.321 -0.312 24.99 24.99 0 0 0 1.146 -0.241 23.461 23.461 0 0 0 1.133 -0.296 24.694 24.694 0 0 0 1.117 -0.352 23.862 23.862 0 0 0 2.175 -0.867 23.423 23.423 0 0 0 2.08 -1.075 23.717 23.717 0 0 0 3.795 -2.735 24.12 24.12 0 0 0 0.859 -0.796 25.092 25.092 0 0 0 0.819 -0.837 24.009 24.009 0 0 0 2.838 -3.718 23.425 23.425 0 0 0 1.133 -2.051 23.905 23.905 0 0 0 0.927 -2.151 24.311 24.311 0 0 0 0.383 -1.107 24.67 24.67 0 0 0 0.328 -1.124 24.868 24.868 0 0 0 0.273 -1.14 24.161 24.161 0 0 0 0.376 -2.312 22.935 22.935 0 0 0 0.102 -1.167c0.025 -0.39 0.041 -0.78 0.046 -1.171a23.035 23.035 0 0 0 -0.046 -1.171 23.82 23.82 0 0 0 -1.079 -5.743 23.501 23.501 0 0 0 -0.82 -2.194 23.416 23.416 0 0 0 -0.489 -1.064 24.547 24.547 0 0 0 -0.541 -1.039 24.444 24.444 0 0 0 -1.232 -1.992 24.009 24.009 0 0 0 -2.198 -2.737 24.172 24.172 0 0 0 -1.679 -1.634 23.226 23.226 0 0 0 -0.898 -0.752 23.09 23.09 0 0 0 -0.933 -0.709 23.717 23.717 0 0 0 -0.966 -0.661 22.999 22.999 0 0 0 -0.998 -0.613 23.423 23.423 0 0 0 -2.08 -1.075 23.862 23.862 0 0 0 -2.175 -0.867 23.494 23.494 0 0 0 -2.25 -0.649 22.61 22.61 0 0 0 -1.146 -0.241 22.765 22.765 0 0 0 -1.156 -0.184 22.956 22.956 0 0 0 -1.165 -0.128 24.213 24.213 0 0 0 -1.169 -0.071 24.244 24.244 0 0 0 -1.171 -0.013Zm-7.7 31.368a0.191 0.191 0 0 1 -0.171 0.192 0.189 0.189 0 0 1 -0.136 -0.055 0.186 0.186 0 0 1 -0.056 -0.137V88.342c0 -0.053 0.019 -0.099 0.056 -0.137a0.189 0.189 0 0 1 0.136 -0.056 0.18 0.18 0 0 1 0.123 0.063 0.187 0.187 0 0 1 0.049 0.129Zm0.855 -0.77a0.185 0.185 0 0 1 -0.057 0.136 0.184 0.184 0 0 1 -0.136 0.056h-0.065a0.186 0.186 0 0 1 -0.136 -0.056 0.184 0.184 0 0 1 -0.057 -0.136V89.241c0 -0.055 0.019 -0.103 0.056 -0.145a0.204 0.204 0 0 1 0.137 -0.069c0.056 0.005 0.101 0.029 0.138 0.069a0.206 0.206 0 0 1 0.055 0.145Zm0.834 -0.899a0.138 0.138 0 0 1 -0.006 0.07 0.141 0.141 0 0 1 -0.036 0.059 0.154 0.154 0 0 1 -0.13 0.043 0.151 0.151 0 0 1 -0.129 -0.043 0.141 0.141 0 0 1 -0.036 -0.059 0.138 0.138 0 0 1 -0.006 -0.07v-3.252c0 -0.048 0.017 -0.087 0.05 -0.121a0.166 0.166 0 0 1 0.121 -0.051 0.163 0.163 0 0 1 0.121 0.051c0.034 0.034 0.051 0.074 0.051 0.121Zm0.855 0.771a0.186 0.186 0 0 1 -0.057 0.136 0.183 0.183 0 0 1 -0.136 0.056 0.186 0.186 0 0 1 -0.136 -0.056 0.186 0.186 0 0 1 -0.057 -0.136v-4.793a0.193 0.193 0 0 1 0.193 -0.214c0.028 0 0.054 0.005 0.079 0.016a0.19 0.19 0 0 1 0.105 0.118 0.183 0.183 0 0 1 0.008 0.08Zm0.834 0.513a0.206 0.206 0 0 1 -0.055 0.144 0.208 0.208 0 0 1 -0.138 0.071 0.207 0.207 0 0 1 -0.124 -0.076 0.199 0.199 0 0 1 -0.047 -0.138v-5.82a0.182 0.182 0 0 1 0.049 -0.129 0.184 0.184 0 0 1 0.122 -0.063c0.054 0 0.098 0.019 0.136 0.057a0.184 0.184 0 0 1 0.057 0.136Zm0.855 1.84c0 0.058 -0.021 0.109 -0.062 0.151a0.203 0.203 0 0 1 -0.151 0.063 0.196 0.196 0 0 1 -0.159 -0.056 0.183 0.183 0 0 1 -0.046 -0.073c-0.01 -0.028 -0.013 -0.057 -0.01 -0.085V86.887a0.193 0.193 0 0 1 0.01 -0.085 0.191 0.191 0 0 1 0.204 -0.128c0.058 0 0.109 0.021 0.151 0.062a0.206 0.206 0 0 1 0.062 0.151Zm0.834 -1.583a0.179 0.179 0 0 1 -0.009 0.085 0.188 0.188 0 0 1 -0.119 0.119c-0.028 0.01 -0.057 0.013 -0.085 0.01a0.204 0.204 0 0 1 -0.152 -0.063 0.206 0.206 0 0 1 -0.062 -0.151v-6.419c0 -0.059 0.021 -0.11 0.062 -0.152a0.207 0.207 0 0 1 0.152 -0.062 0.193 0.193 0 0 1 0.085 0.01 0.191 0.191 0 0 1 0.128 0.204Zm0.855 0.492a0.227 0.227 0 0 1 -0.061 0.16 0.229 0.229 0 0 1 -0.153 0.075 0.218 0.218 0 0 1 -0.16 -0.069 0.232 0.232 0 0 1 -0.044 -0.077 0.206 0.206 0 0 1 -0.01 -0.088v-7.318a0.193 0.193 0 0 1 0.01 -0.085 0.183 0.183 0 0 1 0.045 -0.074 0.18 0.18 0 0 1 0.072 -0.045c0.029 -0.01 0.057 -0.013 0.086 -0.01a0.203 0.203 0 0 1 0.151 0.063 0.206 0.206 0 0 1 0.062 0.151Zm0.834 -2.311a0.149 0.149 0 0 1 -0.15 0.15h-0.15a0.168 0.168 0 0 1 -0.114 -0.043 0.168 0.168 0 0 1 -0.056 -0.107v-2.697a0.168 0.168 0 0 1 0.057 -0.107 0.168 0.168 0 0 1 0.114 -0.043h0.15a0.142 0.142 0 0 1 0.106 0.044 0.145 0.145 0 0 1 0.044 0.105Zm0.834 0.727a0.185 0.185 0 0 1 -0.041 0.143 0.189 0.189 0 0 1 -0.13 0.072 0.196 0.196 0 0 1 -0.145 -0.065 0.186 0.186 0 0 1 -0.04 -0.07 0.183 0.183 0 0 1 -0.009 -0.08V89.561c0 -0.053 0.019 -0.098 0.057 -0.136a0.186 0.186 0 0 1 0.137 -0.057c0.048 0.005 0.089 0.027 0.122 0.063a0.187 0.187 0 0 1 0.048 0.129Zm0.855 1.027a0.227 0.227 0 0 1 -0.06 0.16 0.229 0.229 0 0 1 -0.153 0.075 0.224 0.224 0 0 1 -0.153 -0.075 0.227 0.227 0 0 1 -0.061 -0.16v-6.205c0 -0.061 0.02 -0.114 0.061 -0.16a0.224 0.224 0 0 1 0.153 -0.075 0.229 0.229 0 0 1 0.153 0.075c0.041 0.046 0.061 0.098 0.06 0.16Zm0.834 1.199a0.206 0.206 0 0 1 -0.01 0.088 0.21 0.21 0 0 1 -0.117 0.129 0.217 0.217 0 0 1 -0.174 0 0.21 0.21 0 0 1 -0.117 -0.129 0.204 0.204 0 0 1 -0.01 -0.088v-8.559a0.196 0.196 0 0 1 -0.054 -0.147 0.197 0.197 0 0 1 0.066 -0.142 0.195 0.195 0 0 1 0.146 -0.055c0.057 0.002 0.104 0.024 0.143 0.066a0.195 0.195 0 0 1 0.159 0.055 0.195 0.195 0 0 1 0.055 0.16Zm0.855 -0.814a0.207 0.207 0 0 1 -0.062 0.152 0.206 0.206 0 0 1 -0.151 0.062 0.207 0.207 0 0 1 -0.152 -0.062 0.207 0.207 0 0 1 -0.062 -0.152v-6.974c0 -0.06 0.021 -0.11 0.062 -0.152a0.207 0.207 0 0 1 0.152 -0.062c0.058 0 0.109 0.021 0.151 0.062a0.207 0.207 0 0 1 0.062 0.152Zm0.835 -0.684a0.191 0.191 0 0 1 -0.055 0.159 0.186 0.186 0 0 1 -0.074 0.047 0.208 0.208 0 0 1 -0.085 0.009 0.211 0.211 0 0 1 -0.086 -0.009 0.193 0.193 0 0 1 -0.074 -0.047 0.191 0.191 0 0 1 -0.045 -0.072 0.211 0.211 0 0 1 -0.009 -0.086v-5.606c0 -0.06 0.021 -0.11 0.062 -0.152a0.207 0.207 0 0 1 0.152 -0.062c0.058 0 0.109 0.021 0.151 0.062a0.207 0.207 0 0 1 0.062 0.152Zm0.856 -0.877c0 0.053 -0.019 0.098 -0.056 0.136a0.186 0.186 0 0 1 -0.137 0.057c-0.032 0.047 -0.076 0.076 -0.133 0.086a0.195 0.195 0 0 1 -0.155 -0.033 0.203 0.203 0 0 1 -0.087 -0.133 0.202 0.202 0 0 1 0.034 -0.156v-3.851c0 -0.054 0.019 -0.098 0.056 -0.136a0.186 0.186 0 0 1 0.137 -0.057c0.052 0 0.098 0.019 0.136 0.057a0.184 0.184 0 0 1 0.057 0.136Zm0.834 1.134a0.191 0.191 0 0 1 -0.128 0.204c-0.028 0.01 -0.057 0.013 -0.085 0.01a0.196 0.196 0 0 1 -0.145 -0.063 0.199 0.199 0 0 1 -0.048 -0.151v-6.12a0.202 0.202 0 0 1 0.055 -0.144 0.206 0.206 0 0 1 0.138 -0.071c0.058 0 0.109 0.021 0.151 0.062a0.208 0.208 0 0 1 0.062 0.152Zm0.856 1.391a0.229 0.229 0 0 1 -0.069 0.146 0.229 0.229 0 0 1 -0.146 0.069 0.203 0.203 0 0 1 -0.151 -0.063 0.205 0.205 0 0 1 -0.063 -0.151v-8.879a0.221 0.221 0 0 1 0.054 -0.166 0.206 0.206 0 0 1 0.073 -0.052 0.203 0.203 0 0 1 0.087 -0.019 0.232 0.232 0 0 1 0.153 0.076c0.041 0.046 0.061 0.098 0.061 0.16Zm0.833 -0.77a0.206 0.206 0 0 1 -0.055 0.165 0.209 0.209 0 0 1 -0.159 0.07 0.228 0.228 0 0 1 -0.153 -0.076 0.229 0.229 0 0 1 -0.061 -0.159v-7.361c0 -0.06 0.021 -0.11 0.062 -0.152a0.207 0.207 0 0 1 0.152 -0.062 0.195 0.195 0 0 1 0.159 0.055 0.195 0.195 0 0 1 0.055 0.16Zm0.856 -1.541a0.186 0.186 0 0 1 -0.056 0.136 0.186 0.186 0 0 1 -0.136 0.057 0.183 0.183 0 0 1 -0.136 -0.057 0.186 0.186 0 0 1 -0.056 -0.136v-4.28a0.186 0.186 0 0 1 -0.002 -0.151 0.185 0.185 0 0 1 0.108 -0.105c0.053 0 0.099 0.018 0.137 0.056a0.185 0.185 0 0 1 0.056 0.137Zm0.834 1.839a0.208 0.208 0 0 1 -0.054 0.166 0.223 0.223 0 0 1 -0.072 0.053 0.222 0.222 0 0 1 -0.087 0.018 0.233 0.233 0 0 1 -0.167 -0.046 0.233 0.233 0 0 1 -0.09 -0.147v-8.003c0 -0.059 0.021 -0.11 0.062 -0.152a0.207 0.207 0 0 1 0.152 -0.062 0.192 0.192 0 0 1 0.213 0.214Zm5.583 0.814a1.325 1.325 0 0 1 -0.055 0.271c-0.028 0.088 -0.063 0.174 -0.108 0.255a1.367 1.367 0 0 1 -0.157 0.227 1.35 1.35 0 0 1 -0.433 0.338 1.362 1.362 0 0 1 -0.259 0.097 1.337 1.337 0 0 1 -0.549 0.03l-2.716 -0.427a1.426 1.426 0 0 1 -0.734 -0.376 1.418 1.418 0 0 1 -0.319 -0.453 1.447 1.447 0 0 1 -0.103 -0.819l0.364 -2.525a0.139 0.139 0 0 1 -0.092 -0.051 0.139 0.139 0 0 1 -0.036 -0.099v-2.524a0.161 0.161 0 0 1 0.041 -0.114 0.169 0.169 0 0 1 0.107 -0.058h0.15a0.169 0.169 0 0 1 0.108 0.058c0.028 0.033 0.043 0.07 0.042 0.114v0.406l0.427 -2.931c0.023 -0.148 0.067 -0.289 0.132 -0.422 0.067 -0.134 0.151 -0.254 0.254 -0.362a1.435 1.435 0 0 1 0.352 -0.267 1.425 1.425 0 0 1 0.418 -0.147 11.566 11.566 0 0 0 -0.749 -2.568 1.575 1.575 0 0 1 -0.667 -0.252 1.556 1.556 0 0 1 -0.488 -0.519 10.431 10.431 0 0 0 -0.722 -1.153 10.324 10.324 0 0 0 -0.869 -1.046 10.355 10.355 0 0 0 -1 -0.923 10.435 10.435 0 0 0 -1.113 -0.782 10.088 10.088 0 0 0 -1.207 -0.627 10.084 10.084 0 0 0 -1.279 -0.462 10.174 10.174 0 0 0 -2.686 -0.398c-0.457 0.003 -0.913 0.036 -1.366 0.101a10.132 10.132 0 0 0 -1.341 0.282 10.096 10.096 0 0 0 -1.292 0.459 10.212 10.212 0 0 0 -2.344 1.41 10.156 10.156 0 0 0 -1.011 0.927 10.116 10.116 0 0 0 -0.878 1.053 10.401 10.401 0 0 0 -0.73 1.16 1.528 1.528 0 0 1 -0.483 0.533c-0.203 0.14 -0.427 0.226 -0.672 0.259a11.296 11.296 0 0 0 -0.791 2.547 1.39 1.39 0 0 1 0.525 0.049c0.085 0.026 0.168 0.058 0.246 0.099a1.34 1.34 0 0 1 0.412 0.33 1.387 1.387 0 0 1 0.314 0.721l0.428 2.931v-0.3a0.163 0.163 0 0 1 0.049 -0.1 0.169 0.169 0 0 1 0.101 -0.05h0.17c0.04 0.005 0.074 0.022 0.101 0.05 0.028 0.028 0.044 0.061 0.049 0.1v2.312c0 0.041 -0.015 0.076 -0.044 0.105a0.144 0.144 0 0 1 -0.106 0.045l0.385 2.717c0.014 0.091 0.02 0.183 0.016 0.277a1.512 1.512 0 0 1 -0.037 0.275 1.542 1.542 0 0 1 -0.089 0.263 1.449 1.449 0 0 1 -0.534 0.624 1.376 1.376 0 0 1 -0.245 0.129c-0.086 0.035 -0.174 0.061 -0.266 0.079l-2.716 0.429c-0.091 0.013 -0.184 0.017 -0.276 0.012a1.337 1.337 0 0 1 -0.273 -0.044 1.273 1.273 0 0 1 -0.259 -0.097 1.364 1.364 0 0 1 -0.234 -0.147 1.38 1.38 0 0 1 -0.464 -0.674 1.397 1.397 0 0 1 -0.056 -0.271l-1.133 -7.703a1.457 1.457 0 0 1 -0.032 -0.286 1.461 1.461 0 0 1 0.026 -0.287 1.444 1.444 0 0 1 0.219 -0.529 1.349 1.349 0 0 1 0.185 -0.221 1.349 1.349 0 0 1 0.224 -0.18 1.419 1.419 0 0 1 0.533 -0.209l1.112 -0.193a13.905 13.905 0 0 1 0.941 -3.424 1.753 1.753 0 0 1 -0.192 -0.443 1.771 1.771 0 0 1 0.192 -1.398 13.985 13.985 0 0 1 2.039 -2.865 14.006 14.006 0 0 1 2.688 -2.27 13.137 13.137 0 0 1 1.589 -0.84 12.931 12.931 0 0 1 1.692 -0.611 12.953 12.953 0 0 1 10.387 1.451 13.705 13.705 0 0 1 4.834 5.115c0.081 0.142 0.14 0.293 0.178 0.452a1.695 1.695 0 0 1 -0.056 0.96 1.66 1.66 0 0 1 -0.229 0.427 13.575 13.575 0 0 1 0.942 3.381l1.497 0.235a1.426 1.426 0 0 1 0.733 0.376 1.418 1.418 0 0 1 0.319 0.453 1.454 1.454 0 0 1 0.122 0.541c0.003 0.093 -0.004 0.185 -0.019 0.278Zm0 0"/></g><g clip-path="url(#H)"><path fill="#fff" d="M256.7 35.21c-0.235 0 -0.425 0.19 -0.425 0.425v1.697a0.424 0.424 0 1 0 0.848 0v-1.697a0.424 0.424 0 0 0 -0.424 -0.425Zm0 0"/></g><path fill="#fff" d="M258.397 33.512a0.424 0.424 0 0 0 -0.424 0.425v5.093a0.424 0.424 0 1 0 0.848 0v-5.092c0 -0.234 -0.189 -0.425 -0.425 -0.425Zm1.697 0.85c-0.234 0 -0.424 0.189 -0.424 0.423v3.395a0.424 0.424 0 1 0 0.848 0v-3.395c0 -0.234 -0.189 -0.424 -0.425 -0.424Zm1.698 -3.395c-0.234 0 -0.424 0.189 -0.424 0.424v10.185a0.424 0.424 0 1 0 0.848 0V31.39c0 -0.234 -0.19 -0.424 -0.425 -0.424Zm1.697 3.395c-0.234 0 -0.424 0.189 -0.424 0.423v3.395a0.424 0.424 0 1 0 0.848 0v-3.395c0 -0.234 -0.189 -0.424 -0.425 -0.424Zm0 0"/><g clip-path="url(#I)"><path fill="#fff" d="M265.187 26.722a0.424 0.424 0 0 0 -0.424 0.425v18.673c0 0.234 0.189 0.423 0.424 0.423 0.235 0 0.425 -0.189 0.425 -0.424v-18.673c0 -0.234 -0.189 -0.424 -0.425 -0.424Zm0 0"/></g><path fill="#fff" d="M266.884 30.117a0.424 0.424 0 0 0 -0.424 0.425v11.883c0 0.234 0.189 0.424 0.424 0.424 0.235 0 0.425 -0.189 0.425 -0.424V30.542c0 -0.234 -0.189 -0.425 -0.425 -0.425Zm1.697 1.698a0.424 0.424 0 0 0 -0.423 0.425v8.488a0.424 0.424 0 1 0 0.848 0v-8.488c0 -0.234 -0.189 -0.425 -0.425 -0.425Zm1.698 2.547c-0.234 0 -0.424 0.189 -0.424 0.423v3.395a0.424 0.424 0 1 0 0.848 0v-3.395c0 -0.234 -0.19 -0.424 -0.425 -0.424Zm1.697 0.848a0.424 0.424 0 0 0 -0.424 0.425v1.697a0.424 0.424 0 1 0 0.848 0v-1.697c0 -0.234 -0.189 -0.425 -0.425 -0.425Zm1.698 -3.395a0.424 0.424 0 0 0 -0.424 0.425v7.638a0.424 0.424 0 1 0 0.848 0v-7.638c0 -0.234 -0.189 -0.425 -0.425 -0.425Zm1.697 2.547c-0.234 0 -0.424 0.189 -0.424 0.423v3.395a0.424 0.424 0 1 0 0.848 0v-3.395c0 -0.234 -0.189 -0.424 -0.425 -0.424Zm0 0"/><g clip-path="url(#J)"><path fill="#fff" d="M277.07 35.21a0.424 0.424 0 0 0 -0.424 0.425v1.697a0.424 0.424 0 1 0 0.848 0v-1.697c0 -0.234 -0.189 -0.425 -0.425 -0.425Zm0 0"/></g><g clip-path="url(#K)"><path fill="#fff" d="M143.49 28.833a0.607 0.607 0 0 0 -0.607 0.606v2.425c0 0.335 0.272 0.606 0.607 0.606a0.606 0.606 0 0 0 0.606 -0.606v-2.425a0.607 0.607 0 0 0 -0.606 -0.606Zm0 0"/></g><path fill="#fff" d="M145.915 26.407a0.607 0.607 0 0 0 -0.606 0.606v7.276a0.606 0.606 0 1 0 1.213 0v-7.276a0.607 0.607 0 0 0 -0.606 -0.606Zm2.425 1.213a0.606 0.606 0 0 0 -0.606 0.606v4.85a0.607 0.607 0 0 0 1.214 0v-4.85c0 -0.335 -0.272 -0.606 -0.607 -0.606Zm2.426 -4.851a0.606 0.606 0 0 0 -0.606 0.606v14.551a0.607 0.607 0 0 0 0.606 0.607 0.607 0.607 0 0 0 0.606 -0.607v-14.551c0 -0.335 -0.272 -0.606 -0.606 -0.606Zm2.425 4.851a0.606 0.606 0 0 0 -0.606 0.606v4.85a0.606 0.606 0 1 0 1.212 0v-4.85a0.606 0.606 0 0 0 -0.606 -0.606Zm0 0"/><g clip-path="url(#L)"><path fill="#fff" d="M155.616 16.707a0.606 0.606 0 0 0 -0.606 0.606V43.991a0.606 0.606 0 1 0 1.212 0V17.313c0 -0.335 -0.272 -0.606 -0.606 -0.606Zm0 0"/></g><path fill="#fff" d="M158.041 21.556a0.607 0.607 0 0 0 -0.606 0.607v16.977a0.606 0.606 0 1 0 1.212 0v-16.977c0 -0.335 -0.271 -0.607 -0.606 -0.607Zm2.426 2.426a0.606 0.606 0 0 0 -0.607 0.606v12.126a0.606 0.606 0 0 0 0.606 0.606 0.606 0.606 0 0 0 0.606 -0.606V24.588a0.606 0.606 0 0 0 -0.606 -0.606Zm2.425 3.638a0.606 0.606 0 0 0 -0.606 0.606v4.85a0.606 0.606 0 1 0 1.213 0v-4.85a0.606 0.606 0 0 0 -0.606 -0.606Zm2.426 1.213a0.607 0.607 0 0 0 -0.607 0.606v2.425c0 0.335 0.272 0.606 0.607 0.606a0.606 0.606 0 0 0 0.606 -0.606v-2.425a0.606 0.606 0 0 0 -0.606 -0.606Zm2.425 -4.851a0.606 0.606 0 0 0 -0.606 0.606v10.913a0.606 0.606 0 0 0 0.606 0.606 0.606 0.606 0 0 0 0.606 -0.606V24.589a0.606 0.606 0 0 0 -0.606 -0.606Zm2.425 3.638a0.606 0.606 0 0 0 -0.606 0.606v4.85a0.607 0.607 0 0 0 1.213 0v-4.85c0 -0.335 -0.272 -0.606 -0.607 -0.606Zm0 0"/><g clip-path="url(#M)"><path fill="#fff" d="M172.592 28.833a0.606 0.606 0 0 0 -0.606 0.606v2.425a0.606 0.606 0 0 0 0.606 0.606 0.606 0.606 0 0 0 0.606 -0.606v-2.425a0.606 0.606 0 0 0 -0.606 -0.606Zm0 0"/></g><g clip-path="url(#N)"><path fill="#fff" d="M151.858 105.976c-0.235 0 -0.425 0.189 -0.425 0.424v1.698a0.424 0.424 0 1 0 0.848 0v-1.698c0 -0.234 -0.19 -0.424 -0.424 -0.424Zm0 0"/></g><path fill="#fff" d="M153.554 104.279c-0.234 0 -0.424 0.19 -0.424 0.424v5.093a0.424 0.424 0 1 0 0.848 0v-5.092c0 -0.234 -0.189 -0.424 -0.425 -0.424Zm1.698 0.848a0.424 0.424 0 0 0 -0.424 0.425v3.395a0.424 0.424 0 1 0 0.848 0v-3.395c0 -0.234 -0.189 -0.425 -0.425 -0.425Zm1.697 -3.395a0.424 0.424 0 0 0 -0.424 0.424v10.186a0.424 0.424 0 1 0 0.848 0V102.156c0 -0.234 -0.189 -0.425 -0.425 -0.425Zm1.698 3.395a0.424 0.424 0 0 0 -0.424 0.425v3.395a0.424 0.424 0 1 0 0.848 0v-3.395c0 -0.234 -0.189 -0.425 -0.425 -0.425Zm0 0"/><g clip-path="url(#O)"><path fill="#fff" d="M160.345 97.489c-0.234 0 -0.424 0.189 -0.424 0.424v18.673c0 0.235 0.189 0.424 0.424 0.424 0.235 0 0.424 -0.189 0.424 -0.424V97.912c0 -0.234 -0.189 -0.424 -0.424 -0.424Zm0 0"/></g><path fill="#fff" d="M162.042 100.884c-0.234 0 -0.424 0.189 -0.424 0.423v11.883a0.424 0.424 0 1 0 0.848 0v-11.883c0 -0.234 -0.189 -0.424 -0.425 -0.424Zm1.698 1.697c-0.234 0 -0.424 0.189 -0.424 0.424v8.488a0.424 0.424 0 1 0 0.848 0V103.005c0 -0.234 -0.189 -0.424 -0.425 -0.424Zm1.698 2.546a0.424 0.424 0 0 0 -0.424 0.425v3.395a0.424 0.424 0 1 0 0.848 0v-3.395c0 -0.234 -0.189 -0.425 -0.425 -0.425Zm1.697 0.849c-0.234 0 -0.424 0.189 -0.424 0.424v1.698c0 0.235 0.189 0.424 0.424 0.424 0.235 0 0.425 -0.189 0.425 -0.424v-1.698c0 -0.234 -0.189 -0.424 -0.425 -0.424Zm1.698 -3.395c-0.234 0 -0.424 0.189 -0.424 0.424v7.639a0.424 0.424 0 1 0 0.848 0V103.005c0 -0.234 -0.19 -0.424 -0.425 -0.424Zm1.697 2.546a0.424 0.424 0 0 0 -0.424 0.425v3.395a0.424 0.424 0 1 0 0.848 0v-3.395c0 -0.234 -0.189 -0.425 -0.425 -0.425Zm1.698 0.849c-0.234 0 -0.424 0.189 -0.424 0.424v1.698c0 0.235 0.189 0.424 0.424 0.424 0.235 0 0.425 -0.189 0.425 -0.424v-1.698c0 -0.234 -0.189 -0.424 -0.425 -0.424Zm0 0"/><g clip-path="url(#P)"><path fill="#fff" d="M248.036 127.403c-0.259 0 -0.469 0.21 -0.469 0.469v1.877a0.469 0.469 0 1 0 0.938 0v-1.877c0 -0.259 -0.21 -0.469 -0.469 -0.469Zm0 0"/></g><path fill="#fff" d="M249.913 125.527c-0.259 0 -0.469 0.21 -0.469 0.469v5.631c0 0.26 0.21 0.469 0.469 0.469a0.468 0.468 0 0 0 0.469 -0.469V125.996c0 -0.259 -0.21 -0.469 -0.469 -0.469Zm1.878 0.938a0.47 0.47 0 0 0 -0.47 0.469v3.754c0 0.26 0.21 0.47 0.47 0.47 0.259 0 0.469 -0.21 0.469 -0.469v-3.754c0 -0.259 -0.21 -0.469 -0.469 -0.469Zm1.877 -3.754a0.469 0.469 0 0 0 -0.469 0.469v11.264c0 0.259 0.209 0.469 0.469 0.469 0.259 0 0.469 -0.21 0.469 -0.469v-11.264c0 -0.259 -0.21 -0.469 -0.469 -0.469Zm1.877 3.754c-0.259 0 -0.469 0.21 -0.469 0.469v3.754a0.469 0.469 0 1 0 0.938 0v-3.754c0 -0.259 -0.21 -0.469 -0.469 -0.469Zm0 0"/><g clip-path="url(#Q)"><path fill="#fff" d="M257.422 118.018c-0.259 0 -0.469 0.21 -0.469 0.469v20.649a0.47 0.47 0 0 0 0.938 0v-20.649c0 -0.259 -0.21 -0.469 -0.469 -0.469Zm0 0"/></g><path fill="#fff" d="M259.3 121.772a0.47 0.47 0 0 0 -0.469 0.469v13.141a0.47 0.47 0 0 0 0.939 0V122.242c0 -0.259 -0.21 -0.469 -0.469 -0.469Zm1.877 1.877a0.469 0.469 0 0 0 -0.469 0.469v9.386a0.469 0.469 0 1 0 0.938 0V124.119c0 -0.259 -0.21 -0.469 -0.469 -0.469Zm1.877 2.816a0.469 0.469 0 0 0 -0.469 0.469v3.754c0 0.26 0.209 0.47 0.469 0.47a0.468 0.468 0 0 0 0.469 -0.469v-3.754c0 -0.259 -0.209 -0.469 -0.469 -0.469Zm1.877 0.938a0.469 0.469 0 0 0 -0.469 0.469v1.877c0 0.26 0.209 0.469 0.469 0.469a0.468 0.468 0 0 0 0.469 -0.469v-1.877c0 -0.259 -0.21 -0.469 -0.469 -0.469Zm1.877 -3.754c-0.259 0 -0.469 0.21 -0.469 0.469v8.447c0 0.26 0.21 0.469 0.469 0.469a0.468 0.468 0 0 0 0.469 -0.469V124.119c0 -0.259 -0.209 -0.469 -0.469 -0.469Zm1.877 2.816c-0.259 0 -0.469 0.21 -0.469 0.469v3.754c0 0.26 0.21 0.47 0.469 0.47a0.468 0.468 0 0 0 0.469 -0.469v-3.754c0 -0.259 -0.209 -0.469 -0.469 -0.469Zm0 0"/><g clip-path="url(#R)"><path fill="#fff" d="M270.562 127.403c-0.259 0 -0.469 0.21 -0.469 0.469v1.877c0 0.26 0.21 0.469 0.469 0.469a0.468 0.468 0 0 0 0.469 -0.469v-1.877c0 -0.259 -0.209 -0.469 -0.469 -0.469Zm0 0"/></g><g clip-path="url(#S)"><path fill="#fafafa" d="M253.591 89.676a0.204 0.204 0 0 0 -0.203 0.204v0.815a0.204 0.204 0 1 0 0.408 0v-0.815a0.204 0.204 0 0 0 -0.204 -0.204Zm0 0"/></g><path fill="#fafafa" d="M254.407 88.861a0.204 0.204 0 0 0 -0.204 0.203v2.448a0.204 0.204 0 1 0 0.408 0v-2.448c0 -0.112 -0.091 -0.203 -0.203 -0.203Zm0.816 0.408c-0.112 0 -0.203 0.091 -0.203 0.203v1.632a0.204 0.204 0 1 0 0.408 0v-1.632a0.204 0.204 0 0 0 -0.204 -0.203Zm0.817 -1.632a0.204 0.204 0 0 0 -0.204 0.204v4.895c0 0.113 0.091 0.203 0.204 0.203a0.203 0.203 0 0 0 0.203 -0.203v-4.895a0.204 0.204 0 0 0 -0.203 -0.204Zm0.816 1.632a0.204 0.204 0 0 0 -0.205 0.203v1.632a0.204 0.204 0 1 0 0.409 0v-1.632a0.205 0.205 0 0 0 -0.204 -0.203Zm0 0"/><g clip-path="url(#T)"><path fill="#fafafa" d="M257.67 85.597c-0.112 0 -0.203 0.091 -0.203 0.204v8.975c0 0.113 0.091 0.203 0.203 0.203a0.203 0.203 0 0 0 0.204 -0.203v-8.975a0.204 0.204 0 0 0 -0.204 -0.204Zm0 0"/></g><path fill="#fafafa" d="M258.487 87.229a0.204 0.204 0 0 0 -0.204 0.203v5.712a0.204 0.204 0 1 0 0.408 0v-5.712c0 -0.112 -0.091 -0.203 -0.203 -0.203Zm0.816 0.815a0.203 0.203 0 0 0 -0.203 0.204v4.08a0.204 0.204 0 0 0 0.408 0v-4.08a0.204 0.204 0 0 0 -0.204 -0.204Zm0.816 1.224a0.204 0.204 0 0 0 -0.204 0.203v1.632a0.204 0.204 0 1 0 0.408 0v-1.632a0.203 0.203 0 0 0 -0.203 -0.203Zm0.816 0.408a0.204 0.204 0 0 0 -0.204 0.204v0.815a0.204 0.204 0 1 0 0.409 0v-0.815a0.204 0.204 0 0 0 -0.204 -0.204Zm0.816 -1.632a0.204 0.204 0 0 0 -0.203 0.204v3.672a0.204 0.204 0 0 0 0.408 0v-3.672a0.204 0.204 0 0 0 -0.204 -0.204Zm0.816 1.224a0.204 0.204 0 0 0 -0.204 0.203v1.632a0.204 0.204 0 1 0 0.408 0v-1.632a0.204 0.204 0 0 0 -0.203 -0.203Zm0 0"/><g clip-path="url(#U)"><path fill="#fafafa" d="M263.382 89.676a0.204 0.204 0 0 0 -0.204 0.204v0.815a0.204 0.204 0 1 0 0.409 0v-0.815a0.204 0.204 0 0 0 -0.204 -0.204Zm0 0"/></g></svg>