<svg xmlns="http://www.w3.org/2000/svg" version="1.0" viewBox="0 0 500 190.491" width="500" height="190.491"><defs><clipPath id="a"><path d="M238.748 106.04h16.192v15.557h-16.192Zm0 0"/></clipPath><clipPath id="b"><path d="m242.289 106.089 12.641 11.746 -3.29 3.541 -12.641 -11.746Zm0 0"/></clipPath><clipPath id="c"><path d="m242.289 106.089 12.637 11.743 -3.29 3.541 -12.637 -11.743Zm0 0"/></clipPath><clipPath id="d"><path d="M246.584 112.163h36.564v36.564H246.584Zm0 0"/></clipPath><clipPath id="e"><path d="M264.867 112.163c-10.098 0 -18.283 8.185 -18.283 18.281 0 10.098 8.185 18.283 18.283 18.283 10.096 0 18.281 -8.185 18.281 -18.283 0 -10.096 -8.185 -18.281 -18.281 -18.281Zm0 0"/></clipPath><clipPath id="f"><path d="M246.584 112.163h36.563V148.726H246.584Zm0 0"/></clipPath><clipPath id="g"><path d="M264.865 112.163c-10.096 0 -18.281 8.185 -18.281 18.281 0 10.096 8.185 18.281 18.281 18.281 10.096 0 18.281 -8.185 18.281 -18.281 0 -10.096 -8.185 -18.281 -18.281 -18.281Zm0 0"/></clipPath><clipPath id="h"><path d="M148.87 90.499h36.565v36.566H148.87Zm0 0"/></clipPath><clipPath id="i"><path d="M167.153 90.499c-10.097 0 -18.283 8.185 -18.283 18.283 0 10.097 8.185 18.283 18.283 18.283s18.283 -8.185 18.283 -18.283c0 -10.098 -8.185 -18.283 -18.283 -18.283Zm0 0"/></clipPath><clipPath id="j"><path d="M148.87 90.499H185.433v36.563H148.87Zm0 0"/></clipPath><clipPath id="k"><path d="M167.152 90.499c-10.096 0 -18.281 8.185 -18.281 18.282 0 10.096 8.185 18.281 18.281 18.281 10.096 0 18.281 -8.185 18.281 -18.281 0 -10.096 -8.185 -18.281 -18.281 -18.281Zm0 0"/></clipPath><clipPath id="l"><path d="M254.205 19.402h36.564v36.564H254.205Zm0 0"/></clipPath><clipPath id="m"><path d="M272.487 19.402c-10.098 0 -18.283 8.185 -18.283 18.281 0 10.098 8.185 18.283 18.283 18.283 10.096 0 18.281 -8.185 18.281 -18.283 0 -10.096 -8.185 -18.281 -18.281 -18.281Zm0 0"/></clipPath><clipPath id="n"><path d="M254.205 19.402h36.563v36.562H254.205Zm0 0"/></clipPath><clipPath id="o"><path d="M272.486 19.402c-10.096 0 -18.281 8.184 -18.281 18.28 0 10.098 8.185 18.281 18.281 18.281 10.096 0 18.281 -8.184 18.281 -18.281 0 -10.096 -8.185 -18.28 -18.281 -18.28Zm0 0"/></clipPath><clipPath id="p"><path d="M178.744 49.21h23.494v22.541h-23.494Zm0 0"/></clipPath><clipPath id="q"><path d="m182.102 49.305 20.054 18.634 -3.29 3.541 -20.054 -18.634Zm0 0"/></clipPath><clipPath id="r"><path d="m182.102 49.305 20.052 18.633 -3.29 3.54 -20.052 -18.631Zm0 0"/></clipPath><clipPath id="s"><path d="M137.46 6.151h51.347v51.347h-51.347Zm0 0"/></clipPath><clipPath id="t"><path d="M163.134 6.151c-14.18 0 -25.674 11.494 -25.674 25.673s11.494 25.674 25.674 25.674c14.179 0 25.673 -11.495 25.673 -25.674 0 -14.179 -11.494 -25.673 -25.673 -25.673Zm0 0"/></clipPath><clipPath id="u"><path d="M137.46 6.151h51.347v51.346h-51.347Zm0 0"/></clipPath><clipPath id="v"><path d="M163.132 6.151c-14.179 0 -25.673 11.494 -25.673 25.673s11.494 25.673 25.673 25.673c14.18 0 25.674 -11.494 25.674 -25.673 0 -14.179 -11.494 -25.673 -25.674 -25.673Zm0 0"/></clipPath><clipPath id="w"><path d="M246.685 51.115h13.969v13.969h-13.969Zm0 0"/></clipPath><clipPath id="x"><path d="m246.963 61.685 10.034 -10.466 3.489 3.345 -10.034 10.466Zm0 0"/></clipPath><clipPath id="y"><path d="m246.963 61.685 10.032 -10.463 3.489 3.345 -10.032 10.463Zm0 0"/></clipPath><clipPath id="z"><path d="M255.2 82.893h17.697v17.696H255.2Zm0 0"/></clipPath><clipPath id="A"><path d="M264.049 82.893c-4.886 0 -8.848 3.961 -8.848 8.848 0 4.886 3.962 8.848 8.848 8.848 4.888 0 8.849 -3.961 8.849 -8.847 0 -4.888 -3.961 -8.849 -8.848 -8.849Zm0 0"/></clipPath><clipPath id="B"><path d="M255.2 82.893h17.619v17.619H255.2Zm0 0"/></clipPath><clipPath id="C"><path d="M264.048 82.893c-4.886 0 -8.848 3.961 -8.848 8.846 0 4.886 3.961 8.847 8.847 8.847 4.886 0 8.846 -3.961 8.846 -8.847 0 -4.885 -3.96 -8.846 -8.846 -8.846Zm0 0"/></clipPath><clipPath id="D"><path d="M190.173 95.88h7.62v6.032h-7.62Zm0 0"/></clipPath><clipPath id="E"><path d="m190.483 97.127 6.233 -1.07 0.818 4.764 -6.233 1.07Zm0 0"/></clipPath><clipPath id="F"><path d="m190.483 97.127 6.232 -1.07 0.819 4.764 -6.232 1.07Zm0 0"/></clipPath><clipPath id="G"><path d="M197.793 64.89h48.893v47.381H197.793Zm0 0"/></clipPath><clipPath id="H"><path d="M261.826 36.193H262.877v2.857h-1.052Zm0 0"/></clipPath><clipPath id="I"><path d="M270.179 27.875h1.27v19.524h-1.27Zm0 0"/></clipPath><clipPath id="J"><path d="M147.903 29.844H149.218v3.81h-1.314Zm0 0"/></clipPath><clipPath id="K"><path d="M160.012 17.812h1.587v28.095h-1.587Zm0 0"/></clipPath><clipPath id="L"><path d="M176.839 29.844h1.54v3.81H176.839Zm0 0"/></clipPath><clipPath id="M"><path d="M156.493 107.31H157.472v2.857h-0.98Zm0 0"/></clipPath><clipPath id="N"><path d="M164.774 98.973h1.27v19.524h-1.27Zm0 0"/></clipPath><clipPath id="O"><path d="M176.839 107.31h1.081v2.857H176.839Zm0 0"/></clipPath><clipPath id="P"><path d="M253.077 128.899H254.305v3.175h-1.228Zm0 0"/></clipPath><clipPath id="Q"><path d="M262.242 119.599h1.27v21.667h-1.27Zm0 0"/></clipPath><clipPath id="R"><path d="M275.577 128.899h1.073v3.175H275.577Zm0 0"/></clipPath><clipPath id="S"><path d="M258.924 91.118H259.385v1.27h-0.461Zm0 0"/></clipPath><clipPath id="T"><path d="M262.877 87.027h0.635V96.515h-0.635Zm0 0"/></clipPath><clipPath id="U"><path d="M268.592 91.118h0.571v1.27H268.592Zm0 0"/></clipPath><clipPath id="V"><path d="M388.285 145.921h3.712v5.955h-3.712Zm0 0"/></clipPath><clipPath id="W"><path d="M390.141 145.921c-1.025 0 -1.857 1.333 -1.857 2.978 0 1.644 0.831 2.977 1.857 2.977 1.024 0 1.855 -1.333 1.855 -2.978 0 -1.645 -0.831 -2.978 -1.855 -2.978"/></clipPath><clipPath id="X"><path d="M397.171 146.15h3.868v5.619h-3.868Zm0 0"/></clipPath><clipPath id="Y"><path d="M399.104 146.15c-1.068 0 -1.933 1.257 -1.933 2.809 0 1.552 0.866 2.81 1.933 2.81 1.069 0 1.935 -1.257 1.935 -2.81 0 -1.552 -0.866 -2.809 -1.935 -2.809"/></clipPath><clipPath id="Z"><path d="M389.961 146.489h3.712v4.94h-3.712Zm0 0"/></clipPath><clipPath id="aa"><path d="M391.817 146.489c-1.025 0 -1.855 1.106 -1.855 2.469 0 1.364 0.831 2.47 1.855 2.47 1.025 0 1.857 -1.106 1.857 -2.47 0 -1.363 -0.831 -2.469 -1.857 -2.469"/></clipPath><clipPath id="ab"><path d="M395.722 146.999h3.712v4.43h-3.712Zm0 0"/></clipPath><clipPath id="ac"><path d="M397.579 146.999c-1.025 0 -1.856 0.991 -1.856 2.215 0 1.223 0.831 2.215 1.856 2.215 1.025 0 1.855 -0.992 1.855 -2.215 0 -1.224 -0.831 -2.215 -1.855 -2.215"/></clipPath><clipPath id="ad"><path d="M393.982 146.109h5.122v4.43h-5.122Zm0 0"/></clipPath><clipPath id="ae"><path d="M396.543 146.109c-1.414 0 -2.561 0.991 -2.561 2.215 0 1.223 1.147 2.215 2.561 2.215 1.415 0 2.561 -0.992 2.561 -2.215 0 -1.224 -1.146 -2.215 -2.561 -2.215"/></clipPath><clipPath id="af"><path d="M389.961 146.109h5.122v4.43h-5.122Zm0 0"/></clipPath><clipPath id="ag"><path d="M392.523 146.109c-1.414 0 -2.561 0.991 -2.561 2.215 0 1.223 1.147 2.215 2.561 2.215 1.414 0 2.561 -0.992 2.561 -2.215 0 -1.224 -1.147 -2.215 -2.561 -2.215"/></clipPath><clipPath id="ah"><path d="M391.256 147.971h6.935v6.908h-6.935Zm0 0"/></clipPath><clipPath id="ai"><path d="m391.276 151.429 3.448 -3.449 3.448 3.449 -3.448 3.448Zm0 0"/></clipPath><clipPath id="aj"><path d="m391.276 151.429 3.448 -3.449 3.448 3.449 -3.448 3.448Zm0 0"/></clipPath></defs><path d="m328.319 185.687 -4.148 -9.612c-0.052 -0.098 -0.129 -0.15 -0.227 -0.15h-1.583c-0.124 0 -0.191 0.063 -0.191 0.192v9.42c0 0.176 -0.052 0.315 -0.15 0.414 -0.103 0.103 -0.237 0.149 -0.417 0.149h-5.959c-0.176 0 -0.315 -0.051 -0.418 -0.149 -0.103 -0.099 -0.149 -0.238 -0.149 -0.414v-25.357c0 -0.176 0.051 -0.315 0.149 -0.418 0.098 -0.099 0.237 -0.15 0.418 -0.15h11.428c1.711 0 3.211 0.351 4.509 1.059 1.295 0.708 2.3 1.697 3.021 2.974 0.717 1.271 1.078 2.745 1.078 4.41 0 1.665 -0.408 3.123 -1.227 4.37 -0.82 1.251 -1.943 2.161 -3.377 2.746 -0.124 0.051 -0.165 0.139 -0.113 0.263l4.788 9.99c0.052 0.15 0.077 0.238 0.077 0.264 0 0.124 -0.051 0.227 -0.149 0.3 -0.103 0.077 -0.227 0.113 -0.377 0.113h-6.34c-0.325 0 -0.541 -0.139 -0.638 -0.413Zm-6.149 -19.793v4.426c0 0.124 0.062 0.191 0.191 0.191h3.546c0.805 0 1.459 -0.222 1.965 -0.661 0.505 -0.44 0.752 -1.014 0.752 -1.723 0 -0.708 -0.253 -1.318 -0.752 -1.757 -0.506 -0.44 -1.155 -0.662 -1.965 -0.662h-3.546c-0.124 0 -0.191 0.062 -0.191 0.191Zm34.145 -0.341c-0.103 0.103 -0.237 0.15 -0.413 0.15h-11.278c-0.124 0 -0.191 0.062 -0.191 0.191v3.558c0 0.124 0.062 0.191 0.191 0.191h6.98c0.175 0 0.314 0.052 0.418 0.15 0.098 0.103 0.149 0.238 0.149 0.413v4.918c0 0.176 -0.051 0.316 -0.149 0.419 -0.098 0.103 -0.238 0.15 -0.418 0.15h-6.98c-0.124 0 -0.191 0.062 -0.191 0.191v3.935c0 0.129 0.062 0.191 0.191 0.191h11.278c0.176 0 0.315 0.052 0.413 0.15 0.098 0.103 0.149 0.238 0.149 0.419v4.958c0 0.176 -0.051 0.315 -0.149 0.414 -0.098 0.098 -0.237 0.149 -0.413 0.149h-18c-0.175 0 -0.314 -0.051 -0.417 -0.149 -0.104 -0.099 -0.15 -0.238 -0.15 -0.414v-25.357c0 -0.176 0.052 -0.315 0.15 -0.418 0.098 -0.099 0.237 -0.15 0.417 -0.15h17.995c0.176 0 0.315 0.051 0.413 0.15 0.098 0.103 0.149 0.237 0.149 0.418v4.953c0 0.176 -0.051 0.316 -0.149 0.419Zm8.639 20.413c-0.129 -0.088 -0.201 -0.207 -0.227 -0.362l-7.432 -25.351c-0.026 -0.052 -0.036 -0.114 -0.036 -0.192 0 -0.305 0.175 -0.455 0.525 -0.455h6.454c0.325 0 0.526 0.166 0.604 0.492l3.773 15.971c0.026 0.104 0.062 0.15 0.114 0.15 0.051 0 0.087 -0.052 0.113 -0.15l3.66 -15.971c0.077 -0.326 0.279 -0.492 0.603 -0.492h6.3c0.201 0 0.345 0.057 0.433 0.171 0.087 0.114 0.108 0.269 0.056 0.476l-7.504 25.355c-0.026 0.15 -0.104 0.269 -0.227 0.362a0.705 0.705 0 0 1 -0.418 0.135h-6.376c-0.15 0 -0.289 -0.042 -0.413 -0.135Zm29.578 -0.279 -4.15 -9.612c-0.052 -0.098 -0.129 -0.15 -0.227 -0.15h-1.583c-0.124 0 -0.191 0.063 -0.191 0.192v9.42c0 0.176 -0.052 0.315 -0.15 0.414 -0.103 0.103 -0.237 0.149 -0.417 0.149h-5.959c-0.175 0 -0.315 -0.051 -0.417 -0.149 -0.103 -0.099 -0.149 -0.238 -0.149 -0.414v-25.357c0 -0.176 0.051 -0.315 0.149 -0.418 0.098 -0.099 0.237 -0.15 0.418 -0.15h11.433c1.711 0 3.211 0.351 4.511 1.059 1.293 0.708 2.299 1.697 3.02 2.974 0.717 1.271 1.078 2.745 1.078 4.41 0 1.665 -0.407 3.123 -1.226 4.37 -0.82 1.251 -1.943 2.161 -3.377 2.746 -0.123 0.051 -0.165 0.139 -0.113 0.263l4.788 9.99c0.052 0.15 0.078 0.238 0.078 0.264 0 0.124 -0.052 0.227 -0.15 0.3 -0.103 0.077 -0.227 0.113 -0.376 0.113h-6.341c-0.325 0 -0.541 -0.139 -0.639 -0.413Zm-6.15 -19.793v4.426c0 0.124 0.062 0.191 0.191 0.191h3.546c0.805 0 1.46 -0.222 1.965 -0.661 0.505 -0.44 0.752 -1.014 0.752 -1.723 0 -0.708 -0.253 -1.318 -0.752 -1.757 -0.505 -0.44 -1.155 -0.662 -1.965 -0.662h-3.546c-0.124 0 -0.191 0.062 -0.191 0.191Zm34.139 -0.341c-0.103 0.103 -0.237 0.15 -0.413 0.15h-11.278c-0.124 0 -0.191 0.062 -0.191 0.191v3.558c0 0.124 0.062 0.191 0.191 0.191H417.81c0.175 0 0.314 0.052 0.418 0.15 0.098 0.103 0.149 0.238 0.149 0.413v4.918c0 0.176 -0.051 0.316 -0.149 0.419 -0.098 0.103 -0.238 0.15 -0.418 0.15h-6.98c-0.124 0 -0.191 0.062 -0.191 0.191v3.935c0 0.129 0.062 0.191 0.191 0.191h11.278c0.176 0 0.315 0.052 0.413 0.15 0.103 0.103 0.149 0.238 0.149 0.419v4.958c0 0.176 -0.051 0.315 -0.149 0.414 -0.103 0.103 -0.237 0.149 -0.413 0.149h-17.995c-0.175 0 -0.314 -0.051 -0.417 -0.149 -0.103 -0.099 -0.15 -0.238 -0.15 -0.414v-25.357c0 -0.176 0.052 -0.315 0.15 -0.418 0.098 -0.099 0.237 -0.15 0.417 -0.15h17.995c0.176 0 0.315 0.051 0.413 0.15 0.103 0.103 0.149 0.237 0.149 0.418v4.953c0 0.176 -0.051 0.316 -0.149 0.419Zm18.789 7.001c1.133 0.631 1.964 1.437 2.49 2.42 0.526 0.982 0.794 2.172 0.794 3.558 0 2.601 -0.908 4.508 -2.717 5.733 -1.81 1.226 -4.165 1.835 -7.057 1.835h-10.15c-0.175 0 -0.314 -0.051 -0.411 -0.149 -0.104 -0.099 -0.15 -0.238 -0.15 -0.414v-25.357c0 -0.176 0.052 -0.315 0.15 -0.418 0.098 -0.099 0.237 -0.15 0.411 -0.15h9.81c3.222 0 5.639 0.573 7.262 1.721 1.623 1.148 2.433 3.071 2.433 5.771 0 2.399 -0.954 4.136 -2.866 5.223 -0.103 0.077 -0.103 0.15 0 0.227Zm-10.109 -6.66v3.785c0 0.124 0.062 0.191 0.191 0.191h3.093c1.836 0 2.752 -0.692 2.752 -2.084 0 -1.39 -0.916 -2.083 -2.752 -2.083h-3.093c-0.124 0 -0.191 0.062 -0.191 0.191Zm6.299 11.882c0 -1.411 -0.881 -2.12 -2.639 -2.12h-3.469c-0.124 0 -0.191 0.062 -0.191 0.191v3.971c0 0.129 0.062 0.191 0.191 0.191h3.433c1.783 0 2.681 -0.744 2.681 -2.234Zm27.84 -12.223c-0.103 0.103 -0.237 0.15 -0.417 0.15h-11.279c-0.123 0 -0.19 0.062 -0.19 0.191v3.558c0 0.124 0.061 0.191 0.19 0.191h6.98c0.175 0 0.315 0.052 0.418 0.15 0.098 0.103 0.149 0.238 0.149 0.413v4.918c0 0.176 -0.051 0.316 -0.149 0.419 -0.103 0.103 -0.237 0.15 -0.418 0.15h-6.98c-0.123 0 -0.19 0.062 -0.19 0.191v3.935c0 0.129 0.061 0.191 0.19 0.191h11.279c0.175 0 0.314 0.052 0.417 0.15 0.098 0.103 0.15 0.238 0.15 0.419v4.958c0 0.176 -0.052 0.315 -0.15 0.414 -0.103 0.103 -0.237 0.149 -0.417 0.149h-17.995c-0.176 0 -0.315 -0.051 -0.413 -0.149 -0.103 -0.099 -0.15 -0.238 -0.15 -0.414v-25.357c0 -0.176 0.052 -0.315 0.15 -0.418 0.098 -0.099 0.237 -0.15 0.413 -0.15h17.995c0.175 0 0.314 0.051 0.417 0.15 0.098 0.103 0.15 0.237 0.15 0.418v4.953c0 0.176 -0.052 0.316 -0.15 0.419Zm1.738 20.398c-0.103 -0.099 -0.15 -0.238 -0.15 -0.414v-25.357c0 -0.176 0.052 -0.315 0.15 -0.418 0.098 -0.099 0.237 -0.15 0.411 -0.15h5.959c0.176 0 0.315 0.051 0.413 0.15 0.098 0.103 0.149 0.237 0.149 0.418v19.638c0 0.129 0.062 0.191 0.191 0.191h11.66c0.175 0 0.314 0.052 0.412 0.15 0.098 0.103 0.15 0.238 0.15 0.419v4.958c0 0.176 -0.052 0.315 -0.15 0.414 -0.098 0.098 -0.237 0.149 -0.412 0.149h-18.372c-0.175 0 -0.314 -0.051 -0.411 -0.149Zm21.257 -0.548c-0.664 -0.667 -0.999 -1.521 -0.999 -2.555 0 -1.034 0.335 -1.919 1 -2.575 0.664 -0.657 1.515 -0.982 2.546 -0.982 1.032 0 1.881 0.325 2.547 0.982 0.664 0.656 0.999 1.514 0.999 2.575s-0.34 1.856 -1.021 2.534c-0.681 0.677 -1.52 1.023 -2.526 1.023 -1.005 0 -1.881 -0.336 -2.546 -1.002ZM39.66 126.316c-6.38 0 -11.95 -0.876 -16.712 -2.624 -4.762 -1.753 -8.423 -4.223 -10.983 -7.411 -2.56 -3.191 -3.84 -6.853 -3.84 -10.988v-1.483c0 -0.449 0.156 -0.831 0.471 -1.146 0.314 -0.313 0.696 -0.471 1.146 -0.471h18.191c0.449 0 0.831 0.157 1.146 0.471 0.313 0.315 0.471 0.697 0.471 1.146 0 1.706 0.943 3.122 2.828 4.246 1.887 1.125 4.271 1.687 7.148 1.687 2.516 0 4.516 -0.427 5.998 -1.28 1.481 -0.856 2.222 -2.002 2.222 -3.438 0 -1.438 -0.787 -2.493 -2.361 -3.165 -1.571 -0.675 -4.107 -1.327 -7.609 -1.96 -5.663 -1.078 -10.244 -2.379 -13.746 -3.904 -4.584 -1.887 -8.224 -4.248 -10.918 -7.079 -2.696 -2.83 -4.043 -6.717 -4.043 -11.658 0 -7.007 2.716 -12.556 8.15 -16.643 5.437 -4.088 12.603 -6.131 21.499 -6.131 6.019 0 11.297 0.966 15.835 2.897 4.537 1.932 8.063 4.651 10.576 8.155 2.516 3.502 3.775 7.545 3.775 12.129 0 0.45 -0.157 0.832 -0.471 1.146 -0.315 0.315 -0.697 0.471 -1.146 0.471h-17.655c-0.446 0 -0.828 -0.156 -1.146 -0.471 -0.315 -0.314 -0.471 -0.696 -0.471 -1.146 0 -1.706 -0.809 -3.098 -2.426 -4.177 -1.618 -1.081 -3.819 -1.622 -6.603 -1.622 -2.518 0 -4.561 0.429 -6.131 1.285 -1.572 0.853 -2.356 2.044 -2.356 3.572 0 1.525 0.853 2.624 2.56 3.299s4.581 1.416 8.627 2.222c5.209 1.079 8.846 1.933 10.914 2.565 5.572 1.796 9.908 4.221 13.007 7.277 3.098 3.054 4.648 7.141 4.648 12.263 0 7.008 -2.763 12.422 -8.289 16.242 -5.526 3.817 -12.961 5.724 -22.303 5.724Zm71.295 0c-7.369 0 -13.815 -1.84 -19.341 -5.521 -5.524 -3.683 -9.454 -8.762 -11.792 -15.234 -1.706 -4.312 -2.56 -9.478 -2.56 -15.497 0 -6.019 0.853 -11.184 2.56 -15.497 2.245 -6.29 6.153 -11.209 11.722 -14.758 5.572 -3.548 12.042 -5.323 19.411 -5.323 7.457 0 14.015 1.843 19.675 5.526 5.661 3.685 9.481 8.356 11.459 14.014 0.627 1.618 1.032 3.371 1.21 5.258 0 0.99 -0.493 1.573 -1.478 1.751l-18.736 2.828h-0.268c-0.811 0 -1.349 -0.448 -1.617 -1.344l-0.273 -1.215c-0.178 -0.717 -0.357 -1.346 -0.536 -1.885 -0.811 -1.706 -2.047 -3.098 -3.71 -4.177 -1.66 -1.078 -3.614 -1.617 -5.859 -1.617 -4.762 0 -7.908 2.112 -9.436 6.335 -0.989 2.514 -1.483 5.927 -1.483 10.239 0 3.867 0.449 7.236 1.349 10.11 1.706 4.581 4.896 6.87 9.569 6.87 2.334 0 4.356 -0.605 6.062 -1.815 1.709 -1.213 2.923 -2.943 3.641 -5.189 0.089 -0.181 0.134 -0.451 0.134 -0.809 0.089 -0.089 0.134 -0.269 0.134 -0.541 0.27 -1.078 0.9 -1.528 1.89 -1.349l18.866 2.967c0.899 0.178 1.349 0.673 1.349 1.483 0 1.347 -0.27 2.828 -0.809 4.445 -2.157 6.29 -6.042 11.189 -11.658 14.694 -5.615 3.502 -12.108 5.253 -19.476 5.253Zm214.144 -68.308c0 -0.427 0.149 -0.786 0.447 -1.081 0.297 -0.298 0.657 -0.447 1.081 -0.447h18.082c0.423 0 0.784 0.149 1.081 0.447 0.298 0.295 0.446 0.655 0.446 1.081v62.768c0 0.424 -0.149 0.784 -0.446 1.081 -0.297 0.298 -0.658 0.446 -1.081 0.446h-18.082c-0.424 0 -0.784 -0.149 -1.081 -0.446 -0.298 -0.297 -0.447 -0.657 -0.447 -1.081v-4.455c0 -0.254 -0.087 -0.424 -0.258 -0.511 -0.169 -0.086 -0.337 -0.001 -0.506 0.253 -3.397 4.839 -8.744 7.258 -16.043 7.258 -6.449 0 -11.67 -2.036 -15.661 -6.112 -3.989 -4.074 -5.983 -9.76 -5.983 -17.06V58.008c0 -0.427 0.149 -0.786 0.446 -1.081 0.298 -0.298 0.657 -0.447 1.081 -0.447h18.082c0.423 0 0.784 0.149 1.081 0.447 0.297 0.295 0.446 0.655 0.446 1.081v37.304c0 2.97 0.764 5.346 2.292 7.128 1.528 1.783 3.607 2.674 6.235 2.674 2.378 0 4.351 -0.721 5.918 -2.163 1.57 -1.445 2.526 -3.355 2.867 -5.73Zm72.444 13.875c0 0.427 -0.149 0.789 -0.446 1.086 -0.295 0.295 -0.655 0.441 -1.081 0.441h-11.583c-0.426 0 -0.64 0.213 -0.64 0.64v23.171c0 4.839 1.952 7.258 5.859 7.258h4.713c0.423 0 0.784 0.149 1.081 0.446 0.297 0.295 0.446 0.655 0.446 1.081v14.768c0 0.932 -0.51 1.486 -1.528 1.657 -4.075 0.169 -7.047 0.253 -8.914 0.253 -7.385 0 -12.861 -1.167 -16.425 -3.502 -3.565 -2.334 -5.39 -6.769 -5.472 -13.305v-31.828c0 -0.427 -0.213 -0.64 -0.64 -0.64h-7.258c-0.424 0 -0.784 -0.146 -1.081 -0.441 -0.298 -0.298 -0.447 -0.66 -0.447 -1.086V58.008c0 -0.427 0.149 -0.786 0.447 -1.081 0.297 -0.298 0.657 -0.447 1.081 -0.447h7.258c0.426 0 0.64 -0.213 0.64 -0.64v-15.403c0 -0.427 0.146 -0.786 0.441 -1.081 0.298 -0.298 0.66 -0.446 1.086 -0.446h17.189c0.423 0 0.782 0.149 1.077 0.446 0.297 0.295 0.446 0.655 0.446 1.081v15.403c0 0.426 0.213 0.64 0.64 0.64h11.583c0.427 0 0.786 0.149 1.081 0.447 0.298 0.295 0.446 0.655 0.446 1.081Zm0 0"/><g clip-path="url(#a)"><g clip-path="url(#b)"><g clip-path="url(#c)"><path d="m242.289 106.089 12.641 11.746 -3.29 3.541 -12.641 -11.746Zm0 0"/></g></g></g><g clip-path="url(#d)"><g clip-path="url(#e)"><path d="M246.584 112.163h36.564v36.564H246.584Zm0 0"/></g></g><g clip-path="url(#f)"><g clip-path="url(#g)"><path fill="none" stroke="#000" stroke-width="3.3333206339530626" d="M264.865 112.163c-10.096 0 -18.281 8.185 -18.281 18.281 0 10.096 8.185 18.281 18.281 18.281 10.096 0 18.281 -8.185 18.281 -18.281 0 -10.096 -8.185 -18.281 -18.281 -18.281Zm0 0"/></g></g><g clip-path="url(#h)"><g clip-path="url(#i)"><path d="M148.87 90.499h36.565v36.566H148.87Zm0 0"/></g></g><g clip-path="url(#j)"><g clip-path="url(#k)"><path fill="none" stroke="#000" stroke-width="3.3333206339530626" d="M167.152 90.499c-10.096 0 -18.281 8.185 -18.281 18.282 0 10.096 8.185 18.281 18.281 18.281 10.096 0 18.281 -8.185 18.281 -18.281 0 -10.096 -8.185 -18.281 -18.281 -18.281Zm0 0"/></g></g><g clip-path="url(#l)"><g clip-path="url(#m)"><path d="M254.205 19.402h36.564v36.564H254.205Zm0 0"/></g></g><g clip-path="url(#n)"><g clip-path="url(#o)"><path fill="none" stroke="#000" stroke-width="3.3333206339530626" d="M272.486 19.402c-10.096 0 -18.281 8.184 -18.281 18.28 0 10.098 8.185 18.281 18.281 18.281 10.096 0 18.281 -8.184 18.281 -18.281 0 -10.096 -8.185 -18.28 -18.281 -18.28Zm0 0"/></g></g><g clip-path="url(#p)"><g clip-path="url(#q)"><g clip-path="url(#r)"><path d="m182.102 49.305 20.054 18.634 -3.29 3.541 -20.054 -18.634Zm0 0"/></g></g></g><g clip-path="url(#s)"><g clip-path="url(#t)"><path d="M137.46 6.151h51.347v51.347h-51.347Zm0 0"/></g></g><g clip-path="url(#u)"><g clip-path="url(#v)"><path fill="none" stroke="#000" stroke-width="3.3333206339530626" d="M163.132 6.151c-14.179 0 -25.673 11.494 -25.673 25.673s11.494 25.673 25.673 25.673c14.18 0 25.674 -11.494 25.674 -25.673 0 -14.179 -11.494 -25.673 -25.674 -25.673Zm0 0"/></g></g><g clip-path="url(#w)"><g clip-path="url(#x)"><g clip-path="url(#y)"><path d="m246.963 61.685 10.034 -10.466 3.489 3.345 -10.034 10.466Zm0 0"/></g></g></g><g clip-path="url(#z)"><g clip-path="url(#A)"><path d="M255.2 82.893h17.697v17.696H255.2Zm0 0"/></g></g><g clip-path="url(#B)"><g clip-path="url(#C)"><path fill="none" stroke="#000" stroke-width="3.3333206339530626" d="M264.048 82.893c-4.886 0 -8.848 3.961 -8.848 8.846 0 4.886 3.961 8.847 8.848 8.847 4.886 0 8.846 -3.961 8.846 -8.847 0 -4.885 -3.96 -8.846 -8.846 -8.846Zm0 0"/></g></g><g clip-path="url(#D)"><g clip-path="url(#E)"><g clip-path="url(#F)"><path d="m190.483 97.127 6.233 -1.07 0.818 4.764 -6.233 1.07Zm0 0"/></g></g></g><g clip-path="url(#G)"><path d="M222.306 64.89a24.751 24.751 0 0 0 -2.351 0.083 24.649 24.649 0 0 0 -2.333 0.314c-0.386 0.072 -0.77 0.152 -1.152 0.243a22.572 22.572 0 0 0 -1.138 0.298 25.572 25.572 0 0 0 -1.122 0.353 24.444 24.444 0 0 0 -2.187 0.871 24.459 24.459 0 0 0 -2.091 1.08 24.375 24.375 0 0 0 -2.912 1.992 23.877 23.877 0 0 0 -2.591 2.397 23.989 23.989 0 0 0 -2.21 2.751 23.9 23.9 0 0 0 -1.239 2.002 24.479 24.479 0 0 0 -1.038 2.112 24.069 24.069 0 0 0 -1.649 5.637 24.655 24.655 0 0 0 -0.162 1.167 23.094 23.094 0 0 0 -0.104 1.172 24.817 24.817 0 0 0 -0.047 1.177c0.006 0.393 0.022 0.785 0.047 1.177 0.025 0.392 0.06 0.783 0.104 1.172a23.277 23.277 0 0 0 0.381 2.324 24.364 24.364 0 0 0 0.274 1.145 24.069 24.069 0 0 0 1.649 4.404 23.777 23.777 0 0 0 0.544 1.043 23.9 23.9 0 0 0 2.668 3.872 23.989 23.989 0 0 0 0.781 0.88 22.659 22.659 0 0 0 0.825 0.841 23.867 23.867 0 0 0 1.766 1.556 23.844 23.844 0 0 0 1.91 1.375c0.329 0.213 0.664 0.419 1.002 0.615a24.482 24.482 0 0 0 1.033 0.567 25.218 25.218 0 0 0 1.058 0.514 24.444 24.444 0 0 0 2.187 0.871c0.372 0.127 0.745 0.244 1.122 0.353 0.377 0.109 0.757 0.209 1.138 0.298 0.382 0.09 0.766 0.171 1.152 0.243a24.602 24.602 0 0 0 1.162 0.185c0.39 0.052 0.779 0.096 1.171 0.128 0.391 0.033 0.783 0.057 1.174 0.071 0.392 0.015 0.785 0.018 1.177 0.013 0.392 0.005 0.785 0.001 1.177 -0.014a23.301 23.301 0 0 0 1.175 -0.07 23.234 23.234 0 0 0 1.169 -0.128 24.602 24.602 0 0 0 1.162 -0.185 24.316 24.316 0 0 0 1.151 -0.243 23.511 23.511 0 0 0 2.26 -0.652A23.05 23.05 0 0 0 231.503 110.485a23.072 23.072 0 0 0 1.083 -0.463 22.479 22.479 0 0 0 1.058 -0.515 23.794 23.794 0 0 0 3.943 -2.557 23.839 23.839 0 0 0 1.765 -1.556c0.282 -0.273 0.556 -0.553 0.824 -0.841a22.856 22.856 0 0 0 0.78 -0.88 22.68 22.68 0 0 0 0.738 -0.918 25.186 25.186 0 0 0 0.691 -0.952 24.395 24.395 0 0 0 1.781 -3.046 23.783 23.783 0 0 0 0.491 -1.069 21.776 21.776 0 0 0 0.439 -1.091c0.138 -0.368 0.265 -0.739 0.386 -1.112a23.98 23.98 0 0 0 0.329 -1.13 23.056 23.056 0 0 0 0.274 -1.145 23.334 23.334 0 0 0 0.378 -2.323 23.271 23.271 0 0 0 0.149 -2.349 23.219 23.219 0 0 0 -0.149 -2.349 23.085 23.085 0 0 0 -0.16 -1.166 23.159 23.159 0 0 0 -0.218 -1.157 22.907 22.907 0 0 0 -0.274 -1.145 23.98 23.98 0 0 0 -0.329 -1.13 25.633 25.633 0 0 0 -0.386 -1.112 21.776 21.776 0 0 0 -0.439 -1.091 23.783 23.783 0 0 0 -1.629 -3.129 24.395 24.395 0 0 0 -0.643 -0.986 25.185 25.185 0 0 0 -0.691 -0.952 22.734 22.734 0 0 0 -0.738 -0.918 22.856 22.856 0 0 0 -0.78 -0.881 22.907 22.907 0 0 0 -0.824 -0.841 23.867 23.867 0 0 0 -1.765 -1.556c-0.306 -0.244 -0.619 -0.483 -0.938 -0.712a24.374 24.374 0 0 0 -1.973 -1.28 23.795 23.795 0 0 0 -1.032 -0.566 22.479 22.479 0 0 0 -1.058 -0.514 23.072 23.072 0 0 0 -1.083 -0.463 23.05 23.05 0 0 0 -1.104 -0.408 23.512 23.512 0 0 0 -2.26 -0.652 24.316 24.316 0 0 0 -1.151 -0.243 24.859 24.859 0 0 0 -2.332 -0.314 24.848 24.848 0 0 0 -2.351 -0.083Zm-7.736 31.515a0.193 0.193 0 0 1 -0.171 0.194 0.191 0.191 0 0 1 -0.194 -0.194l0 -6.621c0 -0.053 0.019 -0.098 0.056 -0.137a0.19 0.19 0 0 1 0.138 -0.057 0.193 0.193 0 0 1 0.171 0.194Zm0.859 -0.774a0.191 0.191 0 0 1 -0.194 0.194h-0.064a0.192 0.192 0 0 1 -0.194 -0.194V90.686c0 -0.055 0.019 -0.103 0.056 -0.144a0.207 0.207 0 0 1 0.137 -0.07c0.056 0.006 0.102 0.029 0.139 0.071a0.206 0.206 0 0 1 0.055 0.144Zm0.838 -0.903a0.153 0.153 0 0 1 -0.042 0.13 0.148 0.148 0 0 1 -0.06 0.036 0.152 0.152 0 0 1 -0.071 0.006 0.146 0.146 0 0 1 -0.069 -0.006 0.148 0.148 0 0 1 -0.102 -0.166v-3.268c0 -0.047 0.016 -0.088 0.05 -0.122a0.166 0.166 0 0 1 0.121 -0.05c0.049 0 0.088 0.016 0.122 0.05 0.034 0.034 0.051 0.075 0.051 0.122Zm0.859 0.774a0.187 0.187 0 0 1 -0.057 0.137 0.186 0.186 0 0 1 -0.136 0.056 0.186 0.186 0 0 1 -0.137 -0.056 0.187 0.187 0 0 1 -0.057 -0.137V90.686a0.185 0.185 0 0 1 0.049 -0.15 0.185 0.185 0 0 1 0.145 -0.064c0.058 0 0.107 0.021 0.145 0.064a0.185 0.185 0 0 1 0.048 0.15Zm0.838 0.516a0.209 0.209 0 0 1 -0.056 0.145 0.21 0.21 0 0 1 -0.137 0.07 0.212 0.212 0 0 1 -0.125 -0.077 0.21 0.21 0 0 1 -0.047 -0.139v-5.847c0 -0.05 0.016 -0.092 0.05 -0.129a0.187 0.187 0 0 1 0.123 -0.064 0.187 0.187 0 0 1 0.137 0.057c0.038 0.038 0.057 0.083 0.057 0.137Zm0.859 1.849a0.208 0.208 0 0 1 -0.063 0.152 0.204 0.204 0 0 1 -0.151 0.062 0.188 0.188 0 0 1 -0.16 -0.055 0.197 0.197 0 0 1 -0.056 -0.16v-9.545a0.197 0.197 0 0 1 0.056 -0.16 0.197 0.197 0 0 1 0.16 -0.056c0.06 0 0.109 0.021 0.151 0.063s0.063 0.093 0.063 0.152Zm0.838 -1.591a0.197 0.197 0 0 1 -0.056 0.16 0.188 0.188 0 0 1 -0.073 0.046 0.188 0.188 0 0 1 -0.087 0.01 0.207 0.207 0 0 1 -0.151 -0.063 0.208 0.208 0 0 1 -0.063 -0.152v-6.449c0 -0.06 0.021 -0.11 0.063 -0.152a0.211 0.211 0 0 1 0.151 -0.062 0.188 0.188 0 0 1 0.16 0.055 0.192 0.192 0 0 1 0.046 0.074 0.181 0.181 0 0 1 0.01 0.086Zm0.86 0.495a0.224 0.224 0 0 1 -0.062 0.16 0.228 0.228 0 0 1 -0.152 0.077 0.21 0.21 0 0 1 -0.161 -0.071 0.21 0.21 0 0 1 -0.055 -0.166v-7.352a0.197 0.197 0 0 1 0.056 -0.16 0.188 0.188 0 0 1 0.073 -0.046 0.206 0.206 0 0 1 0.087 -0.01c0.058 0 0.109 0.021 0.151 0.063a0.209 0.209 0 0 1 0.063 0.152Zm0.838 -2.322a0.146 0.146 0 0 1 -0.044 0.107 0.148 0.148 0 0 1 -0.107 0.043h-0.15a0.161 0.161 0 0 1 -0.114 -0.042 0.167 0.167 0 0 1 -0.058 -0.108v-2.708a0.167 0.167 0 0 1 0.058 -0.108 0.168 0.168 0 0 1 0.114 -0.043h0.15c0.042 0 0.077 0.015 0.107 0.045 0.03 0.03 0.044 0.064 0.044 0.107Zm0.837 0.731a0.189 0.189 0 0 1 -0.041 0.144 0.187 0.187 0 0 1 -0.13 0.072 0.185 0.185 0 0 1 -0.145 -0.064 0.187 0.187 0 0 1 -0.048 -0.151v-4.171a0.192 0.192 0 0 1 0.194 -0.194c0.048 0.006 0.089 0.028 0.123 0.065a0.186 0.186 0 0 1 0.048 0.129Zm0.859 1.032a0.223 0.223 0 0 1 -0.061 0.16 0.225 0.225 0 0 1 -0.154 0.077 0.228 0.228 0 0 1 -0.154 -0.077 0.228 0.228 0 0 1 -0.061 -0.16v-6.234a0.232 0.232 0 0 1 0.214 -0.236 0.229 0.229 0 0 1 0.154 0.076 0.227 0.227 0 0 1 0.061 0.16Zm0.838 1.204c0.006 0.063 -0.011 0.119 -0.054 0.166a0.209 0.209 0 0 1 -0.16 0.071 0.207 0.207 0 0 1 -0.16 -0.071 0.205 0.205 0 0 1 -0.055 -0.166V88.816a0.195 0.195 0 0 1 -0.055 -0.146 0.197 0.197 0 0 1 0.064 -0.144 0.198 0.198 0 0 1 0.148 -0.055 0.197 0.197 0 0 1 0.143 0.066 0.206 0.206 0 0 1 0.087 0.009 0.201 0.201 0 0 1 0.119 0.121c0.01 0.027 0.012 0.057 0.01 0.085Zm0.86 -0.817a0.212 0.212 0 0 1 -0.062 0.152 0.208 0.208 0 0 1 -0.152 0.063 0.203 0.203 0 0 1 -0.151 -0.063 0.208 0.208 0 0 1 -0.063 -0.152v-7.008c0 -0.059 0.021 -0.109 0.063 -0.151a0.203 0.203 0 0 1 0.151 -0.063c0.06 0 0.11 0.021 0.152 0.063 0.041 0.042 0.062 0.092 0.062 0.151Zm0.838 -0.687a0.2 0.2 0 0 1 -0.009 0.086 0.194 0.194 0 0 1 -0.12 0.12 0.194 0.194 0 0 1 -0.086 0.009 0.206 0.206 0 0 1 -0.087 -0.009 0.201 0.201 0 0 1 -0.119 -0.12 0.183 0.183 0 0 1 -0.009 -0.086v-5.633a0.212 0.212 0 0 1 0.215 -0.215c0.059 0 0.11 0.021 0.151 0.062 0.042 0.042 0.063 0.093 0.063 0.152Zm0.859 -0.882a0.186 0.186 0 0 1 -0.056 0.137 0.187 0.187 0 0 1 -0.138 0.057 0.198 0.198 0 0 1 -0.134 0.087 0.207 0.207 0 0 1 -0.156 -0.033 0.203 0.203 0 0 1 -0.087 -0.134 0.207 0.207 0 0 1 0.033 -0.156v-3.87c0 -0.053 0.019 -0.099 0.057 -0.137a0.183 0.183 0 0 1 0.137 -0.057c0.053 0 0.099 0.019 0.137 0.057a0.184 0.184 0 0 1 0.057 0.137Zm0.838 1.14c0.004 0.029 0 0.058 -0.01 0.086a0.167 0.167 0 0 1 -0.046 0.073 0.19 0.19 0 0 1 -0.073 0.047c-0.027 0.009 -0.057 0.012 -0.086 0.009a0.185 0.185 0 0 1 -0.145 -0.064 0.185 0.185 0 0 1 -0.048 -0.15v-6.149c0 -0.056 0.017 -0.104 0.055 -0.145a0.206 0.206 0 0 1 0.139 -0.07c0.06 0 0.109 0.021 0.151 0.062 0.042 0.042 0.063 0.093 0.063 0.153Zm0.859 1.397a0.228 0.228 0 0 1 -0.068 0.147 0.234 0.234 0 0 1 -0.146 0.068 0.208 0.208 0 0 1 -0.153 -0.063 0.207 0.207 0 0 1 -0.062 -0.152V88.645a0.2 0.2 0 0 1 0.054 -0.166 0.205 0.205 0 0 1 0.16 -0.07 0.228 0.228 0 0 1 0.154 0.077c0.041 0.044 0.061 0.098 0.061 0.16Zm0.838 -0.774a0.208 0.208 0 0 1 -0.054 0.166 0.209 0.209 0 0 1 -0.16 0.07 0.223 0.223 0 0 1 -0.154 -0.077 0.229 0.229 0 0 1 -0.062 -0.16v-7.395c0 -0.059 0.021 -0.109 0.063 -0.151a0.208 0.208 0 0 1 0.152 -0.063c0.029 -0.003 0.057 0 0.086 0.01a0.175 0.175 0 0 1 0.073 0.046 0.175 0.175 0 0 1 0.046 0.073c0.01 0.028 0.014 0.057 0.01 0.086Zm0.86 -1.548a0.187 0.187 0 0 1 -0.057 0.138 0.186 0.186 0 0 1 -0.137 0.056 0.186 0.186 0 0 1 -0.137 -0.056 0.187 0.187 0 0 1 -0.057 -0.138v-4.3a0.184 0.184 0 0 1 -0.001 -0.151 0.185 0.185 0 0 1 0.109 -0.107c0.053 0 0.098 0.02 0.137 0.057 0.037 0.038 0.057 0.083 0.057 0.136Zm0.838 1.849a0.21 0.21 0 0 1 -0.055 0.166 0.21 0.21 0 0 1 -0.161 0.07 0.23 0.23 0 0 1 -0.166 -0.046 0.225 0.225 0 0 1 -0.09 -0.148v-8.04c0 -0.06 0.02 -0.11 0.062 -0.152a0.208 0.208 0 0 1 0.152 -0.063 0.199 0.199 0 0 1 0.159 0.056 0.201 0.201 0 0 1 0.048 0.073c0.009 0.029 0.012 0.057 0.009 0.087Zm5.608 0.818a1.352 1.352 0 0 1 -0.164 0.527c-0.044 0.082 -0.098 0.159 -0.157 0.229a1.473 1.473 0 0 1 -0.201 0.192c-0.073 0.057 -0.151 0.107 -0.234 0.148a1.358 1.358 0 0 1 -0.535 0.141 1.386 1.386 0 0 1 -0.278 -0.013l-2.728 -0.43a1.337 1.337 0 0 1 -0.269 -0.077 1.477 1.477 0 0 1 -0.469 -0.3 1.566 1.566 0 0 1 -0.182 -0.212 1.414 1.414 0 0 1 -0.224 -0.51 1.409 1.409 0 0 1 -0.016 -0.557l0.365 -2.536a0.143 0.143 0 0 1 -0.093 -0.051 0.14 0.14 0 0 1 -0.036 -0.099v-2.538a0.161 0.161 0 0 1 0.042 -0.114 0.167 0.167 0 0 1 0.108 -0.058h0.15c0.043 0.006 0.079 0.025 0.108 0.058 0.029 0.032 0.043 0.071 0.042 0.114v0.408l0.431 -2.944c0.022 -0.149 0.066 -0.29 0.133 -0.424 0.066 -0.135 0.151 -0.255 0.255 -0.363a1.431 1.431 0 0 1 0.773 -0.417 11.611 11.611 0 0 0 -0.753 -2.58 1.598 1.598 0 0 1 -0.67 -0.253 1.574 1.574 0 0 1 -0.49 -0.521 10.252 10.252 0 0 0 -0.727 -1.159 10.12 10.12 0 0 0 -0.873 -1.052 10.012 10.012 0 0 0 -1.005 -0.928 10.173 10.173 0 0 0 -1.118 -0.785 10.3 10.3 0 0 0 -1.212 -0.631 10.53 10.53 0 0 0 -1.286 -0.464 10.214 10.214 0 0 0 -2.697 -0.399 10.199 10.199 0 0 0 -2.721 0.384 10.491 10.491 0 0 0 -1.299 0.461 10.183 10.183 0 0 0 -1.224 0.63 10.153 10.153 0 0 0 -1.13 0.786 10.273 10.273 0 0 0 -1.898 1.989 10.405 10.405 0 0 0 -0.734 1.166 1.543 1.543 0 0 1 -0.485 0.534 1.547 1.547 0 0 1 -0.675 0.26 11.335 11.335 0 0 0 -0.795 2.559 1.356 1.356 0 0 1 0.527 0.049 1.333 1.333 0 0 1 0.247 0.099c0.079 0.041 0.154 0.089 0.223 0.145 0.07 0.056 0.134 0.118 0.191 0.186 0.058 0.068 0.108 0.141 0.151 0.219 0.043 0.078 0.079 0.159 0.107 0.244 0.029 0.084 0.047 0.171 0.058 0.26l0.429 2.944v-0.3a0.169 0.169 0 0 1 0.05 -0.102 0.165 0.165 0 0 1 0.101 -0.05h0.172c0.04 0.005 0.073 0.021 0.102 0.05 0.028 0.029 0.045 0.062 0.049 0.102v2.322a0.148 0.148 0 0 1 -0.15 0.15l0.387 2.731c0.013 0.092 0.02 0.185 0.016 0.278 -0.004 0.093 -0.016 0.185 -0.037 0.277a1.53 1.53 0 0 1 -0.089 0.264c-0.039 0.084 -0.084 0.165 -0.138 0.242a1.429 1.429 0 0 1 -0.181 0.212 1.474 1.474 0 0 1 -0.732 0.383l-2.728 0.429a1.391 1.391 0 0 1 -0.552 -0.031 1.321 1.321 0 0 1 -0.26 -0.098 1.354 1.354 0 0 1 -0.235 -0.148 1.402 1.402 0 0 1 -0.201 -0.192 1.436 1.436 0 0 1 -0.158 -0.228 1.493 1.493 0 0 1 -0.109 -0.256 1.364 1.364 0 0 1 -0.055 -0.273l-1.14 -7.739a1.502 1.502 0 0 1 -0.031 -0.288 1.422 1.422 0 0 1 0.247 -0.82 1.448 1.448 0 0 1 0.185 -0.222 1.435 1.435 0 0 1 0.224 -0.181c0.082 -0.052 0.167 -0.097 0.258 -0.131a1.34 1.34 0 0 1 0.278 -0.078l1.118 -0.194a13.981 13.981 0 0 1 0.946 -3.44 1.748 1.748 0 0 1 -0.194 -0.444 1.799 1.799 0 0 1 0 -0.96c0.045 -0.156 0.108 -0.305 0.194 -0.444a14.041 14.041 0 0 1 2.049 -2.88 14.099 14.099 0 0 1 2.7 -2.28 13.082 13.082 0 0 1 3.296 -1.459 13.013 13.013 0 0 1 5.371 -0.373 13.013 13.013 0 0 1 5.064 1.832 13.717 13.717 0 0 1 2.763 2.252 13.721 13.721 0 0 1 2.093 2.886c0.082 0.143 0.141 0.295 0.179 0.455a1.705 1.705 0 0 1 -0.285 1.394 13.692 13.692 0 0 1 0.945 3.397l1.504 0.237c0.092 0.016 0.181 0.042 0.269 0.077a1.415 1.415 0 0 1 0.467 0.3c0.068 0.064 0.129 0.135 0.183 0.212a1.473 1.473 0 0 1 0.225 0.51c0.021 0.09 0.032 0.184 0.035 0.276a1.489 1.489 0 0 1 -0.019 0.279Zm0 0"/></g><g clip-path="url(#H)"><path fill="#fff" d="M262.253 36.403c-0.236 0 -0.427 0.191 -0.427 0.427v1.705c0 0.237 0.191 0.427 0.427 0.427 0.236 0 0.427 -0.19 0.427 -0.427v-1.705c0 -0.236 -0.191 -0.427 -0.427 -0.427Zm0 0"/></g><path fill="#fff" d="M263.959 34.698c-0.236 0 -0.426 0.19 -0.426 0.426v5.117c0 0.236 0.191 0.425 0.426 0.425a0.425 0.425 0 0 0 0.427 -0.425v-5.117c0 -0.236 -0.191 -0.427 -0.427 -0.427Zm1.705 0.853c-0.236 0 -0.426 0.191 -0.426 0.426v3.411a0.427 0.427 0 1 0 0.853 0V35.977c0 -0.236 -0.191 -0.426 -0.427 -0.426Zm1.705 -3.412c-0.234 0 -0.425 0.191 -0.425 0.427v10.233a0.426 0.426 0 1 0 0.852 0v-10.233c0 -0.236 -0.191 -0.427 -0.427 -0.427Zm1.706 3.412c-0.236 0 -0.426 0.191 -0.426 0.426v3.411a0.426 0.426 0 1 0 0.852 0V35.977c0 -0.236 -0.191 -0.426 -0.425 -0.426Zm0 0"/><g clip-path="url(#I)"><path fill="#fff" d="M270.781 27.875c-0.236 0 -0.427 0.191 -0.427 0.427v18.76a0.425 0.425 0 0 0 0.427 0.426 0.425 0.425 0 0 0 0.426 -0.427v-18.76c0 -0.236 -0.191 -0.426 -0.426 -0.426Zm0 0"/></g><path fill="#fff" d="M272.486 31.287c-0.236 0 -0.427 0.191 -0.427 0.427v11.938a0.427 0.427 0 1 0 0.853 0V31.714c0 -0.236 -0.191 -0.427 -0.426 -0.427Zm1.705 1.705c-0.236 0 -0.427 0.191 -0.427 0.427v8.528a0.427 0.427 0 1 0 0.853 0v-8.528c0 -0.236 -0.191 -0.427 -0.426 -0.427Zm1.705 2.559a0.425 0.425 0 0 0 -0.425 0.426v3.411a0.426 0.426 0 1 0 0.852 0V35.977a0.425 0.425 0 0 0 -0.427 -0.426Zm1.706 0.852c-0.236 0 -0.427 0.191 -0.427 0.427v1.705a0.426 0.426 0 1 0 0.852 0v-1.705a0.425 0.425 0 0 0 -0.425 -0.427Zm1.705 -3.41c-0.236 0 -0.427 0.191 -0.427 0.427v7.674a0.427 0.427 0 1 0 0.853 0v-7.674c0 -0.236 -0.191 -0.427 -0.427 -0.427Zm1.705 2.559c-0.236 0 -0.427 0.191 -0.427 0.426v3.411a0.427 0.427 0 1 0 0.853 0V35.977c0 -0.236 -0.191 -0.426 -0.427 -0.426Zm1.705 0.852c-0.236 0 -0.427 0.191 -0.427 0.427v1.705c0 0.237 0.191 0.427 0.427 0.427 0.236 0 0.427 -0.19 0.427 -0.427v-1.705c0 -0.236 -0.191 -0.427 -0.427 -0.427Zm0 0"/><g clip-path="url(#J)"><path fill="#fff" d="M148.512 29.996a0.61 0.61 0 0 0 -0.609 0.609v2.437a0.61 0.61 0 0 0 1.219 0v-2.437a0.61 0.61 0 0 0 -0.61 -0.609Zm0 0"/></g><path fill="#fff" d="M150.949 27.559a0.61 0.61 0 0 0 -0.609 0.609v7.309c0 0.337 0.273 0.609 0.609 0.609a0.608 0.608 0 0 0 0.609 -0.609V28.168c0 -0.336 -0.273 -0.609 -0.609 -0.609Zm2.437 1.218a0.61 0.61 0 0 0 -0.609 0.61v4.873c0 0.337 0.273 0.609 0.609 0.609a0.608 0.608 0 0 0 0.609 -0.609V29.387a0.61 0.61 0 0 0 -0.609 -0.61Zm2.437 -4.872a0.61 0.61 0 0 0 -0.61 0.609v14.619a0.61 0.61 0 1 0 1.219 0V24.513c0 -0.336 -0.273 -0.609 -0.609 -0.609Zm2.436 4.872a0.61 0.61 0 0 0 -0.609 0.61v4.873a0.61 0.61 0 0 0 1.219 0V29.387a0.611 0.611 0 0 0 -0.61 -0.61Zm0 0"/><g clip-path="url(#K)"><path fill="#fff" d="M160.695 17.812a0.61 0.61 0 0 0 -0.609 0.609v26.803c0 0.337 0.273 0.609 0.609 0.609a0.608 0.608 0 0 0 0.609 -0.609V18.421a0.61 0.61 0 0 0 -0.609 -0.609Zm0 0"/></g><path fill="#fff" d="M163.132 22.686a0.61 0.61 0 0 0 -0.609 0.609v17.056a0.609 0.609 0 0 0 1.218 0V23.295c0 -0.336 -0.273 -0.609 -0.609 -0.609Zm2.436 2.436c-0.336 0 -0.609 0.273 -0.609 0.609v12.183c0 0.337 0.273 0.609 0.609 0.609a0.609 0.609 0 0 0 0.61 -0.609V25.731a0.61 0.61 0 0 0 -0.61 -0.609Zm2.437 3.655a0.61 0.61 0 0 0 -0.609 0.61v4.873c0 0.337 0.273 0.609 0.609 0.609a0.608 0.608 0 0 0 0.609 -0.609V29.387a0.609 0.609 0 0 0 -0.609 -0.61Zm2.437 1.219c-0.337 0 -0.609 0.273 -0.609 0.609v2.437a0.609 0.609 0 1 0 1.218 0v-2.437a0.608 0.608 0 0 0 -0.609 -0.609Zm2.437 -4.874a0.61 0.61 0 0 0 -0.61 0.609v10.966a0.61 0.61 0 0 0 1.219 0v-10.966c0 -0.336 -0.273 -0.609 -0.609 -0.609ZM175.315 28.777a0.61 0.61 0 0 0 -0.609 0.61v4.873c0 0.337 0.273 0.609 0.609 0.609a0.609 0.609 0 0 0 0.61 -0.609V29.387a0.61 0.61 0 0 0 -0.61 -0.61Zm0 0"/><g clip-path="url(#L)"><path fill="#fff" d="M177.752 29.996c-0.337 0 -0.609 0.273 -0.609 0.609v2.437c0 0.336 0.272 0.609 0.609 0.609 0.337 0 0.609 -0.273 0.609 -0.609v-2.437a0.608 0.608 0 0 0 -0.609 -0.609Zm0 0"/></g><g clip-path="url(#M)"><path fill="#fff" d="M156.919 107.501c-0.236 0 -0.427 0.191 -0.427 0.426v1.705a0.427 0.427 0 1 0 0.853 0v-1.705c0 -0.236 -0.191 -0.427 -0.427 -0.427Zm0 0"/></g><path fill="#fff" d="M158.624 105.795c-0.234 0 -0.425 0.191 -0.425 0.427v5.116a0.426 0.426 0 1 0 0.852 0v-5.116c0 -0.236 -0.191 -0.427 -0.427 -0.427Zm1.706 0.853c-0.236 0 -0.427 0.191 -0.427 0.425v3.412a0.426 0.426 0 1 0 0.852 0v-3.412c0 -0.234 -0.191 -0.425 -0.425 -0.425Zm1.705 -3.412c-0.236 0 -0.427 0.191 -0.427 0.427v10.233a0.427 0.427 0 1 0 0.853 0v-10.233c0 -0.236 -0.191 -0.427 -0.427 -0.427Zm1.705 3.412c-0.236 0 -0.427 0.191 -0.427 0.425v3.412a0.427 0.427 0 1 0 0.853 0v-3.412c0 -0.234 -0.191 -0.425 -0.427 -0.425Zm0 0"/><g clip-path="url(#N)"><path fill="#fff" d="M165.447 98.973c-0.236 0 -0.427 0.191 -0.427 0.427v18.76a0.427 0.427 0 1 0 0.853 0v-18.76c0 -0.236 -0.191 -0.427 -0.427 -0.427Zm0 0"/></g><path fill="#fff" d="M167.152 102.385c-0.234 0 -0.425 0.191 -0.425 0.425v11.939a0.426 0.426 0 1 0 0.852 0v-11.939c0 -0.234 -0.191 -0.425 -0.427 -0.425Zm1.706 1.706c-0.237 0 -0.426 0.19 -0.426 0.426v8.528c0 0.236 0.19 0.425 0.426 0.425 0.236 0 0.425 -0.19 0.425 -0.425v-8.528a0.425 0.425 0 0 0 -0.425 -0.427Zm1.705 2.558c-0.236 0 -0.426 0.191 -0.426 0.425v3.412a0.427 0.427 0 1 0 0.853 0v-3.412c0 -0.234 -0.191 -0.425 -0.427 -0.425Zm1.705 0.852c-0.236 0 -0.426 0.191 -0.426 0.426v1.705a0.427 0.427 0 1 0 0.853 0v-1.705c0 -0.236 -0.191 -0.427 -0.427 -0.427Zm1.706 -3.41c-0.236 0 -0.427 0.19 -0.427 0.426v7.674a0.427 0.427 0 1 0 0.853 0v-7.674c0 -0.236 -0.191 -0.427 -0.426 -0.427Zm1.705 2.558a0.425 0.425 0 0 0 -0.425 0.425v3.412a0.426 0.426 0 1 0 0.852 0v-3.412a0.425 0.425 0 0 0 -0.427 -0.425Zm0 0"/><g clip-path="url(#O)"><path fill="#fff" d="M177.386 107.501a0.425 0.425 0 0 0 -0.427 0.426v1.705a0.426 0.426 0 1 0 0.852 0v-1.705a0.425 0.425 0 0 0 -0.425 -0.427Zm0 0"/></g><g clip-path="url(#P)"><path fill="#fff" d="M253.549 129.029c-0.259 0 -0.471 0.212 -0.471 0.471v1.886a0.472 0.472 0 0 0 0.944 0v-1.886a0.473 0.473 0 0 0 -0.472 -0.471Zm0 0"/></g><path fill="#fff" d="M255.435 127.143c-0.26 0 -0.471 0.212 -0.471 0.472v5.658a0.471 0.471 0 1 0 0.943 0v-5.658c0 -0.26 -0.211 -0.472 -0.471 -0.472Zm1.886 0.944c-0.26 0 -0.471 0.211 -0.471 0.471v3.773a0.471 0.471 0 1 0 0.942 0v-3.773c0 -0.26 -0.211 -0.471 -0.471 -0.471Zm1.886 -3.772a0.473 0.473 0 0 0 -0.472 0.472v11.315a0.472 0.472 0 0 0 0.944 0v-11.315c0 -0.26 -0.211 -0.472 -0.471 -0.472Zm1.885 3.772c-0.259 0 -0.471 0.211 -0.471 0.471v3.773a0.472 0.472 0 0 0 0.944 0v-3.773c0 -0.26 -0.212 -0.471 -0.472 -0.471Zm0 0"/><g clip-path="url(#Q)"><path fill="#fff" d="M262.979 119.599c-0.26 0 -0.471 0.212 -0.471 0.472v20.746a0.471 0.471 0 1 0 0.943 0v-20.746c0 -0.26 -0.211 -0.472 -0.471 -0.472Zm0 0"/></g><path fill="#fff" d="M264.865 123.371c-0.26 0 -0.471 0.211 -0.471 0.471v13.202a0.471 0.471 0 1 0 0.943 0v-13.202c0 -0.26 -0.211 -0.471 -0.471 -0.471Zm1.886 1.886c-0.262 0 -0.472 0.211 -0.472 0.471v9.43c0 0.26 0.211 0.471 0.472 0.471 0.26 0 0.471 -0.211 0.471 -0.471v-9.43c0 -0.26 -0.211 -0.471 -0.471 -0.471Zm1.885 2.829c-0.26 0 -0.471 0.211 -0.471 0.471v3.773c0 0.26 0.211 0.471 0.471 0.471 0.262 0 0.472 -0.211 0.472 -0.471v-3.773c0 -0.26 -0.211 -0.471 -0.472 -0.471Zm1.886 0.943c-0.26 0 -0.471 0.212 -0.471 0.471v1.886a0.471 0.471 0 1 0 0.942 0v-1.886c0 -0.259 -0.211 -0.471 -0.471 -0.471Zm1.886 -3.771c-0.26 0 -0.471 0.211 -0.471 0.471v8.486a0.471 0.471 0 1 0 0.943 0v-8.486c0 -0.26 -0.211 -0.471 -0.471 -0.471Zm1.886 2.829c-0.262 0 -0.471 0.211 -0.471 0.471v3.773c0 0.26 0.21 0.471 0.471 0.471 0.26 0 0.471 -0.211 0.471 -0.471v-3.773c0 -0.26 -0.211 -0.471 -0.471 -0.471Zm0 0"/><g clip-path="url(#R)"><path fill="#fff" d="M276.18 129.029c-0.26 0 -0.471 0.212 -0.471 0.471v1.886c0 0.261 0.211 0.471 0.471 0.471 0.262 0 0.473 -0.211 0.473 -0.471v-1.886c0 -0.259 -0.211 -0.471 -0.473 -0.471Zm0 0"/></g><g clip-path="url(#S)"><path fill="#fafafa" d="M259.131 91.125c-0.114 0 -0.206 0.092 -0.206 0.205v0.82a0.205 0.205 0 0 0 0.411 0v-0.82a0.205 0.205 0 0 0 -0.205 -0.205Zm0 0"/></g><path fill="#fafafa" d="M259.95 90.306c-0.114 0 -0.206 0.092 -0.206 0.205v2.459a0.205 0.205 0 0 0 0.411 0v-2.459a0.205 0.205 0 0 0 -0.205 -0.205Zm0.82 0.409c-0.114 0 -0.206 0.092 -0.206 0.205v1.639a0.205 0.205 0 1 0 0.411 0v-1.639a0.205 0.205 0 0 0 -0.205 -0.205Zm0.82 -1.639c-0.114 0 -0.206 0.092 -0.206 0.205v4.918a0.205 0.205 0 1 0 0.411 0v-4.918a0.205 0.205 0 0 0 -0.205 -0.205Zm0.82 1.639a0.205 0.205 0 0 0 -0.206 0.205v1.639a0.205 0.205 0 1 0 0.411 0v-1.639a0.205 0.205 0 0 0 -0.205 -0.205Zm0 0"/><g clip-path="url(#T)"><path fill="#fafafa" d="M263.23 87.027c-0.114 0 -0.206 0.092 -0.206 0.205v9.017a0.205 0.205 0 0 0 0.411 0v-9.017a0.205 0.205 0 0 0 -0.205 -0.205Zm0 0"/></g><path fill="#fafafa" d="M264.049 88.666a0.205 0.205 0 0 0 -0.206 0.205v5.738a0.205 0.205 0 0 0 0.411 0v-5.738a0.205 0.205 0 0 0 -0.205 -0.205Zm0.82 0.82a0.205 0.205 0 0 0 -0.206 0.204v4.099a0.205 0.205 0 0 0 0.411 0v-4.099a0.205 0.205 0 0 0 -0.205 -0.205Zm0.82 1.229a0.205 0.205 0 0 0 -0.206 0.205v1.639a0.205 0.205 0 1 0 0.411 0v-1.639a0.205 0.205 0 0 0 -0.205 -0.205Zm0.82 0.411c-0.114 0 -0.206 0.092 -0.206 0.205v0.82a0.205 0.205 0 0 0 0.411 0v-0.82a0.205 0.205 0 0 0 -0.204 -0.205Zm0.82 -1.639a0.205 0.205 0 0 0 -0.206 0.204v3.688a0.205 0.205 0 1 0 0.411 0v-3.688a0.205 0.205 0 0 0 -0.204 -0.205Zm0.82 1.229c-0.114 0 -0.206 0.092 -0.206 0.205v1.639a0.205 0.205 0 1 0 0.411 0v-1.639a0.205 0.205 0 0 0 -0.204 -0.205Zm0 0"/><g clip-path="url(#U)"><path fill="#fafafa" d="M268.968 91.125c-0.114 0 -0.206 0.092 -0.206 0.205v0.82a0.205 0.205 0 0 0 0.411 0v-0.82a0.205 0.205 0 0 0 -0.204 -0.205Zm0 0"/></g><path d="M318.586 145.739h4.534v1.731h-2.525v2.257h2.327v1.771h-2.327v3.398h-2.009Zm8.749 2.336c0 -0.439 -0.263 -0.66 -0.789 -0.66 -0.524 0 -0.784 0.221 -0.784 0.66v4.48c0 0.444 0.261 0.664 0.784 0.664 0.526 0 0.789 -0.221 0.789 -0.665Zm-3.557 -0.104c0 -0.721 0.233 -1.295 0.699 -1.721 0.469 -0.429 1.157 -0.645 2.064 -0.645 0.905 0 1.594 0.216 2.064 0.645 0.472 0.427 0.709 1.001 0.709 1.721v4.693c0 0.722 -0.237 1.297 -0.709 1.726 -0.47 0.426 -1.158 0.64 -2.064 0.64 -0.907 0 -1.595 -0.213 -2.064 -0.64 -0.466 -0.429 -0.699 -1.005 -0.699 -1.726Zm8.576 3.621v3.304h-1.98v-9.157h2.987c0.721 0 1.282 0.172 1.686 0.516 0.407 0.345 0.61 0.846 0.61 1.503v1.692c0 1.059 -0.361 1.72 -1.081 1.984l1.439 3.462h-2.178l-1.23 -3.304Zm0 -4.162v2.59h0.784c0.201 0 0.342 -0.042 0.422 -0.129 0.079 -0.089 0.119 -0.244 0.119 -0.466v-1.493c0 -0.195 -0.044 -0.327 -0.134 -0.397 -0.087 -0.07 -0.222 -0.104 -0.407 -0.104Zm10.272 0.645c0 -0.439 -0.263 -0.66 -0.789 -0.66 -0.523 0 -0.784 0.221 -0.784 0.66v4.48c0 0.444 0.26 0.664 0.784 0.664 0.526 0 0.789 -0.221 0.789 -0.665Zm-3.557 -0.104c0 -0.721 0.233 -1.295 0.699 -1.721 0.469 -0.429 1.157 -0.645 2.064 -0.645 0.905 0 1.594 0.216 2.064 0.645 0.472 0.427 0.709 1.001 0.709 1.721v4.693c0 0.722 -0.237 1.297 -0.709 1.726 -0.47 0.426 -1.159 0.64 -2.064 0.64 -0.907 0 -1.595 -0.213 -2.064 -0.64 -0.466 -0.429 -0.699 -1.005 -0.699 -1.726Zm10.034 -2.232h1.979v6.925c0 0.722 -0.232 1.297 -0.695 1.726 -0.464 0.426 -1.146 0.64 -2.049 0.64 -0.903 0 -1.586 -0.211 -2.049 -0.635 -0.46 -0.423 -0.69 -0.999 -0.69 -1.731v-6.925h1.98v6.816c0 0.444 0.253 0.665 0.759 0.665 0.509 0 0.764 -0.221 0.764 -0.665Zm5.083 5.853v3.304h-1.979v-9.157h2.986c0.721 0 1.283 0.172 1.687 0.516 0.407 0.345 0.61 0.846 0.61 1.503v1.692c0 1.059 -0.361 1.72 -1.082 1.984l1.439 3.462h-2.178l-1.23 -3.304Zm0 -4.162v2.59h0.784c0.201 0 0.342 -0.042 0.421 -0.129 0.079 -0.089 0.119 -0.244 0.119 -0.466v-1.493c0 -0.195 -0.044 -0.327 -0.134 -0.397 -0.087 -0.07 -0.222 -0.104 -0.406 -0.104Zm14.236 -1.691v9.157h-1.915v-3.184a14.731 14.731 0 0 1 0.248 -2.709l-1.265 3.567h-1.533l-1.27 -3.567c0.165 0.821 0.248 1.724 0.248 2.708v3.185h-1.9v-9.157h2.034l1.652 4.678 1.652 -4.678Zm4.614 2.336c0 -0.439 -0.263 -0.66 -0.789 -0.66 -0.523 0 -0.784 0.221 -0.784 0.66v4.48c0 0.444 0.26 0.664 0.784 0.664 0.525 0 0.789 -0.221 0.789 -0.665Zm-3.557 -0.104c0 -0.721 0.233 -1.295 0.7 -1.721 0.469 -0.429 1.157 -0.645 2.064 -0.645 0.905 0 1.594 0.216 2.064 0.645 0.472 0.427 0.709 1.001 0.709 1.721v4.693c0 0.722 -0.237 1.297 -0.709 1.726 -0.47 0.426 -1.159 0.64 -2.064 0.64 -0.907 0 -1.595 -0.213 -2.064 -0.64 -0.467 -0.429 -0.7 -1.005 -0.7 -1.726Zm6.264 -0.094c0 -0.704 0.238 -1.246 0.714 -1.627 0.476 -0.383 1.161 -0.575 2.054 -0.575 0.895 0 1.564 0.092 2.004 0.273v1.905c-0.54 -0.228 -1.151 -0.342 -1.836 -0.342 -0.355 0 -0.593 0.055 -0.714 0.164 -0.123 0.109 -0.184 0.267 -0.184 0.471v0.198c0 0.245 0.041 0.427 0.124 0.546 0.082 0.119 0.264 0.253 0.546 0.402l1.508 0.848c0.724 0.397 1.086 0.992 1.086 1.786v0.818c0 0.714 -0.265 1.264 -0.794 1.647 -0.53 0.381 -1.272 0.571 -2.227 0.571 -0.956 0 -1.677 -0.101 -2.163 -0.303v-1.914c0.598 0.255 1.276 0.382 2.034 0.382 0.76 0 1.141 -0.216 1.141 -0.65v-0.193c0 -0.205 -0.043 -0.357 -0.129 -0.456 -0.083 -0.102 -0.238 -0.215 -0.466 -0.337l-1.414 -0.769c-0.857 -0.476 -1.285 -1.146 -1.285 -2.009Zm10.916 -2.138v1.716h-1.652v7.441h-2.009V147.456h-1.652v-1.716Zm23.637 2.272c0 -0.37 -0.191 -0.556 -0.571 -0.556h-0.739v3.081h0.739c0.379 0 0.571 -0.185 0.571 -0.556Zm-3.304 -2.272h2.986c0.714 0 1.275 0.172 1.682 0.516 0.409 0.345 0.615 0.851 0.615 1.518v2.446c0 0.668 -0.206 1.175 -0.615 1.518 -0.407 0.345 -0.967 0.516 -1.682 0.516h-0.992v2.644h-1.994Zm10.121 9.157 -0.382 -2.113h-1.811l-0.357 2.113h-1.89l1.801 -9.157h2.758l1.771 9.157Zm-1.915 -3.795h1.245l-0.635 -3.542Zm6.448 0.491v3.304h-1.98v-9.157h2.987c0.721 0 1.282 0.172 1.686 0.516 0.407 0.345 0.61 0.846 0.61 1.503v1.692c0 1.059 -0.361 1.72 -1.081 1.984l1.439 3.462h-2.178l-1.23 -3.304Zm0 -4.162v2.59h0.784c0.201 0 0.342 -0.042 0.422 -0.129 0.079 -0.089 0.119 -0.244 0.119 -0.466v-1.493c0 -0.195 -0.044 -0.327 -0.134 -0.397 -0.087 -0.07 -0.222 -0.104 -0.407 -0.104Zm9.173 -1.691v1.716h-1.652v7.441h-2.009V147.456h-1.652v-1.716Zm4.547 0h1.954v9.157h-1.9c-1.307 -3.33 -2.061 -5.339 -2.262 -6.027 0.185 0.698 0.278 1.898 0.278 3.596v2.431h-1.955v-9.157h1.955l1.205 3.066c0.508 1.313 0.851 2.309 1.027 2.986 -0.202 -0.853 -0.303 -2.105 -0.303 -3.755Zm3.147 0h4.638v1.716h-2.659v1.945h2.302v1.716h-2.302v2.064h2.659v1.716h-4.638Zm7.543 5.853v3.304h-1.98v-9.157h2.987c0.721 0 1.282 0.172 1.686 0.516 0.407 0.345 0.61 0.846 0.61 1.503v1.692c0 1.059 -0.361 1.72 -1.081 1.984l1.438 3.462h-2.177l-1.23 -3.304Zm0 -4.162v2.59h0.784c0.201 0 0.343 -0.042 0.422 -0.129 0.079 -0.089 0.119 -0.244 0.119 -0.466v-1.493c0 -0.195 -0.045 -0.327 -0.134 -0.397 -0.087 -0.07 -0.222 -0.104 -0.407 -0.104Zm4.058 0.447c0 -0.704 0.238 -1.246 0.714 -1.627 0.476 -0.383 1.161 -0.575 2.054 -0.575 0.895 0 1.564 0.092 2.004 0.273v1.905c-0.54 -0.228 -1.151 -0.342 -1.835 -0.342 -0.355 0 -0.593 0.055 -0.714 0.164 -0.123 0.109 -0.184 0.267 -0.184 0.471v0.198c0 0.245 0.041 0.427 0.124 0.546 0.082 0.119 0.264 0.253 0.546 0.402l1.508 0.848c0.724 0.397 1.086 0.992 1.086 1.786v0.818c0 0.714 -0.265 1.264 -0.794 1.647 -0.53 0.381 -1.272 0.571 -2.227 0.571 -0.956 0 -1.676 -0.101 -2.163 -0.303v-1.914c0.598 0.255 1.276 0.382 2.034 0.382 0.76 0 1.141 -0.216 1.141 -0.65v-0.193c0 -0.205 -0.043 -0.357 -0.129 -0.456 -0.083 -0.102 -0.238 -0.215 -0.467 -0.337l-1.413 -0.769c-0.857 -0.476 -1.285 -1.146 -1.285 -2.009Zm0 0"/><g clip-path="url(#V)"><g clip-path="url(#W)"><path fill="#fff" d="M388.285 145.921h3.712v5.955h-3.712Zm0 0"/></g></g><g clip-path="url(#X)"><g clip-path="url(#Y)"><path fill="#fff" d="M397.171 146.15h3.868v5.619h-3.868Zm0 0"/></g></g><g clip-path="url(#Z)"><g clip-path="url(#aa)"><path d="M389.961 146.489h3.712v4.94h-3.712Zm0 0"/></g></g><g clip-path="url(#ab)"><g clip-path="url(#ac)"><path d="M395.722 146.999h3.712v4.43h-3.712Zm0 0"/></g></g><g clip-path="url(#ad)"><g clip-path="url(#ae)"><path d="M393.982 146.109h5.122v4.43h-5.122Zm0 0"/></g></g><g clip-path="url(#af)"><g clip-path="url(#ag)"><path d="M389.961 146.109h5.122v4.43h-5.122Zm0 0"/></g></g><g clip-path="url(#ah)"><g clip-path="url(#ai)"><g clip-path="url(#aj)"><path d="m391.276 151.429 3.448 -3.449 3.448 3.449 -3.448 3.448Zm0 0"/></g></g></g><path d="M389.98 145.489a1.432 1.432 0 0 0 -0.411 0.174c-0.107 0.073 -0.346 0.324 -0.522 0.543 -0.37 0.464 -0.696 1.183 -0.817 1.808 -0.043 0.226 -0.048 0.308 -0.046 0.815 0 0.531 0.004 0.582 0.056 0.83 0.174 0.815 0.579 1.579 1.144 2.144 0.286 0.286 0.642 0.405 0.999 0.335 0.216 -0.042 0.357 -0.109 0.513 -0.234l0.122 -0.1 1.583 1.579c1.716 1.714 1.666 1.669 1.94 1.708a0.878 0.878 0 0 0 0.475 -0.076c0.083 -0.043 0.439 -0.384 1.687 -1.632l1.58 -1.579 0.134 0.103c0.284 0.215 0.585 0.293 0.898 0.23 0.325 -0.062 0.521 -0.198 0.841 -0.577 0.443 -0.527 0.79 -1.25 0.911 -1.895 0.242 -1.29 -0.046 -2.485 -0.845 -3.509 -0.197 -0.253 -0.46 -0.496 -0.619 -0.571a1.109 1.109 0 0 0 -1.271 0.219l-0.134 0.134 -0.146 -0.066c-0.406 -0.181 -0.696 -0.257 -1.138 -0.293 -0.768 -0.064 -1.558 0.176 -2.229 0.677 -0.014 0.011 -0.098 -0.034 -0.227 -0.12a3.191 3.191 0 0 0 -1.833 -0.563c-0.475 0.002 -0.853 0.079 -1.295 0.27l-0.217 0.092 -0.128 -0.132c-0.142 -0.145 -0.361 -0.265 -0.552 -0.305 -0.107 -0.024 -0.367 -0.028 -0.453 -0.009Zm0.419 0.885c0.038 0.036 0.073 0.097 0.082 0.137 0.025 0.137 -0.006 0.211 -0.155 0.372 -0.165 0.177 -0.395 0.518 -0.485 0.717 -0.242 0.537 -0.303 0.961 -0.238 1.662 0.015 0.161 0.157 0.614 0.226 0.727 0.026 0.041 0.044 0.076 0.04 0.081 -0.006 0.006 0.084 0.172 0.165 0.306 0.055 0.086 0.305 0.399 0.411 0.508 0.041 0.041 0.056 0.169 0.029 0.257 -0.046 0.155 -0.257 0.249 -0.395 0.177 -0.036 -0.018 -0.146 -0.123 -0.244 -0.233 -0.237 -0.268 -0.374 -0.477 -0.577 -0.887 -0.054 -0.113 -0.18 -0.531 -0.228 -0.763 -0.055 -0.265 -0.063 -0.908 -0.013 -1.171 0.016 -0.092 0.035 -0.192 0.041 -0.225 0.038 -0.22 0.265 -0.78 0.405 -1.004 0.225 -0.351 0.514 -0.693 0.618 -0.725 0.114 -0.034 0.244 -0.008 0.319 0.064Zm8.969 0.042c0.259 0.253 0.504 0.619 0.662 0.987 0.041 0.095 0.088 0.199 0.105 0.233 0.016 0.036 0.035 0.09 0.041 0.121 0.006 0.034 0.023 0.104 0.04 0.157 0.082 0.267 0.109 0.491 0.109 0.913 0 0.323 -0.009 0.458 -0.037 0.595 -0.073 0.344 -0.171 0.645 -0.28 0.857 -0.037 0.076 -0.07 0.143 -0.07 0.152 0 0.009 -0.079 0.137 -0.175 0.283 -0.213 0.323 -0.481 0.598 -0.603 0.62 -0.096 0.02 -0.244 -0.05 -0.294 -0.135 -0.04 -0.064 -0.046 -0.198 -0.017 -0.277 0.011 -0.026 0.097 -0.138 0.191 -0.245 0.148 -0.174 0.397 -0.538 0.397 -0.582 0 -0.009 0.021 -0.052 0.043 -0.098 0.111 -0.207 0.218 -0.622 0.247 -0.967 0.012 -0.139 0.018 -0.267 0.015 -0.28 -0.006 -0.015 -0.015 -0.113 -0.021 -0.218 -0.015 -0.244 -0.115 -0.635 -0.222 -0.861 -0.046 -0.096 -0.083 -0.18 -0.083 -0.19a0.16 0.16 0 0 0 -0.031 -0.055 2.324 2.324 0 0 1 -0.101 -0.15c-0.124 -0.197 -0.177 -0.273 -0.293 -0.396 -0.14 -0.152 -0.161 -0.192 -0.161 -0.302 0 -0.131 0.077 -0.25 0.177 -0.278a0.67 0.67 0 0 1 0.143 -0.006c0.089 0.006 0.113 0.019 0.217 0.119Zm-6.226 0.018a2.527 2.527 0 0 1 0.961 0.444 5.651 5.651 0 0 1 0.338 0.303l0.221 0.213 0.178 -0.18c0.431 -0.437 0.771 -0.64 1.293 -0.771 0.262 -0.064 0.793 -0.07 1.056 -0.01 0.552 0.123 1.045 0.428 1.375 0.845 0.332 0.418 0.475 0.766 0.539 1.314 0.05 0.443 -0.058 0.98 -0.28 1.375 -0.171 0.306 -0.269 0.413 -2.214 2.358l-1.949 1.947 -2.007 -2.01c-1.821 -1.827 -2.015 -2.029 -2.11 -2.184 -0.117 -0.198 -0.177 -0.342 -0.265 -0.627 -0.052 -0.171 -0.064 -0.254 -0.074 -0.497 -0.015 -0.355 0.012 -0.579 0.1 -0.857 0.19 -0.606 0.574 -1.085 1.122 -1.398 0.2 -0.117 0.378 -0.186 0.641 -0.255 0.259 -0.064 0.796 -0.071 1.073 -0.009Zm0 0"/></svg>