<svg viewBox="0 0 24 24" xmlns="http://www.w3.org/2000/svg" class="a"><style>.b{fill: currentColor;}.a{}</style><path d="M13.06 10.9c.15-.14.33-.25.51-.34 -.1-.16-.16-.35-.16-.56 0-.58.47-1.06 1.06-1.06 .59 0 1.06.47 1.06 1.06 0 .2-.06.39-.16.56 .72.34 1.22 1.07 1.22 1.92v.35h-3.53v.89h.72l.69.59 .69-.59h2.13V8.07h-5.65v.71h1.41v2.13Z" class="b"/><path d="M13.1 12.12h2.74c-.16-.61-.71-1.06-1.37-1.06 -.66 0-1.21.45-1.37 1.06Z" class="b"/><path d="M6.7 15.12h2.13l.69.59 .69-.59h2.13V9.47H6.7v5.65Zm2.14-4.43c.24 0 .48.07.68.2 .2-.13.44-.2.68-.2 .69 0 1.26.57 1.26 1.26 0 .74-.67 1.47-1.94 2.23 -1.16-.7-1.95-1.44-1.94-2.23 0-.69.57-1.26 1.26-1.26Z" class="b"/><path d="M9.53 13.36c1.02-.67 1.24-1.13 1.24-1.4 0-.31-.25-.56-.56-.56 -.31-.01-.51.3-.68.49 -.16-.18-.39-.52-.68-.49 -.31 0-.56.25-.56.56 0 .27.22.73 1.24 1.4Z" class="b"/><path d="M12 .98C5.75.98.68 5.91.68 12c0 6.09 5.07 11.02 11.32 11.02s11.32-4.93 11.32-11.02C23.32 5.91 18.25.98 12 .98Zm6 13.44h-2.57l-.95.82 -.95-.82h-.46v1.41H10.5l-.95.82 -.95-.82H6.03V8.77h4.94V7.36h7.06v7.06Z" class="b"/><path d="M14.47 9.65a.35.35 0 1 0 0 .7 .35.35 0 1 0 0-.7Z" class="b"/></svg>