<svg viewBox="0 0 16 11.62" xmlns="http://www.w3.org/2000/svg" class="a"><style>.b{fill: currentColor;}.a{}</style><g transform="translate(0 .19)" class="a"><path d="M16 0H7.41v1.18h2.12v3.27H9.52c.26-.27.57-.48.91-.62v0c-.17-.25-.26-.54-.26-.83l0 0c-.07-.85.55-1.59 1.4-1.65 .84-.07 1.58.55 1.64 1.4 0 .08 0 .16 0 .24v0c-.01.3-.1.6-.26.86l-.001 0c1.12.49 1.85 1.61 1.85 2.85v.47H9.51v1.41h1.11l1.07.91 1.06-.91h3.23Z" class="b"/><path d="M5.32 5v0c-.26-.01-.51.1-.67.3l-.36.4 -.35-.4h-.001c-.33-.38-.89-.41-1.26-.09 -.2.16-.31.41-.31.67 0 .6.66 1.34 1.91 2.17 1.26-.82 1.92-1.56 1.92-2.16v0c0-.5-.39-.9-.88-.9 -.01-.01-.01-.01-.02-.01Z" class="b"/><path d="M9.58 6.21h4.25v0c-.27-1.18-1.44-1.91-2.62-1.64 -.82.18-1.46.82-1.64 1.63Z" class="b"/><path d="M8.59 2.12H0v8.59h3.23l1.06.91 1.07-.91h3.23V2.12ZM4.54 9l-.25.16L4.05 9C2.27 7.91 1.44 6.92 1.44 5.9h0c-.01-1.02.81-1.84 1.82-1.84 .36-.01.71.1 1.02.31v0c.29-.2.64-.31 1-.31v0c1.01-.02 1.84.78 1.85 1.79 0 .01 0 .02 0 .03 0 1-.83 2-2.61 3.12Z" class="b"/><path d="M11.71 2.38a.58.58 0 1 0 0 1.17 .58.58 0 1 0 0-1.18Z" class="b"/></g></svg>