<svg viewBox="0 0 16 12.38" xmlns="http://www.w3.org/2000/svg" class="a"><style>.b{fill: currentColor;}.a{}</style><g transform="translate(0-.19001)" class="a"><path d="M6.59 0v1.88H0v9.41h3.43l1.28 1.09L6 11.29h3.41V9.41H10l1.27 1.09 1.28-1.09H16V0Zm1.88 10.36H5.63l-.92.79 -.93-.79H.94V2.82h7.53Zm6.59-1.89h-2.84l-.93.8 -.92-.8h-1V7.29h4.71v-.47 0c-.01-1.1-.64-2.09-1.63-2.55V4.26c.14-.23.21-.48.22-.74v0c-.07-.79-.76-1.37-1.54-1.3 -.7.05-1.24.6-1.3 1.29v0c0 .26.07.51.22.74V4.25c-.26.11-.49.26-.69.45V1.86H7.52V.92h7.53Zm-4.24-4.94h-.001c-.01-.27.2-.49.47-.49 .26-.01.48.2.48.47 0 .26-.21.48-.47.48 -.01 0-.02 0-.02 0v0c-.26 0-.47-.22-.47-.47Zm.47 1.41h0c.85-.01 1.61.57 1.83 1.41H9.47v0c.21-.83.96-1.41 1.82-1.41Z" class="b"/><path d="M5.62 4.45v0c-.33 0-.64.09-.91.27v0c-.28-.18-.6-.27-.92-.27v0c-.93 0-1.68.75-1.68 1.68 0 1.06 1.05 2 2.6 3 1.69-1 2.59-2 2.59-3h-.001c0-.93-.76-1.68-1.68-1.68ZM4.71 8c-1.36-.9-1.66-1.51-1.66-1.87v0c0-.41.33-.74.74-.74 .39 0 .7.42.92.66 .23-.26.5-.68.91-.66v0c.4 0 .74.33.74.74 -.001.36-.3.97-1.65 1.87Z" class="b"/></g></svg>