<svg viewBox="0 0 21 20.15" xmlns="http://www.w3.org/2000/svg" class="a"><style>.b{fill: currentColor;}.a{}</style><g transform="translate(0-.07501)" class="a"><path d="M16.85 0H4.15C1.69 0-.17 2 .01 4.45L.84 15.7c.18 2.39 2.23 4.35 4.61 4.45v0c.06 0 .12 0 .18 0h9.71c2.47.01 4.64-2 4.82-4.45l.83-11.25c.18-2.44-1.68-4.45-4.13-4.45ZM16 12.29h-2.36l-.88.75 -.88-.75h-.42v1.29H9.1l-.88.75 -.88-.75H4.98V7.11h4.53V5.82h6.47v6.47Z" class="b"/><path d="M11.51 10.19h2.51c-.3-1.28-2.21-1.27-2.51 0Z" class="b"/><path d="M5.64 12.94h1.95l.64.55 .64-.55h1.95V7.76H5.64v5.18Zm2.59-3.87c.73-.5 1.81.08 1.78.97 0 .68-.62 1.35-1.78 2.05 -1.06-.64-1.79-1.32-1.78-2.05 -.02-.89 1.05-1.47 1.78-.97Z" class="b"/><path d="M8.23 11.32c1.15-.73 1.58-1.57.63-1.8 -.28-.01-.47.27-.63.45 -.15-.16-.36-.47-.63-.45 -.28 0-.51.23-.51.51 0 .25.2.67 1.14 1.28Z" class="b"/><path d="M11.47 9.07c.14-.13.3-.23.47-.31 -.4-.61.08-1.5.82-1.48 .74-.02 1.23.87.82 1.48 .78.35 1.2 1.21 1.12 2.08h-3.24v.81h.66l.64.55 .64-.55h1.95V6.46h-5.18v.65h1.29v1.95Z" class="b"/><path d="M13.09 8.24c0-.42-.66-.42-.65 0 0 .42.66.42.65 0Z" class="b"/></g></svg>