<svg viewBox="0 0 17 17" xmlns="http://www.w3.org/2000/svg" class="a"><style>.b{fill: currentColor;}.a{}</style><path d="M1.88 4.15v2.34H.47V0h2.12l0 0c.43-.03.85.1 1.2.37v0c.3.26.45.65.43 1.06v1.2c0 .75-.22 1.22-.77 1.37l1 2.45H2.93l-.87-2.3Zm0-2.95V3h.55v0c.1.01.21-.03.3-.1v-.001c.07-.1.1-.22.09-.33v-1l0 0c.01-.11-.03-.22-.1-.29v0c-.09-.06-.19-.08-.29-.07ZM6.38 0h3.29v1.22H7.78V2.6h1.63v1.21H7.78v1.47h1.89v1.21H6.38Zm7.94 0h1.46l-1.23 6.49h-2L11.33 0h1.44c.36 2.07.57 3.32.62 3.75 .05.43.12.94.19 1.53 .12-1.12.22-2 .31-2.52ZM.23 9.12v0c-.03-.47.18-.91.56-1.18h0c.47-.33 1.04-.48 1.62-.44h0c.44-.02.89.05 1.32.18V9v0c-.36-.14-.74-.21-1.12-.2v0c-.27-.03-.53.01-.76.13l-.001-.001c-.13.07-.2.2-.2.35v3.09 0c-.01.12.04.25.14.34l0-.001c.12.08.27.13.42.12v0c.14 0 .28-.03.42-.08v-2.19h1.37v3.14 0c-.54.27-1.13.4-1.73.39v0c-.54.03-1.08-.11-1.52-.41H.74c-.36-.29-.55-.72-.52-1.16Zm5.86-1.57h3.29v1.22H7.5v1.38h1.63v1.21H7.5v1.47h1.88V14H6.09Zm8.09 0h1.38V14h-1.35c-.92-2.36-1.45-3.78-1.6-4.27v0c.16.83.23 1.69.2 2.55V14h-1.39V7.55h1.39l.85 2.17h0c.28.69.52 1.4.73 2.12v0c-.17-.88-.24-1.77-.21-2.66ZM0 15.68v0c-.01-.16.05-.31.18-.41v0c.14-.11.32-.16.51-.14v0c.17-.01.34.01.51.06v.48h-.001c-.15-.06-.31-.09-.47-.08h0c-.06-.02-.12-.02-.17 0h0c-.04.02-.06.06-.05.11v0h0c-.02.04-.02.09 0 .14h0c.03.04.08.07.14.1l.38.21h0c.17.08.27.25.27.45v.21l-.001 0c0 .16-.07.31-.2.41h0c-.17.1-.37.15-.56.14v0c-.18.03-.37.04-.54.02v-.48h0c.17.06.35.1.54.1 .19 0 .28 0 .28-.16v0H.81c.01-.04.01-.08 0-.11v0c-.04-.04-.07-.07-.11-.09l-.36-.19h0c-.2-.1-.32-.29-.32-.5Zm2.88.05c0-.11-.06-.17-.19-.17s-.2.06-.2.17v1.12c0 .11.07.17.2.17s.19-.06.19-.17ZM2 15.7h-.001c-.01-.17.05-.33.18-.43H2.17c.14-.12.33-.18.52-.16v0c.18-.02.36.04.51.16v0c.12.1.18.26.18.43v1.18 0c0 .16-.06.32-.18.43l0 0c-.15.11-.33.17-.51.16l-.001-.001c-.19.01-.38-.05-.52-.16h0c-.13-.11-.19-.27-.18-.43Zm2.15-.56h.5V17h.61v.42H4.14Zm2.63 0h.49v1.74 0c.01.16-.06.31-.17.43l0 0c-.15.11-.33.17-.51.16v-.001c-.19.01-.38-.05-.52-.16h-.001c-.12-.12-.18-.27-.17-.43v-1.74h.5v1.71c0 .11.06.17.19.17s.19-.06.19-.17Zm2.46 0v.43h-.42v1.87h-.5v-1.87H7.9v-.43Zm.66 0h.5v2.3h-.5Zm2.15.59c0-.11-.07-.17-.2-.17s-.2.06-.2.17v1.12c0 .11.07.17.2.17s.2-.06.2-.17Zm-.89 0v0c-.01-.17.05-.32.17-.43h-.001c.3-.2.69-.2 1 0l0 0c.11.11.18.26.17.43v1.18 0c.01.16-.06.31-.17.43h0c-.31.19-.7.19-1 0v0c-.12-.12-.18-.27-.17-.43Zm3.11-.56h.49v2.3h-.47c-.33-.84-.52-1.34-.57-1.51v0c.05.29.08.59.07.9v.61h-.49v-2.3h.49l.3.77c.13.33.21.58.26.75v0c-.07-.31-.09-.63-.08-.94Zm1.2.54v0c-.01-.16.05-.31.18-.41v0c.14-.11.32-.16.51-.14v0c.16-.01.33.01.5.06v.48 0c-.15-.06-.31-.09-.46-.08v0c-.06-.02-.13-.02-.18 0v0c-.02.03-.02.07 0 .11v0l-.001 0c-.02.04-.02.09 0 .14v0c.03.04.08.07.14.1l.37.21v0c.17.08.28.25.28.45v.21h-.001c0 .16-.07.31-.2.41v0c-.17.1-.37.15-.56.14v0c-.19 0-.37-.02-.54-.07v-.42 0c.15.06.32.09.49.1 .19 0 .28 0 .28-.16v0 0c.01-.04.01-.08 0-.11v0c-.04-.04-.08-.08-.12-.09l-.35-.19v0c-.2-.1-.32-.29-.32-.5Z" transform="translate(.33085 0) scale(.97309)" class="b"/></svg>