<svg viewBox="0 0 21 20.15" xmlns="http://www.w3.org/2000/svg" class="a"><style>.b{fill: currentColor;}.a{}</style><path d="M6.87 14.68v.74c0 .08 0 .11-.13.11s-.13 0-.13-.11v-.74c0-.07 0-.11.13-.11s.13.04.13.11Zm-.1-8.42l0 0c.05-.08.08-.17.06-.26v-.7 0c0-.07-.03-.14-.07-.18h0c-.07-.02-.13-.02-.19 0h-.36v1.2h.36v-.001c.07 0 .14-.02.2-.06Zm6 8.31c-.08 0-.13 0-.13.11v.74c0 .08 0 .11.13.11s.13 0 .13-.11v-.74c0-.07-.04-.11-.13-.11ZM21 4.45l-.84 11.25v-.001c-.23 2.48-2.3 4.4-4.79 4.45H5.45h0c-2.43-.14-4.39-2.04-4.61-4.45L0 4.44l-.001 0C-.21 2.18 1.45.2 3.7 0c.14-.02.29-.02.43-.02h12.7v0c2.25-.05 4.12 1.75 4.16 4.01 0 .14-.01.29-.02.43Zm-8.55-.13l.82 4.28h1.29l.82-4.28h-1l-.29 1.82c-.06.37-.12.92-.2 1.66 -.05-.39-.09-.73-.12-1s-.18-1.11-.42-2.47ZM5.28 8.6h.93V7.05h.11L6.9 8.6h1L7.25 7c.33-.12.5-.43.5-.93v-.81 0c.01-.27-.09-.53-.28-.7v0c-.23-.18-.51-.26-.79-.24h-1.4Zm.56 6.72v0c0-.13-.07-.24-.17-.3l-.25-.14v0c-.04-.01-.07-.04-.09-.06 0 0 0-.05 0-.09v0l0 0c-.01-.03-.01-.05-.001-.07v0c.03-.02.07-.02.11 0l-.001-.001c.1-.01.21.01.31.06v-.32 0c-.11-.02-.23-.02-.33 0v0c-.13-.01-.24.02-.34.09h0c-.09.06-.13.16-.12.27v.14l-.001-.001c0 .14.08.26.21.33l.23.13 .08.05s0 0 0 .08v0c0 .07-.06.11-.19.11v0c-.11-.03-.21-.08-.29-.15v.32 0c.11.03.23.05.36.05v0c.12 0 .25-.03.36-.09v0c.08-.07.13-.18.13-.28Zm1.36-.65v-.001c0-.11-.04-.22-.12-.29v0c-.1-.08-.22-.12-.34-.1v0c-.13-.02-.25.02-.34.1v0c-.09.07-.13.18-.12.29v.77 0c-.01.1.03.21.12.29h-.001c.09.07.21.11.34.1v0c.12.01.24-.03.34-.1v0c.08-.08.12-.19.12-.29Zm.41-3.39H6.7v1.44h-.001c-.1.01-.19.01-.28 0l-.001-.001c-.1.01-.2-.02-.27-.08v0c-.07-.06-.1-.14-.09-.22v-2 0c-.01-.1.04-.19.13-.24v0c.15-.07.32-.1.5-.08v0c.25-.01.5.04.74.14v-.86 0c-.29-.09-.58-.13-.87-.12v0c-.38-.03-.76.07-1.07.29h0c-.25.18-.39.47-.37.78v2.24 0c-.02.29.1.57.34.76v-.001c.29.19.64.29 1 .27H6.45c.39.01.79-.08 1.15-.25Zm.82 4.25H8V14.3h-.31v1.51h.74Zm1.33-1.23h-.33v1.12c0 .08 0 .11-.13.11s-.12 0-.12-.11V14.3h-.33v1.14 0c-.01.1.03.21.11.29v0c.2.13.47.13.68 0v0c.08-.08.12-.19.12-.29Zm1.29 0h-.87v.28h.27v1.23h.33v-1.23h.27Zm.1-5H9v4.27h2.17v-.8H9.91v-1H11V11H9.91v-.9h1.24Zm.19-5H9.17v4.3h2.17v-.8H10.1v-1h1.07V6H10.1v-.88h1.24Zm.48 10h-.33v1.51h.33Zm1.41.37l0-.001c0-.11-.04-.22-.12-.29v0c-.21-.14-.48-.14-.68-.001l0-.001c-.09.07-.13.18-.12.29v.77 0c-.01.1.03.21.12.29h0c.2.13.47.13.68 0h0c.08-.08.12-.19.12-.29Zm.18-2.23v0c.02-.57-.03-1.13-.13-1.68 .09.32.45 1.26 1.06 2.81h.88V9.3h-.91v1.07 0c-.02.58.03 1.17.14 1.75l0-.001c-.13-.48-.28-.94-.45-1.39l-.59-1.43h-.91v4.27h.91Zm1.28 1.86h-.32v.38l0-.001c-.01.2 0 .41.05.62 0-.12-.09-.28-.17-.5l-.2-.5h-.32v1.51h.32v-.4h0c0-.21-.02-.41-.05-.6 0 .12.16.45.38 1h.31Zm1.34 1v0c0-.13-.07-.25-.18-.3l-.25-.14 -.09-.06v0c-.01-.03-.01-.07 0-.09v0 0c-.01-.03-.01-.05 0-.07v0c.03-.02.08-.02.12 0h-.001c.1-.01.2.01.3.06v-.32 0c-.11-.02-.23-.02-.33 0v0c-.13-.01-.24.02-.34.09v0c-.08.06-.12.16-.11.27v.14 0c0 .14.08.26.21.33l.23.13 .08.05v-.001c0 .02 0 .05 0 .08v0c0 .07-.06.11-.19.11v0c-.12 0-.24-.03-.34-.07v.32 0c.11.03.23.05.36.05v0c.12 0 .25-.03.37-.09h0c.08-.07.13-.18.13-.28Z" transform="translate(0-.07501)" class="b"/></svg>