<svg viewBox="0 0 12 13.44" xmlns="http://www.w3.org/2000/svg" class="a"><style>.b{fill: currentColor;}.a{}</style><g transform="translate(0-.22)" class="a"><path d="M10.56 4.8H7.2V1.44v0c-.02-.26-.23-.45-.48-.44H2.8v0C2.52.24 1.69-.14.94.14 .18.41-.2 1.24.08 2H.07c.26.74 1.08 1.14 1.84.88v0c.4-.15.73-.48.88-.88h3.44v2.8H2.87V4.79c-.8 0-1.44.64-1.44 1.44v5.76 -.001c0 .79.64 1.43 1.44 1.44h7.68v-.001c.79 0 1.44-.65 1.44-1.44v-5.76 -.001c0-.79-.64-1.44-1.42-1.44 -.01-.01-.02-.01-.03 0ZM1.44 1.92h0C1.19 1.89 1 1.68 1 1.44v0c.01-.24.2-.43.44-.44v0c.25-.01.47.2.48.45 0 0 0 .01 0 .02v0c-.03.24-.23.44-.48.44ZM11 12v0c0 .26-.22.48-.48.48H2.88v0c-.27-.01-.48-.22-.48-.48V6.24v0c0-.27.21-.48.48-.48h7.68v0c.25-.01.47.2.48.45 0 0 0 .01 0 .02Z" class="b"/><path d="M4.8 7.68v0c-.8 0-1.44.64-1.44 1.44 0 .79.64 1.44 1.44 1.44 .79 0 1.44-.65 1.44-1.44v0c0-.8-.65-1.44-1.44-1.44Zm0 1.92h0c-.27-.01-.48-.22-.48-.48v0c0-.27.21-.48.48-.48v0c.25-.01.47.2.48.45 0 0 0 .01 0 .02v0c0 .26-.22.48-.48.48Z" class="b"/><path d="M8.64 7.68v0c-.8 0-1.44.64-1.44 1.44 0 .79.64 1.44 1.44 1.44 .79 0 1.44-.65 1.44-1.44v0c0-.8-.65-1.44-1.44-1.44Zm0 1.92v0c-.27-.01-.48-.22-.48-.48v0c0-.27.21-.48.48-.48v0c.25-.01.47.2.48.45 0 0 0 .01 0 .02v0c0 .26-.22.48-.48.48Z" class="b"/></g></svg>