<svg viewBox="0 0 24 24" xmlns="http://www.w3.org/2000/svg" class="a"><style>.b{fill: currentColor;}.a{}</style><path d="M11 13.6c-.22 0-.4.18-.4.4 0 .22.18.4.4.4 .22 0 .4-.18.4-.4 0-.22-.18-.4-.4-.4Z" class="b"/><path d="M8.2 7.2c-.22 0-.4.18-.4.4 0 .22.18.4.4.4 .22 0 .4-.18.4-.4 0-.22-.18-.4-.4-.4Z" class="b"/><path d="M14.2 13.6c-.22 0-.4.18-.4.4 0 .22.18.4.4.4 .22 0 .4-.18.4-.4 0-.22-.18-.4-.4-.4Z" class="b"/><path d="M15.8 11.2H9.4c-.22 0-.4.18-.4.4v4.8c0 .22.18.4.4.4h6.4c.22 0 .4-.18.4-.4v-4.8c0-.22-.18-.4-.4-.4Zm-4.8 4c-.66 0-1.2-.54-1.2-1.2 0-.66.54-1.2 1.2-1.2 .66 0 1.2.54 1.2 1.2 0 .66-.54 1.2-1.2 1.2Zm3.2 0c-.66 0-1.2-.54-1.2-1.2 0-.66.54-1.2 1.2-1.2 .66 0 1.2.54 1.2 1.2 0 .66-.54 1.2-1.2 1.2Z" class="b"/><path d="M12 .98C5.75.98.68 5.91.68 12c0 6.09 5.07 11.02 11.32 11.02s11.32-4.93 11.32-11.02C23.32 5.91 18.25.98 12 .98Zm5 15.42c0 .66-.54 1.2-1.2 1.2H9.4c-.66 0-1.2-.54-1.2-1.2v-4.8c0-.66.54-1.2 1.2-1.2h2.8V8H9.33c-.12.34-.39.61-.73.73 -.62.22-1.31-.11-1.53-.73 -.22-.62.11-1.31.73-1.53 .62-.22 1.31.11 1.53.73h3.27c.22 0 .4.18.4.4v2.8h2.8c.66 0 1.2.54 1.2 1.2v4.8Z" class="b"/></svg>