<svg viewBox="0 0 21 20.15" xmlns="http://www.w3.org/2000/svg" class="a"><style>.b{fill: currentColor;}.a{}</style><path d="M9.84 12.23h-.001c.02.24-.16.46-.4.48 -.25.02-.47-.16-.49-.4v0c-.03-.25.15-.47.39-.49 .24-.03.46.15.48.39Zm3.51 0v-.001c-.04-.25-.26-.41-.5-.38 -.25.03-.41.25-.38.49 0 .02.01.05.02.08v0c.06.23.31.36.55.3 .23-.07.36-.32.3-.55Zm-6.6-7v0c-.05-.24-.28-.4-.52-.36 -.24.04-.4.27-.36.51 0 .01 0 .03.01.05v0c.08.23.34.35.57.27 .23-.09.35-.35.27-.58ZM21 4.45l-.84 11.25h-.001c-.23 2.5-2.31 4.42-4.82 4.45H5.44h0c-2.43-.14-4.39-2.04-4.61-4.45L-.01 4.45l-.001 0C-.21 2.19 1.45.21 3.7.01c.14-.02.29-.02.43-.02h12.7v0c2.25-.05 4.12 1.75 4.16 4.01 0 .14-.01.29-.02.43Zm-5 5.19v0c-.01-.73-.6-1.32-1.32-1.32H11.6V5.24v-.001c0-.14-.06-.26-.16-.34v0c-.08-.07-.18-.11-.28-.1h-3.6v0c-.25-.69-1-1.05-1.69-.81s-1.05.99-.81 1.68c.24.68.99 1.04 1.68.8 .37-.14.67-.43.8-.81h3.16v2.64H7.62v0c-.39 0-.76.17-1 .48v0c-.2.23-.3.53-.3.84v5.27 0c0 .72.59 1.31 1.32 1.32h7 -.001c.73 0 1.33-.59 1.33-1.32 0-.01 0-.01 0-.01Zm-.88-.05v5.32 0c-.01.11-.05.23-.13.32h-.001c-.09.07-.2.12-.31.12h-7v0c-.23.01-.42-.14-.46-.35v0c-.01-.05-.01-.09 0-.13V9.64v0c0-.09.02-.18.08-.25H7.29c.07-.13.21-.2.36-.19h7v0c.23-.02.43.15.46.39Zm-4.4 2.68v0c0-.73-.6-1.32-1.32-1.32 -.73 0-1.32.59-1.32 1.32v0c0 .72.59 1.32 1.32 1.32 .72 0 1.32-.6 1.32-1.32Zm3.52 0v0c0-.73-.6-1.32-1.32-1.32 -.73 0-1.32.59-1.32 1.32v0c0 .72.59 1.32 1.32 1.32 .72 0 1.32-.6 1.32-1.32Z" transform="translate(0-.07501)" class="b"/></svg>