<svg viewBox="0 0 12 13.44" xmlns="http://www.w3.org/2000/svg" class="a"><style>.b{fill-rule: evenodd; fill: currentColor;}.a{}</style><path d="M7.2 4.8h2.47v0c.41-.06.83-.06 1.25 0v0c.36.1.68.34.88.67h-.001c.22.71.29 1.46.2 2.2v4 .52 0c-.08.47-.39.88-.82 1.08v0c-.75.16-1.52.2-2.28.13H4.13c-1.21 0-2 .11-2.45-.64v0c-.25-.64-.34-1.33-.24-2V7.32c0-1.1-.08-1.76.57-2.24v0c.5-.27 1.07-.37 1.64-.28h2.58V1.93H2.79v0c-.27.75-1.09 1.14-1.84.88 -.57-.2-.96-.73-.97-1.33v0c-.02-.22.03-.44.14-.62h0c.25-.63.91-1 1.58-.87v0c.51.1.93.49 1.08 1H5.9c.44 0 1-.07 1.18.18 .18.25.1.7.1 1.05ZM1.39 1c-.2.08-.34.13-.4.33v0c-.08.26.08.53.34.6 .05.01.1.02.15.01v0c.26-.01.47-.22.47-.49 -.01-.27-.22-.48-.49-.48 -.04 0-.07 0-.1 0ZM4.7 7.67c-.13.06-.29 0-.41.09v0c-.39.15-.69.45-.84.83v0c-.28.72.07 1.54.8 1.84v0c.2.1.42.14.65.12v0c.51-.05.96-.35 1.2-.8v0c.36-.73.07-1.61-.66-1.98 -.02-.01-.04-.02-.06-.03h0c-.23-.08-.46-.11-.69-.08Zm3.8 0c-.13 0-.26 0-.38.08v0c-.44.17-.76.54-.87 1v-.001c-.2.69.15 1.42.81 1.71v-.001c.2.09.43.14.67.12v0c.52-.05.98-.36 1.21-.83v0c.35-.72.05-1.58-.66-1.93 -.25-.13-.52-.17-.79-.15Zm-3.72 1v0c.26-.02.49.18.5.45 .01.23-.16.44-.39.49v0c-.26.05-.52-.12-.57-.38 -.02-.1-.01-.19.02-.28 .08-.24.21-.26.42-.34Zm3.82 0v0c.27-.03.52.17.55.45 .02.27-.18.52-.45.55l0 0c-.27.04-.52-.14-.57-.41 -.02-.09-.01-.18.03-.27 .07-.25.22-.29.43-.37Z" transform="translate(0-.22)" class="b"/></svg>