<svg id="Capa_1" enable-background="new 0 0 512 512" height="512" viewBox="0 0 512 512" width="512" xmlns="http://www.w3.org/2000/svg"><g><path d="m256 154.028c-24.813 0-45 20.187-45 45s20.187 45 45 45 45-20.187 45-45-20.187-45-45-45zm0 60c-8.271 0-15-6.729-15-15s6.729-15 15-15 15 6.729 15 15-6.729 15-15 15z"/><path d="m436 391c-19.555 0-36.228 12.542-42.42 30h-35.868l-22.5-90h25.788v-27.42c17.459 6.192 30 22.865 30 42.42v15h30v-101.972c0-36.223-25.814-66.528-60.011-73.493-.217-72.505-36.314-139.752-96.669-179.988l-8.32-5.547-8.32 5.547c-60.354 40.237-96.451 107.483-96.669 179.988-34.198 6.965-60.011 37.27-60.011 73.493v101.972h30v-15c0-19.555 12.541-36.228 30-42.42v27.42h25.788l-22.5 90h-35.868c-6.192-17.458-22.865-30-42.42-30-24.813 0-45 20.187-45 45s20.187 45 45 45c19.555 0 36.228-12.542 42.42-30h59.292l30-120h33.288v93.58c-17.459 6.192-30 22.865-30 42.42 0 24.813 20.187 45 45 45s45-20.187 45-45c0-19.555-12.541-36.228-30-42.42v-93.58h33.288l30 120h59.292c6.192 17.458 22.865 30 42.42 30 24.813 0 45-20.187 45-45s-20.187-45-45-45zm-360 60c-8.271 0-15-6.729-15-15s6.729-15 15-15 15 6.729 15 15-6.729 15-15 15zm180 31c-8.271 0-15-6.729-15-15s6.729-15 15-15 15 6.729 15 15-6.729 15-15 15zm135-222.972v27.008c-8.725-6.564-18.924-11.265-30-13.522v-55.906c17.459 6.192 30 22.865 30 42.42zm-135-222.642c20.696 15.472 37.672 34.805 50.208 56.642h-100.416c12.537-21.837 29.512-41.17 50.208-56.642zm-75 149.808c0-21.872 3.802-43.192 10.953-63.167h128.095c7.15 19.975 10.952 41.295 10.952 63.167v114.806h-150zm-60 99.842v-27.008c0-19.555 12.541-36.228 30-42.42v55.906c-11.077 2.258-21.276 6.959-30 13.522zm315 164.964c-8.271 0-15-6.729-15-15s6.729-15 15-15 15 6.729 15 15-6.729 15-15 15z"/></g></svg>