<svg viewBox="0 0 32 32" xmlns="http://www.w3.org/2000/svg" xmlns:xlink="http://www.w3.org/1999/xlink"><defs><clipPath id="a"><use clip-rule="evenodd" xlink:href="#b"/></clipPath><path id="b" d="M0 0h32v32H0Z"/></defs><use fill="none" fill-rule="evenodd" xlink:href="#b"/><g clip-path="url(#a)"><g fill="#1C447F" fill-rule="evenodd"><path d="M16.703 2.015c.155-.015.311-.018.466-.01 .144-.411.381-.798.71-1.126 1.17-1.171 3.072-1.171 4.242 0l.879.878 .879-.878c1.17-1.171 3.072-1.171 4.242 0 .329.328.566.715.71 1.126 .823-.046 1.662.245 2.29.874 1.171 1.17 1.171 3.072 0 4.242L30.243 8l.878.879c1.14 1.139 1.17 2.971.091 4.148C31.723 14.592 32 16.264 32 18v1c0 7.18-5.82 13-13 13h-6C5.82 32 0 26.18 0 19c0-.332 0-.665 0-1C0 9.163 7.163 2 16 2h.103c.201.002.4.007.6.015Z"/><path fill="#EAD361" d="M30 18c0-7.732-6.268-14-14-14C8.268 4 2 10.268 2 18v1c0 6.075 4.925 11 11 11h6c6.075 0 11-4.925 11-11 0-.332 0-.665 0-1Z"/><path fill="#FFF" d="M23.2 13.4l1.401-.7c.131.098.257.207.374.325 .656.656 1.025 1.545 1.025 2.473V17.5c0 1.933-1.567 3.5-3.5 3.5h-.002c-.928 0-1.817-.369-2.473-1.025C19.369 19.319 19 18.43 19 17.502V15.5l1-.5c0 .936 3.275-1.544 3.2-1.6Z"/><path d="M23.2 13.4c.075.056.147.118.214.186 .375.375.586.884.586 1.414v2.983c0 .531-.211 1.039-.586 1.415 -.375.375-.884.585-1.414.585 -.53 0-1.039-.21-1.414-.585 -.375-.376-.586-.884-.586-1.415V15Z"/><path fill="#FFF" d="M8.8 13.4l-1.401-.7c-.131.098-.257.207-.374.325C6.369 13.681 6 14.57 6 15.498V17.5C6 19.433 7.567 21 9.5 21h.002c.928 0 1.817-.369 2.473-1.025C12.631 19.319 13 18.43 13 17.502V15.5l-1-.5c0 .936-3.275-1.544-3.2-1.6Z"/><path d="M8.8 13.4c-.075.056-.147.118-.214.186C8.211 13.961 8 14.47 8 15v2.983c0 .531.211 1.039.586 1.415 .375.375.884.585 1.414.585 .53 0 1.039-.21 1.414-.585 .375-.376.586-.884.586-1.415V15Z"/><g stroke-linecap="round" stroke="#5E688D" fill-rule="evenodd" stroke-miterlimit="1.5" stroke-width="2" fill="none"><path d="M11 26.5s.011-.043.03-.12c.57-2.28 2.619-3.88 4.969-3.88h.002c2.35 0 4.399 1.6 4.969 3.88 .019.077.03.12.03.12"/><g stroke="#EF5353"><path d="M17 5s.808.808 1.586 1.586c.781.781.781 2.047 0 2.828C17.808 10.192 17 11 17 11"/><path d="M29 5s-.808.808-1.586 1.586c-.781.781-.781 2.047 0 2.828C28.192 10.192 29 11 29 11"/><path d="M20 13s.808-.808 1.586-1.586c.781-.781 2.047-.781 2.828 0C25.192 12.192 26 13 26 13"/><path d="M20 3s.808.808 1.586 1.586c.781.781 2.047.781 2.828 0C25.192 3.808 26 3 26 3"/></g></g></g></g></svg>