<svg viewBox="0 0 32 32" xmlns="http://www.w3.org/2000/svg" xmlns:xlink="http://www.w3.org/1999/xlink"><defs><clipPath id="a"><use clip-rule="evenodd" xlink:href="#b"/></clipPath><path id="b" d="M0 0h32v32H0Z"/></defs><use fill="none" fill-rule="evenodd" xlink:href="#b"/><g clip-path="url(#a)"><g fill="#1C447F" fill-rule="evenodd"><path d="M30 0c.53 0 1.039.211 1.414.586C31.789.961 32 1.47 32 2v6c0 .53-.211 1.039-.586 1.414s-.884.586-1.414.586h-.141C31.221 12.353 32 15.086 32 18v1c0 7.18-5.82 13-13 13h-6C5.82 32 0 26.18 0 19c0-.332 0-.665 0-1C0 9.163 7.163 2 16 2h.052c1.944.006 3.807.359 5.528 1H22V2c0-.53.211-1.039.586-1.414C22.961.211 23.47 0 24 0h6Z"/><path fill="#EAD361" d="M30 18c0-7.732-6.268-14-14-14C8.268 4 2 10.268 2 18v1c0 6.075 4.925 11 11 11h6c6.075 0 11-4.925 11-11 0-.332 0-.665 0-1Z"/><path fill="#EF5353" d="M11.172 25.895c-.164-.082-.305-.208-.405-.369 -.182-.295-.198-.663-.043-.973 .056-.112.113-.227.17-.342C11.572 22.856 12.957 22 14.472 22h3.056c1.515 0 2.9.856 3.578 2.211 .057.115.114.23.17.342 .155.31.139.678-.043.973 -.1.161-.241.287-.405.369 -.926-.572-8.73-.572-9.656 0Z"/><path fill="#B33E3E" d="M11.172 25.895c.926-.572 2.011-.895 3.153-.895h3.35c1.142 0 2.227.323 3.153.895 -.136.068-.289.105-.446.105 -2.295 0-6.469 0-8.764 0 -.157 0-.31-.037-.446-.105Z"/><path d="M22.5 18.586l2.293-2.293c.39-.39 1.024-.39 1.414 0 .39.39.39 1.024 0 1.414L22.5 21.414l-3.707-3.707c-.39-.39-.39-1.024 0-1.414 .39-.39 1.024-.39 1.414 0Zm-13 0l2.293-2.293c.39-.39 1.024-.39 1.414 0 .39.39.39 1.024 0 1.414L9.5 21.414l-3.707-3.707c-.39-.39-.39-1.024 0-1.414 .39-.39 1.024-.39 1.414 0Z"/><g fill="#B2D3DE"><path d="M24 4V2h6v1.414L27.414 6H30v2h-6V6.586L26.586 4Z"/><path d="M17 7V5h6v1.414L20.414 9H23v2h-6V9.586L19.586 7Z"/></g></g></g></svg>