<svg viewBox="0 0 32 32" xmlns="http://www.w3.org/2000/svg"><g fill="none" fill-rule="evenodd"><path d="M0 0h32v32H0Z"/><path fill="none" fill-rule="evenodd" stroke="#1C447F" stroke-linejoin="round" stroke-miterlimit="1.41421" stroke-width="4" d="M13.65 27.251v-6.948l-6.675 3.406L5 20.031v-2l4.174-2.133L5 13.765v-2l1.975-3.678 6.675 3.337V4.749h4.7v6.743l6.675-3.405 1.907 3.678v2l-4.163 2.127L27 18.031v2l-2.043 3.678 -6.607-3.337v6.879Z"/></g><path fill="#B2D3DE" d="M13.65 20.303l-6.675 3.406L5 20.031v-2l6.13-1.133L5 13.765v-2l1.975-1.678 6.675 3.337 4.7.068 6.675-3.405 1.907 1.678v2l-6.13 3.133L27 18.031v2l-2.043 3.678 -6.607-3.337L17 22l1.35 3.251v2h-4.7v-2L15 22Z"/><path fill="#FFF" d="M13.65 18.303l-6.675 3.406L5 18.031l6.13-3.133L5 11.765l1.975-3.678 6.675 3.337V4.749h4.7v6.743l6.675-3.405 1.907 3.678 -6.13 3.133L27 18.031l-2.043 3.678 -6.607-3.337v6.879h-4.7Z"/></svg>