<svg viewBox="0 0 32 32" xmlns="http://www.w3.org/2000/svg" xmlns:xlink="http://www.w3.org/1999/xlink"><defs><clipPath id="a"><use clip-rule="evenodd" xlink:href="#b"/></clipPath><path id="b" d="M0 0h32v32H0Z"/><path id="c" d="M16 2l3.182 5L27 3l-3 7 6 1 -5 5 5 5 -6 1 3 7 -7.818-4L16 30l-3.182-5L5 29l3-7 -6-1 5-5 -5-5 6-1L5 3l7.818 4Z"/></defs><use fill="none" fill-rule="evenodd" xlink:href="#b"/><g clip-path="url(#a)"><use fill="none" fill-rule="evenodd" stroke="#1C447F" stroke-linecap="round" stroke-linejoin="round" stroke-miterlimit="1.5" stroke-width="4" xlink:href="#c"/><g fill="#Ef5353" fill-rule="evenodd"><use xlink:href="#c"/><path fill="#FAD644" d="M16 5l2 5 5-3 -2 5h6l-5 4 5 4h-6l2 5 -5-3 -2 5 -2-5 -5 3 2-5H5l5-4 -5-4h6L9 7l5 3Z"/></g></g></svg>