<svg viewBox="0 0 32 32" xmlns="http://www.w3.org/2000/svg" xmlns:xlink="http://www.w3.org/1999/xlink"><defs><clipPath id="a"><use clip-rule="evenodd" xlink:href="#c"/></clipPath><clipPath id="b"><use clip-rule="evenodd" xlink:href="#d"/></clipPath><path id="e" d="M18 6V3"/><path id="g" d="M13 7l-2-2"/><path id="f" d="M22 7l2-2"/><path id="c" d="M0 0h32v32H0Z"/><path id="d" d="M15 12h11v3h2c.53 0 1.039.211 1.414.586s.586.884.586 1.414v7c0 .53-.211 1.039-.586 1.414s-.884.586-1.414.586h-1.977c.015.121.037.24.067.358 .133.535.392 1.57.599 2.399 .075.299.008.616-.182.858 -.189.243-.48.385-.788.385 -2.488 0-7.95 0-10.438 0 -.308 0-.599-.142-.788-.385 -.19-.242-.257-.559-.182-.858 .207-.829.466-1.864.599-2.399 .06-.238.09-.482.09-.727Zm11 12h2v-7h-2Z"/></defs><use fill="none" fill-rule="evenodd" xlink:href="#c"/><g clip-path="url(#a)"><g stroke="#1C447F" fill-rule="evenodd" stroke-miterlimit="1.5" stroke-width="6" fill="none" stroke-linecap="round" stroke-linejoin="round"><use xlink:href="#e"/><use xlink:href="#f"/><use xlink:href="#g"/><path stroke-linecap="square" stroke-width="4" d="M17 12h9v3h2c.53 0 1.039.211 1.414.586s.586.884.586 1.414v7c0 .53-.211 1.039-.586 1.414s-.884.586-1.414.586h-1.977c.015.121.037.24.067.358 .133.535.392 1.57.599 2.399 .075.299.008.616-.182.858 -.189.243-.48.385-.788.385 -2.488 0-7.95 0-10.438 0 -.308 0-.599-.142-.788-.385 -.19-.242-.257-.559-.182-.858L14.75 27H6.281c-.308 0-.599-.142-.788-.385 -.19-.242-.257-.559-.182-.858 .207-.829.466-1.864.599-2.399 .03-.118.052-.237.067-.358H4c-.53 0-1.039-.211-1.414-.586C2.211 22.039 2 21.53 2 21c0-1.986 0-5.014 0-7 0-.53.211-1.039.586-1.414C2.961 12.211 3.47 12 4 12h2V9h11Zm11 5h-2v7h2ZM6 14H4v7h2Z"/></g><g fill="#1C447F" fill-rule="evenodd"><path d="M17 7h5v5h-5Z"/><use fill="#FFF" xlink:href="#d"/></g><g clip-path="url(#b)"><g fill="#FFA32B" fill-rule="evenodd"><path d="M16 15l1-1h7l1 1v3l-1 1h-7l-1-1Z"/><path fill="#EAD361" d="M16 18h9v7s-.09.09-.233.233C23.636 26.364 22.101 27 20.501 27c-.001 0-.001 0-.002 0 -1.6 0-3.135-.636-4.266-1.767C16.09 25.09 16 25 16 25Z"/><g fill="#B2D3DE"><path d="M16 12h9v3h-9Z"/><path fill="#B2D3DE" fill-opacity=".603922" fill-rule="evenodd" d="M22 13.999c0-.552.447-.999.999-.999H23c.265 0 .52.105.707.293 .188.187.293.442.293.707v7c0 .265-.105.52-.293.707 -.187.188-.442.293-.707.293h-.001c-.552 0-.999-.447-.999-.999 0-1.732 0-5.27 0-7.002Z"/></g><path fill="none" fill-rule="evenodd" stroke="#1C447F" stroke-linecap="square" stroke-linejoin="round" stroke-miterlimit="1.5" stroke-opacity=".588235" stroke-width="4" d="M6 9h11v13.631c0 .245.03.489.09.727 .133.535.392 1.57.599 2.399 .075.299.008.616-.182.858 -.189.243-.48.385-.788.385 -2.488 0-7.95 0-10.438 0 -.308 0-.599-.142-.788-.385 -.19-.242-.257-.559-.182-.858 .207-.829.466-1.864.599-2.399 .06-.238.09-.482.09-.727C6 20.417 6 9 6 9Z"/></g></g><g fill="#FFF" fill-rule="evenodd"><path d="M6 12V9h11v13.631c0 .245.03.489.09.727 .133.535.392 1.57.599 2.399 .075.299.008.616-.182.858 -.189.243-.48.385-.788.385 -2.488 0-7.95 0-10.438 0 -.308 0-.599-.142-.788-.385 -.19-.242-.257-.559-.182-.858 .207-.829.466-1.864.599-2.399 .03-.118.052-.237.067-.358H4c-.53 0-1.039-.211-1.414-.586C2.211 22.039 2 21.53 2 21c0-1.986 0-5.014 0-7 0-.53.211-1.039.586-1.414C2.961 12.211 3.47 12 4 12Zm0 9v-7H4v7Z"/><path fill="#FFA32B" d="M7 12l1-1h7l1 1v3l-1 1H8l-1-1Z"/><path fill="#EAD361" d="M7 15h9v7s-.09.09-.233.233C14.636 23.364 13.101 24 11.501 24c-.001 0-.001 0-.002 0 -1.6 0-3.135-.636-4.266-1.767C7.09 22.09 7 22 7 22Z"/><g fill="#B2D3DE"><path d="M7 9h9v3H7Z"/><path fill="#B2D3DE" fill-opacity=".603922" fill-rule="evenodd" d="M13 10.999c0-.552.447-.999.999-.999H14c.265 0 .52.105.707.293 .188.187.293.442.293.707v7c0 .265-.105.52-.293.707 -.187.188-.442.293-.707.293h-.001c-.552 0-.999-.447-.999-.999 0-1.732 0-5.27 0-7.002Z"/></g><g stroke="#B2D3DE" fill-rule="evenodd" stroke-miterlimit="1.5" stroke-width="2" fill="none" stroke-linecap="round" stroke-linejoin="round"><use xlink:href="#e"/><use xlink:href="#f"/><use xlink:href="#g"/></g></g></g></svg>