<svg viewBox="0 0 32 32" xmlns="http://www.w3.org/2000/svg" xmlns:xlink="http://www.w3.org/1999/xlink"><defs><clipPath id="a"><use clip-rule="evenodd" xlink:href="#b"/></clipPath><path id="b" d="M0 0h32v32H0Z"/></defs><use fill="none" fill-rule="evenodd" xlink:href="#b"/><g clip-path="url(#a)"><g fill="#1C447F" fill-rule="evenodd"><path d="M16 0c4.243 0 8.313 1.686 11.314 4.686C30.314 7.687 32 11.757 32 16v1c0 8.284-6.716 15-15 15h-2C6.716 32 0 25.284 0 17v-1C0 7.163 7.163 0 16 0Z"/><path fill="#EAD361" d="M30 16c0-3.713-1.475-7.274-4.101-9.899C23.274 3.475 19.713 2 16 2 8.268 2 2 8.268 2 16v1c0 7.18 5.82 13 13 13h2c7.18 0 13-5.82 13-13Z"/><path fill="#FFF" d="M9.502 15c.928 0 1.817-.369 2.473-1.025C12.631 13.319 13 12.43 13 11.502c0-.973 0-2.029 0-3.002C13 6.567 11.433 5 9.5 5c-.001 0-.001 0-.002 0 -.928 0-1.817.369-2.473 1.025C6.369 6.681 6 7.57 6 8.498V11.5C6 13.433 7.567 15 9.5 15Z"/><path d="M8 8c0-1.105.895-2 2-2s2 .895 2 2v3.983c0 1.105-.895 2-2 2s-2-.895-2-2C8 10.766 8 9.217 8 8Z"/><path fill="#FFF" d="M22.498 15c-.928 0-1.817-.369-2.473-1.025C19.369 13.319 19 12.43 19 11.502c0-.973 0-2.029 0-3.002C19 6.567 20.567 5 22.5 5h.002c.928 0 1.817.369 2.473 1.025C25.631 6.681 26 7.57 26 8.498V11.5c0 1.933-1.567 3.5-3.5 3.5 -.001 0-.001 0-.002 0Z"/><path d="M24 8c0-1.105-.895-2-2-2s-2 .895-2 2v3.983c0 1.105.895 2 2 2s2-.895 2-2c0-1.217 0-2.766 0-3.983Z"/><path fill="#EF5353" d="M9.57 23.339C7.694 21.347 6.716 18.538 6.201 16h19.598c-.515 2.538-1.493 5.347-3.369 7.339 -1.114-1.446-11.746-1.446-12.86 0Z"/><path fill="#C74A4A" d="M9.57 23.339C10.684 21.893 12.426 21 14.325 21h3.35c1.899 0 3.641.893 4.755 2.339C20.933 24.929 18.863 26 16 26c-2.863 0-4.933-1.071-6.43-2.661Z"/></g></g></svg>