<svg viewBox="0 0 32 32" xmlns="http://www.w3.org/2000/svg" xmlns:xlink="http://www.w3.org/1999/xlink"><defs><clipPath id="a"><use clip-rule="evenodd" xlink:href="#b"/></clipPath><path id="b" d="M0 0h32v32H0Z"/><path id="c" d="M14 6V5c0-.796.316-1.559.879-2.121C15.441 2.316 16.204 2 17 2h2v1c0 .796-.316 1.559-.879 2.121C17.559 5.684 16.796 6 16 6c-1.063 0-2 0-2 0Z"/></defs><use fill="none" fill-rule="evenodd" xlink:href="#b"/><g clip-path="url(#a)"><path fill="none" fill-rule="evenodd" stroke="#1C447F" stroke-linecap="round" stroke-linejoin="round" stroke-miterlimit="1.5" stroke-width="4" d="M30 25c0 2.76-6.273 5-14 5s-14-2.24-14-5V14c0-.165.022-.328.066-.489C2.023 13.348 2 13.177 2 13c0-1.104.896-2 2-2 .212 0 .416.033.608.094 .688-.343 1.495-.654 2.399-.925C7.002 10.113 7 10.057 7 10c0-1.104.896-2 2-2 .874 0 1.618.562 1.89 1.344 .987-.138 2.029-.238 3.11-.293V6h4v3.051c1.081.055 2.123.155 3.11.293C21.382 8.562 22.126 8 23 8c1.104 0 2 .896 2 2 0 .057-.002.113-.007.169 .904.271 1.711.582 2.399.925 .192-.061.396-.094.608-.094 1.104 0 2 .896 2 2 0 .177-.023.348-.066.511 .044.161.066.324.066.489Z"/><use fill="#EAD361" fill-rule="evenodd" stroke="#1C447F" stroke-linecap="round" stroke-miterlimit="1.5" stroke-width="4" xlink:href="#c"/><g fill="#5B8AA0" fill-rule="evenodd"><path d="M30 14v11c0 2.76-6.273 5-14 5s-14-2.24-14-5V14Z"/><path fill="#FFF" d="M16 9a14 5 0 1 0 0 10 14 5 0 1 0 0-10Z"/><path fill="#5E688D" d="M14 6c0-.394.896-.714 2-.714s2 .32 2 .714v7c0 .394-.896.714-2 .714s-2-.32-2-.714Z"/><use fill="#EAD361" xlink:href="#c"/><g fill="#B2D3DE"><path d="M16 15a2 2 0 1 0 0 4 2 2 0 1 0 0-4Z"/><path d="M9 8a2 2 0 1 0 0 4 2 2 0 1 0 0-4Z"/><path d="M23 8a2 2 0 1 0 0 4 2 2 0 1 0 0-4Z"/><path d="M9 14a2 2 0 1 0 0 4 2 2 0 1 0 0-4Z"/><path d="M23 14a2 2 0 1 0 0 4 2 2 0 1 0 0-4Z"/><path d="M28 11a2 2 0 1 0 0 4 2 2 0 1 0 0-4Z"/><path d="M4 11a2 2 0 1 0 0 4 2 2 0 1 0 0-4Z"/></g></g></g></svg>