<svg viewBox="0 0 32 32" xmlns="http://www.w3.org/2000/svg" xmlns:xlink="http://www.w3.org/1999/xlink"><defs><clipPath id="a"><use clip-rule="evenodd" xlink:href="#b"/></clipPath><path id="b" d="M0 0h32v32H0Z"/></defs><use fill="none" fill-rule="evenodd" xlink:href="#b"/><g clip-path="url(#a)"><g fill="#1C447F" fill-rule="evenodd"><path d="M16 0c4.243 0 8.313 1.686 11.314 4.686C30.314 7.687 32 11.757 32 16v2c0 7.732-6.268 14-14 14 -1.325 0-2.675 0-4 0C6.268 32 0 25.732 0 18v-2C0 7.163 7.163 0 16 0Z"/><path fill="#EAD361" d="M30 16c0-3.713-1.475-7.274-4.101-9.899C23.274 3.475 19.713 2 16 2 8.268 2 2 8.268 2 16v2c0 6.627 5.373 12 12 12h4c6.627 0 12-5.373 12-12Z"/><path d="M5.784 14.717c.188.187.442.293.707.293 .265 0 .519-.106.706-.293 .007-.007.011-.01.011-.01 .608-.608 1.432-.95 2.292-.95 .86 0 1.684.342 2.292.95 0 0 .004.003.011.01 .39.39 1.022.39 1.413 0 0 0 0 0 0-.001 .391-.39.391-1.023 0-1.414 -.006-.006-.009-.01-.009-.01 -.983-.983-2.317-1.535-3.707-1.535 -1.39 0-2.724.552-3.707 1.535 0 0-.003.004-.01.011 -.187.187-.293.441-.293.706 0 .265.106.519.293.707Z"/><path d="M26.216 14.717c-.188.187-.442.293-.707.293 -.265 0-.519-.106-.706-.293 -.007-.007-.011-.01-.011-.01 -.608-.608-1.432-.95-2.292-.95 -.86 0-1.684.342-2.292.95 0 0-.004.003-.011.01 -.39.39-1.022.39-1.413 0 0 0 0 0 0-.001 -.391-.39-.391-1.023 0-1.414 .006-.006.009-.01.009-.01 .983-.983 2.317-1.535 3.707-1.535 1.39 0 2.724.552 3.707 1.535 0 0 .003.004.01.011 .187.187.293.441.293.706 0 .265-.106.519-.293.707Z"/><g fill="#ED6B44"><path d="M29 19c0-1.105-.895-2-2-2 -1.222 0-2.778 0-4 0 -1.105 0-2 .895-2 2s.895 2 2 2h4c1.105 0 2-.895 2-2Z"/><path d="M11 19c0-1.105-.895-2-2-2 -1.222 0-2.778 0-4 0 -1.105 0-2 .895-2 2s.895 2 2 2h4c1.105 0 2-.895 2-2Z"/></g><path fill="none" fill-rule="evenodd" stroke="#5E688D" stroke-linecap="round" stroke-miterlimit="1.5" stroke-width="2" d="M10 20s.562.75 1.2 1.6c1.133 1.511 2.911 2.4 4.8 2.4 1.889 0 3.667-.889 4.8-2.4 .638-.85 1.2-1.6 1.2-1.6"/></g></g></svg>