<svg viewBox="0 0 32 32" xmlns="http://www.w3.org/2000/svg" xmlns:xlink="http://www.w3.org/1999/xlink"><defs><clipPath id="a"><use clip-rule="evenodd" xlink:href="#b"/></clipPath><path id="b" d="M0 0h32v32H0Z"/></defs><use fill="none" fill-rule="evenodd" xlink:href="#b"/><g clip-path="url(#a)"><g fill="#1C447F" fill-rule="evenodd"><path d="M16 2c8.837 0 16 7.163 16 16v.502c0 3.58-1.422 7.013-3.953 9.545C25.515 30.578 22.082 32 18.502 32c-1.652 0-3.352 0-5.004 0 -3.58 0-7.013-1.422-9.545-3.953C1.422 25.515 0 22.082 0 18.502c0-.167 0-.334 0-.502C0 9.163 7.163 2 16 2Z"/><path fill="#EAD361" d="M30 18c0-7.732-6.268-14-14-14C8.268 4 2 10.268 2 18v.502c0 3.049 1.211 5.974 3.368 8.13C7.524 28.789 10.449 30 13.498 30h5.004c3.049 0 5.974-1.211 8.13-3.368C28.789 24.476 30 21.551 30 18.502c0-.167 0-.334 0-.502Z"/><path fill="#5E688D" d="M18.221 19.365l-3.592-1.437c-.513-.204-.762-.787-.557-1.299 .204-.513.787-.762 1.299-.557l5 2c.312.124.541.398.609.727 .067.329-.035.67-.273.908L19.414 21l1.293 1.293c.238.238.34.579.273.908 -.068.329-.297.603-.609.727l-5 2c-.512.205-1.095-.044-1.299-.557 -.205-.512.044-1.095.557-1.299l3.592-1.437 -.928-.928c-.383-.402-.383-1.012 0-1.414Z"/><g fill="#ED6B44"><path d="M29 18c0-1.105-.895-2-2-2 -1.222 0-2.778 0-4 0 -1.105 0-2 .895-2 2s.895 2 2 2h4c1.105 0 2-.895 2-2Z"/><path d="M11 18c0-1.105-.895-2-2-2 -1.222 0-2.778 0-4 0 -1.105 0-2 .895-2 2s.895 2 2 2h4c1.105 0 2-.895 2-2Z"/></g></g><g fill="#1C447F"><path d="M24.947 13.106c.494.247.694.847.447 1.341v.001c-.247.494-.847.694-1.34.447 -1.196-.598-3.305-1.652-4.501-2.251 -.494-.247-.694-.847-.447-1.341 0-.001 0-.001 0-.001 .247-.494.847-.694 1.34-.447 1.196.598 3.305 1.652 4.501 2.251Z"/><path d="M12.895 11.304c.247.493.047 1.093-.447 1.34 -1.196.598-3.304 1.652-4.501 2.25 -.494.247-1.094.047-1.341-.447 -.001 0-.001 0-.001-.001 -.247-.493-.047-1.093.447-1.34 1.196-.598 3.304-1.652 4.501-2.25 .494-.247 1.094-.047 1.341.447 .001 0 .001 0 .001.001Z"/></g></g></svg>