<svg viewBox="0 0 32 32" xmlns="http://www.w3.org/2000/svg" xmlns:xlink="http://www.w3.org/1999/xlink"><defs><clipPath id="a"><use clip-rule="evenodd" xlink:href="#b"/></clipPath><path id="b" d="M0 0h32v32H0Z"/></defs><use fill="none" fill-rule="evenodd" xlink:href="#b"/><g clip-path="url(#a)"><path fill="none" fill-rule="evenodd" stroke="#1C447F" stroke-linecap="round" stroke-miterlimit="1.5" stroke-width="4" d="M5.171 28H3c-.552 0-1-.448-1-1 0-3.414 0-14.586 0-18 0-.265.105-.52.293-.707C2.48 8.105 2.735 8 3 8h24.438c.918 0 1.718.625 1.941 1.515 .21.843.452 1.808.561 2.246 .04.159.06.322.06.485V27c0 .552-.448 1-1 1h-2.171c-.412 1.165-1.524 2-2.829 2 -1.305 0-2.417-.835-2.829-2H10.829c-.412 1.165-1.524 2-2.829 2 -1.305 0-2.417-.835-2.829-2Z"/><g fill="#5A89A0" fill-rule="evenodd"><path d="M29.526 10.105l.414 1.656c.04.159.06.322.06.485V22l-.613 1v2L30 26v1c0 .265-.105.52-.293.707 -.187.188-.442.293-.707.293h-1l-1-1h-6l-1 1h-8l-1-1H5l-1 1H3c-.265 0-.52-.105-.707-.293C2.105 27.52 2 27.265 2 27v-1l.522-.5L2 25v-1l1-1 -1-1V10.105L3 9h25Z"/><path fill="#5E688D" d="M2 10.105V9c0-.552.448-1 1-1h24.438c.918 0 1.718.625 1.941 1.515l.147.59H2Z"/><path fill="#F3F3F3" d="M30 22H2v2h27l1-1Z"/><g fill="#FFF"><path d="M13 25h2v1h-2Z"/><path d="M2 25h1v1H2Z"/><path d="M17 25h2v1h-2Z"/></g><path fill="#2C2C2C" d="M30 23h-.001c-.552 0-.999.447-.999.999V25c0 .552.448 1 1 1Z"/><path fill="#FFF" d="M12 26.812c0-1.011-.402-1.981-1.117-2.695C10.168 23.402 9.199 23 8.188 23c-.125 0-.251 0-.376 0 -1.011 0-1.98.402-2.695 1.117C4.402 24.831 4 25.801 4 26.812V28h8Z"/><g fill="#B2D3DE"><path d="M8 24a3 3 0 1 0 0 6 3 3 0 1 0 0-6Z"/><path d="M8 25.5a1.5 1.5 0 1 0 0 3 1.5 1.5 0 1 0 0-3Z"/></g><path fill="#FFF" d="M28 26.812c0-1.011-.402-1.981-1.117-2.695 -.715-.715-1.684-1.117-2.695-1.117 -.125 0-.251 0-.376 0 -1.011 0-1.98.402-2.695 1.117 -.715.714-1.117 1.684-1.117 2.695V28h8Z"/><g fill="#B2D3DE"><path d="M24 24a3 3 0 1 0 0 6 3 3 0 1 0 0-6Z"/><path d="M24 25.5a1.5 1.5 0 1 0 0 3 1.5 1.5 0 1 0 0-3Z"/></g><g fill="#1C447F"><path d="M26 13c0-.265-.105-.52-.293-.707C25.52 12.105 25.265 12 25 12c-1.459 0-4 0-4 0l-1 1 -1-1h-9l-1 1 -1-1H4c-.265 0-.52.105-.707.293C3.105 12.48 3 12.735 3 13v7c0 .265.105.52.293.707 .187.188.442.293.707.293h4l1-1 1 1h9l1-1 1 1h4c.265 0 .52-.105.707-.293 .188-.187.293-.442.293-.707 0-1.732 0-5.268 0-7Z"/><path d="M31 12h-3c-.552 0-1 .448-1 1v7c0 .552.448 1 1 1h3Z"/></g><g fill="#FFF"><path d="M8 12h2v9H8Z"/><path d="M19 12h2v9h-2Z"/></g></g></g></svg>