<svg viewBox="0 0 32 32" xmlns="http://www.w3.org/2000/svg" xmlns:xlink="http://www.w3.org/1999/xlink"><defs><clipPath id="a"><use clip-rule="evenodd" xlink:href="#b"/></clipPath><path id="b" d="M0 0h32v32H0Z"/></defs><use fill="none" fill-rule="evenodd" xlink:href="#b"/><g clip-path="url(#a)"><g fill="#1C447F" fill-rule="evenodd"><path d="M32 5c0-1.105-.895-2-2-2C24.254 3 7.746 3 2 3 .895 3 0 3.895 0 5v25c0 1.105.895 2 2 2h28c1.105 0 2-.895 2-2 0-5.306 0-19.694 0-25Z"/><path d="M22.149.003l.147.011 .147.018 .145.026 .143.032 .142.039 .139.046 .136.053 .134.059 .131.066 .128.072 .124.079 .12.084 .117.091 .112.097 .108.102 .102.108 .097.112 .091.117 .084.12 .079.125 .072.127 .066.131 .059.134 .053.136 .046.139 .039.142 .032.143 .026.145 .018.147 .011.147 .003.124v4.05l-.003.124 -.011.147 -.018.147 -.026.145 -.032.143 -.039.142 -.046.139 -.053.136 -.059.134 -.066.131 -.072.128 -.078.124 -.085.12 -.091.117 -.097.112 -.102.108 -.108.102 -.112.097 -.117.091 -.12.084 -.124.079 -.128.072 -.131.066 -.134.059 -.136.053 -.139.046 -.142.039 -.143.032 -.145.026 -.147.018 -.147.011 -.149.004 -.149-.004 -.147-.011 -.147-.018 -.145-.026 -.143-.032 -.142-.039 -.139-.046 -.136-.053 -.134-.059 -.131-.066 -.128-.072 -.124-.079 -.12-.084 -.117-.091 -.112-.097 -.108-.102 -.102-.108 -.097-.112 -.091-.117 -.084-.12 -.079-.124 -.072-.128 -.066-.131 -.059-.134 -.053-.136 -.046-.139 -.039-.142 -.032-.143 -.026-.145 -.018-.147 -.011-.147L19 7.025v-4.05l.003-.124 .011-.147 .018-.147 .026-.145 .032-.143 .039-.142 .046-.139 .053-.136 .059-.134 .066-.131 .072-.127 .078-.125 .085-.12 .091-.117 .097-.112 .102-.108 .108-.102 .112-.097 .117-.091 .12-.084 .124-.079 .128-.072 .131-.066 .134-.059 .136-.053 .139-.046 .142-.039 .143-.032 .145-.026 .147-.018 .147-.011L22-.001l.149.004Z"/><path d="M26.149.003l.147.011 .147.018 .145.026 .143.032 .142.039 .139.046 .136.053 .134.059 .131.066 .127.072 .125.079 .12.084 .117.091 .112.097 .108.102 .102.108 .097.112 .091.117 .084.12 .079.124 .072.128 .066.131 .059.134 .053.136 .046.139 .039.142 .032.143 .026.145 .018.147 .011.147 .003.124v4.05l-.003.124 -.011.147 -.018.147 -.026.145 -.032.143 -.039.142 -.046.139 -.053.136 -.059.134 -.066.131 -.072.128 -.079.124 -.084.12 -.091.117 -.097.112 -.102.108 -.108.102 -.112.097 -.117.091 -.12.084 -.125.079 -.127.072 -.131.066 -.134.059 -.136.053 -.139.046 -.142.039 -.143.032 -.145.026 -.147.018 -.147.011 -.149.004 -.149-.004 -.147-.011 -.147-.018 -.145-.026 -.143-.032 -.142-.039 -.139-.046 -.136-.053 -.134-.059 -.131-.066 -.128-.072 -.124-.079 -.12-.084 -.117-.091 -.112-.097 -.108-.102 -.102-.108 -.097-.112 -.091-.117 -.084-.12 -.079-.124 -.072-.128 -.066-.131 -.059-.134 -.053-.136 -.046-.139 -.039-.142 -.032-.143 -.026-.145 -.018-.147 -.011-.147L23 7.025v-4.05l.003-.124 .011-.147 .018-.147 .026-.145 .032-.143 .039-.142 .046-.139 .053-.136 .059-.134 .066-.131 .072-.127 .079-.125 .084-.12 .091-.117 .097-.112 .102-.108 .108-.102 .112-.097 .117-.091 .12-.084 .124-.079 .128-.072 .131-.066 .134-.059 .136-.053 .139-.046 .142-.039 .143-.032 .145-.026 .147-.018 .147-.011L26-.001l.149.004Z"/><path d="M18.149.003l.147.011 .147.018 .145.026 .143.032 .142.039 .139.046 .136.053 .134.059 .131.066 .128.072 .124.079 .12.084 .117.091 .112.097 .108.102 .102.108 .097.112 .091.117 .084.12 .079.125 .072.127 .066.131 .059.134 .053.136 .046.139 .039.142 .032.143 .026.145 .018.147 .011.147 .003.124v4.05l-.003.124 -.011.147 -.018.147 -.026.145 -.032.143 -.039.142 -.046.139 -.053.136 -.059.134 -.066.131 -.072.128 -.079.124 -.084.12 -.091.117 -.097.112 -.102.108 -.108.102 -.112.097 -.117.091 -.12.084 -.124.079 -.128.072 -.131.066 -.134.059 -.136.053 -.139.046 -.142.039 -.143.032 -.145.026 -.147.018 -.147.011 -.149.004 -.149-.004 -.147-.011 -.147-.018 -.145-.026 -.143-.032 -.142-.039 -.139-.046 -.136-.053 -.134-.059 -.131-.066 -.127-.072 -.125-.079 -.12-.084 -.117-.091 -.112-.097 -.108-.102 -.102-.108 -.097-.112 -.091-.117 -.084-.12 -.079-.124 -.072-.128 -.066-.131 -.059-.134 -.053-.136 -.046-.139 -.039-.142 -.032-.143 -.026-.145 -.018-.147 -.011-.147L15 7.025v-4.05l.003-.124 .011-.147 .018-.147 .026-.145 .032-.143 .039-.142 .046-.139 .053-.136 .059-.134 .066-.131 .072-.128 .079-.124 .084-.12 .091-.117 .097-.112 .102-.108 .108-.102 .112-.097 .117-.091 .12-.084 .125-.079 .127-.072 .131-.066 .134-.059 .136-.053 .139-.046 .142-.039 .143-.032 .145-.026 .147-.018 .147-.011L18-.001l.149.004Z"/><path d="M14.149.003l.147.011 .147.018 .145.026 .143.032 .142.039 .139.046 .136.053 .134.059 .131.066 .127.072 .125.079 .12.084 .117.091 .112.097 .108.102 .102.108 .097.112 .091.117 .084.12 .079.124 .072.128 .066.131 .059.134 .053.136 .046.139 .039.142 .032.143 .026.145 .018.147 .011.147 .003.124v4.05l-.003.124 -.011.147 -.018.147 -.026.145 -.032.143 -.039.142 -.046.139 -.053.136 -.059.134 -.066.131 -.072.128 -.079.124 -.084.12 -.091.117 -.097.112 -.102.108 -.108.102 -.112.097 -.117.091 -.12.084 -.125.079 -.127.072 -.131.066 -.134.059 -.136.053 -.139.046 -.142.039 -.143.032 -.145.026 -.147.018 -.147.011 -.149.004 -.149-.004 -.147-.011 -.147-.018 -.145-.026 -.143-.032 -.142-.039 -.139-.046 -.136-.053 -.134-.059 -.131-.066 -.128-.072 -.124-.079 -.12-.084 -.117-.091 -.112-.097 -.108-.102 -.102-.108 -.097-.112 -.091-.117 -.084-.12 -.079-.124 -.072-.128 -.066-.131 -.059-.134 -.053-.136 -.046-.139 -.039-.142 -.032-.143 -.026-.145 -.018-.147 -.011-.147L11 7.025v-4.05l.003-.124 .011-.147 .018-.147 .026-.145 .032-.143 .039-.142 .046-.139 .053-.136 .059-.134 .066-.131 .072-.127 .079-.125 .084-.12 .091-.117 .097-.112 .102-.108 .108-.102 .112-.097 .117-.091 .12-.084 .124-.079 .128-.072 .131-.066 .134-.059 .136-.053 .139-.046 .142-.039 .143-.032 .145-.026 .147-.018 .147-.011L14-.001l.149.004Z"/><path d="M10.149.003l.147.011 .147.018 .145.026 .143.032 .142.039 .139.046 .136.053 .134.059 .131.066 .128.072 .124.079 .12.084 .117.091 .112.097 .108.102 .102.108 .097.112 .091.117 .084.12 .079.125 .072.127 .066.131 .059.134 .053.136 .046.139 .039.142 .032.143 .026.145 .018.147 .011.147 .003.124v4.05l-.003.124 -.011.147 -.018.147 -.026.145 -.032.143 -.039.142 -.046.139 -.053.136 -.059.134 -.066.131 -.072.128 -.078.124 -.085.12 -.091.117 -.097.112 -.102.108 -.108.102 -.112.097 -.117.091 -.12.084 -.124.079 -.128.072 -.131.066 -.134.059 -.136.053 -.139.046 -.142.039 -.143.032 -.145.026 -.147.018 -.147.011 -.149.004 -.149-.004 -.147-.011 -.147-.018 -.145-.026 -.143-.032 -.142-.039 -.139-.046 -.136-.053 -.134-.059 -.131-.066 -.128-.072 -.124-.079 -.12-.084 -.117-.091 -.112-.097 -.108-.102 -.102-.108 -.097-.112 -.091-.117 -.084-.12 -.079-.124 -.072-.128 -.066-.131 -.059-.134 -.053-.136 -.046-.139 -.039-.142 -.032-.143 -.026-.145 -.018-.147 -.011-.147L7 7.025v-4.05l.003-.124 .011-.147 .018-.147 .026-.145 .032-.143 .039-.142 .046-.139 .053-.136 .059-.134 .066-.131 .072-.127 .078-.125 .085-.12 .091-.117 .097-.112 .102-.108 .108-.102 .112-.097 .117-.091 .12-.084 .124-.079 .128-.072 .131-.066 .134-.059 .136-.053 .139-.046L9.269.09l.143-.032 .145-.026 .147-.018 .147-.011L10-.001l.149.004Z"/><path d="M6.149.003l.147.011 .147.018 .145.026 .143.032 .142.039 .139.046 .136.053 .134.059 .131.066 .128.072 .124.079 .12.084 .117.091 .112.097 .108.102 .102.108 .097.112 .091.117 .084.12 .079.125 .072.127 .066.131 .059.134 .053.136 .046.139 .039.142 .032.143 .026.145 .018.147 .011.147L9 2.975v4.05l-.003.124 -.011.147 -.018.147 -.026.145 -.032.143 -.039.142 -.046.139 -.053.136 -.059.134 -.066.131 -.072.128 -.079.124 -.084.12 -.091.117 -.097.112 -.102.108 -.108.102 -.112.097 -.117.091 -.12.084 -.124.079 -.128.072 -.131.066 -.134.059 -.136.053 -.139.046 -.142.039 -.143.032 -.145.026 -.147.018 -.147.011 -.149.004 -.149-.004 -.147-.011 -.147-.018 -.145-.026 -.143-.032 -.142-.039 -.139-.046 -.136-.053 -.134-.059 -.131-.066 -.127-.072 -.125-.079 -.12-.084 -.117-.091 -.112-.097 -.108-.102 -.102-.108 -.097-.112 -.091-.117 -.084-.12 -.079-.124 -.072-.128 -.066-.131 -.059-.134 -.053-.136 -.046-.139 -.039-.142 -.032-.143 -.026-.145 -.018-.147 -.011-.147L3 7.025v-4.05l.003-.124 .011-.147 .018-.147 .026-.145 .032-.143 .039-.142 .046-.139 .053-.136 .059-.134 .066-.131 .072-.128 .079-.124 .084-.12 .091-.117 .097-.112 .102-.108 .108-.102 .112-.097 .117-.091 .12-.084L4.46.425l.127-.072 .131-.066 .134-.059 .136-.053 .139-.046L5.269.09l.143-.032 .145-.026 .147-.018 .147-.011L6-.001l.149.004Z"/><path fill="#B2D3DE" d="M2 5h28v25H2Z"/><g fill="#FFF"><path d="M4 10h4v4H4Z"/><path d="M9 10h4v4H9Z"/><path d="M14 10h4v4h-4Z"/><path d="M19 10h4v4h-4Z"/><path d="M24 10h4v4h-4Z"/><path d="M4 15h4v4H4Z"/><path d="M9 15h4v4H9Z"/><path d="M14 15h4v4h-4Z"/><path d="M19 15h4v4h-4Z"/><path d="M24 15h4v4h-4Z"/><path d="M4 20h4v4H4Z"/><path d="M9 20h4v4H9Z"/><path d="M14 20h4v4h-4Z"/><path d="M2 26h28v4H2Z"/></g><path d="M7 3c0-.265-.105-.52-.293-.707C6.52 2.105 6.265 2 6 2c-.265 0-.52.105-.707.293C5.105 2.48 5 2.735 5 3v4c0 .265.105.52.293.707C5.48 7.895 5.735 8 6 8c.265 0 .52-.105.707-.293C6.895 7.52 7 7.265 7 7c0-1.11 0-2.89 0-4Z"/><path d="M11 3c0-.265-.105-.52-.293-.707C10.52 2.105 10.265 2 10 2c-.265 0-.52.105-.707.293C9.105 2.48 9 2.735 9 3v4c0 .265.105.52.293.707C9.48 7.895 9.735 8 10 8c.265 0 .52-.105.707-.293C10.895 7.52 11 7.265 11 7c0-1.11 0-2.89 0-4Z"/><path d="M19 3c0-.265-.105-.52-.293-.707C18.52 2.105 18.265 2 18 2c-.265 0-.52.105-.707.293C17.105 2.48 17 2.735 17 3v4c0 .265.105.52.293.707 .187.188.442.293.707.293 .265 0 .52-.105.707-.293C18.895 7.52 19 7.265 19 7c0-1.11 0-2.89 0-4Z"/><path d="M15 3c0-.265-.105-.52-.293-.707C14.52 2.105 14.265 2 14 2c-.265 0-.52.105-.707.293C13.105 2.48 13 2.735 13 3v4c0 .265.105.52.293.707 .187.188.442.293.707.293 .265 0 .52-.105.707-.293C14.895 7.52 15 7.265 15 7c0-1.11 0-2.89 0-4Z"/><path d="M23 3c0-.265-.105-.52-.293-.707C22.52 2.105 22.265 2 22 2c-.265 0-.52.105-.707.293C21.105 2.48 21 2.735 21 3v4c0 .265.105.52.293.707 .187.188.442.293.707.293 .265 0 .52-.105.707-.293C22.895 7.52 23 7.265 23 7c0-1.11 0-2.89 0-4Z"/><path d="M27 3c0-.265-.105-.52-.293-.707C26.52 2.105 26.265 2 26 2c-.265 0-.52.105-.707.293C25.105 2.48 25 2.735 25 3v4c0 .265.105.52.293.707 .187.188.442.293.707.293 .265 0 .52-.105.707-.293C26.895 7.52 27 7.265 27 7c0-1.11 0-2.89 0-4Z"/></g></g></svg>