<svg viewBox="0 0 32 32" xmlns="http://www.w3.org/2000/svg" xmlns:xlink="http://www.w3.org/1999/xlink"><defs><clipPath id="a"><use clip-rule="evenodd" xlink:href="#c"/></clipPath><clipPath id="b"><path clip-rule="evenodd" d="M26 20c0 4.41828-3.58172 8-8 8s-8-3.58172-8-8 3.58172-8 8-8 8 3.58172 8 8Z"/></clipPath><path id="c" d="M0 0h32v32H0Z"/></defs><use fill="none" fill-rule="evenodd" xlink:href="#c"/><g clip-path="url(#a)"><path fill="none" fill-rule="evenodd" stroke="#1C447F" stroke-linejoin="round" stroke-miterlimit="1.5" stroke-width="4" d="M10 8h.146c1.136 0 2.175-.642 2.683-1.658 .209-.417.427-.854.618-1.236C13.786 4.428 14.479 4 15.236 4h5.528c.757 0 1.45.428 1.789 1.106 .191.382.409.819.618 1.236C23.679 7.358 24.718 8 25.854 8H26c1.061 0 2.078.421 2.828 1.172C29.579 9.922 30 10.939 30 12v15c0 1.657-1.343 3-3 3H5c-.329 0-.671 0-1 0 -.53 0-1.039-.211-1.414-.586C2.211 29.039 2 28.53 2 28c0-3.61 0-11.277 0-16 0-2.209 1.791-4 4-4V6h4Z"/><g fill="#5E688D" fill-rule="evenodd"><path d="M6 6h4v3H6Z"/><path d="M5 30h22c1.657 0 3-1.343 3-3 0-3.887 0-10.677 0-15 0-1.061-.421-2.078-1.172-2.828C28.078 8.421 27.061 8 26 8c-.049 0-.098 0-.146 0 -1.136 0-2.175-.642-2.683-1.658 -.209-.417-.427-.854-.618-1.236C22.214 4.428 21.521 4 20.764 4c-1.503 0-4.025 0-5.528 0 -.757 0-1.45.428-1.789 1.106 -.191.382-.409.819-.618 1.236C12.321 7.358 11.282 8 10.146 8 8.383 8 6 8 6 8L5 24Z"/><path fill="#1C447F" d="M18 10a10 10 0 1 0 0 20 10 10 0 1 0 0-20Z"/><path fill="#5A89A0" d="M18 12a8 8 0 1 0 0 16 8 8 0 1 0 0-16Z"/></g><g clip-path="url(#b)"><g fill="#B2D3DE" fill-rule="evenodd"><path d="M18 14a6 6 0 1 0 0 12 6 6 0 1 0 0-12Z"/><path fill="#5E688D" d="M18 16a4 4 0 1 0 0 8 4 4 0 1 0 0-8Z"/></g></g><path fill="#EFF4F1" fill-opacity=".34" fill-rule="evenodd" d="M18 15a3.316 2 0 1 0 0 4 3.316 2 0 1 0 0-4Z"/><g fill="#B2D3DE" fill-rule="evenodd"><path d="M2 12c0-2.209 1.791-4 4-4h3v2.757c0 .796-.316 1.559-.879 2.122 -.08.08-.162.162-.242.242 -.563.563-.879 1.326-.879 2.122V28c0 1.105-.895 2-2 2 -.329 0-.671 0-1 0 -.53 0-1.039-.211-1.414-.586C2.211 29.039 2 28.53 2 28c0-3.61 0-11.277 0-16Z"/><path fill="#8B8B8B" d="M15 5h6v1h-6Z"/><path fill="#5A89A0" d="M8 10.5c0-.398-.158-.779-.439-1.061C7.279 9.158 6.898 9 6.5 9c-.327 0-.673 0-1 0 -.398 0-.779.158-1.061.439C4.158 9.721 4 10.102 4 10.5c0 .398.158.779.439 1.061 .282.281.663.439 1.061.439h1c.398 0 .779-.158 1.061-.439 .281-.282.439-.663.439-1.061Z"/></g></g></svg>