<svg viewBox="0 0 32 32" xmlns="http://www.w3.org/2000/svg" xmlns:xlink="http://www.w3.org/1999/xlink"><defs><clipPath id="a"><use clip-rule="evenodd" xlink:href="#b"/></clipPath><path id="b" d="M0 0h32v32H0Z"/></defs><use fill="none" fill-rule="evenodd" xlink:href="#b"/><g clip-path="url(#a)"><g fill="#1C447F" fill-rule="evenodd"><path d="M32 7c0-.53-.211-1.039-.586-1.414C31.039 5.211 30.53 5 30 5 24.254 5 7.746 5 2 5c-.53 0-1.039.211-1.414.586C.211 5.961 0 6.47 0 7v19c0 .53.211 1.039.586 1.414C.961 27.789 1.47 28 2 28h28c.53 0 1.039-.211 1.414-.586s.586-.884.586-1.414c0-4.354 0-14.646 0-19Z"/><path fill="#B2D3DE" d="M30 26h-2.764l-1.209-.197L25 26H7l-1-.229L4.764 26H2V7h28Z"/><path fill="#5B8AA0" d="M4.764 26l2.447-4.894c.079-.146.164-.283.272-.409 .268-.312.631-.537 1.03-.637 .161-.04.322-.055.487-.06 4.708 0 9.418-.141 14.123.004 .165.015.324.04.482.09 .392.124.741.371.989.699 .075.099.136.203.195.313L27.236 26H25l-2-4H9l-2 4H4.764Z"/><path fill="#FFF" d="M3 8h26v12H3Z"/><path fill="#5B8AA0" d="M9.5 12h13v5h-13Z"/><path d="M22.5 12a2.5 2.5 0 1 0 0 5 2.5 2.5 0 1 0 0-5Z"/><path d="M9.5 12a2.5 2.5 0 1 0 0 5 2.5 2.5 0 1 0 0-5Z"/><g fill="#5B8AA0"><path d="M11 23a1 1 0 1 0 0 2 1 1 0 1 0 0-2Z"/><path d="M21 23a1 1 0 1 0 0 2 1 1 0 1 0 0-2Z"/></g><path d="M13 13h6v2h-6Z"/></g></g></svg>