<svg viewBox="0 0 32 32" xmlns="http://www.w3.org/2000/svg" xmlns:xlink="http://www.w3.org/1999/xlink"><defs><clipPath id="a"><use clip-rule="evenodd" xlink:href="#b"/></clipPath><path id="b" d="M30 4c0-.53-.211-1.039-.586-1.414C29.039 2.211 28.53 2 28 2H4c-.53 0-1.039.211-1.414.586C2.211 2.961 2 3.47 2 4v24c0 .53.211 1.039.586 1.414C2.961 29.789 3.47 30 4 30h24c.53 0 1.039-.211 1.414-.586s.586-.884.586-1.414Z"/></defs><g fill="none" fill-rule="evenodd"><path d="M0 0h32v32H0Z"/><path fill="#1C447F" d="M32 4c0-2.209-1.791-4-4-4H4C1.791 0 0 1.791 0 4v24c0 2.209 1.791 4 4 4h24c2.209 0 4-1.791 4-4Z"/><use fill="#FFF" xlink:href="#b"/></g><g clip-path="url(#a)"><g fill="#5E688D" fill-rule="evenodd"><path d="M3 14h25v1.5H3Z"/><path d="M3 17h25v1.5H3Z"/><path d="M3 20h25v1.5H3Z"/><path d="M3 23h25v1.5H3Z"/><path fill="none" fill-rule="evenodd" stroke="#B2D3DE" stroke-miterlimit="1.5" stroke-width="2" d="M3 2v27h27"/></g></g><g fill="#B2D3DE" fill-rule="evenodd"><path d="M12 7c0-1.657-1.343-3-3-3C7.343 4 6 5.343 6 7c0 1.657 1.343 3 3 3s3-1.343 3-3Z"/><path fill="none" fill-rule="evenodd" stroke="#B2D3DE" stroke-miterlimit="2" stroke-width="2" d="M9 22l3 3 5-10 4 4 5.5-11"/></g></svg>