<svg viewBox="0 0 32 32" xmlns="http://www.w3.org/2000/svg"><g fill="none" fill-rule="evenodd"><path d="M0 0h32v32H0Z"/><path fill="none" fill-rule="evenodd" stroke="#1C447F" stroke-linejoin="round" stroke-miterlimit="1.41421" stroke-width="4" d="M8 2.757l8 8 8-8L28.243 7v2l-7 7 7 7v2L24 29.243l-8-8 -8 8L3.757 25v-2l7-7 -7-7V7Z"/></g><path fill="#5A89A0" d="M8 4.757l8 8 8-8L28.243 7v2l-8 8 4.242 4.243L28.243 23v2L24 29.243l-8-8 -8 8L3.757 25v-2l3.758-1.757L11.757 17l-8-8V7Z"/><path fill="#FFF" d="M16 10.757l8-8L28.243 7l-8 8 8 8L24 27.243l-8-8 -8 8L3.757 23l8-8 -8-8L8 2.757Z"/></svg>