<svg viewBox="0 0 32 32" xmlns="http://www.w3.org/2000/svg" xmlns:xlink="http://www.w3.org/1999/xlink"><defs><clipPath id="a"><use clip-rule="evenodd" xlink:href="#b"/></clipPath><path id="b" d="M0 0h32v32H0Z"/></defs><use fill="none" fill-rule="evenodd" xlink:href="#b"/><g clip-path="url(#a)"><path fill="none" fill-rule="evenodd" stroke="#1C447F" stroke-linecap="round" stroke-linejoin="round" stroke-miterlimit="1.5" stroke-width="4" d="M12 25H3c-.552 0-1-.448-1-1C2 20.459 2 8.541 2 5c0-.552.448-1 1-1h26c.552 0 1 .448 1 1v19c0 .552-.448 1-1 1h-9v2s.889 1.334 1.482 2.223c.102.153.112.35.025.513 -.087.163-.257.264-.441.264 -2.239 0-7.893 0-10.132 0 -.184 0-.354-.101-.441-.264 -.087-.163-.077-.36.025-.513C11.111 28.334 12 27 12 27Z"/><g fill="#5A89A0" fill-rule="evenodd"><path d="M20 24h-8v3l1 1h6l1-1Z"/><g fill="#FFF"><path d="M20 27h-8s-.889 1.334-1.482 2.223c-.102.153-.112.35-.025.513 .087.163.257.264.441.264h10.132c.184 0 .354-.101.441-.264 .087-.163.077-.36-.025-.513C20.889 28.334 20 27 20 27Z"/><path d="M30 5c0-.552-.448-1-1-1C24.645 4 7.355 4 3 4c-.552 0-1 .448-1 1v19c0 .552.448 1 1 1h26c.552 0 1-.448 1-1 0-3.541 0-15.459 0-19Z"/></g><path fill="#B2D3DE" d="M3 5h26v16H3Z"/><g fill="#5E688D"><path d="M24 7c0-.552-.448-1-1-1s-1 .448-1 1 .448 1 1 1 1-.448 1-1Z"/><path d="M24 10c0-.552-.448-1-1-1s-1 .448-1 1 .448 1 1 1 1-.448 1-1Z"/><path d="M24 13c0-.552-.448-1-1-1s-1 .448-1 1 .448 1 1 1 1-.448 1-1Z"/><path d="M28 7.5c0-.133-.053-.26-.146-.354C27.76 7.053 27.633 7 27.5 7c-.555 0-1.445 0-2 0 -.133 0-.26.053-.354.146 -.093.094-.146.221-.146.354 0 .133.053.26.146.354 .094.093.221.146.354.146h2c.133 0 .26-.053.354-.146 .093-.094.146-.221.146-.354Z"/><path d="M28 10.5c0-.133-.053-.26-.146-.354 -.094-.093-.221-.146-.354-.146 -.555 0-1.445 0-2 0 -.133 0-.26.053-.354.146 -.093.094-.146.221-.146.354 0 .133.053.26.146.354 .094.093.221.146.354.146h2c.133 0 .26-.053.354-.146 .093-.094.146-.221.146-.354Z"/><path d="M28 13.5c0-.133-.053-.26-.146-.354 -.094-.093-.221-.146-.354-.146 -.555 0-1.445 0-2 0 -.133 0-.26.053-.354.146 -.093.094-.146.221-.146.354 0 .133.053.26.146.354 .094.093.221.146.354.146h2c.133 0 .26-.053.354-.146 .093-.094.146-.221.146-.354Z"/></g></g></g></svg>