<svg viewBox="0 0 32 32" xmlns="http://www.w3.org/2000/svg" xmlns:xlink="http://www.w3.org/1999/xlink"><defs><clipPath id="a"><use clip-rule="evenodd" xlink:href="#b"/></clipPath><path id="b" d="M0 0h32v32H0Z"/></defs><use fill="none" fill-rule="evenodd" xlink:href="#b"/><g clip-path="url(#a)"><g fill="#1C447F" fill-rule="evenodd"><path d="M16.099 0c4.208.026 8.238 1.709 11.215 4.686 .997.998 1.849 2.113 2.542 3.314H30c1.105 0 2 .895 2 2v3c0 .275-.055.536-.156.774 .103.733.156 1.477.156 2.226v2c0 7.732-6.268 14-14 14h-4C6.268 32 0 25.732 0 18v-2c0-.756.052-1.501.154-2.229C.055 13.534 0 13.273 0 13v-3c0-1.105.895-2 2-2h.141C4.907 3.218 10.078 0 16 0Z"/><path fill="#EAD361" d="M30 16c0-3.713-1.475-7.274-4.101-9.899C23.274 3.475 19.713 2 16 2 8.268 2 2 8.268 2 16v2c0 6.627 5.373 12 12 12h4c6.627 0 12-5.373 12-12Z"/><path fill="#EF5353" d="M16.763 15.763c-.422-.422-1.104-.422-1.526 0l-2.358 2.358c-.563.563-1.326.879-2.122.879H7c-1.061 0-2.078-.421-2.828-1.172C3.421 17.078 3 16.061 3 15v-2H2v-3h28v3h-1v2c0 1.061-.421 2.078-1.172 2.828C27.078 18.579 26.061 19 25 19h-3.757c-.186-.001-.37-.017-.552-.051 -.361-.068-.708-.202-1.02-.394 -.2-.122-.384-.269-.55-.434Z"/><g fill="#FFA32B"><path d="M13 11.5c.398 0 .779.158 1.061.439 .281.282.439.663.439 1.061v.757c0 .398-.158.78-.439 1.061 -.666.666-1.577 1.577-2.243 2.243 -.281.281-.663.439-1.061.439H7c-.289-.007-.57-.049-.843-.146 -.23-.083-.448-.199-.644-.345C4.215 16.049 4.499 14.43 4.5 13c.001-.832.683-1.48 1.5-1.5Zm13 0c.398 0 .779.158 1.061.439 .281.282.439.663.439 1.061v2c0 .663-.263 1.299-.732 1.768 -.469.469-1.105.732-1.768.732h-3.757c-.398 0-.78-.158-1.061-.439 -.666-.666-1.577-1.577-2.243-2.243 -.281-.281-.439-.663-.439-1.061 0-.236 0-.493 0-.757 0-.398.158-.779.439-1.061 .282-.281.663-.439 1.061-.439Z"/><path d="M10.5 11.5s3.864.831 3.935 1.065c.043.14.065.286.065.435v.757c0 .398-.158.78-.439 1.061 -.666.666-1.577 1.577-2.243 2.243 -.281.281-.663.439-1.061.439H9.5s-4.184-.648-4.268-.732c-.974-.976-.733-2.452-.732-3.768 .001-.832.683-1.48 1.5-1.5Zm13 0s3.864.831 3.935 1.065c.043.14.065.286.065.435v2c0 .663-.263 1.299-.732 1.768 -.469.469-1.105.732-1.768.732h-2.5s-3.045-1.166-3.439-1.561c-.395-.394-.789-.788-1.122-1.121 -.281-.281-.439-.663-.439-1.061 0-.236 0-.493 0-.757 0-.398.158-.779.439-1.061 .282-.281.663-.439 1.061-.439Z"/></g><path fill="#E4782E" d="M13 11.5c.398 0 .779.158 1.061.439 .176.176.303.392.374.626L9.5 17.5H7c-.223-.006-.446-.032-.663-.09 -.415-.112-.794-.337-1.1-.637l-.005-.005L10.5 11.5Zm13 0c.398 0 .779.158 1.061.439 .176.176.303.392.374.626L22.5 17.5h-1.257c-.283-.002-.562-.081-.802-.232 -.094-.059-.18-.129-.259-.207l-1.121-1.122L23.5 11.5Z"/><path fill="none" fill-rule="evenodd" stroke="#5E688D" stroke-linecap="round" stroke-miterlimit="1.5" stroke-width="2" d="M10 22s.385.385.879.879C12.237 24.237 14.079 25 16 25c1.921 0 3.763-.763 5.121-2.121C21.615 22.385 22 22 22 22"/></g></g></svg>