<svg viewBox="0 0 32 32" xmlns="http://www.w3.org/2000/svg"><g fill="none" fill-rule="evenodd"><path d="M0 0h32v32H0Z"/><g fill="#1C447F"><path d="M28 6c0-.53-.211-1.039-.586-1.414C27.039 4.211 26.53 4 26 4 21.48 4 10.52 4 6 4c-.53 0-1.039.211-1.414.586C4.211 4.961 4 5.47 4 6v24c0 .53.211 1.039.586 1.414C4.961 31.789 5.47 32 6 32h20c.53 0 1.039-.211 1.414-.586s.586-.884.586-1.414c0-5.154 0-18.846 0-24Z"/><path d="M11.149.003l.148.011 .146.018 .145.026 .143.032 .142.039 .139.046 .136.053 .134.059 .131.066 .128.072 .124.079 .12.084 .117.091 .112.097 .108.102 .102.108 .097.112 .091.117 .084.12 .079.124 .072.128 .066.131 .059.134 .053.136 .046.139 .039.142 .032.143 .026.145 .018.147 .011.147 .003.124v5.05l-.003.124 -.011.147 -.018.147 -.026.145 -.032.143 -.039.142 -.046.139 -.053.136 -.059.134 -.066.131 -.072.128 -.079.124 -.084.12 -.091.117 -.097.112 -.102.108 -.108.102 -.112.097 -.117.091 -.12.084 -.124.079 -.128.072 -.131.066 -.134.059 -.136.053 -.139.046 -.142.039 -.143.032 -.145.026 -.147.018 -.147.011 -.149.004 -.149-.004 -.147-.011 -.147-.018 -.145-.026 -.143-.032 -.142-.039 -.139-.046 -.136-.053 -.134-.059 -.131-.066 -.128-.072 -.124-.079 -.12-.084 -.117-.091 -.112-.097 -.108-.102 -.102-.108 -.097-.112 -.091-.117 -.084-.12 -.079-.124 -.072-.128 -.066-.131 -.059-.134 -.053-.136 -.046-.139 -.039-.142 -.032-.143 -.026-.145 -.018-.147 -.011-.147L8 8.025v-5.05l.003-.124 .011-.147 .018-.147 .026-.145 .032-.143 .039-.142 .046-.139 .053-.136 .059-.134 .066-.131 .072-.128 .079-.124 .084-.12 .091-.117 .097-.112 .102-.108 .108-.102 .112-.097 .117-.091 .12-.084 .124-.079 .128-.072 .131-.066 .134-.059 .136-.053 .139-.046 .142-.039 .143-.032 .145-.026 .146-.018 .148-.011L10.975 0h.05l.124.003Z"/><path d="M21.149.003l.148.011 .146.018 .145.026 .143.032 .142.039 .139.046 .136.053 .134.059 .131.066 .128.072 .124.079 .12.084 .117.091 .112.097 .108.102 .102.108 .097.112 .091.117 .084.12 .079.124 .072.128 .066.131 .059.134 .053.136 .046.139 .039.142 .032.143 .026.145 .018.147 .011.147 .003.124v5.05l-.003.124 -.011.147 -.018.147 -.026.145 -.032.143 -.039.142 -.046.139 -.053.136 -.059.134 -.066.131 -.072.128 -.079.124 -.084.12 -.091.117 -.097.112 -.102.108 -.108.102 -.112.097 -.117.091 -.12.084 -.124.079 -.128.072 -.131.066 -.134.059 -.136.053 -.139.046 -.142.039 -.143.032 -.145.026 -.147.018 -.147.011 -.149.004 -.149-.004 -.147-.011 -.147-.018 -.145-.026 -.143-.032 -.142-.039 -.139-.046 -.136-.053 -.134-.059 -.131-.066 -.128-.072 -.124-.079 -.12-.084 -.117-.091 -.112-.097 -.108-.102 -.102-.108 -.097-.112 -.091-.117 -.084-.12 -.079-.124 -.072-.128 -.066-.131 -.059-.134 -.053-.136 -.046-.139 -.039-.142 -.032-.143 -.026-.145 -.018-.147 -.011-.147L18 8.025v-5.05l.003-.124 .011-.147 .018-.147 .026-.145 .032-.143 .039-.142 .046-.139 .053-.136 .059-.134 .066-.131 .072-.128 .079-.124 .084-.12 .091-.117 .097-.112 .102-.108 .108-.102 .112-.097 .117-.091 .12-.084 .124-.079 .128-.072 .131-.066 .134-.059 .136-.053 .139-.046 .142-.039 .143-.032 .145-.026 .146-.018 .148-.011L21-.001l.149.004Z"/></g><path fill="#5B8AA0" d="M26 23l-1-1H7l-1 1v7h20Z"/><path fill="#FFF" d="M6 6h20v17H6Z"/></g><g fill="#1C447F"><path d="M13.11 21.2c-1.185 0-2.093-.258-2.722-.776 -.63-.518-.945-1.263-.945-2.234v-.176h1.953v.128c0 .416.145.734.433.953 .288.219.704.328 1.249.328 .533 0 .944-.131 1.233-.392 .288-.262.432-.627.432-1.097v-.24c0-.502-.152-.873-.456-1.113 -.305-.24-.766-.36-1.385-.36h-.625v-1.778h.609c.544 0 .958-.117 1.241-.352 .282-.235.424-.571.424-1.009v-.192c0-.416-.134-.739-.4-.969 -.267-.229-.646-.344-1.137-.344 -.502 0-.886.112-1.153.336 -.267.224-.4.545-.4.961v.144H9.539v-.144c0-.993.304-1.753.913-2.282 .608-.528 1.478-.792 2.61-.792 1.11 0 1.98.256 2.61.768 .63.513.944 1.217.944 2.114v.208c0 .512-.13.961-.392 1.345 -.261.384-.643.689-1.145.913 .566.192.996.507 1.289.944 .294.438.441.972.441 1.602v.256c0 1.003-.334 1.796-1.001 2.378 -.667.581-1.567.872-2.698.872Z"/><path d="M20.459 12.169l-2.353 1.361v-2.161l2.353-1.393h2.098v11.048h-2.098Z"/></g><g fill="#FFF" fill-rule="evenodd"><path d="M12 3c0-.265-.105-.52-.293-.707C11.52 2.105 11.265 2 11 2c-.265 0-.52.105-.707.293C10.105 2.48 10 2.735 10 3v5c0 .265.105.52.293.707 .187.188.442.293.707.293 .265 0 .52-.105.707-.293C11.895 8.52 12 8.265 12 8c0-1.331 0-3.669 0-5Z"/><path d="M22 3c0-.265-.105-.52-.293-.707C21.52 2.105 21.265 2 21 2c-.265 0-.52.105-.707.293C20.105 2.48 20 2.735 20 3v5c0 .265.105.52.293.707 .187.188.442.293.707.293 .265 0 .52-.105.707-.293C21.895 8.52 22 8.265 22 8c0-1.331 0-3.669 0-5Z"/></g><g fill="#FFF"><path d="M11.504 28.965c-.63 0-1.122-.175-1.475-.524 -.353-.35-.529-.873-.529-1.568v-.746c0-.695.18-1.218.54-1.568 .36-.349.857-.524 1.493-.524 .625 0 1.117.175 1.475.524 .357.35.536.873.536 1.568v.746c0 .691-.182 1.212-.547 1.564 -.365.352-.862.528-1.493.528Zm.029-.814c.724 0 1.086-.431 1.086-1.292v-.684c0-.897-.362-1.346-1.086-1.346 -.372 0-.649.11-.83.331 -.181.221-.271.56-.271 1.015v.684c0 .437.09.762.271.974 .181.212.458.318.83.318Z"/><path d="M16.325 28.965c-.654 0-1.164-.175-1.528-.524 -.365-.35-.547-.873-.547-1.568v-.746c0-.695.183-1.218.55-1.568 .367-.349.878-.524 1.532-.524 .597 0 1.074.143 1.429.431 .355.288.533.687.533 1.198v.056h-.925v-.028c0-.267-.092-.478-.275-.632 -.184-.154-.438-.231-.762-.231 -.386 0-.674.11-.865.331 -.19.221-.286.56-.286 1.015v.684c0 .437.097.762.29.974 .193.212.482.318.868.318 .324 0 .577-.075.758-.225 .182-.15.272-.356.272-.618v-.035h.918v.035c0 .525-.177.932-.53 1.222 -.353.29-.83.435-1.432.435Z"/><path d="M22.5 24.912h-1.461v3.977h-.924v-3.977h-1.461v-.788H22.5Z"/></g></svg>