<svg viewBox="0 0 32 32" xmlns="http://www.w3.org/2000/svg" xmlns:xlink="http://www.w3.org/1999/xlink"><defs><clipPath id="a"><use clip-rule="evenodd" xlink:href="#b"/></clipPath><path id="b" d="M0 0h32v32H0Z"/></defs><use fill="none" fill-rule="evenodd" xlink:href="#b"/><g clip-path="url(#a)"><path fill="#1C447F" d="M30 0c.53 0 1.039.211 1.414.586C31.789.961 32 1.47 32 2v28c0 .53-.211 1.039-.586 1.414s-.884.586-1.414.586H2c-.53 0-1.039-.211-1.414-.586C.211 31.039 0 30.53 0 30V2C0 1.47.211.961.586.586 .961.211 1.47 0 2 0h28Z"/><g fill="#FFF" fill-rule="evenodd"><path d="M2 2h28v28H2Z"/><g fill="#B2D3DE"><path d="M8 4h1v24H8Z"/><path d="M12 4h1v24h-1Z"/><path d="M16 4h1v24h-1Z"/><path d="M20 4h1v24h-1Z"/><path d="M24 4h1v24h-1Z"/><path d="M28 8V7H4v1Z"/><path d="M28 12v-1H4v1Z"/><path d="M28 16v-1H4v1Z"/><path d="M28 20v-1H4v1Z"/><path d="M28 24v-1H4v1Z"/></g><g fill="#5E688D"><path d="M4 4h1v24H4Z"/><path d="M28 28v-1H4v1Z"/></g></g><path fill="#EF5353" d="M10 12.586l3-3 15.707 15.707 -1.414 1.414L13 12.414l-3 3L4.293 9.707l1.414-1.414Z"/></g></svg>