<svg viewBox="0 0 32 32" xmlns="http://www.w3.org/2000/svg" xmlns:xlink="http://www.w3.org/1999/xlink"><defs><clipPath id="a"><use clip-rule="evenodd" xlink:href="#b"/></clipPath><path id="b" d="M0 0h32v32H0Z"/></defs><use fill="none" fill-rule="evenodd" xlink:href="#b"/><g clip-path="url(#a)"><path fill="none" fill-rule="evenodd" stroke="#1C447F" stroke-linecap="round" stroke-linejoin="round" stroke-miterlimit="1.5" stroke-width="4" d="M17.5 10v3h4c1.459 0 2.858.579 3.889 1.611 .582.582 1.02 1.281 1.292 2.042 .208.414.319.875.319 1.347v2.5c0 1.459-.579 2.858-1.611 3.889C24.358 25.421 22.959 26 21.5 26h-4v4h-3v-4H7v-5h7.5v-3h-4c-1.459 0-2.858-.579-3.889-1.611C5.579 15.358 5 13.959 5 12.5v-1.502c0-.077.002-.153.007-.229C5.002 10.68 5 10.59 5 10.5 5 7.462 7.462 5 10.5 5h4V2h3v3H25v5Zm0 8v3h4c.663 0 1.299-.263 1.768-.732 .223-.223.399-.484.523-.768 -.124-.284-.3-.545-.523-.768 -.469-.469-1.105-.732-1.768-.732Zm-3-8h-4c-.663 0-1.299.263-1.768.732 -.223.223-.399.484-.523.768 .124.284.3.545.523.768 .469.469 1.105.732 1.768.732h4Z"/><g fill="#B2D3DE" fill-rule="evenodd"><path d="M17.5 28v2h-3v-2l.846-1H16ZM25 7v3s-9.774 0-14.5 0c-.663 0-1.299.263-1.768.732C8.263 11.201 8 11.837 8 12.5c0 1.381 1.119 2.5 2.5 2.5H24c.796 0 1.559.316 2.121.879 .563.562.879 1.325.879 2.121v2.5c0 1.459-.579 2.858-1.611 3.889C24.358 25.421 22.959 26 21.5 26H7v-3h14.5c.663 0 1.299-.263 1.768-.732 .469-.469.732-1.105.732-1.768s-.263-1.299-.732-1.768c-.469-.469-1.105-.732-1.768-.732 -2.784 0-7.369 0-11 0 -1.459 0-2.858-.579-3.889-1.611C5.579 15.358 5 13.959 5 12.5v-1.502c0-1.06.421-2.077 1.171-2.827C6.921 7.421 7.938 7 8.998 7Z"/><path fill="#FFF" d="M10.5 5h4V2h3v3H25v3h-7.5v5h4c1.459 0 2.858.579 3.889 1.611C26.421 15.642 27 17.041 27 18.5c0 3.038-2.462 5.5-5.5 5.5h-4v4h-3v-4H7v-3h7.5v-5h-4c-1.459 0-2.858-.579-3.889-1.611C5.579 13.358 5 11.959 5 10.5 5 7.462 7.462 5 10.5 5Zm7 11v5h4c.663 0 1.299-.263 1.768-.732 .469-.469.732-1.105.732-1.768s-.263-1.299-.732-1.768c-.469-.469-1.105-.732-1.768-.732Zm-3-8h-4c-.663 0-1.299.263-1.768.732C8.263 9.201 8 9.837 8 10.5c0 .663.263 1.299.732 1.768 .469.469 1.105.732 1.768.732h4Z"/></g></g></svg>