<svg viewBox="0 0 32 32" xmlns="http://www.w3.org/2000/svg" xmlns:xlink="http://www.w3.org/1999/xlink"><defs><clipPath id="a"><use clip-rule="evenodd" xlink:href="#d"/></clipPath><clipPath id="b"><path clip-rule="evenodd" d="M30 16C30 23.732 23.732 30 16 30 8.26801 30 2 23.732 2 16 2 8.26801 8.26801 2 16 2 23.732 2 30 8.26801 30 16Z"/></clipPath><clipPath id="c"><use clip-rule="evenodd" xlink:href="#e"/></clipPath><path id="d" d="M0 0h32v32H0Z"/><path id="f" d="M19 0a13 13 0 1 0 0 26 13 13 0 1 0 0-26Z"/><path id="e" d="M17.281 7.719c-.186.186-.333.406-.433.647C16.369 9.52 14.923 13 14.923 13s-.442-.479-.714-.774c-.133-.144-.321-.226-.517-.226 -.529 0-1.638 0-2.503 0 -.671 0-1.229.517-1.28 1.186v.002c-.038.488.232.949.676 1.155 .043.02.088.041.133.062 .77.357 1.681.196 2.281-.404C13 14 13 14 13 14v1.5c0 .133.053.26.146.354 .094.093.221.146.354.146 .276 0 .5.224.5.5 0 .133.053.26.146.354 .094.093.221.146.354.146h3.65c.565 0 1.127.068 1.676.202 .67.165 1.616.397 2.315.568 .591.146 1.085.552 1.34 1.105 .054.118.11.239.164.356 .23.498.622.903 1.113 1.148C25.324 20.662 26 21 26 21s-.623 1.247-1.302 2.604c-1.116 2.232-2.745 4.169-4.752 5.652C18.151 30.582 16.231 32 16.231 32L16 29s.567-2.269.847-3.389c.09-.357-.081-.728-.41-.893h-.001c-.941-.47-1.743-1.178-2.327-2.054 -.204-.307-.415-.623-.597-.896 -.323-.485-.404-1.091-.22-1.643C13.587 19.239 14 18 14 18s-1.058-.529-1.635-.817c-.243-.122-.494-.226-.752-.312C10.802 16.601 9 16 9 16l-1-2s-.124-.124-.31-.31C6.608 12.608 6 11.14 6 9.609c0-.037 0-.074 0-.11 0-.96-.381-1.88-1.06-2.559C4.077 6.077 3 5 3 5V1h14v.876C17 2.497 16.497 3 15.876 3h-.595c-.18 0-.353.072-.48.199 -.109.109-.249.249-.381.381 -.097.097-.142.235-.12.371 .022.136.108.253.231.315 .299.149.671.335.965.482 .301.151.664.092.902-.146 .04-.04.08-.08.121-.121 .265-.265.697-.265.962 0C18.073 5.073 19 6 19 6s-1.169 1.169-1.719 1.719Z"/></defs><use fill="none" fill-rule="evenodd" xlink:href="#d"/><g clip-path="url(#a)"><g fill="#1C447F" fill-rule="evenodd"><path d="M16 0a16 16 0 1 0 0 32 16 16 0 1 0 0-32Z"/><path fill="#9DBFCA" d="M16 2a14 14 0 1 0 0 28 14 14 0 1 0 0-28Z"/></g><g clip-path="url(#b)"><g fill="#B2D3DE" fill-rule="evenodd"><use xlink:href="#f"/><use fill="#5A89A0" xlink:href="#e"/></g><g clip-path="url(#c)"><g fill="#65A4C1" fill-rule="evenodd"><use xlink:href="#f"/><g fill="#5E688D"><path d="M7 9.372v.909c0 1.139.184 2.27.544 3.35C7.778 14.335 8 15 8 15l.5.5v-3.001c0-.276.223-.499.499-.499h.002c.276 0 .499.223.499.499v.001c0 .276.224.5.5.5l.5.5h.5v-1.714c0-.298-.143-.578-.385-.752 -.242-.174-.552-.222-.835-.127 -.016.005-.032.01-.047.015 -.154.052-.316.078-.478.078 -.03 0-.061 0-.093 0 -.422 0-.825-.177-1.111-.487C7.609 10.033 7 9.372 7 9.372Z"/><path d="M12 20h.885c.702 0 1.363.33 1.784.892 .433.577 1 1.334 1.467 1.956 .568.758 1.305 1.372 2.152 1.796 .388.194.712.356.712.356s-.613 1.409-1.161 2.667c-.536 1.233-.547 2.631-.031 3.872 .113.272.192.461.192.461h-4v-8Z"/></g></g></g><g fill="#FFF" fill-rule="evenodd"><path d="M19 1s.482 1.929.777 3.108c.131.524.602.892 1.143.892h.001c.286 0 .561-.114.763-.316 .202-.202.316-.477.316-.763V1h-3Z"/><g fill="#5A89A0"><path d="M15.5 14c-.133 0-.26.053-.354.146 -.093.094-.146.221-.146.354 0 .133.053.26.146.354 .094.093.221.146.354.146H17s-.47-.47-.765-.765c-.151-.151-.354-.235-.567-.235 -.054 0-.111 0-.168 0Z"/><path d="M17 15v.563c0 .116.046.227.128.309 .082.082.193.128.309.128h.126c.116 0 .227-.046.309-.128 .082-.082.128-.193.128-.309v-.126c0-.116-.046-.227-.128-.309 -.082-.082-.193-.128-.309-.128Z"/></g></g></g></g></svg>