<svg viewBox="0 0 32 32" xmlns="http://www.w3.org/2000/svg" xmlns:xlink="http://www.w3.org/1999/xlink"><defs><clipPath id="a"><use clip-rule="evenodd" xlink:href="#b"/></clipPath><path id="b" d="M32 32V0H0v32Z"/></defs><use fill="none" fill-rule="evenodd" xlink:href="#b"/><g clip-path="url(#a)"><g fill="#1C447F" fill-rule="evenodd"><path d="M24 32c4.418 0 8-3.582 8-8 0-4.887 0-11.113 0-16 0-4.418-3.582-8-8-8C19.113 0 12.887 0 8 0 3.582 0 0 3.582 0 8v16c0 4.418 3.582 8 8 8Z"/><path fill="#FFF" d="M2 24c0 1.591.632 3.117 1.757 4.243C4.883 29.368 6.409 30 8 30h16c1.591 0 3.117-.632 4.243-1.757C29.368 27.117 30 25.591 30 24c0-4.724 0-11.276 0-16 0-1.591-.632-3.117-1.757-4.243C27.117 2.632 25.591 2 24 2 19.276 2 12.724 2 8 2c-1.591 0-3.117.632-4.243 1.757C2.632 4.883 2 6.409 2 8Z"/><path fill="#B2D3DE" d="M23.5 20c.552 0 1 .448 1 1v1c0 .552-.448 1-1 1 -3.014 0-11.986 0-15 0 -.552 0-1-.448-1-1 0-.322 0-.678 0-1 0-.552.448-1 1-1ZM8.104 15.311c-.275.29-.351.716-.194 1.083 .158.368.52.606.919.606h14.342c.399 0 .761-.238.919-.606 .157-.367.081-.793-.194-1.083 -2.088-2.197-5.649-5.945-7.171-7.548 -.189-.199-.451-.311-.725-.311 -.274 0-.536.112-.725.311 -1.522 1.603-5.083 5.351-7.171 7.548Z"/></g></g></svg>