<svg viewBox="0 0 32 32" xmlns="http://www.w3.org/2000/svg" xmlns:xlink="http://www.w3.org/1999/xlink"><defs><path d="M14.058 19.589c-.121 0-.224-.045-.309-.135 -.084-.09-.127-.2-.127-.328l-.617-16.663c0-.309.146-.463.436-.463h5.154c.291 0 .436.154.436.463l-.617 16.663c0 .128-.042.238-.127.328 -.085.09-.188.135-.309.135Zm1.706 9.372c-.92 0-1.676-.315-2.269-.945 -.592-.63-.889-1.433-.889-2.41 0-.977.297-1.775.889-2.392 .593-.617 1.349-.925 2.269-.925 .92 0 1.676.308 2.269.925 .593.617.889 1.415.889 2.392 0 .951-.296 1.748-.889 2.391s-1.349.964-2.269.964Z" id="b"/><path d="M14.058 20.589c-.121 0-.224-.045-.309-.135 -.084-.09-.127-.2-.127-.328l-.617-16.663c0-.309.146-.463.436-.463h5.154c.291 0 .436.154.436.463l-.617 16.663c0 .128-.042.238-.127.328 -.085.09-.188.135-.309.135Zm1.706 9.372c-.92 0-1.676-.315-2.269-.945 -.592-.63-.889-1.433-.889-2.41 0-.977.297-1.775.889-2.392 .593-.617 1.349-.925 2.269-.925 .92 0 1.676.308 2.269.925 .593.617.889 1.415.889 2.392 0 .951-.296 1.748-.889 2.391s-1.349.964-2.269.964Z" id="a"/></defs><g fill="none" fill-rule="evenodd"><path d="M0 0v32h32V0Z"/><g stroke="#1C447F" fill-rule="evenodd" stroke-miterlimit="1.41421" stroke-width="4" fill="none" stroke-linejoin="round"><use xlink:href="#a"/><use xlink:href="#b"/></g></g><use fill="#B2D3DE" xlink:href="#a"/><use fill="#FFF" xlink:href="#b"/></svg>