<svg viewBox="0 0 32 32" xmlns="http://www.w3.org/2000/svg" xmlns:xlink="http://www.w3.org/1999/xlink"><defs><clipPath id="a"><use clip-rule="evenodd" xlink:href="#b"/></clipPath><path id="b" d="M0 0h32v32H0Z"/></defs><use fill="none" fill-rule="evenodd" xlink:href="#b"/><g clip-path="url(#a)"><g fill="#1C447F" fill-rule="evenodd"><path d="M32 8c0-4.418-3.582-8-8-8C19.113 0 12.887 0 8 0 3.582 0 0 3.582 0 8v16c0 4.418 3.582 8 8 8h16c4.418 0 8-3.582 8-8 0-4.887 0-11.113 0-16Z"/><path fill="#FFF" d="M24 30c1.591 0 3.117-.632 4.243-1.757C29.368 27.117 30 25.591 30 24c0-4.724 0-11.276 0-16 0-1.591-.632-3.117-1.757-4.243C27.117 2.632 25.591 2 24 2 19.276 2 12.724 2 8 2c-1.591 0-3.117.632-4.243 1.757C2.632 4.883 2 6.409 2 8v16c0 1.591.632 3.117 1.757 4.243C4.883 29.368 6.409 30 8 30Z"/><path fill="#B2D3DE" d="M16 14.727s0-2.228 0-3.905c0-.365.199-.701.519-.877 .32-.176.71-.163 1.018.033 2.168 1.38 6.09 3.875 8.137 5.178 .289.184.463.502.463.844 0 .342-.174.66-.463.844 -2.047 1.303-5.969 3.798-8.137 5.178 -.308.196-.698.209-1.018.033 -.32-.176-.519-.512-.519-.877 0-1.677 0-3.905 0-3.905s-4.893 3.113-7.463 4.749c-.308.196-.698.209-1.018.033 -.32-.176-.519-.512-.519-.877 0-2.684 0-7.672 0-10.356 0-.365.199-.701.519-.877 .32-.176.71-.163 1.018.033C11.107 11.614 16 14.727 16 14.727Z"/></g></g></svg>