<svg viewBox="0 0 32 32" xmlns="http://www.w3.org/2000/svg" xmlns:xlink="http://www.w3.org/1999/xlink"><defs><clipPath id="a"><use clip-rule="evenodd" xlink:href="#b"/></clipPath><path id="b" d="M0 0h32v32H0Z"/></defs><use fill="none" fill-rule="evenodd" xlink:href="#b"/><g fill="#Ef5353"><path fill="none" fill-rule="evenodd" stroke="#Ef5353" stroke-linecap="round" stroke-width="4" d="M16 30C9.373 30 4 24.627 4 18c0-3.785 0-7 0-7h2.278c1.27 0 2.521.176 3.722.514v-.516C10 6.029 14.028 2 18.998 2H19v4.63c1.28-.414 2.628-.63 3.998-.63H23v10.091C24.554 15.379 26.256 15 27.998 15H28v3c0 6.627-5.373 12-12 12ZM30 7v1.413c0 1.216-.483 2.383-1.344 3.243 -.86.861-2.027 1.344-3.243 1.344 -.257 0-.413 0-.413 0s0-.596 0-1.413c0-1.216.483-2.383 1.344-3.243C27.204 7.483 28.371 7 29.587 7ZM8 9H6.587c-1.216 0-2.383-.483-3.243-1.344C2.483 6.796 2 5.629 2 4.413 2 3.092 2 2 2 2h1.413c1.216 0 2.383.483 3.243 1.344C7.517 4.204 8 5.371 8 6.587Z"/><g fill="#E4782E" fill-rule="evenodd"><path d="M30 7s-.156 0-.413 0c-1.216 0-2.383.483-3.243 1.344 -.861.86-1.344 2.027-1.344 3.243V13h.413c1.216 0 2.383-.483 3.243-1.344C29.517 10.796 30 9.629 30 8.413 30 7.596 30 7 30 7Z"/><path d="M2 2h1.413c1.216 0 2.383.483 3.243 1.344C7.517 4.204 8 5.371 8 6.587V9s-.596 0-1.413 0c-1.216 0-2.383-.483-3.243-1.344C2.483 6.796 2 5.629 2 4.413 2 3.092 2 2 2 2Z"/><path d="M16 30C9.373 30 4 24.627 4 18c0-3.785 0-7 0-7h2.278c1.27 0 2.521.176 3.722.514v-.516C10 6.029 14.028 2 18.998 2H19v4.63c1.28-.414 2.628-.63 3.998-.63H23v10.091C24.554 15.379 26.256 15 27.998 15H28v3c0 6.627-5.373 12-12 12Z"/><path fill="#E4782E" d="M17.998 6H18v6.937c1.231-.611 2.598-.937 3.998-.937H22v6c0 .433-.031.859-.09 1.276 .666-.18 1.367-.276 2.09-.276h2c0 5.523-4.477 10-10 10s-10-4.477-10-10c0-2.754 0-5 0-5h1c1.411 0 2.76.266 4 .75v-1.752C11 9.133 14.133 6 17.998 6Z"/><path fill="#FAD644" d="M16.998 12H17v4.999c.86-.645 1.911-.999 2.998-.999H20v4c0 .492-.071.968-.204 1.417 .682-.269 1.425-.417 2.202-.417H23c0 3.314-2.686 6-6 6h-1c-4.418 0-8-3.582-8-8 0-1.175 0-2 0-2h1.334c1.354 0 2.614.404 3.666 1.098v-2.1C13 13.79 14.79 12 16.998 12Z"/></g></g></svg>