<svg viewBox="0 0 32 32" xmlns="http://www.w3.org/2000/svg" xmlns:xlink="http://www.w3.org/1999/xlink"><defs><clipPath id="a"><use clip-rule="evenodd" xlink:href="#b"/></clipPath><path id="b" d="M0 0h32v32H0Z"/></defs><use fill="none" fill-rule="evenodd" xlink:href="#b"/><g clip-path="url(#a)"><g fill="#1C447F" fill-rule="evenodd"><path d="M30 5.414c0-.265-.105-.519-.293-.707 -.574-.574-1.84-1.84-2.414-2.414 -.188-.188-.442-.293-.707-.293C20.203 2 6.766 2 3 2c-.552 0-1 .448-1 1v26c0 .552.448 1 1 1h26c.552 0 1-.448 1-1 0-3.766 0-17.203 0-23.586Z"/><path d="M26.734.003l.148.011 .147.018 .145.026 .143.032 .142.039 .138.046 .137.053 .134.059 .131.066 .127.072 .125.079 .12.084 .117.091 .112.097 .09.085 2.449 2.449 .085.09 .097.112 .091.117 .084.12 .079.124 .072.128 .066.131 .059.134 .053.136 .046.14 .039.141 .032.143 .026.146 .018.146 .011.147L32 5.39v23.635l-.003.128 -.012.152 -.019.149 -.026.148 -.034.146 -.041.144 -.047.139 -.054.137 -.06.134 -.067.129 -.072.126 -.078.122 -.084.117 -.088.113 -.094.109 -.099.104 -.104.099 -.108.094 -.114.089 -.117.083 -.122.078 -.125.072 -.13.067 -.134.06 -.137.054 -.14.047 -.143.041 -.146.034 -.148.026 -.15.019 -.151.012 -.128.003H2.975l-.128-.003 -.151-.012 -.15-.019 -.148-.026 -.146-.034 -.143-.041 -.14-.047 -.137-.054 -.134-.06 -.13-.067 -.125-.072 -.122-.078 -.117-.084 -.113-.088 -.109-.094 -.104-.099 -.099-.104 -.094-.109 -.088-.112 -.084-.118 -.078-.122 -.072-.126 -.067-.129 -.06-.134 -.054-.136 -.047-.14 -.041-.144 -.034-.146 -.026-.148 -.019-.15 -.012-.151L0 29.026V2.974l.003-.127 .012-.151 .019-.15 .026-.148 .034-.146 .041-.144 .047-.14 .054-.136 .06-.134 .067-.13 .072-.125 .078-.122 .083-.117 .089-.114L.779.982 .878.878 .982.779l.109-.094 .113-.088 .117-.084 .122-.078 .126-.072 .129-.067 .134-.06 .136-.054 .141-.047 .143-.041L2.398.06l.148-.026 .15-.019 .151-.012L2.975 0H26.61l.124.003ZM4 4v24h24V5.828L26.172 4Z"/><path fill="#B2D3DE" d="M30 5.414c0-.265-.105-.519-.293-.707 -.574-.574-1.84-1.84-2.414-2.414 -.188-.188-.442-.293-.707-.293C25.236 2 24 2 24 2l-1 1H6L5 2s-1.127 0-2 0c-.552 0-1 .448-1 1v26c0 .552.448 1 1 1h2l1-1h20l1 1h2c.552 0 1-.448 1-1 0-3.766 0-17.203 0-23.586Z"/><path fill="#FFF" d="M27 17c0-.552-.448-1-1-1 -3.665 0-16.335 0-20 0 -.552 0-1 .448-1 1v13h22s0-9.797 0-13Z"/><g fill="#5E688D"><path d="M6 19h20v1H6Z"/><path d="M6 23h20v1H6Z"/><path d="M6 27h20v1H6Z"/></g><path fill="#FFF" d="M10 2H5v9c0 .552.448 1 1 1h4l1-1V3Z"/><path fill="#5E688D" d="M24 2H10v10h13c.552 0 1-.448 1-1 0-2.533 0-9 0-9Z"/><path fill="#FFF" d="M18 3h4v8h-4Z"/></g></g></svg>