<svg viewBox="0 0 32 32" xmlns="http://www.w3.org/2000/svg" xmlns:xlink="http://www.w3.org/1999/xlink"><defs><clipPath id="a"><use clip-rule="evenodd" xlink:href="#c"/></clipPath><clipPath id="b"><use clip-rule="evenodd" xlink:href="#d"/></clipPath><path id="c" d="M0 0h32v32H0Z"/><path id="d" d="M2 2h28v28H2Z"/></defs><use fill="none" fill-rule="evenodd" xlink:href="#c"/><g clip-path="url(#a)"><g fill="#1C447F" fill-rule="evenodd"><path d="M32 2c0-.53-.211-1.039-.586-1.414C31.039.211 30.53 0 30 0H2C1.47 0 .961.211.586.586 .211.961 0 1.47 0 2v28c0 .53.211 1.039.586 1.414C.961 31.789 1.47 32 2 32h28c.53 0 1.039-.211 1.414-.586s.586-.884.586-1.414Z"/><use fill="#FFF" xlink:href="#d"/></g><g clip-path="url(#b)"><g fill="#EAD361" fill-rule="evenodd"><path d="M2 2h28v3H2Z"/><path fill="#5E688D" d="M22 8c0-.265-.105-.52-.293-.707C21.52 7.105 21.265 7 21 7 16.952 7 2 7 2 7v2h19c.265 0 .52-.105.707-.293C21.895 8.52 22 8.265 22 8Z"/><g fill="#ADDAD1"><path d="M12 18l4-12 4 12Z"/><path d="M15 16h2v5h-2Z"/><path d="M18 18l4-12 4 12Z"/><path d="M21 16h2v5h-2Z"/><path d="M22 18l4-12 4 12Z"/><path d="M25 16h2v5h-2Z"/><path d="M6 18l4-12 4 12Z"/><path d="M9 16h2v5H9Z"/><path d="M2 18L6 6l4 12Z"/><path d="M5 16h2v5H5Z"/><path d="M-3 18L1 6l4 12Z"/><path d="M0 16h2v5H0Z"/></g><path fill="#D9E7FD" d="M-8 14s1.233-.705 2.664-1.522C-2.494 10.854.721 10 3.994 10H5l2 4h.001c3.236-2.589 7.257-4 11.401-4H21l2 4c2.561-2.561 6.035-4 9.656-4H35v14h-46V14Z"/><path fill="#92BBCE" d="M2 24h28v6H2Z"/><g fill="#5A89A0"><path d="M7 21l5-16 5 16Z"/><path d="M11 19h2v5h-2Z"/><path d="M15 21l5-16 5 16Z"/><path d="M19 19h2v5h-2Z"/><path d="M23 21l5-16 5 16Z"/><path d="M27 19h2v5h-2Z"/><path d="M-2 21L3 5l5 16Z"/><path d="M2 19h2v5H2Z"/></g><path fill="#FFF" d="M5 23s2.394-1.71 4.382-3.13c1.703-1.216 3.743-1.87 5.836-1.87h.355c1.487 0 2.847.84 3.512 2.171C19.555 21.111 20 22 20 22s1.473-1.179 2.82-2.256C24.231 18.615 25.984 18 27.791 18h.003C29.565 18 31 19.435 31 21.206V27H2v-4Z"/></g></g><path fill="#B2D3DE" fill-rule="evenodd" d="M22 25c0-.265-.105-.52-.293-.707C21.52 24.105 21.265 24 21 24c-4.048 0-19 0-19 0v2h19c.265 0 .52-.105.707-.293 .188-.187.293-.442.293-.707Z"/></g></svg>