<svg viewBox="0 0 32 32" xmlns="http://www.w3.org/2000/svg" xmlns:xlink="http://www.w3.org/1999/xlink"><defs><clipPath id="a"><use clip-rule="evenodd" xlink:href="#b"/></clipPath><path id="b" d="M0 0h32v32H0Z"/><path id="c" d="M3 4c-.552 0-1 .448-1 1v21c0 .53.211 1.039.586 1.414C2.961 27.789 3.47 28 4 28h24c1.105 0 2-.895 2-2 0-4.01 0-12.99 0-17 0-1.105-.895-2-2-2 -4.292 0-14 0-14 0s-1.146-1.719-1.703-2.555c-.186-.278-.498-.445-.832-.445C9.863 4 5.091 4 3 4Z"/></defs><use fill="none" fill-rule="evenodd" xlink:href="#b"/><g clip-path="url(#a)"><use fill="none" fill-rule="evenodd" stroke="#1C447F" stroke-miterlimit="1.5" stroke-width="4" xlink:href="#c"/><g fill="#FFF" fill-rule="evenodd"><use xlink:href="#c"/><path fill="#B2D3DE" d="M4 10c-.53 0-1.039.211-1.414.586C2.211 10.961 2 11.47 2 12v14c0 .53.211 1.039.586 1.414C2.961 27.789 3.47 28 4 28h24c.53 0 1.039-.211 1.414-.586s.586-.884.586-1.414c0-3.463 0-10.537 0-14 0-.53-.211-1.039-.586-1.414C29.039 10.211 28.53 10 28 10c-5.154 0-18.846 0-24 0Z"/></g></g></svg>