<svg viewBox="0 0 32 32" xmlns="http://www.w3.org/2000/svg" xmlns:xlink="http://www.w3.org/1999/xlink"><defs><clipPath id="a"><use clip-rule="evenodd" xlink:href="#b"/></clipPath><path id="b" d="M8 11h8v7H8Z"/></defs><g fill="none" fill-rule="evenodd"><path d="M0 0h32v32H0Z"/><path fill="none" fill-rule="evenodd" stroke="#1C447F" stroke-linecap="round" stroke-linejoin="round" stroke-miterlimit="1.5" stroke-width="4" d="M2 7h28v18H2Z"/><path fill="#5A89A0" d="M29 21H3l-1 1v3h28v-3Z"/><path fill="#B2D3DE" d="M2 7h28v15H2Z"/><g fill="#5A89A0"><path d="M8.5 9.5C8.5 8.672 7.828 8 7 8H4.5c-.398 0-.779.158-1.061.439C3.158 8.721 3 9.102 3 9.5c0 .828.672 1.5 1.5 1.5H7c.828 0 1.5-.672 1.5-1.5Z"/><path d="M8.5 19.5c0-.828-.672-1.5-1.5-1.5H4.5c-.398 0-.779.158-1.061.439 -.281.282-.439.663-.439 1.061 0 .828.672 1.5 1.5 1.5H7c.828 0 1.5-.672 1.5-1.5Z"/><path d="M29 9.5c0-.828-.672-1.5-1.5-1.5H25c-.398 0-.779.158-1.061.439 -.281.282-.439.663-.439 1.061 0 .828.672 1.5 1.5 1.5h2.5c.828 0 1.5-.672 1.5-1.5Z"/><path d="M29 19.5c0-.828-.672-1.5-1.5-1.5H25c-.398 0-.779.158-1.061.439 -.281.282-.439.663-.439 1.061 0 .828.672 1.5 1.5 1.5h2.5c.828 0 1.5-.672 1.5-1.5Z"/><path d="M21 14c0-.552-.448-1-1-1s-1 .448-1 1v1c0 .552.448 1 1 1s1-.448 1-1c0-.322 0-.678 0-1Z"/><path d="M24 14c0-.552-.448-1-1-1s-1 .448-1 1v1c0 .552.448 1 1 1s1-.448 1-1c0-.322 0-.678 0-1Z"/></g><use xlink:href="#b"/></g><g clip-path="url(#a)"><g fill="#FFF" fill-rule="evenodd"><path d="M16 14H8v-1h8Z"/><path d="M16 16H8v-1h8Z"/><path d="M15 10.335V18h-1v-4.5l-1.771 4.25h-.458L10 13.5V18H9v-7.665l.706-.141L12 15.7l2.294-5.506Z"/></g></g><g fill="#5A89A0" fill-rule="evenodd"><path d="M27 20H5V9h22ZM6 10v9h20v-9Z"/><path fill="#5E688D" d="M20 22l-1-1h-6l-1 1v3h8Z"/><path fill="#FFF" d="M12 7h8v15h-8Z"/></g></svg>