<svg viewBox="0 0 32 32" xmlns="http://www.w3.org/2000/svg" xmlns:xlink="http://www.w3.org/1999/xlink"><defs><clipPath id="a"><use clip-rule="evenodd" xlink:href="#b"/></clipPath><path id="b" d="M0 0h32v32H0Z"/></defs><use fill="none" fill-rule="evenodd" xlink:href="#b"/><g clip-path="url(#a)"><g fill="#1C447F" fill-rule="evenodd"><path d="M2.497 10.461C1.425 9.37 1 8.126 1 7c0-1.555.811-3.335 3.014-4.627C6.267 1.052 10.777 0 16.004 0c5.226 0 9.737 1.052 11.989 2.373C30.196 3.665 31.007 5.445 31.007 7c0 1.128-.427 2.373-1.501 3.466C30.463 12.441 31 14.658 31 17v2c0 3.448-1.37 6.754-3.808 9.192C24.754 30.63 21.448 32 18 32h-4c-3.448 0-6.754-1.37-9.192-3.808C2.37 25.754 1 22.448 1 19v-2c0-2.344.538-4.563 1.497-6.539Z"/><path fill="#8B92AB" d="M3.207 8C3.067 7.666 3 7.329 3 7c0-.996.614-2.074 2.026-2.902C7.086 2.89 11.224 2 16.004 2c4.779 0 8.917.89 10.977 2.098 1.412.828 2.026 1.906 2.026 2.902 0 .329-.067.666-.207 1h-4.968c.315-.1.609-.207.88-.319 .425-.176.784-.363 1.058-.569 .041-.03.086-.071.127-.112 -.041-.041-.086-.082-.127-.112 -.274-.206-.633-.393-1.058-.569C22.748 5.504 19.576 5 16.004 5c-3.572 0-6.745.504-8.708 1.319 -.426.176-.785.363-1.059.569 -.041.03-.086.071-.127.112 .041.041.086.082.127.112 .274.206.633.393 1.059.569 .271.112.565.219.879.319H3.207Z"/><path fill="#EAD361" d="M4.275 11.379c.219.182 23.234.185 23.452.004C28.543 13.083 29 14.988 29 17v2c0 2.917-1.159 5.715-3.222 7.778C23.715 28.841 20.917 30 18 30h-4c-2.917 0-5.715-1.159-7.778-3.222C4.159 24.715 3 21.917 3 19v-2c0-2.013.458-3.919 1.275-5.621ZM16.042 4c4.146.014 7.834 1.967 10.206 5L23 10H9L5.752 9C8.131 5.957 11.837 4 16 4Z"/><path fill="#CFBC62" d="M26.248 9c.574.735 1.072 1.534 1.479 2.383 -.218.181-.466.355-.746.519C24.921 13.11 20.783 14 16.004 14c-4.78 0-8.918-.89-10.978-2.098 -.282-.166-.532-.341-.751-.523 .407-.848.904-1.645 1.477-2.379Z"/><path d="M6.791 17.209c.188.187.442.292.708.292 .265 0 .519-.105.707-.292 .001-.002.002-.003.002-.003 .475-.475 1.12-.742 1.792-.742 .672 0 1.317.267 1.792.742 0 0 .001.001.003.003 .39.39 1.023.39 1.413 0 0 0 .001-.001.001-.001 .39-.39.39-1.023 0-1.413 -.002-.002-.003-.003-.003-.003 -.85-.85-2.004-1.328-3.206-1.328s-2.356.478-3.206 1.328c0 0-.001.001-.003.003 -.39.39-.39 1.023 0 1.413Z"/><path d="M25.209 17.209c-.188.187-.442.292-.708.292 -.265 0-.519-.105-.707-.292 -.001-.002-.002-.003-.002-.003 -.475-.475-1.12-.742-1.792-.742 -.672 0-1.317.267-1.792.742 0 0-.001.001-.003.003 -.39.39-1.023.39-1.413 0 0 0-.001-.001-.001-.001 -.39-.39-.39-1.023 0-1.413 .002-.002.003-.003.003-.003 .85-.85 2.004-1.328 3.206-1.328s2.356.478 3.206 1.328c0 0 .001.001.003.003 .39.39.39 1.023 0 1.413Z"/><path fill="none" fill-rule="evenodd" stroke="#EF5353" stroke-linecap="round" stroke-miterlimit="1.5" stroke-width="2" d="M9 21s.247.33.6.8c1.511 2.014 3.882 3.2 6.4 3.2 2.518 0 4.889-1.186 6.4-3.2 .353-.47.6-.8.6-.8"/><path fill="#8B92AB" d="M29.007 7c0 .996-.614 2.074-2.026 2.902C24.921 11.11 20.783 12 16.004 12c-4.78 0-8.918-.89-10.978-2.098C3.614 9.074 3 7.996 3 7h3.11c.041.041.086.082.127.112 .274.206.633.393 1.059.569C9.259 8.496 12.432 9 16.004 9c3.572 0 6.744-.504 8.708-1.319 .425-.176.784-.363 1.058-.569 .041-.03.086-.071.127-.112Z"/></g></g></svg>