<svg viewBox="0 0 32 32" xmlns="http://www.w3.org/2000/svg"><g fill="none" fill-rule="evenodd"><path d="M0 0h32v32H0Z"/><path fill="none" fill-rule="evenodd" stroke="#B2D3DE" stroke-linecap="round" stroke-linejoin="round" stroke-miterlimit="1.5" stroke-width="4" d="M30 13v17H2V13C2 13 16 8.333 16 8.333Z"/><path fill="#5B8AA0" d="M30 13l-4-1H6l-4 1v2l.567 2L2 20v2l1 1h26l1-1v-2l-.431-2.565L30 15Z"/><g fill="#1C447F"><path d="M2 22h8v-8h12v8h8v2l-2 2 2 2v2H20l-4-2 -4 2H2v-2l2-2 -2-2Z"/><path d="M2 13l14-4.667L30 13Z"/></g><g fill="#1C447F"><path d="M2 24h8v4H2Z"/><path d="M22 24h8v4h-8Z"/><path d="M25 15h2v5h-2Z"/><path d="M5 15h2v5H5Z"/><path d="M29 15h1v5h-1Z"/><path d="M2 15h1v5H2Z"/></g><path fill="#B2D3DE" d="M12 17h8v3h-8Z"/><path fill="#5B8AA0" d="M12 22h8v8h-8Z"/></g></svg>