<svg viewBox="0 0 32 32" xmlns="http://www.w3.org/2000/svg" xmlns:xlink="http://www.w3.org/1999/xlink"><defs><clipPath id="a"><use clip-rule="evenodd" xlink:href="#b"/></clipPath><path id="b" d="M0 0h32v32H0Z"/></defs><use fill="none" fill-rule="evenodd" xlink:href="#b"/><g clip-path="url(#a)"><g fill="#1C447F" fill-rule="evenodd"><path d="M16 2c8.837 0 16 7.163 16 16 0 1.314-.181 2.585-.521 3.791 .345 1.52-.031 3.162-1.112 4.399 -.01.011-.02.022-.03.033 -.618.707-1.395 1.2-2.234 1.468C25.556 30.347 21.971 32 18 32c-1.325 0-2.675 0-4 0 -3.971 0-7.556-1.653-10.103-4.309 -.839-.268-1.616-.761-2.234-1.468 -.01-.011-.02-.022-.03-.033C.552 24.953.176 23.311.521 21.791c-.34-1.206-.521-2.477-.521-3.791 0-8.837 7.163-16 16-16Z"/><path fill="#EAD361" d="M2.818 22.363C2.29 21.011 2 19.539 2 18 2 10.268 8.268 4 16 4c7.732 0 14 6.268 14 14 0 1.539-.29 3.011-.818 4.363 -.065-.11-3.573 4.446-3.119 4.524C23.933 28.821 21.104 30 18 30c-1.325 0-2.675 0-4 0 -3.104 0-5.933-1.179-8.063-3.113 .454-.078-3.054-4.634-3.119-4.524Z"/><path fill="#CFBC62" d="M2.818 22.363c.065-.11.138-.217.219-.319C4.664 19.973 7 17 7 17s.925 3.7 1.517 6.068c.293 1.171-.145 2.403-1.111 3.127 -.059.045-.12.09-.18.136 -.393.294-.835.478-1.289.556 -1.362-1.236-2.439-2.781-3.119-4.524Zm23.245 4.524c-.454-.078-.896-.262-1.289-.556 -.06-.046-.121-.091-.18-.136 -.966-.724-1.404-1.956-1.111-3.127C24.075 20.7 25 17 25 17s2.336 2.973 3.963 5.044c.081.102.154.209.219.319 -.68 1.743-1.757 3.288-3.119 4.524Z"/><path d="M21.851 15.063l2.465.822c.524.174.807.741.633 1.265 -.175.523-.742.807-1.265.632l-5.535-1.845 5.144-5.144c.39-.39 1.024-.39 1.414 0 .39.39.39 1.024 0 1.414Zm-11.702 0l-2.856-2.856c-.39-.39-.39-1.024 0-1.414 .39-.39 1.024-.39 1.414 0l5.144 5.144 -5.535 1.845c-.523.175-1.09-.109-1.265-.632 -.174-.524.109-1.091.633-1.265Z"/><path fill="#B23E3E" d="M9.785 25.077c-1.904-1.25-3.392-3.026-3.95-5.077h20.33c-.558 2.051-2.046 3.827-3.95 5.077 -1.116-1.291-11.314-1.291-12.43 0Z"/><path fill="#EF5353" d="M9.785 25.077C10.901 23.786 12.544 23 14.325 23h3.35c1.781 0 3.424.786 4.54 2.077C20.377 26.284 18.151 27 16 27c-2.151 0-4.377-.716-6.215-1.923Z"/><g fill="#8B92AB"><path d="M25 16s2.336 2.973 3.963 5.044c.891 1.134.849 2.743-.101 3.829 -.01.011-.02.022-.03.033 -1.033 1.181-2.802 1.366-4.058.425 -.06-.046-.121-.091-.18-.136 -.966-.724-1.404-1.956-1.111-3.127C24.075 19.7 25 16 25 16Z"/><path d="M7 16s-2.336 2.973-3.963 5.044c-.891 1.134-.849 2.743.101 3.829l.03.033c1.033 1.181 2.802 1.366 4.058.425 .06-.046.121-.091.18-.136 .966-.724 1.404-1.956 1.111-3.127C7.925 19.7 7 16 7 16Z"/></g></g></g></svg>