<svg viewBox="0 0 32 32" xmlns="http://www.w3.org/2000/svg" xmlns:xlink="http://www.w3.org/1999/xlink"><defs><clipPath id="a"><use clip-rule="evenodd" xlink:href="#b"/></clipPath><path id="b" d="M0 0h32v32H0Z"/><path id="c" d="M4 21v-1.292c0-.466.108-.925.317-1.341C5.262 16.475 8 11 8 11"/></defs><use fill="none" fill-rule="evenodd" xlink:href="#b"/><g clip-path="url(#a)"><path fill="none" fill-rule="evenodd" stroke="#1C447F" stroke-linecap="square" stroke-linejoin="round" stroke-miterlimit="1.5" stroke-width="4" d="M6 6c0-.552.448-1 1-1h22c.552 0 1 .448 1 1v19c0 .552-.448 1-1 1 -3.904 0-18.096 0-22 0 -.552 0-1-.448-1-1C6 21.459 6 9.541 6 6Z"/><g stroke="#1C447F" fill-rule="evenodd" stroke-miterlimit="1.5" fill="none" stroke-width="6"><use xlink:href="#c"/><path d="M9.5 18v4c0 1.105-.895 2-2 2 -.489 0-1.011 0-1.5 0 -1.105 0-2-.895-2-2 0-1 0-2 0-2"/><use fill="none" fill-rule="evenodd" stroke="#FFF" stroke-linecap="square" stroke-miterlimit="1.5" stroke-width="2" xlink:href="#c"/></g><g fill="#B2D3DE" fill-rule="evenodd"><path d="M30 20v5c0 .552-.448 1-1 1 -3.904 0-18.096 0-22 0 -.552 0-1-.448-1-1v-5Z"/><path fill="#5A89A0" d="M6 6c0-.552.448-1 1-1h22c.552 0 1 .448 1 1v14c0 .552-.448 1-1 1 -3.904 0-18.096 0-22 0 -.552 0-1-.448-1-1C6 17.127 6 8.873 6 6Z"/><path fill="#FFF" d="M12 7c0-.552-.448-1-1-1 -.871 0-2.129 0-3 0 -.552 0-1 .448-1 1v12c0 .552.448 1 1 1h3c.552 0 1-.448 1-1 0-2.577 0-9.423 0-12Z"/><path fill="none" fill-rule="evenodd" stroke="#FFF" stroke-linecap="square" stroke-miterlimit="1.5" stroke-width="2" d="M9.5 18v4c0 1.105-.895 2-2 2 -.489 0-1.011 0-1.5 0 -1.105 0-2-.895-2-2 0-.551 0-1 0-1"/><g fill="#FFF"><path d="M18 11c0-.552-.448-1-1-1 -.611 0-1.389 0-2 0 -.552 0-1 .448-1 1s.448 1 1 1h2c.552 0 1-.448 1-1Z"/><path d="M18 14c0-.552-.448-1-1-1 -.611 0-1.389 0-2 0 -.552 0-1 .448-1 1s.448 1 1 1h2c.552 0 1-.448 1-1Z"/><path d="M18 17c0-.552-.448-1-1-1 -.611 0-1.389 0-2 0 -.552 0-1 .448-1 1s.448 1 1 1h2c.552 0 1-.448 1-1Z"/><path d="M23 11c0-.552-.448-1-1-1 -.611 0-1.389 0-2 0 -.552 0-1 .448-1 1s.448 1 1 1h2c.552 0 1-.448 1-1Z"/><path d="M23 14c0-.552-.448-1-1-1 -.611 0-1.389 0-2 0 -.552 0-1 .448-1 1s.448 1 1 1h2c.552 0 1-.448 1-1Z"/><path d="M23 17c0-.552-.448-1-1-1 -.611 0-1.389 0-2 0 -.552 0-1 .448-1 1s.448 1 1 1h2c.552 0 1-.448 1-1Z"/><path d="M28 11c0-.552-.448-1-1-1 -.611 0-1.389 0-2 0 -.552 0-1 .448-1 1s.448 1 1 1h2c.552 0 1-.448 1-1Z"/><path d="M28 14c0-.552-.448-1-1-1 -.611 0-1.389 0-2 0 -.552 0-1 .448-1 1s.448 1 1 1h2c.552 0 1-.448 1-1Z"/><path d="M28 17c0-.552-.448-1-1-1 -.611 0-1.389 0-2 0 -.552 0-1 .448-1 1s.448 1 1 1h2c.552 0 1-.448 1-1Z"/></g><path fill="#1C447F" d="M14 6h14v2H14Z"/></g></g></svg>