<svg viewBox="0 0 32 32" xmlns="http://www.w3.org/2000/svg" xmlns:xlink="http://www.w3.org/1999/xlink"><defs><clipPath id="a"><use clip-rule="evenodd" xlink:href="#b"/></clipPath><path id="b" d="M0 0h32v32H0Z"/></defs><use fill="none" fill-rule="evenodd" xlink:href="#b"/><g clip-path="url(#a)"><path fill="none" fill-rule="evenodd" stroke="#1C447F" stroke-linecap="round" stroke-linejoin="round" stroke-miterlimit="1.5" stroke-width="4" d="M4.051 22.316C4.018 22.215 4 22.108 4 22 4 18.849 4 9.151 4 6c0-.265.105-.52.293-.707C4.48 5.105 4.735 5 5 5h22c.265 0 .52.105.707.293 .188.187.293.442.293.707v16c0 .108-.018.215-.051.316 .113.121.198.272.24.441 .346 1.382 1.081 4.322 1.5 6 .075.299.008.616-.182.858 -.189.243-.48.385-.788.385 -4.672 0-20.766 0-25.438 0 -.308 0-.599-.142-.788-.385 -.19-.242-.257-.559-.182-.858 .419-1.678 1.154-4.618 1.5-6 .042-.169.127-.32.24-.441Z"/><g fill="#1C447F" fill-rule="evenodd"><path d="M28 6c0-.265-.105-.52-.293-.707C27.52 5.105 27.265 5 27 5 23.096 5 8.904 5 5 5c-.265 0-.52.105-.707.293C4.105 5.48 4 5.735 4 6v16c0 .265.105.52.293.707 .187.188.442.293.707.293h22c.265 0 .52-.105.707-.293 .188-.187.293-.442.293-.707 0-3.151 0-12.849 0-16Z"/><path fill="#FFF" d="M5 6h22v14H5Z"/><path fill="#D7E3E6" d="M2.311 28.757c-.075.299-.008.616.182.858 .189.243.48.385.788.385h25.438c.308 0 .599-.142.788-.385 .19-.242.257-.559.182-.858 -.419-1.678-1.154-4.618-1.5-6 -.111-.445-.511-.757-.97-.757 -3.627 0-18.811 0-22.438 0 -.459 0-.859.312-.97.757 -.346 1.382-1.081 4.322-1.5 6Z"/><g fill="#5E688D"><path d="M11.89 27c-.229 0-.429.156-.485.379 -.07.282-.168.672-.25 1 -.037.149-.003.307.091.429 .095.121.24.192.394.192h8.72c.154 0 .299-.071.394-.192 .094-.122.128-.28.091-.429 -.082-.328-.18-.718-.25-1 -.056-.223-.256-.379-.485-.379 -1.481 0-6.739 0-8.22 0Z"/><path d="M4.655 23.379c.056-.223.256-.379.485-.379h21.72c.229 0 .429.156.485.379 .125.503.349 1.397.5 2 .037.149.003.307-.091.429 -.095.121-.24.192-.394.192 -3.401 0-19.319 0-22.72 0 -.154 0-.299-.071-.394-.192 -.094-.122-.128-.28-.091-.429 .151-.603.375-1.497.5-2Z"/></g><g fill="#5A89A0"><path d="M22 8c0-.552-.448-1-1-1s-1 .448-1 1 .448 1 1 1 1-.448 1-1Z"/><path d="M22 11c0-.552-.448-1-1-1s-1 .448-1 1 .448 1 1 1 1-.448 1-1Z"/><path d="M22 14c0-.552-.448-1-1-1s-1 .448-1 1 .448 1 1 1 1-.448 1-1Z"/><path d="M26 8.5c0-.133-.053-.26-.146-.354C25.76 8.053 25.633 8 25.5 8c-.555 0-1.445 0-2 0 -.133 0-.26.053-.354.146 -.093.094-.146.221-.146.354 0 .133.053.26.146.354 .094.093.221.146.354.146h2c.133 0 .26-.053.354-.146 .093-.094.146-.221.146-.354Z"/><path d="M26 11.5c0-.133-.053-.26-.146-.354 -.094-.093-.221-.146-.354-.146 -.555 0-1.445 0-2 0 -.133 0-.26.053-.354.146 -.093.094-.146.221-.146.354 0 .133.053.26.146.354 .094.093.221.146.354.146h2c.133 0 .26-.053.354-.146 .093-.094.146-.221.146-.354Z"/><path d="M26 14.5c0-.133-.053-.26-.146-.354 -.094-.093-.221-.146-.354-.146 -.555 0-1.445 0-2 0 -.133 0-.26.053-.354.146 -.093.094-.146.221-.146.354 0 .133.053.26.146.354 .094.093.221.146.354.146h2c.133 0 .26-.053.354-.146 .093-.094.146-.221.146-.354Z"/></g></g></g></svg>