<svg viewBox="0 0 32 32" xmlns="http://www.w3.org/2000/svg" xmlns:xlink="http://www.w3.org/1999/xlink"><defs><clipPath id="a"><use clip-rule="evenodd" xlink:href="#e"/></clipPath><clipPath id="b"><use clip-rule="evenodd" xlink:href="#f"/></clipPath><clipPath id="c"><use clip-rule="evenodd" xlink:href="#f"/></clipPath><clipPath id="d"><use clip-rule="evenodd" xlink:href="#g"/></clipPath><path id="g" d="M6 12h20v14H6Z"/><path id="f" d="M12 22.172c0-1.403-.492-2.763-1.391-3.841 -.497-.597-1.068-1.282-1.606-1.928C7.709 14.85 7 12.893 7 10.872c0-.001 0-.001 0-.002C7 5.971 10.971 2 15.87 2h.26C21.029 2 25 5.971 25 10.87v.002c0 2.021-.709 3.978-2.003 5.531 -.538.646-1.109 1.331-1.606 1.928C20.492 19.409 20 20.769 20 22.172v1c0 .53-.211 1.039-.586 1.414C18.824 25.176 18 26 18 26h-4s-.824-.824-1.414-1.414c-.375-.375-.586-.884-.586-1.414 0-.296 0-.644 0-1Z"/><path id="e" d="M0 0h32v32H0Z"/><path id="h" d="M19 25h-6v3.586c0 .265.105.519.293.707 .13.13.284.284.414.414 .188.188.442.293.707.293h3.172c.265 0 .519-.105.707-.293l.414-.414c.188-.188.293-.442.293-.707C19 27.563 19 25 19 25Z"/></defs><use fill="none" fill-rule="evenodd" xlink:href="#e"/><g clip-path="url(#a)"><g fill="none" fill-rule="evenodd"><use xlink:href="#f"/><use clip-path="url(#b)" fill="#D5C056" xlink:href="#g"/><g stroke="#1C447F" fill-rule="evenodd" stroke-miterlimit="1.5" stroke-width="4" fill="none" stroke-linecap="round" stroke-linejoin="round"><use xlink:href="#f"/><use xlink:href="#h"/></g><use fill="#EAD361" xlink:href="#f"/></g><g clip-path="url(#c)"><g fill="#FFF" fill-rule="evenodd"><path d="M23 14H9v-3c0-3.866 3.134-7 7-7s7 3.134 7 7Z"/><use fill="#D5C056" xlink:href="#g"/><path clip-path="url(#d)" fill="#FFF" fill-opacity=".48" fill-rule="evenodd" d="M9 9v2.183c0 1.804.716 3.533 1.992 4.809 .266.266.533.533.781.781 .786.786 1.227 1.851 1.227 2.962v3.631c0 .35.284.634.634.634h.732c.169 0 .33-.067.448-.186 .119-.118.186-.28.186-.448 0-.986 0-2.93 0-4.412 0-1.274-.377-2.52-1.084-3.58 -.597-.896-.916-1.949-.916-3.025C13 10.892 13 9 13 9Z"/></g></g><g fill="#B2D3DE" fill-rule="evenodd"><use xlink:href="#h"/><path fill="#FFF" fill-opacity=".39" fill-rule="evenodd" d="M16 26.5c0-.133-.053-.26-.146-.354 -.094-.093-.221-.146-.354-.146 -.305 0-.695 0-1 0 -.133 0-.26.053-.354.146 -.093.094-.146.221-.146.354v2c0 .133.053.26.146.354 .094.093.221.146.354.146h1c.133 0 .26-.053.354-.146 .093-.094.146-.221.146-.354 0-.555 0-1.445 0-2Z"/></g></g></svg>