<svg viewBox="0 0 32 32" xmlns="http://www.w3.org/2000/svg" xmlns:xlink="http://www.w3.org/1999/xlink"><defs><clipPath id="a"><use clip-rule="evenodd" xlink:href="#d"/></clipPath><clipPath id="b"><path clip-rule="evenodd" d="M19 10.5c0 4.69442-3.80558 8.5-8.5 8.5C5.80558 19 2 15.1944 2 10.5 2 5.80558 5.80558 2 10.5 2 15.1944 2 19 5.80558 19 10.5Z"/></clipPath><clipPath id="c"><path clip-rule="evenodd" d="M16.707 3.707c-.39-.39-1.024-.39-1.414 0 -2.265 2.265-9.321 9.321-11.586 11.586 -.39.39-.39 1.024 0 1.414 .19.19.396.396.586.586 .39.39 1.024.39 1.414 0 2.265-2.265 9.321-9.321 11.586-11.586 .39-.39.39-1.024 0-1.414 -.19-.19-.396-.396-.586-.586Z"/></clipPath><path id="d" d="M0 0h32v32H0Z"/><path id="e" d="M16.707 3.707c-.39-.39-1.024-.39-1.414 0 -2.265 2.265-9.321 9.321-11.586 11.586 -.39.39-.39 1.024-1e-07 1.414 .19.19.396.396.586.586 .39.39 1.024.39 1.414 0 2.265-2.265 9.321-9.321 11.586-11.586 .39-.39.39-1.024 0-1.414 -.19-.19-.396-.396-.586-.586Z"/></defs><use fill="none" fill-rule="evenodd" xlink:href="#d"/><g clip-path="url(#a)"><path fill="none" fill-rule="evenodd" stroke="#1C447F" stroke-linecap="square" stroke-linejoin="round" stroke-miterlimit="1.5" stroke-width="4" d="M3.585 15.441C2.587 14.048 2 12.342 2 10.5 2 5.809 5.809 2 10.5 2c1.842 0 3.548.587 4.941 1.585 .389-.263.922-.222 1.266.122 .19.19.396.396.586.586 .344.344.385.877.122 1.266C18.413 6.952 19 8.658 19 10.5c0 1.986-.682 3.813-1.825 5.261L29.414 28 28 29.414 15.761 17.175C14.313 18.318 12.486 19 10.5 19c-1.842 0-3.548-.587-4.941-1.585 -.389.263-.922.222-1.266-.122 -.19-.19-.396-.396-.586-.586 -.344-.344-.385-.877-.122-1.266Z"/><path fill="#B2D3DE" d="M19 17.586L20 19l-1 1.414L11.586 13 13 11.586Z"/><path fill="#FFF" d="M19 17.586L29.414 28 28 29.414l-9-9Z"/><path fill="#B93838" fill-rule="evenodd" d="M10.5 2a8.5 8.5 0 1 0 0 17 8.5 8.5 0 1 0 0-17Z"/><g clip-path="url(#b)"><g fill="#EF5353" fill-rule="evenodd"><path d="M10.5 4a6.5 6.5 0 1 0 0 13 6.5 6.5 0 1 0 0-13Z"/><path fill="#F47282" d="M10.5 3a4.5 3 0 1 0 0 6 4.5 3 0 1 0 0-6Z"/><use fill="#B93838" fill-rule="evenodd" stroke="#F08282" stroke-linejoin="round" stroke-miterlimit="1.5" stroke-width="2" xlink:href="#e"/></g></g><use fill="#B93838" fill-rule="evenodd" xlink:href="#e"/><g clip-path="url(#c)"><g fill="#EF5353" fill-rule="evenodd"><path d="M10.5 3a7.5 7.5 0 1 0 0 15 7.5 7.5 0 1 0 0-15Z"/><path fill="#F47282" d="M12.572 2.894c1.168.406 2.239 1.051 3.144 1.894 .005.005.011.01.016.015 .199.185.314.443.319.714 .004.272-.101.533-.293.725 -.419.419-.957.957-1.447 1.447 -.803.803-1.992 1.084-3.07.725C10.587 8.196 10 8 10 8V2s1.371.476 2.572.894Z"/></g></g></g></svg>