<svg viewBox="0 0 32 32" xmlns="http://www.w3.org/2000/svg" xmlns:xlink="http://www.w3.org/1999/xlink"><defs><clipPath id="a"><use clip-rule="evenodd" xlink:href="#d"/></clipPath><clipPath id="b"><use clip-rule="evenodd" xlink:href="#e"/></clipPath><clipPath id="c"><use clip-rule="evenodd" xlink:href="#f"/></clipPath><path id="e" d="M13 13H6c-.53 0-1.039.211-1.414.586C4.211 13.961 4 14.47 4 15v7c0 .53.211 1.039.586 1.414C4.961 23.789 5.47 24 6 24h7l1-1v-9Z"/><path id="f" d="M13 13h3v11h-3Z"/><path id="g" d="M4 24l8-7.944L20 24"/><path id="h" d="M4 13s3.603 3.303 5.973 5.475c1.147 1.051 2.907 1.051 4.054 0C16.397 16.303 20 13 20 13"/><path id="d" d="M0 0h32v32H0Z"/></defs><use fill="none" fill-rule="evenodd" xlink:href="#d"/><g clip-path="url(#a)"><g stroke-linecap="round" stroke="#1C447F" fill-rule="evenodd" stroke-miterlimit="1.5" stroke-width="4" fill="none"><path d="M14 23h4v7h-4Z"/><path fill="none" fill-rule="evenodd" stroke="#1C447F" stroke-linecap="round" stroke-linejoin="round" stroke-miterlimit="1.5" stroke-width="4" d="M18 6V3c0-.552.448-1 1-1h4c.265 0 .52.105.707.293 .188.187.293.442.293.707v2c0 .552-.448 1-1 1 3.866 0 7 3.134 7 7v11H2V13c0-3.866 3.134-7 7-7Z"/></g><g fill="#5A89A0" fill-rule="evenodd"><path d="M14 20h4v10h-4Z"/><path fill="#B2D3DE" d="M30 13c0-1.857-.738-3.637-2.05-4.95C26.637 6.737 24.856 6 23 6 16.892 6 9 6 9 6l7 18h14Z"/><path fill="#5E688D" d="M18 16h3V6h2c.552 0 1-.448 1-1 0-.611 0-1.389 0-2 0-.265-.105-.52-.293-.707C23.52 2.105 23.265 2 23 2c-1.11 0-2.89 0-4 0 -.552 0-1 .448-1 1Z"/><path fill="#436E83" d="M6 24H2V13c0-3.866 3.134-7 7-7 1.291 0 2.501.35 3.5.971C11.873 10.022 6 24 6 24Z"/><path d="M12.5 6.971C14.61 8.175 16 10.425 16 13l-7 5.121V13c0-2.575 1.39-4.825 3.5-6.029Z"/><use fill="#FFF" xlink:href="#e"/></g><g clip-path="url(#b)"><g stroke="#CCC" fill-rule="evenodd" stroke-miterlimit="1.5" stroke-width="2" fill="none" stroke-linecap="round" stroke-linejoin="round"><use xlink:href="#g"/><use fill="#FFF" stroke="#999" xlink:href="#h"/></g></g><use fill="#B2D3DE" fill-rule="evenodd" xlink:href="#f"/><g clip-path="url(#c)"><g stroke="#969696" fill-rule="evenodd" stroke-miterlimit="1.5" stroke-width="2" fill="none" stroke-linecap="round" stroke-linejoin="round"><use xlink:href="#g"/><use fill="#B2D3DE" stroke="#717171" xlink:href="#h"/></g></g></g></svg>