<svg viewBox="0 0 32 32" xmlns="http://www.w3.org/2000/svg"><g fill="none" fill-rule="evenodd"><path d="M0 0v32h32V0Z"/><path fill="none" fill-rule="evenodd" stroke="#1C447F" stroke-linecap="round" stroke-linejoin="round" stroke-miterlimit="1.5" stroke-width="4" d="M11.476 5.702C12.758 4.058 14.756 3 17 3c2.655 0 4.966 1.481 6.153 3.661C23.836 6.242 24.64 6 25.5 6c2.484 0 4.5 2.016 4.5 4.5v2c0 1.127-.415 2.158-1.101 2.948 .066.34.101.692.101 1.052v.001 1.998 .001c0 3.036-2.464 5.5-5.5 5.5 -1.551 0-2.954-.644-3.954-1.679C18.322 23.368 16.734 24 15 24c-.754 0-1.48-.119-2.16-.34 -1.58 2.36-3.759 4.299-6.351 5.595L5 30v-2c1.147-1.911 1.977-3.983 2.47-6.136 -.308.088-.634.136-.97.136C4.568 22 3 20.432 3 18.5v-2c0-.513.111-1 .309-1.44C2.493 14.101 2 12.857 2 11.5v-2C2 6.464 4.464 4 7.5 4c1.563 0 2.975.653 3.976 1.702Z"/><path fill="#B2D3DE" d="M7 25.58c.4-1.251.683-2.54.843-3.847 -.413.172-.867.267-1.343.267C4.568 22 3 20.432 3 18.5v-2l.769-.961C2.681 14.534 2 13.096 2 11.5v-2L4 8h24l2 2.5v2c0 1.336-.584 2.538-1.51 3.362l.51.638v1.999 .001c0 3.036-2.464 5.5-5.5 5.5 -1.551 0-2.954-.644-3.954-1.679C18.322 23.368 16.734 24 15 24c-.754 0-1.48-.119-2.16-.34 -1.58 2.36-3.759 4.299-6.351 5.595C5.608 29.696 5 30 5 30v-2Z"/><path fill="#FFF" d="M11.476 5.702C12.758 4.058 14.756 3 17 3c2.655 0 4.966 1.481 6.153 3.661C23.836 6.242 24.64 6 25.5 6c2.484 0 4.5 2.016 4.5 4.5 0 1.389-.631 2.633-1.622 3.458 .397.761.622 1.625.622 2.542 0 3.036-2.464 5.5-5.5 5.5 -1.551 0-2.954-.644-3.954-1.679C18.322 21.368 16.734 22 15 22c-.754 0-1.48-.119-2.16-.34 -1.58 2.36-3.759 4.299-6.351 5.595C5.608 27.696 5 28 5 28c1.521-2.535 2.486-5.353 2.843-8.267 -.413.172-.867.267-1.343.267C4.568 20 3 18.432 3 16.5c0-1.041.455-1.976 1.178-2.618C2.855 12.877 2 11.288 2 9.5 2 6.464 4.464 4 7.5 4c1.563 0 2.975.653 3.976 1.702Z"/></g></svg>