<svg viewBox="0 0 32 32" xmlns="http://www.w3.org/2000/svg" xmlns:xlink="http://www.w3.org/1999/xlink"><defs><clipPath id="a"><use clip-rule="evenodd" xlink:href="#b"/></clipPath><path id="b" d="M0-.017h32v32H0Z"/></defs><use fill="none" fill-rule="evenodd" xlink:href="#b"/><g clip-path="url(#a)"><g fill="#1C447F" fill-rule="evenodd"><path d="M8.124 2.289c.099-.266.255-.513.462-.72 0 0 .174-.174.419-.419C10.558-.403 12.93-.788 14.894.194c.036.018.071.037.105.057 1.023-.595 2.363-.124 2.858.99l1.145 2.863c-.001-.04-.002-.08-.002-.121 0-1.655 1.344-3 3-3 .943 0 1.784.436 2.334 1.117 1.278-.427 2.672.501 2.666 1.892 -.001.31-.079.607-.211.886l-.759 1.518 4.253.607c1.485.243 2.239 2.013 1.287 3.22 -.184.232-.414.412-.676.549l-2.062 1.031c.362.089.718.219 1.062.391 .988.494 1.389 1.696.895 2.684l-.998 1.995c-.024.049-.051.098-.08.145l-.012.021 -.008.012c-.093.148-.204.281-.329.397 .421 1.209.638 2.484.638 3.771v.764c0 5.523-4.477 10-10 10h-8c-5.523 0-10-4.477-10-10v-.764c-1e-07-1.287.217-2.562.638-3.771 -.206-.192-.374-.429-.486-.699 -.309-.748-.138-1.608.434-2.18l2.038-2.038 -3.518-1.759c-1.332-.7-1.488-2.617-.203-3.461 .248-.163.523-.26.814-.308l4.253-.607 -.759-1.518c-.607-1.276.247-2.813 1.68-2.892 .31-.017.611.043.897.159Z"/><g fill="#EAD361"><path d="M22 2.983a1 1 0 1 0 0 2 1 1 0 1 0 0-2Z"/><path d="M29 13.983l-1 2 -3-1s.174-.174.419-.419c.944-.944 2.387-1.178 3.581-.581Z"/><path d="M14 1.983l-1 2 -3-1s.174-.174.419-.419c.944-.944 2.387-1.178 3.581-.581Z"/></g><path fill="#EF5353" d="M16 1.983l-2 5 -7-3 2 4 -7 1 6 3 -4 4h6l-3 3h18l-3-3h6l-4-4 6-3 -7-1 2-4 -7 3Z"/><path fill="#F08C19" d="M16 5.983l-2 3 -4-2 2 3H7l4 2 -3 3h4l-2 3 4-1 2 2 2-2 3 1 -1-3h4l-3-3 4-2h-5l2-3 -4 2Z"/><path fill="#EAD361" d="M27 16.983H5c-.658 1.316-1 2.766-1 4.236v.764c0 4.419 3.582 8 8 8h8c4.418 0 8-3.581 8-8v-.764c0-1.47-.342-2.92-1-4.236Z"/><g fill="#FFF"><path d="M10.5 17.983a2.5 2.5 0 1 0 0 5 2.5 2.5 0 1 0 0-5Z"/><path d="M21.5 17.983a2.5 2.5 0 1 0 0 5 2.5 2.5 0 1 0 0-5Z"/></g><path d="M12 20.499c0-.398-.158-.78-.439-1.061 -.282-.281-.663-.439-1.061-.439 -.398 0-.779.158-1.061.439 -.281.281-.439.663-.439 1.061v.018c0 .398.158.779.439 1.06 .282.282.663.44 1.061.44 .398 0 .779-.158 1.061-.44 .281-.281.439-.662.439-1.06Z"/><path d="M23 20.497c0-.828-.671-1.498-1.498-1.498h-.004c-.827 0-1.498.67-1.498 1.498v.022c0 .827.671 1.498 1.498 1.498h.004c.827 0 1.498-.671 1.498-1.498Z"/><path fill="#5B2B02" d="M21.276 26.536c.155.31.139.678-.043.973 -.183.295-.504.474-.851.474 -2.295 0-6.469 0-8.764 0 -.347 0-.668-.179-.851-.474 -.182-.295-.198-.663-.043-.973 .281-.563.613-1.226.934-1.869 .823-1.645 2.503-2.684 4.342-2.684 1.839 0 3.519 1.039 4.342 2.684 .321.643.653 1.306.934 1.869Z"/><path fill="#B23E3E" d="M12.711 27.983h-1.093c-.347 0-.668-.179-.851-.474 -.182-.295-.198-.663-.043-.973 .281-.563.613-1.226.934-1.869 .823-1.645 2.503-2.684 4.342-2.684 1.839 0 3.519 1.039 4.342 2.684 .321.643.653 1.306.934 1.869 .155.31.139.678-.043.973 -.183.295-.504.474-.851.474h-1.093c-1.554-.304-2.641-.278-3.396-.278 -.79-.001-1.989.041-3.182.278Z"/><path fill="#EF5353" d="M12.711 27.983c.953-.638 2.091-1 3.289-1s2.336.362 3.289 1Z"/><path d="M6 13.983H3c-1.105 0-2-.895-2-2v-.002c0-1.325.527-2.597 1.464-3.534 .937-.937 2.208-1.464 3.534-1.464H6c1.105 0 2 .896 2 2v3c0 1.105-.895 2-2 2Z"/><path fill="#EAD361" d="M3 11.983v-.002c0-.795.316-1.557.878-2.12 .562-.562 1.325-.878 2.12-.878H6v3Z"/><path d="M12.586 9.569c-.609.609-.76 1.539-.375 2.309l1 2c.494.988 1.695 1.388 2.683.894l2-1c.575-.287.977-.834 1.08-1.468 .103-.635-.105-1.28-.56-1.735l-2-2c-.781-.781-2.047-.781-2.828 0Z"/><path fill="#EAD361" d="M14 10.983l1-1 2 2 -2 1Z"/></g></g></svg>