<svg viewBox="0 0 32 32" xmlns="http://www.w3.org/2000/svg" xmlns:xlink="http://www.w3.org/1999/xlink"><defs><clipPath id="a"><use clip-rule="evenodd" xlink:href="#b"/></clipPath><path id="b" d="M0 0h32v32H0Z"/></defs><use fill="none" fill-rule="evenodd" xlink:href="#b"/><g clip-path="url(#a)"><path fill="none" fill-rule="evenodd" stroke="#1C447F" stroke-linecap="round" stroke-miterlimit="1.5" stroke-width="4" d="M15 3c0-.552.448-1 1-1h3c.552 0 1 .448 1 1h10v2H20v8h5.409c.931 0 1.739.643 1.949 1.55 .557 2.417 1.631 7.07 2.224 9.638 .265 1.149.01 2.356-.698 3.3 -.435.58-.917 1.222-1.284 1.712 -.378.504-.97.8-1.6.8 -3.665 0-16.335 0-20 0 -.63 0-1.222-.296-1.6-.8 -.367-.49-.849-1.132-1.284-1.712 -.708-.944-.963-2.151-.698-3.3 .593-2.568 1.667-7.221 2.224-9.638C4.852 13.643 5.66 13 6.591 13H12s0-.5 0-1c0-.265.105-.52.293-.707 .187-.188.442-.293.707-.293h4c.265 0 .52-.105.707-.293 .188-.187.293-.442.293-.707 0-1.11 0-2.89 0-4 0-.552-.448-1-1-1 -.322 0-.678 0-1 0H2V3Z"/><g fill="#FFF" fill-rule="evenodd"><path d="M2 3h28v2H2Z"/><path fill="#B2D3DE" d="M16 2c-.552 0-1 .448-1 1v1c0 .552.448 1 1 1h1c.552 0 1 .448 1 1v4c0 .265-.105.52-.293.707 -.187.188-.442.293-.707.293h-4c-.265 0-.52.105-.707.293 -.188.187-.293.442-.293.707v1l1 1h6l1-1V3c0-.552-.448-1-1-1 -.871 0-2.129 0-3 0Z"/><path fill="#5E688D" d="M29.579 26c-.125.532-.359 1.04-.695 1.488 -.435.58-.917 1.222-1.284 1.712 -.378.504-.97.8-1.6.8 -3.665 0-16.335 0-20 0 -.63 0-1.222-.296-1.6-.8 -.367-.49-.849-1.132-1.284-1.712 -.336-.448-.57-.956-.695-1.488L4 25h24Z"/><path fill="#D7E3E6" d="M2.421 26c-.138-.589-.142-1.208-.003-1.812 .593-2.568 1.667-7.221 2.224-9.638C4.852 13.643 5.66 13 6.591 13h18.818c.931 0 1.739.643 1.949 1.55 .557 2.417 1.631 7.07 2.224 9.638 .139.604.135 1.223-.003 1.812Z"/><path fill="#1C447F" d="M26.189 15.757c-.111-.445-.511-.757-.97-.757 -3.194 0-15.244 0-18.438 0 -.459 0-.859.312-.97.757 -.356 1.422-1.124 4.495-1.536 6.144 -.171.682.029 1.403.526 1.9 .205.205.421.421.613.613 .375.375.884.586 1.414.586h18.344c.53 0 1.039-.211 1.414-.586 .192-.192.408-.408.613-.613 .497-.497.697-1.218.526-1.9 -.412-1.649-1.18-4.722-1.536-6.144Z"/><path d="M19.05 14.001l.049.001 .05.004 .049.004 .049.005 .048.007 .049.008 .048.009 .048.01 .047.011 .048.013 .047.013 .046.015 .046.016 .046.017 .045.018 .045.019 .045.021 .043.021 .044.023 .043.023 .042.025 .042.025 .041.027 .04.028 .04.028 .039.03 .039.031 .037.032 .037.032 .037.034 .035.035 .035.035 .034.037 .032.037 .032.037 .031.039 .03.039 .028.04 .028.04 .027.041 .025.042 .025.042 .023.043 .023.044 .021.043 .021.045 .019.045 .018.045 .017.046 .016.046 .015.046 .013.047 .013.048 .011.047 .01.048 .009.048 .008.049 .007.048 .005.049 .004.049 .004.05 .001.049L21 16v11l-.001.05 -.001.049 -.004.05 -.004.049 -.005.049 -.007.048 -.008.049 -.009.048 -.01.048 -.011.047 -.013.048 -.013.047 -.015.046 -.016.046 -.017.046 -.018.045 -.019.045 -.021.045 -.021.043 -.023.044 -.023.043 -.025.042 -.025.042 -.027.041 -.028.04 -.028.04 -.03.039 -.031.039 -.032.037 -.032.037 -.034.037 -.035.035 -.035.035 -.037.034 -.037.032 -.037.032 -.039.031 -.039.03 -.04.028 -.04.028 -.041.027 -.042.025 -.042.025 -.043.023 -.044.023 -.043.021 -.045.021 -.045.019 -.045.018 -.046.017 -.046.016 -.046.015 -.047.013 -.048.013 -.047.011 -.048.01 -.048.009 -.049.008 -.048.007 -.049.005 -.049.004 -.05.004 -.049.001L19 29h-6l-.05-.001 -.049-.001 -.05-.004 -.049-.004 -.049-.005 -.048-.007 -.049-.008 -.048-.009 -.048-.01 -.047-.011 -.048-.013 -.047-.013 -.046-.015 -.046-.016 -.046-.017 -.045-.018 -.045-.019 -.045-.021 -.043-.021 -.044-.023 -.043-.023 -.042-.025 -.042-.025 -.041-.027 -.04-.028 -.04-.028 -.039-.03 -.039-.031 -.037-.032 -.037-.032 -.037-.034 -.035-.035 -.035-.035 -.034-.037 -.032-.037 -.032-.037 -.031-.039 -.03-.039 -.028-.04 -.028-.04 -.027-.041 -.025-.042 -.025-.042 -.023-.043 -.023-.044 -.021-.043 -.021-.045 -.019-.045 -.018-.045 -.017-.046 -.016-.046 -.015-.046 -.013-.047 -.013-.048 -.011-.047 -.01-.048 -.009-.048 -.008-.049 -.007-.048 -.005-.049 -.004-.049 -.004-.05 -.001-.049L11 27V16l.001-.05 .001-.049 .004-.05 .004-.049 .005-.049 .007-.048 .008-.049 .009-.048 .01-.048 .011-.047 .013-.048 .013-.047 .015-.046 .016-.046 .017-.046 .018-.045 .019-.045 .021-.045 .021-.043 .023-.044 .023-.043 .025-.042 .025-.042 .027-.041 .028-.04 .028-.04 .03-.039 .031-.039 .032-.037 .032-.037 .034-.037 .035-.035 .035-.035 .037-.034 .037-.032 .037-.032 .039-.031 .039-.03 .04-.028 .04-.028 .041-.027 .042-.025 .042-.025 .043-.023 .044-.023 .043-.021 .045-.021 .045-.019 .045-.018 .046-.017 .046-.016 .046-.015 .047-.013 .048-.013 .047-.011 .048-.01 .048-.009 .049-.008 .048-.007 .049-.005 .049-.004 .05-.004 .049-.001L13 14h6ZM13.006 15h-.031l-.025.001 -.024.002 -.025.002 -.024.003 -.025.003 -.024.004 -.024.004 -.024.006 -.024.005 -.023.006 -.024.007 -.023.008 -.023.008 -.023.008 -.023.009 -.022.01 -.022.01 -.022.011 -.022.011 -.021.012 -.021.012 -.021.013 -.021.013 -.02.014 -.02.014 -.019.015 -.02.016 -.019.015 -.018.017 -.018.017 -.018.017 -.017.018 -.017.018 -.017.018 -.016.019 -.015.02 -.015.019 -.014.02 -.014.02 -.013.021 -.013.021 -.012.021 -.012.021 -.011.022 -.011.022 -.01.022 -.01.022 -.009.023 -.008.023 -.008.023 -.008.023 -.007.024 -.006.023 -.005.024 -.006.024 -.004.024 -.004.024 -.003.025 -.003.024 -.002.025 -.002.024 -.001.025v.031 10.988 .031l.001.025 .002.024 .002.025 .003.024 .003.025 .004.024 .004.024 .006.024 .005.024 .006.023 .007.024 .008.023 .008.023 .008.023 .009.023 .01.022 .01.022 .011.022 .011.022 .012.021 .012.021 .013.021 .013.021 .014.02 .014.02 .015.019 .016.02 .015.019 .017.018 .017.018 .017.018 .018.017 .018.017 .018.017 .019.015 .02.016 .019.015 .02.014 .02.014 .021.013 .021.013 .021.012 .021.012 .022.011 .022.011 .022.01 .022.01 .023.009 .023.008 .023.008 .023.008 .024.007 .023.006 .024.005 .024.006 .024.004 .024.004 .025.003 .024.003 .025.002 .024.002 .025.001h.031 5.988 .031l.025-.001 .024-.002 .025-.002 .024-.003 .025-.003 .024-.004 .024-.004 .024-.006 .024-.005 .023-.006 .024-.007 .023-.008 .023-.008 .023-.008 .023-.009 .022-.01 .022-.01 .022-.011 .022-.011 .021-.012 .021-.012 .021-.013 .021-.013 .02-.014 .02-.014 .019-.015 .02-.015 .019-.016 .018-.017 .018-.017 .018-.017 .017-.018 .017-.018 .017-.018 .015-.019 .016-.02 .015-.019 .014-.02 .014-.02 .013-.021 .013-.021 .012-.021 .012-.021 .011-.022 .011-.022 .01-.022 .01-.022 .009-.023 .008-.023 .008-.023 .008-.023 .007-.024 .006-.023 .005-.024 .006-.024 .004-.024 .004-.024 .003-.025 .003-.024 .002-.025 .002-.024 .001-.025v-.031 -10.988 -.031l-.001-.025 -.002-.024 -.002-.025 -.003-.024 -.003-.025 -.004-.024 -.004-.024 -.006-.024 -.005-.024 -.006-.023 -.007-.024 -.008-.023 -.008-.023 -.008-.023 -.009-.023 -.01-.022 -.01-.022 -.011-.022 -.011-.022 -.012-.021 -.012-.021 -.013-.021 -.013-.021 -.014-.02 -.014-.02 -.015-.019 -.015-.02 -.016-.019 -.017-.018 -.017-.018 -.017-.018 -.018-.017 -.018-.017 -.018-.017 -.019-.015 -.02-.016 -.019-.015 -.02-.014 -.02-.014 -.021-.013 -.021-.013 -.021-.012 -.021-.012 -.022-.011 -.022-.011 -.022-.01 -.022-.01 -.023-.009 -.023-.008 -.023-.008 -.023-.008 -.024-.007 -.023-.006 -.024-.005 -.024-.006 -.024-.004 -.024-.004 -.025-.003 -.024-.003 -.025-.002 -.024-.002 -.025-.001h-.031Z"/></g></g></svg>