<svg viewBox="0 0 32 32" xmlns="http://www.w3.org/2000/svg" xmlns:xlink="http://www.w3.org/1999/xlink"><defs><clipPath id="a"><use clip-rule="evenodd" xlink:href="#b"/></clipPath><path id="b" d="M0 0h32v32H0Z"/></defs><use fill="none" fill-rule="evenodd" xlink:href="#b"/><g clip-path="url(#a)"><g fill="#1C447F" fill-rule="evenodd"><path d="M31 15c0-3.978-1.58-7.794-4.393-10.607C23.794 1.58 19.978 0 16 0 12.022 0 8.206 1.58 5.393 4.393 2.58 7.206 1 11.022 1 15v2c0 3.978 1.58 7.794 4.393 10.607C8.206 30.42 12.022 32 16 32c3.978 0 7.794-1.58 10.607-4.393C29.42 24.794 31 20.978 31 17c0-.666 0-1.334 0-2Z"/><path fill="#B73535" d="M29 14H3v3c0 3.448 1.37 6.754 3.808 9.192C9.246 28.63 12.552 30 16 30c3.448 0 6.754-1.37 9.192-3.808C27.63 23.754 29 20.448 29 17c0-1.774 0-3 0-3Z"/><path fill="#EF5353" d="M16 2a13 13 0 1 0 0 26 13 13 0 1 0 0-26Z"/><path fill="#FFF" d="M26 13c0-.265-.105-.52-.293-.707C25.52 12.105 25.265 12 25 12c-3.414 0-14.586 0-18 0 -.265 0-.52.105-.707.293C6.105 12.48 6 12.735 6 13v4c0 .265.105.52.293.707 .187.188.442.293.707.293h18c.265 0 .52-.105.707-.293 .188-.187.293-.442.293-.707 0-1.11 0-2.89 0-4Z"/></g></g></svg>