<svg viewBox="0 0 32 32" xmlns="http://www.w3.org/2000/svg" xmlns:xlink="http://www.w3.org/1999/xlink"><defs><path d="M20.776 20.597c-.118 0-.219-.044-.302-.132 -.083-.088-.124-.195-.124-.321l-.604-16.313c0-.302.142-.453.426-.453h5.047c.284 0 .426.151.426.453l-.604 16.313c0 .126-.042.233-.124.321 -.083.088-.184.132-.303.132Zm1.671 9.176c-.901 0-1.641-.308-2.221-.925 -.581-.617-.871-1.403-.871-2.36 0-.957.29-1.737.871-2.341 .58-.604 1.32-.906 2.221-.906 .9 0 1.64.302 2.221.906 .58.604.87 1.384.87 2.341 0 .932-.29 1.712-.87 2.341 -.581.63-1.321.944-2.221.944Z" id="b"/><path d="M20.776 19.597c-.118 0-.219-.044-.302-.132 -.083-.088-.124-.195-.124-.321l-.604-16.313c0-.302.142-.453.426-.453h5.047c.284 0 .426.151.426.453l-.604 16.313c0 .126-.042.233-.124.321 -.083.088-.184.132-.303.132Zm1.671 9.176c-.901 0-1.641-.308-2.221-.925 -.581-.617-.871-1.403-.871-2.36 0-.957.29-1.737.871-2.341 .58-.604 1.32-.906 2.221-.906 .9 0 1.64.302 2.221.906 .58.604.87 1.384.87 2.341 0 .932-.29 1.712-.87 2.341 -.581.63-1.321.944-2.221.944Z" id="d"/><path d="M7.776 19.597c-.118 0-.219-.044-.302-.132 -.083-.088-.124-.195-.124-.321L6.746 2.831c0-.302.142-.453.426-.453h5.047c.284 0 .426.151.426.453l-.604 16.313c0 .126-.042.233-.124.321 -.083.088-.184.132-.303.132Zm1.671 9.176c-.901 0-1.641-.308-2.221-.925 -.581-.617-.871-1.403-.871-2.36 0-.957.29-1.737.871-2.341 .58-.604 1.32-.906 2.221-.906 .9 0 1.64.302 2.221.906 .58.604.87 1.384.87 2.341 0 .932-.29 1.712-.87 2.341 -.581.63-1.321.944-2.221.944Z" id="c"/><path d="M7.776 20.597c-.118 0-.219-.044-.302-.132 -.083-.088-.124-.195-.124-.321L6.746 3.831c0-.302.142-.453.426-.453h5.047c.284 0 .426.151.426.453l-.604 16.313c0 .126-.042.233-.124.321 -.083.088-.184.132-.303.132Zm1.671 9.176c-.901 0-1.641-.308-2.221-.925 -.581-.617-.871-1.403-.871-2.36 0-.957.29-1.737.871-2.341 .58-.604 1.32-.906 2.221-.906 .9 0 1.64.302 2.221.906 .58.604.87 1.384.87 2.341 0 .932-.29 1.712-.87 2.341 -.581.63-1.321.944-2.221.944Z" id="a"/></defs><g fill="none" fill-rule="evenodd"><path d="M0 0v32h32V0Z"/><g stroke="#1C447F" fill-rule="evenodd" stroke-miterlimit="1.41421" stroke-width="4" fill="none" stroke-linejoin="round"><use xlink:href="#a"/><use xlink:href="#b"/><use xlink:href="#c"/><use xlink:href="#d"/></g></g><g fill="#B2D3DE"><use xlink:href="#a"/><use xlink:href="#b"/></g><g fill="#FFF"><use xlink:href="#c"/><use xlink:href="#d"/></g></svg>