<svg viewBox="0 0 32 32" xmlns="http://www.w3.org/2000/svg" xmlns:xlink="http://www.w3.org/1999/xlink"><defs><clipPath id="a"><use clip-rule="evenodd" xlink:href="#b"/></clipPath><path id="b" d="M0 0h32v32H0Z"/></defs><use fill="none" fill-rule="evenodd" xlink:href="#b"/><g clip-path="url(#a)"><g fill="#1C447F" fill-rule="evenodd"><path d="M3 2C3.048.517 4.546-.409 5.894.211l7.919 3.959C14.525 4.058 15.256 4 16 4h.002l.348.004c.115.005.231.009.346.013l.304.019V2c0-.809.487-1.538 1.235-1.848 .747-.309 1.607-.138 2.179.434 0 0 .231.231.536.535 .562.563 1.325.879 2.121.879H24c1.105 0 2 .895 2 2v3c0 .347-.089.674-.245.959l.145.141c.75.75 1.407 1.577 1.961 2.463 .159-.025.317-.064.471-.115 .567-.189 1.036-.345 1.036-.345 .609-.204 1.28-.101 1.801.275 .522.375.831.979.831 1.622v3c0 .861-.551 1.625-1.368 1.897l-.661.221c.02.292.029.585.029.88V19c0 1.352-.211 2.682-.615 3.947 .201.035.406.053.614.053H30c.738 0 1.415.406 1.763 1.056 .348.651.31 1.44-.099 2.053l-2 3c-.371.557-.995.891-1.664.891h-.001c-.706 0-1.399-.098-2.062-.286l-.109.114C25.078 30.579 24.061 31 23 31h-1.003c-1.568.654-3.265 1-4.997 1 -.665 0-1.335 0-2 0 -3.448 0-6.754-1.37-9.192-3.808 -.206-.205-.404-.417-.594-.635C4.174 27.85 3.093 28 2 28c-.643 0-1.247-.309-1.622-.831 -.376-.521-.479-1.192-.275-1.801l1-3c.181-.544.58-.97 1.081-1.193C2.062 20.461 2 19.734 2 19v-1c0-2.034.434-3.967 1.214-5.71C3.073 11.878 3 11.443 3 11v-.101c-.555-.256-1.092-.557-1.605-.899 -.301-.2-.504-.336-.504-.336C-.028 9.051-.277 7.81.336 6.891l2-3c.172-.259.401-.471.664-.622V2Z"/><g fill="#EF5353"><path d="M23 25s.136.204.336.505C24.376 27.064 26.125 28 27.999 28H28l2-3h-.001c-1.874 0-3.623-.936-4.663-2.495C25.136 22.204 25 22 25 22Z"/><path d="M2 8l2-3c1.281 1.281 3.017 2 4.828 2H10l-2 3c-1.956 0-3.869-.579-5.496-1.664C2.203 8.135 2 8 2 8Z"/></g><path fill="#EAD361" d="M4.756 23.007C4.261 21.742 4 20.385 4 19v-1C4 11.373 9.373 6 16 6h.002c.342 0 .683.015 1.022.044l7.03 3.059c.147.133.291.27.432.411 1.278 1.278 2.237 2.814 2.828 4.486 0 0 .179 2.489.682 3.671 .003.109.004.218.004.327V19c0 2.917-1.159 5.715-3.222 7.778C22.715 28.841 19.917 30 17 30h-2c-2.706 0-5.309-.997-7.318-2.788 -.212-1.509-1.917-3.738-2.926-4.205Z"/><path fill="#FFA32B" d="M4.756 23.007c.946.036 1.884.206 2.784.506C8.276 23.759 9 24 9 24l-1 3 -.318.212c-.157-.14-.311-.284-.46-.434 -1.084-1.084-1.918-2.37-2.466-3.771ZM27.314 14c.414 1.171.647 2.409.682 3.671 -.88-.734-1.894-1.304-2.996-1.671l1-2Zm-10.29-7.956c2.61.223 5.081 1.295 7.03 3.059l-2.036.221c-1.827.199-3.593-.723-4.476-2.334Z"/></g><g fill="#1C447F"><path d="M25.207 16.793c.391.39.391 1.024 0 1.414 -.39.391-1.024.391-1.414 0C23.054 17.468 22 16.414 22 16.414s-1.071 1.071-1.811 1.811c-.183.183-.431.286-.689.286 -.258 0-.506-.103-.689-.286 -.193-.192-.301-.453-.301-.725 0-.272.108-.533.301-.725C19.942 15.644 22 13.586 22 13.586s2.08 2.079 3.207 3.207Z"/><path d="M13.208 16.794c.187.187.292.441.292.706 0 .265-.105.519-.292.706 0 .001-.001.001-.001.001 -.39.391-1.024.391-1.414 0C11.054 17.468 10 16.414 10 16.414s-1.071 1.071-1.811 1.811c-.183.183-.431.286-.689.286 -.258 0-.506-.103-.689-.286 -.193-.192-.301-.453-.301-.725 0-.272.108-.533.301-.725C7.942 15.644 10 13.586 10 13.586s2.08 2.08 3.208 3.208Z"/></g><g fill="#465794" fill-rule="evenodd"><path d="M10.196 12.392c-.941.395-1.966.608-3.023.608 -.058 0-.116 0-.173 0 -.53 0-1.039-.211-1.414-.586C5.211 12.039 5 11.53 5 11c0-3.172 0-9 0-9l1.45 1.366 4.169 7.123Z"/><path fill="#5E688D" d="M10.196 12.392L5 2s5.47 2.735 8.318 4.159c.929.465 1.306 1.594.841 2.523v.001c-.851 1.7-2.271 2.998-3.963 3.709Z"/><path fill="#B2D3DE" d="M14 22.91c0 .059.01.119.029.176 .162.488.985 2.957 1.515 4.546 .272.817 1.037 1.368 1.898 1.368H21c1.105 0 2-.895 2-2s-3.072-3.687-4.4-5.28c-.38-.456-.943-.72-1.537-.72 -.346 0-.753 0-1.155 0C14.854 21 14 21.854 14 22.908Z"/><path fill="#5A89A0" d="M25 27c0-.53-.211-1.039-.586-1.414C24.039 25.211 23.53 25 23 25c-1.488 0-3.512 0-5 0 -.53 0-1.039.211-1.414.586s-.586.884-.586 1.414c0 .53.211 1.039.586 1.414s.884.586 1.414.586h5c.53 0 1.039-.211 1.414-.586s.586-.884.586-1.414Z"/><g fill="#EF5353"><path d="M2 26l1-3c1.956 0 3.869-.579 5.496-1.664C8.797 21.135 9 21 9 21l-1 3s-.203.135-.504.336C5.869 25.421 3.956 26 2 26Z"/><path d="M30 15v-3s-.468.156-1.035.345c-1.258.419-2.631.322-3.817-.271C25.055 12.028 25 12 25 12v3s.055.028.148.074c1.186.593 2.559.69 3.817.271C29.532 15.156 30 15 30 15Z"/><path d="M24 7V4h-.929c-1.326 0-2.598-.527-3.535-1.464C19.231 2.231 19 2 19 2v3s.231.231.536.536C20.473 6.473 21.745 7 23.071 7Z"/></g></g></g></svg>