<svg viewBox="0 0 32 32" xmlns="http://www.w3.org/2000/svg"><g fill="none" fill-rule="evenodd"><path d="M0 0h32v32H0Z"/><path fill="#1C447F" d="M32 8c0-4.418-3.582-8-8-8C19.113 0 12.887 0 8 0 3.582 0 0 3.582 0 8v16c0 4.418 3.582 8 8 8h16c4.418 0 8-3.582 8-8 0-4.887 0-11.113 0-16Z"/><path fill="#FFF" d="M24 30c1.591 0 3.117-.632 4.243-1.757C29.368 27.117 30 25.591 30 24c0-4.724 0-11.276 0-16 0-1.591-.632-3.117-1.757-4.243C27.117 2.632 25.591 2 24 2 19.276 2 12.724 2 8 2c-1.591 0-3.117.632-4.243 1.757C2.632 4.883 2 6.409 2 8v16c0 1.591.632 3.117 1.757 4.243C4.883 29.368 6.409 30 8 30Z"/><path fill="#1C447F" d="M10.49 24.162c-.309.174-.688.171-.995-.009 -.307-.179-.495-.508-.495-.863 0-3.436 0-11.144 0-14.58 0-.355.188-.684.495-.863 .307-.18.686-.183.995-.009 3.03 1.705 9.882 5.559 12.961 7.29 .314.178.509.511.509.872s-.195.694-.509.872c-3.079 1.731-9.931 5.585-12.961 7.29Z"/></g></svg>