<svg viewBox="0 0 32 32" xmlns="http://www.w3.org/2000/svg" xmlns:xlink="http://www.w3.org/1999/xlink"><defs><clipPath id="a"><use clip-rule="evenodd" xlink:href="#b"/></clipPath><path id="b" d="M0 0h32v32H0Z"/></defs><use fill="none" fill-rule="evenodd" xlink:href="#b"/><g clip-path="url(#a)"><g fill="#1C447F" fill-rule="evenodd"><path d="M20.021 3.553c1.42-1.898 3.835-2.959 6.286-2.551l.041.008 .021.004h.002c1.79.297 3.372 1.333 4.365 2.847 .994 1.515 1.311 3.38.871 5.139v.002c-.614 2.456-1.457 5.831-2.039 8.16l-.002.002c-.335 1.339-1.082 2.487-2.075 3.337 .652.638 1.059 1.525 1.059 2.499 0 1.92-1.58 3.5-3.501 3.5 -.016 0-.032 0-.049 0h-.486c.024.163.036.33.036.5 0 1.92-1.58 3.5-3.501 3.5 -.016 0-.033 0-.049 0h-9.025c-.269 0-.536.044-.791.129 -1.446.482-4.077 1.359-4.077 1.359 -.357.119-.731.18-1.107.18 -1.921 0-3.501-1.58-3.501-3.501 0-1.137.553-2.182 1.44-2.829 -.233-.38-.395-.807-.468-1.262 -1.802-.133-3.243-1.657-3.243-3.49 0-.316.043-.631.127-.936 0 0 1.756-7.019 3.006-12.021 -1.167-.598-1.903-1.804-1.903-3.115 0-1.519.988-2.872 2.435-3.334 0 0 .805-.269 1.58-.528 .744-.248 1.535-.28 2.281-.119 .746.162 1.449.518 2.023 1.051 .197.182.374.381.531.593 1.438-1.335 3.456-2.015 5.499-1.675l.041.008 .021.004h.002c1.666.277 3.151 1.192 4.15 2.539Z"/><path fill="#FFF" d="M22.512 26.835c.006.054.009.109.009.165 0 .823-.677 1.5-1.5 1.5H21h-9.025c-.484 0-.965.077-1.424.23 -1.446.483-4.076 1.36-4.076 1.36 -.161.057-.33.085-.5.085 -.823 0-1.5-.677-1.5-1.5 0-.653.427-1.235 1.05-1.431l1.227-.409L9 26.5h13Z"/><path fill="#5E688D" d="M22.512 26.835H6.752c.88-.293 2.048-.683 2.85-.95 .765-.255 1.566-.385 2.373-.385H21h.021c.767 0 1.408.588 1.491 1.335Zm3.95-3.418c-.183.623-.762 1.083-1.441 1.083H25 10.975c-.484 0-.965.077-1.424.23 -.882.295-2.076.694-2.076.694 -.153.051-.314.077-.475.077 -.823 0-1.501-.678-1.501-1.501 0-.205.042-.402.119-.583L6.5 23H26Z"/><path fill="#5A89A0" d="M26.462 23.417H5.618c.164-.389.49-.702.907-.841 0 0 1.196-.397 2.077-.691 .765-.255 1.566-.385 2.373-.385H25h.021c.823 0 1.5.677 1.5 1.5 0 .144-.02.284-.059.417ZM5.503 20.171l-.298 1.192c-.153.682-.764 1.171-1.463 1.171 -.823 0-1.501-.677-1.501-1.5 0-.134.018-.268.054-.397l.116-.466L3 20h2Z"/><path fill="#EF5353" d="M6.763 15.132l-.362 1.448L6 17H3.644l-.335-.42 .335-1.342 .519-2.076L4.5 13H7l.256.162Zm4.993-1.97c-.18.721-.354 1.416-.512 2.049 -.102.408-.029.837.201 1.187 .043.065.09.126.14.182L11 17H9l-.688-.42c-.157-.683-.153-1.401.02-2.096v-.002c.104-.417.215-.86.33-1.32L9 13h2Zm6.25 0c-.306 1.223-.604 2.413-.855 3.418L16.5 17h-2l-.609-.42c.151-.174.265-.388.326-.631 .206-.827.446-1.785.696-2.787L15.5 13h2Zm4.25 0c-.18.721-.354 1.416-.512 2.049 -.102.408-.029.837.201 1.187 .043.065.09.126.14.182L21.5 17h-2l-.688-.42c-.157-.683-.153-1.401.02-2.096v-.002c.104-.417.215-.86.33-1.32L19.5 13h2Zm6.25 0c-.306 1.223-.604 2.413-.855 3.418L27 17h-2l-.609-.42c.151-.174.265-.388.326-.631 .206-.827.446-1.785.696-2.787L26 13h2Z"/><path fill="#B2D3DE" d="M3.309 16.58h3.092l-.898 3.591H2.411Zm13.842 0l-.024.096v.002c-.567 2.261-2.804 3.731-5.106 3.347l-.017-.003 -.013-.004s-.001 0-.003 0h.003c-.002 0-.026-.003-.034-.004 -1.238-.206-2.334-.922-3.021-1.971 -.296-.451-.506-.947-.624-1.463h3.273c.226.251.531.419.866.475l.018.002 .014.003c.011.002.032.006.066.012l-.035-.008c.538.09 1.047-.104 1.377-.484Zm10.5 0l-.024.096v.002c-.567 2.261-2.804 3.731-5.106 3.347l-.017-.003 -.013-.004s-.001 0-.003 0h.003c-.002 0-.026-.003-.034-.004 -1.238-.206-2.334-.922-3.021-1.971 -.296-.451-.506-.947-.624-1.463h3.273c.226.251.531.419.866.475l.018.002 .014.003c.011.002.032.006.066.012l-.035-.008c.538.09 1.047-.104 1.377-.484Zm-4.668.48c-.01-.002-.009-.002.003.001Zm-10.5 0c-.01-.002-.009-.002.003.001Z"/><path fill="#EAD361" d="M5.807 6.584l.074-.297c-.092.031-.406.137-.406.137 -.153.051-.314.077-.475.077 -.823 0-1.501-.678-1.501-1.501 0-.644.415-1.22 1.026-1.424 0 0 .805-.266 1.58-.525 .401-.134.824-.153 1.225-.067 .401.087.779.28 1.088.567 .617.572.88 1.444.674 2.265l-.192.768L8 7H6Zm4.501 0l.065-.26v-.002c.567-2.261 2.804-3.731 5.106-3.347l.017.004 .014.003c-.001 0 0 0 .002 0h-.002c.002 0 .025.003.031.004h.002c1.238.206 2.334.922 3.021 1.971 .328.499.549 1.053.658 1.627L19 7h-2l-.957-.416c-.23-.341-.59-.572-.994-.639l-.018-.002 -.014-.003c-.011-.002-.032-.006-.066-.012l.035.007c-.611-.101-1.185.163-1.501.649L13 7h-2Zm10.5 0l.065-.26v-.002c.567-2.261 2.804-3.731 5.106-3.347l.017.004 .014.003c-.001 0 0 0 .002 0h-.002c.002 0 .025.003.031.004h.002c1.238.206 2.334.922 3.021 1.971 .328.499.549 1.053.658 1.627L29 7h-2l-.457-.416c-.23-.341-.59-.572-.994-.639l-.018-.002 -.014-.003c-.011-.002-.032-.006-.066-.012l.035.007c-.611-.101-1.185.163-1.501.649L23.5 7H21Zm4.709-.644c.01.002.009.002-.003-.001Zm-10.5 0c.01.002.009.002-.003-.001Z"/><path fill="#FFA32B" d="M5.807 6.584H8.9l-.79 3.16L7.5 10h-2l-.483-.256Zm13.415 0c.121.634.105 1.293-.054 1.932v.002l-.307 1.226L18.5 10h-2l-.733-.256 .489-1.955c.102-.408.029-.837-.201-1.187 -.004-.006-.008-.012-.012-.018Zm-5.737 0c-.09.139-.159.295-.202.467l-.673 2.693L12 10h-2l-.482-.256c.281-1.124.554-2.217.79-3.16Zm16.237 0c.121.634.105 1.293-.054 1.932v.002l-.307 1.226L29 10h-2l-.733-.256 .489-1.955c.102-.408.029-.837-.201-1.187 -.004-.006-.008-.012-.012-.018Zm-5.737 0c-.09.139-.159.295-.202.467l-.673 2.693 -.61.256h-2l-.482-.256c.281-1.124.554-2.217.79-3.16Z"/><path fill="#E4782E" d="M8.051 9.981l-.795 3.181H4.163l.658-2.635 .196-.783H8.11Zm4.312.754l-.607 2.427H8.662c.272-1.088.568-2.269.856-3.418h3.092Zm6.246.018l-.603 2.409h-3.093c.281-1.126.576-2.307.854-3.418h3.094Zm4.254-.018l-.607 2.427h-3.094c.272-1.088.568-2.269.856-3.418h3.092Zm6.246.018l-.603 2.409h-3.093c.281-1.126.576-2.307.854-3.418h3.094Z"/></g></g></svg>