<svg viewBox="0 0 32 32" xmlns="http://www.w3.org/2000/svg" xmlns:xlink="http://www.w3.org/1999/xlink"><defs><clipPath id="a"><use clip-rule="evenodd" xlink:href="#c"/></clipPath><clipPath id="b"><use clip-rule="evenodd" xlink:href="#d"/></clipPath><path id="c" d="M0 0h32v32H0Z"/><path id="d" d="M2 6h28v20H2Z"/></defs><use fill="none" fill-rule="evenodd" xlink:href="#c"/><g fill="#1C447F"><g fill-rule="evenodd"><path d="M32 6c0-.53-.211-1.039-.586-1.414C31.039 4.211 30.53 4 30 4 24.254 4 7.746 4 2 4c-.53 0-1.039.211-1.414.586C.211 4.961 0 5.47 0 6v20c0 .53.211 1.039.586 1.414C.961 27.789 1.47 28 2 28h28c.53 0 1.039-.211 1.414-.586s.586-.884.586-1.414c0-4.52 0-15.48 0-20Z"/><use fill="none" xlink:href="#d"/></g><g fill="#1C447F"><g fill="#FAD644" fill-rule="evenodd"><path d="M1 22h30v5H1Z"/><path fill="#F08D19" d="M1 19.5h30v4H1Z"/><path fill="#E4782E" d="M1 17h30v4H1Z"/><path fill="#Ef5353" d="M1 14h30v4.5H1Z"/><path fill="#b2d3de" d="M1 12h30v4H1Z"/><path fill="#5B8AA0" d="M1 10h30v3.5H1Z"/><path fill="#5E688D" d="M1 7.5h30V11H1Z"/><path fill="#1C447F" d="M1 5.5h30v3H1Z"/></g></g></g></svg>