<svg viewBox="0 0 32 32" xmlns="http://www.w3.org/2000/svg" xmlns:xlink="http://www.w3.org/1999/xlink"><defs><clipPath id="a"><use clip-rule="evenodd" xlink:href="#b"/></clipPath><path id="c" d="M12.535 21.164c-.118 0-.219-.044-.302-.133 -.083-.088-.124-.195-.124-.321v-.906c0-.956.177-1.781.533-2.473 .355-.693.782-1.259 1.279-1.7 .498-.44 1.149-.95 1.955-1.529 .9-.604 1.557-1.133 1.972-1.586 .415-.453.622-.994.622-1.624 0-.679-.249-1.214-.746-1.605 -.498-.39-1.161-.585-1.991-.585 -.9 0-1.616.22-2.15.661 -.533.44-.799 1.013-.799 1.718v.416c0 .276-.142.415-.427.415l-5.046-.227c-.118 0-.219-.031-.302-.094 -.083-.063-.124-.145-.124-.246v-.264c0-1.586.379-2.989 1.137-4.21C8.78 5.65 9.84 4.699 11.202 4.02 12.565 3.34 14.122 3 15.876 3c1.729 0 3.239.315 4.531.944 1.291.629 2.286 1.517 2.985 2.662 .699 1.146 1.048 2.474 1.048 3.984 0 1.133-.189 2.096-.568 2.889 -.38.793-.836 1.441-1.369 1.945 -.533.503-1.214 1.045-2.043 1.624 -.829.579-1.445 1.088-1.848 1.529 -.403.44-.604.975-.604 1.605v.528c0 .126-.042.233-.125.321 -.082.089-.183.133-.302.133Zm2.31 8.798c-.877 0-1.605-.308-2.186-.925 -.58-.617-.87-1.403-.87-2.36 0-.982.284-1.775.853-2.379 .568-.604 1.303-.906 2.203-.906 .9 0 1.641.302 2.221.906 .581.604.871 1.397.871 2.379 0 .931-.29 1.712-.871 2.341 -.58.63-1.321.944-2.221.944Z"/><path id="d" d="M12.535 20.164c-.118 0-.219-.044-.302-.133 -.083-.088-.124-.195-.124-.321v-.906c0-.956.177-1.781.533-2.473 .355-.693.782-1.259 1.279-1.7 .498-.44 1.149-.95 1.955-1.529 .9-.604 1.557-1.133 1.972-1.586 .415-.453.622-.994.622-1.624 0-.679-.249-1.214-.746-1.605 -.498-.39-1.161-.585-1.991-.585 -.9 0-1.616.22-2.15.661 -.533.44-.799 1.013-.799 1.718v.416c0 .276-.142.415-.427.415l-5.046-.227c-.118 0-.219-.031-.302-.094 -.083-.063-.124-.145-.124-.246v-.264c0-1.586.379-2.989 1.137-4.21C8.78 4.65 9.84 3.699 11.202 3.02 12.565 2.34 14.122 2 15.876 2c1.729 0 3.239.315 4.531.944 1.291.629 2.286 1.517 2.985 2.662 .699 1.146 1.048 2.474 1.048 3.984 0 1.133-.189 2.096-.568 2.889 -.38.793-.836 1.441-1.369 1.945 -.533.503-1.214 1.045-2.043 1.624 -.829.579-1.445 1.088-1.848 1.529 -.403.44-.604.975-.604 1.605v.528c0 .126-.042.233-.125.321 -.082.089-.183.133-.302.133Zm2.31 8.798c-.877 0-1.605-.308-2.186-.925 -.58-.617-.87-1.403-.87-2.36 0-.982.284-1.775.853-2.379 .568-.604 1.303-.906 2.203-.906 .9 0 1.641.302 2.221.906 .581.604.871 1.397.871 2.379 0 .931-.29 1.712-.871 2.341 -.58.63-1.321.944-2.221.944Z"/><path id="b" d="M0 0v32h32V0Z"/></defs><use fill="none" fill-rule="evenodd" xlink:href="#b"/><g clip-path="url(#a)"><g stroke="#1C447F" fill-rule="evenodd" stroke-miterlimit="1.41421" stroke-width="4" fill="none" stroke-linejoin="round"><use xlink:href="#c"/><use xlink:href="#d"/></g><path fill="#1C447F" fill-rule="evenodd" d="M10 8h10v4H10Z"/><use fill="#B2D3DE" xlink:href="#c"/><use fill="#FFF" xlink:href="#d"/></g></svg>