<svg viewBox="0 0 32 32" xmlns="http://www.w3.org/2000/svg" xmlns:xlink="http://www.w3.org/1999/xlink"><defs><clipPath id="a"><use clip-rule="evenodd" xlink:href="#b"/></clipPath><path id="b" d="M0 0h32v32H0Z"/></defs><use fill="none" fill-rule="evenodd" xlink:href="#b"/><g clip-path="url(#a)"><path fill="none" fill-rule="evenodd" stroke="#1C447F" stroke-linecap="square" stroke-linejoin="round" stroke-miterlimit="3" stroke-width="4" d="M9 18l-2-2s6.017-5.265 7.614-6.663c.256-.223.547-.401.862-.527 1.121-.449 3.877-1.551 4.427-1.771 .065-.026.126-.058.184-.097 .662-.442 4.927-3.285 5.769-3.846 .095-.063.201-.11.312-.138C26.927 2.768 30 2 30 2s-.768 3.073-.958 3.832c-.028.111-.075.217-.138.312 -.547.82-3.261 4.892-3.808 5.712 -.063.095-.11.201-.138.312 -.131.526-.54 2.161-.779 3.117 -.118.47-.347.904-.668 1.266C21.772 18.506 16 25 16 25l-2-2v.969C14 27.3 11.3 30 7.969 30 6.837 30 6 30 6 30l2-3 -4 1 1-4 -3 2s0-.837 0-1.969C2 20.7 4.7 18 8.031 18Z"/><g fill="#EF5353" fill-rule="evenodd"><path d="M14 18s-2.979 0-5.969 0C4.7 18 2 20.7 2 24.031V26l3-2 -1 4 4-1 -2 3h1.969C11.3 30 14 27.3 14 23.969 14 20.979 14 18 14 18Z"/><path fill="#FFA32B" d="M13 19s-1.416 0-3.056 0c-2.875 0-5.35 2.029-5.914 4.848C4.011 23.946 4 24 4 24l3-2 -1 4 4-1 -2 3s.054-.011.152-.03C10.971 27.406 13 24.931 13 22.056 13 20.416 13 19 13 19Z"/><path fill="#EAD361" d="M8 24s.352-1.408.638-2.554c.223-.89.918-1.585 1.808-1.808C11.592 19.352 13 19 13 19s-.352 1.408-.638 2.554c-.223.89-.918 1.585-1.808 1.808C9.408 23.648 8 24 8 24Z"/><path fill="#5E688D" d="M10.2 13.2l1.014-.2 7.344 7.44 .266 1.384L16 25l-9-9Zm6.229-4.771l.865.009 6.491 6.522 .149.974c-.115.222-.257.429-.423.617l-2.335 2.625 -1.282-.228L13 12l-.133-1.133 1.747-1.53c.256-.223.547-.401.862-.527Zm9.937 1.522l-1.132 1.698 -.699-.097 -4.172-4.115 -.012-.671 1.698-1.132 .866.2 3.206 3.202Z"/><path fill="#D7E3E6" d="M15.381 13.381l5.795 5.795 -2.352 2.648L16 19l-2.5 2.5 -3-3L13 16l-.238-.238 -.039-.762 1.807-1.646Zm7.412-4.174l2.441 2.442 -.138.207c-.063.095-.11.201-.138.312 -.131.526-.54 2.161-.779 3.117 -.057.226-.139.444-.245.649L21.5 13.5 19 16l-3-3 1.708-1.708 1.052-.867 2.692-1.139ZM30 2l-.958 3.832c-.028.111-.075.217-.138.312l-2.538 3.807 -2.159-2.158 -.016-.97L28.7 2.524Z"/><path fill="#FFF" d="M15.381 13.381l-2.619 2.381L10.2 13.2l2.667-2.333Zm7.412-4.174l-.205.205c-.385.385-.867.658-1.394.79 -.72.18-1.766.441-2.462.615 -.369.092-.717.254-1.024.475l.792-.792 -2.071-2.071 3.474-1.39c.065-.026.126-.058.184-.097l.264-.176ZM30 2l-5.793 5.793 -2.158-2.159 3.807-2.538c.095-.063.201-.11.312-.138C26.927 2.768 30 2 30 2Z"/><path fill="#5E688D" d="M26.5 4.5c-.276-.276-.724-.276-1 0s-.276.724 0 1l1 1c.276.276.724.276 1 0s.276-.724 0-1c-.305-.305-.695-.695-1-1Z"/></g></g></svg>