<svg viewBox="0 0 32 32" xmlns="http://www.w3.org/2000/svg" xmlns:xlink="http://www.w3.org/1999/xlink"><defs><clipPath id="a"><use clip-rule="evenodd" xlink:href="#b"/></clipPath><path id="b" d="M0 0h32v32H0Z"/></defs><use fill="none" fill-rule="evenodd" xlink:href="#b"/><g clip-path="url(#a)"><g fill="#1C447F" fill-rule="evenodd"><path d="M16 0c4.243 0 8.313 1.686 11.314 4.686C30.314 7.687 32 11.757 32 16v2c0 7.732-6.268 14-14 14 -1.325 0-2.675 0-4 0C6.268 32 0 25.732 0 18v-2C0 7.163 7.163 0 16 0Z"/><path fill="#EAD361" d="M30 16c0-3.713-1.475-7.274-4.101-9.899C23.274 3.475 19.713 2 16 2 8.268 2 2 8.268 2 16v2c0 6.627 5.373 12 12 12h4c6.627 0 12-5.373 12-12Z"/><path fill="#FFF" d="M24.952 11.001c.647.635 1.048 1.519 1.048 2.497V14.5c0 .928-.369 1.818-1.025 2.475C24.319 17.631 23.428 18 22.5 18h-.022c-.92-.006-1.802-.374-2.453-1.025C19.369 16.318 19 15.428 19 14.5c0-.332 0-.668 0-1 0-.928.369-1.818 1.025-2.475 .008-.007.015-.015.023-.022 -.032.157 4.936.156 4.904-.002Z"/><path d="M20.048 11.003C20.702 10.36 21.582 10 22.5 10h.002c.954 0 1.819.382 2.45 1.001 .032.158.048.322.048.489v.003c0 1.376-1.115 2.49-2.49 2.49 -.007 0-.013 0-.02 0 -1.375 0-2.49-1.114-2.49-2.49 0-.001 0-.002 0-.003 0-.167.016-.33.048-.487Z"/><path fill="#FFF" d="M11.952 11.001c.647.635 1.048 1.519 1.048 2.497V14.5c0 .928-.369 1.818-1.025 2.475C11.319 17.631 10.428 18 9.5 18h-.022c-.92-.006-1.802-.374-2.453-1.025C6.369 16.318 6 15.428 6 14.5c0-.332 0-.668 0-1 0-.928.369-1.818 1.025-2.475 .008-.007.015-.015.023-.022 -.032.157 4.936.156 4.904-.002Z"/><path d="M7.048 11.003C7.702 10.36 8.582 10 9.5 10h.002c.954 0 1.819.382 2.45 1.001 .032.158.048.322.048.489v.003c0 1.376-1.115 2.49-2.49 2.49 -.007 0-.013 0-.02 0 -1.375 0-2.49-1.114-2.49-2.49 0-.001 0-.002 0-.003 0-.167.016-.33.048-.487Z"/><path fill="#EF5353" d="M21 22c0-.552-.448-1-1-1 -1.916 0-6.084 0-8 0 -.552 0-1 .448-1 1s.448 1 1 1h8c.552 0 1-.448 1-1Z"/></g></g></svg>