<svg viewBox="0 0 32 32" xmlns="http://www.w3.org/2000/svg" xmlns:xlink="http://www.w3.org/1999/xlink"><defs><clipPath id="a"><use clip-rule="evenodd" xlink:href="#b"/></clipPath><path id="b" d="M0 0h32v32H0Z"/></defs><use fill="none" fill-rule="evenodd" xlink:href="#b"/><g clip-path="url(#a)"><path fill="none" fill-rule="evenodd" stroke="#1C447F" stroke-linecap="round" stroke-linejoin="round" stroke-miterlimit="1.5" stroke-width="4" d="M28 4c0-.53-.211-1.039-.586-1.414C27.039 2.211 26.53 2 26 2 21.48 2 10.52 2 6 2c-.53 0-1.039.211-1.414.586C4.211 2.961 4 3.47 4 4v24c0 .53.211 1.039.586 1.414C4.961 29.789 5.47 30 6 30h20c.53 0 1.039-.211 1.414-.586s.586-.884.586-1.414c0-5.154 0-18.846 0-24Z"/><g fill="#B2D3DE" fill-rule="evenodd"><path d="M28 20H4v8c0 .53.211 1.039.586 1.414C4.961 29.789 5.47 30 6 30h20c.53 0 1.039-.211 1.414-.586s.586-.884.586-1.414c0-2.918 0-8 0-8Z"/><path fill="#5E688D" d="M28 4c0-.53-.211-1.039-.586-1.414C27.039 2.211 26.53 2 26 2 21.48 2 10.52 2 6 2c-.53 0-1.039.211-1.414.586C4.211 2.961 4 3.47 4 4v16c0 .53.211 1.039.586 1.414C4.961 21.789 5.47 22 6 22h20c.53 0 1.039-.211 1.414-.586s.586-.884.586-1.414c0-3.832 0-12.168 0-16Z"/><path fill="#5A89A0" d="M27 18H5v1c0 .53.211 1.039.586 1.414C5.961 20.789 6.47 21 7 21h18c.53 0 1.039-.211 1.414-.586s.586-.884.586-1.414c0-.551 0-1 0-1Z"/><path fill="#F3F3F3" d="M27 5c0-.53-.211-1.039-.586-1.414C26.039 3.211 25.53 3 25 3 20.816 3 11.184 3 7 3c-.53 0-1.039.211-1.414.586C5.211 3.961 5 4.47 5 5v13c0 .53.211 1.039.586 1.414C5.961 19.789 6.47 20 7 20h18c.53 0 1.039-.211 1.414-.586s.586-.884.586-1.414c0-3.271 0-9.729 0-13Z"/><path fill="#5A89A0" d="M19 24c0-.552-.448-1-1-1 -2.577 0-9.423 0-12 0 -.552 0-1 .448-1 1v4c0 .552.448 1 1 1h12c.552 0 1-.448 1-1 0-1.11 0-2.89 0-4Z"/><g fill="#EAD361"><path d="M10 26.5c0-.133-.053-.26-.146-.354C9.76 26.053 9.633 26 9.5 26c-.769 0-2.231 0-3 0 -.133 0-.26.053-.354.146 -.093.094-.146.221-.146.354v1c0 .133.053.26.146.354 .094.093.221.146.354.146h3c.133 0 .26-.053.354-.146 .093-.094.146-.221.146-.354 0-.305 0-.695 0-1Z"/><path d="M15 26.5c0-.133-.053-.26-.146-.354 -.094-.093-.221-.146-.354-.146 -.769 0-2.231 0-3 0 -.133 0-.26.053-.354.146 -.093.094-.146.221-.146.354v1c0 .133.053.26.146.354 .094.093.221.146.354.146h3c.133 0 .26-.053.354-.146 .093-.094.146-.221.146-.354 0-.305 0-.695 0-1Z"/></g><g fill="#FFF"><path d="M23 24c0-.552-.448-1-1-1 -.322 0-.678 0-1 0 -.552 0-1 .448-1 1v4c0 .552.448 1 1 1h1c.552 0 1-.448 1-1 0-1.11 0-2.89 0-4Z"/><path d="M27 24c0-.552-.448-1-1-1 -.322 0-.678 0-1 0 -.552 0-1 .448-1 1v4c0 .552.448 1 1 1h1c.552 0 1-.448 1-1 0-1.11 0-2.89 0-4Z"/></g></g></g></svg>