<svg viewBox="0 0 32 32" xmlns="http://www.w3.org/2000/svg" xmlns:xlink="http://www.w3.org/1999/xlink"><defs><clipPath id="a"><use clip-rule="evenodd" xlink:href="#b"/></clipPath><path id="b" d="M0 0h32v32H0Z"/></defs><use fill="none" fill-rule="evenodd" xlink:href="#b"/><g clip-path="url(#a)"><g fill="#1C447F" fill-rule="evenodd"><path d="M16 0c3.978 0 7.794 1.58 10.607 4.393C29.42 7.206 31 11.022 31 15v1.004c0 2.567-.705 5.062-2.009 7.224 .006.09.009.181.009.272v2.008c0 .163.02.326.06.485L30.562 32H20v-2.324c-.976.214-1.981.324-2.996.324h-2.008c-1.015 0-2.02-.11-2.996-.324V32H1.438l1.502-6.007c.04-.159.06-.322.06-.485V23.5c0-.091.003-.182.009-.272C1.705 21.066 1 18.571 1 16.004V15C1 6.716 7.716 0 16 0Z"/><path fill="#B2D3DE" d="M21.967 9.902c-6.633-.28-16.11-.056-18.195.674C5.581 5.575 10.373 2 16 2h.081c.307.002.614.015.919.039 .94.362 1.937.567 3 .592 .338.109.672.232 1 .369 0 0 .829 6.848.96 6.899Zm5.983-.019c.098.228.189.458.274.692 -.152.041-.624-.008-.839-.054 .127-.162.405-.476.565-.638ZM24 4.753c.346.27.68.559 1 .866l.671 3.791c.002.204-.341.631-.55.681l.002.004c-.674-.058-2.422-.108-3.224-.149l.002-.001C22.048 9.904 24 4.753 24 4.753Z"/><path fill="#5A89A0" d="M25 5.619c.065.062.129.125.192.189 1.182 1.181 2.113 2.567 2.758 4.075 -.052.198-.144.384-.272.545 -.613-.131-1.492-.242-2.555-.333l-.002-.004c-.079-.188-.12-.387-.121-.591ZM21 3c1.069.446 2.079 1.034 3 1.753V8.5c-.001.142-.02.282-.06.419 -.099.343-.323.644-.623.839 -.129.083-.269.146-.416.187l-.002.001c-.303-.016-.614-.03-.932-.044l-.007-.003c-.131-.051-.255-.119-.367-.204 -.26-.198-.451-.479-.538-.794 -.037-.131-.054-.265-.055-.401Zm-4-.961c1.026.079 2.032.279 3 .592V7.5c-.001.191-.036.38-.107.557 -.053.131-.123.254-.21.365 -.297.382-.773.6-1.257.576 -.172-.008-.341-.047-.5-.112 -.17-.071-.327-.172-.46-.299 -.142-.136-.258-.3-.337-.479 -.085-.192-.128-.399-.129-.608V2.039Z"/><path fill="#EAD361" d="M3.964 20.716C3.334 19.241 3 17.64 3 16.004V15c0-1.553.272-3.042.772-4.424 3.011-1.054 6.179-1.593 9.372-1.593h5.712c3.191 0 6.358.539 9.368 1.592C28.733 11.98 29 13.476 29 15v1.004c0 1.636-.334 3.237-.964 4.712C27.217 19.678 20 27.62 20 27.62c-.971.25-1.977.38-2.996.38h-2.008c-1.019 0-2.025-.13-2.996-.38 0 0-7.212-7.949-8.036-6.904Z"/><path fill="#5E688D" d="M3.964 20.716C4.788 19.671 6.066 19 7.5 19h.028c1.183.007 2.317.481 3.154 1.318C11.526 21.162 12 22.307 12 23.5v4.12c-2.058-.531-3.958-1.605-5.486-3.134 -1.094-1.093-1.954-2.375-2.55-3.77ZM20 27.62V23.5c0-1.193.474-2.338 1.318-3.182C22.162 19.474 23.307 19 24.5 19h.029c1.422.009 2.688.678 3.507 1.716 -.596 1.395-1.456 2.677-2.55 3.77 -1.528 1.529-3.428 2.603-5.486 3.134Z"/><path fill="#FFF" d="M9.498 16c-.928 0-1.817-.369-2.473-1.025C6.369 14.319 6 13.43 6 12.502c0-.657 0-1.345 0-2.002C6 8.567 7.567 7 9.5 7h.002c.928 0 1.817.369 2.473 1.025C12.631 8.681 13 9.57 13 10.498V12.5c0 1.933-1.567 3.5-3.5 3.5Z"/><path d="M12 10.5c0-.663-.263-1.299-.732-1.768C10.799 8.263 10.163 8 9.5 8 8.119 8 7 9.119 7 10.5v1.983c0 .663.263 1.299.732 1.768 .469.469 1.105.732 1.768.732 1.381 0 2.5-1.119 2.5-2.5Z"/><path fill="#FFF" d="M22.502 16c.928 0 1.817-.369 2.473-1.025C25.631 14.319 26 13.43 26 12.502c0-.657 0-1.345 0-2.002C26 8.567 24.433 7 22.5 7h-.002c-.928 0-1.817.369-2.473 1.025C19.369 8.681 19 9.57 19 10.498V12.5c0 1.933 1.567 3.5 3.5 3.5Z"/><path d="M20 10.5c0-.663.263-1.299.732-1.768C21.201 8.263 21.837 8 22.5 8c1.381 0 2.5 1.119 2.5 2.5v1.983c0 .663-.263 1.299-.732 1.768 -.469.469-1.105.732-1.768.732 -1.381 0-2.5-1.119-2.5-2.5Z"/><path fill="#EAD361" d="M27 23.5c0-1.381-1.119-2.5-2.5-2.5 -.663 0-1.299.263-1.768.732 -.469.469-.732 1.105-.732 1.768V30h6s-.615-2.461-.881-3.522c-.079-.318-.119-.643-.119-.97ZM10 30H4s.615-2.461.881-3.522c.079-.318.119-.643.119-.97V23.5C5 22.119 6.119 21 7.5 21c.663 0 1.299.263 1.768.732 .469.469.732 1.105.732 1.768Z"/><path fill="#EF5353" d="M13.415 23.523C13.146 23.066 13 22.54 13 22v-4c0-.796.316-1.559.879-2.121C14.441 15.316 15.204 15 16 15c.796 0 1.559.316 2.121.879 .563.562.879 1.325.879 2.121v4c0 .54-.146 1.066-.415 1.523 -.516-.931-4.654-.931-5.17 0Z"/><path fill="#CA4141" d="M13.415 23.523C13.931 22.592 14.916 22 16 22c1.084 0 2.069.592 2.585 1.523 -.128.217-.283.418-.464.598 -.562.563-1.325.879-2.121.879s-1.559-.316-2.121-.879c-.181-.18-.336-.381-.464-.598Z"/></g></g></svg>