<svg viewBox="0 0 32 32" xmlns="http://www.w3.org/2000/svg" xmlns:xlink="http://www.w3.org/1999/xlink"><defs><clipPath id="a"><use clip-rule="evenodd" xlink:href="#b"/></clipPath><path id="b" d="M9.351 3.126s5.14.44 12.649 4.874c5.671 3.349 8 8 8 8v14s-10.79-7.919-15-10c-5.528-2.732-9.932-3.094-9.932-3.094Z"/></defs><g fill="none" fill-rule="evenodd"><path d="M0 0h32v32H0Z"/><path fill="none" fill-rule="evenodd" stroke="#1C447F" stroke-linecap="round" stroke-linejoin="round" stroke-miterlimit="1.5" stroke-width="4" d="M5.068 16.906c-.09-.007-.178-.038-.255-.094 -.175-.127-.248-.353-.181-.559 .577-1.777 1.475-4.539 1.475-4.539s-2.35-1.708-3.862-2.806c-.175-.127-.249-.353-.182-.559 .067-.206.259-.346.476-.346h4.773s.898-2.762 1.475-4.539c.067-.206.259-.346.476-.346 .03 0 .059.003.088.008C9.38 3.131 14.491 3.566 22 8c5.671 3.349 8 8 8 8v14s-10.79-7.919-15-10c-5.528-2.732-9.932-3.094-9.932-3.094Z"/><use fill="#B2D3DE" xlink:href="#b"/></g><g clip-path="url(#a)"><g stroke-linecap="round" stroke="#E4782E" fill-rule="evenodd" stroke-miterlimit="1.5" stroke-width="2" fill="none"><path d="M15 13s2.752.928 7 4c6.976 5.045 10 10 10 10"/><path stroke="#EF5353" d="M9 5s3.067.872 6 2c4.842 1.862 8.919 4.427 13 9"/></g></g><path fill="#EAD361" fill-rule="evenodd" d="M8.787 3.464c.067-.206.259-.346.476-.346 .216 0 .408.14.475.346 .578 1.777 1.475 4.539 1.475 4.539h4.774c.217 0 .408.14.475.346 .067.206-.006.432-.181.559 -1.512 1.098-3.862 2.806-3.862 2.806s.898 2.762 1.475 4.539c.067.206-.006.432-.182.559 -.175.128-.412.128-.587 0 -1.512-1.098-3.862-2.805-3.862-2.805s-2.35 1.707-3.862 2.805c-.175.128-.412.128-.588 0 -.175-.127-.248-.353-.181-.559 .577-1.777 1.475-4.539 1.475-4.539s-2.35-1.708-3.862-2.806c-.175-.127-.249-.353-.182-.559 .067-.206.259-.346.476-.346h4.773c-1e-07 0 .898-2.762 1.475-4.539Z"/></svg>