<svg viewBox="0 0 32 32" xmlns="http://www.w3.org/2000/svg"><g fill="none" fill-rule="evenodd"><path d="M0 0h32v32H0Z"/><path fill="none" fill-rule="evenodd" stroke="#1C447F" stroke-linecap="round" stroke-linejoin="round" stroke-miterlimit="1.5" stroke-width="4" d="M15.086 6.532c.129-.53.401-1.019.793-1.411l1-1c.562-.562 1.325-.878 2.121-.878s1.559.316 2.121.878c.251.251.507.507.758.758 .268.268.48.581.628.922 2.498.742 4.839 1.987 6.87 3.68 .384.32.623.519.623.519v13L2 30V17Z"/><path fill="#FFA32B" d="M2 19v-2l2-1 23-7 3 1v13l-2 .5Z"/><path fill="#EAD361" d="M28 18.5v5L2 30v-5l1-1 24-6ZM2 23v-4l24.757-6.189c.299-.075.616-.008.858.182 .243.189.385.48.385.788V16.5L27 18 3 23.5 2 23Z"/><path fill="#EF5353" d="M28 18.5L2 25v-2l26-6.5Z"/><path fill="#FFF" d="M2 17L17 5c4.523 0 8.903 1.586 12.377 4.481 .384.32.623.519.623.519L2 17Z"/><path fill="#EF5353" d="M16 11c-.265 0-.52-.105-.707-.293C15.105 10.52 15 10.265 15 10V7.243c0-.796.316-1.559.879-2.122l1-1c.562-.562 1.325-.878 2.121-.878s1.559.316 2.121.878c.251.251.507.507.758.758 .562.562.878 1.325.878 2.121s-.316 1.559-.878 2.121c-.353.353-.702.702-1 1 -.563.563-1.326.879-2.122.879 -.85 0-1.964 0-2.757 0Z"/></g></svg>