<svg viewBox="0 0 32 32" xmlns="http://www.w3.org/2000/svg" xmlns:xlink="http://www.w3.org/1999/xlink"><defs><clipPath id="a"><use clip-rule="evenodd" xlink:href="#b"/></clipPath><path id="b" d="M0 0h32v32H0Z"/></defs><use fill="none" fill-rule="evenodd" xlink:href="#b"/><g clip-path="url(#a)"><g fill="#1C447F" fill-rule="evenodd"><path d="M16 0c4.243 0 8.313 1.686 11.314 4.686C30.314 7.687 32 11.757 32 16v3c0 7.18-5.82 13-13 13 -1.972 0-4.028 0-6 0C5.82 32 0 26.18 0 19v-3C0 7.163 7.163 0 16 0Z"/><path fill="#EAD361" d="M30 16c0-3.713-1.475-7.274-4.101-9.899C23.274 3.475 19.713 2 16 2 8.268 2 2 8.268 2 16v3c0 6.075 4.925 11 11 11h6c6.075 0 11-4.925 11-11Z"/><path fill="#FFF" d="M9.502 18c.928 0 1.817-.369 2.473-1.025C12.631 16.319 13 15.43 13 14.502c0-.657 0-1.345 0-2.002C13 10.567 11.433 9 9.5 9h-.002c-.928 0-1.817.369-2.473 1.025C6.369 10.681 6 11.57 6 12.498V14.5C6 16.433 7.567 18 9.5 18Z"/><path d="M8 12c0-.53.211-1.039.586-1.414C8.961 10.211 9.47 10 10 10c.53 0 1.039.211 1.414.586s.586.884.586 1.414v2.983c0 .531-.211 1.039-.586 1.415 -.375.375-.884.585-1.414.585 -.53 0-1.039-.21-1.414-.585 -.375-.376-.586-.884-.586-1.415 0-.935 0-2.047 0-2.983Z"/><path fill="#FFF" d="M22.498 18c-.928 0-1.817-.369-2.473-1.025C19.369 16.319 19 15.43 19 14.502c0-.657 0-1.345 0-2.002 0-1.933 1.567-3.5 3.5-3.5h.002c.928 0 1.817.369 2.473 1.025 .656.656 1.025 1.545 1.025 2.473V14.5c0 1.933-1.567 3.5-3.5 3.5Z"/><path d="M24 12c0-.53-.211-1.039-.586-1.414C23.039 10.211 22.53 10 22 10c-.53 0-1.039.211-1.414.586s-.586.884-.586 1.414v2.983c0 .531.211 1.039.586 1.415 .375.375.884.585 1.414.585 .53 0 1.039-.21 1.414-.585 .375-.376.586-.884.586-1.415 0-.935 0-2.047 0-2.983Z"/><path fill="none" fill-rule="evenodd" stroke="#EF5353" stroke-linecap="round" stroke-miterlimit="1.5" stroke-width="2" d="M8 20s.513.513 1.172 1.172C10.983 22.983 13.439 24 16 24c2.561 0 5.017-1.017 6.828-2.828C23.487 20.513 24 20 24 20"/></g></g></svg>