<svg viewBox="0 0 32 32" xmlns="http://www.w3.org/2000/svg" xmlns:xlink="http://www.w3.org/1999/xlink"><defs><clipPath id="a"><use clip-rule="evenodd" xlink:href="#b"/></clipPath><path id="b" d="M0 0h32v32H0Z"/></defs><use fill="none" fill-rule="evenodd" xlink:href="#b"/><g clip-path="url(#a)"><g fill="#1C447F" fill-rule="evenodd"><path d="M23.409 3.167s2.526.676 3.857 1.033c.513.137.95.473 1.215.932 .768 1.33 2.404 4.163 3.171 5.493 .266.46.337 1.006.2 1.518C31.495 13.474 30.819 16 30.819 16s.676 2.526 1.033 3.857c.137.512.066 1.058-.2 1.518 -.767 1.33-2.403 4.163-3.171 5.493 -.265.459-.702.795-1.215.932 -1.331.357-3.857 1.033-3.857 1.033s-1.862 1.73-2.833 2.632c-.37.344-.857.535-1.362.535 -1.531 0-4.897 0-6.428 0 -.505 0-.992-.191-1.362-.535 -.972-.902-2.833-2.632-2.833-2.632s-2.526-.676-3.857-1.033c-.513-.137-.949-.473-1.215-.932 -.768-1.33-2.403-4.163-3.171-5.493 -.265-.46-.337-1.006-.2-1.518C.505 18.526 1.181 16 1.181 16s-.676-2.526-1.033-3.857c-.137-.512-.065-1.058.2-1.518 .768-1.33 2.403-4.163 3.171-5.493 .266-.459.702-.795 1.215-.932 1.331-.357 3.857-1.033 3.857-1.033s1.861-1.73 2.833-2.632c.37-.344.857-.535 1.362-.535h6.428c.505 0 .992.191 1.362.535 .971.902 2.833 2.632 2.833 2.632Z"/><path fill="#B2D3DE" d="M17 5.586l3-3L21.414 4 17 8.414v.854l4.33 2.5 .74-.427 1.615-6.03 1.932.518 -1.098 4.098 3.105-1.793 1 1.732 -3.105 1.793 4.098 1.098 -.518 1.932 -6.03-1.616 -.739.427v5l.739.427 6.03-1.616 .518 1.932 -4.098 1.098 3.105 1.793 -1 1.732 -3.105-1.793 1.098 4.098 -1.932.518 -1.615-6.03 -.74-.427 -4.33 2.5v.854L21.414 28 20 29.414l-3-3V30h-2v-3.586l-3 3L10.586 28 15 23.586v-.854l-4.33-2.5 -.739.427 -1.616 6.03 -1.932-.518 1.098-4.098 -3.105 1.793 -1-1.732 3.105-1.793 -4.098-1.098 .518-1.932 6.03 1.616 .739-.427v-5l-.739-.427 -6.03 1.616 -.518-1.932 4.098-1.098 -3.105-1.793 1-1.732 3.105 1.793 -1.098-4.098 1.932-.518 1.616 6.03 .739.427 4.33-2.5v-.854L10.586 4 12 2.586l3 3V2h2Zm0 14.837l2.33-1.346L17 17.732Zm-4.33-1.346L15 20.423v-2.691ZM18 16l2.33 1.345v-2.69Zm-6.33 1.345L14 16l-2.33-1.345ZM17 14.268l2.33-1.345L17 11.577Zm-4.33-1.345L15 14.268v-2.691Z"/></g></g></svg>