<svg viewBox="0 0 32 32" xmlns="http://www.w3.org/2000/svg" xmlns:xlink="http://www.w3.org/1999/xlink"><defs><clipPath id="a"><use clip-rule="evenodd" xlink:href="#b"/></clipPath><path id="b" d="M0 0h32v32H0Z"/></defs><use fill="none" fill-rule="evenodd" xlink:href="#b"/><g clip-path="url(#a)"><g fill="#1C447F" fill-rule="evenodd"><path d="M16 0c4.243 0 8.313 1.686 11.314 4.686C30.314 7.687 32 11.757 32 16v2c0 7.732-6.268 14-14 14 -1.325 0-2.675 0-4 0C6.268 32 0 25.732 0 18v-2C0 7.163 7.163 0 16 0Z"/><path fill="#B2D3DE" d="M30 16c0-3.713-1.475-7.274-4.101-9.899C23.274 3.475 19.713 2 16 2 8.268 2 2 8.268 2 16v2c0 6.627 5.373 12 12 12h4c6.627 0 12-5.373 12-12Z"/><path fill="#FFF" d="M9.502 17.842c.928 0 1.817-.368 2.473-1.024 .656-.656 1.025-1.546 1.025-2.474 0-.657 0-1.344 0-2.002 0-1.933-1.567-3.5-3.5-3.5h-.002c-.928 0-1.817.369-2.473 1.025C6.369 10.523 6 11.413 6 12.34v2.002c0 1.933 1.567 3.5 3.5 3.5Z"/><path d="M8 11.842c0-.53.211-1.039.586-1.414s.884-.586 1.414-.586c.53 0 1.039.211 1.414.586s.586.884.586 1.414v2.984c0 .53-.211 1.039-.586 1.414s-.884.586-1.414.586c-.53 0-1.039-.211-1.414-.586s-.586-.884-.586-1.414c0-.936 0-2.048 0-2.984Z"/><path fill="#FFF" d="M22.498 17.842c-.928 0-1.817-.368-2.473-1.024 -.656-.656-1.025-1.546-1.025-2.474 0-.657 0-1.344 0-2.002 0-1.933 1.567-3.5 3.5-3.5h.002c.928 0 1.817.369 2.473 1.025 .656.656 1.025 1.546 1.025 2.473v2.002c0 1.933-1.567 3.5-3.5 3.5Z"/><path d="M24 11.842c0-.53-.211-1.039-.586-1.414s-.884-.586-1.414-.586c-.53 0-1.039.211-1.414.586s-.586.884-.586 1.414v2.984c0 .53.211 1.039.586 1.414s.884.586 1.414.586c.53 0 1.039-.211 1.414-.586s.586-.884.586-1.414c0-.936 0-2.048 0-2.984Z"/><path fill="#EF5353" d="M23 22c0-.552-.448-1-1-1 -2.577 0-9.423 0-12 0 -.552 0-1 .448-1 1s.448 1 1 1h12c.552 0 1-.448 1-1Z"/></g></g></svg>