<svg viewBox="0 0 32 32" xmlns="http://www.w3.org/2000/svg"><g fill="none" fill-rule="evenodd"><path d="M0 0h32v32H0Z"/><path fill="#D96D23" d="M16 0a16 16 0 1 0 0 32 16 16 0 1 0 0-32Z"/><path fill="#EAD361" d="M16 2a14 14 0 1 0 0 28 14 14 0 1 0 0-28Z"/><path fill="none" fill-rule="evenodd" stroke="#FFA32B" stroke-linecap="round" stroke-linejoin="round" stroke-miterlimit="1.5" stroke-width="2" d="M14 19s.128.128.293.293c.453.453 1.067.707 1.707.707 .64 0 1.254-.254 1.707-.707C17.872 19.128 18 19 18 19"/><path fill="none" fill-rule="evenodd" stroke="#FFA32B" stroke-linecap="round" stroke-miterlimit="1.5" stroke-width="2" d="M11 23c1.281 1.281 3.017 2 4.828 2h.344c1.811 0 3.547-.719 4.828-2"/><path fill="#FFF" d="M6.029 13L8 12h4l1 1v.5c0 1.933-1.567 3.5-3.5 3.5h-.002c-.928 0-1.817-.369-2.473-1.025C6.369 15.319 6 14.43 6 13.502s0-.241.029-.502Z"/><path fill="#D96D23" d="M10 11c.907 0 1.744.302 2.437.784 .356.285.563.716.563 1.172V13h-1v1c0 .53-.211 1.039-.586 1.414s-.884.586-1.414.586c-.53 0-1.039-.211-1.414-.586C8.211 15.039 8 14.53 8 14v-1H6.029c.001-.014.003-.029.005-.044 0-.445.203-.867.551-1.145C7.256 11.302 8.093 11 9 11Z"/><path fill="#FFF" d="M25.971 13L24 12h-4l-1 1v.5c0 1.933 1.567 3.5 3.5 3.5h.002c.928 0 1.817-.369 2.473-1.025C25.631 15.319 26 14.43 26 13.502s0-.241-.029-.502Z"/><path fill="#D96D23" d="M22 11c-.907 0-1.744.302-2.437.784 -.356.285-.563.716-.563 1.172V13h1v1c0 .53.211 1.039.586 1.414s.884.586 1.414.586c.53 0 1.039-.211 1.414-.586s.586-.884.586-1.414v-1h1.971c-.001-.014-.003-.029-.005-.044 0-.445-.203-.867-.551-1.145C24.744 11.302 23.907 11 23 11Z"/></g></svg>