<svg viewBox="0 0 32 32" xmlns="http://www.w3.org/2000/svg" xmlns:xlink="http://www.w3.org/1999/xlink"><defs><clipPath id="a"><use clip-rule="evenodd" xlink:href="#c"/></clipPath><clipPath id="b"><use clip-rule="evenodd" xlink:href="#d"/></clipPath><path id="c" d="M0 0h32v32H0Z"/><path id="e" d="M15.241 16.467C15.887 14.457 17.775 13 20 13c2.76 0 5 2.24 5 5 0 .343-.035.679-.1 1h.102C27.762 19 30 21.238 30 23.998v.004C30 26.762 27.762 29 25.002 29c-4.107 0-9.897 0-14.004 0C8.238 29 6 26.762 6 24.002c0-.001 0-.003 0-.004 0-2.427 1.73-4.45 4.025-4.903C10.224 17.354 11.705 16 13.5 16c.634 0 1.229.169 1.741.467Z"/><path id="d" d="M15.241 16.464C15.89 14.455 17.776 13 20 13c2.76 0 5 2.24 5 5 0 .342-.034.677-.1 1h.102C27.762 19 30 21.238 30 23.998v.004C30 26.762 27.762 29 25.002 29c-4.107 0-9.897 0-14.004 0C8.238 29 6 26.762 6 24.002c0-.001 0-.003 0-.004 0-2.427 1.73-4.45 4.023-4.903C10.224 17.354 11.705 16 13.5 16c.634 0 1.228.169 1.741.464Z"/></defs><use fill="none" fill-rule="evenodd" xlink:href="#c"/><g clip-path="url(#a)"><use fill="none" fill-rule="evenodd" stroke="#1C447F" stroke-linecap="square" stroke-width="4" xlink:href="#e"/><g fill="#1C447F" fill-rule="evenodd"><path d="M13 4a9 9 0 1 0 0 18 9 9 0 1 0 0-18Z"/><g stroke="#1C447F" fill-rule="evenodd" stroke-miterlimit="1.5" stroke-width="4" fill="none" stroke-linecap="round" stroke-linejoin="round"><path d="M5.929 5.929h14.142v14.142H5.929Z"/><path d="M23 13L13 3 3 13l10 10Z"/></g><path fill="#EAD361" d="M13 6a7 7 0 1 0 0 14 7 7 0 1 0 0-14Z"/><path fill="#FFF" d="M13 8a5 5 0 1 0 0 10 5 5 0 1 0 0-10Z"/><g fill="#EAD361"><path d="M21 11l2 2 -2 2Z"/><path d="M20.071 17.243v2.828h-2.828Z"/><path d="M15 21l-2 2 -2-2Z"/><path d="M8.757 20.071H5.929v-2.828Z"/><path d="M5 11l-2 2 2 2Z"/><path d="M8.757 5.929H5.929v2.828Z"/><path d="M15 5l-2-2 -2 2Z"/><path d="M20.071 8.757V5.929h-2.828Z"/></g><use fill="#B2D3DE" xlink:href="#e"/><use fill="none" xlink:href="#d"/><path clip-path="url(#b)" fill="#FAFAFA" d="M27 17s-.325-.163-.845-.422c-1.533-.767-3.353-.685-4.81.216C19.887 17.695 19 19.286 19 21c0 1.714-1.14 0-2.5 0 -2.485 0-4.5 2.015-4.5 4.5 0 1.193.474 2.338 1.318 3.182C14.162 29.526 15.307 30 16.5 30H34V17Z"/><path fill="#B2D3DE" d="M20.065 13l.064.002 .064.002 .064.003 .064.003 .063.005 .064.005 .063.006 .063.007 .062.007 .063.009 .062.009 .062.01 .062.01 .061.012 .061.012 .061.013 .061.013 .06.014 .06.016 .06.015 .059.017 .059.017 .059.018 .059.019 .058.019 .058.02 .057.021 .058.021 .057.022 .112.046 .112.049 .11.051 .108.054 .107.057 .106.059 .104.061 .102.064 .101.066 .099.069 .097.071 .095.073 .094.075 .091.078 .09.08 .088.081 .086.084 .084.086 .081.088 .08.09 .078.091 .075.094 .073.095 .071.097 .069.099 .066.101 .064.102 .061.104 .059.106 .057.107 .054.108 .051.11 .049.112 .046.112 .022.057 .021.058 .021.057 .02.058 .019.058 .019.059 .018.059 .017.059 .017.059 .015.06 .016.06 .014.06 .013.061 .013.061 .012.061 .012.061 .01.062 .01.062 .009.062 .009.063 .007.062 .007.063 .006.063 .005.064 .005.063 .003.064 .003.064 .002.064 .002.064V18v.064l-.002.064 -.002.064 -.002.063 -.004.064 -.004.063 -.006.063 -.005.062 -.007.063 -.008.062 -.008.062 -.009.062 -.01.061 -.01.061 -.011.061L24.9 19h.102 .065l.064.002 .064.002 .064.003 .064.003 .064.005 .063.005 .063.006 .063.007 .063.007 .062.008 .062.01 .062.009 .062.011 .061.011 .061.013 .061.012 .061.014 .06.014 .06.015 .06.016 .059.017 .059.017 .059.018 .059.018 .058.02 .058.02 .057.02 .058.022 .057.022 .112.046 .112.049 .11.051 .108.054 .107.056 .106.059 .104.062 .102.063 .1.067 .099.068 .097.071 .096.073 .093.075 .092.078 .09.079 .087.082 .086.084 .084.086 .082.087 .079.09 .078.092 .075.093 .073.096 .071.097 .068.099 .067.1 .063.102 .062.104 .059.106 .056.107 .054.108 .051.11 .049.112 .046.112 .022.057 .022.058 .02.057 .02.058 .02.058 .018.059 .018.059 .017.059 .017.059 .016.06 .015.06 .014.06 .014.061 .012.061 .013.061 .011.061 .011.062 .009.062 .01.062 .008.062 .007.063 .007.063 .006.063 .005.063 .005.064 .003.064 .003.064 .002.064 .002.064v.069 .065l-.002.064 -.002.064 -.003.064 -.003.064 -.005.064 -.005.063 -.006.063 -.007.063 -.007.063 -.008.062 -.01.062 -.009.062 -.011.062 -.011.061 -.013.061 -.012.061 -.014.061 -.014.06 -.015.06 -.016.06 -.017.059 -.017.059 -.018.059 -.018.059 -.02.058 -.02.058 -.02.057 -.022.058 -.022.057 -.046.112 -.049.112 -.051.11 -.054.108 -.056.107 -.059.106 -.062.104 -.063.102 -.067.1 -.068.099 -.071.097 -.073.096 -.075.093 -.078.092 -.079.09 -.082.087 -.084.086 -.086.084 -.087.082 -.09.079 -.092.078 -.093.075 -.096.073 -.097.071 -.099.068 -.1.067 -.102.063 -.104.062 -.106.059 -.107.056 -.108.054 -.11.051 -.112.049 -.112.046 -.057.022 -.058.022 -.057.02 -.058.02 -.058.02 -.059.018 -.059.018 -.059.017 -.059.017 -.06.016 -.06.015 -.06.014 -.061.014 -.061.012 -.061.013 -.061.011 -.062.011 -.062.009 -.062.01 -.062.008 -.063.007 -.063.007 -.063.006 -.063.005 -.064.005 -.064.003 -.064.003 -.064.002 -.064.002h-.065 -14.004 -.065l-.064-.002 -.064-.002 -.064-.003 -.064-.003 -.064-.005 -.063-.005 -.063-.006 -.063-.007 -.063-.007 -.062-.008 -.062-.01 -.062-.009 -.062-.011 -.061-.011 -.061-.013 -.061-.012 -.061-.014 -.06-.014 -.06-.015 -.06-.016 -.059-.017 -.059-.017 -.059-.018 -.059-.018 -.058-.02 -.058-.02 -.057-.02 -.058-.022 -.057-.022 -.112-.046 -.112-.049 -.11-.051 -.108-.054 -.107-.056 -.106-.059 -.104-.062 -.102-.063 -.1-.067 -.099-.068 -.097-.071 -.096-.073 -.093-.075 -.092-.078 -.09-.079 -.087-.082 -.086-.084 -.084-.086 -.082-.087 -.079-.09 -.078-.092 -.075-.093 -.073-.096 -.071-.097 -.068-.099 -.067-.1 -.063-.102 -.062-.104 -.059-.106 -.056-.107 -.054-.108 -.051-.11 -.049-.112 -.046-.112 -.022-.057 -.022-.058 -.02-.057 -.02-.058 -.02-.058 -.018-.059 -.018-.059 -.017-.059 -.017-.059 -.016-.06 -.015-.06 -.014-.06 -.014-.061 -.012-.061 -.013-.061 -.011-.061 -.011-.062 -.009-.062 -.01-.062 -.008-.062 -.007-.063 -.007-.063 -.006-.063 -.005-.063 -.005-.064 -.003-.064 -.003-.064 -.002-.064L6 24.067v-.065 -.004l.001-.113 .004-.113 .006-.112 .009-.112 .011-.111 .014-.11 .016-.109 .018-.109 .02-.108 .023-.107 .025-.106 .028-.105 .029-.104 .032-.103 .034-.103 .036-.101 .038-.1 .041-.1 .042-.098 .044-.097 .046-.096 .049-.095 .05-.094 .052-.092 .054-.091 .056-.09 .058-.089 .06-.088 .061-.086 .063-.084 .065-.084 .066-.081 .069-.081 .07-.079 .071-.077 .073-.076 .075-.075 .076-.072 .078-.072 .079-.069 .081-.068 .082-.066 .084-.065 .085-.063 .086-.061 .088-.059 .089-.057 .09-.056 .091-.054 .093-.051 .094-.05 .095-.048 .096-.046 .098-.044 .098-.042 .1-.04 .1-.037 .102-.036 .103-.034 .103-.031 .105-.029 .105-.027 .106-.025 .107-.022 .011-.081 .012-.081 .014-.08 .016-.08 .017-.079 .02-.078 .021-.077 .023-.077 .024-.076 .027-.075 .027-.075 .03-.073 .031-.073 .033-.072 .034-.071 .036-.07 .037-.069 .039-.069 .04-.067 .042-.066 .043-.066 .045-.064 .046-.063 .047-.062 .049-.062 .05-.059 .052-.059 .052-.058 .054-.056 .055-.056 .056-.054 .058-.052 .059-.052 .059-.05 .061-.049 .062-.048 .064-.046 .064-.045 .065-.043 .066-.042 .067-.04 .069-.039 .069-.038 .07-.036 .071-.034 .072-.033 .072-.032 .074-.029 .074-.028 .075-.027 .076-.025 .077-.023 .077-.021 .078-.02 .079-.017 .08-.016 .08-.015 .08-.012 .082-.011 .081-.008 .083-.007 .083-.005 .083-.003L13.5 16h.059l.059.002 .059.002 .059.004 .058.004 .058.006 .058.006 .057.007 .057.008 .057.009 .057.01 .056.011 .056.012 .056.012 .055.014 .055.014 .054.015 .054.017 .054.017 .054.017 .053.019 .052.019 .053.021 .052.021 .051.022 .051.022 .051.024 .05.024 .05.025 .049.026 .049.026 .048.028 .031-.094 .033-.093 .035-.092 .037-.091 .038-.091 .04-.089 .042-.088 .043-.088 .046-.087 .046-.085 .049-.085 .049-.083 .052-.082 .053-.082 .055-.08 .056-.079 .057-.078 .059-.077 .06-.075 .062-.075 .064-.073 .064-.072 .066-.071 .068-.069 .068-.068 .07-.067 .071-.065 .073-.064 .074-.063 .074-.061 .077-.06 .077-.059 .078-.056 .08-.056 .081-.054 .081-.052 .083-.051 .084-.049 .085-.048 .086-.046 .087-.044 .088-.043 .089-.041 .09-.039 .09-.038 .092-.036 .092-.034 .094-.032 .094-.031 .095-.029 .095-.026 .097-.026 .097-.023 .098-.021 .098-.019 .1-.018 .1-.015 .1-.013 .101-.012 .102-.009 .103-.008 .103-.005 .103-.003L20 13h.065Zm-.149 1.001l-.083.002 -.082.005 -.082.006 -.082.007 -.081.009 -.08.011 -.08.012 -.079.014 -.079.016 -.078.016 -.078.019 -.077.02 -.076.021 -.076.023 -.075.025 -.075.026 -.073.027 -.074.028 -.072.031 -.072.031 -.071.033 -.07.034 -.069.035 -.069.037 -.068.038 -.067.04 -.067.04 -.065.042 -.065.043 -.063.045 -.063.045 -.062.047 -.061.048 -.06.049 -.059.05 -.058.052 -.057.052 -.056.054 -.055.054 -.054.056 -.053.056 -.052.058 -.051.059 -.049.059 -.049.061 -.047.061 -.046.063 -.045.063 -.044.064 -.042.065 -.041.066 -.04.067 -.039.068 -.037.068 -.036.069 -.035.07 -.033.071 -.032.071 -.031.073 -.029.072 -.028.074 -.026.074 -.413 1.234 -1.097-.619 -.035-.019 -.035-.018 -.036-.018 -.035-.017 -.036-.017 -.037-.016 -.036-.016 -.037-.015 -.038-.014 -.037-.014 -.038-.013 -.038-.013 -.038-.012 -.039-.012 -.039-.01 -.039-.011 -.039-.009 -.04-.009 -.04-.009 -.04-.007 -.04-.008 -.04-.006 -.041-.006 -.041-.005 -.042-.004 -.041-.004 -.042-.003 -.042-.003 -.042-.002 -.042-.001h-.041l-.062.001 -.06.002 -.06.003 -.059.005 -.058.006 -.058.008 -.058.009 -.057.01 -.056.011 -.056.013 -.056.014 -.055.015 -.055.017 -.054.017 -.053.019 -.053.02 -.053.021 -.051.023 -.052.023 -.05.025 -.05.025 -.049.027 -.049.028 -.048.029 -.047.03 -.047.031 -.046.032 -.045.033 -.045.034 -.043.035 -.043.036 -.042.037 -.041.038 -.041.038 -.039.04 -.039.04 -.037.042 -.037.042 -.036.043 -.035.044 -.034.044 -.033.045 -.032.046 -.031.047 -.029.047 -.029.048 -.028.049 -.027.05 -.025.05 -.025.05 -.023.052 -.022.052 -.021.052 -.02.053 -.019.054 -.017.054 -.016.054 -.016.055 -.013.056 -.013.056 -.011.057 -.01.057 -.009.058 -.099.776 -.793.166 -.085.02 -.084.021 -.084.023 -.082.025 -.082.027 -.081.029 -.081.03 -.079.032 -.079.033 -.078.035 -.077.037 -.075.038 -.076.04 -.074.041 -.073.043 -.072.045 -.071.046 -.07.047 -.07.049 -.068.05 -.066.052 -.066.053 -.065.054 -.063.056 -.063.057 -.061.058 -.06.06 -.058.061 -.058.062 -.056.063 -.054.064 -.054.066 -.052.067 -.05.068 -.049.068 -.048.07 -.046.071 -.045.072 -.043.073 -.042.074 -.04.075 -.039.076 -.037.077 -.035.077 -.034.079 -.032.079 -.03.08 -.029.081 -.027.082 -.026.082 -.023.084 -.022.084 -.02.084 -.018.086 -.017.086 -.014.087 -.013.087 -.011.088 -.009.089 -.007.089 -.005.09 -.003.091 -.001.095v.052l.001.052 .002.051 .002.052 .003.051 .004.051 .004.05 .005.051 .005.05 .006.051 .007.049 .007.05 .008.05 .009.049 .009.049 .009.049 .011.048 .01.049 .012.048 .012.048 .012.048 .014.047 .013.047 .015.047 .014.047 .016.047 .016.046 .016.046 .017.045 .017.043 .038.093 .039.089 .041.088 .043.086 .045.086 .047.084 .049.083 .051.082 .053.081 .055.079 .057.077 .058.077 .061.075 .062.073 .063.072 .066.07 .067.069 .069.067 .07.066 .072.063 .073.062 .075.061 .077.058 .077.057 .079.055 .081.053 .082.051 .083.049 .084.047 .086.045 .086.043 .088.041 .089.039 .093.038 .043.017 .045.017 .046.016 .047.016 .046.016 .047.014 .047.015 .047.013 .047.014 .048.012 .048.012 .048.012 .049.01 .048.011 .049.009 .049.009 .049.009 .05.008 .05.007 .05.007 .05.006 .05.005 .051.005 .05.004 .051.004 .051.003 .052.002 .051.002 .052.001h.055 13.998 .055l.052-.001 .051-.002 .052-.002 .051-.003 .051-.004 .05-.004 .051-.005 .05-.005 .05-.006 .05-.007 .05-.007 .05-.008 .049-.009 .049-.009 .049-.009 .048-.011 .049-.01 .048-.012 .048-.012 .048-.012 .047-.014 .047-.013 .047-.015 .047-.014 .046-.016 .047-.016 .046-.016 .045-.017 .043-.017 .093-.038 .089-.039 .088-.041 .086-.043 .086-.045 .084-.047 .083-.049 .082-.051 .081-.053 .079-.055 .077-.057 .077-.058 .075-.061 .073-.062 .072-.063 .07-.066 .069-.067 .067-.069 .066-.07 .063-.072 .062-.073 .061-.075 .058-.077 .057-.077 .055-.079 .053-.081 .051-.082 .049-.083 .047-.084 .045-.086 .043-.086 .041-.088 .039-.089 .038-.093 .017-.043 .017-.045 .016-.046 .016-.047 .016-.046 .014-.047 .015-.047 .013-.047 .014-.047 .012-.048 .012-.048 .012-.048 .01-.049 .011-.048 .009-.049 .009-.049 .009-.049 .008-.05 .007-.05 .007-.05 .006-.05 .005-.05 .005-.051 .004-.05 .004-.051 .003-.052 .002-.051 .002-.051 .001-.052V24v-.054l-.001-.052 -.002-.051 -.002-.051 -.003-.052 -.004-.051 -.004-.05 -.005-.051 -.005-.05 -.006-.05 -.007-.05 -.007-.05 -.008-.05 -.009-.049 -.009-.049 -.009-.049 -.011-.048 -.01-.049 -.012-.048 -.012-.048 -.012-.048 -.014-.047 -.013-.047 -.015-.047 -.014-.047 -.016-.046 -.016-.047 -.016-.046 -.017-.045 -.017-.043 -.038-.093 -.039-.089 -.041-.088 -.043-.086 -.045-.086 -.047-.084 -.049-.083 -.051-.082 -.053-.081 -.055-.079 -.057-.077 -.058-.077 -.061-.075 -.062-.073 -.063-.072 -.066-.07 -.067-.069 -.069-.067 -.07-.066 -.072-.063 -.073-.062 -.075-.061 -.077-.058 -.077-.057 -.079-.055 -.081-.053 -.082-.051 -.083-.049 -.084-.047 -.086-.045 -.086-.043 -.088-.041 -.089-.039 -.093-.038 -.043-.017 -.045-.017 -.046-.016 -.047-.016 -.046-.016 -.047-.014 -.047-.015 -.047-.013 -.047-.014 -.048-.012 -.048-.012 -.048-.012 -.049-.01 -.048-.011 -.049-.009 -.049-.009 -.049-.009 -.05-.008 -.05-.007 -.05-.007 -.05-.006 -.05-.005 -.051-.005 -.05-.004 -.051-.004 -.051-.003 -.052-.002 -.051-.002 -.052-.001h-.055 -1.315l.245-1.248 .009-.049 .009-.048 .007-.05 .008-.049 .006-.049 .006-.05 .006-.05 .004-.05 .004-.051 .004-.05 .003-.051 .002-.051 .002-.051 .001-.051V18v-.052l-.001-.052 -.002-.051 -.002-.051 -.003-.052 -.004-.051 -.004-.05 -.005-.051 -.005-.05 -.006-.05 -.007-.05 -.007-.05 -.008-.049 -.009-.05 -.009-.049 -.009-.048 -.011-.049 -.01-.048 -.012-.049 -.012-.047 -.013-.048 -.013-.048 -.013-.047 -.015-.047 -.015-.047 -.015-.046 -.016-.046 -.017-.046 -.017-.046 -.016-.043 -.038-.093 -.039-.089 -.041-.088 -.043-.086 -.046-.086 -.047-.084 -.049-.083 -.051-.082 -.053-.081 -.055-.079 -.057-.078 -.058-.076 -.061-.075 -.062-.074 -.064-.071 -.065-.071 -.067-.069 -.069-.067 -.07-.065 -.072-.064 -.074-.062 -.075-.061 -.076-.058 -.078-.057 -.079-.055 -.081-.053 -.082-.051 -.083-.049 -.084-.047 -.086-.046 -.086-.043 -.088-.041 -.089-.039 -.093-.038 -.043-.016 -.046-.017 -.046-.017 -.046-.016 -.046-.015 -.047-.015 -.047-.015 -.047-.013 -.048-.013 -.047-.013 -.048-.012 -.049-.012 -.048-.01 -.049-.011 -.048-.009 -.049-.009 -.05-.009 -.049-.008 -.05-.007 -.05-.007 -.05-.006 -.05-.005 -.051-.005 -.05-.004 -.051-.004 -.052-.003 -.051-.002 -.051-.002 -.052-.001h-.05l-.086.001Z"/></g></g></svg>