<svg viewBox="0 0 32 32" xmlns="http://www.w3.org/2000/svg" xmlns:xlink="http://www.w3.org/1999/xlink"><defs><clipPath id="a"><use clip-rule="evenodd" xlink:href="#c"/></clipPath><clipPath id="b"><use clip-rule="evenodd" xlink:href="#d"/></clipPath><path id="p" d="M5 20v3.5c0 .398.158.779.439 1.061 .282.281.663.439 1.061.439h.058c.382 0 .749-.152 1.02-.422 .27-.271.422-.638.422-1.02 0-.001 0-.001 0-.002 0-.356-.141-.697-.393-.949C6.793 21.793 5 20 5 20Z"/><path id="k" d="M4 8l-2 2 2 2Z"/><path id="d" d="M13.62 11.342C14.601 9.362 16.643 8 19 8c3.311 0 6 2.689 6 6 0 .341-.028.675-.083 1H25c2.209 0 4 1.791 4 4s-1.791 4-4 4c-4.889 0-13.111 0-18 0 -2.209 0-4-1.791-4-4 0-1.061.421-2.078 1.172-2.828C4.922 15.421 5.939 15 7 15h1c0-2.208 1.792-4 4-4 .577 0 1.125.122 1.62.342Z"/><path id="i" d="M17.657 12L8 2.343h9.657Zm-2-4.828V4.343h-2.829Z"/><path id="q" d="M25 22v3.5c0 .398.158.779.439 1.061 .282.281.663.439 1.061.439h.058c.382 0 .749-.152 1.02-.422 .27-.271.422-.638.422-1.02 0-.001 0-.001 0-.002 0-.356-.141-.697-.393-.949C26.793 23.793 25 22 25 22Z"/><path id="e" d="M13.62 11.345C14.6 9.363 16.642 8 19 8c3.311 0 6 2.689 6 6 0 .341-.029.676-.085 1h.087c1.06 0 2.077.421 2.827 1.171s1.171 1.767 1.171 2.827v.004c0 1.06-.421 2.077-1.171 2.827s-1.767 1.171-2.827 1.171c-4.889 0-13.115 0-18.004 0 -1.06 0-2.077-.421-2.827-1.171C3.421 21.079 3 20.062 3 19.002c0-.001 0-.003 0-.004 0-1.06.421-2.077 1.171-2.827C4.921 15.421 5.938 15 6.998 15H8c0-2.208 1.792-4 4-4 .577 0 1.126.122 1.62.345Z"/><path id="j" d="M4.343 12.828v2.829h2.829Z"/><path id="m" d="M13 20v5c0 1.105.895 2 2 2 .53 0 1.039-.211 1.414-.586s.586-.884.586-1.414c0-.042 0-.084 0-.125 0-.56-.223-1.098-.619-1.494C15.258 22.258 13 20 13 20Z"/><path id="h" d="M12.828 4.343h2.829v2.829Z"/><path id="f" d="M8 4l2-2 2 2Z"/><path id="o" d="M9 25v3.5c0 .398.158.779.439 1.061 .282.281.663.439 1.061.439h.058c.382 0 .749-.152 1.02-.422 .27-.271.422-.638.422-1.02 0-.001 0-.001 0-.002 0-.356-.141-.697-.393-.949C10.793 26.793 9 25 9 25Z"/><path id="g" d="M8 16l2 2 2-2Z"/><path id="c" d="M0 0h32v32H0Z"/><path id="l" d="M7.172 4.343H4.343v2.829Z"/><path id="n" d="M19 25v3.5c0 .398.158.779.439 1.061 .282.281.663.439 1.061.439h.058c.382 0 .749-.152 1.02-.422 .27-.271.422-.638.422-1.02 0-.001 0-.001 0-.002 0-.356-.141-.697-.393-.949C20.793 26.793 19 25 19 25Z"/><path id="r" d="M19.969 19.98v3.5c0 .397.158.779.44 1.06 .281.281.662.44 1.06.44h.058c.383 0 .75-.152 1.02-.423 .27-.27.422-.637.422-1.019 0-.001 0-.002 0-.003 0-.356-.141-.697-.393-.949 -.813-.813-2.607-2.606-2.607-2.606Z"/></defs><use fill="none" fill-rule="evenodd" xlink:href="#c"/><g clip-path="url(#a)"><use fill="none" fill-rule="evenodd" stroke="#1C447F" stroke-linecap="square" stroke-width="4" xlink:href="#e"/><g fill="#1C447F" fill-rule="evenodd"><path d="M10 3a7 7 0 1 0 0 14 7 7 0 1 0 0-14Z"/><use fill="#EAD361" xlink:href="#f"/><path d="M16.828 6H3.172L10-.828ZM8 4h4l-2-2Z"/><use fill="#EAD361" xlink:href="#g"/><path d="M10 20.828L3.172 14h13.656ZM8 16l2 2 2-2Z"/><use fill="#EAD361" xlink:href="#h"/><use xlink:href="#i"/><use fill="#EAD361" xlink:href="#j"/><path d="M12 17.657H2.343V8Zm-7.657-2h2.829l-2.829-2.829Z"/><use fill="#EAD361" xlink:href="#h"/><use xlink:href="#i"/><use fill="#EAD361" xlink:href="#k"/><path d="M6 16.828L-.828 10 6 3.172ZM2 10l2 2V8Z"/><use fill="#EAD361" xlink:href="#l"/><path d="M2.343 12V2.343H12Zm2-7.657v2.829l2.829-2.829Z"/><g stroke-width="4" fill-rule="evenodd" stroke="#1C447F" fill="none" stroke-linejoin="round"><use xlink:href="#m"/><use xlink:href="#n"/><use xlink:href="#o"/><use xlink:href="#p"/><use xlink:href="#q"/></g><path d="M10 22h16v5H10Z"/><g stroke-width="4" fill-rule="evenodd" stroke="#1C447F" fill="none" stroke-linejoin="round"><use xlink:href="#r"/><g stroke="#1C447F" fill-rule="evenodd" stroke-miterlimit="1.5" stroke-width="4" fill="none" stroke-linecap="round" stroke-linejoin="round"><path d="M4.343 4.343h11.314v11.314H4.343Z"/><path d="M18 10l-8-8 -8 8 8 8Z"/></g></g><path fill="#EAD361" d="M10 5a5 5 0 1 0 0 10 5 5 0 1 0 0-10Z"/><path fill="#FFF" d="M10 6a4 4 0 1 0 0 8 4 4 0 1 0 0-8Z"/><g fill="#EAD361"><use xlink:href="#f"/><use xlink:href="#g"/><use xlink:href="#h"/><use xlink:href="#j"/><path d="M16 8l2 2 -2 2Z"/><use xlink:href="#k"/><path d="M15.657 12.828v2.829h-2.829Z"/><use xlink:href="#l"/></g><g fill="#E4ECEE"><use xlink:href="#n"/><use xlink:href="#r"/><use xlink:href="#o"/><use xlink:href="#p"/><use xlink:href="#q"/><use xlink:href="#m"/></g><use fill="#B2D3DE" xlink:href="#e"/><use fill="none" xlink:href="#d"/><path clip-path="url(#b)" fill="#FFF" d="M26 11s-.325-.163-.845-.422c-1.533-.767-3.353-.685-4.81.216C18.887 11.695 18 13.286 18 15c0 1.714-.66 0-1.5 0 -1.933 0-3.5 1.567-3.5 3.5 0 .928.369 1.818 1.025 2.475C14.682 21.631 15.572 22 16.5 22H32V11Z"/><path fill="#B2D3DE" d="M19.077 8l.078.002 .077.002 .077.004 .076.004 .076.006 .076.006 .076.007 .076.008 .075.009 .075.01 .074.011 .075.012 .074.013 .073.013 .074.015 .073.015 .072.017 .073.017 .072.018 .071.019 .072.02 .071.02 .07.022 .071.022 .07.023 .069.024 .069.025 .069.026 .068.026 .068.028 .068.028 .067.029 .066.029 .066.031 .066.031 .066.032 .065.033 .064.033 .064.035 .063.035 .064.035 .062.037 .062.037 .062.038 .061.039 .061.039 .06.04 .059.041 .059.042 .059.042 .058.043 .057.043 .057.044 .057.045 .056.046 .055.046 .055.047 .054.047 .053.048 .053.049 .053.05 .052.05 .051.05 .05.051 .05.052 .05.053 .049.053 .048.053 .047.054 .047.055 .046.055 .046.056 .045.057 .044.057 .043.057 .043.058 .042.059 .042.059 .041.059 .04.06 .039.061 .039.061 .038.062 .037.062 .037.062 .035.064 .035.063 .035.064 .033.064 .033.065 .032.066 .031.066 .031.066 .029.066 .029.067 .028.068 .028.068 .026.068 .026.069 .025.069 .024.069 .023.07 .022.071 .022.07 .02.071 .02.072 .019.071 .018.072 .017.073 .017.072 .015.073 .015.074 .013.073 .013.074 .012.075 .011.074 .01.075 .009.075 .008.076 .007.076 .006.076 .006.076 .004.076 .004.077 .002.077 .002.078V14l-.001.127 -.004.127 -.007.126 -.009.126 -.012.125 -.014.123 -.017.124 -.019.122H25l.103.001 .103.004 .102.007 .101.009 .1.011 .1.014 .099.016 .098.019 .097.021 .097.024 .095.026 .094.028 .094.03 .092.033 .092.034 .09.037 .089.039 .088.041 .087.044 .086.045 .084.047 .083.049 .082.051 .08.053 .08.055 .077.057 .077.058 .074.06 .074.062 .072.064 .07.066 .068.067 .067.068 .066.07 .064.072 .062.074 .06.074 .058.077 .057.077 .055.08 .053.08 .051.082 .049.083 .047.084 .045.086 .044.087 .041.088 .039.089 .037.09 .034.092 .033.092 .03.094 .028.094 .026.095 .024.097 .021.097 .019.098 .016.099 .014.1 .011.1 .009.101 .007.102 .004.103L29 19l-.001.103 -.004.103 -.007.102 -.009.101 -.011.1 -.014.1 -.016.099 -.019.098 -.021.097 -.024.097 -.026.095 -.028.094 -.03.094 -.033.092 -.034.092 -.037.09 -.039.089 -.041.088 -.044.087 -.045.086 -.047.084 -.049.083 -.051.082 -.053.08 -.055.08 -.057.077 -.058.077 -.06.074 -.062.074 -.064.072 -.066.07 -.067.068 -.068.067 -.07.066 -.072.064 -.074.062 -.074.06 -.077.058 -.077.057 -.08.055 -.08.053 -.082.051 -.083.049 -.084.047 -.086.045 -.087.044 -.088.041 -.089.039 -.09.037 -.092.034 -.092.033 -.094.03 -.094.028 -.095.026 -.097.024 -.097.021 -.098.019 -.099.016 -.1.014 -.1.011 -.101.009 -.102.007 -.103.004L25 23H7l-.103-.001 -.103-.004 -.102-.007 -.101-.009 -.1-.011 -.1-.014 -.099-.016 -.098-.019 -.097-.021L6 22.874l-.095-.026 -.094-.028 -.094-.03 -.092-.033 -.092-.034 -.09-.037 -.089-.039 -.088-.041 -.087-.044 -.086-.045 -.084-.047 -.083-.049 -.082-.051 -.08-.053 -.08-.055 -.077-.057 -.077-.058 -.074-.06 -.074-.062 -.072-.064 -.07-.066 -.068-.067 -.067-.068 -.066-.07 -.064-.072 -.062-.074 -.06-.074 -.058-.077 -.057-.077 -.055-.08 -.053-.08 -.051-.082 -.049-.083 -.047-.084 -.045-.086 -.044-.087 -.041-.088 -.039-.089 -.037-.09 -.034-.092 -.033-.092 -.03-.094 -.028-.094L3.126 20l-.024-.097 -.021-.097 -.019-.098 -.016-.099 -.014-.1 -.011-.1 -.009-.101 -.007-.102 -.004-.103L3 19l.001-.099 .004-.099 .006-.099 .009-.098 .011-.098 .013-.098 .016-.097 .018-.096 .02-.096 .023-.095 .025-.095 .027-.093 .029-.093 .032-.093 .034-.091 .036-.091 .039-.089 .041-.089 .042-.088 .045-.087 .047-.085 .049-.085 .052-.083 .053-.082 .055-.081 .058-.08 .059-.078 .062-.077 .063-.076 .066-.074 .067-.072 .07-.071 .071-.07 .072-.067 .074-.066 .076-.063 .077-.062 .078-.059 .08-.058 .081-.055 .082-.053 .083-.052 .085-.049 .085-.047 .087-.045 .088-.042 .089-.041 .089-.039 .091-.036 .091-.034 .093-.032 .093-.029 .093-.027 .095-.025 .095-.023 .096-.02 .096-.018 .097-.016 .098-.013 .098-.011 .098-.009 .099-.006 .099-.004L7 15h1l.001-.103 .004-.103 .007-.102 .009-.101 .011-.1 .014-.1 .017-.099 .018-.098 .022-.097 .023-.096 .026-.096 .028-.094 .03-.093 .033-.093 .035-.091 .037-.09 .039-.09 .041-.088 .043-.086 .045-.086 .047-.084 .049-.084 .052-.081 .053-.081 .054-.079 .057-.078 .059-.076 .06-.075 .062-.073 .064-.072 .065-.07 .067-.069 .069-.067 .07-.065 .072-.064 .073-.062 .075-.06 .076-.059 .078-.057 .079-.054 .081-.053 .082-.052 .083-.049 .084-.047 .086-.045 .086-.043 .089-.041 .089-.039 .09-.037 .091-.035 .093-.033 .093-.03 .094-.028 .096-.026 .096-.023 .097-.022 .098-.018 .099-.017 .1-.014 .1-.011 .101-.009 .102-.007 .103-.004L12 11l.108.001 .107.005 .106.007 .106.01 .104.012 .104.015 .103.018 .103.021 .101.023 .1.025 .099.028 .098.031 .097.033 .096.035 .095.038 .093.04 .047-.092 .048-.092 .05-.09 .051-.09 .053-.088 .054-.088 .056-.086 .057-.086 .059-.084 .06-.084 .061-.082 .063-.081 .064-.081 .065-.079 .067-.077 .068-.077 .069-.076 .071-.074 .072-.073 .073-.072 .074-.071 .075-.069 .077-.068 .078-.067 .079-.066 .08-.064 .081-.063 .082-.061 .084-.06 .084-.059 .085-.057 .087-.056 .087-.055 .089-.053 .089-.051 .091-.05 .091-.048 .092-.047 .093-.046 .094-.044 .095-.042 .096-.04 .097-.039 .097-.038 .098-.035 .099-.034 .1-.033 .101-.03 .101-.029 .102-.027 .103-.026 .103-.023 .104-.022 .105-.02 .105-.018 .106-.017 .107-.014 .107-.013 .108-.01 .108-.009 .109-.007 .109-.005 .11-.003L19 8h.077Zm-.169 1.001l-.092.002 -.091.004 -.091.006 -.09.008 -.09.009 -.089.01 -.089.012 -.088.014 -.088.015 -.087.016 -.087.019 -.086.019 -.085.021 -.085.023 -.084.024 -.084.026 -.083.026 -.083.029 -.081.029 -.081.031 -.081.033 -.08.034 -.079.035 -.078.036 -.077.038 -.077.039 -.076.04 -.076.042 -.074.043 -.074.044 -.073.045 -.072.047 -.071.048 -.07.049 -.07.05 -.069.051 -.067.052 -.067.054 -.066.055 -.065.055 -.064.057 -.063.058 -.062.059 -.061.06 -.06.061 -.058.062 -.058.063 -.057.065 -.056.064 -.054.066 -.054.067 -.052.068 -.051.069 -.05.069 -.049.071 -.048.071 -.046.072 -.045.073 -.044.074 -.043.075 -.042.075 -.04.076 -.467.922 -.944-.405 -.071-.028 -.071-.026 -.073-.025 -.073-.023 -.074-.021 -.075-.019 -.076-.017 -.076-.016 -.078-.013 -.077-.012 -.079-.009 -.079-.007 -.08-.006 -.081-.003L12 12l-.078.001 -.077.003 -.077.005 -.076.007 -.075.008 -.075.011 -.074.012 -.073.014 -.073.016 -.072.017 -.071.02 -.071.021 -.069.023 -.07.024 -.068.026 -.067.028 -.067.029 -.066.031 -.065.032 -.064.034 -.064.035 -.062.037 -.061.038 -.061.04 -.059.041 -.059.043 -.057.044 -.056.045 -.055.047 -.054.048 -.053.049 -.052.05 -.05.052 -.049.053 -.048.054 -.047.055 -.045.056 -.044.057 -.043.059 -.041.059 -.04.061 -.038.061 -.037.062 -.035.064 -.034.064 -.032.065 -.031.066 -.029.066 -.028.068 -.026.068 -.024.069 -.023.07 -.021.071 -.019.071 -.018.072 -.016.073 -.014.073 -.012.075 -.011.074 -.008.075 -.007.076 -.005.077 -.003.077L8.987 16H7.006l-.081.001 -.074.003 -.074.004 -.074.007 -.073.008 -.073.01 -.073.012 -.072.013 -.072.016 -.071.017 -.071.018 -.07.021 -.07.022 -.069.024 -.069.025 -.068.027 -.067.029 -.067.031 -.066.032 -.065.034 -.064.035 -.063.037 -.063.038 -.061.04 -.061.042 -.06.043 -.059.044 -.057.046 -.057.048 -.055.049 -.055.051 -.053.052 -.052.053 -.051.055 -.049.055 -.048.057 -.046.058 -.044.058 -.043.06 -.042.061 -.04.061 -.038.063 -.037.063 -.036.064 -.033.065 -.032.066 -.031.067 -.029.067 -.027.068 -.025.069 -.024.069 -.022.07 -.021.07 -.018.071 -.017.071 -.016.072 -.013.072 -.012.073 -.01.073 -.008.074 -.007.073 -.004.074 -.003.074L4 19l.001.078 .003.077 .005.077 .007.076 .008.075 .011.075 .012.074 .014.074 .016.073 .017.071 .02.072 .021.071 .022.069 .025.07 .026.068 .027.067 .03.067 .03.066 .033.065 .033.064 .036.063 .037.063 .038.061 .04.061 .041.059 .043.058 .043.058 .046.056 .046.055 .048.054 .049.053 .051.051 .051.051 .053.049 .054.048 .055.046 .056.045 .058.044 .058.043 .059.041 .061.04 .061.038 .062.037 .064.035 .064.034 .065.033 .066.03 .067.03 .067.027 .069.026 .069.025 .07.022 .07.021 .072.02 .072.017 .072.016 .074.014 .074.012 .075.011 .075.008 .076.007 .077.005 .077.003 .084.001h17.988l.084-.001 .077-.003 .077-.005 .076-.007 .075-.008 .075-.011 .074-.012 .074-.014 .072-.016 .072-.017 .072-.02 .071-.021 .069-.022 .069-.025 .069-.026 .068-.027 .066-.03 .066-.03 .065-.033 .064-.034 .063-.035 .063-.037 .061-.038 .061-.04 .059-.041 .058-.043 .058-.044 .056-.045 .055-.046 .054-.048 .053-.049 .051-.051 .051-.051 .049-.053 .048-.054 .046-.055 .046-.056 .043-.058 .043-.058 .041-.059 .04-.061 .038-.061 .037-.063 .035-.063 .034-.064 .033-.065 .03-.066 .03-.067 .027-.067 .026-.068 .025-.07 .022-.069 .021-.071 .02-.072 .017-.071 .016-.073 .014-.074 .012-.074 .011-.075 .008-.075 .007-.076 .005-.077 .003-.077L28 19l-.001-.078 -.003-.077 -.005-.077 -.007-.076 -.008-.075 -.011-.075 -.012-.074 -.014-.074 -.016-.073 -.017-.071 -.02-.072 -.021-.07 -.022-.07 -.025-.07 -.026-.068 -.027-.067 -.03-.067 -.03-.066 -.033-.065 -.034-.064 -.035-.063 -.037-.063 -.038-.061 -.04-.061 -.041-.059 -.043-.058 -.043-.058 -.046-.056 -.046-.055 -.048-.054 -.049-.053 -.051-.051 -.051-.051 -.053-.049 -.054-.048 -.055-.046 -.056-.046 -.058-.043 -.058-.043 -.059-.041 -.061-.04 -.061-.038 -.062-.037 -.064-.035 -.064-.034 -.065-.033 -.066-.03 -.067-.03 -.067-.027 -.069-.026 -.069-.025 -.069-.022 -.071-.021 -.071-.02 -.073-.017 -.072-.016 -.074-.014 -.074-.012 -.075-.011 -.075-.008 -.076-.007 -.077-.005 -.077-.003 -.084-.001h-1.247l.2-1.268 .014-.102 .012-.104 .009-.103 .008-.105 .006-.106 .003-.105 .001-.109v-.063l-.002-.064 -.002-.065 -.003-.064 -.003-.064 -.005-.064 -.005-.063 -.006-.063 -.007-.063 -.007-.063 -.009-.062 -.009-.062 -.01-.062 -.01-.061 -.012-.062 -.012-.061 -.013-.061 -.013-.06 -.014-.061 -.015-.059 -.016-.06 -.017-.059 -.017-.059 -.018-.059 -.018-.059 -.02-.058 -.02-.057 -.02-.058 -.022-.057 -.022-.057 -.022-.057 -.024-.056 -.024-.056 -.024-.055 -.026-.055 -.026-.055 -.026-.054 -.028-.054 -.028-.054 -.028-.053 -.03-.053 -.029-.053 -.031-.052 -.031-.052 -.031-.051 -.033-.051 -.032-.051 -.034-.05 -.034-.049 -.034-.05 -.036-.049 -.035-.048 -.037-.048 -.037-.047 -.037-.047 -.038-.047 -.039-.046 -.039-.046 -.039-.045 -.04-.045 -.041-.044 -.041-.044 -.042-.043 -.042-.043 -.043-.042 -.043-.042 -.044-.041 -.044-.04 -.045-.041 -.045-.039 -.046-.039 -.046-.039 -.047-.038 -.047-.037 -.047-.037 -.048-.037 -.048-.035 -.049-.035 -.05-.035 -.049-.034 -.05-.034 -.051-.032 -.051-.033 -.051-.031 -.052-.031 -.052-.031 -.053-.03 -.053-.029 -.053-.028 -.054-.028 -.054-.028 -.054-.026 -.055-.026 -.055-.026 -.055-.024 -.056-.024 -.056-.024 -.057-.022 -.057-.022 -.057-.022 -.057-.02 -.058-.02 -.058-.02 -.059-.018 -.059-.018 -.059-.017 -.059-.017 -.06-.016 -.06-.015 -.06-.014 -.06-.013 -.061-.013 -.061-.012 -.061-.012 -.062-.01 -.062-.01 -.062-.009 -.063-.009 -.062-.007 -.063-.007 -.063-.006 -.064-.005 -.063-.005 -.064-.003 -.064-.003 -.065-.002L19.065 9h-.064Z"/></g></g></svg>