<svg viewBox="0 0 32 32" xmlns="http://www.w3.org/2000/svg" xmlns:xlink="http://www.w3.org/1999/xlink"><defs><clipPath id="a"><use clip-rule="evenodd" xlink:href="#b"/></clipPath><path id="b" d="M0 0h32v32H0Z"/></defs><use fill="none" fill-rule="evenodd" xlink:href="#b"/><g clip-path="url(#a)"><g fill="#1C447F" fill-rule="evenodd"><path d="M16 5v0C9.92487 5 5 9.92487 5 16c0 6.07513 4.92487 11 11 11v0c6.07513 0 11-4.92487 11-11C27 9.92487 22.0751 5 16 5Z"/><g stroke="#1C447F" fill-rule="evenodd" stroke-miterlimit="1.5" stroke-width="4" fill="none" stroke-linecap="round" stroke-linejoin="round"><path d="M6 6h20v20H6Z"/><path d="M30 16L16 2 2 16l14 14Z"/></g><path fill="#EAD361" d="M16 7v0c-4.97056 0-9 4.02944-9 9s4.02944 9 9 9v0c4.97056 0 9-4.02944 9-9s-4.02944-9-9-9Z"/><path fill="#FFF" d="M16 10v0c-3.31371 0-6 2.68629-6 6s2.68629 6 6 6v0c3.31371 0 6-2.68629 6-6s-2.68629-6-6-6Z"/><g fill="#EAD361"><path d="M21.757 6H26v4.243Z"/><path d="M27 13l3 3 -3 3Z"/><path d="M6 21.757V26h4.243Z"/><path d="M5 13l-3 3 3 3Z"/><path d="M26 21.757V26h-4.243Z"/><path d="M19 27l-3 3 -3-3Z"/><path d="M10.243 6H6v4.243Z"/><path d="M19 5l-3-3 -3 3Z"/></g></g></g></svg>