<svg viewBox="0 0 32 32" xmlns="http://www.w3.org/2000/svg" xmlns:xlink="http://www.w3.org/1999/xlink"><defs><clipPath id="a"><use clip-rule="evenodd" xlink:href="#b"/></clipPath><path id="b" d="M0 0h32v32H0Z"/></defs><use fill="none" fill-rule="evenodd" xlink:href="#b"/><g clip-path="url(#a)"><g fill="#1C447F" fill-rule="evenodd"><path d="M29 0c1.657 0 3 1.343 3 3v7c0 .917-.412 1.739-1.061 2.288C31.598 13.001 32 13.954 32 15c0 1.479-.805 2.772-2 3.463v.039c0 3.58-1.422 7.013-3.953 9.545C23.515 30.578 20.082 32 16.502 32h-3.004c-3.58 0-7.013-1.422-9.545-3.953C1.422 25.515 0 22.082 0 18.502v-1.504C0 8.715 6.715 2 14.998 2H15c3.265 0 6.419 1.064 9 3.001V3c0-1.657 1.343-3 3-3h2Z"/><path fill="#EAD361" d="M15 4c3.358 0 6.582 1.299 9 3.619 0 0 1.322 1.636 1.684 3.381 .698 3.369.854 7.996 2.305 8 -.124 2.869-1.318 5.594-3.357 7.632C22.476 28.789 19.551 30 16.502 30h-3.004c-3.049 0-5.974-1.211-8.13-3.368C3.211 24.476 2 21.551 2 18.502v-1.504C2 9.819 7.819 4 14.998 4H15Z"/><path fill="#CFBC62" d="M24 7.619c.065.062.129.125.192.189C26.63 10.246 28 13.552 28 17v1.502c0 .166-.004.333-.011.498C25.787 18.994 24 17.204 24 15c0-1.046.402-1.998 1.06-2.711C24.412 11.738 24 10.917 24 10Z"/><path fill="#FFF" d="M8.502 18c.928 0 1.817-.369 2.473-1.025C11.631 16.319 12 15.43 12 14.502c0-.657 0-1.345 0-2.002C12 10.567 10.433 9 8.5 9h-.002c-.928 0-1.817.369-2.473 1.025C5.369 10.681 5 11.57 5 12.498V14.5C5 16.433 6.567 18 8.5 18Z"/><path d="M7 13c0-.53.211-1.039.586-1.414C7.961 11.211 8.47 11 9 11c1.105 0 2 .895 2 2v.983c0 .531-.211 1.039-.586 1.415 -.375.375-.884.585-1.414.585 -1.105 0-2-.895-2-2Z"/><path fill="#FFF" d="M21.498 18c-.928 0-1.817-.369-2.473-1.025C18.369 16.319 18 15.43 18 14.502c0-.657 0-1.345 0-2.002 0-1.933 1.567-3.5 3.5-3.5h.002c.928 0 1.817.369 2.473 1.025 .656.656 1.025 1.545 1.025 2.473V14.5c0 1.933-1.567 3.5-3.5 3.5Z"/><path d="M23 13c0-.53-.211-1.039-.586-1.414C22.039 11.211 21.53 11 21 11c-1.105 0-2 .895-2 2v.983c0 .531.211 1.039.586 1.415 .375.375.884.585 1.414.585 1.105 0 2-.895 2-2Z"/><path fill="#B23E3E" d="M12.449 24.579c-.285-.459-.449-1-.449-1.579 0-.654 0-1.346 0-2 0-1.657 1.343-3 3-3s3 1.343 3 3v2c0 .579-.164 1.12-.449 1.579 -.78-.374-4.322-.374-5.102 0Z"/><path fill="#EF5353" d="M12.449 24.579C13.229 24.205 14.098 24 15 24c.902 0 1.771.205 2.551.579C17.022 25.432 16.077 26 15 26c-1.077 0-2.022-.568-2.551-1.421Z"/><path fill="#FFF" d="M28 13c1.104 0 2 .896 2 2s-.896 2-2 2 -2-.896-2-2 .896-2 2-2Zm1-11c.552 0 1 .448 1 1v7c0 .552-.448 1-1 1 -.611 0-1.389 0-2 0 -.552 0-1-.448-1-1 0-1.732 0-5.268 0-7 0-.552.448-1 1-1Z"/></g></g></svg>