<svg viewBox="0 0 32 32" xmlns="http://www.w3.org/2000/svg" xmlns:xlink="http://www.w3.org/1999/xlink"><defs><clipPath id="a"><use clip-rule="evenodd" xlink:href="#b"/></clipPath><path id="b" d="M0 0h32v32H0Z"/></defs><use fill="none" fill-rule="evenodd" xlink:href="#b"/><g clip-path="url(#a)"><g fill="#1C447F" fill-rule="evenodd"><path d="M17.169 2.005c.144-.411.381-.798.71-1.126 1.17-1.171 3.072-1.171 4.242 0l.879.878 .879-.878c1.17-1.171 3.072-1.171 4.242 0 .329.328.566.715.71 1.126 .823-.046 1.662.245 2.29.874 1.171 1.17 1.171 3.072 0 4.242L30.243 8l.878.879c1.14 1.139 1.17 2.971.091 4.148C31.723 14.592 32 16.264 32 18v1c0 7.18-5.82 13-13 13h-6C5.82 32 0 26.18 0 19c0-.332 0-.665 0-1C0 9.163 7.163 2 16 2h.052c.218.001.436.006.652.015 .154-.015.31-.018.465-.01Z"/><path fill="#EAD361" d="M30 18c0-7.732-6.268-14-14-14C8.268 4 2 10.268 2 18v1c0 6.075 4.925 11 11 11h6c6.075 0 11-4.925 11-11 0-.332 0-.665 0-1Z"/><path fill="#FFF" d="M23.71 12.963l1.185-1.016c.027.025.054.051.08.078 .656.656 1.025 1.545 1.025 2.473V16.5c0 1.933-1.567 3.5-3.5 3.5h-.002c-.928 0-1.817-.369-2.473-1.025 -.544-.544-.891-1.248-.993-2.002l.968-.83s2.278-1.041 3.71-3.18Z"/><path d="M23.71 12.963c.188.31.29.668.29 1.037v2.983c0 .531-.211 1.039-.586 1.415 -.375.375-.884.585-1.414.585 -.53 0-1.039-.21-1.414-.585 -.375-.376-.586-.884-.586-1.415v-.84Z"/><path fill="#FFF" d="M8.322 12.963l-1.185-1.016c-.028.025-.054.051-.081.078 -.656.656-1.024 1.545-1.024 2.473V16.5c0 1.933 1.567 3.5 3.5 3.5h.002c.928 0 1.817-.369 2.473-1.025 .544-.544.891-1.248.993-2.002l-.968-.83s-2.278-1.041-3.71-3.18Z"/><path d="M8.322 12.963c-.188.31-.29.668-.29 1.037v2.983c0 .531.211 1.039.586 1.415 .375.375.883.585 1.414.585 .53 0 1.039-.21 1.414-.585 .375-.376.586-.884.586-1.415v-.84Z"/><path d="M3 20.018h26V32H3Z"/></g><path fill="#FFF" d="M18.604 29.925c-.596-.322-1.06-.773-1.392-1.352 -.332-.58-.498-1.249-.498-2.006v-.704c0-.758.166-1.426.498-2.006 .332-.58.796-1.031 1.392-1.352 .597-.322 1.281-.483 2.052-.483 .757 0 1.434.159 2.031.478 .596.318 1.062.765 1.397 1.342 .335.576.503 1.233.503 1.971v.703c0 .644-.161 1.135-.483 1.473 -.321.339-.727.508-1.216.508 -.302 0-.56-.057-.775-.171 -.214-.114-.378-.275-.492-.482 -.215.435-.644.653-1.287.653 -1.012 0-1.518-.606-1.518-1.82v-.885c0-.576.118-1.025.356-1.347 .238-.322.602-.482 1.091-.482 .242 0 .455.046.639.14 .184.094.32.218.407.372v-.402h1.096v2.866c0 .214.045.373.136.477 .09.104.209.156.357.156 .187 0 .328-.082.422-.246 .094-.164.141-.431.141-.8v-.703c0-.57-.113-1.064-.337-1.483 -.225-.419-.546-.743-.965-.971 -.419-.228-.92-.342-1.503-.342 -.879 0-1.567.252-2.067.755 -.499.502-.749 1.189-.749 2.061v.714c0 .569.112 1.069.337 1.498 .225.429.548.761.97.995 .423.235.925.352 1.509.352 .402 0 .764-.042 1.085-.126 .322-.083.654-.212.996-.387l.442.855c-.389.228-.784.395-1.186.503 -.402.107-.848.161-1.337.161 -.771 0-1.455-.161-2.052-.483Zm-4.615-.282h-.895v-.915c-.596-.06-1.062-.259-1.397-.598 -.335-.338-.516-.796-.543-1.372h1.156c.04.328.159.563.357.704 .198.14.501.211.91.211 .369 0 .649-.067.84-.201 .191-.134.286-.332.286-.594 0-.234-.064-.415-.191-.543 -.127-.127-.335-.207-.623-.241l-.754-.1c-1.214-.161-1.82-.744-1.82-1.75 0-.516.156-.937.467-1.262 .312-.325.749-.524 1.312-.598V21.6h.895v.774c.557.06.992.248 1.307.563 .315.315.493.744.533 1.287h-1.176c-.027-.282-.131-.489-.312-.623 -.181-.135-.446-.202-.794-.202 -.329 0-.58.066-.754.197 -.174.13-.262.316-.262.558 0 .214.072.383.217.507 .144.124.377.21.698.257l.785.11c1.132.161 1.699.748 1.699 1.76 0 .556-.171 1-.513 1.332 -.342.332-.818.531-1.428.598ZM6.82 29.04H5.785l.271-2.051H5v-.925h1.177l.151-1.106H5.282v-.925h1.166l.252-1.931h1.035l-.251 1.931H8.61l.251-1.931h1.036l-.251 1.931h1.045v.925H9.525l-.141 1.106h1.026v.925H9.264l-.272 2.051H7.946l.272-2.051H7.092L6.82 29.04Zm20.13 0h-1.317v-1.307h1.317Zm-5.661-2.393v-.844c0-.597-.221-.895-.664-.895 -.234 0-.407.078-.517.236 -.111.157-.166.374-.166.648v.825c0 .302.053.533.161.694 .107.161.281.241.522.241 .443 0 .664-.302.664-.905Zm5.47.081h-.935l-.242-4.626H27Zm-18.27-1.77H7.363l-.151 1.106h1.127Z"/><path fill="#EF5353" fill-rule="evenodd" d="M20.707 13.707s.808-.808 1.586-1.586c.39-.39 1.024-.39 1.414 0 .778.778 1.586 1.586 1.586 1.586 .39.39 1.024.39 1.414 0 .39-.39.39-1.024 0-1.414 0 0-.808-.808-1.586-1.586 -1.171-1.171-3.071-1.171-4.242 0 -.778.778-1.586 1.586-1.586 1.586 -.39.39-.39 1.024 0 1.414 .39.39 1.024.39 1.414 0Zm-4.414-8s.808.808 1.586 1.586c.39.39.39 1.024 0 1.414 -.778.778-1.586 1.586-1.586 1.586 -.39.39-.39 1.024 0 1.414 .39.39 1.024.39 1.414 0 0 0 .808-.808 1.586-1.586 1.171-1.171 1.171-3.071 0-4.242 -.778-.778-1.586-1.586-1.586-1.586 -.39-.39-1.024-.39-1.414 0 -.39.39-.39 1.024 0 1.414Zm12-1.414s-.808.808-1.586 1.586c-1.171 1.171-1.171 3.071 0 4.242 .778.778 1.586 1.586 1.586 1.586 .39.39 1.024.39 1.414 0 .39-.39.39-1.024 0-1.414 0 0-.808-.808-1.586-1.586 -.39-.39-.39-1.024 0-1.414 .778-.778 1.586-1.586 1.586-1.586 .39-.39.39-1.024 0-1.414 -.39-.39-1.024-.39-1.414 0Zm-9-.586s.808.808 1.586 1.586c1.171 1.171 3.071 1.171 4.242 0 .778-.778 1.586-1.586 1.586-1.586 .39-.39.39-1.024 0-1.414 -.39-.39-1.024-.39-1.414 0 0 0-.808.808-1.586 1.586 -.39.39-1.024.39-1.414 0 -.778-.778-1.586-1.586-1.586-1.586 -.39-.39-1.024-.39-1.414 0 -.39.39-.39 1.024 0 1.414Z"/></g></svg>