<svg viewBox="0 0 32 32" xmlns="http://www.w3.org/2000/svg" xmlns:xlink="http://www.w3.org/1999/xlink"><defs><clipPath id="a"><use clip-rule="evenodd" xlink:href="#b"/></clipPath><path id="b" d="M0 0h32v32H0Z"/></defs><use fill="none" fill-rule="evenodd" xlink:href="#b"/><g clip-path="url(#a)"><g fill="#1C447F" fill-rule="evenodd"><path d="M32 22c0-1.591-.632-3.117-1.757-4.243C29.117 16.632 27.591 16 26 16c-5.718 0-14.282 0-20 0 -3.314 0-6 2.686-6 6v4c0 1.591.632 3.117 1.757 4.243C2.883 31.368 4.409 32 6 32h20c1.591 0 3.117-.632 4.243-1.757C31.368 29.117 32 27.591 32 26c0-1.308 0-2.692 0-4Z"/><path fill="none" fill-rule="evenodd" stroke="#1C447F" stroke-linejoin="round" stroke-miterlimit="1.41421" stroke-width="4" d="M15 9.621l-3.5 3.5L9.379 11V9L16.5 1.879 23.621 9v2L21.5 13.121l-3.5-3.5V22h-3Z"/></g><g fill="#B2D3DE"><path d="M15 9.621l-3.5 3.5L9.379 11V9L16.5 4.879 23.621 9v2L21.5 13.121l-3.5-3.5L17 10l1 4v2h-3v-2l1-4Z"/><path d="M15 7.621l-3.5 3.5L9.379 9 16.5 1.879 23.621 9 21.5 11.121l-3.5-3.5V14h-3Z"/></g><path fill="#FFF" fill-rule="evenodd" d="M30 22c0-1.061-.421-2.078-1.172-2.828C28.078 18.421 27.061 18 26 18c-5.322 0-14.678 0-20 0 -1.061 0-2.078.421-2.828 1.172C2.421 19.922 2 20.939 2 22v4c0 1.061.421 2.078 1.172 2.828C3.922 29.579 4.939 30 6 30h20c1.061 0 2.078-.421 2.828-1.172C29.579 28.078 30 27.061 30 26c0-1.287 0-2.713 0-4Z"/><g fill="#B2D3DE"><path d="M11.927 21.423H9.608v6.454H8.14v-6.454H5.821v-1.277h6.106Z"/><path d="M13.115 27.148c-.56-.567-.84-1.415-.84-2.543v-1.21c0-1.128.285-1.976.857-2.543 .571-.568 1.361-.852 2.369-.852 .994 0 1.774.284 2.342.852 .568.567.852 1.415.852 2.543v1.21c0 1.12-.29 1.966-.869 2.538 -.579.571-1.368.857-2.369.857 -1.001 0-1.782-.284-2.342-.852Zm4.112-2.565v-1.11c0-1.456-.575-2.184-1.726-2.184 -.59 0-1.029.179-1.316.537 -.288.359-.431.908-.431 1.647v1.11c0 .709.143 1.236.431 1.579 .287.344.726.516 1.316.516 1.151 0 1.726-.699 1.726-2.095Z"/><path d="M25.232 20.773c.49.418.734 1.016.734 1.793 0 .747-.244 1.329-.734 1.748 -.489.418-1.185.627-2.089.627h-1.815v2.936H19.86v-7.731h3.339c.866 0 1.544.209 2.033.627Zm-.733 1.782c0-.381-.109-.665-.325-.852 -.217-.187-.523-.28-.919-.28h-1.927v2.23h1.927c.829 0 1.244-.366 1.244-1.098Z"/></g></g></svg>