<svg viewBox="0 0 32 32" xmlns="http://www.w3.org/2000/svg" xmlns:xlink="http://www.w3.org/1999/xlink"><defs><clipPath id="a"><use clip-rule="evenodd" xlink:href="#c"/></clipPath><clipPath id="b"><use clip-rule="evenodd" xlink:href="#d"/></clipPath><path id="c" d="M0 0h32v32H0Z"/><path id="d" d="M19.567 10.351c.287.43.505.902.647 1.399L22 18s-3.107-.518-4.849-.808c-.762-.127-1.54-.127-2.302 0C13.107 17.482 10 18 10 18s-1.383-.691-2.522-1.261c-.972-.486-2.044-.739-3.13-.739C3.246 16 2 16 2 16s.676-1.353 1.387-2.774c1.044-2.087 2.772-3.753 4.897-4.719C11.525 7.034 16 5 16 5Z"/><path id="e" d="M16 14v13c0 .53-.211 1.039-.586 1.414s-.884.586-1.414.586c-.001 0-.001 0-.002 0C12.895 29 12 28.105 12 27.002c0-.001 0-.002 0-.002"/></defs><use fill="none" fill-rule="evenodd" xlink:href="#c"/><g clip-path="url(#a)"><g stroke="#1C447F" fill-rule="evenodd" stroke-miterlimit="1.5" stroke-width="6" fill="none" stroke-linecap="square" stroke-linejoin="round"><use xlink:href="#e"/><path stroke-linecap="round" stroke-miterlimit="3" stroke-width="4" d="M17 5.455V2s1.793 1.793 2.607 2.607c.252.252.393.593.393.949v.002c0 .382-.152.749-.422 1.02 -.012.011-.023.022-.034.033L23 8.182V7l2.69 2.69c1.223.935 2.226 2.141 2.923 3.536C29.324 14.647 30 16 30 16s-1.246 0-2.348 0c-1.086 0-2.158.253-3.13.739C23.383 17.309 22 18 22 18s-3.107-.518-4.849-.808c-.762-.127-1.54-.127-2.302 0C13.107 17.482 10 18 10 18s-1.383-.691-2.522-1.261c-.972-.486-2.044-.739-3.13-.739C3.246 16 2 16 2 16s.676-1.353 1.387-2.774c.905-1.811 2.327-3.305 4.075-4.299C6.619 8.692 6 7.918 6 7c0-2.069 0-5 0-5s2.258 2.258 3.381 3.381c.396.396.619.934.619 1.494V7c0 .279-.058.553-.169.804L14 5.909V5l.625.625L16 5Z"/><use stroke="#FFF" stroke-width="2" xlink:href="#e"/></g><g fill="#9B9B9B" fill-rule="evenodd"><path d="M15 16.249h2V23h-2Z"/><path fill="#5A89A0" d="M23.716 8.507c2.125.966 3.853 2.632 4.897 4.719C29.324 14.647 30 16 30 16s-1.246 0-2.348 0c-1.086 0-2.158.253-3.13.739L22 18 16 5Z"/><use fill="#5E688D" xlink:href="#d"/><path clip-path="url(#b)" fill="none" fill-rule="evenodd" stroke="#FFF" stroke-linecap="square" stroke-linejoin="round" stroke-miterlimit="3" stroke-width="2" d="M16 4v1s-2.532 3.798-3.567 5.351c-.287.43-.505.902-.647 1.399C11.269 13.557 10 18 10 18v2"/><g fill="#B2D3DE"><path d="M14 5v5c0 1.105.895 2 2 2 .53 0 1.039-.211 1.414-.586s.586-.884.586-1.414c0-.042 0-.084 0-.125 0-.56-.223-1.098-.619-1.494C16.258 7.258 14 5 14 5Z"/><path d="M17 2v3.5c0 .398.158.779.439 1.061 .282.281.663.439 1.061.439h.058c.382 0 .749-.152 1.02-.422 .27-.271.422-.638.422-1.02 0-.001 0-.001 0-.002 0-.356-.141-.697-.393-.949C18.793 3.793 17 2 17 2Z"/><path d="M10 10v3.5c0 .398.158.779.439 1.061 .282.281.663.439 1.061.439h.058c.382 0 .749-.152 1.02-.422 .27-.271.422-.638.422-1.02 0-.001 0-.001 0-.002 0-.356-.141-.697-.393-.949C11.793 11.793 10 10 10 10Z"/><path d="M23 7v5c0 1.105.895 2 2 2 .53 0 1.039-.211 1.414-.586s.586-.884.586-1.414c0-.042 0-.084 0-.125 0-.56-.223-1.098-.619-1.494C25.258 9.258 23 7 23 7Z"/><path d="M6 2v5c0 1.105.895 2 2 2 .53 0 1.039-.211 1.414-.586C9.789 8.039 10 7.53 10 7c0-.042 0-.084 0-.125 0-.56-.223-1.098-.619-1.494C8.258 4.258 6 2 6 2Z"/></g></g></g></svg>