<svg viewBox="0 0 32 32" xmlns="http://www.w3.org/2000/svg" xmlns:xlink="http://www.w3.org/1999/xlink"><defs><clipPath id="a"><use clip-rule="evenodd" xlink:href="#b"/></clipPath><path id="b" d="M0 0h32v32H0Z"/></defs><use fill="none" fill-rule="evenodd" xlink:href="#b"/><g clip-path="url(#a)"><g fill="#1C447F" fill-rule="evenodd"><path d="M19 0c7.18 0 13 5.82 13 13v3c0 4.243-1.686 8.313-4.686 11.314C24.313 30.314 20.243 32 16 32 7.163 32 0 24.837 0 16c0-1.007 0-2.014 0-3C0 5.82 5.82 0 13 0Z"/><path fill="#EAD361" d="M30 16c0 3.713-1.475 7.274-4.101 9.899C23.274 28.525 19.713 30 16 30 8.268 30 2 23.732 2 16v-3C2 6.925 6.925 2 13 2h6c6.075 0 11 4.925 11 11Z"/><path fill="#FFF" d="M9.502 24c.928 0 1.817-.369 2.473-1.025C12.631 22.319 13 21.43 13 20.502c0-.657 0-1.345 0-2.002 0-1.933-1.567-3.5-3.5-3.5h-.002c-.928 0-1.817.369-2.473 1.025C6.369 16.681 6 17.57 6 18.498V20.5C6 22.433 7.567 24 9.5 24Z"/><path d="M8 18c0-.53.211-1.039.586-1.414C8.961 16.211 9.47 16 10 16c.53 0 1.039.211 1.414.586s.586.884.586 1.414v2.983c0 .531-.211 1.039-.586 1.415 -.375.375-.884.585-1.414.585 -.53 0-1.039-.21-1.414-.585 -.375-.376-.586-.884-.586-1.415 0-.935 0-2.047 0-2.983Z"/><path fill="#FFF" d="M22.498 24c-.928 0-1.817-.369-2.473-1.025C19.369 22.319 19 21.43 19 20.502c0-.657 0-1.345 0-2.002 0-1.933 1.567-3.5 3.5-3.5h.002c.928 0 1.817.369 2.473 1.025 .656.656 1.025 1.545 1.025 2.473V20.5c0 1.933-1.567 3.5-3.5 3.5Z"/><path d="M24 18c0-.53-.211-1.039-.586-1.414C23.039 16.211 22.53 16 22 16c-.53 0-1.039.211-1.414.586s-.586.884-.586 1.414v2.983c0 .531.211 1.039.586 1.415 .375.375.884.585 1.414.585 .53 0 1.039-.21 1.414-.585 .375-.376.586-.884.586-1.415 0-.935 0-2.047 0-2.983Z"/><path fill="none" fill-rule="evenodd" stroke="#EF5353" stroke-linecap="round" stroke-miterlimit="1.5" stroke-width="2" d="M8 12s.513-.513 1.172-1.172C10.983 9.017 13.439 8 16 8c2.561 0 5.017 1.017 6.828 2.828C23.487 11.487 24 12 24 12"/></g></g></svg>