<svg viewBox="0 0 32 32" xmlns="http://www.w3.org/2000/svg" xmlns:xlink="http://www.w3.org/1999/xlink"><defs><clipPath id="a"><use clip-rule="evenodd" xlink:href="#b"/></clipPath><path id="b" d="M0 0h32v32H0Z"/><path id="c" d="M27 15c0-.552-.448-1-1-1 -1.185 0-3 0-3 0v4h3c.552 0 1-.448 1-1 0-.611 0-1.389 0-2Z"/></defs><use fill="none" fill-rule="evenodd" xlink:href="#b"/><g clip-path="url(#a)"><g fill="#1C447F" fill-rule="evenodd"><path d="M27 8c0-1.061-.421-2.078-1.172-2.828C25.078 4.421 24.061 4 23 4 19.028 4 12.972 4 9 4c-1.061 0-2.078.421-2.828 1.172C5.421 5.922 5 6.939 5 8v16c0 1.061.421 2.078 1.172 2.828C6.922 27.579 7.939 28 9 28h14c1.061 0 2.078-.421 2.828-1.172C26.579 26.078 27 25.061 27 24c0-4.439 0-11.561 0-16Z"/><path d="M23 2c0-1.105-.895-2-2-2 -2.661 0-7.339 0-10 0C9.895 0 9 .895 9 2v28c0 1.105.895 2 2 2h10c1.105 0 2-.895 2-2 0-5.746 0-22.254 0-28Z"/><use fill="none" fill-rule="evenodd" stroke="#1C447F" stroke-linecap="round" stroke-linejoin="round" stroke-miterlimit="2" stroke-width="4" xlink:href="#c"/><path fill="#5E688D" d="M11 2h10v28H11Z"/><g fill="#B2D3DE"><use xlink:href="#c"/><path d="M25 8c0-.53-.211-1.039-.586-1.414C24.039 6.211 23.53 6 23 6 19.537 6 12.463 6 9 6c-.53 0-1.039.211-1.414.586C7.211 6.961 7 7.47 7 8v16c0 .53.211 1.039.586 1.414C7.961 25.789 8.47 26 9 26h14c.53 0 1.039-.211 1.414-.586s.586-.884.586-1.414c0-3.832 0-12.168 0-16Z"/></g><path d="M9 8h14v16H9Z"/><path fill="none" fill-rule="evenodd" stroke="#FFF" stroke-linejoin="round" stroke-miterlimit="1.5" stroke-width="2" d="M16 10v6h4"/></g></g></svg>