<svg viewBox="0 0 32 32" xmlns="http://www.w3.org/2000/svg" xmlns:xlink="http://www.w3.org/1999/xlink"><defs><clipPath id="a"><use clip-rule="evenodd" xlink:href="#b"/></clipPath><path id="b" d="M0 0h32v32H0Z"/></defs><use fill="none" fill-rule="evenodd" xlink:href="#b"/><g clip-path="url(#a)"><g fill="#1C447F" fill-rule="evenodd"><path d="M15 1c3.978 0 7.794 1.58 10.607 4.393C28.42 8.206 30 12.022 30 16v1.205c.121.098.237.204.348.315l.132.132c1.849 1.849 1.849 4.847 0 6.696L24 30.828l-1.324-1.323C20.784 30.479 18.67 31 16.502 31h-3.004c-3.58 0-7.013-1.422-9.545-3.953 -2.531-2.532-3.953-5.965-3.953-9.545V16c0-8.284 6.716-15 15-15Z"/><path fill="#EAD361" d="M28 16c0-3.448-1.37-6.754-3.808-9.192C21.754 4.37 18.448 3 15 3 7.82 3 2 8.82 2 16v1.502c0 3.049 1.211 5.974 3.368 8.13C7.524 27.789 10.449 29 13.498 29h3.004c3.049 0 5.974-1.211 8.13-3.368C26.789 23.476 28 20.551 28 17.502Z"/><path fill="#FFF" d="M8.502 17c.928 0 1.817-.369 2.473-1.025C11.631 15.319 12 14.43 12 13.502c0-.657 0-1.345 0-2.002C12 9.567 10.433 8 8.5 8h-.002c-.928 0-1.817.369-2.473 1.025C5.369 9.681 5 10.57 5 11.498V13.5C5 15.433 6.567 17 8.5 17Z"/><path d="M7 11c0-.53.211-1.039.586-1.414C7.961 9.211 8.47 9 9 9c.53 0 1.039.211 1.414.586s.586.884.586 1.414v2.983c0 .531-.211 1.039-.586 1.415 -.375.375-.884.585-1.414.585 -.53 0-1.039-.21-1.414-.585 -.375-.376-.586-.884-.586-1.415 0-.935 0-2.047 0-2.983Z"/><path d="M16.792 12.294c-.187.187-.292.441-.292.706 0 .265.105.519.292.706 .001.001.001.002.001.002 .983.983 2.317 1.535 3.707 1.535 1.39 0 2.724-.552 3.707-1.535v-.001c.391-.39.391-1.024 0-1.414 -.39-.391-1.024-.391-1.414 0h-.001c-.608.608-1.432.95-2.292.95 -.86 0-1.684-.342-2.292-.95 0 0-.001 0-.002-.001 -.187-.187-.441-.292-.706-.292 -.265 0-.519.105-.706.292Z"/><path fill="#D44B4B" d="M16.221 20.365l-3.592-1.437c-.513-.204-.762-.787-.557-1.299 .204-.513.787-.762 1.299-.557l5 2c.312.124.541.398.609.727 .067.329-.035.67-.273.908L17.414 22l1.293 1.293c.238.238.34.579.273.908 -.068.329-.297.603-.609.727l-5 2c-.512.205-1.095-.044-1.299-.557 -.205-.512.044-1.095.557-1.299l3.592-1.437 -.928-.928c-.383-.402-.383-1.012 0-1.414Z"/><path fill="#F65151" d="M24 28s-2.999-2.999-5.071-5.071c-1.066-1.066-1.068-2.794-.005-3.863 .043-.043.086-.086.129-.129 1.064-1.07 2.795-1.075 3.866-.011C23.507 19.51 24 20 24 20s.486-.486 1.066-1.066c.513-.513 1.209-.801 1.934-.801 .725 0 1.421.288 1.934.801l.132.132c1.068 1.068 1.068 2.8 0 3.868C26.994 25.006 24 28 24 28Z"/></g></g></svg>