<svg viewBox="0 0 32 32" xmlns="http://www.w3.org/2000/svg" xmlns:xlink="http://www.w3.org/1999/xlink"><defs><clipPath id="a"><use clip-rule="evenodd" xlink:href="#b"/></clipPath><path id="b" d="M0 0h32v32H0Z"/></defs><use fill="none" fill-rule="evenodd" xlink:href="#b"/><g clip-path="url(#a)"><g fill="#1C447F" fill-rule="evenodd"><path d="M16 0c4.243 0 8.313 1.686 11.314 4.686C30.314 7.687 32 11.757 32 16v2c0 7.732-6.268 14-14 14 -1.325 0-2.675 0-4 0C6.268 32 0 25.732 0 18v-2C0 7.163 7.163 0 16 0Z"/><path fill="#EAD361" d="M30 16c0-3.713-1.475-7.274-4.101-9.899C23.274 3.475 19.713 2 16 2 8.268 2 2 8.268 2 16v2c0 6.627 5.373 12 12 12h4c6.627 0 12-5.373 12-12Z"/><path d="M22.793 9.793c.089-.088.193-.16.308-.21 .283-.123.616-.107.886.043 .095.054.182.123.256.204 .075.083.136.179.179.282 .048.115.075.239.078.364 .003.129-.019.257-.065.378 -.05.133-.128.252-.228.353L21.414 14H24c.552 0 1 .448 1 1s-.448 1-1 1h-5.667l-.699-1.049Z"/><path fill="#FFF" d="M9.502 18c.928 0 1.817-.369 2.473-1.025C12.631 16.319 13 15.43 13 14.502c0-.657 0-1.345 0-2.002C13 10.567 11.433 9 9.5 9h-.002c-.928 0-1.817.369-2.473 1.025C6.369 10.681 6 11.57 6 12.498V14.5C6 16.433 7.567 18 9.5 18Z"/><path d="M8 12c0-.53.211-1.039.586-1.414C8.961 10.211 9.47 10 10 10c.53 0 1.039.211 1.414.586s.586.884.586 1.414v2.983c0 .531-.211 1.039-.586 1.415 -.375.375-.884.585-1.414.585 -.53 0-1.039-.21-1.414-.585 -.375-.376-.586-.884-.586-1.415 0-.935 0-2.047 0-2.983Z"/><path fill="none" fill-rule="evenodd" stroke="#EF5353" stroke-linecap="round" stroke-miterlimit="1.5" stroke-width="2" d="M9 20s.247.33.6.8c1.511 2.014 3.882 3.2 6.4 3.2 2.518 0 4.889-1.186 6.4-3.2 .353-.47.6-.8.6-.8"/></g></g></svg>