<svg viewBox="0 0 32 32" xmlns="http://www.w3.org/2000/svg" xmlns:xlink="http://www.w3.org/1999/xlink"><defs><clipPath id="a"><use clip-rule="evenodd" xlink:href="#b"/></clipPath><path id="b" d="M0 0h32v32H0Z"/></defs><use fill="none" fill-rule="evenodd" xlink:href="#b"/><g clip-path="url(#a)"><g fill="#1C447F" fill-rule="evenodd"><path d="M16 0c4.243 0 8.313 1.686 11.314 4.686C30.314 7.687 32 11.757 32 16v2c0 7.732-6.268 14-14 14 -1.325 0-2.675 0-4 0C6.268 32 0 25.732 0 18v-2C0 7.163 7.163 0 16 0Z"/><path fill="#EAD361" d="M30 16c0-3.713-1.475-7.274-4.101-9.899C23.274 3.475 19.713 2 16 2 8.268 2 2 8.268 2 16v2c0 6.627 5.373 12 12 12h4c6.627 0 12-5.373 12-12Z"/><path fill="#EF5353" d="M9.354 23.469C7.771 22.06 6.639 20.155 6.201 18h19.598c-.438 2.155-1.57 4.06-3.153 5.469Z"/><path fill="#BB4646" d="M9.354 23.469l.755-1.133c.237-.355.542-.649.891-.87l2 2.814c0 .376-.231.741-.495 1.091 -1.169-.436-2.236-1.086-3.151-1.902Zm10.141 1.902c-.264-.35-.495-.715-.495-1.091l2-2.814c.349.221.654.515.891.87l.755 1.133c-.915.816-1.982 1.466-3.151 1.902Z"/><g fill="#F36879"><path d="M19.394 21c.578 0 1.133.166 1.606.466v1.814H11v-1.814c.473-.3 1.028-.466 1.606-.466Z"/><path d="M21 22H11v2.28c0 2.607 2.113 4.72 4.72 4.72h.56c2.607 0 4.72-2.113 4.72-4.72 0-1.261 0-2.28 0-2.28Z"/></g><path fill="#FFF" d="M9.5 16.842c1.933 0 3.5-1.567 3.5-3.5v-2c0-1.933-1.567-3.5-3.5-3.5h-.002c-.928 0-1.817.369-2.473 1.025C6.369 9.523 6 10.413 6 11.34v2.002c0 1.933 1.567 3.5 3.5 3.5Z"/><path d="M8 10.842c0-.53.211-1.039.586-1.414s.884-.586 1.414-.586c.53 0 1.039.211 1.414.586s.586.884.586 1.414v2.984c0 .53-.211 1.039-.586 1.414s-.884.586-1.414.586c-.53 0-1.039-.211-1.414-.586s-.586-.884-.586-1.414c0-.936 0-2.048 0-2.984Z"/><path d="M22.793 9.793c.089-.088.193-.16.308-.21 .283-.123.616-.107.886.043 .095.054.182.123.256.204 .075.083.136.179.179.282 .048.115.075.239.078.364 .003.129-.019.257-.065.378 -.05.133-.128.252-.228.353L21.414 14H24c.552 0 1 .448 1 1s-.448 1-1 1h-5.667l-.699-1.049Z"/></g></g></svg>