<svg viewBox="0 0 32 32" xmlns="http://www.w3.org/2000/svg" xmlns:xlink="http://www.w3.org/1999/xlink"><defs><clipPath id="a"><use clip-rule="evenodd" xlink:href="#b"/></clipPath><path id="b" d="M0 0v32h32V0Z"/></defs><use fill="none" fill-rule="evenodd" xlink:href="#b"/><g clip-path="url(#a)"><g stroke="#1C447F" fill-rule="evenodd" stroke-miterlimit="3" stroke-width="4" fill="none" stroke-linecap="round" stroke-linejoin="round"><path d="M9.962 12.991l.917-3.555L9.811 7.64C7.508 7.064 3.25 6 3.25 6c.397-1.59 1.682-2.804 3.292-3.11 1.155-.22 2.537-.484 3.817-.727 2.254-.43 4.441 1.007 4.942 3.246l1.411 6.303 11.789 11.789c1.38 1.38 1.38 3.618 0 4.998 -.001.001-.001.001-.002.002 -1.38 1.38-3.618 1.38-4.998 0L14 19H8.411l.329-1.275 -2.648-.677C3.684 16.431 2 14.261 2 11.776 2 11.31 2 11 2 11Z"/><path d="M3.25 6L2 11l9 2.25 1.25-5Z"/></g><g fill="#1C447F" fill-rule="evenodd"><path d="M3.25 5L1 11l10 3.25 1.25-7Z"/><path fill="#FFF" d="M8.022 12.505L11 13.25 9.813 18l-3.01-.771 -.459-1.04 .734-3.249Z"/><g fill="#B2D3DE"><path d="M8.022 12.505l-1.219 4.724 -.711-.181C3.684 16.431 2 14.261 2 11.776 2 11.31 2 11 2 11Z"/><path d="M15.075 4.698c.095.226.17.464.226.711l1.411 6.303 11.789 11.789c1.38 1.38 1.38 3.618 0 4.998 -.001.001-.001.001-.002.002 -1.38 1.38-3.618 1.38-4.998 0L14 19h-2.5l-.619-1.014 3.046-12.442Z"/><path d="M11.5 19H8.411s1.699-6.583 2.468-9.564L9.811 7.64C7.508 7.064 3.25 6 3.25 6c.397-1.59 1.682-2.804 3.292-3.11 1.155-.22 2.537-.484 3.817-.727 2.005-.382 3.957.713 4.716 2.535Z"/></g><path fill="#FFF" d="M14.499 17.499c-.828-.828-.828-2.17 0-2.998 .001-.001.001-.001.002-.002 .828-.828 2.17-.828 2.998 0 2.502 2.502 10.002 10.002 10.002 10.002l-3 3s-7.5-7.5-10.002-10.002Z"/><path d="M24.499 27.499c-.828-.828-.828-2.17 0-2.998 .001-.001.001-.001.002-.002 .828-.828 2.17-.828 2.998 0l.002.002c.828.828.828 2.17 0 2.998 -.001.001-.001.001-.002.002 -.828.828-2.17.828-2.998 0 -.001-.001-.001-.001-.002-.002Z"/></g></g></svg>