<svg viewBox="0 0 32 32" xmlns="http://www.w3.org/2000/svg" xmlns:xlink="http://www.w3.org/1999/xlink"><defs><path d="M3.454 20.597c-.119 0-.22-.044-.302-.132 -.083-.088-.125-.195-.125-.321L2.423 3.831c0-.302.142-.453.427-.453h5.046c.284 0 .426.151.426.453l-.604 16.313c0 .126-.041.233-.124.321 -.083.088-.184.132-.302.132Zm1.67 9.176c-.9 0-1.641-.308-2.221-.925 -.581-.617-.871-1.403-.871-2.36 0-.957.29-1.737.871-2.341 .58-.604 1.321-.906 2.221-.906 .9 0 1.641.302 2.221.906 .58.604.871 1.384.871 2.341 0 .932-.291 1.712-.871 2.341 -.58.63-1.321.944-2.221.944Z" id="a"/><path d="M18.095 20.164c-.118 0-.219-.044-.302-.133 -.083-.088-.124-.195-.124-.321v-.906c0-.956.177-1.781.533-2.473 .355-.693.781-1.259 1.279-1.7 .497-.44 1.149-.95 1.955-1.529 .9-.604 1.557-1.133 1.972-1.586 .414-.453.622-.994.622-1.624 0-.679-.249-1.214-.747-1.605 -.497-.39-1.16-.585-1.99-.585 -.9 0-1.617.22-2.15.661 -.533.44-.799 1.013-.799 1.718v.416c0 .276-.142.415-.427.415l-5.046-.227c-.118 0-.219-.031-.302-.094 -.083-.063-.124-.145-.124-.246v-.264c0-1.586.379-2.989 1.137-4.21s1.818-2.172 3.18-2.851C18.125 2.34 19.682 2 21.436 2c1.729 0 3.239.315 4.531.944 1.291.629 2.286 1.517 2.985 2.662C29.651 6.752 30 8.08 30 9.59c0 1.133-.19 2.096-.569 2.889 -.379.793-.835 1.441-1.368 1.945 -.533.503-1.214 1.045-2.043 1.624 -.829.579-1.445 1.088-1.848 1.529 -.403.44-.604.975-.604 1.605v.528c0 .126-.042.233-.125.321 -.083.089-.183.133-.302.133Zm2.31 8.798c-.877 0-1.605-.308-2.186-.925 -.58-.617-.87-1.403-.87-2.36 0-.982.284-1.775.853-2.379 .568-.604 1.303-.906 2.203-.906 .9 0 1.641.302 2.221.906 .58.604.871 1.397.871 2.379 0 .931-.291 1.712-.871 2.341 -.58.63-1.321.944-2.221.944Z" id="d"/><path d="M18.095 21.164c-.118 0-.219-.044-.302-.133 -.083-.088-.124-.195-.124-.321v-.906c0-.956.177-1.781.533-2.473 .355-.693.781-1.259 1.279-1.7 .497-.44 1.149-.95 1.955-1.529 .9-.604 1.557-1.133 1.972-1.586 .414-.453.622-.994.622-1.624 0-.679-.249-1.214-.747-1.605 -.497-.39-1.16-.585-1.99-.585 -.9 0-1.617.22-2.15.661 -.533.44-.799 1.013-.799 1.718v.416c0 .276-.142.415-.427.415l-5.046-.227c-.118 0-.219-.031-.302-.094 -.083-.063-.124-.145-.124-.246v-.264c0-1.586.379-2.989 1.137-4.21s1.818-2.172 3.18-2.851C18.125 3.34 19.682 3 21.436 3c1.729 0 3.239.315 4.531.944 1.291.629 2.286 1.517 2.985 2.662C29.651 7.752 30 9.08 30 10.59c0 1.133-.19 2.096-.569 2.889 -.379.793-.835 1.441-1.368 1.945 -.533.503-1.214 1.045-2.043 1.624 -.829.579-1.445 1.088-1.848 1.529 -.403.44-.604.975-.604 1.605v.528c0 .126-.042.233-.125.321 -.083.089-.183.133-.302.133Zm2.31 8.798c-.877 0-1.605-.308-2.186-.925 -.58-.617-.87-1.403-.87-2.36 0-.982.284-1.775.853-2.379 .568-.604 1.303-.906 2.203-.906 .9 0 1.641.302 2.221.906 .58.604.871 1.397.871 2.379 0 .931-.291 1.712-.871 2.341 -.58.63-1.321.944-2.221.944Z" id="b"/><path d="M3.454 19.597c-.119 0-.22-.044-.302-.132 -.083-.088-.125-.195-.125-.321L2.423 2.831c0-.302.142-.453.427-.453h5.046c.284 0 .426.151.426.453l-.604 16.313c0 .126-.041.233-.124.321 -.083.088-.184.132-.302.132Zm1.67 9.176c-.9 0-1.641-.308-2.221-.925 -.581-.617-.871-1.403-.871-2.36 0-.957.29-1.737.871-2.341 .58-.604 1.321-.906 2.221-.906 .9 0 1.641.302 2.221.906 .58.604.871 1.384.871 2.341 0 .932-.291 1.712-.871 2.341 -.58.63-1.321.944-2.221.944Z" id="c"/></defs><g fill="none" fill-rule="evenodd"><path d="M0 0v32h32V0Z"/><path fill="#1C447F" d="M15.662 8h10v4h-10Z"/><g stroke="#1C447F" fill-rule="evenodd" stroke-miterlimit="1.41421" stroke-width="4" fill="none" stroke-linejoin="round"><use xlink:href="#a"/><use xlink:href="#b"/><use xlink:href="#c"/><use xlink:href="#d"/></g></g><use fill="#EF5353" xlink:href="#a"/><use fill="#5E688D" xlink:href="#b"/><g fill="#FFF"><use xlink:href="#c"/><use xlink:href="#d"/></g></svg>