<svg xmlns="http://www.w3.org/2000/svg" xmlns:xlink="http://www.w3.org/1999/xlink" width="1024" zoomAndPan="magnify" viewBox="0 0 768 767.999994" height="1024" preserveAspectRatio="xMidYMid meet" version="1.0"><defs><clipPath id="d40761afef"><path d="M 28.625 28.625 L 739.375 28.625 L 739.375 739.375 L 28.625 739.375 Z M 28.625 28.625 " clip-rule="nonzero"/></clipPath><clipPath id="d705340936"><path d="M 384 28.625 C 187.730469 28.625 28.625 187.730469 28.625 384 C 28.625 580.269531 187.730469 739.375 384 739.375 C 580.269531 739.375 739.375 580.269531 739.375 384 C 739.375 187.730469 580.269531 28.625 384 28.625 Z M 384 28.625 " clip-rule="nonzero"/></clipPath><clipPath id="47546f35f4"><path d="M 252 433 L 322 433 L 322 503.082031 L 252 503.082031 Z M 252 433 " clip-rule="nonzero"/></clipPath><clipPath id="a9bca3bbca"><path d="M 154 433 L 225 433 L 225 503.082031 L 154 503.082031 Z M 154 433 " clip-rule="nonzero"/></clipPath><clipPath id="3dad1656cc"><path d="M 349 433 L 419 433 L 419 503.082031 L 349 503.082031 Z M 349 433 " clip-rule="nonzero"/></clipPath><clipPath id="b49c6d0c42"><path d="M 543 433 L 614 433 L 614 503.082031 L 543 503.082031 Z M 543 433 " clip-rule="nonzero"/></clipPath><clipPath id="ee1e4ee07e"><path d="M 446 433 L 517 433 L 517 503.082031 L 446 503.082031 Z M 446 433 " clip-rule="nonzero"/></clipPath><clipPath id="91c49373e7"><path d="M 149.667969 295 L 231 295 L 231 376 L 149.667969 376 Z M 149.667969 295 " clip-rule="nonzero"/></clipPath><clipPath id="d7d0ca4288"><path d="M 440 264.582031 L 522 264.582031 L 522 375 L 440 375 Z M 440 264.582031 " clip-rule="nonzero"/></clipPath><clipPath id="79899f12cb"><path d="M 537 295 L 618.417969 295 L 618.417969 376 L 537 376 Z M 537 295 " clip-rule="nonzero"/></clipPath></defs><rect x="-76.8" width="921.6" fill="#ffffff" y="-76.799999" height="921.599993" fill-opacity="1"/><rect x="-76.8" width="921.6" fill="#ffffff" y="-76.799999" height="921.599993" fill-opacity="1"/><g clip-path="url(#d40761afef)"><g clip-path="url(#d705340936)"><path fill="#000000" d="M 28.625 28.625 L 739.375 28.625 L 739.375 739.375 L 28.625 739.375 Z M 28.625 28.625 " fill-opacity="1" fill-rule="nonzero"/></g></g><g clip-path="url(#47546f35f4)"><path fill="#ffffff" d="M 286.894531 433.601562 C 267.714844 433.601562 252.121094 449.175781 252.121094 468.320312 C 252.121094 487.464844 267.707031 503.042969 286.894531 503.042969 C 306.082031 503.042969 321.652344 487.464844 321.652344 468.320312 C 321.652344 449.175781 306.058594 433.601562 286.894531 433.601562 " fill-opacity="1" fill-rule="nonzero"/></g><g clip-path="url(#a9bca3bbca)"><path fill="#ffffff" d="M 189.703125 433.601562 C 170.523438 433.601562 154.929688 449.1875 154.929688 468.320312 C 154.929688 487.457031 170.523438 503.042969 189.703125 503.042969 C 208.882812 503.042969 224.480469 487.464844 224.480469 468.320312 C 224.480469 449.175781 208.882812 433.601562 189.703125 433.601562 " fill-opacity="1" fill-rule="nonzero"/></g><g clip-path="url(#3dad1656cc)"><path fill="#ffffff" d="M 384.066406 433.601562 C 364.902344 433.601562 349.292969 449.1875 349.292969 468.320312 C 349.292969 487.457031 364.902344 503.042969 384.066406 503.042969 C 403.230469 503.042969 418.84375 487.464844 418.84375 468.320312 C 418.84375 449.175781 403.242188 433.601562 384.066406 433.601562 " fill-opacity="1" fill-rule="nonzero"/></g><g clip-path="url(#b49c6d0c42)"><path fill="#ffffff" d="M 578.425781 433.601562 C 559.25 433.601562 543.652344 449.175781 543.652344 468.320312 C 543.652344 487.464844 559.25 503.042969 578.425781 503.042969 C 597.601562 503.042969 613.199219 487.464844 613.199219 468.320312 C 613.199219 449.175781 597.601562 433.601562 578.425781 433.601562 " fill-opacity="1" fill-rule="nonzero"/></g><g clip-path="url(#ee1e4ee07e)"><path fill="#ffffff" d="M 481.246094 433.601562 C 462.070312 433.601562 446.46875 449.179688 446.46875 468.320312 C 446.46875 487.464844 462.070312 503.042969 481.246094 503.042969 C 500.421875 503.042969 516.03125 487.46875 516.03125 468.320312 C 516.03125 449.171875 500.4375 433.601562 481.261719 433.601562 " fill-opacity="1" fill-rule="nonzero"/></g><g clip-path="url(#91c49373e7)"><path fill="#ffffff" d="M 218.691406 335.21875 C 218.691406 318.984375 206.421875 306.734375 190.160156 306.734375 C 173.902344 306.734375 161.632812 318.984375 161.632812 335.21875 C 161.632812 351.453125 173.902344 363.703125 190.160156 363.703125 C 206.421875 363.703125 218.691406 351.453125 218.691406 335.21875 M 149.667969 335.21875 C 149.667969 312.707031 167.769531 295.710938 190.160156 295.710938 C 212.707031 295.710938 230.65625 312.554688 230.65625 335.0625 L 230.65625 369.675781 C 230.65625 373.199219 228.199219 375.648438 224.519531 375.648438 C 220.683594 375.648438 218.382812 373.199219 218.382812 369.675781 L 218.382812 359.566406 L 217.769531 359.566406 C 213.015625 367.683594 203.507812 374.734375 189.394531 374.734375 C 167.613281 374.726562 149.667969 357.882812 149.667969 335.21875 " fill-opacity="1" fill-rule="nonzero"/></g><path fill="#ffffff" d="M 315.632812 335.21875 C 315.632812 318.984375 303.363281 306.734375 287.101562 306.734375 C 270.84375 306.734375 258.574219 318.984375 258.574219 335.21875 C 258.574219 351.453125 270.84375 363.703125 287.101562 363.703125 C 303.359375 363.703125 315.632812 351.453125 315.632812 335.21875 M 262.253906 400.304688 C 259.035156 398.761719 257.5 396.015625 258.726562 392.796875 C 259.957031 389.429688 263.023438 388.054688 266.242188 389.582031 C 272.511719 392.519531 279.105469 394 286.027344 394.023438 C 304.28125 394.023438 315.324219 383.152344 315.324219 364.621094 L 315.324219 359.566406 L 314.710938 359.566406 C 309.957031 367.683594 300.445312 374.734375 286.335938 374.734375 C 264.554688 374.734375 246.609375 357.886719 246.609375 335.222656 C 246.609375 312.710938 264.710938 295.714844 287.101562 295.714844 C 309.652344 295.714844 327.597656 312.558594 327.597656 335.070312 L 327.597656 363.84375 C 327.597656 388.65625 311.632812 405.34375 285.566406 405.34375 C 277.585938 405.34375 269.605469 403.804688 262.253906 400.292969 " fill-opacity="1" fill-rule="nonzero"/><path fill="#ffffff" d="M 412.574219 335.21875 C 412.574219 318.984375 400.300781 306.734375 384.046875 306.734375 C 367.789062 306.734375 355.515625 318.984375 355.515625 335.21875 C 355.515625 351.453125 367.785156 363.703125 384.046875 363.703125 C 400.308594 363.703125 412.574219 351.453125 412.574219 335.21875 M 343.550781 335.21875 C 343.550781 312.707031 361.5 295.710938 384.046875 295.710938 C 406.59375 295.710938 424.535156 312.707031 424.535156 335.21875 C 424.535156 357.730469 406.59375 374.726562 384.046875 374.726562 C 361.5 374.726562 343.550781 357.730469 343.550781 335.21875 " fill-opacity="1" fill-rule="nonzero"/><g clip-path="url(#d7d0ca4288)"><path fill="#ffffff" d="M 509.515625 335.21875 C 509.515625 318.984375 497.242188 306.734375 480.988281 306.734375 C 464.730469 306.734375 452.457031 318.984375 452.457031 335.21875 C 452.457031 351.453125 464.726562 363.703125 480.988281 363.703125 C 497.25 363.703125 509.515625 351.453125 509.515625 335.21875 M 440.492188 335.21875 C 440.492188 312.707031 458.285156 295.710938 480.21875 295.710938 C 494.332031 295.710938 503.839844 302.753906 508.59375 310.875 L 509.207031 310.875 L 509.207031 270.59375 C 509.207031 267.070312 511.65625 264.621094 515.34375 264.621094 C 519.179688 264.621094 521.476562 267.070312 521.476562 270.59375 L 521.476562 335.371094 C 521.476562 357.886719 503.53125 374.730469 480.988281 374.730469 C 458.589844 374.730469 440.492188 357.734375 440.492188 335.222656 " fill-opacity="1" fill-rule="nonzero"/></g><g clip-path="url(#79899f12cb)"><path fill="#ffffff" d="M 606.457031 335.21875 C 606.457031 318.984375 594.183594 306.734375 577.929688 306.734375 C 561.671875 306.734375 549.398438 318.984375 549.398438 335.21875 C 549.398438 351.453125 561.667969 363.703125 577.929688 363.703125 C 594.1875 363.703125 606.457031 351.453125 606.457031 335.21875 M 537.433594 335.21875 C 537.433594 312.707031 555.535156 295.710938 577.929688 295.710938 C 600.472656 295.710938 618.417969 312.554688 618.417969 335.0625 L 618.417969 369.675781 C 618.417969 373.199219 615.964844 375.648438 612.285156 375.648438 C 608.449219 375.648438 606.148438 373.199219 606.148438 369.675781 L 606.148438 359.566406 L 605.535156 359.566406 C 600.78125 367.683594 591.273438 374.734375 577.160156 374.734375 C 555.378906 374.734375 537.433594 357.886719 537.433594 335.222656 " fill-opacity="1" fill-rule="nonzero"/></g></svg>