<svg xmlns="http://www.w3.org/2000/svg" xmlns:xlink="http://www.w3.org/1999/xlink" width="1024" zoomAndPan="magnify" viewBox="0 0 768 767.999994" height="1024" preserveAspectRatio="xMidYMid meet" version="1.0"><defs><clipPath id="ba633fcb27"><path d="M 28.625 28.625 L 739.375 28.625 L 739.375 739.375 L 28.625 739.375 Z M 28.625 28.625 " clip-rule="nonzero"/></clipPath><clipPath id="367cfad2ac"><path d="M 384 28.625 C 187.730469 28.625 28.625 187.734375 28.625 384 C 28.625 580.269531 187.730469 739.375 384 739.375 C 580.269531 739.375 739.375 580.269531 739.375 384 C 739.375 187.734375 580.269531 28.625 384 28.625 Z M 384 28.625 " clip-rule="nonzero"/></clipPath></defs><rect x="-76.8" width="921.6" fill="#ffffff" y="-76.799999" height="921.599993" fill-opacity="1"/><rect x="-76.8" width="921.6" fill="#ffffff" y="-76.799999" height="921.599993" fill-opacity="1"/><g clip-path="url(#ba633fcb27)"><g clip-path="url(#367cfad2ac)"><path fill="#000000" d="M 28.625 28.625 L 739.375 28.625 L 739.375 739.375 L 28.625 739.375 Z M 28.625 28.625 " fill-opacity="1" fill-rule="nonzero"/></g></g><path fill="#ffffff" d="M 399.511719 339.445312 C 399.511719 345.898438 394.3125 351.097656 387.859375 351.097656 C 381.402344 351.097656 376.203125 345.898438 376.203125 339.445312 C 376.203125 332.988281 381.222656 327.789062 387.859375 327.789062 C 394.492188 327.96875 399.511719 333.167969 399.511719 339.445312 Z M 351.460938 362.929688 L 351.460938 365.800781 C 351.460938 365.800781 345.90625 358.628906 334.070312 358.628906 C 314.527344 358.628906 299.289062 373.507812 299.289062 394.128906 C 299.289062 414.566406 314.351562 429.625 334.070312 429.625 C 346.082031 429.625 351.460938 422.277344 351.460938 422.277344 L 351.460938 425.324219 C 351.460938 426.757812 352.539062 427.832031 353.972656 427.832031 L 368.496094 427.832031 L 368.496094 360.421875 L 353.972656 360.421875 C 352.539062 360.421875 351.460938 361.675781 351.460938 362.929688 Z M 351.460938 406.140625 C 348.773438 410.082031 343.394531 413.492188 336.941406 413.492188 C 325.464844 413.492188 316.679688 406.320312 316.679688 394.128906 C 316.679688 381.9375 325.464844 374.765625 336.941406 374.765625 C 343.214844 374.765625 348.953125 378.351562 351.460938 382.113281 Z M 379.253906 360.421875 L 396.464844 360.421875 L 396.464844 427.832031 L 379.253906 427.832031 Z M 636.351562 358.628906 C 624.519531 358.628906 618.960938 365.800781 618.960938 365.800781 L 618.960938 327.96875 L 601.75 327.96875 L 601.75 427.832031 L 616.273438 427.832031 C 617.707031 427.832031 618.78125 426.578125 618.78125 425.324219 L 618.78125 422.277344 C 618.78125 422.277344 624.339844 429.625 636.171875 429.625 C 655.714844 429.625 670.953125 414.566406 670.953125 394.128906 C 670.953125 373.6875 655.714844 358.628906 636.351562 358.628906 Z M 633.484375 413.3125 C 626.851562 413.3125 621.652344 409.90625 618.960938 405.960938 L 618.960938 381.9375 C 621.652344 378.351562 627.386719 374.585938 633.484375 374.585938 C 644.957031 374.585938 653.742188 381.757812 653.742188 393.949219 C 653.742188 406.140625 644.957031 413.3125 633.484375 413.3125 Z M 592.785156 387.851562 L 592.785156 428.011719 L 575.574219 428.011719 L 575.574219 389.824219 C 575.574219 378.707031 571.988281 374.226562 562.304688 374.226562 C 557.105469 374.226562 551.726562 376.914062 548.320312 380.859375 L 548.320312 427.832031 L 531.109375 427.832031 L 531.109375 360.421875 L 544.734375 360.421875 C 546.171875 360.421875 547.246094 361.675781 547.246094 362.929688 L 547.246094 365.800781 C 552.265625 360.601562 558.898438 358.628906 565.53125 358.628906 C 573.0625 358.628906 579.339844 360.78125 584.359375 365.082031 C 590.453125 370.101562 592.785156 376.558594 592.785156 387.851562 Z M 489.335938 358.628906 C 477.503906 358.628906 471.945312 365.800781 471.945312 365.800781 L 471.945312 327.96875 L 454.734375 327.96875 L 454.734375 427.832031 L 469.253906 427.832031 C 470.691406 427.832031 471.765625 426.578125 471.765625 425.324219 L 471.765625 422.277344 C 471.765625 422.277344 477.324219 429.625 489.15625 429.625 C 508.699219 429.625 523.9375 414.566406 523.9375 394.128906 C 524.117188 373.6875 508.878906 358.628906 489.335938 358.628906 Z M 486.46875 413.3125 C 479.832031 413.3125 474.632812 409.90625 471.945312 405.960938 L 471.945312 381.9375 C 474.632812 378.351562 480.371094 374.585938 486.46875 374.585938 C 497.941406 374.585938 506.726562 381.757812 506.726562 393.949219 C 506.726562 406.140625 497.941406 413.3125 486.46875 413.3125 Z M 439.851562 358.628906 C 445.050781 358.628906 447.742188 359.523438 447.742188 359.523438 L 447.742188 375.480469 C 447.742188 375.480469 433.398438 370.640625 424.433594 380.859375 L 424.433594 428.011719 L 407.222656 428.011719 L 407.222656 360.421875 L 421.742188 360.421875 C 423.179688 360.421875 424.253906 361.675781 424.253906 362.929688 L 424.253906 365.800781 C 427.480469 362.035156 434.472656 358.628906 439.851562 358.628906 Z M 261.101562 421.738281 C 260.203125 419.585938 259.308594 417.253906 258.410156 415.285156 C 256.976562 412.054688 255.542969 409.007812 254.289062 406.140625 L 254.109375 405.960938 C 241.738281 379.066406 228.46875 351.816406 214.484375 324.921875 L 213.949219 323.847656 C 212.515625 321.15625 211.078125 318.289062 209.644531 315.417969 C 207.851562 312.191406 206.058594 308.785156 203.191406 305.558594 C 197.453125 298.386719 189.207031 294.441406 180.421875 294.441406 C 171.457031 294.441406 163.390625 298.386719 157.472656 305.199219 C 154.78125 308.425781 152.8125 311.832031 151.019531 315.0625 C 149.582031 317.929688 148.148438 320.796875 146.714844 323.488281 L 146.175781 324.5625 C 132.371094 351.457031 118.925781 378.707031 106.554688 405.601562 L 106.375 405.960938 C 105.121094 408.828125 103.6875 411.875 102.25 415.105469 C 101.355469 417.078125 100.457031 419.226562 99.5625 421.558594 C 97.230469 428.191406 96.515625 434.46875 97.410156 440.921875 C 99.382812 454.367188 108.347656 465.664062 120.71875 470.683594 C 125.378906 472.65625 130.21875 473.550781 135.242188 473.550781 C 136.675781 473.550781 138.46875 473.371094 139.902344 473.195312 C 145.820312 472.476562 151.914062 470.503906 157.832031 467.097656 C 165.183594 462.972656 172.175781 457.058594 180.0625 448.453125 C 187.953125 457.058594 195.121094 462.972656 202.292969 467.097656 C 208.210938 470.503906 214.308594 472.476562 220.222656 473.195312 C 221.65625 473.371094 223.449219 473.550781 224.886719 473.550781 C 229.90625 473.550781 234.925781 472.65625 239.40625 470.683594 C 251.957031 465.664062 260.742188 454.1875 262.714844 440.921875 C 264.148438 434.644531 263.433594 428.371094 261.101562 421.738281 Z M 180.242188 431.0625 C 170.558594 418.867188 164.285156 407.394531 162.132812 397.714844 C 161.238281 393.589844 161.058594 390.003906 161.597656 386.777344 C 161.953125 383.90625 163.03125 381.398438 164.464844 379.246094 C 167.871094 374.40625 173.609375 371.359375 180.242188 371.359375 C 186.875 371.359375 192.792969 374.226562 196.019531 379.246094 C 197.453125 381.398438 198.53125 383.90625 198.886719 386.777344 C 199.425781 390.003906 199.246094 393.769531 198.351562 397.714844 C 196.199219 407.214844 189.921875 418.691406 180.242188 431.0625 Z M 251.777344 439.488281 C 250.523438 448.808594 244.246094 456.878906 235.460938 460.464844 C 231.160156 462.257812 226.5 462.792969 221.835938 462.257812 C 217.355469 461.71875 212.871094 460.285156 208.210938 457.59375 C 201.757812 454.007812 195.300781 448.453125 187.773438 440.203125 C 199.605469 425.683594 206.777344 412.414062 209.464844 400.582031 C 210.722656 395.023438 210.898438 390.003906 210.363281 385.34375 C 209.644531 380.859375 208.03125 376.734375 205.523438 373.152344 C 199.964844 365.082031 190.640625 360.421875 180.242188 360.421875 C 169.84375 360.421875 160.519531 365.261719 154.960938 373.152344 C 152.453125 376.734375 150.839844 380.859375 150.121094 385.34375 C 149.402344 390.003906 149.582031 395.203125 151.019531 400.582031 C 153.707031 412.414062 161.058594 425.859375 172.710938 440.382812 C 165.359375 448.632812 158.726562 454.1875 152.273438 457.773438 C 147.613281 460.464844 143.128906 461.898438 138.648438 462.4375 C 133.804688 462.972656 129.144531 462.257812 125.019531 460.644531 C 116.234375 457.058594 109.960938 448.988281 108.707031 439.667969 C 108.167969 435.183594 108.527344 430.703125 110.320312 425.683594 C 110.855469 423.890625 111.753906 422.097656 112.648438 419.945312 C 113.90625 417.074219 115.339844 414.027344 116.773438 410.980469 L 116.953125 410.621094 C 129.324219 383.90625 142.589844 356.65625 156.398438 330.121094 L 156.933594 329.046875 C 158.367188 326.355469 159.804688 323.488281 161.238281 320.796875 C 162.671875 317.929688 164.285156 315.238281 166.257812 312.910156 C 170.023438 308.605469 175.042969 306.277344 180.601562 306.277344 C 186.160156 306.277344 191.179688 308.605469 194.945312 312.910156 C 196.914062 315.238281 198.53125 317.929688 199.964844 320.796875 C 201.398438 323.488281 202.832031 326.355469 204.265625 329.046875 L 204.804688 330.121094 C 218.429688 356.835938 231.699219 384.085938 244.070312 410.800781 L 244.070312 410.980469 C 245.503906 413.847656 246.757812 417.074219 248.191406 419.945312 C 249.089844 422.097656 249.984375 423.890625 250.523438 425.683594 C 251.957031 430.34375 252.496094 434.824219 251.777344 439.488281 Z M 251.777344 439.488281 " fill-opacity="1" fill-rule="nonzero"/></svg>