<svg xmlns="http://www.w3.org/2000/svg" xmlns:xlink="http://www.w3.org/1999/xlink" width="1024" zoomAndPan="magnify" viewBox="0 0 768 767.999994" height="1024" preserveAspectRatio="xMidYMid meet" version="1.0"><defs><clipPath id="a1120646aa"><path d="M 76 76.800781 L 717 76.800781 L 717 691 L 76 691 Z M 76 76.800781 " clip-rule="nonzero"/></clipPath><clipPath id="8439a30d9a"><path d="M 242.921875 76.800781 L 242.921875 690.414062 C 244.722656 690.542969 246.519531 690.542969 248.320312 690.542969 L 543.949219 690.542969 L 543.949219 76.800781 Z M 590.203125 76.800781 L 543.949219 76.800781 L 543.949219 690.414062 L 544.976562 690.414062 C 619.75 690.414062 685.40625 629.386719 690.800781 554.871094 L 716.109375 212.214844 C 721.636719 137.828125 664.976562 76.800781 590.203125 76.800781 Z M 203.09375 76.800781 C 128.320312 76.800781 71.660156 137.828125 77.183594 212.34375 L 102.496094 555 C 107.890625 627.71875 170.589844 687.589844 243.050781 690.414062 L 243.050781 76.800781 Z M 203.09375 76.800781 " clip-rule="nonzero"/></clipPath></defs><rect x="-76.8" width="921.6" fill="#ffffff" y="-76.799999" height="921.599993" fill-opacity="1"/><rect x="-76.8" width="921.6" fill="#ffffff" y="-76.799999" height="921.599993" fill-opacity="1"/><g clip-path="url(#a1120646aa)"><g clip-path="url(#8439a30d9a)"><path fill="#000000" d="M 76.800781 76.800781 L 716.089844 76.800781 L 716.089844 690.414062 L 76.800781 690.414062 Z M 76.800781 76.800781 " fill-opacity="1" fill-rule="nonzero"/></g></g><path fill="#ffffff" d="M 410.789062 343.382812 C 410.789062 349.265625 406.046875 354.003906 400.164062 354.003906 C 394.28125 354.003906 389.539062 349.265625 389.539062 343.382812 C 389.539062 337.496094 394.117188 332.757812 400.164062 332.757812 C 406.210938 332.921875 410.789062 337.660156 410.789062 343.382812 Z M 366.984375 364.792969 L 366.984375 367.40625 C 366.984375 367.40625 361.917969 360.871094 351.132812 360.871094 C 333.316406 360.871094 319.421875 374.4375 319.421875 393.230469 C 319.421875 411.863281 333.152344 425.59375 351.132812 425.59375 C 362.082031 425.59375 366.984375 418.894531 366.984375 418.894531 L 366.984375 421.671875 C 366.984375 422.980469 367.964844 423.960938 369.273438 423.960938 L 382.511719 423.960938 L 382.511719 362.503906 L 369.273438 362.503906 C 367.964844 362.503906 366.984375 363.648438 366.984375 364.792969 Z M 366.984375 404.183594 C 364.535156 407.777344 359.628906 410.882812 353.746094 410.882812 C 343.285156 410.882812 335.277344 404.347656 335.277344 393.230469 C 335.277344 382.117188 343.285156 375.582031 353.746094 375.582031 C 359.464844 375.582031 364.695312 378.847656 366.984375 382.28125 Z M 392.320312 362.503906 L 408.007812 362.503906 L 408.007812 423.960938 L 392.320312 423.960938 Z M 626.699219 360.871094 C 615.910156 360.871094 610.84375 367.40625 610.84375 367.40625 L 610.84375 332.921875 L 595.152344 332.921875 L 595.152344 423.960938 L 608.394531 423.960938 C 609.699219 423.960938 610.679688 422.816406 610.679688 421.671875 L 610.679688 418.894531 C 610.679688 418.894531 615.746094 425.59375 626.535156 425.59375 C 644.351562 425.59375 658.242188 411.863281 658.242188 393.230469 C 658.242188 374.597656 644.351562 360.871094 626.699219 360.871094 Z M 624.082031 410.722656 C 618.035156 410.722656 613.296875 407.617188 610.84375 404.019531 L 610.84375 382.117188 C 613.296875 378.847656 618.527344 375.417969 624.082031 375.417969 C 634.542969 375.417969 642.554688 381.953125 642.554688 393.070312 C 642.554688 404.183594 634.542969 410.722656 624.082031 410.722656 Z M 586.980469 387.511719 L 586.980469 424.125 L 571.289062 424.125 L 571.289062 389.308594 C 571.289062 379.175781 568.023438 375.089844 559.195312 375.089844 C 554.457031 375.089844 549.554688 377.542969 546.449219 381.136719 L 546.449219 423.960938 L 530.757812 423.960938 L 530.757812 362.503906 L 543.179688 362.503906 C 544.484375 362.503906 545.464844 363.648438 545.464844 364.792969 L 545.464844 367.40625 C 550.042969 362.667969 556.089844 360.871094 562.136719 360.871094 C 569.003906 360.871094 574.722656 362.832031 579.300781 366.753906 C 584.855469 371.332031 586.980469 377.214844 586.980469 387.511719 Z M 492.675781 360.871094 C 481.886719 360.871094 476.820312 367.40625 476.820312 367.40625 L 476.820312 332.921875 L 461.128906 332.921875 L 461.128906 423.960938 L 474.367188 423.960938 C 475.675781 423.960938 476.65625 422.816406 476.65625 421.671875 L 476.65625 418.894531 C 476.65625 418.894531 481.722656 425.59375 492.511719 425.59375 C 510.324219 425.59375 524.21875 411.863281 524.21875 393.230469 C 524.382812 374.597656 510.488281 360.871094 492.675781 360.871094 Z M 490.058594 410.722656 C 484.011719 410.722656 479.273438 407.617188 476.820312 404.019531 L 476.820312 382.117188 C 479.273438 378.847656 484.5 375.417969 490.058594 375.417969 C 500.519531 375.417969 508.527344 381.953125 508.527344 393.070312 C 508.527344 404.183594 500.519531 410.722656 490.058594 410.722656 Z M 447.5625 360.871094 C 452.304688 360.871094 454.753906 361.6875 454.753906 361.6875 L 454.753906 376.234375 C 454.753906 376.234375 441.679688 371.820312 433.507812 381.136719 L 433.507812 424.125 L 417.816406 424.125 L 417.816406 362.503906 L 431.054688 362.503906 C 432.363281 362.503906 433.34375 363.648438 433.34375 364.792969 L 433.34375 367.40625 C 436.285156 363.976562 442.660156 360.871094 447.5625 360.871094 Z M 284.609375 418.402344 C 283.792969 416.441406 282.972656 414.316406 282.15625 412.519531 C 280.851562 409.578125 279.542969 406.796875 278.398438 404.183594 L 278.234375 404.019531 C 266.957031 379.503906 254.863281 354.660156 242.113281 330.144531 L 241.621094 329.160156 C 240.316406 326.710938 239.007812 324.09375 237.699219 321.480469 C 236.066406 318.539062 234.429688 315.433594 231.816406 312.492188 C 226.585938 305.953125 219.066406 302.355469 211.058594 302.355469 C 202.886719 302.355469 195.53125 305.953125 190.136719 312.164062 C 187.6875 315.105469 185.886719 318.210938 184.253906 321.152344 C 182.945312 323.769531 181.640625 326.382812 180.332031 328.835938 L 179.839844 329.816406 C 167.253906 354.332031 154.996094 379.175781 143.71875 403.691406 L 143.554688 404.019531 C 142.414062 406.632812 141.105469 409.414062 139.796875 412.355469 C 138.980469 414.152344 138.164062 416.113281 137.34375 418.238281 C 135.21875 424.285156 134.566406 430.007812 135.382812 435.890625 C 137.183594 448.148438 145.355469 458.445312 156.632812 463.023438 C 160.882812 464.820312 165.292969 465.636719 169.871094 465.636719 C 171.179688 465.636719 172.8125 465.476562 174.121094 465.3125 C 179.515625 464.65625 185.070312 462.859375 190.464844 459.753906 C 197.167969 455.996094 203.539062 450.601562 210.730469 442.757812 C 217.921875 450.601562 224.460938 455.996094 231 459.753906 C 236.394531 462.859375 241.949219 464.65625 247.34375 465.3125 C 248.652344 465.476562 250.285156 465.636719 251.59375 465.636719 C 256.167969 465.636719 260.746094 464.820312 264.832031 463.023438 C 276.273438 458.445312 284.28125 447.984375 286.078125 435.890625 C 287.386719 430.171875 286.734375 424.449219 284.609375 418.402344 Z M 210.894531 426.902344 C 202.070312 415.789062 196.347656 405.328125 194.386719 396.5 C 193.570312 392.742188 193.40625 389.472656 193.898438 386.53125 C 194.222656 383.914062 195.203125 381.628906 196.511719 379.667969 C 199.617188 375.253906 204.847656 372.476562 210.894531 372.476562 C 216.941406 372.476562 222.335938 375.089844 225.277344 379.667969 C 226.585938 381.628906 227.566406 383.914062 227.894531 386.53125 C 228.382812 389.472656 228.21875 392.90625 227.402344 396.5 C 225.441406 405.164062 219.722656 415.625 210.894531 426.902344 Z M 276.109375 434.582031 C 274.964844 443.082031 269.246094 450.4375 261.238281 453.707031 C 257.3125 455.339844 253.0625 455.832031 248.816406 455.339844 C 244.726562 454.851562 240.640625 453.542969 236.394531 451.089844 C 230.507812 447.824219 224.625 442.757812 217.761719 435.238281 C 228.546875 422 235.085938 409.902344 237.535156 399.117188 C 238.679688 394.050781 238.84375 389.472656 238.355469 385.222656 C 237.699219 381.136719 236.230469 377.378906 233.941406 374.109375 C 228.875 366.753906 220.375 362.503906 210.894531 362.503906 C 201.414062 362.503906 192.917969 366.917969 187.851562 374.109375 C 185.5625 377.378906 184.089844 381.136719 183.4375 385.222656 C 182.78125 389.472656 182.945312 394.214844 184.253906 399.117188 C 186.707031 409.902344 193.40625 422.160156 204.03125 435.402344 C 197.328125 442.917969 191.28125 447.984375 185.398438 451.253906 C 181.148438 453.707031 177.0625 455.015625 172.976562 455.503906 C 168.5625 455.996094 164.3125 455.339844 160.554688 453.871094 C 152.546875 450.601562 146.824219 443.246094 145.679688 434.746094 C 145.191406 430.660156 145.515625 426.574219 147.152344 422 C 147.640625 420.363281 148.460938 418.730469 149.277344 416.769531 C 150.421875 414.152344 151.726562 411.375 153.035156 408.597656 L 153.199219 408.269531 C 164.476562 383.914062 176.570312 359.074219 189.15625 334.882812 L 189.648438 333.902344 C 190.957031 331.449219 192.261719 328.835938 193.570312 326.382812 C 194.878906 323.769531 196.347656 321.316406 198.148438 319.191406 C 201.578125 315.269531 206.15625 313.144531 211.222656 313.144531 C 216.289062 313.144531 220.867188 315.269531 224.296875 319.191406 C 226.097656 321.316406 227.566406 323.769531 228.875 326.382812 C 230.183594 328.835938 231.488281 331.449219 232.796875 333.902344 L 233.289062 334.882812 C 245.710938 359.234375 257.804688 384.078125 269.082031 408.433594 L 269.082031 408.597656 C 270.390625 411.210938 271.535156 414.152344 272.839844 416.769531 C 273.660156 418.730469 274.476562 420.363281 274.964844 422 C 276.273438 426.246094 276.761719 430.335938 276.109375 434.582031 Z M 276.109375 434.582031 " fill-opacity="1" fill-rule="nonzero"/></svg>