<svg xmlns="http://www.w3.org/2000/svg" xmlns:xlink="http://www.w3.org/1999/xlink" width="1024" zoomAndPan="magnify" viewBox="0 0 768 767.999994" height="1024" preserveAspectRatio="xMidYMid meet" version="1.0"><defs><clipPath id="e3872da1b2"><path d="M 28.625 28.625 L 739.375 28.625 L 739.375 739.375 L 28.625 739.375 Z M 28.625 28.625 " clip-rule="nonzero"/></clipPath><clipPath id="e44e3fd455"><path d="M 384 28.625 C 187.730469 28.625 28.625 187.730469 28.625 384 C 28.625 580.269531 187.730469 739.375 384 739.375 C 580.269531 739.375 739.375 580.269531 739.375 384 C 739.375 187.730469 580.269531 28.625 384 28.625 Z M 384 28.625 " clip-rule="nonzero"/></clipPath><clipPath id="91abf0c51c"><path d="M 101.792969 344.78125 L 691.503906 344.78125 L 691.503906 423.210938 L 101.792969 423.210938 Z M 101.792969 344.78125 " clip-rule="nonzero"/></clipPath></defs><rect x="-76.8" width="921.6" fill="#ffffff" y="-76.799999" height="921.599993" fill-opacity="1"/><rect x="-76.8" width="921.6" fill="#ffffff" y="-76.799999" height="921.599993" fill-opacity="1"/><g clip-path="url(#e3872da1b2)"><g clip-path="url(#e44e3fd455)"><path fill="#000000" d="M 28.625 28.625 L 739.375 28.625 L 739.375 739.375 L 28.625 739.375 Z M 28.625 28.625 " fill-opacity="1" fill-rule="nonzero"/></g></g><g clip-path="url(#91abf0c51c)"><path fill="#ffffff" d="M 472.585938 419.613281 C 472.585938 419.613281 485.550781 423.210938 502.105469 423.210938 C 519.75 423.210938 527.917969 421.25 527.917969 421.25 L 527.917969 408.175781 C 527.917969 408.175781 519.097656 409.921875 506.789062 409.921875 C 496.007812 409.921875 489.359375 408.503906 489.359375 408.503906 L 489.359375 389.988281 L 522.804688 389.988281 L 522.804688 376.914062 L 489.359375 376.914062 L 489.359375 359.269531 C 489.359375 359.269531 495.894531 358.070312 505.699219 358.070312 C 516.703125 358.070312 526.613281 359.8125 526.613281 359.8125 L 526.613281 346.632812 C 526.613281 346.632812 517.898438 344.78125 503.738281 344.78125 C 484.894531 344.78125 472.585938 348.160156 472.585938 348.160156 Z M 233.597656 389.875 C 233.160156 390.964844 232.617188 393.035156 232.289062 394.234375 C 231.964844 393.035156 231.417969 390.964844 230.984375 389.875 L 216.167969 351.863281 C 213.664062 345.542969 209.742188 344.78125 202.554688 344.78125 C 200.046875 344.78125 194.925781 345.105469 194.925781 345.105469 L 187.300781 422.121094 L 204.1875 422.121094 L 207.890625 370.488281 L 223.902344 409.59375 C 225.101562 412.644531 227.496094 413.839844 232.289062 413.839844 C 237.082031 413.839844 239.480469 412.644531 240.675781 409.59375 L 256.6875 370.488281 L 260.394531 422.121094 L 277.277344 422.121094 L 269.652344 345.105469 C 269.652344 345.105469 264.53125 344.78125 262.027344 344.78125 C 254.839844 344.78125 250.917969 345.542969 248.410156 351.863281 Z M 149.070312 405.671875 C 145.472656 407.089844 136.757812 409.921875 130.332031 409.921875 C 123.359375 409.921875 118.132812 407.523438 118.132812 399.898438 C 118.132812 393.253906 121.726562 389.441406 131.316406 389.113281 L 149.070312 388.460938 Z M 139.046875 344.78125 C 124.015625 344.78125 112.25 348.484375 107.675781 350.773438 L 111.269531 363.40625 C 111.269531 363.40625 122.820312 359.269531 134.144531 359.269531 C 143.839844 359.269531 148.851562 361.992188 148.851562 371.578125 L 148.851562 377.023438 L 134.144531 377.023438 C 109.199219 377.023438 101.792969 388.460938 101.792969 401.097656 C 101.792969 417.871094 114.863281 423.210938 126.738281 423.210938 C 140.570312 423.210938 148.632812 417.4375 149.613281 417.4375 C 150.375 417.4375 153.207031 420.484375 165.84375 420.484375 L 165.84375 367.109375 C 165.84375 351.101562 155.929688 344.78125 139.046875 344.78125 Z M 341.21875 405.671875 C 337.625 407.089844 328.910156 409.921875 322.484375 409.921875 C 315.511719 409.921875 310.28125 407.523438 310.28125 399.898438 C 310.28125 393.253906 313.878906 389.441406 323.464844 389.113281 L 341.21875 388.460938 Z M 331.195312 344.78125 C 316.164062 344.78125 304.398438 348.484375 299.824219 350.773438 L 303.417969 363.40625 C 303.417969 363.40625 314.96875 359.269531 326.292969 359.269531 C 335.988281 359.269531 341 361.992188 341 371.578125 L 341 377.023438 L 326.292969 377.023438 C 301.351562 377.023438 293.941406 388.460938 293.941406 401.097656 C 293.941406 417.871094 307.015625 423.210938 318.886719 423.210938 C 332.722656 423.210938 340.78125 417.4375 341.761719 417.4375 C 342.523438 417.4375 345.355469 420.484375 357.992188 420.484375 L 357.992188 367.109375 C 357.992188 351.101562 348.082031 344.78125 331.195312 344.78125 Z M 598.398438 402.949219 C 594.367188 404.90625 585.65625 408.175781 577.703125 408.175781 C 566.152344 408.175781 564.195312 402.949219 564.195312 390.964844 L 564.195312 345.433594 L 561.6875 345.433594 C 557.878906 345.433594 549.378906 346.085938 547.3125 346.523438 L 547.3125 393.144531 C 547.3125 413.515625 552.324219 423.210938 573.015625 423.210938 C 588.8125 423.210938 598.070312 417.109375 598.722656 417.109375 C 598.941406 417.109375 604.390625 420.484375 615.285156 420.484375 L 615.285156 346.523438 C 614.085938 346.304688 605.914062 345.433594 601.773438 345.433594 L 598.398438 345.433594 Z M 635.230469 420.484375 C 635.230469 420.484375 645.6875 423.210938 660.28125 423.210938 C 674.117188 423.210938 691.546875 418.527344 691.546875 399.792969 C 691.546875 387.589844 682.503906 382.359375 667.796875 377.023438 C 659.847656 374.082031 653.09375 371.46875 653.09375 366.019531 C 653.09375 363.40625 655.054688 358.289062 665.183594 358.289062 C 674.660156 358.289062 684.355469 362.644531 684.355469 362.644531 L 688.605469 350.117188 C 685.769531 348.703125 676.511719 344.78125 663.660156 344.78125 C 649.71875 344.78125 636.101562 352.1875 636.101562 367.109375 C 636.101562 382.472656 650.042969 387.15625 660.933594 390.75 C 668.34375 393.253906 674.554688 395.871094 674.554688 400.769531 C 674.554688 405.5625 671.9375 409.703125 659.410156 409.703125 C 649.171875 409.703125 638.277344 407.414062 638.277344 407.414062 Z M 399.382812 359.375 C 402.109375 358.832031 407.445312 358.070312 412.785156 358.070312 C 424.984375 358.070312 434.570312 364.933594 434.570312 383.453125 C 434.570312 401.425781 429.882812 409.921875 411.261719 409.921875 C 405.269531 409.921875 399.382812 409.050781 399.382812 409.050781 Z M 413.546875 344.78125 C 403.960938 344.78125 390.671875 346.414062 382.5 349.355469 L 382.5 420.921875 C 389.257812 422.339844 401.894531 423.210938 410.714844 423.210938 C 440.777344 423.210938 452.433594 411.445312 452.433594 383.453125 C 452.433594 359.269531 437.617188 344.78125 413.546875 344.78125 " fill-opacity="1" fill-rule="nonzero"/></g></svg>