<svg xmlns="http://www.w3.org/2000/svg" xmlns:xlink="http://www.w3.org/1999/xlink" width="1024" zoomAndPan="magnify" viewBox="0 0 768 767.999994" height="1024" preserveAspectRatio="xMidYMid meet" version="1.0"><defs><clipPath id="fdebe5710a"><path d="M 28.625 28.625 L 739.375 28.625 L 739.375 739.375 L 28.625 739.375 Z M 28.625 28.625 " clip-rule="nonzero"/></clipPath><clipPath id="cd87033cff"><path d="M 384 28.625 C 187.730469 28.625 28.625 187.730469 28.625 384 C 28.625 580.269531 187.730469 739.375 384 739.375 C 580.269531 739.375 739.375 580.269531 739.375 384 C 739.375 187.730469 580.269531 28.625 384 28.625 Z M 384 28.625 " clip-rule="nonzero"/></clipPath></defs><rect x="-76.8" width="921.6" fill="#ffffff" y="-76.799999" height="921.599993" fill-opacity="1"/><rect x="-76.8" width="921.6" fill="#ffffff" y="-76.799999" height="921.599993" fill-opacity="1"/><g clip-path="url(#fdebe5710a)"><g clip-path="url(#cd87033cff)"><path fill="#000000" d="M 28.625 28.625 L 739.375 28.625 L 739.375 739.375 L 28.625 739.375 Z M 28.625 28.625 " fill-opacity="1" fill-rule="nonzero"/></g></g><path fill="#ffffff" d="M 628.097656 432.5625 L 628.097656 414.0625 L 583.132812 414.0625 L 583.132812 392.992188 L 619.105469 392.992188 L 619.105469 374.75 L 583.132812 374.75 L 583.132812 353.9375 L 627.585938 353.9375 L 627.585938 335.691406 L 561.804688 335.691406 L 561.804688 432.5625 Z M 469.816406 409.695312 C 475.984375 425.367188 490.886719 434.363281 510.929688 434.363281 C 533.542969 434.363281 547.160156 422.800781 547.160156 403.785156 C 547.160156 388.882812 538.167969 378.859375 518.636719 375.007812 L 505.019531 372.4375 C 497.054688 370.894531 493.199219 367.296875 493.199219 362.414062 C 493.199219 355.476562 498.851562 351.625 508.359375 351.625 C 517.867188 351.625 524.804688 356.503906 528.917969 365.242188 L 546.390625 355.734375 C 541.25 341.859375 527.117188 333.636719 508.359375 333.636719 C 486.519531 333.636719 472.128906 344.6875 472.128906 363.957031 C 472.128906 378.859375 481.378906 388.625 499.625 392.222656 L 513.5 395.046875 C 521.980469 396.847656 526.347656 400.1875 526.347656 405.839844 C 526.347656 413.035156 520.695312 417.144531 511.1875 417.144531 C 500.394531 417.144531 492.941406 411.234375 487.804688 400.699219 Z M 418.683594 434.363281 C 442.582031 434.363281 456.96875 420.484375 456.96875 396.332031 L 456.96875 335.179688 L 436.671875 335.179688 L 436.671875 395.5625 C 436.671875 408.410156 429.992188 415.347656 418.941406 415.347656 C 407.894531 415.347656 401.210938 408.410156 401.210938 395.5625 L 401.210938 335.179688 L 379.628906 335.179688 L 379.628906 396.332031 C 380.140625 420.742188 394.789062 434.363281 418.683594 434.363281 M 302.800781 335.179688 L 337.746094 386.3125 L 337.746094 432.304688 L 359.328125 432.304688 L 359.328125 380.914062 L 327.980469 335.4375 L 302.800781 335.4375 Z M 271.964844 357.535156 L 284.8125 395.820312 L 259.117188 395.820312 Z M 319.757812 432.304688 L 284.300781 335.179688 L 259.890625 335.179688 L 224.429688 432.050781 L 246.527344 432.050781 L 252.695312 413.546875 L 290.722656 413.546875 L 296.890625 432.050781 Z M 161.21875 353.679688 L 172.269531 353.679688 C 191.027344 353.679688 201.046875 364.472656 201.046875 383.742188 C 201.046875 403.011719 191.027344 413.804688 172.269531 413.804688 L 161.21875 413.804688 Z M 172.78125 432.304688 C 205.160156 432.304688 222.886719 415.089844 222.886719 383.742188 C 222.886719 352.394531 205.160156 335.179688 172.78125 335.179688 L 139.894531 335.179688 L 139.894531 432.050781 Z M 172.78125 432.304688 " fill-opacity="1" fill-rule="nonzero"/></svg>