<svg xmlns="http://www.w3.org/2000/svg" xmlns:xlink="http://www.w3.org/1999/xlink" width="1024" zoomAndPan="magnify" viewBox="0 0 768 767.999994" height="1024" preserveAspectRatio="xMidYMid meet" version="1.0"><defs><clipPath id="2e04682806"><path d="M 88 76.800781 L 728 76.800781 L 728 691 L 88 691 Z M 88 76.800781 " clip-rule="nonzero"/></clipPath><clipPath id="ecba2d3d00"><path d="M 254.363281 76.800781 L 254.363281 690.414062 C 256.160156 690.542969 257.960938 690.542969 259.757812 690.542969 L 555.386719 690.542969 L 555.386719 76.800781 Z M 601.640625 76.800781 L 555.386719 76.800781 L 555.386719 690.414062 L 556.414062 690.414062 C 631.191406 690.414062 696.84375 629.386719 702.238281 554.871094 L 727.550781 212.214844 C 733.074219 137.828125 676.414062 76.800781 601.640625 76.800781 Z M 214.535156 76.800781 C 139.757812 76.800781 83.101562 137.828125 88.625 212.34375 L 113.933594 555 C 119.332031 627.71875 182.027344 687.589844 254.492188 690.414062 L 254.492188 76.800781 Z M 214.535156 76.800781 " clip-rule="nonzero"/></clipPath></defs><rect x="-76.8" width="921.6" fill="#ffffff" y="-76.799999" height="921.599993" fill-opacity="1"/><rect x="-76.8" width="921.6" fill="#ffffff" y="-76.799999" height="921.599993" fill-opacity="1"/><g clip-path="url(#2e04682806)"><g clip-path="url(#ecba2d3d00)"><path fill="#000000" d="M 88.238281 76.800781 L 727.527344 76.800781 L 727.527344 690.414062 L 88.238281 690.414062 Z M 88.238281 76.800781 " fill-opacity="1" fill-rule="nonzero"/></g></g><path fill="#ffffff" d="M 652.1875 432.171875 L 652.1875 413.671875 L 607.21875 413.671875 L 607.21875 392.601562 L 643.191406 392.601562 L 643.191406 374.355469 L 607.21875 374.355469 L 607.21875 353.542969 L 651.671875 353.542969 L 651.671875 335.300781 L 585.894531 335.300781 L 585.894531 432.171875 Z M 493.90625 409.300781 C 500.070312 424.976562 514.976562 433.96875 535.015625 433.96875 C 557.628906 433.96875 571.246094 422.40625 571.246094 403.390625 C 571.246094 388.488281 562.253906 378.46875 542.726562 374.613281 L 529.105469 372.042969 C 521.140625 370.503906 517.289062 366.90625 517.289062 362.023438 C 517.289062 355.085938 522.941406 351.230469 532.445312 351.230469 C 541.953125 351.230469 548.890625 356.113281 553.003906 364.847656 L 570.476562 355.34375 C 565.335938 341.46875 551.203125 333.246094 532.445312 333.246094 C 510.605469 333.246094 496.21875 344.292969 496.21875 363.566406 C 496.21875 378.46875 505.46875 388.230469 523.710938 391.828125 L 537.585938 394.65625 C 546.066406 396.453125 550.433594 399.792969 550.433594 405.449219 C 550.433594 412.640625 544.78125 416.753906 535.273438 416.753906 C 524.480469 416.753906 517.03125 410.84375 511.890625 400.308594 Z M 442.773438 433.96875 C 466.667969 433.96875 481.058594 420.09375 481.058594 395.941406 L 481.058594 334.785156 L 460.757812 334.785156 L 460.757812 395.167969 C 460.757812 408.015625 454.078125 414.953125 443.027344 414.953125 C 431.980469 414.953125 425.300781 408.015625 425.300781 395.167969 L 425.300781 334.785156 L 403.714844 334.785156 L 403.714844 395.941406 C 404.230469 420.351562 418.875 433.96875 442.773438 433.96875 M 326.886719 334.785156 L 361.832031 385.917969 L 361.832031 431.914062 L 383.417969 431.914062 L 383.417969 380.523438 L 352.066406 335.042969 L 326.886719 335.042969 Z M 296.054688 357.140625 L 308.898438 395.425781 L 283.207031 395.425781 Z M 343.84375 431.914062 L 308.386719 334.785156 L 283.976562 334.785156 L 248.515625 431.65625 L 270.613281 431.65625 L 276.78125 413.15625 L 314.808594 413.15625 L 320.976562 431.65625 Z M 185.308594 353.285156 L 196.355469 353.285156 C 215.113281 353.285156 225.132812 364.078125 225.132812 383.351562 C 225.132812 402.621094 215.113281 413.414062 196.355469 413.414062 L 185.308594 413.414062 Z M 196.871094 431.914062 C 229.246094 431.914062 246.976562 414.699219 246.976562 383.351562 C 246.976562 352.003906 229.246094 334.785156 196.871094 334.785156 L 163.980469 334.785156 L 163.980469 431.65625 Z M 196.871094 431.914062 " fill-opacity="1" fill-rule="nonzero"/></svg>