<svg xmlns="http://www.w3.org/2000/svg" xmlns:xlink="http://www.w3.org/1999/xlink" width="1024" zoomAndPan="magnify" viewBox="0 0 768 767.999994" height="1024" preserveAspectRatio="xMidYMid meet" version="1.0"><defs><clipPath id="14ad1ca4cc"><path d="M 76 76.800781 L 717 76.800781 L 717 691 L 76 691 Z M 76 76.800781 " clip-rule="nonzero"/></clipPath><clipPath id="b5e1b43961"><path d="M 242.921875 76.800781 L 242.921875 690.414062 C 244.722656 690.542969 246.519531 690.542969 248.320312 690.542969 L 543.949219 690.542969 L 543.949219 76.800781 Z M 590.203125 76.800781 L 543.949219 76.800781 L 543.949219 690.414062 L 544.976562 690.414062 C 619.75 690.414062 685.40625 629.386719 690.800781 554.871094 L 716.109375 212.214844 C 721.636719 137.828125 664.976562 76.800781 590.203125 76.800781 Z M 203.09375 76.800781 C 128.320312 76.800781 71.660156 137.828125 77.183594 212.34375 L 102.496094 555 C 107.890625 627.71875 170.589844 687.589844 243.050781 690.414062 L 243.050781 76.800781 Z M 203.09375 76.800781 " clip-rule="nonzero"/></clipPath></defs><rect x="-76.8" width="921.6" fill="#ffffff" y="-76.799999" height="921.599993" fill-opacity="1"/><rect x="-76.8" width="921.6" fill="#ffffff" y="-76.799999" height="921.599993" fill-opacity="1"/><g clip-path="url(#14ad1ca4cc)"><g clip-path="url(#b5e1b43961)"><path fill="#000000" d="M 76.800781 76.800781 L 716.089844 76.800781 L 716.089844 690.414062 L 76.800781 690.414062 Z M 76.800781 76.800781 " fill-opacity="1" fill-rule="nonzero"/></g></g><path fill="#ffffff" d="M 617.269531 410.941406 L 617.121094 410.792969 C 613.917969 407.890625 609.96875 405.503906 606.992188 403.71875 L 606.246094 403.269531 C 604.457031 402.226562 602.523438 401.109375 600.511719 400.066406 C 600.511719 400.066406 600.511719 400.140625 600.511719 400.140625 C 600.511719 415.484375 592.839844 426.285156 581.890625 426.285156 C 570.121094 426.285156 562.972656 415.1875 562.972656 400.441406 C 562.972656 395.152344 563.9375 389.789062 566.023438 385.320312 C 561.257812 383.605469 556.417969 382.042969 551.425781 380.480469 C 550.308594 380.105469 549.265625 379.808594 548.148438 379.4375 C 544.871094 385.394531 543.082031 392.621094 543.082031 400.886719 C 543.082031 425.316406 559.695312 440.140625 581.292969 440.140625 C 597.457031 440.140625 613.84375 431.425781 618.832031 412.359375 L 618.460938 411.984375 C 618.164062 411.761719 617.792969 411.390625 617.269531 410.941406 Z M 617.269531 410.941406 " fill-opacity="1" fill-rule="nonzero"/><path fill="#ffffff" d="M 568.558594 381.296875 C 571.609375 377.351562 576.078125 374.742188 582.039062 374.742188 C 593.734375 374.742188 599.246094 385.46875 600.289062 396.195312 C 603.863281 398.207031 607.066406 400.140625 609.894531 402.152344 C 612.726562 404.164062 616.375 406.695312 619.429688 409.824219 C 620.101562 406.546875 620.398438 403.121094 620.398438 399.769531 C 620.398438 376.605469 605.203125 360.664062 582.558594 360.664062 C 569.300781 360.664062 558.277344 365.730469 551.277344 374.816406 L 552.988281 375.414062 C 558.277344 377.277344 563.492188 379.210938 568.558594 381.296875 Z M 568.558594 381.296875 " fill-opacity="1" fill-rule="nonzero"/><path fill="#ffffff" d="M 248.574219 327.445312 L 229.355469 327.445312 L 229.355469 370.648438 L 229.058594 370.648438 C 225.632812 364.984375 218.109375 360.664062 207.605469 360.664062 C 189.285156 360.664062 173.34375 375.859375 173.492188 401.335938 C 173.492188 424.796875 187.867188 440.289062 206.042969 440.289062 C 217.140625 440.289062 226.375 435 230.921875 426.511719 L 231.21875 426.511719 L 231.964844 438.578125 L 249.167969 438.578125 C 248.871094 433.4375 248.5 424.945312 248.5 417.125 Z M 229.355469 405.578125 C 229.429688 407.441406 229.207031 409.378906 228.761719 411.242188 C 226.898438 419.507812 219.972656 424.871094 212.152344 424.871094 C 199.933594 424.871094 193.082031 414.667969 193.082031 400.738281 C 193.082031 386.511719 199.933594 375.5625 212.300781 375.5625 C 221.089844 375.5625 227.121094 381.671875 228.910156 389.195312 C 229.207031 390.832031 229.355469 392.546875 229.355469 394.183594 Z M 229.355469 405.578125 " fill-opacity="1" fill-rule="nonzero"/><path fill="#ffffff" d="M 337.507812 362.378906 L 318.289062 362.378906 L 318.289062 408.410156 C 318.289062 410.421875 317.917969 412.433594 317.171875 414.367188 C 315.160156 419.210938 310.171875 424.722656 302.5 424.722656 C 292.296875 424.722656 288.273438 416.605469 288.273438 403.941406 L 288.273438 362.453125 L 269.054688 362.453125 L 269.054688 407.21875 C 269.054688 432.097656 281.71875 440.363281 295.648438 440.363281 C 309.277344 440.363281 316.800781 432.542969 320.078125 427.03125 L 320.375 427.03125 L 321.269531 438.652344 L 338.175781 438.652344 C 337.878906 432.394531 337.582031 424.871094 337.582031 415.785156 L 337.582031 362.378906 Z M 337.507812 362.378906 " fill-opacity="1" fill-rule="nonzero"/><path fill="#ffffff" d="M 390.6875 360.664062 C 366.257812 360.664062 353.445312 380.554688 353.445312 401.632812 C 353.445312 424.945312 367.972656 440.289062 392.699219 440.289062 C 403.648438 440.289062 412.734375 438.128906 419.289062 435.449219 L 416.460938 422.191406 C 410.652344 424.351562 404.246094 425.617188 395.308594 425.617188 C 383.089844 425.617188 372.292969 419.65625 371.84375 405.878906 L 422.867188 405.878906 C 423.3125 403.195312 423.535156 400.441406 423.460938 397.757812 C 423.535156 381 415.566406 360.664062 390.6875 360.664062 Z M 405.4375 392.394531 L 371.917969 392.394531 C 372.664062 384.574219 377.730469 373.773438 389.570312 373.773438 C 402.382812 373.773438 405.585938 385.394531 405.4375 392.394531 Z M 405.4375 392.394531 " fill-opacity="1" fill-rule="nonzero"/><path fill="#ffffff" d="M 461.078125 355.078125 L 461.078125 342.789062 L 442.304688 348.300781 L 442.304688 354.335938 C 443.5 354.335938 444.617188 354.335938 445.507812 354.410156 C 450.574219 354.484375 455.789062 354.707031 461.078125 355.078125 Z M 461.078125 355.078125 " fill-opacity="1" fill-rule="nonzero"/><path fill="#ffffff" d="M 445.734375 362.453125 C 442.605469 362.378906 437.242188 362.453125 431.355469 362.601562 L 431.355469 376.753906 L 442.304688 376.753906 L 442.304688 412.582031 C 442.304688 422.636719 444.167969 429.488281 448.265625 433.882812 C 451.839844 437.832031 457.800781 440.289062 464.875 440.289062 C 470.984375 440.289062 475.972656 439.320312 478.804688 438.277344 L 478.503906 423.53125 C 476.347656 424.125 474.558594 424.5 470.984375 424.5 C 463.609375 424.5 461.152344 419.65625 461.152344 410.421875 L 461.152344 376.753906 L 479.472656 376.753906 L 479.472656 364.6875 C 477.3125 364.390625 475.152344 364.167969 473.070312 363.941406 C 463.609375 362.976562 454.449219 362.601562 445.734375 362.453125 Z M 445.734375 362.453125 " fill-opacity="1" fill-rule="nonzero"/><path fill="#ffffff" d="M 500.253906 367.964844 C 495.5625 367.144531 490.945312 366.328125 486.328125 365.65625 L 486.328125 376.753906 L 497.277344 376.753906 L 497.277344 412.582031 C 497.277344 422.636719 499.136719 429.488281 503.234375 433.882812 C 506.808594 437.832031 512.769531 440.289062 519.84375 440.289062 C 525.953125 440.289062 530.941406 439.320312 533.773438 438.277344 L 533.476562 423.53125 C 531.316406 424.125 529.601562 424.5 525.953125 424.5 C 518.578125 424.5 516.121094 419.65625 516.121094 410.421875 L 516.121094 376.753906 L 534.445312 376.753906 L 534.445312 375.636719 C 531.910156 374.96875 529.304688 374.296875 526.773438 373.625 C 517.90625 371.464844 508.96875 369.53125 500.253906 367.964844 Z M 500.253906 367.964844 " fill-opacity="1" fill-rule="nonzero"/><path fill="#ffffff" d="M 527.738281 367.445312 C 529.972656 368.039062 532.132812 368.710938 534.367188 369.378906 L 534.367188 362.378906 L 516.046875 362.378906 L 516.046875 342.789062 L 497.277344 348.300781 L 497.277344 360.21875 C 498.46875 360.441406 499.660156 360.664062 500.851562 360.964844 C 509.714844 362.75 518.800781 364.984375 527.738281 367.445312 Z M 527.738281 367.445312 " fill-opacity="1" fill-rule="nonzero"/></svg>