<svg xmlns="http://www.w3.org/2000/svg" xmlns:xlink="http://www.w3.org/1999/xlink" width="1024" zoomAndPan="magnify" viewBox="0 0 768 767.999994" height="1024" preserveAspectRatio="xMidYMid meet" version="1.0"><defs><clipPath id="e54e4f88db"><path d="M 28.625 28.625 L 739.375 28.625 L 739.375 739.375 L 28.625 739.375 Z M 28.625 28.625 " clip-rule="nonzero"/></clipPath><clipPath id="2b294f2c46"><path d="M 384 28.625 C 187.730469 28.625 28.625 187.734375 28.625 384 C 28.625 580.269531 187.730469 739.375 384 739.375 C 580.269531 739.375 739.375 580.269531 739.375 384 C 739.375 187.734375 580.269531 28.625 384 28.625 Z M 384 28.625 " clip-rule="nonzero"/></clipPath></defs><rect x="-76.8" width="921.6" fill="#ffffff" y="-76.799999" height="921.599993" fill-opacity="1"/><rect x="-76.8" width="921.6" fill="#ffffff" y="-76.799999" height="921.599993" fill-opacity="1"/><g clip-path="url(#e54e4f88db)"><g clip-path="url(#2b294f2c46)"><path fill="#000000" d="M 28.625 28.625 L 739.375 28.625 L 739.375 739.375 L 28.625 739.375 Z M 28.625 28.625 " fill-opacity="1" fill-rule="nonzero"/></g></g><path fill="#ffffff" d="M 655.457031 417.632812 L 655.273438 417.453125 C 651.335938 413.878906 646.476562 410.945312 642.8125 408.746094 L 641.894531 408.195312 C 639.695312 406.910156 637.3125 405.535156 634.839844 404.253906 C 634.839844 404.253906 634.839844 404.34375 634.839844 404.34375 C 634.839844 423.226562 625.398438 436.515625 611.925781 436.515625 C 597.445312 436.515625 588.648438 422.859375 588.648438 404.710938 C 588.648438 398.207031 589.839844 391.605469 592.40625 386.109375 C 586.539062 384 580.582031 382.074219 574.441406 380.152344 C 573.066406 379.691406 571.785156 379.324219 570.410156 378.867188 C 566.378906 386.199219 564.179688 395.089844 564.179688 405.261719 C 564.179688 435.324219 584.617188 453.558594 611.191406 453.558594 C 631.082031 453.558594 651.242188 442.835938 657.382812 419.375 L 656.925781 418.917969 C 656.558594 418.644531 656.101562 418.183594 655.457031 417.632812 Z M 655.457031 417.632812 " fill-opacity="1" fill-rule="nonzero"/><path fill="#ffffff" d="M 595.519531 381.160156 C 599.277344 376.300781 604.777344 373.09375 612.109375 373.09375 C 626.5 373.09375 633.28125 386.292969 634.5625 399.488281 C 638.960938 401.960938 642.902344 404.34375 646.386719 406.820312 C 649.867188 409.292969 654.359375 412.410156 658.117188 416.257812 C 658.941406 412.226562 659.308594 408.011719 659.308594 403.886719 C 659.308594 375.386719 640.613281 355.773438 612.75 355.773438 C 596.4375 355.773438 582.875 362.003906 574.257812 373.1875 L 576.367188 373.917969 C 582.875 376.210938 589.289062 378.59375 595.519531 381.160156 Z M 595.519531 381.160156 " fill-opacity="1" fill-rule="nonzero"/><path fill="#ffffff" d="M 201.804688 314.898438 L 178.160156 314.898438 L 178.160156 368.054688 L 177.792969 368.054688 C 173.578125 361.089844 164.320312 355.773438 151.398438 355.773438 C 128.855469 355.773438 109.242188 374.46875 109.425781 405.8125 C 109.425781 434.679688 127.113281 453.742188 149.476562 453.742188 C 163.128906 453.742188 174.496094 447.238281 180.085938 436.789062 L 180.453125 436.789062 L 181.367188 451.636719 L 202.539062 451.636719 C 202.171875 445.3125 201.714844 434.863281 201.714844 425.242188 Z M 178.160156 411.035156 C 178.253906 413.328125 177.976562 415.710938 177.425781 418 C 175.136719 428.175781 166.613281 434.773438 156.988281 434.773438 C 141.960938 434.773438 133.527344 422.21875 133.527344 405.078125 C 133.527344 387.574219 141.960938 374.101562 157.171875 374.101562 C 167.988281 374.101562 175.410156 381.617188 177.609375 390.875 C 177.976562 392.890625 178.160156 394.996094 178.160156 397.015625 Z M 178.160156 411.035156 " fill-opacity="1" fill-rule="nonzero"/><path fill="#ffffff" d="M 311.230469 357.878906 L 287.585938 357.878906 L 287.585938 414.519531 C 287.585938 416.992188 287.128906 419.46875 286.210938 421.851562 C 283.738281 427.808594 277.597656 434.589844 268.15625 434.589844 C 255.601562 434.589844 250.652344 424.601562 250.652344 409.019531 L 250.652344 357.972656 L 227.007812 357.972656 L 227.007812 413.050781 C 227.007812 443.664062 242.589844 453.835938 259.726562 453.835938 C 276.496094 453.835938 285.753906 444.210938 289.785156 437.429688 L 290.152344 437.429688 L 291.253906 451.726562 L 312.058594 451.726562 C 311.691406 444.027344 311.324219 434.773438 311.324219 423.589844 L 311.324219 357.878906 Z M 311.230469 357.878906 " fill-opacity="1" fill-rule="nonzero"/><path fill="#ffffff" d="M 376.667969 355.773438 C 346.609375 355.773438 330.84375 380.242188 330.84375 406.179688 C 330.84375 434.863281 348.714844 453.742188 379.144531 453.742188 C 392.613281 453.742188 403.796875 451.085938 411.859375 447.785156 L 408.378906 431.472656 C 401.230469 434.132812 393.347656 435.6875 382.351562 435.6875 C 367.320312 435.6875 354.03125 428.355469 353.480469 411.402344 L 416.257812 411.402344 C 416.808594 408.101562 417.085938 404.710938 416.992188 401.414062 C 417.085938 380.792969 407.277344 355.773438 376.667969 355.773438 Z M 394.8125 394.8125 L 353.574219 394.8125 C 354.488281 385.191406 360.722656 371.902344 375.292969 371.902344 C 391.058594 371.902344 394.996094 386.199219 394.8125 394.8125 Z M 394.8125 394.8125 " fill-opacity="1" fill-rule="nonzero"/><path fill="#ffffff" d="M 463.273438 348.898438 L 463.273438 333.777344 L 440.179688 340.558594 L 440.179688 347.984375 C 441.644531 347.984375 443.019531 347.984375 444.121094 348.074219 C 450.351562 348.164062 456.769531 348.441406 463.273438 348.898438 Z M 463.273438 348.898438 " fill-opacity="1" fill-rule="nonzero"/><path fill="#ffffff" d="M 444.394531 357.972656 C 440.546875 357.878906 433.949219 357.972656 426.707031 358.15625 L 426.707031 375.570312 L 440.179688 375.570312 L 440.179688 419.652344 C 440.179688 432.023438 442.472656 440.453125 447.511719 445.863281 C 451.910156 450.71875 459.242188 453.742188 467.949219 453.742188 C 475.464844 453.742188 481.605469 452.550781 485.085938 451.269531 L 484.71875 433.121094 C 482.0625 433.855469 479.863281 434.3125 475.464844 434.3125 C 466.390625 434.3125 463.367188 428.355469 463.367188 416.992188 L 463.367188 375.570312 L 485.910156 375.570312 L 485.910156 360.722656 C 483.253906 360.355469 480.597656 360.082031 478.03125 359.804688 C 466.390625 358.613281 455.117188 358.15625 444.394531 357.972656 Z M 444.394531 357.972656 " fill-opacity="1" fill-rule="nonzero"/><path fill="#ffffff" d="M 511.480469 364.753906 C 505.707031 363.746094 500.023438 362.738281 494.34375 361.914062 L 494.34375 375.570312 L 507.816406 375.570312 L 507.816406 419.652344 C 507.816406 432.023438 510.105469 440.453125 515.148438 445.863281 C 519.546875 450.71875 526.878906 453.742188 535.585938 453.742188 C 543.097656 453.742188 549.238281 452.550781 552.722656 451.269531 L 552.355469 433.121094 C 549.699219 433.855469 547.589844 434.3125 543.097656 434.3125 C 534.027344 434.3125 531 428.355469 531 416.992188 L 531 375.570312 L 553.546875 375.570312 L 553.546875 374.195312 C 550.429688 373.367188 547.222656 372.542969 544.105469 371.71875 C 533.203125 369.0625 522.203125 366.679688 511.480469 364.753906 Z M 511.480469 364.753906 " fill-opacity="1" fill-rule="nonzero"/><path fill="#ffffff" d="M 545.296875 364.113281 C 548.046875 364.847656 550.707031 365.671875 553.457031 366.496094 L 553.457031 357.878906 L 530.910156 357.878906 L 530.910156 333.777344 L 507.816406 340.558594 L 507.816406 355.222656 C 509.28125 355.496094 510.746094 355.773438 512.214844 356.140625 C 523.121094 358.339844 534.300781 361.089844 545.296875 364.113281 Z M 545.296875 364.113281 " fill-opacity="1" fill-rule="nonzero"/></svg>