<svg xmlns="http://www.w3.org/2000/svg" xmlns:xlink="http://www.w3.org/1999/xlink" width="1024" zoomAndPan="magnify" viewBox="0 0 768 767.999994" height="1024" preserveAspectRatio="xMidYMid meet" version="1.0"><defs><clipPath id="dc8d5e3be1"><path d="M 28.625 28.625 L 739.375 28.625 L 739.375 739.375 L 28.625 739.375 Z M 28.625 28.625 " clip-rule="nonzero"/></clipPath><clipPath id="f85f50f9bb"><path d="M 384 28.625 C 187.730469 28.625 28.625 187.734375 28.625 384 C 28.625 580.269531 187.730469 739.375 384 739.375 C 580.269531 739.375 739.375 580.269531 739.375 384 C 739.375 187.734375 580.269531 28.625 384 28.625 Z M 384 28.625 " clip-rule="nonzero"/></clipPath></defs><rect x="-76.8" width="921.6" fill="#ffffff" y="-76.799999" height="921.599993" fill-opacity="1"/><rect x="-76.8" width="921.6" fill="#ffffff" y="-76.799999" height="921.599993" fill-opacity="1"/><g clip-path="url(#dc8d5e3be1)"><g clip-path="url(#f85f50f9bb)"><path fill="#000000" d="M 28.625 28.625 L 739.375 28.625 L 739.375 739.375 L 28.625 739.375 Z M 28.625 28.625 " fill-opacity="1" fill-rule="nonzero"/></g></g><path fill="#ffffff" d="M 531.007812 384 C 531.007812 465.21875 465.21875 531.007812 384 531.007812 C 331.664062 531.007812 285.796875 503.738281 259.851562 462.574219 C 257.71875 459.339844 255.734375 456.03125 253.972656 452.578125 C 243.09375 432.144531 236.992188 408.769531 236.992188 384 C 236.992188 302.777344 302.777344 236.992188 384 236.992188 C 435.894531 236.992188 481.464844 263.820312 507.558594 304.46875 C 510.132812 308.289062 512.410156 312.332031 514.542969 316.449219 C 525.050781 336.664062 531.007812 359.667969 531.007812 384 Z M 531.007812 384 " fill-opacity="1" fill-rule="nonzero"/><path fill="#000000" d="M 514.542969 316.449219 C 512.410156 312.332031 510.132812 308.289062 507.558594 304.46875 C 486.902344 312.699219 467.058594 322.402344 447.433594 332.546875 C 440.890625 335.875 434.421875 339.359375 428 342.910156 L 330.710938 290.28125 L 319.683594 297.632812 L 384 347.246094 L 393.039062 363.074219 C 387.792969 366.175781 382.558594 369.292969 377.308594 372.386719 C 354.230469 386.203125 331.371094 400.464844 308.804688 415.089844 C 290.28125 427.292969 271.90625 439.566406 253.972656 452.578125 C 255.734375 456.03125 257.71875 459.339844 259.851562 462.574219 C 280.066406 453.460938 299.835938 443.683594 319.535156 433.761719 C 343.5 421.414062 367.242188 408.695312 390.6875 395.613281 C 395.964844 392.621094 401.242188 389.636719 406.511719 386.652344 L 413.402344 398.699219 L 426.265625 481.390625 L 437.289062 477.714844 L 442.148438 365.925781 C 448.226562 362.242188 454.261719 358.484375 460.222656 354.597656 C 478.820312 342.617188 497.121094 330.269531 514.542969 316.449219 Z M 514.542969 316.449219 " fill-opacity="1" fill-rule="nonzero"/></svg>