<svg xmlns="http://www.w3.org/2000/svg" xmlns:xlink="http://www.w3.org/1999/xlink" width="1024" zoomAndPan="magnify" viewBox="0 0 768 767.999994" height="1024" preserveAspectRatio="xMidYMid meet" version="1.0"><defs><clipPath id="691c093bf3"><path d="M 29.585938 28.625 L 740.332031 28.625 L 740.332031 739.375 L 29.585938 739.375 Z M 29.585938 28.625 " clip-rule="nonzero"/></clipPath><clipPath id="35d9f87e33"><path d="M 384.960938 28.625 C 188.691406 28.625 29.585938 187.730469 29.585938 384 C 29.585938 580.269531 188.691406 739.375 384.960938 739.375 C 581.226562 739.375 740.332031 580.269531 740.332031 384 C 740.332031 187.730469 581.226562 28.625 384.960938 28.625 Z M 384.960938 28.625 " clip-rule="nonzero"/></clipPath></defs><rect x="-76.8" width="921.6" fill="#ffffff" y="-76.799999" height="921.599993" fill-opacity="1"/><rect x="-76.8" width="921.6" fill="#ffffff" y="-76.799999" height="921.599993" fill-opacity="1"/><g clip-path="url(#691c093bf3)"><g clip-path="url(#35d9f87e33)"><path fill="#000000" d="M 29.585938 28.625 L 740.332031 28.625 L 740.332031 739.375 L 29.585938 739.375 Z M 29.585938 28.625 " fill-opacity="1" fill-rule="nonzero"/></g></g><path fill="#ffffff" d="M 210.054688 355.46875 L 210.054688 416.898438 C 210.054688 425.886719 205.601562 434.460938 191.667969 434.460938 L 166.929688 434.460938 L 166.929688 420.773438 L 187.792969 420.773438 C 190.679688 420.773438 193.894531 420.03125 193.894531 415.660156 L 193.894531 404.613281 C 191.171875 409.230469 184.246094 413.269531 176.164062 413.269531 C 160.664062 413.269531 148.707031 401.5625 148.707031 383.667969 C 148.707031 365.695312 160.582031 353.984375 176.082031 353.984375 C 184.660156 353.984375 191.335938 357.945312 194.140625 362.808594 C 194.140625 362.148438 193.894531 361.078125 193.894531 358.027344 L 193.894531 355.386719 L 210.054688 355.386719 Z M 179.792969 399.253906 C 188.367188 399.253906 194.304688 392.902344 194.304688 383.667969 C 194.304688 374.269531 188.453125 367.921875 179.792969 367.921875 C 171.300781 367.921875 165.445312 374.269531 165.445312 383.667969 C 165.363281 392.902344 171.300781 399.253906 179.792969 399.253906 Z M 275.109375 388.78125 L 232.5625 388.78125 C 233.472656 395.128906 238.417969 400.242188 245.675781 400.242188 C 250.457031 400.242188 254.910156 398.261719 257.136719 394.386719 L 273.957031 396.121094 C 268.84375 408.324219 258.125 414.09375 245.34375 414.09375 C 228.277344 414.09375 215.414062 401.480469 215.414062 384 C 215.414062 366.519531 228.027344 353.902344 245.097656 353.902344 C 260.847656 353.902344 275.027344 364.128906 275.027344 388.121094 C 275.109375 388.203125 275.109375 388.78125 275.109375 388.78125 Z M 232.152344 377.898438 L 257.710938 377.898438 C 256.804688 372.125 251.941406 367.425781 245.097656 367.425781 C 238.335938 367.425781 233.472656 371.796875 232.152344 377.898438 Z M 302.730469 333.785156 L 302.730469 355.46875 L 315.101562 355.46875 L 315.101562 369.15625 L 302.730469 369.15625 L 302.730469 394.964844 C 302.730469 398.59375 305.617188 399.085938 308.089844 399.085938 C 312.214844 399.085938 315.59375 398.675781 315.59375 398.675781 L 315.59375 412.527344 C 315.59375 412.527344 307.761719 413.269531 302.980469 413.269531 C 294.898438 413.269531 286.488281 411.867188 286.488281 400.40625 L 286.488281 369.074219 L 277.5 369.074219 L 277.5 355.304688 L 286.488281 355.304688 L 286.488281 333.621094 L 302.730469 333.621094 Z M 358.058594 374.597656 C 358.058594 370.476562 354.84375 367.839844 348.578125 367.839844 C 342.804688 367.839844 335.632812 370.722656 331.34375 373.199219 L 324.996094 360.996094 C 324.996094 360.996094 335.632812 353.984375 349.484375 353.984375 C 362.429688 353.984375 374.300781 360.003906 374.300781 375.09375 L 374.300781 412.691406 L 358.058594 412.691406 L 358.058594 407.332031 C 355.089844 411.785156 348.578125 414.175781 342.0625 414.175781 C 329.941406 414.175781 322.109375 405.601562 322.109375 396.203125 C 322.109375 385.316406 330.105469 378.640625 342.804688 378.640625 L 354.019531 378.640625 C 356.738281 378.640625 357.976562 377.402344 357.976562 375.257812 C 358.058594 375.175781 358.058594 374.597656 358.058594 374.597656 Z M 358.058594 392.160156 L 358.058594 388.039062 C 357.070312 389.027344 355.335938 389.277344 353.027344 389.277344 L 346.925781 389.277344 C 341.816406 389.277344 338.847656 391.503906 338.847656 395.542969 C 338.847656 399.417969 341.980469 402.304688 346.925781 402.304688 C 352.78125 402.304688 358.058594 399.253906 358.058594 392.160156 Z M 417.671875 371.464844 L 410.828125 371.464844 C 402.582031 371.464844 398.875 375.339844 398.875 385.316406 L 398.875 412.691406 L 382.628906 412.691406 L 382.628906 355.550781 L 398.378906 355.550781 L 398.378906 364.703125 C 400.605469 358.601562 406.128906 354.808594 413.21875 354.808594 C 414.703125 354.808594 416.1875 354.976562 417.671875 355.304688 C 417.671875 355.222656 417.671875 371.464844 417.671875 371.464844 Z M 420.0625 384.082031 C 420.0625 366.601562 433.667969 353.984375 450.652344 353.984375 C 467.640625 353.984375 481.246094 366.601562 481.246094 384.082031 C 481.246094 401.5625 467.640625 414.175781 450.652344 414.175781 C 433.667969 414.09375 420.0625 401.5625 420.0625 384.082031 Z M 436.308594 384.082031 C 436.308594 392.902344 442.160156 399.664062 450.652344 399.664062 C 458.980469 399.664062 464.917969 392.902344 464.917969 384.082031 C 464.917969 375.09375 459.0625 368.496094 450.652344 368.496094 C 442.160156 368.414062 436.308594 375.09375 436.308594 384.082031 Z M 485.449219 384.082031 C 485.449219 366.601562 499.054688 353.984375 516.039062 353.984375 C 533.023438 353.984375 546.628906 366.601562 546.628906 384.082031 C 546.628906 401.5625 533.023438 414.175781 516.039062 414.175781 C 499.054688 414.09375 485.449219 401.5625 485.449219 384.082031 Z M 501.691406 384.082031 C 501.691406 392.902344 507.546875 399.664062 516.039062 399.664062 C 524.367188 399.664062 530.304688 392.902344 530.304688 384.082031 C 530.304688 375.09375 524.449219 368.496094 516.039062 368.496094 C 507.546875 368.414062 501.691406 375.09375 501.691406 384.082031 Z M 627.1875 379.050781 C 627.1875 372.042969 622.734375 369.074219 617.707031 369.074219 C 613.085938 369.074219 608.964844 371.714844 605.832031 375.589844 L 605.832031 412.691406 L 589.589844 412.691406 L 589.589844 379.050781 C 589.589844 372.207031 585.21875 369.074219 580.105469 369.074219 C 575.488281 369.074219 571.367188 371.714844 568.234375 375.589844 L 568.234375 412.691406 L 551.988281 412.691406 L 551.988281 355.550781 L 567.820312 355.550781 L 567.820312 357.777344 C 567.820312 359.757812 567.574219 362.230469 567.574219 362.230469 C 571.777344 356.953125 578.210938 353.984375 584.640625 353.984375 C 593.132812 353.984375 599.730469 357.613281 603.027344 364.375 C 607.8125 357.777344 614.242188 353.984375 622.238281 353.984375 C 634.609375 353.984375 643.347656 361.820312 643.347656 375.175781 L 643.347656 412.609375 L 627.105469 412.609375 Z M 627.1875 379.050781 " fill-opacity="1" fill-rule="nonzero"/></svg>