<svg xmlns="http://www.w3.org/2000/svg" xmlns:xlink="http://www.w3.org/1999/xlink" width="1024" zoomAndPan="magnify" viewBox="0 0 768 767.999994" height="1024" preserveAspectRatio="xMidYMid meet" version="1.0"><defs><clipPath id="6fd749b55c"><path d="M 29.585938 28.625 L 740.332031 28.625 L 740.332031 739.375 L 29.585938 739.375 Z M 29.585938 28.625 " clip-rule="nonzero"/></clipPath><clipPath id="1f98dbb39b"><path d="M 384.960938 28.625 C 188.691406 28.625 29.585938 187.734375 29.585938 384 C 29.585938 580.269531 188.691406 739.375 384.960938 739.375 C 581.226562 739.375 740.332031 580.269531 740.332031 384 C 740.332031 187.734375 581.226562 28.625 384.960938 28.625 Z M 384.960938 28.625 " clip-rule="nonzero"/></clipPath></defs><rect x="-76.8" width="921.6" fill="#ffffff" y="-76.799999" height="921.599993" fill-opacity="1"/><rect x="-76.8" width="921.6" fill="#ffffff" y="-76.799999" height="921.599993" fill-opacity="1"/><g clip-path="url(#6fd749b55c)"><g clip-path="url(#1f98dbb39b)"><path fill="#000000" d="M 29.585938 28.625 L 740.332031 28.625 L 740.332031 739.375 L 29.585938 739.375 Z M 29.585938 28.625 " fill-opacity="1" fill-rule="nonzero"/></g></g><path fill="#ffffff" d="M 119.472656 367.851562 C 117.117188 367.097656 115.4375 366.527344 113.742188 366.007812 C 102.164062 362.46875 98.433594 351.542969 105.582031 341.828125 C 108.789062 337.476562 113.0625 334.339844 117.964844 332.066406 C 130.132812 326.410156 132.867188 327.714844 134.804688 340.964844 C 135.371094 344.824219 136.523438 345.894531 140.070312 344.472656 C 174.644531 330.648438 202.695312 343.570312 228.671875 365.640625 C 231.625 368.148438 234.878906 374.398438 239.140625 370.277344 C 242 367.515625 236.753906 363.398438 234.695312 360.175781 C 228.527344 350.496094 220.484375 341.992188 217.113281 330.589844 C 215.304688 324.460938 214.574219 318.296875 215.847656 312.160156 C 216.960938 306.789062 220.269531 304.664062 225.296875 308.695312 C 230.261719 312.679688 234.09375 317.527344 236.292969 323.542969 C 240.351562 334.644531 244.253906 345.804688 248.527344 356.816406 C 249.492188 359.292969 249.300781 364.589844 253.664062 362.855469 C 257.238281 361.433594 254.539062 357.40625 253.726562 354.59375 C 250.207031 342.347656 246.304688 330.199219 243.203125 317.847656 C 241.917969 312.730469 238.953125 304.964844 244.816406 302.640625 C 251.828125 299.863281 256.722656 306.910156 259.933594 312.542969 C 267.472656 325.765625 268.246094 340.496094 266.996094 355.160156 C 266.40625 362.070312 267.289062 367.035156 273.375 371.074219 C 278.839844 374.703125 283.25 379.683594 286.996094 385.117188 C 295.292969 397.125 292.78125 405.402344 279.960938 412.445312 C 275.121094 415.105469 266.066406 413.191406 265.9375 419.859375 C 265.855469 424.078125 272.578125 428.339844 276.054688 432.738281 C 280.890625 438.847656 285.789062 444.933594 287.3125 452.921875 C 288.148438 457.304688 289.308594 461.953125 284.503906 464.566406 C 280.050781 466.992188 275.957031 464.566406 272.492188 461.761719 C 266.355469 456.808594 262.03125 450.242188 257.191406 444.128906 C 243.625 427 227.324219 413.089844 207.46875 403.742188 C 173.648438 387.820312 140.757812 390.796875 108.984375 409.621094 C 103.625 412.792969 98.875 417 93.460938 420.070312 C 89.792969 422.148438 87.039062 429.203125 82.117188 425.179688 C 77.96875 421.792969 80.359375 415.871094 82.214844 411.210938 C 87.050781 399.050781 95.589844 389.542969 104.914062 380.683594 C 109.414062 376.421875 114.214844 372.46875 119.472656 367.851562 Z M 579.152344 390.21875 C 570.671875 409.269531 555.886719 415.972656 535.109375 409.304688 C 533.722656 425.054688 536.933594 440.242188 535.398438 455.449219 C 534.917969 460.230469 535.363281 465.523438 528.597656 465.367188 C 523.019531 465.238281 519.476562 462.3125 518.957031 456.144531 C 516.355469 425.378906 516.109375 394.617188 519.375 363.898438 C 520.21875 356.007812 524.109375 354.539062 530.566406 359.472656 C 532.390625 360.863281 533.121094 360.964844 535.101562 360.472656 C 558.839844 354.511719 567.332031 358.292969 579.839844 380.199219 C 583.117188 379.207031 582.96875 375.886719 584.222656 373.609375 C 590.996094 361.316406 606.152344 354.949219 619.53125 359.042969 C 627.722656 361.542969 633.339844 366.261719 633.011719 375.683594 C 632.675781 385.234375 626.273438 389.515625 618.140625 391.113281 C 612.808594 392.164062 607.09375 391.308594 601.230469 391.308594 C 605.917969 399.921875 612.023438 402.09375 622.660156 398.984375 C 635.539062 395.222656 640.71875 384.476562 645.386719 373.417969 C 646.59375 370.554688 644.011719 368.925781 642.730469 366.886719 C 640.3125 363.023438 639.203125 358.820312 640.738281 354.410156 C 641.777344 351.421875 643.480469 348.730469 647.28125 348.628906 C 650.859375 348.527344 654.074219 350.320312 654.457031 353.46875 C 655.695312 363.859375 663.542969 362.941406 670.492188 363.328125 C 685.558594 364.160156 688.210938 367.953125 682.925781 381.871094 C 681.820312 384.78125 680.417969 387.578125 679.378906 390.503906 C 678.292969 393.558594 675.25 397.644531 678.894531 399.644531 C 682.132812 401.417969 684.996094 397.300781 687.015625 394.691406 C 691.183594 389.320312 694.925781 383.632812 698.800781 378.136719 C 700.96875 378.425781 701.367188 380.023438 701.550781 381.46875 C 703.171875 393.90625 689.074219 411.671875 677.003906 412.5 C 665.875 413.269531 659.191406 405.554688 661.796875 394.832031 C 662.453125 392.121094 663.867188 389.554688 664.273438 386.824219 C 664.765625 383.527344 670.730469 379.378906 664.847656 377.136719 C 660.015625 375.292969 652.960938 371.625 650.160156 381.707031 C 648.554688 387.523438 644.878906 393.027344 641.160156 397.945312 C 624.59375 419.90625 595.042969 417.066406 582.394531 392.53125 C 581.847656 391.480469 581.558594 390.144531 579.152344 390.21875 Z M 560.824219 385.234375 C 560.980469 377.199219 554.953125 369.898438 547.964844 369.644531 C 539.65625 369.339844 533.308594 375.496094 533.074219 384.078125 C 532.835938 392.914062 538.460938 399.152344 546.863281 399.378906 C 554.519531 399.585938 560.664062 393.363281 560.824219 385.234375 Z M 607.105469 383.742188 C 611.8125 382.0625 619.078125 383.375 619.273438 375.363281 C 619.394531 370.625 615.269531 369.207031 611.292969 369.613281 C 605.492188 370.195312 601.300781 373.457031 600.417969 379.414062 C 599.664062 384.527344 604.015625 383.191406 607.105469 383.742188 Z M 607.105469 383.742188 " fill-opacity="1" fill-rule="nonzero"/><path fill="#ffffff" d="M 337.574219 382.425781 C 343.421875 375.722656 347.027344 368.414062 353.28125 363.003906 C 358.300781 358.671875 363.992188 356.148438 370.535156 358.355469 C 376.550781 360.390625 377.230469 366.199219 377.824219 371.421875 C 378.527344 377.585938 378.402344 383.84375 378.984375 390.019531 C 379.359375 393.988281 377.945312 400.019531 384.917969 399.1875 C 390.515625 398.523438 390.789062 394.171875 390.046875 389.199219 C 387.84375 374.480469 397.128906 361.625 411.957031 358.199219 C 427.800781 354.539062 443.75 362.632812 448.550781 376.769531 C 452.015625 386.953125 448.625 397.707031 439.621094 405.136719 C 429.855469 413.191406 415.34375 415.085938 404.589844 408.066406 C 398.65625 404.199219 395.398438 404.457031 389.808594 408.644531 C 378.933594 416.78125 366.796875 411.367188 363.484375 398.113281 C 362.179688 392.875 362.460938 387.605469 362.144531 382.339844 C 361.972656 379.574219 362.269531 376.253906 359.136719 375.078125 C 355.523438 373.722656 353.28125 376.617188 351.382812 379.023438 C 345.328125 386.6875 341.539062 395.605469 337.945312 404.554688 C 336.214844 408.847656 334.726562 412.773438 328.960938 412.082031 C 323.085938 411.386719 323.585938 406.402344 323.289062 402.785156 C 320.832031 372.671875 319.691406 342.53125 322.609375 312.351562 C 323.1875 306.402344 326.523438 304.042969 331.742188 303.902344 C 337.488281 303.75 339 307.835938 339.128906 312.667969 C 339.578125 329.476562 339.710938 346.28125 338.476562 363.070312 C 337.992188 369.523438 337.859375 375.976562 337.574219 382.425781 Z M 419.21875 399.347656 C 426.25 399.511719 431.632812 393.3125 431.742188 384.933594 C 431.84375 376.851562 426.390625 369.914062 419.769531 369.71875 C 413.214844 369.523438 407.332031 376.382812 407.179688 384.382812 C 407.027344 392.511719 412.398438 399.1875 419.21875 399.347656 Z M 452.070312 411.59375 C 452.90625 395.925781 453.515625 380.402344 454.636719 364.914062 C 455.257812 356.363281 459.304688 354.285156 466.113281 359.414062 C 469.039062 361.617188 470.515625 360.453125 472.535156 359.578125 C 479.480469 356.601562 486.609375 356.761719 493.625 358.742188 C 507.933594 362.785156 516.816406 376.65625 514.050781 390.101562 C 511.257812 403.683594 494.886719 414.964844 480.191406 411.398438 C 470.078125 408.941406 470.242188 412.894531 470.621094 420.316406 C 471.222656 432.101562 470.90625 443.929688 471.152344 455.734375 C 471.261719 460.894531 470.484375 465.632812 464.128906 465.4375 C 458.664062 465.265625 454.695312 462.328125 454.484375 456.136719 C 454.453125 455.207031 454.34375 454.277344 454.292969 453.351562 Z M 495.917969 384.40625 C 495.855469 376.269531 490.457031 369.902344 483.441406 369.695312 C 475.136719 369.441406 469.058594 375.671875 468.976562 384.527344 C 468.886719 393.714844 474.277344 399.398438 483.078125 399.371094 C 491.027344 399.347656 495.988281 393.570312 495.917969 384.40625 Z M 495.917969 384.40625 " fill-opacity="1" fill-rule="nonzero"/></svg>