<svg xmlns="http://www.w3.org/2000/svg" xmlns:xlink="http://www.w3.org/1999/xlink" width="1024" zoomAndPan="magnify" viewBox="0 0 768 767.999994" height="1024" preserveAspectRatio="xMidYMid meet" version="1.0"><defs><clipPath id="af8949969f"><path d="M 76 76.800781 L 717 76.800781 L 717 691 L 76 691 Z M 76 76.800781 " clip-rule="nonzero"/></clipPath><clipPath id="2adf10bd19"><path d="M 242.921875 76.800781 L 242.921875 690.414062 C 244.722656 690.542969 246.519531 690.542969 248.320312 690.542969 L 543.949219 690.542969 L 543.949219 76.800781 Z M 590.203125 76.800781 L 543.949219 76.800781 L 543.949219 690.414062 L 544.976562 690.414062 C 619.75 690.414062 685.40625 629.386719 690.800781 554.871094 L 716.109375 212.214844 C 721.636719 137.828125 664.976562 76.800781 590.203125 76.800781 Z M 203.09375 76.800781 C 128.320312 76.800781 71.660156 137.828125 77.183594 212.34375 L 102.496094 555 C 107.890625 627.71875 170.589844 687.589844 243.050781 690.414062 L 243.050781 76.800781 Z M 203.09375 76.800781 " clip-rule="nonzero"/></clipPath></defs><rect x="-76.8" width="921.6" fill="#ffffff" y="-76.799999" height="921.599993" fill-opacity="1"/><rect x="-76.8" width="921.6" fill="#ffffff" y="-76.799999" height="921.599993" fill-opacity="1"/><g clip-path="url(#af8949969f)"><g clip-path="url(#2adf10bd19)"><path fill="#000000" d="M 76.800781 76.800781 L 716.089844 76.800781 L 716.089844 690.414062 L 76.800781 690.414062 Z M 76.800781 76.800781 " fill-opacity="1" fill-rule="nonzero"/></g></g><path fill="#ffffff" d="M 206.984375 390.632812 L 206.984375 421.078125 L 188.398438 421.078125 L 188.398438 393.730469 C 188.398438 386.121094 185.035156 382.84375 179.636719 382.84375 C 173.621094 382.84375 169.015625 386.5625 169.015625 395.414062 L 169.015625 421.078125 L 150.433594 421.078125 L 150.433594 347.445312 L 169.105469 347.445312 L 169.105469 372.84375 C 173.265625 369.039062 178.839844 367.09375 185.125 367.09375 C 197.515625 367.003906 206.984375 374.171875 206.984375 390.632812 M 253.359375 393.464844 C 253.359375 401.609375 248.582031 406.210938 242.207031 406.210938 C 235.925781 406.210938 231.058594 401.609375 231.058594 393.464844 C 231.058594 385.410156 235.925781 380.898438 242.207031 380.898438 C 248.582031 380.898438 253.359375 385.410156 253.359375 393.464844 M 212.207031 393.464844 C 212.207031 409.574219 224.863281 420.988281 242.207031 420.988281 C 259.730469 420.988281 272.210938 409.484375 272.210938 393.464844 C 272.210938 377.445312 259.730469 366.117188 242.207031 366.117188 C 224.773438 366.117188 212.207031 377.445312 212.207031 393.464844 M 334.25 390.898438 C 334.871094 383.375 339.117188 379.304688 345.488281 379.304688 C 350.710938 379.304688 354.515625 382.226562 355.757812 386.652344 L 334.25 390.898438 M 360.003906 402.136719 C 356.375 405.234375 352.925781 406.742188 347.703125 406.742188 C 341.859375 406.742188 337.703125 404.707031 335.667969 400.367188 L 373.632812 393.113281 C 373.542969 375.765625 360.710938 366.03125 345.402344 366.03125 C 328.496094 366.03125 316.019531 377.445312 316.019531 393.375 C 316.019531 409.308594 328.320312 420.902344 347.171875 420.902344 C 357.261719 420.902344 364.695312 417.980469 369.738281 412.316406 L 360.003906 402.136719 M 458.328125 393.464844 C 458.328125 401.609375 453.460938 406.210938 447.179688 406.210938 C 440.894531 406.210938 436.027344 401.609375 436.027344 393.464844 C 436.027344 385.410156 440.894531 380.898438 447.179688 380.898438 C 453.375 380.898438 458.328125 385.410156 458.328125 393.464844 M 477.09375 393.464844 C 477.09375 376.5625 465.410156 366.117188 450.984375 366.117188 C 444.789062 366.117188 439.832031 367.886719 436.203125 371.605469 L 436.203125 347.355469 L 417.53125 347.355469 L 417.53125 420.105469 L 435.320312 420.105469 L 435.320312 414.792969 C 438.859375 419.042969 444.082031 420.988281 450.984375 420.988281 C 465.410156 420.988281 477.09375 410.457031 477.09375 393.464844 M 500.632812 390.898438 C 501.253906 383.375 505.5 379.304688 511.875 379.304688 C 517.09375 379.304688 520.898438 382.226562 522.140625 386.652344 L 500.632812 390.898438 M 526.476562 402.136719 C 522.847656 405.234375 519.394531 406.742188 514.175781 406.742188 C 508.332031 406.742188 504.171875 404.707031 502.136719 400.367188 L 540.105469 393.113281 C 540.015625 375.765625 527.183594 366.03125 511.875 366.03125 C 494.96875 366.03125 482.492188 377.445312 482.492188 393.375 C 482.492188 409.308594 494.792969 420.902344 513.644531 420.902344 C 523.730469 420.902344 531.167969 417.980469 536.210938 412.316406 L 526.476562 402.136719 M 586.835938 393.464844 C 586.835938 401.609375 582.054688 406.210938 575.769531 406.210938 C 569.398438 406.210938 564.621094 401.609375 564.621094 393.464844 C 564.621094 385.410156 569.398438 380.898438 575.769531 380.898438 C 582.054688 380.898438 586.835938 385.410156 586.835938 393.464844 M 586.570312 347.355469 L 586.570312 371.605469 C 583.027344 367.886719 578.074219 366.117188 571.878906 366.117188 C 557.363281 366.117188 545.679688 376.648438 545.679688 393.464844 C 545.679688 410.457031 557.363281 420.988281 571.878906 420.988281 C 578.78125 420.988281 583.914062 419.042969 587.453125 414.792969 L 587.453125 420.105469 L 605.242188 420.105469 L 605.242188 347.355469 Z M 612.941406 415.503906 C 618.164062 418.777344 627.457031 420.988281 636.484375 420.988281 C 653.742188 420.988281 662.769531 413.378906 662.769531 403.554688 C 662.769531 382.492188 631.4375 390.367188 631.4375 383.023438 C 631.4375 381.074219 633.738281 379.304688 639.933594 379.304688 C 644.625 379.304688 649.9375 380.277344 655.246094 383.199219 L 660.820312 370.542969 C 655.511719 367.621094 647.28125 366.03125 639.847656 366.03125 C 623.207031 366.03125 613.914062 373.640625 613.914062 383.640625 C 613.914062 404.882812 645.332031 396.828125 645.332031 403.910156 C 645.332031 406.121094 643.296875 407.539062 637.015625 407.539062 C 630.554688 407.539062 623.386719 405.679688 618.515625 402.667969 L 612.941406 415.503906 M 309.117188 404.96875 C 307.523438 406.03125 305.488281 406.652344 303.453125 406.652344 C 300.089844 406.652344 297.964844 404.527344 297.964844 400.546875 L 297.964844 380.011719 L 310 380.011719 L 310 366.117188 L 297.964844 366.117188 L 297.964844 347.445312 L 279.289062 347.445312 L 279.289062 400.722656 C 279.289062 414.351562 287.167969 420.988281 300.796875 420.988281 C 305.664062 420.988281 310.53125 420.015625 313.71875 417.980469 Z M 381.332031 401.695312 C 381.332031 414.261719 389.121094 420.988281 401.777344 420.988281 C 404.699219 420.988281 407.441406 420.636719 410.363281 419.660156 L 409.566406 405.765625 C 408.589844 406.296875 406.910156 406.742188 405.40625 406.742188 C 401.777344 406.742188 399.652344 404.707031 399.652344 400.722656 L 399.652344 347.355469 L 381.246094 347.355469 L 381.246094 401.695312 " fill-opacity="1" fill-rule="nonzero"/><path fill="#ffffff" d="M 150.433594 402.402344 L 169.105469 402.402344 L 169.105469 421.078125 L 150.433594 421.078125 Z M 150.433594 402.402344 " fill-opacity="1" fill-rule="nonzero"/><path fill="#ffffff" d="M 150.433594 383.730469 L 169.105469 383.730469 L 169.105469 402.402344 L 150.433594 402.402344 Z M 150.433594 383.730469 " fill-opacity="1" fill-rule="nonzero"/><path fill="#ffffff" d="M 131.757812 383.730469 L 150.433594 383.730469 L 150.433594 402.402344 L 131.757812 402.402344 Z M 131.757812 383.730469 " fill-opacity="1" fill-rule="nonzero"/></svg>