<svg xmlns="http://www.w3.org/2000/svg" xmlns:xlink="http://www.w3.org/1999/xlink" width="1024" zoomAndPan="magnify" viewBox="0 0 768 767.999994" height="1024" preserveAspectRatio="xMidYMid meet" version="1.0"><defs><clipPath id="06148604c7"><path d="M 28.625 28.625 L 739.375 28.625 L 739.375 739.375 L 28.625 739.375 Z M 28.625 28.625 " clip-rule="nonzero"/></clipPath><clipPath id="033587bb70"><path d="M 384 28.625 C 187.730469 28.625 28.625 187.730469 28.625 384 C 28.625 580.269531 187.730469 739.375 384 739.375 C 580.269531 739.375 739.375 580.269531 739.375 384 C 739.375 187.730469 580.269531 28.625 384 28.625 Z M 384 28.625 " clip-rule="nonzero"/></clipPath></defs><rect x="-76.8" width="921.6" fill="#ffffff" y="-76.799999" height="921.599993" fill-opacity="1"/><rect x="-76.8" width="921.6" fill="#ffffff" y="-76.799999" height="921.599993" fill-opacity="1"/><g clip-path="url(#06148604c7)"><g clip-path="url(#033587bb70)"><path fill="#000000" d="M 28.625 28.625 L 739.375 28.625 L 739.375 739.375 L 28.625 739.375 Z M 28.625 28.625 " fill-opacity="1" fill-rule="nonzero"/></g></g><path fill="#ffffff" d="M 194.335938 390.632812 L 194.335938 421.078125 L 175.75 421.078125 L 175.75 393.730469 C 175.75 386.121094 172.386719 382.84375 166.988281 382.84375 C 160.972656 382.84375 156.371094 386.5625 156.371094 395.414062 L 156.371094 421.078125 L 137.785156 421.078125 L 137.785156 347.445312 L 156.457031 347.445312 L 156.457031 372.84375 C 160.617188 369.039062 166.191406 367.09375 172.476562 367.09375 C 184.867188 367.003906 194.335938 374.171875 194.335938 390.632812 M 240.710938 393.464844 C 240.710938 401.609375 235.933594 406.210938 229.558594 406.210938 C 223.277344 406.210938 218.410156 401.609375 218.410156 393.464844 C 218.410156 385.410156 223.277344 380.898438 229.558594 380.898438 C 235.933594 380.898438 240.710938 385.410156 240.710938 393.464844 M 199.558594 393.464844 C 199.558594 409.574219 212.214844 420.988281 229.558594 420.988281 C 247.082031 420.988281 259.5625 409.484375 259.5625 393.464844 C 259.5625 377.445312 247.082031 366.117188 229.558594 366.117188 C 212.125 366.117188 199.558594 377.445312 199.558594 393.464844 M 321.601562 390.898438 C 322.222656 383.375 326.46875 379.304688 332.839844 379.304688 C 338.0625 379.304688 341.867188 382.226562 343.109375 386.652344 L 321.601562 390.898438 M 347.355469 402.136719 C 343.726562 405.234375 340.277344 406.742188 335.054688 406.742188 C 329.214844 406.742188 325.054688 404.707031 323.019531 400.367188 L 360.984375 393.113281 C 360.898438 375.765625 348.0625 366.03125 332.753906 366.03125 C 315.847656 366.03125 303.371094 377.445312 303.371094 393.375 C 303.371094 409.308594 315.671875 420.902344 334.523438 420.902344 C 344.613281 420.902344 352.046875 417.980469 357.089844 412.316406 L 347.355469 402.136719 M 445.679688 393.464844 C 445.679688 401.609375 440.8125 406.210938 434.53125 406.210938 C 428.246094 406.210938 423.378906 401.609375 423.378906 393.464844 C 423.378906 385.410156 428.246094 380.898438 434.53125 380.898438 C 440.726562 380.898438 445.679688 385.410156 445.679688 393.464844 M 464.445312 393.464844 C 464.445312 376.5625 452.761719 366.117188 438.335938 366.117188 C 432.140625 366.117188 427.183594 367.886719 423.554688 371.605469 L 423.554688 347.355469 L 404.882812 347.355469 L 404.882812 420.105469 L 422.671875 420.105469 L 422.671875 414.792969 C 426.210938 419.042969 431.433594 420.988281 438.335938 420.988281 C 452.761719 420.988281 464.445312 410.457031 464.445312 393.464844 M 487.984375 390.898438 C 488.605469 383.375 492.851562 379.304688 499.226562 379.304688 C 504.445312 379.304688 508.253906 382.226562 509.492188 386.652344 L 487.984375 390.898438 M 513.828125 402.136719 C 510.199219 405.234375 506.746094 406.742188 501.527344 406.742188 C 495.683594 406.742188 491.523438 404.707031 489.488281 400.367188 L 527.457031 393.113281 C 527.367188 375.765625 514.535156 366.03125 499.226562 366.03125 C 482.320312 366.03125 469.84375 377.445312 469.84375 393.375 C 469.84375 409.308594 482.144531 420.902344 500.996094 420.902344 C 511.085938 420.902344 518.519531 417.980469 523.5625 412.316406 L 513.828125 402.136719 M 574.1875 393.464844 C 574.1875 401.609375 569.40625 406.210938 563.125 406.210938 C 556.75 406.210938 551.972656 401.609375 551.972656 393.464844 C 551.972656 385.410156 556.75 380.898438 563.125 380.898438 C 569.40625 380.898438 574.1875 385.410156 574.1875 393.464844 M 573.921875 347.355469 L 573.921875 371.605469 C 570.378906 367.886719 565.425781 366.117188 559.230469 366.117188 C 544.714844 366.117188 533.03125 376.648438 533.03125 393.464844 C 533.03125 410.457031 544.714844 420.988281 559.230469 420.988281 C 566.132812 420.988281 571.265625 419.042969 574.804688 414.792969 L 574.804688 420.105469 L 592.59375 420.105469 L 592.59375 347.355469 Z M 600.292969 415.503906 C 605.515625 418.777344 614.808594 420.988281 623.835938 420.988281 C 641.09375 420.988281 650.121094 413.378906 650.121094 403.554688 C 650.121094 382.492188 618.789062 390.367188 618.789062 383.023438 C 618.789062 381.074219 621.089844 379.304688 627.285156 379.304688 C 631.976562 379.304688 637.289062 380.277344 642.597656 383.199219 L 648.171875 370.542969 C 642.863281 367.621094 634.632812 366.03125 627.199219 366.03125 C 610.558594 366.03125 601.265625 373.640625 601.265625 383.640625 C 601.265625 404.882812 632.683594 396.828125 632.683594 403.910156 C 632.683594 406.121094 630.648438 407.539062 624.367188 407.539062 C 617.90625 407.539062 610.738281 405.679688 605.871094 402.667969 L 600.292969 415.503906 M 296.46875 404.96875 C 294.875 406.03125 292.839844 406.652344 290.804688 406.652344 C 287.441406 406.652344 285.316406 404.527344 285.316406 400.546875 L 285.316406 380.011719 L 297.351562 380.011719 L 297.351562 366.117188 L 285.316406 366.117188 L 285.316406 347.445312 L 266.640625 347.445312 L 266.640625 400.722656 C 266.640625 414.351562 274.519531 420.988281 288.148438 420.988281 C 293.015625 420.988281 297.882812 420.015625 301.070312 417.980469 Z M 368.683594 401.695312 C 368.683594 414.261719 376.472656 420.988281 389.128906 420.988281 C 392.050781 420.988281 394.792969 420.636719 397.714844 419.660156 L 396.917969 405.765625 C 395.945312 406.296875 394.261719 406.742188 392.757812 406.742188 C 389.128906 406.742188 387.003906 404.707031 387.003906 400.722656 L 387.003906 347.355469 L 368.597656 347.355469 L 368.597656 401.695312 " fill-opacity="1" fill-rule="nonzero"/><path fill="#ffffff" d="M 137.785156 402.402344 L 156.457031 402.402344 L 156.457031 421.078125 L 137.785156 421.078125 Z M 137.785156 402.402344 " fill-opacity="1" fill-rule="nonzero"/><path fill="#ffffff" d="M 137.785156 383.730469 L 156.457031 383.730469 L 156.457031 402.402344 L 137.785156 402.402344 Z M 137.785156 383.730469 " fill-opacity="1" fill-rule="nonzero"/><path fill="#ffffff" d="M 119.109375 383.730469 L 137.785156 383.730469 L 137.785156 402.402344 L 119.109375 402.402344 Z M 119.109375 383.730469 " fill-opacity="1" fill-rule="nonzero"/></svg>