<svg xmlns="http://www.w3.org/2000/svg" xmlns:xlink="http://www.w3.org/1999/xlink" width="1024" zoomAndPan="magnify" viewBox="0 0 768 767.999994" height="1024" preserveAspectRatio="xMidYMid meet" version="1.0"><defs><clipPath id="f691285fe8"><path d="M 76 76.800781 L 717 76.800781 L 717 691 L 76 691 Z M 76 76.800781 " clip-rule="nonzero"/></clipPath><clipPath id="8d1089bb36"><path d="M 242.921875 76.800781 L 242.921875 690.414062 C 244.722656 690.542969 246.519531 690.542969 248.320312 690.542969 L 543.949219 690.542969 L 543.949219 76.800781 Z M 590.203125 76.800781 L 543.949219 76.800781 L 543.949219 690.414062 L 544.976562 690.414062 C 619.75 690.414062 685.40625 629.386719 690.800781 554.871094 L 716.109375 212.214844 C 721.636719 137.828125 664.976562 76.800781 590.203125 76.800781 Z M 203.09375 76.800781 C 128.320312 76.800781 71.660156 137.828125 77.183594 212.34375 L 102.496094 555 C 107.890625 627.71875 170.589844 687.589844 243.050781 690.414062 L 243.050781 76.800781 Z M 203.09375 76.800781 " clip-rule="nonzero"/></clipPath><clipPath id="ee8bf48d78"><path d="M 716.496094 286.789062 L 768 286.789062 L 768 731.84375 L 716.496094 731.84375 Z M 716.496094 286.789062 " clip-rule="nonzero"/></clipPath><clipPath id="6b3b3807ab"><path d="M 939.023438 286.789062 C 816.125 286.789062 716.496094 386.417969 716.496094 509.316406 C 716.496094 632.214844 816.125 731.84375 939.023438 731.84375 C 1061.921875 731.84375 1161.550781 632.214844 1161.550781 509.316406 C 1161.550781 386.417969 1061.921875 286.789062 939.023438 286.789062 Z M 939.023438 286.789062 " clip-rule="nonzero"/></clipPath></defs><rect x="-76.8" width="921.6" fill="#ffffff" y="-76.799999" height="921.599993" fill-opacity="1"/><rect x="-76.8" width="921.6" fill="#ffffff" y="-76.799999" height="921.599993" fill-opacity="1"/><g clip-path="url(#f691285fe8)"><g clip-path="url(#8d1089bb36)"><path fill="#000000" d="M 76.800781 76.800781 L 716.089844 76.800781 L 716.089844 690.414062 L 76.800781 690.414062 Z M 76.800781 76.800781 " fill-opacity="1" fill-rule="nonzero"/></g></g><g clip-path="url(#ee8bf48d78)"><g clip-path="url(#6b3b3807ab)"><path fill="#ffffff" d="M 716.496094 286.789062 L 1161.550781 286.789062 L 1161.550781 731.84375 L 716.496094 731.84375 Z M 716.496094 286.789062 " fill-opacity="1" fill-rule="nonzero"/></g></g><path fill="#ffffff" d="M 488.289062 316.203125 C 493.0625 314.53125 498.320312 318.332031 499.042969 323.148438 C 499.878906 328.195312 495.023438 333.179688 489.972656 332.582031 C 485.921875 332.242188 482.460938 328.53125 482.46875 324.460938 C 482.292969 320.804688 484.941406 317.433594 488.289062 316.203125 Z M 488.289062 316.203125 " fill-opacity="1" fill-rule="nonzero"/><path fill="#ffffff" d="M 327.910156 343.898438 C 327.855469 336.871094 327.882812 329.839844 327.90625 322.8125 C 333.058594 322.878906 338.214844 322.871094 343.367188 322.832031 C 343.332031 329.851562 343.421875 336.867188 343.328125 343.886719 C 347.949219 343.886719 352.574219 343.925781 357.199219 343.867188 C 357.152344 347.773438 357.5625 351.6875 357.214844 355.597656 C 352.582031 355.675781 347.867188 355.257812 343.28125 355.785156 L 342.652344 356.140625 C 342.40625 368.699219 342.863281 381.265625 342.4375 393.824219 C 342.40625 395.960938 342.699219 398.089844 343.105469 400.183594 C 343.320312 400.089844 343.738281 399.902344 343.953125 399.804688 C 344.984375 400.695312 345.8125 401.996094 347.265625 402.21875 C 350.613281 402.859375 354.054688 402.5 357.429688 402.207031 C 357.101562 406.1875 357.300781 410.1875 357.199219 414.175781 C 350.324219 414.917969 343.109375 415.800781 336.445312 413.449219 C 333.460938 412.464844 330.855469 410.289062 329.664062 407.347656 C 328.160156 403.75 327.972656 399.773438 327.890625 395.925781 C 327.890625 382.472656 327.863281 369.015625 327.90625 355.5625 C 324.457031 355.554688 321.007812 355.570312 317.566406 355.554688 C 317.554688 351.667969 317.554688 347.78125 317.59375 343.898438 C 321.035156 343.894531 324.46875 343.894531 327.910156 343.898438 Z M 327.910156 343.898438 " fill-opacity="1" fill-rule="nonzero"/><path fill="#ffffff" d="M 629.292969 338.488281 C 631.515625 338.476562 633.738281 338.496094 635.96875 338.488281 C 635.894531 338.996094 635.839844 339.507812 635.792969 340.019531 C 635.214844 339.992188 634.070312 339.9375 633.496094 339.910156 C 632.929688 339.898438 632.371094 339.898438 631.820312 339.902344 C 630.984375 339.925781 630.148438 339.953125 629.328125 339.992188 C 629.320312 339.613281 629.300781 338.867188 629.292969 338.488281 Z M 629.292969 338.488281 " fill-opacity="1" fill-rule="nonzero"/><path fill="#ffffff" d="M 646.5625 338.507812 C 645.890625 338.480469 645.230469 338.457031 644.570312 338.429688 C 643.632812 340.375 642.917969 342.417969 641.996094 344.363281 C 641.324219 342.363281 640.621094 340.371094 639.726562 338.449219 C 639.046875 338.460938 638.371094 338.476562 637.707031 338.480469 C 637.644531 341.277344 637.671875 344.074219 637.679688 346.871094 C 638.023438 346.871094 638.707031 346.863281 639.050781 346.863281 C 639.003906 344.574219 638.945312 342.28125 639.03125 339.996094 C 640.015625 342.484375 640.707031 345.113281 642.152344 347.394531 C 643.394531 345.023438 644.21875 342.472656 645.132812 339.957031 C 645.179688 342.261719 645.105469 344.558594 645.085938 346.855469 C 645.457031 346.871094 646.191406 346.898438 646.5625 346.902344 C 646.527344 344.109375 646.546875 341.304688 646.5625 338.507812 Z M 646.5625 338.507812 " fill-opacity="1" fill-rule="nonzero"/><path fill="#ffffff" d="M 631.816406 339.902344 C 632.371094 339.898438 632.929688 339.898438 633.496094 339.910156 C 633.292969 342.222656 633.347656 344.539062 633.347656 346.855469 C 632.957031 346.863281 632.179688 346.871094 631.796875 346.871094 C 631.816406 344.554688 631.816406 342.230469 631.816406 339.902344 Z M 631.816406 339.902344 " fill-opacity="1" fill-rule="nonzero"/><path fill="#ffffff" d="M 295.003906 352.410156 C 288.230469 345.644531 278.660156 341.804688 269.082031 342.15625 C 261.699219 342.167969 254.445312 344.726562 248.554688 349.140625 C 240.609375 355.015625 235.378906 364.328125 234.222656 374.117188 C 234.101562 376.964844 234.148438 379.816406 234.289062 382.664062 C 235.886719 396.273438 245.859375 408.515625 258.980469 412.578125 C 265.910156 414.695312 273.621094 415.105469 280.472656 412.464844 C 281.0625 412.445312 281.601562 412.277344 282.085938 411.964844 C 294.5625 407.890625 303.675781 395.929688 305.421875 383.050781 C 306.984375 371.960938 302.980469 360.265625 295.003906 352.410156 Z M 295.003906 352.410156 " fill-opacity="1" fill-rule="nonzero"/><path fill="#ffffff" d="M 316.449219 343.878906 L 317.59375 343.898438 C 317.554688 347.78125 317.554688 351.667969 317.566406 355.554688 L 316.441406 355.609375 C 316.441406 351.699219 316.421875 347.785156 316.449219 343.878906 Z M 316.449219 343.878906 " fill-opacity="1" fill-rule="nonzero"/><path fill="#ffffff" d="M 366.554688 343.867188 C 372.019531 343.914062 377.472656 343.90625 382.933594 343.859375 C 384.886719 350.617188 386.335938 357.507812 388.308594 364.257812 C 390.9375 375.121094 394.066406 385.859375 396.613281 396.742188 C 398.546875 390.738281 399.703125 384.519531 401.347656 378.441406 C 404.285156 366.929688 407.019531 355.375 410.035156 343.878906 C 415.179688 343.886719 420.328125 343.917969 425.472656 343.867188 C 429.734375 361.484375 433.832031 379.148438 438.1875 396.734375 C 443.042969 379.121094 447.632812 361.429688 452.566406 343.839844 C 457.785156 343.945312 463.007812 343.886719 468.230469 343.871094 C 460.789062 367.296875 453.648438 390.816406 446.257812 414.257812 C 441.015625 414.269531 435.769531 414.222656 430.523438 414.296875 C 426.03125 396.828125 421.882812 379.277344 417.40625 361.808594 C 416.785156 363.707031 416.445312 365.6875 415.976562 367.621094 L 415.820312 367.714844 C 415.585938 367.855469 415.109375 368.148438 414.871094 368.292969 C 413.433594 372.183594 412.757812 376.300781 411.667969 380.289062 C 411.039062 382.484375 410.851562 384.769531 410.972656 387.039062 C 409.15625 396.1875 406.550781 405.175781 404.46875 414.269531 C 399.074219 414.25 393.679688 414.269531 388.277344 414.25 C 380.914062 390.824219 373.894531 367.292969 366.554688 343.867188 Z M 366.554688 343.867188 " fill-opacity="1" fill-rule="nonzero"/><path fill="#ffffff" d="M 483.035156 343.859375 C 488.191406 343.90625 493.351562 343.917969 498.519531 343.867188 C 498.511719 367.339844 498.476562 390.8125 498.53125 414.285156 C 493.351562 414.242188 488.179688 414.25 483.007812 414.289062 C 483.074219 390.8125 483.011719 367.339844 483.035156 343.859375 Z M 483.035156 343.859375 " fill-opacity="1" fill-rule="nonzero"/><path fill="#ffffff" d="M 560.847656 342.457031 C 557.570312 342.15625 554.222656 341.832031 550.976562 342.550781 C 543.269531 344.324219 536.886719 350.414062 534.292969 357.832031 C 534.328125 353.183594 534.320312 348.535156 534.339844 343.894531 C 529.949219 343.894531 525.558594 343.898438 521.171875 343.894531 L 520.003906 343.867188 C 520.015625 367.324219 520.050781 390.789062 519.988281 414.257812 C 525.101562 414.230469 530.21875 414.230469 535.335938 414.25 C 535.265625 402.722656 535.304688 391.195312 535.308594 379.667969 C 535.257812 377.007812 535.773438 374.378906 536.300781 371.785156 L 536.453125 371.726562 C 537.976562 365.9375 541.722656 360.515625 547.34375 358.117188 C 549.695312 356.964844 552.363281 357.070312 554.902344 356.761719 C 556.882812 357.003906 558.875 357.179688 560.867188 357.339844 C 560.808594 352.382812 560.855469 347.414062 560.847656 342.457031 Z M 560.847656 342.457031 " fill-opacity="1" fill-rule="nonzero"/><path fill="#ffffff" d="M 342.652344 356.140625 L 343.28125 355.785156 C 343.433594 368.679688 343.28125 381.589844 343.355469 394.484375 C 343.335938 396.28125 343.746094 398.035156 343.953125 399.804688 C 343.738281 399.898438 343.320312 400.089844 343.105469 400.183594 C 342.703125 398.085938 342.40625 395.957031 342.4375 393.824219 C 342.863281 381.265625 342.40625 368.699219 342.652344 356.140625 Z M 342.652344 356.140625 " fill-opacity="1" fill-rule="nonzero"/><path fill="#ffffff" d="M 219.90625 361.050781 C 219.515625 354.988281 216.09375 348.984375 210.8125 345.851562 C 205.964844 342.714844 199.964844 341.992188 194.300781 342.125 C 186.546875 342.390625 178.714844 346.425781 174.78125 353.230469 C 174.675781 353.167969 174.453125 353.046875 174.34375 352.988281 C 174.625 341.082031 174.335938 329.171875 174.492188 317.265625 C 169.347656 317.265625 164.203125 317.285156 159.054688 317.253906 C 159.078125 349.59375 159.082031 381.925781 159.054688 414.265625 C 164.195312 414.214844 169.339844 414.222656 174.480469 414.265625 C 174.425781 400.492188 174.480469 386.726562 174.445312 372.957031 C 174.390625 369.90625 175.125 366.914062 176.035156 364.023438 C 177.394531 362.441406 178.191406 360.433594 179.71875 358.984375 C 181.644531 356.949219 184.21875 355.757812 186.777344 354.734375 L 186.898438 354.597656 C 190.636719 354.078125 194.460938 354.152344 198.0625 355.359375 C 199.433594 356.632812 201.210938 357.476562 202.226562 359.097656 C 203.390625 360.890625 203.753906 363.046875 204.550781 365 C 205.117188 369.203125 204.90625 373.449219 204.941406 377.671875 C 204.921875 389.867188 204.980469 402.0625 204.914062 414.257812 C 210.023438 414.238281 215.128906 414.210938 220.242188 414.265625 C 220.234375 399.589844 220.234375 384.917969 220.234375 370.242188 C 220.222656 367.175781 220.355469 364.097656 219.90625 361.050781 Z M 219.90625 361.050781 " fill-opacity="1" fill-rule="nonzero"/><path fill="#ffffff" d="M 414.871094 368.292969 C 415.105469 368.148438 415.585938 367.855469 415.820312 367.714844 C 414.117188 374.128906 412.878906 380.671875 410.972656 387.039062 C 410.851562 384.769531 411.039062 382.484375 411.664062 380.289062 C 412.757812 376.300781 413.429688 372.183594 414.871094 368.292969 Z M 414.871094 368.292969 " fill-opacity="1" fill-rule="nonzero"/><path fill="#e59095" d="M 234.289062 382.664062 C 233.542969 379.875 233.5 376.910156 234.222656 374.117188 C 234.101562 376.964844 234.148438 379.816406 234.289062 382.664062 Z M 234.289062 382.664062 " fill-opacity="1" fill-rule="nonzero"/><path fill="#ffffff" d="M 631.664062 382.976562 L 633.039062 382.976562 C 633.347656 379.195312 633.457031 375.328125 632.703125 371.589844 C 631.289062 360.488281 624.070312 349.839844 613.941406 345.042969 C 613.894531 345.019531 613.851562 344.996094 613.808594 344.972656 C 601.511719 338.730469 588.429688 344.039062 588.429688 344.039062 L 588.433594 344.039062 C 580.113281 347.109375 573.222656 353.933594 569.886719 362.136719 C 566.035156 370.753906 565.476562 380.617188 567.449219 389.789062 L 567.421875 389.917969 C 568.667969 395.683594 571.0625 401.300781 575.058594 405.707031 C 581.003906 412.546875 590.136719 416.183594 599.128906 416.117188 C 610.132812 416.746094 622.105469 412.015625 627.867188 402.257812 C 630.082031 399.308594 631.140625 395.730469 632.070312 392.214844 C 627.171875 392.199219 622.269531 392.191406 617.375 392.21875 C 617.246094 392.71875 616.976562 393.714844 616.84375 394.214844 C 615.8125 395.820312 614.878906 397.511719 613.617188 398.9375 C 612.535156 399.976562 611.457031 400.84375 610.390625 401.566406 C 610.210938 401.664062 610.03125 401.765625 609.84375 401.855469 C 609.828125 401.890625 609.808594 401.925781 609.789062 401.960938 C 603.242188 406.066406 597.121094 404.707031 592.839844 402.554688 C 592.8125 402.511719 592.78125 402.46875 592.757812 402.425781 C 592.46875 402.308594 592.179688 402.183594 591.898438 402.054688 C 589.140625 400.5 587.308594 398.738281 586.878906 398.304688 C 583.199219 394.273438 581.851562 388.546875 581.746094 383.171875 C 598.390625 383.015625 615.035156 383.398438 631.664062 382.976562 Z M 581.222656 373.28125 L 581.832031 373.214844 C 581.855469 369.203125 582.933594 365.140625 585.324219 361.886719 C 589.746094 355.273438 599.070312 352.347656 606.390625 355.589844 C 613.332031 358.445312 617.332031 365.875 617.589844 373.152344 L 618.214844 373.191406 C 615.90625 374.613281 613.105469 374.035156 610.546875 374.109375 C 602.027344 374.109375 593.503906 374.035156 584.992188 374.148438 C 583.667969 374.21875 582.378906 373.898438 581.222656 373.28125 Z M 581.222656 373.28125 " fill-opacity="1" fill-rule="nonzero"/></svg>