<svg xmlns="http://www.w3.org/2000/svg" xmlns:xlink="http://www.w3.org/1999/xlink" width="1024" zoomAndPan="magnify" viewBox="0 0 768 767.999994" height="1024" preserveAspectRatio="xMidYMid meet" version="1.0"><defs><clipPath id="c65e3d9524"><path d="M 64 68.28125 L 704 68.28125 L 704 682 L 64 682 Z M 64 68.28125 " clip-rule="nonzero"/></clipPath><clipPath id="e6d7e297c4"><path d="M 230.273438 68.28125 L 230.273438 681.894531 C 232.074219 682.023438 233.871094 682.023438 235.671875 682.023438 L 531.300781 682.023438 L 531.300781 68.28125 Z M 577.554688 68.28125 L 531.300781 68.28125 L 531.300781 681.894531 L 532.328125 681.894531 C 607.105469 681.894531 672.757812 620.867188 678.152344 546.351562 L 703.460938 203.695312 C 708.988281 129.308594 652.328125 68.28125 577.554688 68.28125 Z M 190.445312 68.28125 C 115.671875 68.28125 59.011719 129.308594 64.539062 203.824219 L 89.847656 546.480469 C 95.242188 619.199219 157.941406 679.070312 230.402344 681.894531 L 230.402344 68.28125 Z M 190.445312 68.28125 " clip-rule="nonzero"/></clipPath></defs><rect x="-76.8" width="921.6" fill="#ffffff" y="-76.799999" height="921.599993" fill-opacity="1"/><rect x="-76.8" width="921.6" fill="#ffffff" y="-76.799999" height="921.599993" fill-opacity="1"/><g clip-path="url(#c65e3d9524)"><g clip-path="url(#e6d7e297c4)"><path fill="#000000" d="M 64.152344 68.28125 L 703.441406 68.28125 L 703.441406 681.894531 L 64.152344 681.894531 Z M 64.152344 68.28125 " fill-opacity="1" fill-rule="nonzero"/></g></g><path fill="#ffffff" d="M 539.375 387.75 C 549.867188 397.835938 557.535156 411.960938 554.710938 427.703125 C 549.867188 451.511719 530.089844 468.867188 506.683594 473.710938 C 504.664062 474.113281 493.367188 476.132812 484.488281 476.132812 L 419.914062 476.132812 L 450.988281 352.636719 L 503.453125 334.476562 L 477.625 438.195312 C 496.996094 437.792969 510.316406 423.261719 509.105469 409.542969 C 507.894531 395.820312 501.4375 388.957031 492.960938 384.921875 C 494.980469 384.117188 523.632812 365.953125 517.582031 346.988281 C 511.121094 328.019531 482.46875 330.441406 465.921875 334.878906 C 453.410156 337.703125 427.984375 345.371094 419.511719 349.003906 L 387.222656 476.132812 L 337.585938 476.132812 L 364.21875 369.992188 C 363.414062 369.992188 324.667969 387.75 324.667969 387.75 L 337.988281 334.070312 C 353.324219 327.210938 418.300781 300.980469 460.273438 294.117188 C 516.371094 284.835938 551.882812 300.980469 561.972656 328.824219 C 571.660156 356.671875 557.535156 378.0625 539.375 387.75 " fill-opacity="1" fill-rule="nonzero"/><path fill="#ffffff" d="M 268.167969 369.585938 L 257.273438 412.367188 C 251.621094 434.5625 236.691406 456.761719 208.035156 457.566406 L 194.71875 510.839844 C 199.5625 510.839844 222.566406 508.417969 242.742188 500.347656 C 274.625 487.027344 299.246094 463.21875 308.125 425.683594 L 330.320312 337.300781 C 329.917969 337.703125 285.925781 358.691406 268.167969 369.585938 " fill-opacity="1" fill-rule="nonzero"/><path fill="#ffffff" d="M 287.945312 291.695312 L 268.574219 369.585938 C 285.925781 359.09375 329.917969 338.109375 330.722656 337.703125 L 342.425781 292.101562 L 287.945312 292.101562 " fill-opacity="1" fill-rule="nonzero"/></svg>