<svg xmlns="http://www.w3.org/2000/svg" xmlns:xlink="http://www.w3.org/1999/xlink" width="1024" zoomAndPan="magnify" viewBox="0 0 768 767.999994" height="1024" preserveAspectRatio="xMidYMid meet" version="1.0"><defs><clipPath id="c19526c7b1"><path d="M 28.625 28.625 L 739.375 28.625 L 739.375 739.375 L 28.625 739.375 Z M 28.625 28.625 " clip-rule="nonzero"/></clipPath><clipPath id="b87aee2602"><path d="M 384 28.625 C 187.730469 28.625 28.625 187.730469 28.625 384 C 28.625 580.269531 187.730469 739.375 384 739.375 C 580.269531 739.375 739.375 580.269531 739.375 384 C 739.375 187.730469 580.269531 28.625 384 28.625 Z M 384 28.625 " clip-rule="nonzero"/></clipPath></defs><rect x="-76.8" width="921.6" fill="#ffffff" y="-76.799999" height="921.599993" fill-opacity="1"/><rect x="-76.8" width="921.6" fill="#ffffff" y="-76.799999" height="921.599993" fill-opacity="1"/><g clip-path="url(#c19526c7b1)"><g clip-path="url(#b87aee2602)"><path fill="#000000" d="M 28.625 28.625 L 739.375 28.625 L 739.375 739.375 L 28.625 739.375 Z M 28.625 28.625 " fill-opacity="1" fill-rule="nonzero"/></g></g><path fill="#ffffff" d="M 120.988281 330.132812 L 228.714844 330.132812 L 228.714844 437.859375 L 120.988281 437.859375 Z M 120.988281 330.132812 " fill-opacity="1" fill-rule="nonzero"/><path fill="#000000" d="M 154.199219 357.085938 L 167.292969 357.085938 L 167.292969 410.949219 L 154.199219 410.949219 Z M 154.199219 357.085938 " fill-opacity="1" fill-rule="nonzero"/><path fill="#000000" d="M 195.507812 410.90625 L 181.0625 410.90625 L 166.167969 383.996094 L 181.0625 357.085938 L 195.507812 357.085938 L 180.523438 383.996094 Z M 195.507812 410.90625 " fill-opacity="1" fill-rule="nonzero"/><path fill="#ffffff" d="M 234.703125 330.132812 L 342.429688 330.132812 L 342.429688 437.859375 L 234.703125 437.859375 Z M 234.703125 330.132812 " fill-opacity="1" fill-rule="nonzero"/><path fill="#000000" d="M 278.800781 403.164062 L 276.460938 410.996094 L 262.511719 410.996094 L 280.238281 356.996094 L 296.890625 356.996094 L 314.484375 410.996094 L 300.21875 410.996094 L 297.878906 403.253906 Z M 288.339844 372.476562 L 282.039062 392.589844 L 294.640625 392.589844 Z M 288.339844 372.476562 " fill-opacity="1" fill-rule="nonzero"/><path fill="#ffffff" d="M 348.367188 330.132812 L 456.09375 330.132812 L 456.09375 437.859375 L 348.367188 437.859375 Z M 348.367188 330.132812 " fill-opacity="1" fill-rule="nonzero"/><path fill="#000000" d="M 408.980469 410.996094 L 395.796875 410.996094 L 395.796875 387.191406 L 378.113281 356.996094 L 393.683594 356.996094 L 402.410156 373.554688 L 411.007812 356.996094 L 426.351562 356.996094 L 408.980469 387.191406 Z M 408.980469 410.996094 " fill-opacity="1" fill-rule="nonzero"/><path fill="#ffffff" d="M 462.078125 330.132812 L 569.804688 330.132812 L 569.804688 437.859375 L 462.078125 437.859375 Z M 462.078125 330.132812 " fill-opacity="1" fill-rule="nonzero"/><path fill="#000000" d="M 506.175781 403.164062 L 503.839844 410.996094 L 489.886719 410.996094 L 507.617188 356.996094 L 524.265625 356.996094 L 541.863281 410.996094 L 527.597656 410.996094 L 525.257812 403.253906 Z M 515.714844 372.476562 L 509.417969 392.589844 L 522.015625 392.589844 Z M 515.714844 372.476562 " fill-opacity="1" fill-rule="nonzero"/><path fill="#ffffff" d="M 575.746094 330.132812 L 683.472656 330.132812 L 683.472656 437.859375 L 575.746094 437.859375 Z M 575.746094 330.132812 " fill-opacity="1" fill-rule="nonzero"/><path fill="#000000" d="M 608.953125 357.085938 L 622.046875 357.085938 L 622.046875 410.949219 L 608.953125 410.949219 Z M 608.953125 357.085938 " fill-opacity="1" fill-rule="nonzero"/><path fill="#000000" d="M 650.261719 410.90625 L 635.820312 410.90625 L 620.921875 383.996094 L 635.820312 357.085938 L 650.261719 357.085938 L 635.277344 383.996094 Z M 650.261719 410.90625 " fill-opacity="1" fill-rule="nonzero"/></svg>