<svg xmlns="http://www.w3.org/2000/svg" xmlns:xlink="http://www.w3.org/1999/xlink" width="1024" zoomAndPan="magnify" viewBox="0 0 768 767.999994" height="1024" preserveAspectRatio="xMidYMid meet" version="1.0"><defs><clipPath id="defd3ccd6a"><path d="M 28.625 28.625 L 739.375 28.625 L 739.375 739.375 L 28.625 739.375 Z M 28.625 28.625 " clip-rule="nonzero"/></clipPath><clipPath id="4d7de303c4"><path d="M 384 28.625 C 187.730469 28.625 28.625 187.734375 28.625 384 C 28.625 580.269531 187.730469 739.375 384 739.375 C 580.269531 739.375 739.375 580.269531 739.375 384 C 739.375 187.734375 580.269531 28.625 384 28.625 Z M 384 28.625 " clip-rule="nonzero"/></clipPath></defs><rect x="-76.8" width="921.6" fill="#ffffff" y="-76.799999" height="921.599993" fill-opacity="1"/><rect x="-76.8" width="921.6" fill="#ffffff" y="-76.799999" height="921.599993" fill-opacity="1"/><g clip-path="url(#defd3ccd6a)"><g clip-path="url(#4d7de303c4)"><path fill="#000000" d="M 28.625 28.625 L 739.375 28.625 L 739.375 739.375 L 28.625 739.375 Z M 28.625 28.625 " fill-opacity="1" fill-rule="nonzero"/></g></g><path fill="#ffffff" d="M 215.386719 332.457031 L 223.113281 332.457031 L 223.113281 401.554688 L 215.386719 401.554688 Z M 215.386719 332.457031 " fill-opacity="1" fill-rule="nonzero"/><path fill="#ffffff" d="M 240.21875 333.855469 C 243.039062 333.855469 245.078125 335.816406 245.078125 338.664062 C 245.078125 341.511719 243.039062 343.519531 240.21875 343.519531 C 237.402344 343.519531 235.460938 341.511719 235.460938 338.664062 C 235.460938 335.816406 237.40625 333.855469 240.21875 333.855469 Z M 244.113281 354.46875 L 244.113281 401.578125 L 236.386719 401.578125 L 236.386719 354.46875 Z M 244.113281 354.46875 " fill-opacity="1" fill-rule="nonzero"/><path fill="#ffffff" d="M 254.191406 377.855469 C 254.191406 363.722656 264.34375 353.464844 277.707031 353.464844 C 286.0625 353.464844 292.183594 357.097656 295.679688 362.152344 L 295.679688 354.449219 L 303.40625 354.449219 L 303.40625 398.171875 C 303.40625 412.792969 293.492188 422.167969 277.949219 422.167969 C 269.253906 422.167969 261.425781 418.832031 256.375 412.890625 L 261.480469 407.789062 C 265.753906 412.449219 271.4375 415.050781 277.949219 415.050781 C 288.78125 415.050781 295.679688 408.917969 295.679688 399.300781 L 295.679688 393.804688 C 292.277344 398.761719 286.058594 402.539062 277.707031 402.539062 C 264.34375 402.539062 254.191406 392.039062 254.191406 377.855469 Z M 261.871094 377.855469 C 261.871094 387.621094 268.769531 395.472656 278.484375 395.472656 C 288.441406 395.472656 295.777344 387.621094 295.777344 377.855469 C 295.777344 368.140625 288.441406 360.535156 278.484375 360.535156 C 268.769531 360.53125 261.871094 368.136719 261.871094 377.855469 Z M 261.871094 377.855469 " fill-opacity="1" fill-rule="nonzero"/><path fill="#ffffff" d="M 316.453125 401.550781 L 316.453125 332.457031 L 324.226562 332.457031 L 324.226562 361.507812 C 326.847656 357.140625 332.386719 353.460938 339.820312 353.460938 C 352.011719 353.460938 359.398438 360.769531 359.398438 372.890625 L 359.398438 401.550781 L 351.71875 401.550781 L 351.71875 374.808594 C 351.71875 365.632812 346.960938 360.820312 338.601562 360.820312 C 330.632812 360.820312 324.171875 366.367188 324.171875 374.957031 L 324.171875 401.554688 L 316.453125 401.554688 Z M 316.453125 401.550781 " fill-opacity="1" fill-rule="nonzero"/><path fill="#ffffff" d="M 365.960938 361.175781 L 365.960938 354.457031 L 374.609375 354.457031 L 374.609375 339.339844 L 382.234375 339.339844 L 382.234375 354.453125 L 397.636719 354.453125 L 397.636719 361.175781 L 382.28125 361.175781 L 382.28125 386.644531 C 382.28125 392.828125 385.585938 395.53125 390.34375 395.53125 C 392.871094 395.53125 396.078125 394.84375 398.3125 393.714844 L 399.335938 400.4375 C 397.34375 401.566406 393.308594 402.550781 389.523438 402.550781 C 380.535156 402.550781 374.5625 397.546875 374.5625 387.925781 L 374.5625 361.175781 Z M 365.960938 361.175781 " fill-opacity="1" fill-rule="nonzero"/><path fill="#ffffff" d="M 409.957031 401.550781 L 409.957031 332.457031 L 417.730469 332.457031 L 417.730469 361.507812 C 420.355469 357.140625 425.894531 353.460938 433.324219 353.460938 C 445.515625 353.460938 452.902344 360.769531 452.902344 372.890625 L 452.902344 401.550781 L 445.226562 401.550781 L 445.226562 374.808594 C 445.226562 365.632812 440.46875 360.820312 432.109375 360.820312 C 424.140625 360.820312 417.679688 366.367188 417.679688 374.957031 L 417.679688 401.554688 L 409.957031 401.554688 Z M 409.957031 401.550781 " fill-opacity="1" fill-rule="nonzero"/><path fill="#ffffff" d="M 462.089844 378 C 462.089844 364.210938 472.675781 353.464844 486.863281 353.464844 C 501.050781 353.464844 511.644531 364.210938 511.644531 378 C 511.644531 391.789062 501.050781 402.539062 486.863281 402.539062 C 472.675781 402.539062 462.089844 391.792969 462.089844 378 Z M 486.859375 395.277344 C 496.671875 395.277344 503.910156 387.71875 503.910156 378.003906 C 503.910156 368.289062 496.675781 360.730469 486.859375 360.730469 C 477.046875 360.730469 469.808594 368.289062 469.808594 378.003906 C 469.808594 387.71875 477.046875 395.277344 486.859375 395.277344 Z M 486.859375 395.277344 " fill-opacity="1" fill-rule="nonzero"/><path fill="#ffffff" d="M 519.292969 383.15625 L 519.292969 354.453125 L 526.972656 354.453125 L 526.972656 381.246094 C 526.972656 390.425781 531.683594 395.183594 539.988281 395.183594 C 548.050781 395.183594 554.417969 389.691406 554.417969 381.097656 L 554.417969 354.453125 L 562.144531 354.453125 L 562.144531 401.5625 L 554.417969 401.5625 L 554.417969 394.5 C 551.796875 398.914062 546.308594 402.546875 538.777344 402.546875 C 526.628906 402.542969 519.292969 395.226562 519.292969 383.15625 Z M 519.292969 383.15625 " fill-opacity="1" fill-rule="nonzero"/><path fill="#ffffff" d="M 576.214844 387.570312 C 578.789062 392.277344 583.402344 395.515625 590.160156 395.515625 C 596.226562 395.515625 600.554688 392.914062 600.554688 388.894531 C 600.554688 384.527344 597.347656 383.152344 589.480469 381.386719 C 579.519531 379.132812 572.425781 376.039062 572.425781 367.007812 C 572.425781 358.761719 580.152344 353.464844 589.765625 353.464844 C 598.175781 353.464844 604.390625 357.585938 607.160156 362.199219 L 601.871094 366.613281 C 599.636719 363.328125 595.796875 360.480469 589.773438 360.480469 C 583.847656 360.480469 580.058594 362.980469 580.058594 366.859375 C 580.058594 371.375 583.796875 372.601562 591.714844 374.515625 C 601.777344 376.96875 608.332031 380.207031 608.332031 388.894531 C 608.332031 397.234375 599.972656 402.539062 590.164062 402.539062 C 580.496094 402.539062 573.648438 398.414062 570.292969 391.9375 Z M 576.214844 387.570312 " fill-opacity="1" fill-rule="nonzero"/><path fill="#ffffff" d="M 637.585938 353.464844 C 649.246094 353.464844 660.082031 361.757812 660.082031 375.59375 C 660.082031 377.019531 660.03125 378.589844 659.835938 379.914062 L 621.40625 379.914062 C 621.894531 388.5 628.257812 395.421875 637.976562 395.421875 C 644.53125 395.421875 649.347656 392.328125 652.695312 387.519531 L 658.574219 391.839844 C 654.296875 398.515625 646.71875 402.539062 637.976562 402.539062 C 623.9375 402.539062 613.585938 391.839844 613.585938 378 C 613.585938 364.164062 624.324219 353.464844 637.585938 353.464844 Z M 621.703125 373.488281 L 652.359375 373.488281 C 651.824219 365.730469 645.554688 360.582031 637.636719 360.582031 C 629.570312 360.582031 622.867188 365.730469 621.703125 373.488281 Z M 621.703125 373.488281 " fill-opacity="1" fill-rule="nonzero"/><path fill="#ffffff" d="M 193.851562 377.546875 L 162.527344 377.546875 L 155.351562 386.628906 L 193.851562 386.628906 C 196.210938 386.628906 198.125 384.59375 198.125 382.085938 C 198.125 379.578125 196.210938 377.546875 193.851562 377.546875 Z M 193.851562 377.546875 " fill-opacity="1" fill-rule="nonzero"/><path fill="#ffffff" d="M 164.480469 342.089844 C 165.996094 340.167969 165.765625 337.308594 163.953125 335.695312 C 162.144531 334.078125 159.449219 334.332031 157.929688 336.253906 L 129.660156 372.03125 L 129.660156 386.160156 Z M 164.480469 342.089844 " fill-opacity="1" fill-rule="nonzero"/><path fill="#ffffff" d="M 176.71875 350.128906 L 187.441406 336.5625 C 188.960938 334.640625 188.722656 331.78125 186.910156 330.164062 C 185.101562 328.550781 182.40625 328.804688 180.886719 330.726562 L 131.941406 392.667969 L 129.660156 395.558594 L 129.660156 401.753906 L 193.828125 401.753906 C 196.191406 401.753906 198.105469 399.722656 198.105469 397.214844 C 198.105469 394.707031 196.191406 392.671875 193.828125 392.671875 L 143.105469 392.671875 Z M 176.71875 350.128906 " fill-opacity="1" fill-rule="nonzero"/><path fill="#ffffff" d="M 318.105469 433.023438 L 318.105469 418.078125 L 328.652344 418.078125 L 328.652344 420.652344 L 321.050781 420.652344 L 321.050781 424.164062 L 327.015625 424.164062 L 327.015625 426.738281 L 321.050781 426.738281 L 321.050781 433.023438 Z M 341.847656 433.242188 C 337.363281 433.242188 334.09375 430.09375 334.09375 425.582031 C 334.09375 421.058594 337.363281 417.855469 341.847656 417.855469 C 346.351562 417.855469 349.613281 421.070312 349.613281 425.582031 C 349.613281 430.09375 346.351562 433.242188 341.847656 433.242188 Z M 337.125 425.570312 C 337.125 428.5 339.121094 430.480469 341.859375 430.480469 C 344.628906 430.480469 346.59375 428.5 346.59375 425.570312 C 346.59375 422.664062 344.628906 420.628906 341.859375 420.628906 C 339.109375 420.628906 337.125 422.664062 337.125 425.570312 Z M 359.777344 433.011719 L 356.820312 433.011719 L 356.820312 418.078125 L 363.355469 418.078125 C 366.574219 418.078125 368.65625 420.011719 368.65625 422.875 C 368.65625 424.78125 367.621094 426.34375 365.898438 427.089844 L 369.246094 433.023438 L 366.019531 433.023438 L 362.996094 427.585938 L 359.777344 427.585938 Z M 359.777344 420.652344 L 359.777344 425.011719 L 363.171875 425.011719 C 364.796875 425.011719 365.636719 424.007812 365.636719 422.875 C 365.636719 421.632812 364.796875 420.652344 363.171875 420.652344 Z M 376.125 433.023438 L 376.125 418.078125 L 379.246094 418.078125 L 384.023438 428.027344 L 388.789062 418.078125 L 391.910156 418.078125 L 391.910156 433.023438 L 388.964844 433.023438 L 388.964844 423.855469 L 384.972656 432.023438 L 383.0625 432.023438 L 379.070312 423.855469 L 379.070312 433.023438 Z M 400.078125 433.023438 L 400.078125 418.078125 L 410.617188 418.078125 L 410.617188 420.652344 L 403.023438 420.652344 L 403.023438 424.097656 L 409.613281 424.097656 L 409.613281 426.671875 L 403.023438 426.671875 L 403.023438 430.457031 L 410.777344 430.457031 L 410.777344 433.023438 Z M 420.941406 433.011719 L 417.988281 433.011719 L 417.988281 418.078125 L 424.519531 418.078125 C 427.738281 418.078125 429.820312 420.011719 429.820312 422.875 C 429.820312 424.78125 428.785156 426.34375 427.058594 427.089844 L 430.410156 433.023438 L 427.179688 433.023438 L 424.160156 427.585938 L 420.941406 427.585938 Z M 420.941406 420.652344 L 420.941406 425.011719 L 424.332031 425.011719 C 425.960938 425.011719 426.800781 424.007812 426.800781 422.875 C 426.800781 421.632812 425.960938 420.652344 424.332031 420.652344 Z M 448.207031 430.457031 L 448.207031 433.023438 L 437.289062 433.023438 L 437.289062 418.078125 L 440.234375 418.078125 L 440.234375 430.457031 Z M 450.558594 418.078125 L 454.074219 418.078125 L 457.796875 424.359375 L 461.554688 418.078125 L 464.957031 418.078125 L 459.246094 427.375 L 459.246094 433.023438 L 456.308594 433.023438 L 456.308594 427.375 Z M 487.359375 433.242188 C 482.875 433.242188 479.601562 430.09375 479.601562 425.582031 C 479.601562 421.058594 482.875 417.855469 487.359375 417.855469 C 491.863281 417.855469 495.125 421.070312 495.125 425.582031 C 495.125 430.09375 491.863281 433.242188 487.359375 433.242188 Z M 482.636719 425.570312 C 482.636719 428.5 484.632812 430.480469 487.371094 430.480469 C 490.136719 430.480469 492.101562 428.5 492.101562 425.570312 C 492.101562 422.664062 490.136719 420.628906 487.371094 420.628906 C 484.621094 420.628906 482.636719 422.664062 482.636719 425.570312 Z M 499.976562 420.71875 L 499.976562 418.078125 L 512.167969 418.078125 L 512.167969 420.71875 L 507.546875 420.71875 L 507.546875 433.023438 L 504.613281 433.023438 L 504.613281 420.71875 Z M 518.191406 433.023438 L 515.046875 433.023438 L 521.023438 418.078125 L 524.40625 418.078125 L 530.394531 433.023438 L 527.253906 433.023438 L 526.164062 430.09375 L 519.289062 430.09375 Z M 520.121094 427.730469 L 525.3125 427.730469 L 522.726562 421.179688 Z M 548.988281 418.078125 L 548.988281 433.023438 L 546.039062 433.023438 L 546.039062 418.078125 Z M 560.105469 433.023438 L 557.164062 433.023438 L 557.164062 418.078125 L 559.835938 418.078125 L 568.027344 428.335938 L 568.027344 418.078125 L 570.972656 418.078125 L 570.972656 433.023438 L 568.257812 433.023438 L 560.105469 422.875 Z M 578.234375 429.710938 L 580.402344 428.125 C 581.101562 429.566406 582.433594 430.558594 584.210938 430.558594 C 585.632812 430.558594 586.753906 429.863281 586.753906 428.894531 C 586.753906 427.90625 585.652344 427.375 583.886719 426.816406 C 581.039062 425.914062 578.714844 425.03125 578.714844 422.148438 C 578.714844 419.332031 581.449219 417.855469 583.960938 417.855469 C 586.644531 417.855469 588.5 419.441406 589.4375 421.101562 L 587.167969 422.730469 C 586.527344 421.640625 585.457031 420.542969 583.886719 420.542969 C 582.738281 420.542969 581.726562 421.15625 581.726562 422.136719 C 581.726562 423.335938 582.804688 423.511719 584.660156 424.175781 C 587.441406 425.164062 589.757812 425.925781 589.757812 428.875 C 589.757812 431.800781 586.820312 433.242188 584.179688 433.242188 C 581.320312 433.242188 579.117188 431.734375 578.234375 429.710938 Z M 599.914062 418.078125 L 599.914062 433.023438 L 596.972656 433.023438 L 596.972656 418.078125 Z M 614.800781 433.242188 C 610.484375 433.242188 607.121094 429.917969 607.121094 425.550781 C 607.121094 421.179688 610.394531 417.855469 614.726562 417.855469 C 617.289062 417.855469 619.65625 419.089844 621.214844 421.367188 L 618.894531 423.039062 C 617.738281 421.277344 616.234375 420.609375 614.726562 420.609375 C 612.03125 420.609375 610.144531 422.65625 610.144531 425.550781 C 610.144531 428.457031 612.109375 430.492188 614.800781 430.492188 C 617.269531 430.492188 618.652344 429.027344 618.992188 427.441406 L 614.507812 427.441406 L 614.507812 424.878906 L 621.96875 424.878906 C 622.015625 425.265625 622.023438 425.703125 622.023438 426.078125 C 622.023438 429.917969 619.339844 433.242188 614.800781 433.242188 Z M 629.125 418.078125 L 632.066406 418.078125 L 632.066406 424.117188 L 639.289062 424.117188 L 639.289062 418.078125 L 642.226562 418.078125 L 642.226562 433.023438 L 639.289062 433.023438 L 639.289062 426.683594 L 632.066406 426.683594 L 632.066406 433.023438 L 629.125 433.023438 Z M 648.773438 420.71875 L 648.773438 418.078125 L 660.96875 418.078125 L 660.96875 420.71875 L 656.34375 420.71875 L 656.34375 433.023438 L 653.410156 433.023438 L 653.410156 420.71875 Z M 648.773438 420.71875 " fill-opacity="1" fill-rule="nonzero"/></svg>