<svg xmlns="http://www.w3.org/2000/svg" xmlns:xlink="http://www.w3.org/1999/xlink" width="1024" zoomAndPan="magnify" viewBox="0 0 768 767.999994" height="1024" preserveAspectRatio="xMidYMid meet" version="1.0"><defs><clipPath id="53db7b985f"><path d="M 28.625 28.625 L 739.375 28.625 L 739.375 739.375 L 28.625 739.375 Z M 28.625 28.625 " clip-rule="nonzero"/></clipPath><clipPath id="6c8f98df41"><path d="M 384 28.625 C 187.730469 28.625 28.625 187.730469 28.625 384 C 28.625 580.269531 187.730469 739.375 384 739.375 C 580.269531 739.375 739.375 580.269531 739.375 384 C 739.375 187.730469 580.269531 28.625 384 28.625 Z M 384 28.625 " clip-rule="nonzero"/></clipPath></defs><rect x="-76.8" width="921.6" fill="#ffffff" y="-76.799999" height="921.599993" fill-opacity="1"/><rect x="-76.8" width="921.6" fill="#ffffff" y="-76.799999" height="921.599993" fill-opacity="1"/><g clip-path="url(#53db7b985f)"><g clip-path="url(#6c8f98df41)"><path fill="#000000" d="M 28.625 28.625 L 739.375 28.625 L 739.375 739.375 L 28.625 739.375 Z M 28.625 28.625 " fill-opacity="1" fill-rule="nonzero"/></g></g><path fill="#ffffff" d="M 440.71875 437.132812 L 487.425781 331.410156 C 488.136719 329.78125 487.277344 328.421875 485.46875 328.421875 L 452.769531 328.421875 C 450.980469 328.421875 448.945312 329.78125 448.21875 331.433594 L 402.113281 437.125 C 401.421875 438.753906 402.292969 440.109375 404.070312 440.109375 L 436.160156 440.109375 C 437.945312 440.109375 440.015625 438.761719 440.71875 437.132812 M 608.183594 408.664062 L 680.640625 328.464844 L 595.894531 328.464844 L 576.714844 359.367188 L 609.960938 359.367188 L 536.300781 440.132812 L 626.003906 440.132812 L 659.417969 408.664062 Z M 297.957031 328.46875 L 241.859375 328.46875 C 238.757812 328.46875 235.160156 330.808594 233.902344 333.683594 L 189.753906 434.917969 C 188.484375 437.78125 190.023438 440.132812 193.160156 440.132812 L 220.972656 440.132812 C 224.128906 440.132812 227.691406 437.777344 228.949219 434.929688 L 241.53125 406.246094 L 254.597656 406.246094 C 258.660156 405.988281 260.414062 407.46875 258.164062 412.207031 L 248.464844 434.894531 C 247.242188 437.78125 248.792969 440.132812 251.917969 440.132812 L 279.75 440.132812 C 282.863281 440.132812 286.4375 437.777344 287.695312 434.894531 L 300.332031 405.679688 C 304.304688 396.199219 298.554688 388.855469 290.226562 388.449219 C 297.628906 385.8125 304.40625 378.445312 307.460938 371.816406 L 313.988281 356.394531 C 321.886719 338.503906 316.273438 328.230469 297.957031 328.46875 M 281.582031 360.386719 L 274.671875 375.628906 C 273.074219 379.304688 270.746094 379.566406 268.457031 379.476562 L 252.820312 379.476562 L 263.277344 355.769531 L 278.269531 355.769531 C 281.910156 355.964844 282.863281 357.296875 281.582031 360.386719 M 407.191406 328.429688 L 347.722656 328.429688 C 345.492188 328.429688 342.925781 330.117188 342.042969 332.152344 L 296.582031 436.371094 C 295.699219 438.429688 296.785156 440.082031 299.023438 440.082031 L 362.667969 440.082031 C 382.855469 439.792969 394.417969 435.308594 403.652344 413.945312 L 410.179688 399.722656 C 415.339844 387.515625 410.28125 382.253906 400.664062 380.691406 C 408.6875 378.226562 414.695312 370.6875 417.296875 364.058594 L 422.625 352.777344 C 429.167969 337.671875 423.703125 328.214844 407.191406 328.429688 M 378.058594 398.355469 L 374.007812 406.457031 C 371.96875 412.101562 368.453125 413.628906 363.496094 413.707031 L 344.882812 413.707031 L 353.789062 392.695312 L 372.402344 392.695312 C 377.660156 393.082031 379.722656 394.371094 378.058594 398.355469 M 388.738281 360.9375 L 385.921875 367.351562 L 385.515625 368.1875 C 384.203125 371.378906 381.734375 372.578125 378.984375 372.488281 L 362.828125 372.488281 L 370.226562 355.503906 L 386.65625 355.503906 C 389.632812 355.695312 390.109375 357.621094 388.738281 360.9375 M 497.71875 328.46875 L 483.882812 359.367188 L 503.605469 359.367188 C 504.960938 359.367188 505.585938 360.339844 505.042969 361.574219 L 470.589844 437.914062 C 470.011719 439.136719 470.679688 440.132812 472.003906 440.132812 L 507.144531 440.132812 C 508.492188 440.132812 510.007812 439.136719 510.574219 437.890625 L 543.679688 361.59375 C 544.222656 360.371094 545.730469 359.367188 547.074219 359.367188 L 567.316406 359.367188 L 586.347656 328.464844 Z M 206.332031 366.476562 L 210.6875 356.960938 C 219.480469 336.878906 213.664062 328.246094 196.421875 328.472656 L 154.871094 328.472656 C 137.820312 328.246094 123.53125 337.886719 115.65625 355.785156 L 102.78125 392.015625 L 90.707031 392.015625 L 113.890625 423.324219 L 152.214844 392.015625 L 142.472656 392.015625 L 153.730469 365.890625 C 155.539062 361.601562 158.695312 359.53125 162.058594 359.359375 L 168.597656 359.359375 C 170.148438 359.425781 171.210938 359.925781 171.8125 360.59375 L 192.15625 343.511719 Z M 206.332031 366.476562 " fill-opacity="1" fill-rule="nonzero"/><path fill="#ffffff" d="M 113.007812 432.515625 L 95.957031 410.925781 L 95.0625 412.816406 C 87.132812 430.863281 88.457031 439.847656 105.5625 440.128906 L 146.535156 440.128906 C 163.496094 439.839844 178.351562 430.863281 186.339844 412.816406 L 198.46875 384.890625 L 209.410156 384.890625 L 190.785156 353.574219 L 152.777344 384.890625 L 163.222656 384.890625 L 155.519531 402.710938 C 153.660156 406.492188 150.84375 408.550781 147.8125 408.664062 L 142.382812 408.664062 Z M 113.007812 432.515625 " fill-opacity="1" fill-rule="nonzero"/><path fill="#ffffff" d="M 694.164062 327.824219 C 695.667969 327.824219 696.949219 328.355469 698.011719 329.417969 C 699.074219 330.480469 699.605469 331.75 699.605469 333.242188 C 699.605469 334.746094 699.074219 336.035156 698.011719 337.101562 C 696.949219 338.164062 695.667969 338.707031 694.164062 338.707031 C 692.660156 338.707031 691.382812 338.164062 690.316406 337.101562 C 689.253906 336.035156 688.722656 334.746094 688.722656 333.242188 C 688.722656 331.738281 689.253906 330.457031 690.316406 329.40625 C 691.371094 328.355469 692.660156 327.820312 694.164062 327.820312 M 694.164062 337.699219 C 695.398438 337.699219 696.449219 337.257812 697.332031 336.386719 C 698.203125 335.515625 698.644531 334.460938 698.644531 333.242188 C 698.644531 332.007812 698.203125 330.96875 697.332031 330.09375 C 696.449219 329.210938 695.398438 328.78125 694.164062 328.78125 C 692.941406 328.78125 691.890625 329.210938 691.019531 330.09375 C 690.148438 330.96875 689.707031 332.007812 689.707031 333.242188 C 689.707031 334.476562 690.148438 335.527344 691.007812 336.398438 C 691.878906 337.269531 692.929688 337.699219 694.164062 337.699219 M 696.9375 336.148438 L 695.636719 336.148438 L 694.109375 333.832031 L 693.40625 333.832031 L 693.40625 336.148438 L 692.261719 336.148438 L 692.261719 330.277344 L 694.109375 330.277344 C 694.730469 330.277344 695.238281 330.4375 695.636719 330.742188 C 696.03125 331.0625 696.234375 331.476562 696.234375 332.007812 C 696.234375 332.734375 695.851562 333.253906 695.105469 333.558594 Z M 693.40625 332.890625 L 694.015625 332.890625 C 694.753906 332.890625 695.125 332.601562 695.125 332.042969 C 695.125 331.503906 694.773438 331.230469 694.074219 331.230469 L 693.40625 331.230469 Z M 693.40625 332.890625 " fill-opacity="1" fill-rule="nonzero"/></svg>