<svg xmlns="http://www.w3.org/2000/svg" xmlns:xlink="http://www.w3.org/1999/xlink" width="1024" zoomAndPan="magnify" viewBox="0 0 768 767.999994" height="1024" preserveAspectRatio="xMidYMid meet" version="1.0"><defs><clipPath id="d8b4588aaf"><path d="M 76 76.800781 L 717 76.800781 L 717 691 L 76 691 Z M 76 76.800781 " clip-rule="nonzero"/></clipPath><clipPath id="1b2502f7f3"><path d="M 242.921875 76.800781 L 242.921875 690.414062 C 244.722656 690.542969 246.519531 690.542969 248.320312 690.542969 L 543.949219 690.542969 L 543.949219 76.800781 Z M 590.203125 76.800781 L 543.949219 76.800781 L 543.949219 690.414062 L 544.976562 690.414062 C 619.75 690.414062 685.40625 629.386719 690.800781 554.871094 L 716.109375 212.214844 C 721.636719 137.828125 664.976562 76.800781 590.203125 76.800781 Z M 203.09375 76.800781 C 128.320312 76.800781 71.660156 137.828125 77.183594 212.34375 L 102.496094 555 C 107.890625 627.71875 170.589844 687.589844 243.050781 690.414062 L 243.050781 76.800781 Z M 203.09375 76.800781 " clip-rule="nonzero"/></clipPath></defs><rect x="-76.8" width="921.6" fill="#ffffff" y="-76.799999" height="921.599993" fill-opacity="1"/><rect x="-76.8" width="921.6" fill="#ffffff" y="-76.799999" height="921.599993" fill-opacity="1"/><g clip-path="url(#d8b4588aaf)"><g clip-path="url(#1b2502f7f3)"><path fill="#000000" d="M 76.800781 76.800781 L 716.089844 76.800781 L 716.089844 690.414062 L 76.800781 690.414062 Z M 76.800781 76.800781 " fill-opacity="1" fill-rule="nonzero"/></g></g><path fill="#ffffff" d="M 455.492188 430.246094 L 496.488281 337.449219 C 497.113281 336.019531 496.359375 334.828125 494.773438 334.828125 L 466.070312 334.828125 C 464.5 334.828125 462.714844 336.019531 462.078125 337.46875 L 421.609375 430.234375 C 421.003906 431.664062 421.765625 432.855469 423.328125 432.855469 L 451.492188 432.855469 C 453.058594 432.855469 454.878906 431.671875 455.492188 430.242188 M 602.480469 405.257812 L 666.078125 334.863281 L 591.695312 334.863281 L 574.863281 361.988281 L 604.039062 361.988281 L 539.386719 432.875 L 618.121094 432.875 L 647.449219 405.257812 Z M 330.1875 334.867188 L 280.949219 334.867188 C 278.226562 334.867188 275.070312 336.921875 273.96875 339.445312 L 235.214844 428.296875 C 234.105469 430.8125 235.453125 432.875 238.207031 432.875 L 262.617188 432.875 C 265.386719 432.875 268.515625 430.808594 269.617188 428.308594 L 280.660156 403.132812 L 292.132812 403.132812 C 295.695312 402.90625 297.234375 404.207031 295.261719 408.367188 L 286.75 428.277344 C 285.675781 430.8125 287.035156 432.875 289.777344 432.875 L 314.207031 432.875 C 316.941406 432.875 320.078125 430.808594 321.179688 428.277344 L 332.273438 402.636719 C 335.757812 394.3125 330.714844 387.867188 323.40625 387.511719 C 329.898438 385.195312 335.847656 378.730469 338.53125 372.914062 L 344.261719 359.375 C 351.191406 343.675781 346.265625 334.65625 330.1875 334.867188 M 315.816406 362.882812 L 309.75 376.257812 C 308.347656 379.488281 306.304688 379.714844 304.296875 379.636719 L 290.574219 379.636719 L 299.75 358.828125 L 312.90625 358.828125 C 316.105469 359 316.941406 360.167969 315.816406 362.882812 M 426.066406 334.832031 L 373.871094 334.832031 C 371.914062 334.832031 369.660156 336.3125 368.882812 338.097656 L 328.980469 429.574219 C 328.207031 431.382812 329.160156 432.832031 331.125 432.832031 L 386.988281 432.832031 C 404.707031 432.578125 414.855469 428.640625 422.960938 409.890625 L 428.6875 397.40625 C 433.21875 386.691406 428.777344 382.074219 420.335938 380.703125 C 427.378906 378.539062 432.652344 371.925781 434.9375 366.105469 L 439.613281 356.203125 C 445.355469 342.945312 440.558594 334.640625 426.066406 334.832031 M 400.496094 396.207031 L 396.941406 403.316406 C 395.152344 408.273438 392.0625 409.613281 387.714844 409.683594 L 371.375 409.683594 L 379.191406 391.242188 L 395.53125 391.242188 C 400.148438 391.578125 401.953125 392.710938 400.496094 396.207031 M 409.871094 363.363281 L 407.398438 368.996094 L 407.039062 369.730469 C 405.886719 372.53125 403.722656 373.582031 401.308594 373.503906 L 387.128906 373.503906 L 393.621094 358.597656 L 408.042969 358.597656 C 410.652344 358.765625 411.070312 360.453125 409.871094 363.363281 M 505.527344 334.867188 L 493.378906 361.988281 L 510.691406 361.988281 C 511.882812 361.988281 512.425781 362.839844 511.949219 363.925781 L 481.710938 430.929688 C 481.203125 432.003906 481.789062 432.875 482.953125 432.875 L 513.796875 432.875 C 514.980469 432.875 516.3125 432.003906 516.808594 430.90625 L 545.867188 363.941406 C 546.34375 362.867188 547.664062 361.984375 548.84375 361.984375 L 566.613281 361.984375 L 583.316406 334.863281 Z M 249.765625 368.226562 L 253.589844 359.875 C 261.308594 342.246094 256.203125 334.671875 241.066406 334.867188 L 204.601562 334.867188 C 189.632812 334.671875 177.089844 343.132812 170.179688 358.84375 L 158.878906 390.640625 L 148.28125 390.640625 L 168.628906 418.121094 L 202.265625 390.640625 L 193.714844 390.640625 L 203.597656 367.710938 C 205.1875 363.949219 207.957031 362.128906 210.90625 361.980469 L 216.648438 361.980469 C 218.007812 362.039062 218.941406 362.476562 219.46875 363.066406 L 237.324219 348.070312 Z M 249.765625 368.226562 " fill-opacity="1" fill-rule="nonzero"/><path fill="#ffffff" d="M 167.855469 426.191406 L 152.890625 407.242188 L 152.105469 408.898438 C 145.140625 424.742188 146.304688 432.625 161.320312 432.875 L 197.28125 432.875 C 212.167969 432.621094 225.207031 424.742188 232.21875 408.898438 L 242.867188 384.390625 L 252.46875 384.390625 L 236.121094 356.902344 L 202.761719 384.390625 L 211.929688 384.390625 L 205.167969 400.03125 C 203.539062 403.347656 201.066406 405.15625 198.402344 405.253906 L 193.636719 405.253906 Z M 167.855469 426.191406 " fill-opacity="1" fill-rule="nonzero"/><path fill="#ffffff" d="M 677.949219 334.300781 C 679.269531 334.300781 680.390625 334.765625 681.324219 335.699219 C 682.257812 336.632812 682.726562 337.746094 682.726562 339.054688 C 682.726562 340.375 682.257812 341.507812 681.324219 342.441406 C 680.390625 343.375 679.269531 343.851562 677.949219 343.851562 C 676.628906 343.851562 675.503906 343.378906 674.570312 342.441406 C 673.636719 341.507812 673.171875 340.375 673.171875 339.054688 C 673.171875 337.734375 673.636719 336.613281 674.570312 335.6875 C 675.496094 334.765625 676.628906 334.296875 677.949219 334.296875 M 677.949219 342.96875 C 679.03125 342.96875 679.953125 342.582031 680.730469 341.816406 C 681.492188 341.050781 681.882812 340.128906 681.882812 339.054688 C 681.882812 337.972656 681.492188 337.058594 680.730469 336.292969 C 679.953125 335.519531 679.03125 335.140625 677.949219 335.140625 C 676.875 335.140625 675.953125 335.519531 675.1875 336.292969 C 674.421875 337.058594 674.035156 337.972656 674.035156 339.054688 C 674.035156 340.140625 674.421875 341.0625 675.179688 341.824219 C 675.941406 342.589844 676.867188 342.96875 677.949219 342.96875 M 680.382812 341.609375 L 679.238281 341.609375 L 677.898438 339.574219 L 677.28125 339.574219 L 677.28125 341.609375 L 676.28125 341.609375 L 676.28125 336.453125 L 677.898438 336.453125 C 678.445312 336.453125 678.890625 336.59375 679.238281 336.863281 C 679.585938 337.144531 679.765625 337.507812 679.765625 337.972656 C 679.765625 338.609375 679.429688 339.066406 678.773438 339.332031 Z M 677.28125 338.75 L 677.820312 338.75 C 678.464844 338.75 678.792969 338.496094 678.792969 338.003906 C 678.792969 337.527344 678.484375 337.289062 677.867188 337.289062 L 677.28125 337.289062 Z M 677.28125 338.75 " fill-opacity="1" fill-rule="nonzero"/></svg>