<svg xmlns="http://www.w3.org/2000/svg" xmlns:xlink="http://www.w3.org/1999/xlink" width="1024" zoomAndPan="magnify" viewBox="0 0 768 767.999994" height="1024" preserveAspectRatio="xMidYMid meet" version="1.0"><defs><clipPath id="baf6c03c3b"><path d="M 80 76.800781 L 720 76.800781 L 720 691 L 80 691 Z M 80 76.800781 " clip-rule="nonzero"/></clipPath><clipPath id="c0a96c57f4"><path d="M 246.816406 76.800781 L 246.816406 690.414062 C 248.617188 690.542969 250.414062 690.542969 252.214844 690.542969 L 547.84375 690.542969 L 547.84375 76.800781 Z M 594.097656 76.800781 L 547.84375 76.800781 L 547.84375 690.414062 L 548.871094 690.414062 C 623.648438 690.414062 689.300781 629.386719 694.695312 554.871094 L 720.007812 212.214844 C 725.53125 137.828125 668.871094 76.800781 594.097656 76.800781 Z M 206.988281 76.800781 C 132.214844 76.800781 75.554688 137.828125 81.082031 212.34375 L 106.390625 555 C 111.785156 627.71875 174.484375 687.589844 246.945312 690.414062 L 246.945312 76.800781 Z M 206.988281 76.800781 " clip-rule="nonzero"/></clipPath></defs><rect x="-76.8" width="921.6" fill="#ffffff" y="-76.799999" height="921.599993" fill-opacity="1"/><rect x="-76.8" width="921.6" fill="#ffffff" y="-76.799999" height="921.599993" fill-opacity="1"/><g clip-path="url(#baf6c03c3b)"><g clip-path="url(#c0a96c57f4)"><path fill="#000000" d="M 80.695312 76.800781 L 719.984375 76.800781 L 719.984375 690.414062 L 80.695312 690.414062 Z M 80.695312 76.800781 " fill-opacity="1" fill-rule="nonzero"/></g></g><path fill="#ffffff" d="M 267.199219 409.578125 C 266.128906 412.644531 265.617188 416.066406 265.617188 419.765625 C 265.617188 432.230469 274.976562 443.023438 290.570312 443.023438 C 304.875 443.023438 313.058594 437.03125 316.785156 433.050781 L 317.285156 433.050781 L 316.554688 440.652344 L 352.457031 440.652344 L 361.304688 399.347656 C 361.667969 397.5625 361.957031 395.855469 362.140625 394.226562 L 267.199219 409.578125 M 311.28125 385.476562 C 312.3125 380.550781 316.070312 376.648438 320.832031 376.648438 C 325.683594 376.648438 327.667969 380.773438 326.808594 384.957031 L 326.191406 387.972656 L 362.023438 384.222656 C 359.308594 365.921875 342.203125 357.972656 322.335938 357.972656 C 292.738281 357.972656 278.59375 372.6875 275.804688 385.707031 L 275.417969 387.546875 L 310.867188 387.546875 Z M 320.960938 412.683594 C 319.824219 418.699219 315.742188 423.441406 309.992188 423.441406 C 304.582031 423.441406 302.125 419.003906 303.15625 414.160156 C 304.027344 410.089844 308.273438 406.015625 316.148438 406.015625 L 322.378906 406.015625 Z M 416.726562 385.359375 C 414.238281 388.699219 412.226562 393.511719 410.636719 400.777344 C 407.234375 416.476562 410.9375 420.582031 415.578125 420.582031 C 421.769531 420.582031 427.011719 414.695312 429.585938 401.007812 C 431.234375 392.285156 430.984375 386.011719 428.621094 383.4375 L 466.953125 377.230469 C 468.832031 383.3125 469.140625 391.121094 467.34375 400.035156 C 461.726562 428.234375 444.472656 443.023438 425.207031 443.023438 C 416.484375 443.023438 406.960938 440.753906 403 431.464844 L 402.183594 431.464844 L 399.078125 440.648438 L 364.390625 440.648438 L 374.6875 392.164062 L 416.726562 385.359375 M 418.800781 367.09375 C 421.816406 364.644531 429.253906 358.949219 440.628906 358.949219 C 452.183594 358.949219 461.0625 363.972656 465.492188 373.453125 L 376.699219 382.695312 L 388.632812 326.539062 L 426.875 326.539062 L 418.261719 367.09375 Z M 193.519531 421.523438 L 196.878906 405.398438 L 153.472656 405.398438 C 150.464844 432.703125 171.902344 443.648438 199.40625 443.648438 C 225.796875 443.648438 253.707031 434.839844 259.921875 410.757812 L 193.519531 421.523438 M 192.082031 394.257812 C 176.691406 389.390625 165.078125 380.328125 165.078125 363.15625 C 165.078125 338.03125 190.15625 323.648438 223.714844 323.570312 C 252.144531 323.464844 270.960938 335.3125 267.644531 358.945312 L 227.191406 358.945312 C 228.617188 352.488281 224.902344 348.824219 217.980469 348.824219 C 212.601562 348.824219 208.4375 351.609375 207.773438 354.875 C 206.835938 359.550781 209.828125 362.5 217.082031 364.464844 C 223.195312 366.132812 227.375 367.242188 233.382812 368.957031 C 250.496094 373.855469 258.679688 384.070312 260.792969 394.765625 L 209.953125 400.003906 Z M 539.992188 360.347656 C 531.546875 360.347656 524.78125 365.214844 520.214844 371.480469 L 519.519531 371.480469 L 520.699219 361.308594 L 485.238281 361.308594 L 483.078125 371.632812 L 502.652344 369.589844 L 502.21875 371.542969 L 482.355469 374.765625 L 468.371094 440.648438 L 506.613281 440.648438 C 506.613281 440.648438 510.558594 421.71875 512.964844 410.628906 C 516.820312 392.941406 526.519531 388.941406 532.984375 388.941406 C 538.441406 388.941406 541.851562 391.402344 542.699219 392.09375 L 548.957031 362.601562 C 548.355469 362.261719 545.089844 360.347656 539.992188 360.347656 M 603.941406 391.183594 L 604.335938 389.335938 C 605.496094 383.203125 602.554688 378.558594 596.125 378.558594 C 590.199219 378.558594 585.148438 382.808594 583.371094 391.183594 L 603.941406 391.183594 M 632.351562 415.191406 C 626.433594 431.992188 610.15625 443.023438 583.453125 443.023438 C 561.226562 443.023438 539.800781 430.09375 545.089844 400.484375 C 549.515625 375.558594 572.414062 358.953125 598.601562 358.953125 C 627.929688 358.953125 640.738281 379.089844 635.980469 402.566406 L 634.839844 407.945312 L 579.75 407.945312 C 579.574219 408.5625 578.875 411.125 578.875 413.9375 C 578.875 420.976562 582.613281 423.441406 587.371094 423.441406 C 592.28125 423.441406 596.507812 420.695312 598.832031 415.191406 Z M 638.59375 433.828125 L 639.609375 433.828125 C 640.777344 433.828125 641.769531 433.402344 641.769531 432.3125 C 641.769531 431.535156 641.191406 430.753906 639.609375 430.753906 C 639.148438 430.753906 638.835938 430.792969 638.589844 430.832031 Z M 638.59375 438.730469 L 637.179688 438.730469 L 637.179688 429.882812 C 637.921875 429.769531 638.617188 429.671875 639.683594 429.671875 C 641.023438 429.671875 641.902344 429.949219 642.441406 430.339844 C 642.960938 430.722656 643.242188 431.328125 643.242188 432.167969 C 643.242188 433.328125 642.46875 434.039062 641.515625 434.320312 L 641.515625 434.394531 C 642.289062 434.53125 642.820312 435.234375 643 436.542969 C 643.210938 437.921875 643.425781 438.445312 643.5625 438.730469 L 642.078125 438.730469 C 641.863281 438.449219 641.652344 437.632812 641.480469 436.46875 C 641.273438 435.339844 640.699219 434.917969 639.578125 434.917969 L 638.59375 434.917969 Z M 640.070312 427.410156 C 636.574219 427.410156 633.722656 430.40625 633.722656 434.105469 C 633.722656 437.882812 636.574219 440.851562 640.101562 440.851562 C 643.628906 440.882812 646.449219 437.882812 646.449219 434.144531 C 646.449219 430.40625 643.628906 427.410156 640.101562 427.410156 Z M 640.101562 426.175781 C 644.441406 426.175781 647.898438 429.703125 647.898438 434.105469 C 647.898438 438.585938 644.441406 442.085938 640.066406 442.085938 C 635.734375 442.085938 632.207031 438.585938 632.207031 434.105469 C 632.207031 429.703125 635.734375 426.175781 640.070312 426.175781 Z M 640.101562 426.175781 " fill-opacity="1" fill-rule="nonzero"/></svg>