<svg xmlns="http://www.w3.org/2000/svg" xmlns:xlink="http://www.w3.org/1999/xlink" width="1024" zoomAndPan="magnify" viewBox="0 0 768 767.999994" height="1024" preserveAspectRatio="xMidYMid meet" version="1.0"><defs><clipPath id="073b1bfe30"><path d="M 28.625 28.625 L 739.375 28.625 L 739.375 739.375 L 28.625 739.375 Z M 28.625 28.625 " clip-rule="nonzero"/></clipPath><clipPath id="e3c4b9c3a5"><path d="M 384 28.625 C 187.730469 28.625 28.625 187.730469 28.625 384 C 28.625 580.269531 187.730469 739.375 384 739.375 C 580.269531 739.375 739.375 580.269531 739.375 384 C 739.375 187.730469 580.269531 28.625 384 28.625 Z M 384 28.625 " clip-rule="nonzero"/></clipPath></defs><rect x="-76.8" width="921.6" fill="#ffffff" y="-76.799999" height="921.599993" fill-opacity="1"/><rect x="-76.8" width="921.6" fill="#ffffff" y="-76.799999" height="921.599993" fill-opacity="1"/><g clip-path="url(#073b1bfe30)"><g clip-path="url(#e3c4b9c3a5)"><path fill="#000000" d="M 28.625 28.625 L 739.375 28.625 L 739.375 739.375 L 28.625 739.375 Z M 28.625 28.625 " fill-opacity="1" fill-rule="nonzero"/></g></g><path fill="#ffffff" d="M 320.867188 354.453125 C 315.203125 359.582031 301.980469 369.019531 279.589844 369.019531 C 250.726562 369.019531 228.0625 353.375 228.0625 321.539062 C 228.0625 288.355469 251.265625 272.4375 279.863281 272.4375 C 312.769531 272.4375 319.246094 296.449219 320.328125 309.398438 C 303.867188 316.414062 283.90625 321.8125 265.023438 325.855469 C 266.910156 338.535156 273.117188 354.722656 297.664062 354.996094 C 309.265625 354.996094 316.007812 351.21875 319.246094 349.867188 Z M 263.402344 315.605469 C 273.382812 314.523438 280.667969 313.449219 290.382812 310.75 C 290.113281 305.082031 288.222656 281.34375 275.003906 281.34375 C 264.480469 281.34375 262.863281 295.101562 262.863281 304.8125 C 262.863281 308.589844 263.402344 311.828125 263.402344 315.605469 Z M 263.402344 315.605469 " fill-opacity="1" fill-rule="nonzero"/><path fill="#ffffff" d="M 400.183594 357.691406 C 398.027344 359.308594 383.726562 369.019531 364.570312 369.019531 C 311.425781 369.019531 311.425781 330.445312 311.425781 322.078125 C 311.425781 308.863281 323.296875 272.167969 367.269531 272.167969 C 394.25 272.167969 395.597656 279.992188 398.027344 280.265625 C 396.945312 288.355469 394.25 293.480469 387.230469 299.6875 L 384.269531 299.6875 C 381.566406 295.910156 372.398438 283.230469 362.144531 283.230469 C 351.625 283.5 346.230469 296.722656 346.230469 313.714844 C 346.230469 342.042969 362.6875 354.726562 381.566406 354.726562 C 389.394531 354.726562 393.976562 353.917969 398.027344 353.105469 Z M 400.183594 357.691406 " fill-opacity="1" fill-rule="nonzero"/><path fill="#ffffff" d="M 552.609375 354.453125 C 546.949219 359.582031 533.722656 369.019531 511.335938 369.019531 C 482.464844 369.019531 459.808594 353.375 459.808594 321.539062 C 459.808594 288.355469 483.007812 272.4375 511.605469 272.4375 C 544.519531 272.4375 550.988281 296.449219 552.070312 309.398438 C 535.613281 316.414062 515.652344 321.8125 496.765625 325.855469 C 498.652344 338.535156 504.59375 354.722656 529.40625 354.996094 C 541.007812 354.996094 547.753906 351.21875 550.988281 349.867188 Z M 495.421875 315.605469 C 505.398438 314.523438 512.683594 313.449219 522.398438 310.75 C 522.121094 305.082031 520.238281 281.34375 507.019531 281.34375 C 496.496094 281.34375 494.875 295.101562 494.875 304.8125 C 494.878906 308.589844 495.421875 311.828125 495.421875 315.605469 Z M 495.421875 315.605469 " fill-opacity="1" fill-rule="nonzero"/><path fill="#ffffff" d="M 215.921875 304.003906 C 215.382812 298.335938 209.714844 281.613281 196.496094 281.613281 C 195.6875 281.613281 186.246094 281.613281 186.246094 291.59375 C 186.246094 296.449219 186.246094 301.84375 213.761719 314.792969 C 226.171875 320.460938 231.296875 331.527344 231.296875 339.613281 C 231.296875 361.464844 211.871094 369.289062 189.480469 369.289062 C 177.613281 369.289062 168.710938 367.136719 158.726562 362.546875 C 157.378906 354.992188 155.488281 343.121094 155.488281 332.332031 L 166.820312 332.332031 C 168.976562 350.40625 180.308594 360.386719 189.75 360.386719 C 199.730469 360.386719 201.351562 354.722656 201.351562 349.328125 C 201.351562 345.011719 197.84375 338.804688 186.78125 332.871094 C 173.566406 326.128906 156.296875 319.921875 156.296875 300.496094 C 156.296875 283.5 169.246094 272.710938 196.226562 272.710938 C 209.714844 272.710938 218.078125 275.945312 223.203125 278.375 C 225.089844 286.734375 225.089844 295.910156 225.089844 304.273438 L 215.921875 304.273438 " fill-opacity="1" fill-rule="nonzero"/><path fill="#ffffff" d="M 550.453125 275.40625 L 550.453125 265.964844 C 550.453125 244.113281 582.824219 247.617188 582.824219 247.617188 L 582.824219 275.675781 C 591.734375 276.488281 596.851562 276.757812 605.21875 277.292969 L 605.21875 282.417969 C 598.742188 283.5 589.304688 284.308594 582.824219 284.578125 L 582.824219 317.222656 C 582.824219 338.265625 583.101562 355.53125 601.171875 355.53125 C 604.945312 355.53125 608.457031 354.449219 610.609375 353.644531 L 611.964844 358.769531 C 606.296875 362.277344 596.851562 369.019531 575 369.019531 C 572.035156 369.019531 550.453125 369.019531 550.453125 340.695312 Z M 550.453125 275.40625 " fill-opacity="1" fill-rule="nonzero"/><path fill="#ffffff" d="M 406.117188 369.019531 L 406.386719 309.128906 C 406.386719 295.636719 406.386719 288.355469 400.71875 288.355469 L 395.054688 288.355469 L 393.4375 282.417969 C 411.78125 277.027344 420.417969 275.136719 434.984375 272.4375 C 436.332031 277.835938 436.605469 279.722656 437.144531 286.46875 C 442.269531 281.339844 449.554688 272.4375 460.34375 272.4375 C 471.40625 272.4375 475.453125 280.53125 477.613281 284.851562 C 475.992188 292.132812 471.40625 298.066406 463.585938 302.652344 C 457.914062 302.652344 452.789062 296.988281 443.347656 294.558594 C 441.730469 294.292969 440.113281 293.753906 438.496094 293.480469 L 438.496094 342.042969 L 438.222656 350.40625 C 438.496094 372.527344 406.117188 369.019531 406.117188 369.019531 Z M 406.117188 369.019531 " fill-opacity="1" fill-rule="nonzero"/><path fill="#ffffff" d="M 354.324219 478.28125 C 350.003906 481.519531 341.101562 485.300781 327.613281 485.300781 C 308.457031 485.300781 288.496094 473.96875 288.496094 449.683594 C 288.496094 417.3125 311.425781 403.554688 331.660156 403.554688 C 339.75 403.554688 347.308594 405.441406 351.085938 408.40625 C 351.085938 411.644531 349.195312 416.773438 346.769531 420.816406 L 345.6875 420.816406 C 343.257812 417.3125 337.054688 411.644531 325.996094 411.644531 C 313.851562 411.644531 303.867188 421.359375 303.867188 440.242188 C 303.867188 466.953125 317.628906 479.363281 336.785156 479.363281 C 343.527344 479.363281 350.542969 475.585938 352.972656 474.238281 Z M 354.324219 478.28125 " fill-opacity="1" fill-rule="nonzero"/><path fill="#ffffff" d="M 422.84375 480.984375 C 420.6875 482.597656 417.175781 485.300781 410.167969 485.300781 C 401.53125 485.300781 398.566406 481.796875 396.945312 478.28125 C 391.546875 481.792969 385.34375 485.300781 372.128906 485.300781 C 359.722656 485.300781 351.351562 478.28125 351.351562 468.839844 C 351.351562 446.988281 380.492188 440.515625 395.332031 435.929688 L 395.332031 432.15625 C 395.332031 421.09375 392.363281 411.378906 379.683594 411.378906 C 366.191406 411.378906 361.875 421.898438 358.90625 428.375 L 357.558594 428.375 C 355.671875 426.488281 354.324219 424.597656 353.242188 421.632812 C 358.367188 414.886719 369.160156 403.554688 386.964844 403.554688 C 406.117188 403.554688 410.167969 413.539062 410.167969 430.804688 L 410.167969 454.816406 C 410.167969 466.683594 410.167969 479.367188 419.34375 479.367188 C 420.957031 479.367188 421.765625 479.09375 422.308594 478.828125 Z M 392.628906 444.019531 C 382.917969 444.019531 366.460938 448.335938 366.460938 463.988281 C 366.460938 473.695312 372.394531 479.367188 382.109375 479.367188 C 389.394531 479.367188 393.710938 474.238281 394.785156 472.34375 L 394.785156 443.757812 L 392.628906 443.757812 Z M 392.628906 444.019531 " fill-opacity="1" fill-rule="nonzero"/><path fill="#ffffff" d="M 560.976562 475.855469 C 558.273438 478.28125 546.671875 485.296875 531.570312 485.296875 C 510.253906 485.296875 492.992188 471.269531 492.992188 447.261719 C 492.992188 418.929688 512.683594 403.554688 532.105469 403.554688 C 554.769531 403.554688 559.625 420.011719 561.78125 428.914062 C 542.632812 438.355469 522.933594 443.476562 508.636719 446.988281 C 509.441406 457.507812 517.261719 477.199219 540.203125 477.199219 C 550.453125 477.199219 556.925781 472.886719 559.355469 471.808594 Z M 508.367188 439.703125 C 520.507812 437.542969 534.535156 434.039062 546.40625 429.988281 C 543.976562 419.46875 539.925781 409.492188 526.980469 409.492188 C 512.683594 409.492188 508.367188 427.296875 508.367188 439.703125 Z M 508.367188 439.703125 " fill-opacity="1" fill-rule="nonzero"/><path fill="#ffffff" d="M 600.902344 428.914062 C 600.902344 421.359375 595.503906 409.214844 584.445312 409.214844 C 577.964844 409.214844 573.648438 413.808594 573.648438 421.089844 C 573.648438 440.242188 611.152344 434.847656 611.152344 461.558594 C 611.152344 477.476562 597.933594 485.027344 582.015625 485.027344 C 570.953125 485.027344 565.292969 482.058594 560.695312 480.171875 C 558.269531 472.621094 557.464844 464.253906 557.464844 457.507812 L 562.050781 457.507812 C 565.554688 468.574219 571.21875 479.363281 584.707031 479.363281 C 592.269531 479.363281 596.585938 472.886719 596.585938 466.953125 C 596.585938 444.019531 559.082031 452.113281 559.082031 424.59375 C 559.082031 410.835938 571.492188 403.285156 586.058594 403.285156 C 594.964844 403.285156 600.089844 405.976562 603.863281 408.136719 C 605.480469 414.074219 606.023438 419.464844 606.023438 428.371094 L 600.898438 428.371094 L 600.898438 428.914062 Z M 600.902344 428.914062 " fill-opacity="1" fill-rule="nonzero"/><path fill="#ffffff" d="M 246.675781 475.585938 C 242.902344 479.089844 230.757812 492.578125 208.097656 492.851562 C 179.503906 493.117188 156.03125 473.695312 156.03125 441.324219 C 156.03125 402.746094 182.742188 382.511719 208.910156 382.511719 C 239.394531 382.511719 246.140625 404.632812 249.105469 416.773438 C 223.207031 429.449219 196.769531 436.464844 177.074219 441.046875 C 177.882812 455.078125 188.945312 482.054688 219.699219 482.054688 C 233.460938 482.054688 240.203125 472.886719 243.441406 471.265625 M 176.804688 431.34375 C 193.261719 428.371094 212.417969 423.519531 228.328125 418.386719 C 225.09375 404.363281 219.425781 390.601562 202.164062 390.601562 C 182.742188 390.601562 176.804688 414.613281 176.804688 431.34375 Z M 176.804688 431.34375 " fill-opacity="1" fill-rule="nonzero"/><path fill="#ffffff" d="M 280.128906 428.914062 C 280.128906 421.359375 274.734375 409.214844 263.671875 409.214844 C 257.199219 409.214844 252.882812 413.808594 252.882812 421.089844 C 252.882812 440.242188 290.382812 434.847656 290.382812 461.558594 C 290.382812 477.476562 277.164062 485.027344 261.242188 485.027344 C 250.183594 485.027344 244.519531 482.058594 239.929688 480.171875 C 237.5 472.621094 236.691406 464.253906 236.691406 457.507812 L 241.277344 457.507812 C 244.785156 468.574219 250.453125 479.363281 263.941406 479.363281 C 271.496094 479.363281 275.8125 472.886719 275.8125 466.953125 C 275.8125 444.019531 238.3125 452.113281 238.3125 424.59375 C 238.3125 410.835938 250.722656 403.285156 265.289062 403.285156 C 274.191406 403.285156 279.320312 405.976562 283.09375 408.136719 C 284.710938 414.074219 285.253906 419.464844 285.253906 428.371094 L 280.125 428.371094 L 280.125 428.914062 Z M 280.128906 428.914062 " fill-opacity="1" fill-rule="nonzero"/><path fill="#ffffff" d="M 457.914062 403.554688 C 446.585938 403.554688 439.03125 408.40625 435.253906 410.566406 C 435.253906 409.214844 434.445312 405.441406 433.09375 403.554688 C 427.160156 403.554688 413.941406 407.871094 409.085938 409.492188 L 409.628906 413.539062 L 413.402344 412.457031 C 413.671875 412.457031 415.019531 412.183594 415.832031 412.183594 C 420.421875 412.183594 420.421875 416.773438 420.421875 433.503906 L 420.421875 520.371094 C 420.421875 520.371094 435.253906 521.988281 435.253906 512.007812 L 435.253906 483.402344 C 437.953125 483.945312 442 485.296875 449.015625 485.296875 C 467.628906 485.296875 494.609375 474.234375 494.609375 440.242188 C 494.609375 416.773438 477.878906 403.554688 457.914062 403.554688 Z M 453.871094 479.363281 C 442.808594 479.363281 439.574219 476.125 435.253906 473.15625 L 435.253906 415.152344 C 437.949219 414.074219 442.269531 411.378906 449.285156 411.378906 C 464.390625 411.378906 478.960938 421.898438 478.960938 444.019531 C 478.960938 465.601562 470.867188 479.363281 453.871094 479.363281 Z M 453.871094 479.363281 " fill-opacity="1" fill-rule="nonzero"/></svg>