<svg xmlns="http://www.w3.org/2000/svg" xmlns:xlink="http://www.w3.org/1999/xlink" width="1024" zoomAndPan="magnify" viewBox="0 0 768 767.999994" height="1024" preserveAspectRatio="xMidYMid meet" version="1.0"><defs><clipPath id="b1676d707b"><path d="M 76 76.800781 L 717 76.800781 L 717 691 L 76 691 Z M 76 76.800781 " clip-rule="nonzero"/></clipPath><clipPath id="c1f83a3bff"><path d="M 242.921875 76.800781 L 242.921875 690.414062 C 244.722656 690.542969 246.519531 690.542969 248.320312 690.542969 L 543.949219 690.542969 L 543.949219 76.800781 Z M 590.203125 76.800781 L 543.949219 76.800781 L 543.949219 690.414062 L 544.976562 690.414062 C 619.75 690.414062 685.40625 629.386719 690.800781 554.871094 L 716.109375 212.214844 C 721.636719 137.828125 664.976562 76.800781 590.203125 76.800781 Z M 203.09375 76.800781 C 128.320312 76.800781 71.660156 137.828125 77.183594 212.34375 L 102.496094 555 C 107.890625 627.71875 170.589844 687.589844 243.050781 690.414062 L 243.050781 76.800781 Z M 203.09375 76.800781 " clip-rule="nonzero"/></clipPath></defs><rect x="-76.8" width="921.6" fill="#ffffff" y="-76.799999" height="921.599993" fill-opacity="1"/><rect x="-76.8" width="921.6" fill="#ffffff" y="-76.799999" height="921.599993" fill-opacity="1"/><g clip-path="url(#b1676d707b)"><g clip-path="url(#c1f83a3bff)"><path fill="#000000" d="M 76.800781 76.800781 L 716.089844 76.800781 L 716.089844 690.414062 L 76.800781 690.414062 Z M 76.800781 76.800781 " fill-opacity="1" fill-rule="nonzero"/></g></g><path fill="#ffffff" d="M 333.515625 354.453125 C 327.851562 359.582031 314.628906 369.019531 292.238281 369.019531 C 263.375 369.019531 240.710938 353.375 240.710938 321.539062 C 240.710938 288.355469 263.914062 272.4375 292.511719 272.4375 C 325.417969 272.4375 331.894531 296.449219 332.976562 309.398438 C 316.515625 316.414062 296.554688 321.8125 277.671875 325.855469 C 279.558594 338.535156 285.761719 354.722656 310.3125 354.996094 C 321.914062 354.996094 328.65625 351.21875 331.894531 349.867188 Z M 276.050781 315.605469 C 286.03125 314.523438 293.316406 313.449219 303.03125 310.75 C 302.761719 305.082031 300.871094 281.34375 287.652344 281.34375 C 277.128906 281.34375 275.511719 295.101562 275.511719 304.8125 C 275.511719 308.589844 276.050781 311.828125 276.050781 315.605469 Z M 276.050781 315.605469 " fill-opacity="1" fill-rule="nonzero"/><path fill="#ffffff" d="M 412.832031 357.691406 C 410.675781 359.308594 396.375 369.019531 377.21875 369.019531 C 324.074219 369.019531 324.074219 330.445312 324.074219 322.078125 C 324.074219 308.863281 335.945312 272.167969 379.917969 272.167969 C 406.898438 272.167969 408.246094 279.992188 410.675781 280.265625 C 409.59375 288.355469 406.898438 293.480469 399.878906 299.6875 L 396.917969 299.6875 C 394.214844 295.910156 385.046875 283.230469 374.792969 283.230469 C 364.273438 283.5 358.878906 296.722656 358.878906 313.714844 C 358.878906 342.042969 375.335938 354.726562 394.214844 354.726562 C 402.042969 354.726562 406.625 353.917969 410.675781 353.105469 Z M 412.832031 357.691406 " fill-opacity="1" fill-rule="nonzero"/><path fill="#ffffff" d="M 565.257812 354.453125 C 559.597656 359.582031 546.371094 369.019531 523.984375 369.019531 C 495.113281 369.019531 472.457031 353.375 472.457031 321.539062 C 472.457031 288.355469 495.652344 272.4375 524.25 272.4375 C 557.164062 272.4375 563.636719 296.449219 564.71875 309.398438 C 548.261719 316.414062 528.300781 321.8125 509.414062 325.855469 C 511.300781 338.535156 517.242188 354.722656 542.054688 354.996094 C 553.65625 354.996094 560.402344 351.21875 563.636719 349.867188 Z M 508.070312 315.605469 C 518.046875 314.523438 525.332031 313.449219 535.046875 310.75 C 534.769531 305.082031 532.882812 281.34375 519.667969 281.34375 C 509.144531 281.34375 507.523438 295.101562 507.523438 304.8125 C 507.527344 308.589844 508.070312 311.828125 508.070312 315.605469 Z M 508.070312 315.605469 " fill-opacity="1" fill-rule="nonzero"/><path fill="#ffffff" d="M 228.570312 304.003906 C 228.03125 298.335938 222.363281 281.613281 209.144531 281.613281 C 208.335938 281.613281 198.894531 281.613281 198.894531 291.59375 C 198.894531 296.449219 198.894531 301.84375 226.410156 314.792969 C 238.820312 320.460938 243.945312 331.527344 243.945312 339.613281 C 243.945312 361.464844 224.519531 369.289062 202.128906 369.289062 C 190.261719 369.289062 181.359375 367.136719 171.375 362.546875 C 170.027344 354.992188 168.136719 343.121094 168.136719 332.332031 L 179.46875 332.332031 C 181.625 350.40625 192.957031 360.386719 202.398438 360.386719 C 212.378906 360.386719 213.996094 354.722656 213.996094 349.328125 C 213.996094 345.011719 210.492188 338.804688 199.429688 332.871094 C 186.214844 326.128906 168.945312 319.921875 168.945312 300.496094 C 168.945312 283.5 181.894531 272.710938 208.875 272.710938 C 222.363281 272.710938 230.726562 275.945312 235.851562 278.375 C 237.738281 286.734375 237.738281 295.910156 237.738281 304.273438 L 228.566406 304.273438 " fill-opacity="1" fill-rule="nonzero"/><path fill="#ffffff" d="M 563.101562 275.40625 L 563.101562 265.964844 C 563.101562 244.113281 595.472656 247.621094 595.472656 247.621094 L 595.472656 275.675781 C 604.382812 276.488281 609.5 276.757812 617.867188 277.292969 L 617.867188 282.417969 C 611.390625 283.5 601.953125 284.308594 595.472656 284.578125 L 595.472656 317.222656 C 595.472656 338.265625 595.75 355.53125 613.820312 355.53125 C 617.59375 355.53125 621.105469 354.449219 623.257812 353.644531 L 624.613281 358.769531 C 618.945312 362.277344 609.5 369.019531 587.648438 369.019531 C 584.683594 369.019531 563.101562 369.019531 563.101562 340.695312 Z M 563.101562 275.40625 " fill-opacity="1" fill-rule="nonzero"/><path fill="#ffffff" d="M 418.765625 369.019531 L 419.035156 309.128906 C 419.035156 295.636719 419.035156 288.355469 413.367188 288.355469 L 407.703125 288.355469 L 406.085938 282.417969 C 424.429688 277.027344 433.066406 275.136719 447.632812 272.4375 C 448.980469 277.835938 449.253906 279.722656 449.792969 286.46875 C 454.917969 281.339844 462.203125 272.4375 472.992188 272.4375 C 484.054688 272.4375 488.101562 280.53125 490.261719 284.851562 C 488.640625 292.132812 484.054688 298.066406 476.234375 302.652344 C 470.5625 302.652344 465.4375 296.988281 455.996094 294.558594 C 454.378906 294.292969 452.761719 293.753906 451.144531 293.480469 L 451.144531 342.042969 L 450.871094 350.40625 C 451.144531 372.527344 418.765625 369.019531 418.765625 369.019531 Z M 418.765625 369.019531 " fill-opacity="1" fill-rule="nonzero"/><path fill="#ffffff" d="M 366.972656 478.28125 C 362.652344 481.519531 353.75 485.300781 340.261719 485.300781 C 321.105469 485.300781 301.144531 473.96875 301.144531 449.683594 C 301.144531 417.3125 324.074219 403.554688 344.308594 403.554688 C 352.398438 403.554688 359.957031 405.441406 363.730469 408.40625 C 363.730469 411.644531 361.84375 416.773438 359.414062 420.816406 L 358.335938 420.816406 C 355.90625 417.3125 349.703125 411.644531 338.644531 411.644531 C 326.5 411.644531 316.515625 421.359375 316.515625 440.242188 C 316.515625 466.953125 330.277344 479.363281 349.433594 479.363281 C 356.175781 479.363281 363.191406 475.585938 365.617188 474.238281 Z M 366.972656 478.28125 " fill-opacity="1" fill-rule="nonzero"/><path fill="#ffffff" d="M 435.492188 480.984375 C 433.335938 482.601562 429.824219 485.300781 422.816406 485.300781 C 414.179688 485.300781 411.214844 481.796875 409.59375 478.28125 C 404.195312 481.792969 397.992188 485.300781 384.777344 485.300781 C 372.367188 485.300781 364 478.28125 364 468.839844 C 364 446.992188 393.140625 440.515625 407.976562 435.929688 L 407.976562 432.15625 C 407.976562 421.09375 405.011719 411.378906 392.328125 411.378906 C 378.839844 411.378906 374.523438 421.898438 371.554688 428.375 L 370.207031 428.375 C 368.320312 426.488281 366.972656 424.597656 365.890625 421.632812 C 371.015625 414.886719 381.808594 403.554688 399.613281 403.554688 C 418.765625 403.554688 422.816406 413.539062 422.816406 430.804688 L 422.816406 454.816406 C 422.816406 466.683594 422.816406 479.367188 431.992188 479.367188 C 433.605469 479.367188 434.414062 479.09375 434.957031 478.828125 Z M 405.277344 444.019531 C 395.566406 444.019531 379.109375 448.335938 379.109375 463.988281 C 379.109375 473.695312 385.042969 479.367188 394.757812 479.367188 C 402.042969 479.367188 406.359375 474.238281 407.433594 472.34375 L 407.433594 443.757812 L 405.277344 443.757812 Z M 405.277344 444.019531 " fill-opacity="1" fill-rule="nonzero"/><path fill="#ffffff" d="M 573.625 475.855469 C 570.921875 478.28125 559.320312 485.296875 544.21875 485.296875 C 522.902344 485.296875 505.640625 471.269531 505.640625 447.261719 C 505.640625 418.929688 525.332031 403.554688 544.753906 403.554688 C 567.417969 403.554688 572.273438 420.011719 574.429688 428.914062 C 555.28125 438.355469 535.578125 443.476562 521.285156 446.988281 C 522.089844 457.507812 529.910156 477.199219 552.851562 477.199219 C 563.101562 477.199219 569.574219 472.886719 572.003906 471.808594 Z M 521.015625 439.703125 C 533.15625 437.542969 547.183594 434.039062 559.054688 429.988281 C 556.625 419.46875 552.574219 409.492188 539.628906 409.492188 C 525.332031 409.492188 521.015625 427.296875 521.015625 439.703125 Z M 521.015625 439.703125 " fill-opacity="1" fill-rule="nonzero"/><path fill="#ffffff" d="M 613.550781 428.914062 C 613.550781 421.359375 608.152344 409.214844 597.089844 409.214844 C 590.613281 409.214844 586.296875 413.808594 586.296875 421.089844 C 586.296875 440.242188 623.800781 434.847656 623.800781 461.558594 C 623.800781 477.476562 610.582031 485.027344 594.664062 485.027344 C 583.601562 485.027344 577.9375 482.058594 573.34375 480.171875 C 570.917969 472.621094 570.113281 464.253906 570.113281 457.507812 L 574.699219 457.507812 C 578.203125 468.574219 583.867188 479.363281 597.355469 479.363281 C 604.917969 479.363281 609.230469 472.886719 609.230469 466.953125 C 609.230469 444.019531 571.730469 452.113281 571.730469 424.59375 C 571.730469 410.835938 584.140625 403.285156 598.707031 403.285156 C 607.609375 403.285156 612.734375 405.976562 616.511719 408.136719 C 618.128906 414.074219 618.671875 419.464844 618.671875 428.371094 L 613.546875 428.371094 L 613.546875 428.914062 Z M 613.550781 428.914062 " fill-opacity="1" fill-rule="nonzero"/><path fill="#ffffff" d="M 259.324219 475.585938 C 255.550781 479.089844 243.40625 492.578125 220.746094 492.851562 C 192.152344 493.117188 168.679688 473.695312 168.679688 441.324219 C 168.679688 402.746094 195.390625 382.511719 221.558594 382.511719 C 252.042969 382.511719 258.785156 404.632812 261.753906 416.773438 C 235.855469 429.449219 209.417969 436.464844 189.722656 441.046875 C 190.53125 455.078125 201.59375 482.054688 232.347656 482.054688 C 246.109375 482.054688 252.851562 472.886719 256.089844 471.265625 M 189.453125 431.34375 C 205.910156 428.371094 225.0625 423.519531 240.976562 418.386719 C 237.742188 404.363281 232.074219 390.601562 214.8125 390.601562 C 195.390625 390.601562 189.453125 414.613281 189.453125 431.34375 Z M 189.453125 431.34375 " fill-opacity="1" fill-rule="nonzero"/><path fill="#ffffff" d="M 292.777344 428.914062 C 292.777344 421.359375 287.382812 409.214844 276.320312 409.214844 C 269.847656 409.214844 265.53125 413.808594 265.53125 421.089844 C 265.53125 440.242188 303.03125 434.847656 303.03125 461.558594 C 303.03125 477.476562 289.8125 485.027344 273.890625 485.027344 C 262.832031 485.027344 257.164062 482.058594 252.578125 480.171875 C 250.148438 472.621094 249.339844 464.253906 249.339844 457.507812 L 253.925781 457.507812 C 257.433594 468.574219 263.101562 479.363281 276.589844 479.363281 C 284.144531 479.363281 288.457031 472.886719 288.457031 466.953125 C 288.457031 444.019531 250.960938 452.113281 250.960938 424.59375 C 250.960938 410.835938 263.371094 403.285156 277.9375 403.285156 C 286.839844 403.285156 291.964844 405.976562 295.742188 408.136719 C 297.359375 414.074219 297.902344 419.464844 297.902344 428.371094 L 292.773438 428.371094 L 292.773438 428.914062 Z M 292.777344 428.914062 " fill-opacity="1" fill-rule="nonzero"/><path fill="#ffffff" d="M 470.5625 403.554688 C 459.234375 403.554688 451.679688 408.40625 447.902344 410.566406 C 447.902344 409.214844 447.09375 405.441406 445.742188 403.554688 C 439.808594 403.554688 426.589844 407.871094 421.734375 409.492188 L 422.277344 413.539062 L 426.050781 412.457031 C 426.316406 412.457031 427.667969 412.183594 428.480469 412.183594 C 433.066406 412.183594 433.066406 416.773438 433.066406 433.503906 L 433.066406 520.371094 C 433.066406 520.371094 447.902344 521.988281 447.902344 512.007812 L 447.902344 483.402344 C 450.597656 483.945312 454.648438 485.296875 461.664062 485.296875 C 480.277344 485.296875 507.257812 474.234375 507.257812 440.242188 C 507.257812 416.773438 490.527344 403.554688 470.5625 403.554688 Z M 466.519531 479.363281 C 455.457031 479.363281 452.222656 476.125 447.902344 473.15625 L 447.902344 415.152344 C 450.597656 414.074219 454.917969 411.378906 461.933594 411.378906 C 477.039062 411.378906 491.609375 421.898438 491.609375 444.019531 C 491.609375 465.601562 483.515625 479.363281 466.519531 479.363281 Z M 466.519531 479.363281 " fill-opacity="1" fill-rule="nonzero"/></svg>