<svg xmlns="http://www.w3.org/2000/svg" xmlns:xlink="http://www.w3.org/1999/xlink" width="1024" zoomAndPan="magnify" viewBox="0 0 768 767.999994" height="1024" preserveAspectRatio="xMidYMid meet" version="1.0"><defs><clipPath id="0efb4722f3"><path d="M 28.625 28.625 L 739.375 28.625 L 739.375 739.375 L 28.625 739.375 Z M 28.625 28.625 " clip-rule="nonzero"/></clipPath><clipPath id="0fa4a58d82"><path d="M 384 28.625 C 187.730469 28.625 28.625 187.730469 28.625 384 C 28.625 580.269531 187.730469 739.375 384 739.375 C 580.269531 739.375 739.375 580.269531 739.375 384 C 739.375 187.730469 580.269531 28.625 384 28.625 Z M 384 28.625 " clip-rule="nonzero"/></clipPath><clipPath id="ce681b383b"><path d="M 205.246094 205.246094 L 562.996094 205.246094 L 562.996094 562.996094 L 205.246094 562.996094 Z M 205.246094 205.246094 " clip-rule="nonzero"/></clipPath></defs><rect x="-76.8" width="921.6" fill="#ffffff" y="-76.799999" height="921.599993" fill-opacity="1"/><rect x="-76.8" width="921.6" fill="#ffffff" y="-76.799999" height="921.599993" fill-opacity="1"/><g clip-path="url(#0efb4722f3)"><g clip-path="url(#0fa4a58d82)"><path fill="#000000" d="M 28.625 28.625 L 739.375 28.625 L 739.375 739.375 L 28.625 739.375 Z M 28.625 28.625 " fill-opacity="1" fill-rule="nonzero"/></g></g><g clip-path="url(#ce681b383b)"><path fill="#ffffff" d="M 562.996094 384.121094 C 562.996094 483.046875 482.792969 562.996094 384.121094 562.996094 C 285.449219 562.996094 205.246094 483.046875 205.246094 384.121094 C 205.246094 285.449219 285.449219 205.246094 384.121094 205.246094 C 482.792969 205.246094 562.996094 285.449219 562.996094 384.121094 Z M 562.996094 384.121094 " fill-opacity="1" fill-rule="nonzero"/></g><path fill="#000000" d="M 349.457031 467.613281 C 375.265625 467.613281 388.675781 454.457031 388.675781 435.988281 C 388.675781 420.554688 379.3125 410.433594 359.578125 408.660156 L 349.457031 407.648438 C 337.566406 406.386719 334.277344 402.84375 334.277344 397.53125 C 334.277344 391.964844 339.085938 387.914062 348.445312 387.914062 C 357.808594 387.914062 367.167969 391.710938 372.988281 395.757812 C 374 396.265625 375.011719 396.265625 375.769531 395.253906 L 385.386719 383.867188 C 385.890625 383.109375 385.890625 381.84375 384.878906 381.085938 C 376.53125 374.507812 364.132812 369.699219 349.710938 369.699219 C 326.433594 369.699219 313.277344 381.085938 313.277344 399.300781 C 313.277344 415.238281 322.894531 425.105469 342.121094 426.878906 L 352.242188 427.890625 C 364.386719 429.15625 367.929688 432.445312 367.929688 438.265625 C 367.929688 444.589844 362.109375 449.394531 350.722656 449.394531 C 341.109375 449.394531 329.976562 444.84375 323.398438 438.769531 C 322.640625 438.011719 321.375 438.011719 320.617188 438.769531 L 309.484375 450.40625 C 308.726562 451.167969 308.726562 452.433594 309.484375 453.191406 C 316.820312 460.023438 330.230469 467.613281 349.457031 467.613281 Z M 476.972656 466.601562 C 478.238281 466.601562 478.996094 465.839844 478.996094 464.578125 L 478.996094 412.964844 C 478.996094 398.035156 484.3125 389.433594 496.707031 389.433594 C 501.769531 389.433594 506.320312 391.203125 510.371094 393.988281 C 511.382812 394.746094 512.394531 394.492188 513.152344 393.480469 L 523.527344 380.578125 C 524.285156 379.566406 524.03125 378.808594 523.019531 377.796875 C 518.214844 372.988281 510.875 369.953125 503.539062 369.953125 C 491.902344 369.953125 483.804688 374.757812 478.996094 381.84375 L 478.996094 374 C 478.996094 372.734375 478.238281 371.976562 476.972656 371.976562 L 459.261719 371.976562 C 458 371.976562 457.238281 372.734375 457.238281 374 L 457.238281 464.578125 C 457.238281 465.839844 458 466.601562 459.261719 466.601562 Z M 441.554688 447.117188 L 436.746094 447.117188 C 430.671875 447.117188 428.144531 445.09375 428.144531 438.515625 L 428.144531 388.925781 L 441.804688 388.925781 C 443.070312 388.925781 443.828125 388.167969 443.828125 386.902344 L 443.828125 374 C 443.828125 372.734375 443.070312 371.976562 441.804688 371.976562 L 427.890625 371.976562 L 427.890625 348.445312 C 427.890625 346.675781 426.625 346.421875 425.613281 346.675781 L 409.167969 351.988281 C 407.648438 352.496094 407.144531 353.253906 407.144531 354.519531 L 406.132812 371.976562 L 396.519531 371.976562 C 395.253906 371.976562 394.492188 372.734375 394.492188 374 L 394.492188 386.902344 C 394.492188 388.167969 395.253906 388.925781 396.519531 388.925781 L 406.132812 388.925781 L 406.132812 439.277344 C 406.132812 457.492188 413.214844 466.601562 432.191406 466.601562 L 441.550781 466.601562 C 442.816406 466.601562 443.578125 465.839844 443.578125 464.578125 L 443.578125 449.144531 C 443.578125 448.132812 442.566406 447.117188 441.554688 447.117188 Z M 308.472656 508.09375 C 308.472656 509.105469 309.230469 509.863281 309.988281 509.863281 L 387.15625 509.863281 C 388.167969 509.863281 388.925781 509.105469 388.925781 508.09375 L 388.925781 494.9375 C 388.925781 493.925781 388.167969 493.164062 387.15625 493.164062 L 310.242188 493.164062 C 309.230469 493.164062 308.472656 493.925781 308.472656 494.9375 Z M 308.472656 508.09375 " fill-opacity="1" fill-rule="nonzero"/></svg>