<svg xmlns="http://www.w3.org/2000/svg" xmlns:xlink="http://www.w3.org/1999/xlink" width="1024" zoomAndPan="magnify" viewBox="0 0 768 767.999994" height="1024" preserveAspectRatio="xMidYMid meet" version="1.0"><defs><clipPath id="5fab95ff60"><path d="M 76 76.800781 L 717 76.800781 L 717 691 L 76 691 Z M 76 76.800781 " clip-rule="nonzero"/></clipPath><clipPath id="68ae16bcff"><path d="M 242.921875 76.800781 L 242.921875 690.414062 C 244.722656 690.542969 246.519531 690.542969 248.320312 690.542969 L 543.949219 690.542969 L 543.949219 76.800781 Z M 590.203125 76.800781 L 543.949219 76.800781 L 543.949219 690.414062 L 544.976562 690.414062 C 619.75 690.414062 685.40625 629.386719 690.800781 554.871094 L 716.109375 212.214844 C 721.636719 137.828125 664.976562 76.800781 590.203125 76.800781 Z M 203.09375 76.800781 C 128.320312 76.800781 71.660156 137.828125 77.183594 212.34375 L 102.496094 555 C 107.890625 627.71875 170.589844 687.589844 243.050781 690.414062 L 243.050781 76.800781 Z M 203.09375 76.800781 " clip-rule="nonzero"/></clipPath><clipPath id="9d75b8519a"><path d="M 230.398438 230.398438 L 537.898438 230.398438 L 537.898438 537.898438 L 230.398438 537.898438 Z M 230.398438 230.398438 " clip-rule="nonzero"/></clipPath></defs><rect x="-76.8" width="921.6" fill="#ffffff" y="-76.799999" height="921.599993" fill-opacity="1"/><rect x="-76.8" width="921.6" fill="#ffffff" y="-76.799999" height="921.599993" fill-opacity="1"/><g clip-path="url(#5fab95ff60)"><g clip-path="url(#68ae16bcff)"><path fill="#000000" d="M 76.800781 76.800781 L 716.089844 76.800781 L 716.089844 690.414062 L 76.800781 690.414062 Z M 76.800781 76.800781 " fill-opacity="1" fill-rule="nonzero"/></g></g><g clip-path="url(#9d75b8519a)"><path fill="#ffffff" d="M 537.898438 384.148438 C 537.898438 469.179688 468.960938 537.898438 384.148438 537.898438 C 299.335938 537.898438 230.398438 469.179688 230.398438 384.148438 C 230.398438 299.335938 299.335938 230.398438 384.148438 230.398438 C 468.960938 230.398438 537.898438 299.335938 537.898438 384.148438 Z M 537.898438 384.148438 " fill-opacity="1" fill-rule="nonzero"/></g><path fill="#000000" d="M 354.355469 455.914062 C 376.539062 455.914062 388.0625 444.605469 388.0625 428.730469 C 388.0625 415.464844 380.019531 406.765625 363.054688 405.246094 L 354.355469 404.375 C 344.136719 403.289062 341.308594 400.242188 341.308594 395.675781 C 341.308594 390.890625 345.441406 387.410156 353.488281 387.410156 C 361.535156 387.410156 369.578125 390.675781 374.582031 394.152344 C 375.453125 394.589844 376.320312 394.589844 376.972656 393.71875 L 385.238281 383.933594 C 385.671875 383.28125 385.671875 382.191406 384.800781 381.539062 C 377.625 375.886719 366.96875 371.753906 354.574219 371.753906 C 334.566406 371.753906 323.257812 381.539062 323.257812 397.199219 C 323.257812 410.898438 331.523438 419.378906 348.050781 420.902344 L 356.75 421.773438 C 367.1875 422.859375 370.230469 425.6875 370.230469 430.6875 C 370.230469 436.125 365.230469 440.257812 355.445312 440.257812 C 347.179688 440.257812 337.613281 436.34375 331.957031 431.125 C 331.304688 430.472656 330.21875 430.472656 329.566406 431.125 L 319.996094 441.125 C 319.34375 441.777344 319.34375 442.867188 319.996094 443.519531 C 326.304688 449.390625 337.828125 455.914062 354.355469 455.914062 Z M 463.960938 455.042969 C 465.046875 455.042969 465.699219 454.390625 465.699219 453.304688 L 465.699219 408.941406 C 465.699219 396.109375 470.265625 388.71875 480.921875 388.71875 C 485.273438 388.71875 489.1875 390.238281 492.667969 392.632812 C 493.535156 393.285156 494.40625 393.066406 495.058594 392.195312 L 503.976562 381.105469 C 504.628906 380.234375 504.410156 379.582031 503.539062 378.714844 C 499.40625 374.582031 493.101562 371.972656 486.796875 371.972656 C 476.792969 371.972656 469.832031 376.105469 465.699219 382.191406 L 465.699219 375.453125 C 465.699219 374.363281 465.046875 373.710938 463.960938 373.710938 L 448.738281 373.710938 C 447.652344 373.710938 447 374.363281 447 375.453125 L 447 453.304688 C 447 454.390625 447.652344 455.042969 448.738281 455.042969 Z M 433.515625 438.300781 L 429.382812 438.300781 C 424.164062 438.300781 421.988281 436.558594 421.988281 430.90625 L 421.988281 388.28125 L 433.734375 388.28125 C 434.820312 388.28125 435.472656 387.628906 435.472656 386.542969 L 435.472656 375.453125 C 435.472656 374.363281 434.820312 373.710938 433.734375 373.710938 L 421.773438 373.710938 L 421.773438 353.488281 C 421.773438 351.964844 420.683594 351.746094 419.816406 351.964844 L 405.679688 356.53125 C 404.375 356.964844 403.941406 357.617188 403.941406 358.707031 L 403.070312 373.710938 L 394.804688 373.710938 C 393.71875 373.710938 393.066406 374.363281 393.066406 375.453125 L 393.066406 386.542969 C 393.066406 387.628906 393.71875 388.28125 394.804688 388.28125 L 403.070312 388.28125 L 403.070312 431.558594 C 403.070312 447.214844 409.160156 455.042969 425.46875 455.042969 L 433.515625 455.042969 C 434.601562 455.042969 435.253906 454.390625 435.253906 453.304688 L 435.253906 440.039062 C 435.253906 439.167969 434.386719 438.300781 433.515625 438.300781 Z M 319.128906 490.710938 C 319.128906 491.578125 319.78125 492.230469 320.433594 492.230469 L 386.757812 492.230469 C 387.628906 492.230469 388.28125 491.578125 388.28125 490.710938 L 388.28125 479.402344 C 388.28125 478.53125 387.628906 477.878906 386.757812 477.878906 L 320.648438 477.878906 C 319.78125 477.878906 319.128906 478.53125 319.128906 479.402344 Z M 319.128906 490.710938 " fill-opacity="1" fill-rule="nonzero"/></svg>