<svg xmlns="http://www.w3.org/2000/svg" xmlns:xlink="http://www.w3.org/1999/xlink" width="1024" zoomAndPan="magnify" viewBox="0 0 768 767.999994" height="1024" preserveAspectRatio="xMidYMid meet" version="1.0"><defs><clipPath id="0784d17a41"><path d="M 76 76.800781 L 717 76.800781 L 717 691 L 76 691 Z M 76 76.800781 " clip-rule="nonzero"/></clipPath><clipPath id="2bc1af846f"><path d="M 242.921875 76.800781 L 242.921875 690.414062 C 244.722656 690.542969 246.519531 690.542969 248.320312 690.542969 L 543.949219 690.542969 L 543.949219 76.800781 Z M 590.203125 76.800781 L 543.949219 76.800781 L 543.949219 690.414062 L 544.976562 690.414062 C 619.75 690.414062 685.40625 629.386719 690.800781 554.871094 L 716.109375 212.214844 C 721.636719 137.828125 664.976562 76.800781 590.203125 76.800781 Z M 203.09375 76.800781 C 128.320312 76.800781 71.660156 137.828125 77.183594 212.34375 L 102.496094 555 C 107.890625 627.71875 170.589844 687.589844 243.050781 690.414062 L 243.050781 76.800781 Z M 203.09375 76.800781 " clip-rule="nonzero"/></clipPath></defs><rect x="-76.8" width="921.6" fill="#ffffff" y="-76.799999" height="921.599993" fill-opacity="1"/><rect x="-76.8" width="921.6" fill="#ffffff" y="-76.799999" height="921.599993" fill-opacity="1"/><g clip-path="url(#0784d17a41)"><g clip-path="url(#2bc1af846f)"><path fill="#000000" d="M 76.800781 76.800781 L 716.089844 76.800781 L 716.089844 690.414062 L 76.800781 690.414062 Z M 76.800781 76.800781 " fill-opacity="1" fill-rule="nonzero"/></g></g><path fill="#ffffff" d="M 170.125 391.933594 C 170.945312 391.523438 171.902344 391.523438 172.722656 391.113281 C 171.355469 389.613281 169.851562 388.246094 168.757812 386.46875 C 168.347656 385.921875 168.621094 385.785156 168.894531 385.648438 C 169.167969 385.648438 169.03125 385.101562 169.167969 384.828125 C 169.714844 384.691406 169.714844 384.007812 169.988281 383.597656 C 169.988281 383.460938 169.988281 383.050781 170.125 382.914062 C 170.261719 382.777344 170.535156 382.640625 170.808594 382.914062 C 171.902344 384.28125 173.132812 385.101562 174.359375 386.058594 C 175.863281 387.152344 177.503906 387.972656 178.734375 389.339844 C 178.871094 389.339844 179.28125 389.613281 179.28125 389.339844 C 179.417969 387.972656 179.964844 386.605469 180.511719 385.511719 C 180.648438 385.101562 180.785156 384.554688 181.058594 384.144531 C 181.46875 383.324219 182.425781 382.777344 183.105469 382.230469 C 184.335938 381.546875 185.703125 382.230469 186.660156 381.136719 C 186.933594 380.867188 187.480469 381.136719 187.753906 381.136719 C 188.574219 381.546875 189.667969 381.273438 190.351562 381.957031 C 189.257812 384.417969 189.257812 387.015625 188.4375 389.613281 C 188.300781 390.160156 188.027344 390.976562 188.300781 391.25 C 189.53125 391.660156 192.671875 391.113281 192.808594 390.976562 C 194.449219 390.976562 195.953125 390.976562 197.59375 391.386719 C 198.824219 391.660156 199.644531 392.207031 200.738281 393.164062 C 202.511719 394.53125 202.511719 396.992188 202.238281 399.179688 C 202.238281 399.316406 201.421875 400.132812 201.148438 399.996094 C 201.011719 399.996094 201.011719 399.453125 200.875 399.316406 C 200.191406 399.859375 198.960938 401.089844 198.550781 401.089844 C 198.414062 401.089844 197.59375 400.269531 197.183594 399.996094 C 195.816406 399.042969 194.175781 399.316406 192.671875 399.453125 C 190.898438 399.585938 189.121094 399.316406 187.34375 400.132812 C 188.027344 401.363281 189.121094 402.046875 190.214844 403.003906 C 191.855469 404.644531 193.492188 405.875 195.132812 407.515625 C 196.226562 408.742188 197.320312 409.5625 198.003906 410.929688 C 197.59375 411.203125 198.003906 411.339844 197.730469 411.613281 C 197.457031 411.75 197.457031 411.203125 197.183594 411.203125 C 196.910156 411.203125 196.773438 411.613281 196.773438 411.886719 C 196.910156 412.023438 196.5 412.84375 196.226562 412.84375 C 196.089844 412.980469 195.40625 413.390625 195.132812 413.390625 C 194.996094 413.390625 194.175781 412.980469 194.175781 413.117188 C 194.449219 413.527344 194.722656 414.074219 194.585938 414.210938 C 193.902344 414.074219 193.492188 414.074219 193.082031 413.527344 C 190.898438 411.613281 188.847656 409.5625 186.523438 407.515625 C 185.703125 406.695312 185.15625 405.601562 184.0625 404.78125 C 182.425781 408.609375 181.332031 411.339844 179.691406 415.167969 C 179.28125 415.851562 179.144531 417.628906 178.734375 417.765625 C 178.460938 417.902344 177.503906 416.535156 176.957031 415.441406 C 176.957031 413.117188 177.230469 412.296875 177.367188 409.835938 L 177.367188 409.425781 C 177.503906 406.285156 178.460938 403.550781 178.324219 400.269531 C 178.324219 399.996094 177.914062 399.859375 177.503906 399.859375 C 173.40625 399.453125 169.441406 398.90625 165.339844 398.359375 C 164.386719 398.222656 163.429688 398.222656 162.472656 397.8125 C 162.335938 397.675781 161.789062 397.402344 161.652344 397.402344 C 161.515625 397.265625 161.515625 397.265625 161.378906 397.265625 C 163.019531 395.625 164.386719 393.847656 166.707031 392.890625 C 167.800781 392.890625 169.441406 392.207031 170.125 391.933594 Z M 170.125 391.933594 " fill-opacity="1" fill-rule="nonzero"/><path fill="#ffffff" d="M 208.253906 414.074219 C 207.980469 413.9375 208.117188 413.664062 208.117188 413.664062 C 208.390625 413.253906 208.9375 413.253906 209.210938 413.253906 C 210.304688 412.980469 211.53125 413.253906 212.625 412.980469 C 212.898438 412.84375 213.035156 412.570312 213.171875 412.570312 C 213.992188 412.160156 214.8125 412.023438 215.769531 411.75 C 216.042969 411.613281 216.589844 411.339844 216.316406 410.929688 C 215.359375 409.835938 214.402344 408.882812 213.855469 407.652344 C 213.582031 406.96875 213.035156 406.421875 213.035156 405.738281 C 213.035156 405.191406 213.71875 405.054688 214.265625 405.328125 C 216.726562 406.695312 218.367188 408.742188 220.140625 410.929688 C 220.414062 411.339844 220.824219 410.382812 220.960938 409.972656 C 221.78125 408.199219 222.328125 406.148438 223.285156 404.371094 C 223.558594 403.824219 223.96875 403.140625 224.515625 403.003906 C 225.335938 402.730469 225.882812 402.183594 226.566406 401.773438 C 227.113281 401.5 227.523438 401.773438 228.070312 401.5 C 228.34375 401.363281 228.886719 401.910156 229.296875 401.773438 C 229.980469 401.363281 230.527344 401.636719 231.210938 401.773438 C 231.621094 402.046875 231.757812 402.457031 231.621094 402.867188 C 230.9375 404.507812 230.664062 406.148438 229.570312 407.789062 C 228.753906 409.015625 228.207031 410.246094 227.25 411.476562 C 227.25 411.613281 227.113281 411.886719 227.386719 411.886719 C 227.933594 412.023438 228.617188 411.886719 229.023438 412.160156 C 230.664062 412.707031 232.304688 412.570312 234.082031 412.84375 C 234.902344 413.117188 234.902344 414.347656 235.722656 415.03125 C 236.132812 415.304688 235.449219 415.714844 234.902344 415.851562 C 233.671875 416.261719 232.441406 415.714844 231.210938 416.125 C 229.160156 416.535156 227.113281 416.125 225.199219 416.945312 C 225.882812 417.628906 226.566406 418.171875 227.113281 418.855469 L 228.753906 421.316406 C 229.296875 422.273438 229.570312 423.09375 229.84375 424.050781 C 230.117188 424.460938 229.980469 425.144531 229.980469 425.691406 C 229.707031 425.554688 229.707031 425.144531 229.570312 425.007812 C 229.296875 425.007812 229.160156 425.417969 228.753906 425.417969 C 228.480469 425.28125 228.34375 425.007812 228.207031 424.871094 C 227.796875 424.460938 227.386719 423.777344 227.25 423.230469 C 226.429688 421.453125 224.925781 420.359375 223.558594 419.265625 C 222.191406 422.136719 221.234375 425.007812 219.324219 427.738281 C 219.1875 428.011719 218.914062 428.011719 218.503906 428.011719 C 218.367188 427.875 218.230469 428.285156 218.09375 428.285156 C 217.957031 428.011719 217.820312 428.011719 217.683594 427.875 C 217.136719 427.464844 216.316406 426.921875 216.179688 426.238281 C 215.90625 425.554688 215.632812 425.007812 215.632812 424.324219 C 215.632812 424.1875 215.359375 423.914062 215.359375 423.914062 C 215.632812 423.503906 215.632812 422.820312 215.769531 422.546875 C 216.042969 422.136719 216.589844 421.726562 216.589844 421.316406 C 217.136719 419.949219 218.09375 418.855469 218.367188 417.492188 C 215.769531 417.082031 213.035156 417.21875 210.441406 416.261719 C 209.894531 415.988281 209.210938 415.851562 208.664062 415.441406 C 208.390625 414.484375 208.527344 414.210938 208.253906 414.074219 Z M 208.253906 414.074219 " fill-opacity="1" fill-rule="nonzero"/><path fill="#ffffff" d="M 211.394531 371.574219 C 212.214844 369.523438 213.582031 368.292969 213.71875 365.96875 C 209.347656 363.507812 204.152344 365.011719 200.875 359.273438 C 200.054688 358.042969 200.875 352.304688 201.28125 351.621094 C 202.238281 349.570312 204.152344 349.570312 205.929688 350.9375 C 206.066406 350.800781 207.433594 351.210938 207.707031 351.347656 C 209.484375 351.074219 211.394531 351.757812 213.308594 352.167969 C 215.769531 352.441406 217.820312 353.398438 220.140625 353.125 C 220.277344 352.988281 220.550781 352.441406 220.550781 351.757812 C 220.003906 348.339844 219.1875 345.332031 218.367188 341.78125 C 217.957031 340.960938 218.09375 339.867188 217.820312 339.046875 C 217.683594 336.996094 216.316406 333.855469 217.546875 332.898438 C 217.683594 332.761719 217.957031 333.308594 218.09375 333.171875 C 218.503906 332.898438 218.640625 332.351562 219.050781 332.488281 C 223.285156 335.355469 226.839844 339.730469 230.664062 343.96875 C 231.894531 345.195312 232.167969 341.917969 233.125 340.824219 C 233.398438 340.277344 233.125 339.046875 233.398438 338.636719 C 234.355469 336.859375 234.492188 334.675781 235.3125 333.035156 C 236.816406 330.984375 237.636719 327.839844 239.820312 327.019531 C 241.324219 326.609375 242.964844 327.15625 244.332031 328.660156 C 244.605469 328.796875 245.289062 328.660156 245.699219 329.070312 C 247.203125 330.4375 248.429688 332.214844 250.070312 333.855469 C 250.617188 334.539062 250.890625 335.765625 250.617188 336.3125 C 250.207031 338.636719 248.15625 338.773438 246.929688 340.414062 C 244.605469 344.238281 242.144531 348.066406 239.820312 351.894531 C 239.546875 352.441406 238.863281 353.667969 239.410156 354.214844 C 242.691406 357.496094 245.5625 360.914062 249.25 363.507812 C 251.574219 365.011719 254.035156 364.875 256.085938 366.925781 C 257.585938 368.703125 258.679688 370.617188 259.363281 372.9375 C 251.027344 378.269531 241.597656 369.523438 232.714844 369.660156 C 232.03125 369.796875 232.167969 370.753906 232.167969 371.164062 C 232.578125 374.988281 233.261719 378.679688 233.671875 382.367188 C 233.808594 384.964844 235.175781 387.5625 235.585938 390.023438 C 235.722656 390.976562 236.542969 393.4375 235.3125 393.300781 C 233.945312 393.300781 232.03125 392.890625 231.074219 390.703125 C 229.84375 387.835938 228.617188 384.828125 227.660156 381.683594 C 227.523438 380.730469 227.113281 379.910156 227.523438 379.089844 C 227.660156 377.585938 226.703125 376.21875 226.292969 375.125 C 226.019531 374.578125 225.472656 375.398438 225.0625 375.671875 C 223.832031 377.3125 222.601562 378.816406 221.507812 380.730469 C 219.460938 383.597656 217.136719 385.375 214.402344 386.605469 C 212.351562 387.425781 209.347656 387.835938 207.980469 384.691406 C 208.664062 384.554688 209.210938 383.050781 208.800781 382.640625 C 205.65625 377.859375 210.03125 374.988281 211.394531 371.574219 Z M 211.394531 371.574219 " fill-opacity="1" fill-rule="nonzero"/><path fill="#ffffff" d="M 303.230469 425.28125 L 295.578125 425.28125 L 295.578125 384.417969 L 303.230469 384.417969 L 303.230469 391.25 C 306.101562 386.742188 309.65625 383.734375 316.488281 383.734375 L 317.035156 383.734375 L 317.035156 390.296875 L 316.488281 390.296875 C 313.207031 390.296875 310.613281 391.386719 308.289062 393.574219 C 305.417969 396.308594 303.367188 400.542969 303.230469 404.097656 Z M 303.230469 425.28125 " fill-opacity="1" fill-rule="nonzero"/><path fill="#ffffff" d="M 333.707031 426.101562 C 324.550781 426.101562 320.453125 420.085938 320.453125 414.621094 C 320.453125 405.875 327.832031 401.226562 346.828125 397.949219 L 346.828125 396.171875 C 346.828125 391.660156 344.09375 389.339844 338.765625 389.339844 C 331.65625 389.339844 329.199219 393.847656 328.515625 395.214844 L 328.378906 395.761719 L 321.40625 392.753906 L 321.679688 392.207031 C 324.6875 386.878906 331.382812 383.460938 338.628906 383.460938 C 346.554688 383.460938 354.480469 387.289062 354.480469 395.898438 L 354.480469 415.988281 C 354.480469 420.085938 354.890625 422.273438 355.4375 424.460938 L 355.574219 425.144531 L 347.648438 425.144531 L 347.101562 420.222656 C 344.230469 423.230469 339.71875 426.101562 333.707031 426.101562 Z M 346.691406 403.824219 C 334.117188 406.011719 327.96875 409.5625 327.96875 414.621094 C 327.96875 417.902344 331.382812 420.222656 334.390625 420.222656 C 338.21875 420.222656 343.273438 417.628906 346.691406 413.9375 Z M 346.691406 403.824219 " fill-opacity="1" fill-rule="nonzero"/><path fill="#ffffff" d="M 380.992188 425.28125 L 371.699219 425.28125 L 358.578125 384.417969 L 366.371094 384.417969 L 376.621094 416.535156 L 386.867188 384.417969 L 393.839844 384.417969 Z M 380.992188 425.28125 " fill-opacity="1" fill-rule="nonzero"/><path fill="#ffffff" d="M 449.050781 425.28125 L 441.261719 425.28125 L 441.261719 370.890625 L 449.050781 367.609375 Z M 449.050781 425.28125 " fill-opacity="1" fill-rule="nonzero"/><path fill="#ffffff" d="M 474.46875 426.101562 C 463.398438 426.101562 456.019531 417.628906 456.019531 404.917969 C 456.019531 392.207031 463.398438 383.734375 474.46875 383.734375 C 485.539062 383.734375 492.917969 392.207031 492.917969 404.917969 C 492.917969 417.628906 485.539062 426.101562 474.46875 426.101562 Z M 474.46875 389.476562 C 467.773438 389.476562 463.671875 395.214844 463.671875 404.917969 C 463.671875 414.621094 467.773438 420.359375 474.46875 420.359375 C 481.164062 420.359375 485.265625 414.621094 485.265625 404.917969 C 485.265625 395.214844 481.164062 389.476562 474.46875 389.476562 Z M 474.46875 389.476562 " fill-opacity="1" fill-rule="nonzero"/><path fill="#ffffff" d="M 515.738281 426.101562 C 504.671875 426.101562 497.289062 417.628906 497.289062 404.917969 C 497.289062 392.207031 504.671875 383.734375 515.738281 383.734375 C 523.667969 383.734375 529.269531 387.425781 532.277344 394.804688 L 532.550781 395.351562 L 525.304688 397.539062 L 525.167969 397.128906 C 524.078125 393.710938 521.480469 389.613281 515.738281 389.613281 C 508.90625 389.613281 504.945312 395.214844 504.945312 405.054688 C 504.945312 414.894531 508.90625 420.496094 515.738281 420.496094 C 521.070312 420.496094 523.667969 418.71875 526.808594 413.390625 L 527.082031 412.980469 L 533.640625 415.304688 L 533.371094 415.851562 C 528.585938 423.230469 523.667969 426.101562 515.738281 426.101562 Z M 515.738281 426.101562 " fill-opacity="1" fill-rule="nonzero"/><path fill="#ffffff" d="M 539.246094 384.417969 L 546.898438 384.417969 L 546.898438 425.28125 L 539.246094 425.28125 Z M 539.246094 384.417969 " fill-opacity="1" fill-rule="nonzero"/><path fill="#ffffff" d="M 279.453125 426.101562 C 273.714844 426.101562 269.886719 424.871094 269.203125 419.128906 L 269.203125 390.292969 L 263.054688 390.292969 L 263.054688 384.554688 L 269.203125 384.554688 L 269.203125 373.347656 L 276.855469 370.070312 L 276.855469 384.554688 L 286.695312 384.554688 L 285.191406 390.292969 L 276.992188 390.292969 L 276.992188 418.171875 C 276.992188 419.265625 277.539062 420.359375 281.230469 420.359375 C 283.144531 420.359375 284.644531 420.222656 287.105469 419.8125 L 287.925781 419.675781 L 286.421875 425.417969 L 286.148438 425.417969 C 283.964844 425.828125 282.324219 426.101562 279.453125 426.101562 Z M 279.453125 426.101562 " fill-opacity="1" fill-rule="nonzero"/><path fill="#ffffff" d="M 588.582031 440.3125 C 586.53125 440.3125 584.070312 440.039062 583.113281 439.902344 L 582.566406 439.765625 L 584.34375 434.027344 L 585.300781 434.027344 C 585.984375 434.164062 586.804688 434.164062 587.761719 434.164062 C 591.585938 434.164062 596.234375 433.207031 598.148438 425.144531 L 583.386719 384.28125 L 590.628906 384.28125 L 590.765625 384.554688 L 601.5625 413.800781 L 611.128906 384.144531 L 619.191406 384.144531 L 604.296875 428.285156 C 600.46875 438.808594 592.816406 440.3125 588.582031 440.3125 Z M 588.582031 440.3125 " fill-opacity="1" fill-rule="nonzero"/><path fill="#ffffff" d="M 571.496094 426.101562 C 565.757812 426.101562 561.929688 424.871094 561.25 419.128906 L 561.25 390.160156 L 555.097656 390.160156 L 555.097656 384.417969 L 561.25 384.417969 L 561.25 373.210938 L 568.902344 369.933594 L 568.902344 384.417969 L 578.742188 384.417969 L 577.238281 390.160156 L 569.039062 390.160156 L 569.039062 418.039062 C 569.039062 419.128906 569.585938 420.222656 573.273438 420.222656 C 575.1875 420.222656 576.691406 420.085938 579.152344 419.675781 L 579.96875 419.539062 L 578.46875 425.28125 L 578.195312 425.28125 C 576.007812 425.828125 574.367188 426.101562 571.496094 426.101562 Z M 571.496094 426.101562 " fill-opacity="1" fill-rule="nonzero"/><path fill="#ffffff" d="M 416.796875 426.101562 C 411.605469 426.101562 406.957031 424.324219 403.40625 421.042969 C 399.304688 417.21875 397.253906 411.613281 397.253906 404.917969 C 397.253906 392.207031 404.632812 383.734375 415.703125 383.734375 C 420.351562 383.734375 424.722656 385.238281 427.730469 388.109375 C 431.148438 391.386719 433.058594 396.308594 433.058594 402.320312 L 433.058594 406.558594 L 405.042969 406.558594 C 405.316406 414.484375 410.238281 420.359375 416.796875 420.359375 C 421.445312 420.359375 425.40625 418.171875 427.730469 414.074219 L 428.003906 413.527344 L 432.921875 418.308594 L 432.648438 418.71875 C 427.730469 425.554688 424.722656 426.101562 416.796875 426.101562 Z M 405.179688 400.679688 L 425.269531 400.679688 C 425.132812 393.710938 421.582031 389.476562 415.839844 389.476562 C 409.691406 389.476562 405.863281 393.574219 405.179688 400.679688 Z M 405.179688 400.679688 " fill-opacity="1" fill-rule="nonzero"/><path fill="#ffffff" d="M 539.246094 370.890625 L 546.898438 370.890625 L 546.898438 378.542969 L 539.246094 378.542969 Z M 539.246094 370.890625 " fill-opacity="1" fill-rule="nonzero"/><path fill="#ffffff" d="M 622.199219 387.425781 C 622.472656 386.878906 622.882812 386.332031 623.292969 385.921875 C 623.703125 385.511719 624.25 385.101562 624.933594 384.828125 C 625.480469 384.554688 626.164062 384.417969 626.84375 384.417969 C 627.527344 384.417969 628.210938 384.554688 628.757812 384.828125 C 629.304688 385.101562 629.851562 385.375 630.398438 385.921875 C 630.808594 386.332031 631.21875 386.878906 631.492188 387.425781 C 631.765625 387.972656 631.902344 388.65625 631.902344 389.339844 C 631.902344 390.023438 631.765625 390.703125 631.492188 391.25 C 631.21875 391.796875 630.808594 392.34375 630.398438 392.890625 C 629.988281 393.300781 629.441406 393.710938 628.757812 393.984375 C 628.210938 394.257812 627.527344 394.394531 626.84375 394.394531 C 626.164062 394.394531 625.480469 394.257812 624.933594 393.984375 C 624.386719 393.710938 623.839844 393.4375 623.292969 392.890625 C 622.882812 392.480469 622.472656 391.933594 622.199219 391.25 C 621.925781 390.703125 621.789062 390.023438 621.789062 389.339844 C 621.789062 388.65625 621.925781 387.972656 622.199219 387.425781 Z M 623.019531 391.113281 C 623.292969 391.660156 623.566406 392.070312 623.839844 392.480469 C 624.25 392.890625 624.660156 393.164062 625.207031 393.4375 C 625.753906 393.710938 626.296875 393.710938 626.84375 393.710938 C 627.390625 393.710938 627.9375 393.574219 628.484375 393.4375 C 629.03125 393.164062 629.441406 392.890625 629.714844 392.480469 C 630.125 392.070312 630.398438 391.660156 630.535156 391.113281 C 630.808594 390.566406 630.808594 390.023438 630.808594 389.476562 C 630.808594 388.929688 630.671875 388.382812 630.535156 387.835938 C 630.261719 387.289062 629.988281 386.878906 629.714844 386.46875 C 629.304688 386.058594 628.894531 385.785156 628.484375 385.648438 C 627.9375 385.375 627.390625 385.375 626.84375 385.375 C 626.296875 385.375 625.753906 385.511719 625.207031 385.648438 C 624.660156 385.921875 624.25 386.195312 623.839844 386.46875 C 623.429688 386.878906 623.15625 387.289062 623.019531 387.835938 C 622.746094 388.382812 622.746094 388.929688 622.746094 389.476562 C 622.746094 390.023438 622.882812 390.566406 623.019531 391.113281 Z M 627.117188 386.46875 C 627.800781 386.46875 628.347656 386.605469 628.621094 386.878906 C 628.894531 387.152344 629.167969 387.5625 629.167969 388.109375 C 629.167969 388.65625 629.03125 389.066406 628.757812 389.203125 C 628.484375 389.476562 628.074219 389.613281 627.664062 389.613281 L 629.304688 392.207031 L 628.347656 392.207031 L 626.707031 389.75 L 625.753906 389.75 L 625.753906 392.207031 L 624.796875 392.207031 L 624.796875 386.46875 Z M 626.707031 389.066406 L 627.253906 389.066406 C 627.390625 389.066406 627.664062 389.066406 627.800781 388.929688 C 627.9375 388.929688 628.074219 388.792969 628.074219 388.65625 C 628.210938 388.519531 628.210938 388.382812 628.210938 388.109375 C 628.210938 387.972656 628.210938 387.699219 628.074219 387.699219 C 627.9375 387.699219 627.9375 387.5625 627.800781 387.425781 C 627.664062 387.425781 627.527344 387.289062 627.390625 387.289062 L 625.753906 387.289062 L 625.753906 389.066406 Z M 626.707031 389.066406 " fill-opacity="1" fill-rule="nonzero"/><path fill="#ffffff" d="M 622.199219 387.425781 C 622.472656 386.878906 622.882812 386.332031 623.292969 385.921875 C 623.703125 385.511719 624.25 385.101562 624.933594 384.828125 C 625.480469 384.554688 626.164062 384.417969 626.84375 384.417969 C 627.527344 384.417969 628.210938 384.554688 628.757812 384.828125 C 629.304688 385.101562 629.851562 385.375 630.398438 385.921875 C 630.808594 386.332031 631.21875 386.878906 631.492188 387.425781 C 631.765625 387.972656 631.902344 388.65625 631.902344 389.339844 C 631.902344 390.023438 631.765625 390.703125 631.492188 391.25 C 631.21875 391.796875 630.808594 392.34375 630.398438 392.890625 C 629.988281 393.300781 629.441406 393.710938 628.757812 393.984375 C 628.210938 394.257812 627.527344 394.394531 626.84375 394.394531 C 626.164062 394.394531 625.480469 394.257812 624.933594 393.984375 C 624.386719 393.710938 623.839844 393.4375 623.292969 392.890625 C 622.882812 392.480469 622.472656 391.933594 622.199219 391.25 C 621.925781 390.703125 621.789062 390.023438 621.789062 389.339844 C 621.789062 388.65625 621.925781 387.972656 622.199219 387.425781 Z M 623.019531 391.113281 C 623.292969 391.660156 623.566406 392.070312 623.839844 392.480469 C 624.25 392.890625 624.660156 393.164062 625.207031 393.4375 C 625.753906 393.710938 626.296875 393.710938 626.84375 393.710938 C 627.390625 393.710938 627.9375 393.574219 628.484375 393.4375 C 629.03125 393.164062 629.441406 392.890625 629.714844 392.480469 C 630.125 392.070312 630.398438 391.660156 630.535156 391.113281 C 630.808594 390.566406 630.808594 390.023438 630.808594 389.476562 C 630.808594 388.929688 630.671875 388.382812 630.535156 387.835938 C 630.261719 387.289062 629.988281 386.878906 629.714844 386.46875 C 629.304688 386.058594 628.894531 385.785156 628.484375 385.648438 C 627.9375 385.375 627.390625 385.375 626.84375 385.375 C 626.296875 385.375 625.753906 385.511719 625.207031 385.648438 C 624.660156 385.921875 624.25 386.195312 623.839844 386.46875 C 623.429688 386.878906 623.15625 387.289062 623.019531 387.835938 C 622.746094 388.382812 622.746094 388.929688 622.746094 389.476562 C 622.746094 390.023438 622.882812 390.566406 623.019531 391.113281 Z M 627.117188 386.46875 C 627.800781 386.46875 628.347656 386.605469 628.621094 386.878906 C 628.894531 387.152344 629.167969 387.5625 629.167969 388.109375 C 629.167969 388.65625 629.03125 389.066406 628.757812 389.203125 C 628.484375 389.476562 628.074219 389.613281 627.664062 389.613281 L 629.304688 392.207031 L 628.347656 392.207031 L 626.707031 389.75 L 625.753906 389.75 L 625.753906 392.207031 L 624.796875 392.207031 L 624.796875 386.46875 Z M 626.707031 389.066406 L 627.253906 389.066406 C 627.390625 389.066406 627.664062 389.066406 627.800781 388.929688 C 627.9375 388.929688 628.074219 388.792969 628.074219 388.65625 C 628.210938 388.519531 628.210938 388.382812 628.210938 388.109375 C 628.210938 387.972656 628.210938 387.699219 628.074219 387.699219 C 627.9375 387.699219 627.9375 387.5625 627.800781 387.425781 C 627.664062 387.425781 627.527344 387.289062 627.390625 387.289062 L 625.753906 387.289062 L 625.753906 389.066406 Z M 626.707031 389.066406 " fill-opacity="1" fill-rule="nonzero"/></svg>