<svg xmlns="http://www.w3.org/2000/svg" xmlns:xlink="http://www.w3.org/1999/xlink" width="1024" zoomAndPan="magnify" viewBox="0 0 768 767.999994" height="1024" preserveAspectRatio="xMidYMid meet" version="1.0"><defs><clipPath id="5a3c20e572"><path d="M 76 76.800781 L 717 76.800781 L 717 691 L 76 691 Z M 76 76.800781 " clip-rule="nonzero"/></clipPath><clipPath id="f8a97c23b5"><path d="M 242.921875 76.800781 L 242.921875 690.414062 C 244.722656 690.542969 246.519531 690.542969 248.320312 690.542969 L 543.949219 690.542969 L 543.949219 76.800781 Z M 590.203125 76.800781 L 543.949219 76.800781 L 543.949219 690.414062 L 544.976562 690.414062 C 619.75 690.414062 685.40625 629.386719 690.800781 554.871094 L 716.109375 212.214844 C 721.636719 137.828125 664.976562 76.800781 590.203125 76.800781 Z M 203.09375 76.800781 C 128.320312 76.800781 71.660156 137.828125 77.183594 212.34375 L 102.496094 555 C 107.890625 627.71875 170.589844 687.589844 243.050781 690.414062 L 243.050781 76.800781 Z M 203.09375 76.800781 " clip-rule="nonzero"/></clipPath></defs><rect x="-76.8" width="921.6" fill="#ffffff" y="-76.799999" height="921.599993" fill-opacity="1"/><rect x="-76.8" width="921.6" fill="#ffffff" y="-76.799999" height="921.599993" fill-opacity="1"/><g clip-path="url(#5a3c20e572)"><g clip-path="url(#f8a97c23b5)"><path fill="#000000" d="M 76.800781 76.800781 L 716.089844 76.800781 L 716.089844 690.414062 L 76.800781 690.414062 Z M 76.800781 76.800781 " fill-opacity="1" fill-rule="nonzero"/></g></g><path fill="#000000" d="M 433.863281 357.78125 L 433.863281 424.816406 L 450.882812 424.816406 L 450.882812 440.113281 L 417.574219 440.113281 L 417.574219 357.78125 Z M 407.570312 345.132812 L 407.570312 360.425781 L 391.089844 360.425781 L 391.089844 378.324219 L 405.617188 378.324219 L 405.617188 393.617188 L 391.089844 393.617188 L 391.089844 412.167969 L 407.800781 412.167969 L 407.800781 427.464844 L 374.835938 427.464844 L 374.835938 345.132812 Z M 325.660156 341.953125 L 335.472656 381.46875 C 336.890625 386.144531 337.429688 390.859375 338.425781 395.574219 L 338.65625 395.574219 C 339.535156 390.742188 339.84375 386.066406 341.183594 381.277344 L 351.113281 341.953125 L 368.128906 341.953125 L 345.285156 424.28125 L 331.949219 424.28125 L 308.183594 341.953125 Z M 294.5 403.851562 L 283.039062 403.851562 L 286.527344 381.890625 L 288.292969 369.433594 L 288.523438 369.433594 L 290.359375 381.890625 Z M 280.433594 348.277344 L 261.308594 430.605469 L 277.484375 430.605469 L 280.433594 416.730469 L 296.914062 416.730469 L 299.980469 430.605469 L 317.34375 430.605469 L 297.566406 348.277344 Z M 224.628906 358.507812 L 226.8125 358.507812 C 235.015625 358.089844 237.851562 362.878906 237.851562 368.78125 C 237.851562 375.527344 234.898438 380.546875 227.464844 380.546875 L 224.628906 380.433594 Z M 224.589844 427.386719 L 224.589844 389.402344 L 224.820312 389.402344 L 239.117188 427.386719 L 256.25 427.386719 L 241.953125 389.9375 C 250.039062 385.453125 253.640625 377.710938 253.640625 368.628906 C 253.640625 346.128906 235.089844 345.054688 224.703125 345.054688 L 208.335938 345.054688 L 208.335938 427.386719 Z M 200.941406 352.988281 L 200.941406 368.285156 L 188.0625 368.285156 L 188.0625 435.320312 L 171.773438 435.320312 L 171.773438 368.285156 L 159.007812 368.285156 L 159.007812 352.988281 Z M 200.941406 352.988281 " fill-opacity="1" fill-rule="nonzero"/><path fill="#000000" d="M 495.304688 332.484375 L 467.09375 399.519531 L 492.96875 399.519531 L 492.96875 414.8125 L 443.371094 414.8125 L 470.8125 347.777344 L 446.894531 347.777344 L 446.894531 332.484375 Z M 517.113281 387.90625 C 517.113281 380.585938 517.878906 360.503906 528.6875 360.503906 C 539.5 360.503906 540.226562 380.585938 540.226562 387.90625 C 540.226562 394.421875 539.460938 415.3125 528.652344 415.3125 C 517.878906 415.3125 517.113281 394.421875 517.113281 387.90625 Z M 528.726562 345.4375 C 514.199219 345.4375 499.789062 356.976562 499.789062 387.90625 C 499.789062 418.800781 514.199219 430.375 528.726562 430.375 C 543.253906 430.375 557.664062 418.839844 557.664062 387.90625 C 557.628906 356.976562 543.214844 345.4375 528.726562 345.4375 Z M 580.664062 383.15625 C 580.664062 375.871094 581.429688 355.75 592.238281 355.75 C 603.046875 355.75 603.8125 375.871094 603.777344 383.15625 C 603.777344 389.710938 603.007812 410.597656 592.199219 410.597656 C 581.429688 410.558594 580.664062 389.710938 580.664062 383.15625 Z M 592.238281 340.6875 C 577.710938 340.6875 563.300781 352.261719 563.300781 383.15625 C 563.300781 414.085938 577.710938 425.625 592.238281 425.625 C 606.765625 425.625 621.175781 414.046875 621.175781 383.15625 C 621.175781 352.261719 606.765625 340.6875 592.238281 340.6875 Z M 592.238281 340.6875 " fill-opacity="1" fill-rule="nonzero"/><path stroke-linecap="butt" transform="matrix(3.832874, 0, 0, 3.832874, 159.008695, 327.884857)" fill-opacity="1" fill="#ffffff" fill-rule="nonzero" stroke-linejoin="miter" d="M 12.019552 5.590489 L 12.019552 9.580437 L 8.660454 9.580437 L 8.650262 27.080155 L 4.409605 27.080155 L 4.409605 9.580437 L 1.080062 9.580437 L 1.080062 5.590489 Z M 18.19964 7.02952 L 18.77036 7.02952 C 20.909543 6.910281 21.65046 8.169942 21.65046 9.709869 C 21.65046 11.480121 20.879988 12.789721 18.939538 12.789721 L 18.19964 12.760166 Z M 18.190467 25.010274 L 18.190467 15.10012 L 18.249578 15.10012 L 21.979644 25.020466 L 26.449609 25.020466 L 22.719542 15.249934 C 24.830189 14.079957 25.759648 12.060014 25.76984 9.690505 C 25.76984 3.820237 20.929926 3.539972 18.220022 3.539972 L 13.94981 3.539972 L 13.94981 25.020466 Z M 36.430084 18.859741 L 33.439916 18.859741 L 34.350011 13.130115 L 34.800473 9.880066 L 34.859583 9.880066 L 35.3396 13.130115 Z M 32.749955 4.360383 L 27.760227 25.829666 L 31.97031 25.829666 L 32.739764 22.209667 L 37.039532 22.209667 L 37.83956 25.829666 L 42.369654 25.829666 L 37.230112 4.360383 Z M 44.559794 2.710389 L 47.119883 13.020048 C 47.489832 14.250154 47.630474 15.470069 47.890356 16.700176 L 47.950485 16.700176 C 48.179792 15.449686 48.260305 14.229771 48.609871 12.97011 L 51.199515 2.710389 L 55.639925 2.710389 L 49.679972 24.179672 L 46.199596 24.179672 L 40.000144 2.700198 Z M 65.93022 3.539972 L 65.93022 7.52992 L 61.630452 7.52992 L 61.630452 12.199637 L 65.419629 12.199637 L 65.419629 16.189585 L 61.630452 16.189585 L 61.630452 21.029499 L 65.990349 21.029499 L 65.990349 25.020466 L 57.389795 25.020466 L 57.389795 3.539972 Z M 72.790077 6.850151 L 72.790077 24.339678 L 77.230486 24.339678 L 77.230486 28.329626 L 68.540247 28.329626 L 68.540247 6.850151 Z M 72.790077 6.850151 " stroke="#000000" stroke-width="0.257" stroke-opacity="1" stroke-miterlimit="4"/><path stroke-linecap="butt" transform="matrix(3.832874, 0, 0, 3.832874, 159.008695, 327.884857)" fill-opacity="1" fill="#ffffff" fill-rule="nonzero" stroke-linejoin="miter" d="M 88.820189 0.239984 L 81.459933 17.729511 L 88.209722 17.729511 L 88.209722 21.720478 L 75.279845 21.720478 L 82.430158 4.229932 L 76.200132 4.229932 L 76.200132 0.239984 Z M 94.510069 14.699597 C 94.510069 12.789721 94.709821 7.550303 97.529792 7.550303 C 100.349763 7.550303 100.549515 12.789721 100.549515 14.699597 C 100.549515 16.40972 100.349763 21.849909 97.529792 21.849909 C 94.709821 21.849909 94.510069 16.40972 94.510069 14.699597 Z M 97.539984 3.610293 C 93.749788 3.610293 89.990166 6.630016 89.990166 14.690424 C 89.990166 22.749813 93.749788 25.769536 97.539984 25.769536 C 101.330179 25.769536 105.089801 22.749813 105.089801 14.690424 C 105.079609 6.640207 101.319988 3.620484 97.539984 3.610293 Z M 111.0895 13.460318 C 111.0895 11.550442 111.290272 6.310005 114.120434 6.310005 C 116.940405 6.310005 117.140157 11.550442 117.140157 13.460318 C 117.140157 15.170441 116.940405 20.609611 114.120434 20.609611 C 111.290272 20.609611 111.0895 15.170441 111.0895 13.460318 Z M 114.110243 2.380186 C 110.320047 2.380186 106.560425 5.399909 106.560425 13.460318 C 106.560425 21.519707 110.309855 24.549621 114.110243 24.549621 C 117.900438 24.549621 121.66006 21.529898 121.66006 13.46949 C 121.66006 5.399909 117.900438 2.380186 114.110243 2.380186 Z M 114.110243 2.380186 " stroke="#000000" stroke-width="0.257" stroke-opacity="1" stroke-miterlimit="4"/><path fill="#000000" d="M 617.726562 336.929688 C 617.726562 332.636719 620.945312 329.378906 625.125 329.378906 C 629.226562 329.378906 632.484375 332.636719 632.484375 336.929688 C 632.484375 341.300781 629.226562 344.519531 625.125 344.519531 C 620.945312 344.519531 617.726562 341.300781 617.726562 336.929688 Z M 625.125 346.015625 C 630.070312 346.015625 634.285156 342.179688 634.285156 336.929688 C 634.285156 331.71875 630.070312 327.886719 625.125 327.886719 C 620.101562 327.886719 615.886719 331.71875 615.886719 336.929688 C 615.886719 342.179688 620.101562 346.015625 625.125 346.015625 Z M 623.207031 337.621094 L 625.046875 337.621094 L 627.808594 342.179688 L 629.570312 342.179688 L 626.621094 337.582031 C 628.152344 337.390625 629.339844 336.546875 629.339844 334.707031 C 629.339844 332.636719 628.113281 331.71875 625.660156 331.71875 L 621.675781 331.71875 L 621.675781 342.179688 L 623.285156 342.179688 Z M 623.207031 336.277344 L 623.207031 333.058594 L 625.355469 333.058594 C 626.464844 333.058594 627.617188 333.289062 627.652344 334.59375 C 627.652344 336.203125 626.464844 336.316406 625.085938 336.277344 Z M 623.207031 336.277344 " fill-opacity="1" fill-rule="nonzero"/></svg>