<svg xmlns="http://www.w3.org/2000/svg" xmlns:xlink="http://www.w3.org/1999/xlink" width="1024" zoomAndPan="magnify" viewBox="0 0 768 767.999994" height="1024" preserveAspectRatio="xMidYMid meet" version="1.0"><defs><clipPath id="abe0b43a06"><path d="M 76 76.800781 L 717 76.800781 L 717 691 L 76 691 Z M 76 76.800781 " clip-rule="nonzero"/></clipPath><clipPath id="9c488f2027"><path d="M 242.921875 76.800781 L 242.921875 690.414062 C 244.722656 690.542969 246.519531 690.542969 248.320312 690.542969 L 543.949219 690.542969 L 543.949219 76.800781 Z M 590.203125 76.800781 L 543.949219 76.800781 L 543.949219 690.414062 L 544.976562 690.414062 C 619.75 690.414062 685.40625 629.386719 690.800781 554.871094 L 716.109375 212.214844 C 721.636719 137.828125 664.976562 76.800781 590.203125 76.800781 Z M 203.09375 76.800781 C 128.320312 76.800781 71.660156 137.828125 77.183594 212.34375 L 102.496094 555 C 107.890625 627.71875 170.589844 687.589844 243.050781 690.414062 L 243.050781 76.800781 Z M 203.09375 76.800781 " clip-rule="nonzero"/></clipPath><clipPath id="d1da0b7651"><path d="M 243.046875 245.6875 L 550 245.6875 L 550 443 L 243.046875 443 Z M 243.046875 245.6875 " clip-rule="nonzero"/></clipPath><clipPath id="78c49ba28f"><path d="M 543 506 L 550.546875 506 L 550.546875 513 L 543 513 Z M 543 506 " clip-rule="nonzero"/></clipPath><clipPath id="0dd79e92a5"><path d="M 305 479 L 341 479 L 341 521.6875 L 305 521.6875 Z M 305 479 " clip-rule="nonzero"/></clipPath><clipPath id="f41c59cb7c"><path d="M 243.046875 468 L 275 468 L 275 513 L 243.046875 513 Z M 243.046875 468 " clip-rule="nonzero"/></clipPath></defs><rect x="-76.8" width="921.6" fill="#ffffff" y="-76.799999" height="921.599993" fill-opacity="1"/><rect x="-76.8" width="921.6" fill="#ffffff" y="-76.799999" height="921.599993" fill-opacity="1"/><g clip-path="url(#abe0b43a06)"><g clip-path="url(#9c488f2027)"><path fill="#000000" d="M 76.800781 76.800781 L 716.089844 76.800781 L 716.089844 690.414062 L 76.800781 690.414062 Z M 76.800781 76.800781 " fill-opacity="1" fill-rule="nonzero"/></g></g><path fill="#ffffff" d="M 319.761719 386.9375 C 320.652344 386.9375 321.539062 386.894531 322.425781 386.804688 C 323.3125 386.71875 324.191406 386.589844 325.066406 386.414062 C 325.941406 386.242188 326.804688 386.023438 327.65625 385.765625 C 328.507812 385.507812 329.34375 385.207031 330.167969 384.867188 C 330.992188 384.527344 331.792969 384.148438 332.578125 383.726562 C 333.367188 383.308594 334.128906 382.851562 334.867188 382.355469 C 335.609375 381.859375 336.324219 381.332031 337.011719 380.765625 C 337.699219 380.203125 338.359375 379.605469 338.988281 378.976562 C 339.617188 378.34375 340.214844 377.6875 340.78125 376.996094 C 341.347656 376.308594 341.875 375.59375 342.371094 374.855469 C 342.867188 374.113281 343.324219 373.351562 343.742188 372.566406 C 344.164062 371.78125 344.542969 370.976562 344.882812 370.152344 C 345.226562 369.332031 345.523438 368.492188 345.785156 367.640625 C 346.042969 366.789062 346.257812 365.925781 346.433594 365.054688 C 346.605469 364.179688 346.734375 363.300781 346.824219 362.414062 C 346.910156 361.527344 346.953125 360.640625 346.953125 359.75 C 346.953125 358.859375 346.910156 357.96875 346.824219 357.082031 C 346.738281 356.199219 346.605469 355.316406 346.433594 354.445312 C 346.257812 353.570312 346.042969 352.707031 345.785156 351.855469 C 345.527344 351.003906 345.226562 350.167969 344.886719 349.34375 C 344.542969 348.519531 344.164062 347.714844 343.746094 346.929688 C 343.324219 346.144531 342.867188 345.382812 342.371094 344.640625 C 341.878906 343.902344 341.347656 343.1875 340.78125 342.5 C 340.21875 341.8125 339.621094 341.152344 338.992188 340.523438 C 338.363281 339.890625 337.703125 339.296875 337.015625 338.730469 C 336.324219 338.164062 335.609375 337.636719 334.871094 337.140625 C 334.128906 336.644531 333.367188 336.1875 332.582031 335.769531 C 331.796875 335.347656 330.992188 334.96875 330.167969 334.628906 C 329.347656 334.289062 328.507812 333.988281 327.65625 333.730469 C 326.804688 333.472656 325.941406 333.253906 325.070312 333.082031 C 324.195312 332.90625 323.316406 332.777344 322.429688 332.691406 C 321.542969 332.601562 320.65625 332.558594 319.765625 332.558594 C 318.875 332.558594 317.984375 332.601562 317.097656 332.691406 C 316.214844 332.777344 315.332031 332.90625 314.460938 333.082031 C 313.585938 333.253906 312.722656 333.472656 311.871094 333.730469 C 311.019531 333.988281 310.183594 334.289062 309.359375 334.628906 C 308.535156 334.96875 307.734375 335.351562 306.945312 335.769531 C 306.160156 336.191406 305.398438 336.648438 304.660156 337.140625 C 303.917969 337.636719 303.203125 338.167969 302.515625 338.730469 C 301.828125 339.296875 301.167969 339.894531 300.539062 340.523438 C 299.910156 341.152344 299.3125 341.8125 298.746094 342.5 C 298.183594 343.191406 297.652344 343.902344 297.15625 344.644531 C 296.664062 345.386719 296.207031 346.148438 295.785156 346.933594 C 295.367188 347.71875 294.984375 348.523438 294.644531 349.347656 C 294.304688 350.167969 294.003906 351.007812 293.746094 351.859375 C 293.488281 352.710938 293.273438 353.574219 293.097656 354.445312 C 292.925781 355.320312 292.792969 356.199219 292.707031 357.085938 C 292.621094 357.972656 292.578125 358.859375 292.578125 359.75 C 292.578125 360.640625 292.621094 361.53125 292.707031 362.414062 C 292.796875 363.300781 292.925781 364.179688 293.101562 365.054688 C 293.273438 365.929688 293.488281 366.789062 293.75 367.640625 C 294.007812 368.496094 294.304688 369.332031 294.648438 370.152344 C 294.988281 370.976562 295.367188 371.78125 295.789062 372.566406 C 296.207031 373.351562 296.664062 374.113281 297.160156 374.855469 C 297.652344 375.59375 298.183594 376.308594 298.75 376.996094 C 299.3125 377.683594 299.910156 378.34375 300.539062 378.972656 C 301.167969 379.601562 301.828125 380.199219 302.515625 380.765625 C 303.207031 381.328125 303.917969 381.859375 304.660156 382.355469 C 305.398438 382.847656 306.164062 383.304688 306.949219 383.726562 C 307.734375 384.144531 308.535156 384.523438 309.359375 384.867188 C 310.183594 385.207031 311.019531 385.507812 311.871094 385.765625 C 312.722656 386.023438 313.585938 386.238281 314.457031 386.414062 C 315.332031 386.585938 316.210938 386.71875 317.097656 386.804688 C 317.984375 386.890625 318.871094 386.9375 319.761719 386.9375 Z M 319.761719 386.9375 " fill-opacity="1" fill-rule="nonzero"/><path fill="#ffffff" d="M 500.222656 359.75 C 500.222656 360.640625 500.179688 361.53125 500.09375 362.417969 C 500.003906 363.300781 499.875 364.183594 499.699219 365.054688 C 499.527344 365.929688 499.3125 366.792969 499.050781 367.644531 C 498.792969 368.496094 498.496094 369.332031 498.152344 370.15625 C 497.8125 370.980469 497.433594 371.78125 497.011719 372.566406 C 496.59375 373.351562 496.136719 374.117188 495.640625 374.855469 C 495.148438 375.597656 494.617188 376.3125 494.050781 377 C 493.488281 377.6875 492.890625 378.347656 492.261719 378.976562 C 491.628906 379.605469 490.972656 380.203125 490.28125 380.769531 C 489.59375 381.332031 488.878906 381.863281 488.140625 382.359375 C 487.398438 382.851562 486.636719 383.308594 485.851562 383.730469 C 485.066406 384.148438 484.261719 384.53125 483.4375 384.871094 C 482.617188 385.210938 481.777344 385.511719 480.925781 385.769531 C 480.074219 386.027344 479.210938 386.242188 478.339844 386.417969 C 477.464844 386.589844 476.585938 386.722656 475.699219 386.808594 C 474.8125 386.898438 473.925781 386.941406 473.035156 386.941406 C 472.144531 386.941406 471.253906 386.898438 470.371094 386.808594 C 469.484375 386.722656 468.605469 386.589844 467.730469 386.417969 C 466.855469 386.242188 465.996094 386.027344 465.140625 385.769531 C 464.289062 385.511719 463.453125 385.210938 462.628906 384.871094 C 461.808594 384.53125 461.003906 384.148438 460.21875 383.730469 C 459.433594 383.308594 458.667969 382.851562 457.929688 382.359375 C 457.1875 381.863281 456.472656 381.332031 455.785156 380.769531 C 455.097656 380.203125 454.4375 379.605469 453.808594 378.976562 C 453.179688 378.347656 452.582031 377.6875 452.015625 377 C 451.453125 376.3125 450.921875 375.597656 450.429688 374.855469 C 449.933594 374.117188 449.476562 373.351562 449.054688 372.566406 C 448.636719 371.78125 448.257812 370.980469 447.914062 370.15625 C 447.574219 369.332031 447.273438 368.496094 447.015625 367.644531 C 446.757812 366.792969 446.542969 365.929688 446.367188 365.054688 C 446.195312 364.183594 446.0625 363.300781 445.976562 362.417969 C 445.890625 361.53125 445.847656 360.640625 445.847656 359.75 C 445.847656 358.859375 445.890625 357.972656 445.976562 357.085938 C 446.0625 356.199219 446.195312 355.320312 446.367188 354.445312 C 446.542969 353.574219 446.757812 352.710938 447.015625 351.859375 C 447.273438 351.007812 447.574219 350.167969 447.914062 349.347656 C 448.257812 348.523438 448.636719 347.71875 449.054688 346.933594 C 449.476562 346.148438 449.933594 345.386719 450.429688 344.644531 C 450.921875 343.90625 451.453125 343.191406 452.015625 342.503906 C 452.582031 341.816406 453.179688 341.15625 453.808594 340.527344 C 454.4375 339.894531 455.097656 339.300781 455.785156 338.734375 C 456.472656 338.167969 457.1875 337.640625 457.929688 337.144531 C 458.667969 336.648438 459.433594 336.191406 460.21875 335.773438 C 461.003906 335.351562 461.808594 334.972656 462.628906 334.632812 C 463.453125 334.292969 464.289062 333.992188 465.140625 333.734375 C 465.996094 333.476562 466.855469 333.257812 467.730469 333.085938 C 468.605469 332.910156 469.484375 332.78125 470.371094 332.695312 C 471.253906 332.605469 472.144531 332.5625 473.035156 332.5625 C 473.925781 332.5625 474.8125 332.605469 475.699219 332.695312 C 476.585938 332.78125 477.464844 332.910156 478.339844 333.085938 C 479.210938 333.257812 480.074219 333.476562 480.925781 333.734375 C 481.777344 333.992188 482.617188 334.292969 483.4375 334.632812 C 484.261719 334.972656 485.066406 335.351562 485.851562 335.773438 C 486.636719 336.191406 487.398438 336.648438 488.140625 337.144531 C 488.878906 337.640625 489.59375 338.167969 490.28125 338.734375 C 490.972656 339.300781 491.628906 339.894531 492.261719 340.527344 C 492.890625 341.15625 493.488281 341.816406 494.050781 342.503906 C 494.617188 343.191406 495.148438 343.90625 495.640625 344.644531 C 496.136719 345.386719 496.59375 346.148438 497.011719 346.933594 C 497.433594 347.71875 497.8125 348.523438 498.152344 349.347656 C 498.496094 350.167969 498.792969 351.007812 499.050781 351.859375 C 499.3125 352.710938 499.527344 353.574219 499.699219 354.445312 C 499.875 355.320312 500.003906 356.199219 500.09375 357.085938 C 500.179688 357.972656 500.222656 358.859375 500.222656 359.75 Z M 500.222656 359.75 " fill-opacity="1" fill-rule="nonzero"/><g clip-path="url(#d1da0b7651)"><path fill="#ffffff" d="M 243.128906 359.75 C 243.128906 402.082031 277.4375 436.386719 319.761719 436.386719 C 324.550781 436.390625 329.296875 435.953125 334 435.066406 C 338.703125 434.179688 343.285156 432.863281 347.742188 431.113281 C 352.199219 429.367188 356.453125 427.21875 360.507812 424.671875 C 364.558594 422.121094 368.339844 419.21875 371.84375 415.957031 L 396.410156 442.691406 L 420.976562 415.972656 C 424.484375 419.230469 428.261719 422.132812 432.316406 424.679688 C 436.367188 427.222656 440.621094 429.371094 445.074219 431.117188 C 449.53125 432.863281 454.109375 434.179688 458.8125 435.066406 C 463.515625 435.949219 468.261719 436.390625 473.046875 436.382812 C 515.375 436.382812 549.714844 402.070312 549.714844 359.746094 C 549.71875 357.089844 549.582031 354.4375 549.308594 351.792969 C 549.035156 349.148438 548.625 346.527344 548.074219 343.925781 C 547.527344 341.324219 546.847656 338.757812 546.03125 336.226562 C 545.214844 333.695312 544.273438 331.214844 543.199219 328.785156 C 542.125 326.351562 540.925781 323.980469 539.605469 321.675781 C 538.285156 319.367188 536.847656 317.136719 535.292969 314.980469 C 533.738281 312.820312 532.078125 310.75 530.308594 308.769531 C 528.539062 306.785156 526.667969 304.898438 524.703125 303.109375 L 549.777344 275.828125 L 494.1875 275.828125 C 490.613281 273.394531 486.949219 271.097656 483.203125 268.9375 C 479.453125 266.777344 475.632812 264.761719 471.734375 262.886719 C 467.835938 261.011719 463.871094 259.285156 459.84375 257.707031 C 455.816406 256.128906 451.738281 254.703125 447.601562 253.429688 C 443.46875 252.15625 439.292969 251.039062 435.078125 250.078125 C 430.859375 249.117188 426.613281 248.316406 422.335938 247.671875 C 418.058594 247.027344 413.761719 246.546875 409.449219 246.222656 C 405.136719 245.898438 400.816406 245.738281 396.492188 245.738281 C 392.164062 245.738281 387.847656 245.898438 383.53125 246.222656 C 379.21875 246.546875 374.925781 247.027344 370.648438 247.671875 C 366.371094 248.316406 362.121094 249.117188 357.90625 250.078125 C 353.6875 251.039062 349.511719 252.15625 345.378906 253.429688 C 341.246094 254.703125 337.164062 256.128906 333.136719 257.707031 C 329.109375 259.285156 325.148438 261.011719 321.25 262.886719 C 317.351562 264.761719 313.527344 266.777344 309.78125 268.9375 C 306.03125 271.097656 302.371094 273.394531 298.792969 275.828125 L 243.046875 275.828125 L 268.125 303.109375 C 266.15625 304.898438 264.289062 306.785156 262.519531 308.769531 C 260.75 310.753906 259.089844 312.824219 257.535156 314.980469 C 255.984375 317.136719 254.546875 319.371094 253.226562 321.679688 C 251.90625 323.984375 250.707031 326.355469 249.636719 328.785156 C 248.5625 331.21875 247.617188 333.699219 246.804688 336.230469 C 245.988281 338.761719 245.308594 341.328125 244.761719 343.929688 C 244.214844 346.53125 243.804688 349.152344 243.53125 351.796875 C 243.257812 354.441406 243.125 357.09375 243.128906 359.75 Z M 524.898438 359.75 C 524.898438 361.449219 524.816406 363.144531 524.648438 364.835938 C 524.484375 366.523438 524.234375 368.203125 523.902344 369.871094 C 523.570312 371.535156 523.160156 373.179688 522.664062 374.808594 C 522.171875 376.433594 521.601562 378.03125 520.949219 379.597656 C 520.300781 381.167969 519.574219 382.703125 518.773438 384.199219 C 517.972656 385.699219 517.101562 387.152344 516.15625 388.566406 C 515.214844 389.976562 514.203125 391.339844 513.125 392.652344 C 512.046875 393.96875 510.910156 395.222656 509.707031 396.425781 C 508.507812 397.625 507.25 398.765625 505.9375 399.84375 C 504.625 400.921875 503.261719 401.929688 501.847656 402.875 C 500.4375 403.820312 498.980469 404.691406 497.484375 405.492188 C 495.984375 406.292969 494.453125 407.019531 492.882812 407.667969 C 491.3125 408.316406 489.714844 408.890625 488.089844 409.382812 C 486.464844 409.875 484.820312 410.289062 483.152344 410.617188 C 481.488281 410.949219 479.808594 411.199219 478.117188 411.367188 C 476.425781 411.53125 474.734375 411.617188 473.035156 411.617188 C 471.335938 411.617188 469.640625 411.53125 467.949219 411.367188 C 466.261719 411.199219 464.582031 410.949219 462.917969 410.617188 C 461.25 410.289062 459.605469 409.875 457.980469 409.382812 C 456.355469 408.890625 454.757812 408.316406 453.1875 407.667969 C 451.617188 407.019531 450.082031 406.292969 448.585938 405.492188 C 447.085938 404.691406 445.632812 403.820312 444.21875 402.875 C 442.808594 401.929688 441.445312 400.921875 440.132812 399.84375 C 438.820312 398.765625 437.5625 397.625 436.359375 396.425781 C 435.160156 395.222656 434.019531 393.964844 432.941406 392.652344 C 431.863281 391.339844 430.855469 389.976562 429.910156 388.566406 C 428.96875 387.152344 428.09375 385.699219 427.292969 384.199219 C 426.492188 382.703125 425.769531 381.167969 425.117188 379.597656 C 424.46875 378.03125 423.898438 376.433594 423.402344 374.808594 C 422.910156 373.179688 422.5 371.535156 422.167969 369.871094 C 421.835938 368.203125 421.585938 366.523438 421.417969 364.835938 C 421.253906 363.144531 421.171875 361.449219 421.171875 359.75 C 421.171875 358.050781 421.253906 356.359375 421.417969 354.667969 C 421.585938 352.976562 421.835938 351.300781 422.167969 349.632812 C 422.5 347.96875 422.910156 346.320312 423.402344 344.695312 C 423.894531 343.070312 424.46875 341.472656 425.117188 339.902344 C 425.769531 338.335938 426.492188 336.800781 427.292969 335.300781 C 428.09375 333.804688 428.96875 332.347656 429.910156 330.9375 C 430.855469 329.523438 431.863281 328.160156 432.941406 326.847656 C 434.019531 325.535156 435.160156 324.277344 436.359375 323.078125 C 437.5625 321.875 438.820312 320.738281 440.132812 319.660156 C 441.445312 318.582031 442.808594 317.570312 444.21875 316.628906 C 445.632812 315.683594 447.085938 314.8125 448.585938 314.011719 C 450.082031 313.210938 451.617188 312.484375 453.1875 311.835938 C 454.757812 311.183594 456.355469 310.613281 457.980469 310.121094 C 459.605469 309.628906 461.25 309.214844 462.917969 308.882812 C 464.582031 308.550781 466.261719 308.304688 467.949219 308.136719 C 469.640625 307.96875 471.335938 307.886719 473.035156 307.886719 C 474.734375 307.886719 476.425781 307.96875 478.117188 308.136719 C 479.808594 308.304688 481.488281 308.550781 483.152344 308.882812 C 484.820312 309.214844 486.464844 309.628906 488.089844 310.121094 C 489.714844 310.613281 491.3125 311.183594 492.882812 311.835938 C 494.453125 312.484375 495.984375 313.210938 497.484375 314.011719 C 498.980469 314.8125 500.4375 315.683594 501.847656 316.628906 C 503.261719 317.570312 504.625 318.582031 505.9375 319.660156 C 507.25 320.738281 508.507812 321.875 509.707031 323.078125 C 510.910156 324.277344 512.046875 325.535156 513.125 326.847656 C 514.203125 328.160156 515.214844 329.523438 516.160156 330.9375 C 517.101562 332.347656 517.972656 333.804688 518.773438 335.300781 C 519.574219 336.800781 520.300781 338.335938 520.949219 339.902344 C 521.601562 341.472656 522.171875 343.070312 522.664062 344.695312 C 523.160156 346.320312 523.570312 347.96875 523.902344 349.632812 C 524.234375 351.300781 524.484375 352.976562 524.648438 354.667969 C 524.816406 356.359375 524.898438 358.050781 524.898438 359.75 Z M 396.398438 270.8125 C 406.285156 270.800781 416.070312 271.761719 425.761719 273.699219 C 435.453125 275.636719 444.859375 278.511719 453.980469 282.324219 C 421.246094 294.847656 396.425781 324.128906 396.425781 358.253906 C 396.425781 324.125 371.601562 294.839844 338.863281 282.320312 C 347.976562 278.511719 357.375 275.636719 367.058594 273.699219 C 376.742188 271.765625 386.523438 270.800781 396.398438 270.8125 Z M 319.761719 307.886719 C 321.460938 307.886719 323.15625 307.96875 324.84375 308.136719 C 326.535156 308.304688 328.214844 308.550781 329.878906 308.882812 C 331.546875 309.214844 333.191406 309.628906 334.816406 310.121094 C 336.441406 310.613281 338.039062 311.183594 339.609375 311.835938 C 341.179688 312.484375 342.710938 313.210938 344.210938 314.011719 C 345.707031 314.8125 347.164062 315.683594 348.578125 316.628906 C 349.988281 317.570312 351.351562 318.582031 352.664062 319.660156 C 353.976562 320.738281 355.234375 321.875 356.4375 323.078125 C 357.636719 324.277344 358.777344 325.535156 359.855469 326.847656 C 360.929688 328.160156 361.941406 329.523438 362.886719 330.9375 C 363.828125 332.347656 364.703125 333.804688 365.503906 335.300781 C 366.304688 336.800781 367.027344 338.335938 367.679688 339.902344 C 368.328125 341.472656 368.898438 343.070312 369.394531 344.695312 C 369.886719 346.320312 370.296875 347.96875 370.628906 349.632812 C 370.960938 351.300781 371.210938 352.976562 371.375 354.667969 C 371.542969 356.359375 371.625 358.050781 371.625 359.75 C 371.625 361.449219 371.542969 363.144531 371.375 364.835938 C 371.210938 366.523438 370.960938 368.203125 370.628906 369.871094 C 370.296875 371.535156 369.886719 373.179688 369.394531 374.808594 C 368.898438 376.433594 368.328125 378.03125 367.679688 379.597656 C 367.027344 381.167969 366.304688 382.703125 365.503906 384.199219 C 364.703125 385.699219 363.828125 387.152344 362.886719 388.566406 C 361.941406 389.976562 360.929688 391.339844 359.855469 392.652344 C 358.777344 393.964844 357.636719 395.222656 356.4375 396.425781 C 355.234375 397.625 353.976562 398.765625 352.664062 399.84375 C 351.351562 400.921875 349.988281 401.929688 348.578125 402.875 C 347.164062 403.820312 345.707031 404.691406 344.210938 405.492188 C 342.710938 406.292969 341.179688 407.019531 339.609375 407.667969 C 338.039062 408.316406 336.441406 408.890625 334.816406 409.382812 C 333.191406 409.875 331.546875 410.289062 329.878906 410.617188 C 328.214844 410.949219 326.535156 411.199219 324.84375 411.367188 C 323.15625 411.53125 321.460938 411.617188 319.761719 411.617188 C 318.0625 411.617188 316.367188 411.53125 314.679688 411.367188 C 312.988281 411.199219 311.308594 410.949219 309.644531 410.617188 C 307.976562 410.289062 306.332031 409.875 304.707031 409.382812 C 303.082031 408.890625 301.484375 408.316406 299.914062 407.667969 C 298.34375 407.019531 296.8125 406.292969 295.3125 405.492188 C 293.816406 404.691406 292.359375 403.820312 290.949219 402.875 C 289.535156 401.929688 288.171875 400.921875 286.859375 399.84375 C 285.546875 398.765625 284.289062 397.625 283.089844 396.425781 C 281.886719 395.222656 280.746094 393.96875 279.671875 392.652344 C 278.59375 391.339844 277.582031 389.976562 276.636719 388.566406 C 275.695312 387.152344 274.824219 385.699219 274.023438 384.199219 C 273.222656 382.703125 272.496094 381.167969 271.84375 379.597656 C 271.195312 378.03125 270.625 376.433594 270.128906 374.808594 C 269.636719 373.179688 269.226562 371.535156 268.894531 369.871094 C 268.5625 368.203125 268.3125 366.523438 268.148438 364.835938 C 267.980469 363.144531 267.898438 361.449219 267.898438 359.75 C 267.898438 358.050781 267.980469 356.359375 268.148438 354.667969 C 268.3125 352.976562 268.5625 351.300781 268.894531 349.632812 C 269.226562 347.96875 269.636719 346.320312 270.128906 344.695312 C 270.625 343.070312 271.195312 341.472656 271.84375 339.902344 C 272.496094 338.335938 273.222656 336.800781 274.023438 335.300781 C 274.824219 333.804688 275.695312 332.347656 276.636719 330.9375 C 277.582031 329.523438 278.59375 328.160156 279.671875 326.847656 C 280.746094 325.535156 281.886719 324.277344 283.089844 323.078125 C 284.289062 321.875 285.546875 320.738281 286.859375 319.660156 C 288.171875 318.582031 289.535156 317.570312 290.949219 316.628906 C 292.359375 315.683594 293.816406 314.8125 295.3125 314.011719 C 296.8125 313.210938 298.34375 312.484375 299.914062 311.835938 C 301.484375 311.183594 303.082031 310.613281 304.707031 310.121094 C 306.332031 309.628906 307.976562 309.214844 309.644531 308.882812 C 311.308594 308.550781 312.988281 308.304688 314.679688 308.136719 C 316.367188 307.96875 318.0625 307.886719 319.761719 307.886719 Z M 319.761719 307.886719 " fill-opacity="1" fill-rule="nonzero"/></g><g clip-path="url(#78c49ba28f)"><path fill="#ffffff" d="M 547.109375 506.277344 C 546.695312 506.277344 546.296875 506.355469 545.910156 506.515625 C 545.527344 506.675781 545.1875 506.902344 544.894531 507.195312 C 544.601562 507.488281 544.375 507.828125 544.214844 508.210938 C 544.058594 508.59375 543.976562 508.996094 543.976562 509.410156 C 543.976562 509.828125 544.058594 510.226562 544.214844 510.609375 C 544.375 510.992188 544.601562 511.332031 544.894531 511.625 C 545.1875 511.921875 545.527344 512.144531 545.910156 512.304688 C 546.296875 512.464844 546.695312 512.542969 547.109375 512.542969 C 547.527344 512.542969 547.925781 512.464844 548.308594 512.304688 C 548.691406 512.144531 549.03125 511.921875 549.324219 511.625 C 549.621094 511.332031 549.847656 510.992188 550.003906 510.609375 C 550.164062 510.226562 550.242188 509.828125 550.242188 509.410156 C 550.242188 508.996094 550.164062 508.597656 550.003906 508.210938 C 549.84375 507.828125 549.617188 507.488281 549.324219 507.195312 C 549.03125 506.902344 548.691406 506.675781 548.308594 506.515625 C 547.925781 506.359375 547.527344 506.277344 547.109375 506.277344 Z M 547.109375 512.050781 C 546.757812 512.050781 546.421875 511.984375 546.097656 511.851562 C 545.773438 511.71875 545.488281 511.527344 545.238281 511.277344 C 544.992188 511.03125 544.800781 510.742188 544.667969 510.417969 C 544.53125 510.09375 544.464844 509.757812 544.464844 509.40625 C 544.464844 509.054688 544.53125 508.71875 544.667969 508.394531 C 544.800781 508.070312 544.992188 507.785156 545.238281 507.535156 C 545.488281 507.289062 545.773438 507.097656 546.097656 506.964844 C 546.421875 506.828125 546.757812 506.761719 547.109375 506.761719 C 547.460938 506.761719 547.796875 506.828125 548.121094 506.964844 C 548.445312 507.097656 548.734375 507.289062 548.980469 507.535156 C 549.230469 507.785156 549.421875 508.070312 549.554688 508.394531 C 549.6875 508.71875 549.757812 509.054688 549.757812 509.40625 C 549.757812 509.757812 549.6875 510.09375 549.554688 510.417969 C 549.421875 510.742188 549.230469 511.03125 548.980469 511.277344 C 548.734375 511.527344 548.445312 511.71875 548.121094 511.851562 C 547.796875 511.984375 547.460938 512.050781 547.109375 512.050781 Z M 547.109375 512.050781 " fill-opacity="1" fill-rule="nonzero"/></g><path fill="#ffffff" d="M 548.128906 508.878906 C 548.128906 508.75 548.105469 508.625 548.054688 508.503906 C 548.003906 508.386719 547.929688 508.285156 547.835938 508.195312 C 547.738281 508.109375 547.628906 508.046875 547.507812 508.007812 C 547.382812 507.96875 547.257812 507.957031 547.128906 507.972656 L 546.128906 507.972656 L 546.128906 510.820312 L 546.617188 510.820312 L 546.617188 509.785156 L 547.152344 509.785156 L 547.667969 510.820312 L 548.203125 510.820312 L 547.632812 509.6875 C 547.792969 509.617188 547.917969 509.507812 548.007812 509.359375 C 548.097656 509.210938 548.136719 509.050781 548.128906 508.878906 Z M 547.105469 509.351562 L 546.617188 509.351562 L 546.617188 508.40625 L 547.105469 508.40625 C 547.433594 508.40625 547.636719 508.570312 547.636719 508.878906 C 547.636719 509.183594 547.433594 509.351562 547.105469 509.351562 Z M 547.105469 509.351562 " fill-opacity="1" fill-rule="nonzero"/><path fill="#ffffff" d="M 278.945312 485.339844 L 278.945312 479.941406 L 270.679688 479.941406 L 270.679688 512.066406 L 278.957031 512.066406 L 278.957031 492.800781 C 278.957031 489.3125 281.195312 487.601562 284.683594 487.601562 L 289.21875 487.601562 L 289.21875 479.941406 L 285.328125 479.941406 C 282.300781 479.941406 279.667969 481.523438 278.945312 485.339844 Z M 278.945312 485.339844 " fill-opacity="1" fill-rule="nonzero"/><path fill="#ffffff" d="M 296.949219 467.25 C 296.617188 467.246094 296.292969 467.277344 295.96875 467.339844 C 295.640625 467.402344 295.328125 467.492188 295.019531 467.617188 C 294.714844 467.742188 294.421875 467.894531 294.148438 468.078125 C 293.871094 468.257812 293.617188 468.464844 293.378906 468.699219 C 293.144531 468.929688 292.933594 469.183594 292.75 469.457031 C 292.5625 469.730469 292.40625 470.019531 292.277344 470.324219 C 292.148438 470.628906 292.050781 470.941406 291.984375 471.265625 C 291.917969 471.589844 291.882812 471.917969 291.882812 472.25 C 291.878906 472.578125 291.910156 472.90625 291.972656 473.230469 C 292.035156 473.554688 292.128906 473.871094 292.25 474.175781 C 292.375 474.484375 292.53125 474.773438 292.710938 475.050781 C 292.894531 475.328125 293.101562 475.582031 293.332031 475.816406 C 293.5625 476.054688 293.816406 476.261719 294.089844 476.449219 C 294.363281 476.632812 294.652344 476.792969 294.957031 476.921875 C 295.261719 477.046875 295.578125 477.144531 295.898438 477.210938 C 296.222656 477.28125 296.550781 477.3125 296.882812 477.316406 C 297.210938 477.320312 297.539062 477.289062 297.863281 477.226562 C 298.1875 477.164062 298.503906 477.070312 298.8125 476.945312 C 299.117188 476.820312 299.40625 476.667969 299.683594 476.488281 C 299.960938 476.304688 300.214844 476.097656 300.453125 475.867188 C 300.6875 475.632812 300.898438 475.378906 301.082031 475.105469 C 301.269531 474.832031 301.425781 474.542969 301.554688 474.238281 C 301.683594 473.933594 301.78125 473.621094 301.847656 473.296875 C 301.914062 472.972656 301.949219 472.648438 301.949219 472.316406 C 301.957031 471.984375 301.929688 471.65625 301.871094 471.328125 C 301.8125 471.003906 301.71875 470.683594 301.597656 470.378906 C 301.472656 470.070312 301.320312 469.777344 301.140625 469.5 C 300.960938 469.21875 300.75 468.964844 300.519531 468.726562 C 300.285156 468.492188 300.03125 468.28125 299.757812 468.09375 C 299.480469 467.910156 299.191406 467.753906 298.882812 467.625 C 298.578125 467.5 298.261719 467.40625 297.9375 467.339844 C 297.609375 467.277344 297.28125 467.246094 296.949219 467.25 Z M 296.949219 467.25 " fill-opacity="1" fill-rule="nonzero"/><path fill="#ffffff" d="M 292.824219 479.941406 L 301.078125 479.941406 L 301.078125 512.050781 L 292.824219 512.050781 Z M 292.824219 479.941406 " fill-opacity="1" fill-rule="nonzero"/><g clip-path="url(#0dd79e92a5)"><path fill="#ffffff" d="M 323.804688 479.402344 C 322.046875 479.394531 320.332031 479.667969 318.664062 480.226562 C 316.996094 480.785156 315.460938 481.59375 314.0625 482.660156 L 314.0625 479.941406 L 305.828125 479.941406 L 305.828125 521.476562 L 314.082031 521.476562 L 314.082031 509.335938 C 315.480469 510.398438 317.011719 511.210938 318.675781 511.769531 C 320.339844 512.328125 322.050781 512.605469 323.804688 512.601562 C 324.347656 512.601562 324.890625 512.574219 325.433594 512.519531 C 325.972656 512.46875 326.511719 512.386719 327.042969 512.28125 C 327.578125 512.175781 328.101562 512.042969 328.625 511.886719 C 329.144531 511.726562 329.65625 511.546875 330.15625 511.335938 C 330.660156 511.128906 331.148438 510.898438 331.628906 510.640625 C 332.109375 510.386719 332.574219 510.105469 333.027344 509.804688 C 333.476562 509.5 333.914062 509.179688 334.332031 508.832031 C 334.753906 508.488281 335.15625 508.125 335.539062 507.738281 C 335.925781 507.355469 336.289062 506.953125 336.632812 506.535156 C 336.980469 506.113281 337.300781 505.675781 337.605469 505.226562 C 337.90625 504.773438 338.183594 504.308594 338.441406 503.828125 C 338.699219 503.347656 338.929688 502.859375 339.136719 502.355469 C 339.347656 501.855469 339.527344 501.34375 339.6875 500.824219 C 339.84375 500.300781 339.976562 499.777344 340.082031 499.242188 C 340.1875 498.710938 340.269531 498.171875 340.320312 497.632812 C 340.375 497.089844 340.402344 496.550781 340.402344 496.003906 C 340.402344 495.460938 340.375 494.917969 340.320312 494.378906 C 340.269531 493.839844 340.1875 493.300781 340.082031 492.769531 C 339.976562 492.234375 339.84375 491.707031 339.6875 491.1875 C 339.527344 490.667969 339.347656 490.15625 339.136719 489.65625 C 338.929688 489.152344 338.699219 488.660156 338.441406 488.183594 C 338.183594 487.703125 337.90625 487.238281 337.605469 486.785156 C 337.300781 486.332031 336.980469 485.898438 336.632812 485.476562 C 336.289062 485.058594 335.925781 484.65625 335.539062 484.269531 C 335.15625 483.886719 334.753906 483.523438 334.332031 483.175781 C 333.914062 482.832031 333.476562 482.507812 333.027344 482.207031 C 332.574219 481.90625 332.109375 481.625 331.628906 481.371094 C 331.148438 481.113281 330.660156 480.882812 330.15625 480.671875 C 329.65625 480.464844 329.144531 480.28125 328.625 480.125 C 328.101562 479.96875 327.578125 479.835938 327.042969 479.730469 C 326.511719 479.621094 325.972656 479.542969 325.433594 479.488281 C 324.890625 479.4375 324.347656 479.410156 323.804688 479.410156 Z M 323.078125 505.011719 C 322.484375 505.011719 321.898438 504.953125 321.316406 504.839844 C 320.734375 504.722656 320.171875 504.550781 319.625 504.324219 C 319.078125 504.097656 318.558594 503.820312 318.066406 503.492188 C 317.574219 503.164062 317.117188 502.789062 316.699219 502.371094 C 316.28125 501.953125 315.90625 501.496094 315.578125 501.003906 C 315.25 500.511719 314.972656 499.992188 314.746094 499.445312 C 314.519531 498.898438 314.347656 498.332031 314.230469 497.753906 C 314.117188 497.171875 314.058594 496.585938 314.058594 495.992188 C 314.058594 495.402344 314.117188 494.8125 314.230469 494.234375 C 314.347656 493.652344 314.519531 493.089844 314.746094 492.542969 C 314.972656 491.996094 315.25 491.476562 315.578125 490.984375 C 315.910156 490.492188 316.28125 490.035156 316.703125 489.617188 C 317.121094 489.199219 317.574219 488.824219 318.066406 488.496094 C 318.5625 488.167969 319.082031 487.886719 319.628906 487.660156 C 320.175781 487.4375 320.738281 487.265625 321.320312 487.148438 C 321.898438 487.035156 322.488281 486.976562 323.078125 486.976562 C 323.671875 486.976562 324.257812 487.035156 324.839844 487.148438 C 325.417969 487.265625 325.984375 487.4375 326.53125 487.664062 C 327.078125 487.890625 327.597656 488.167969 328.089844 488.496094 C 328.582031 488.828125 329.035156 489.199219 329.457031 489.621094 C 329.875 490.039062 330.246094 490.496094 330.574219 490.988281 C 330.90625 491.480469 331.183594 492 331.410156 492.546875 C 331.636719 493.09375 331.804688 493.65625 331.921875 494.238281 C 332.035156 494.820312 332.09375 495.40625 332.09375 495.996094 C 332.09375 496.589844 332.035156 497.175781 331.921875 497.757812 C 331.804688 498.335938 331.632812 498.902344 331.40625 499.449219 C 331.179688 499.996094 330.902344 500.515625 330.574219 501.007812 C 330.246094 501.5 329.871094 501.953125 329.453125 502.371094 C 329.035156 502.792969 328.578125 503.164062 328.085938 503.492188 C 327.59375 503.824219 327.074219 504.101562 326.527344 504.328125 C 325.980469 504.554688 325.417969 504.722656 324.835938 504.839844 C 324.253906 504.953125 323.667969 505.011719 323.078125 505.011719 Z M 323.078125 505.011719 " fill-opacity="1" fill-rule="nonzero"/></g><path fill="#ffffff" d="M 483.890625 493.183594 L 479.074219 491.859375 C 475.90625 491.035156 474.671875 490.058594 474.671875 488.386719 C 474.671875 486.710938 476.40625 485.617188 478.890625 485.617188 C 481.253906 485.617188 483.105469 487.164062 483.105469 489.140625 L 483.105469 489.328125 L 490.714844 489.328125 L 490.714844 489.140625 C 490.714844 483.3125 485.964844 479.402344 478.890625 479.402344 C 471.882812 479.402344 466.792969 483.3125 466.792969 488.703125 C 466.792969 492.894531 469.578125 496.054688 474.421875 497.367188 L 479.035156 498.617188 C 482.539062 499.589844 483.839844 500.664062 483.839844 502.59375 C 483.839844 504.625 481.949219 505.996094 479.15625 505.996094 C 476.230469 505.996094 474.269531 504.144531 474.269531 501.398438 L 474.269531 501.214844 L 466.195312 501.214844 L 466.195312 501.398438 C 466.195312 507.984375 471.484375 512.585938 479.089844 512.585938 C 486.40625 512.585938 491.714844 508.09375 491.714844 501.902344 C 491.714844 498.878906 490.359375 494.90625 483.890625 493.183594 Z M 483.890625 493.183594 " fill-opacity="1" fill-rule="nonzero"/><path fill="#ffffff" d="M 369.699219 482.660156 C 368.300781 481.59375 366.765625 480.785156 365.097656 480.226562 C 363.429688 479.667969 361.714844 479.394531 359.957031 479.402344 C 359.410156 479.402344 358.871094 479.429688 358.328125 479.484375 C 357.789062 479.535156 357.25 479.617188 356.71875 479.722656 C 356.183594 479.828125 355.660156 479.960938 355.136719 480.117188 C 354.617188 480.273438 354.105469 480.457031 353.605469 480.664062 C 353.101562 480.875 352.613281 481.105469 352.132812 481.363281 C 351.652344 481.617188 351.1875 481.898438 350.734375 482.199219 C 350.285156 482.5 349.847656 482.824219 349.425781 483.167969 C 349.007812 483.515625 348.605469 483.878906 348.222656 484.261719 C 347.835938 484.648438 347.472656 485.050781 347.128906 485.46875 C 346.78125 485.890625 346.460938 486.324219 346.15625 486.777344 C 345.855469 487.230469 345.574219 487.695312 345.320312 488.175781 C 345.0625 488.652344 344.832031 489.144531 344.625 489.648438 C 344.414062 490.148438 344.234375 490.660156 344.074219 491.179688 C 343.917969 491.699219 343.785156 492.226562 343.679688 492.761719 C 343.574219 493.292969 343.492188 493.832031 343.441406 494.371094 C 343.386719 494.914062 343.359375 495.453125 343.359375 495.996094 C 343.359375 496.542969 343.386719 497.082031 343.441406 497.625 C 343.492188 498.164062 343.574219 498.703125 343.679688 499.234375 C 343.785156 499.769531 343.917969 500.296875 344.074219 500.816406 C 344.234375 501.335938 344.414062 501.847656 344.625 502.347656 C 344.832031 502.851562 345.0625 503.339844 345.320312 503.820312 C 345.574219 504.300781 345.855469 504.765625 346.15625 505.21875 C 346.460938 505.667969 346.78125 506.105469 347.128906 506.527344 C 347.472656 506.945312 347.835938 507.347656 348.222656 507.734375 C 348.605469 508.117188 349.007812 508.480469 349.425781 508.824219 C 349.847656 509.171875 350.285156 509.496094 350.734375 509.796875 C 351.1875 510.097656 351.652344 510.378906 352.132812 510.632812 C 352.613281 510.890625 353.101562 511.121094 353.605469 511.328125 C 354.105469 511.539062 354.617188 511.722656 355.136719 511.878906 C 355.660156 512.035156 356.183594 512.167969 356.71875 512.273438 C 357.25 512.378906 357.789062 512.460938 358.328125 512.511719 C 358.871094 512.566406 359.410156 512.59375 359.957031 512.59375 C 361.714844 512.601562 363.429688 512.328125 365.097656 511.769531 C 366.765625 511.210938 368.296875 510.398438 369.699219 509.335938 L 369.699219 512.050781 L 377.953125 512.050781 L 377.953125 479.929688 L 369.699219 479.929688 Z M 369.699219 495.996094 C 369.699219 496.589844 369.640625 497.175781 369.527344 497.757812 C 369.410156 498.339844 369.238281 498.902344 369.011719 499.449219 C 368.785156 499.996094 368.507812 500.515625 368.179688 501.007812 C 367.851562 501.5 367.476562 501.957031 367.058594 502.375 C 366.636719 502.792969 366.183594 503.167969 365.691406 503.496094 C 365.199219 503.824219 364.679688 504.101562 364.132812 504.328125 C 363.585938 504.554688 363.019531 504.726562 362.4375 504.84375 C 361.859375 504.957031 361.273438 505.015625 360.679688 505.015625 C 360.085938 505.015625 359.5 504.957031 358.921875 504.84375 C 358.339844 504.726562 357.777344 504.554688 357.230469 504.328125 C 356.683594 504.101562 356.164062 503.824219 355.667969 503.496094 C 355.175781 503.164062 354.722656 502.792969 354.304688 502.371094 C 353.886719 501.953125 353.511719 501.5 353.183594 501.007812 C 352.851562 500.515625 352.574219 499.992188 352.347656 499.445312 C 352.121094 498.898438 351.953125 498.335938 351.835938 497.753906 C 351.722656 497.175781 351.664062 496.585938 351.664062 495.996094 C 351.664062 495.402344 351.722656 494.816406 351.835938 494.234375 C 351.953125 493.65625 352.125 493.089844 352.351562 492.542969 C 352.578125 491.996094 352.855469 491.476562 353.183594 490.984375 C 353.515625 490.492188 353.886719 490.039062 354.308594 489.621094 C 354.726562 489.199219 355.179688 488.828125 355.675781 488.5 C 356.167969 488.167969 356.6875 487.890625 357.234375 487.664062 C 357.78125 487.4375 358.34375 487.269531 358.925781 487.152344 C 359.507812 487.039062 360.09375 486.980469 360.683594 486.980469 C 361.277344 486.980469 361.863281 487.039062 362.445312 487.152344 C 363.023438 487.269531 363.589844 487.441406 364.136719 487.667969 C 364.683594 487.894531 365.203125 488.171875 365.695312 488.5 C 366.1875 488.828125 366.640625 489.203125 367.058594 489.621094 C 367.480469 490.039062 367.851562 490.496094 368.179688 490.988281 C 368.511719 491.480469 368.789062 492 369.015625 492.546875 C 369.238281 493.09375 369.410156 493.65625 369.527344 494.238281 C 369.640625 494.820312 369.699219 495.40625 369.699219 495.996094 Z M 369.699219 495.996094 " fill-opacity="1" fill-rule="nonzero"/><path fill="#ffffff" d="M 407.75 482.660156 C 406.351562 481.59375 404.816406 480.785156 403.148438 480.226562 C 401.480469 479.667969 399.769531 479.394531 398.011719 479.402344 C 397.464844 479.402344 396.925781 479.429688 396.382812 479.484375 C 395.84375 479.535156 395.304688 479.617188 394.773438 479.722656 C 394.238281 479.828125 393.714844 479.960938 393.191406 480.117188 C 392.671875 480.273438 392.160156 480.457031 391.660156 480.664062 C 391.15625 480.875 390.667969 481.105469 390.1875 481.363281 C 389.707031 481.617188 389.242188 481.898438 388.789062 482.199219 C 388.339844 482.5 387.902344 482.824219 387.480469 483.167969 C 387.0625 483.515625 386.660156 483.878906 386.277344 484.261719 C 385.890625 484.648438 385.527344 485.050781 385.183594 485.46875 C 384.835938 485.890625 384.511719 486.324219 384.210938 486.777344 C 383.910156 487.230469 383.628906 487.695312 383.375 488.175781 C 383.117188 488.652344 382.886719 489.144531 382.679688 489.648438 C 382.46875 490.148438 382.289062 490.660156 382.128906 491.179688 C 381.972656 491.699219 381.839844 492.226562 381.734375 492.761719 C 381.628906 493.292969 381.546875 493.832031 381.496094 494.371094 C 381.441406 494.914062 381.414062 495.453125 381.414062 495.996094 C 381.414062 496.542969 381.441406 497.082031 381.496094 497.625 C 381.546875 498.164062 381.628906 498.703125 381.734375 499.234375 C 381.839844 499.769531 381.972656 500.296875 382.128906 500.816406 C 382.289062 501.335938 382.46875 501.847656 382.679688 502.347656 C 382.886719 502.851562 383.117188 503.339844 383.375 503.820312 C 383.628906 504.300781 383.910156 504.765625 384.210938 505.21875 C 384.511719 505.667969 384.835938 506.105469 385.183594 506.527344 C 385.527344 506.945312 385.890625 507.347656 386.277344 507.734375 C 386.660156 508.117188 387.0625 508.480469 387.480469 508.824219 C 387.902344 509.171875 388.339844 509.496094 388.789062 509.796875 C 389.242188 510.097656 389.707031 510.378906 390.1875 510.632812 C 390.667969 510.890625 391.15625 511.121094 391.660156 511.328125 C 392.160156 511.539062 392.671875 511.722656 393.191406 511.878906 C 393.710938 512.035156 394.238281 512.167969 394.773438 512.273438 C 395.304688 512.378906 395.84375 512.460938 396.382812 512.511719 C 396.925781 512.566406 397.464844 512.59375 398.011719 512.59375 C 399.769531 512.601562 401.480469 512.324219 403.148438 511.769531 C 404.816406 511.210938 406.351562 510.398438 407.75 509.335938 L 407.75 512.050781 L 416.003906 512.050781 L 416.003906 468.515625 L 407.75 468.515625 Z M 398.734375 505.011719 C 398.144531 505.011719 397.558594 504.953125 396.976562 504.839844 C 396.394531 504.722656 395.832031 504.554688 395.285156 504.328125 C 394.738281 504.101562 394.21875 503.824219 393.722656 503.492188 C 393.230469 503.164062 392.777344 502.789062 392.355469 502.371094 C 391.9375 501.953125 391.566406 501.5 391.234375 501.003906 C 390.90625 500.511719 390.628906 499.992188 390.402344 499.445312 C 390.175781 498.898438 390.003906 498.335938 389.886719 497.753906 C 389.773438 497.175781 389.714844 496.585938 389.714844 495.996094 C 389.714844 495.402344 389.773438 494.816406 389.886719 494.234375 C 390.003906 493.65625 390.175781 493.089844 390.402344 492.542969 C 390.628906 491.996094 390.90625 491.476562 391.234375 490.984375 C 391.5625 490.492188 391.9375 490.035156 392.355469 489.617188 C 392.773438 489.199219 393.230469 488.824219 393.722656 488.496094 C 394.214844 488.167969 394.734375 487.890625 395.28125 487.664062 C 395.828125 487.4375 396.394531 487.265625 396.972656 487.148438 C 397.554688 487.035156 398.140625 486.976562 398.734375 486.976562 C 399.324219 486.976562 399.910156 487.035156 400.492188 487.148438 C 401.074219 487.265625 401.636719 487.4375 402.183594 487.664062 C 402.730469 487.890625 403.25 488.167969 403.742188 488.496094 C 404.234375 488.828125 404.691406 489.199219 405.109375 489.621094 C 405.527344 490.039062 405.902344 490.492188 406.230469 490.988281 C 406.558594 491.480469 406.839844 492 407.0625 492.546875 C 407.289062 493.09375 407.460938 493.65625 407.578125 494.238281 C 407.691406 494.820312 407.75 495.40625 407.75 495.996094 C 407.75 496.589844 407.691406 497.175781 407.578125 497.757812 C 407.460938 498.335938 407.289062 498.902344 407.0625 499.445312 C 406.835938 499.992188 406.558594 500.511719 406.230469 501.003906 C 405.902344 501.496094 405.527344 501.953125 405.109375 502.371094 C 404.691406 502.789062 404.234375 503.164062 403.742188 503.492188 C 403.25 503.820312 402.730469 504.097656 402.183594 504.324219 C 401.636719 504.550781 401.074219 504.722656 400.496094 504.839844 C 399.914062 504.953125 399.328125 505.011719 398.734375 505.011719 Z M 398.734375 505.011719 " fill-opacity="1" fill-rule="nonzero"/><path fill="#ffffff" d="M 454.339844 479.941406 L 462.59375 479.941406 L 462.59375 512.050781 L 454.339844 512.050781 Z M 454.339844 479.941406 " fill-opacity="1" fill-rule="nonzero"/><path fill="#ffffff" d="M 458.464844 467.25 C 458.132812 467.246094 457.808594 467.277344 457.480469 467.339844 C 457.15625 467.402344 456.84375 467.492188 456.535156 467.617188 C 456.230469 467.742188 455.9375 467.894531 455.664062 468.078125 C 455.386719 468.257812 455.128906 468.464844 454.894531 468.699219 C 454.660156 468.929688 454.449219 469.183594 454.265625 469.457031 C 454.078125 469.730469 453.921875 470.019531 453.792969 470.324219 C 453.664062 470.628906 453.566406 470.941406 453.5 471.265625 C 453.433594 471.589844 453.398438 471.917969 453.398438 472.25 C 453.394531 472.578125 453.425781 472.90625 453.488281 473.230469 C 453.550781 473.554688 453.644531 473.871094 453.765625 474.175781 C 453.890625 474.484375 454.042969 474.773438 454.226562 475.050781 C 454.410156 475.328125 454.617188 475.582031 454.847656 475.816406 C 455.078125 476.054688 455.332031 476.261719 455.605469 476.449219 C 455.878906 476.632812 456.167969 476.792969 456.472656 476.921875 C 456.777344 477.046875 457.09375 477.144531 457.414062 477.210938 C 457.738281 477.28125 458.066406 477.3125 458.398438 477.316406 C 458.726562 477.320312 459.054688 477.289062 459.378906 477.226562 C 459.703125 477.164062 460.019531 477.070312 460.324219 476.945312 C 460.632812 476.820312 460.921875 476.667969 461.199219 476.488281 C 461.476562 476.304688 461.730469 476.097656 461.964844 475.867188 C 462.203125 475.632812 462.414062 475.378906 462.597656 475.105469 C 462.785156 474.832031 462.941406 474.542969 463.070312 474.238281 C 463.199219 473.9375 463.296875 473.621094 463.363281 473.296875 C 463.429688 472.972656 463.464844 472.648438 463.464844 472.316406 C 463.472656 471.984375 463.445312 471.65625 463.386719 471.328125 C 463.328125 471.003906 463.234375 470.683594 463.113281 470.378906 C 462.988281 470.070312 462.835938 469.777344 462.65625 469.5 C 462.472656 469.21875 462.265625 468.964844 462.035156 468.726562 C 461.800781 468.492188 461.546875 468.28125 461.273438 468.09375 C 460.996094 467.910156 460.707031 467.753906 460.398438 467.625 C 460.09375 467.5 459.777344 467.40625 459.449219 467.339844 C 459.125 467.277344 458.796875 467.246094 458.464844 467.25 Z M 458.464844 467.25 " fill-opacity="1" fill-rule="nonzero"/><path fill="#ffffff" d="M 510.804688 479.402344 C 510.261719 479.402344 509.71875 479.429688 509.179688 479.484375 C 508.636719 479.535156 508.101562 479.617188 507.566406 479.722656 C 507.035156 479.828125 506.507812 479.960938 505.988281 480.117188 C 505.46875 480.273438 504.957031 480.457031 504.453125 480.664062 C 503.953125 480.875 503.460938 481.105469 502.984375 481.363281 C 502.503906 481.617188 502.039062 481.898438 501.585938 482.199219 C 501.132812 482.5 500.699219 482.824219 500.277344 483.167969 C 499.859375 483.515625 499.457031 483.878906 499.070312 484.261719 C 498.6875 484.648438 498.320312 485.050781 497.976562 485.46875 C 497.632812 485.890625 497.308594 486.324219 497.007812 486.777344 C 496.707031 487.230469 496.425781 487.695312 496.167969 488.175781 C 495.914062 488.652344 495.679688 489.144531 495.472656 489.648438 C 495.265625 490.148438 495.082031 490.660156 494.925781 491.179688 C 494.765625 491.699219 494.636719 492.226562 494.527344 492.761719 C 494.421875 493.292969 494.34375 493.832031 494.289062 494.371094 C 494.238281 494.910156 494.210938 495.453125 494.210938 495.996094 C 494.210938 496.542969 494.238281 497.082031 494.289062 497.625 C 494.34375 498.164062 494.421875 498.703125 494.527344 499.234375 C 494.636719 499.769531 494.765625 500.296875 494.925781 500.816406 C 495.082031 501.335938 495.265625 501.847656 495.472656 502.347656 C 495.679688 502.851562 495.914062 503.339844 496.167969 503.820312 C 496.425781 504.300781 496.707031 504.765625 497.007812 505.21875 C 497.308594 505.667969 497.632812 506.105469 497.976562 506.527344 C 498.320312 506.945312 498.6875 507.347656 499.070312 507.730469 C 499.457031 508.117188 499.859375 508.480469 500.277344 508.824219 C 500.699219 509.171875 501.132812 509.496094 501.585938 509.796875 C 502.039062 510.097656 502.503906 510.378906 502.984375 510.632812 C 503.460938 510.890625 503.953125 511.121094 504.453125 511.328125 C 504.957031 511.539062 505.46875 511.71875 505.988281 511.878906 C 506.507812 512.035156 507.035156 512.167969 507.566406 512.273438 C 508.101562 512.378906 508.636719 512.460938 509.179688 512.511719 C 509.71875 512.566406 510.261719 512.59375 510.804688 512.59375 C 511.347656 512.59375 511.890625 512.566406 512.433594 512.511719 C 512.972656 512.460938 513.511719 512.378906 514.042969 512.273438 C 514.578125 512.167969 515.101562 512.035156 515.621094 511.878906 C 516.144531 511.71875 516.652344 511.539062 517.15625 511.328125 C 517.660156 511.121094 518.148438 510.890625 518.628906 510.632812 C 519.109375 510.378906 519.574219 510.097656 520.027344 509.796875 C 520.476562 509.496094 520.914062 509.171875 521.332031 508.824219 C 521.753906 508.480469 522.15625 508.117188 522.539062 507.730469 C 522.925781 507.347656 523.289062 506.945312 523.632812 506.527344 C 523.980469 506.105469 524.300781 505.667969 524.605469 505.21875 C 524.90625 504.765625 525.183594 504.300781 525.441406 503.820312 C 525.699219 503.339844 525.929688 502.851562 526.136719 502.347656 C 526.34375 501.847656 526.527344 501.335938 526.6875 500.816406 C 526.84375 500.296875 526.976562 499.769531 527.082031 499.234375 C 527.1875 498.703125 527.269531 498.164062 527.320312 497.625 C 527.375 497.082031 527.402344 496.542969 527.402344 495.996094 C 527.402344 495.453125 527.375 494.910156 527.320312 494.371094 C 527.269531 493.832031 527.1875 493.292969 527.082031 492.761719 C 526.976562 492.226562 526.84375 491.699219 526.6875 491.179688 C 526.527344 490.660156 526.34375 490.148438 526.136719 489.648438 C 525.929688 489.144531 525.699219 488.652344 525.441406 488.175781 C 525.183594 487.695312 524.90625 487.230469 524.605469 486.777344 C 524.300781 486.324219 523.980469 485.890625 523.632812 485.46875 C 523.289062 485.050781 522.925781 484.648438 522.539062 484.261719 C 522.15625 483.878906 521.753906 483.515625 521.332031 483.167969 C 520.914062 482.824219 520.476562 482.5 520.027344 482.199219 C 519.574219 481.898438 519.109375 481.617188 518.628906 481.363281 C 518.148438 481.105469 517.660156 480.875 517.15625 480.664062 C 516.652344 480.457031 516.144531 480.273438 515.621094 480.117188 C 515.101562 479.960938 514.578125 479.828125 514.042969 479.722656 C 513.511719 479.617188 512.972656 479.535156 512.433594 479.484375 C 511.890625 479.429688 511.347656 479.402344 510.804688 479.402344 Z M 510.804688 505.011719 C 510.214844 505.011719 509.625 504.953125 509.046875 504.839844 C 508.464844 504.722656 507.902344 504.554688 507.355469 504.328125 C 506.804688 504.101562 506.285156 503.824219 505.792969 503.492188 C 505.300781 503.164062 504.847656 502.789062 504.425781 502.371094 C 504.007812 501.953125 503.632812 501.5 503.304688 501.003906 C 502.976562 500.511719 502.699219 499.992188 502.472656 499.445312 C 502.246094 498.898438 502.074219 498.335938 501.957031 497.753906 C 501.84375 497.175781 501.785156 496.585938 501.785156 495.996094 C 501.785156 495.402344 501.84375 494.816406 501.957031 494.234375 C 502.074219 493.65625 502.242188 493.089844 502.46875 492.542969 C 502.695312 491.996094 502.976562 491.476562 503.304688 490.984375 C 503.632812 490.492188 504.007812 490.035156 504.425781 489.617188 C 504.84375 489.199219 505.300781 488.824219 505.792969 488.496094 C 506.285156 488.167969 506.804688 487.890625 507.351562 487.664062 C 507.898438 487.4375 508.460938 487.265625 509.042969 487.148438 C 509.625 487.035156 510.210938 486.976562 510.804688 486.976562 C 511.394531 486.976562 511.980469 487.035156 512.5625 487.148438 C 513.144531 487.265625 513.707031 487.4375 514.253906 487.664062 C 514.800781 487.890625 515.320312 488.167969 515.8125 488.496094 C 516.304688 488.828125 516.761719 489.199219 517.179688 489.621094 C 517.597656 490.039062 517.972656 490.492188 518.300781 490.988281 C 518.628906 491.480469 518.90625 492 519.132812 492.546875 C 519.359375 493.09375 519.53125 493.65625 519.648438 494.238281 C 519.761719 494.820312 519.820312 495.40625 519.820312 495.996094 C 519.820312 496.589844 519.761719 497.175781 519.644531 497.757812 C 519.53125 498.335938 519.359375 498.902344 519.132812 499.445312 C 518.90625 499.992188 518.628906 500.511719 518.300781 501.003906 C 517.972656 501.496094 517.597656 501.953125 517.179688 502.371094 C 516.761719 502.789062 516.304688 503.164062 515.8125 503.492188 C 515.320312 503.820312 514.800781 504.097656 514.253906 504.324219 C 513.707031 504.550781 513.144531 504.722656 512.5625 504.839844 C 511.984375 504.953125 511.398438 505.011719 510.804688 505.011719 Z M 510.804688 505.011719 " fill-opacity="1" fill-rule="nonzero"/><g clip-path="url(#f41c59cb7c)"><path fill="#ffffff" d="M 274.714844 468.515625 L 243.046875 468.515625 L 243.046875 475.878906 L 254.773438 475.878906 L 254.773438 512.050781 L 262.996094 512.050781 L 262.996094 475.878906 L 274.714844 475.878906 Z M 274.714844 468.515625 " fill-opacity="1" fill-rule="nonzero"/></g><path fill="#ffffff" d="M 434.871094 503.257812 L 427.53125 479.941406 L 418.855469 479.941406 L 429.871094 512.050781 L 439.804688 512.050781 L 450.882812 479.941406 L 442.214844 479.941406 Z M 434.871094 503.257812 " fill-opacity="1" fill-rule="nonzero"/><path fill="#ffffff" d="M 549.75 487.601562 L 549.75 479.941406 L 545.882812 479.941406 C 542.859375 479.941406 540.214844 481.523438 539.5 485.339844 L 539.5 479.941406 L 531.226562 479.941406 L 531.226562 512.066406 L 539.5 512.066406 L 539.5 492.800781 C 539.5 489.3125 541.734375 487.601562 545.222656 487.601562 Z M 549.75 487.601562 " fill-opacity="1" fill-rule="nonzero"/></svg>