<svg xmlns="http://www.w3.org/2000/svg" xmlns:xlink="http://www.w3.org/1999/xlink" width="1024" zoomAndPan="magnify" viewBox="0 0 768 767.999994" height="1024" preserveAspectRatio="xMidYMid meet" version="1.0"><defs><g/><clipPath id="3b210747c1"><path d="M 28.625 28.625 L 739.375 28.625 L 739.375 739.375 L 28.625 739.375 Z M 28.625 28.625 " clip-rule="nonzero"/></clipPath><clipPath id="6dd04a5500"><path d="M 384 28.625 C 187.730469 28.625 28.625 187.730469 28.625 384 C 28.625 580.269531 187.730469 739.375 384 739.375 C 580.269531 739.375 739.375 580.269531 739.375 384 C 739.375 187.730469 580.269531 28.625 384 28.625 Z M 384 28.625 " clip-rule="nonzero"/></clipPath><clipPath id="e0be817e36"><path d="M 337 278 L 433 278 L 433 373 L 337 373 Z M 337 278 " clip-rule="nonzero"/></clipPath><clipPath id="230154532b"><path d="M 384.355469 278.300781 L 432.410156 326.355469 L 385.835938 372.929688 L 337.78125 324.875 Z M 384.355469 278.300781 " clip-rule="nonzero"/></clipPath><clipPath id="a69491dd2e"><path d="M 384.359375 278.304688 L 434.796875 328.742188 L 387.011719 376.523438 L 336.574219 326.085938 Z M 384.359375 278.304688 " clip-rule="nonzero"/></clipPath><clipPath id="0fcac793d4"><path d="M 384.359375 278.304688 L 432.28125 326.226562 L 385.527344 372.980469 L 337.605469 325.058594 Z M 384.359375 278.304688 " clip-rule="nonzero"/></clipPath></defs><rect x="-76.8" width="921.6" fill="#ffffff" y="-76.799999" height="921.599993" fill-opacity="1"/><rect x="-76.8" width="921.6" fill="#ffffff" y="-76.799999" height="921.599993" fill-opacity="1"/><g clip-path="url(#3b210747c1)"><g clip-path="url(#6dd04a5500)"><path fill="#000000" d="M 28.625 28.625 L 739.375 28.625 L 739.375 739.375 L 28.625 739.375 Z M 28.625 28.625 " fill-opacity="1" fill-rule="nonzero"/></g></g><g clip-path="url(#e0be817e36)"><g clip-path="url(#230154532b)"><g clip-path="url(#a69491dd2e)"><g clip-path="url(#0fcac793d4)"><path stroke-linecap="butt" transform="matrix(0.369638, 0.369638, -0.369638, 0.369638, 384.358666, 278.303413)" fill="none" stroke-linejoin="miter" d="M 0.00268193 0.000764873 L 129.648087 0.000764873 L 129.648087 126.486406 L 0.00268193 126.486406 Z M 0.00268193 0.000764873 " stroke="#ffffff" stroke-width="17.216736" stroke-opacity="1" stroke-miterlimit="4"/></g></g></g></g><g fill="#ffffff" fill-opacity="1"><g transform="translate(149.310473, 466.805756)"><g><path d="M 2.71875 -41.734375 L 36.046875 -41.734375 L 37.265625 -36.109375 L 22.265625 -36.109375 L 22.265625 0 L 16.515625 0.609375 L 16.515625 -36.109375 L 1.515625 -36.109375 Z M 2.71875 -41.734375 "/></g></g></g><g fill="#ffffff" fill-opacity="1"><g transform="translate(211.187527, 466.805756)"><g><path d="M 25.578125 -17.234375 L 36.65625 0 L 30.421875 0.609375 L 19.46875 -16.328125 L 10.890625 -16.328125 L 10.890625 0 L 5.140625 0.609375 L 5.140625 -41.3125 C 8.929688 -42 13.285156 -42.34375 18.203125 -42.34375 C 23.691406 -42.34375 27.734375 -41.28125 30.328125 -39.15625 C 32.929688 -37.039062 34.234375 -33.765625 34.234375 -29.328125 C 34.234375 -22.753906 31.347656 -18.722656 25.578125 -17.234375 Z M 10.890625 -36.171875 L 10.890625 -21.953125 L 19.46875 -21.953125 C 22.582031 -21.953125 24.863281 -22.546875 26.3125 -23.734375 C 27.757812 -24.929688 28.484375 -26.796875 28.484375 -29.328125 C 28.484375 -31.828125 27.664062 -33.671875 26.03125 -34.859375 C 24.40625 -36.054688 21.878906 -36.65625 18.453125 -36.65625 C 15.910156 -36.65625 13.390625 -36.492188 10.890625 -36.171875 Z M 10.890625 -36.171875 "/></g></g></g><g fill="#ffffff" fill-opacity="1"><g transform="translate(272.157311, 466.805756)"><g><path d="M 5.4375 0.609375 L 5.4375 -41.734375 L 11.1875 -42.34375 L 11.1875 0 Z M 5.4375 0.609375 "/></g></g></g><g fill="#ffffff" fill-opacity="1"><g transform="translate(311.897083, 466.805756)"><g><path d="M 10.890625 0 L 5.140625 0.609375 L 5.140625 -41.3125 C 9.253906 -42 13.609375 -42.34375 18.203125 -42.34375 C 23.691406 -42.34375 27.734375 -41.28125 30.328125 -39.15625 C 32.929688 -37.039062 34.234375 -33.765625 34.234375 -29.328125 C 34.234375 -24.898438 32.953125 -21.625 30.390625 -19.5 C 27.828125 -17.382812 23.847656 -16.328125 18.453125 -16.328125 L 10.890625 -16.328125 Z M 10.890625 -36.171875 L 10.890625 -21.953125 L 18.453125 -21.953125 C 21.921875 -21.953125 24.457031 -22.546875 26.0625 -23.734375 C 27.675781 -24.929688 28.484375 -26.796875 28.484375 -29.328125 C 28.484375 -31.828125 27.664062 -33.671875 26.03125 -34.859375 C 24.40625 -36.054688 21.878906 -36.65625 18.453125 -36.65625 C 15.910156 -36.65625 13.390625 -36.492188 10.890625 -36.171875 Z M 10.890625 -36.171875 "/></g></g></g><g fill="#ffffff" fill-opacity="1"><g transform="translate(367.739018, 466.805756)"><g><path d="M 2.71875 -41.734375 L 36.046875 -41.734375 L 37.265625 -36.109375 L 22.265625 -36.109375 L 22.265625 0 L 16.515625 0.609375 L 16.515625 -36.109375 L 1.515625 -36.109375 Z M 2.71875 -41.734375 "/></g></g></g><g fill="#ffffff" fill-opacity="1"><g transform="translate(425.321395, 466.805756)"><g><path d="M 10.578125 -5.625 L 33.75 -5.625 L 32.546875 0 L 4.84375 0 L 4.84375 -41.734375 L 32.546875 -41.734375 L 33.75 -36.109375 L 10.578125 -36.109375 L 10.578125 -24.5 L 29.703125 -24.5 L 29.703125 -18.875 L 10.578125 -18.875 Z M 10.578125 -5.625 "/></g></g></g><g fill="#ffffff" fill-opacity="1"><g transform="translate(481.815055, 466.805756)"><g><path d="M 11.1875 -9.609375 L 6.34375 0.609375 L 0.296875 0 L 20.984375 -42.34375 L 21.53125 -42.34375 L 42.28125 0 L 36.171875 0.609375 L 31.328125 -9.609375 Z M 29.09375 -14.328125 L 21.296875 -30.84375 L 13.421875 -14.328125 Z M 29.09375 -14.328125 "/></g></g></g><g fill="#ffffff" fill-opacity="1"><g transform="translate(543.207944, 466.805756)"><g><path d="M 1.8125 -2.71875 L 3.875 -7.984375 C 7.457031 -6.003906 11.832031 -5.015625 17 -5.015625 C 19.738281 -5.015625 21.882812 -5.554688 23.4375 -6.640625 C 24.988281 -7.734375 25.765625 -9.226562 25.765625 -11.125 C 25.765625 -13.507812 23.003906 -15.523438 17.484375 -17.171875 C 15.785156 -17.660156 14.367188 -18.082031 13.234375 -18.4375 C 12.109375 -18.800781 10.78125 -19.359375 9.25 -20.109375 C 7.71875 -20.859375 6.488281 -21.625 5.5625 -22.40625 C 4.632812 -23.195312 3.835938 -24.21875 3.171875 -25.46875 C 2.503906 -26.71875 2.191406 -28.085938 2.234375 -29.578125 C 2.234375 -33.609375 3.535156 -36.742188 6.140625 -38.984375 C 8.742188 -41.222656 12.382812 -42.34375 17.0625 -42.34375 C 20.5625 -42.34375 24.410156 -41.535156 28.609375 -39.921875 L 26.734375 -34.65625 C 23.753906 -35.988281 20.488281 -36.65625 16.9375 -36.65625 C 14.113281 -36.65625 11.914062 -36.097656 10.34375 -34.984375 C 8.769531 -33.878906 7.984375 -32.335938 7.984375 -30.359375 C 7.984375 -27.984375 10.742188 -25.890625 16.265625 -24.078125 C 18.804688 -23.265625 21.109375 -22.457031 23.171875 -21.65625 C 25.628906 -20.769531 27.632812 -19.476562 29.1875 -17.78125 C 30.738281 -16.082031 31.515625 -14.128906 31.515625 -11.921875 C 31.515625 -7.804688 30.242188 -4.6875 27.703125 -2.5625 C 25.160156 -0.445312 21.429688 0.609375 16.515625 0.609375 C 11.671875 0.609375 6.769531 -0.5 1.8125 -2.71875 Z M 1.8125 -2.71875 "/></g></g></g><g fill="#ffffff" fill-opacity="1"><g transform="translate(596.25399, 466.805756)"><g><path d="M 10.578125 -5.625 L 33.75 -5.625 L 32.546875 0 L 4.84375 0 L 4.84375 -41.734375 L 32.546875 -41.734375 L 33.75 -36.109375 L 10.578125 -36.109375 L 10.578125 -24.5 L 29.703125 -24.5 L 29.703125 -18.875 L 10.578125 -18.875 Z M 10.578125 -5.625 "/></g></g></g><g fill="#ffffff" fill-opacity="1"><g transform="translate(371.391062, 343.089221)"><g><path d="M 1.875 -28.859375 L 24.921875 -28.859375 L 25.765625 -24.96875 L 15.390625 -24.96875 L 15.390625 0 L 11.421875 0.421875 L 11.421875 -24.96875 L 1.046875 -24.96875 Z M 1.875 -28.859375 "/></g></g></g></svg>