<svg xmlns="http://www.w3.org/2000/svg" zoomAndPan="magnify" preserveAspectRatio="xMidYMid meet" viewBox="0 0 768 768"><title>amadeus square</title><g class="nc-icon-wrapper"><defs><clipPath id="1706434153603-1209559_24bdacd814"><path d="M 76 77.585938 L 717 77.585938 L 717 692 L 76 692 Z M 76 77.585938" clip-rule="nonzero"></path></clipPath><clipPath id="1706434153603-1209559_c6ddd077e6"><path d="M 242.921875 77.585938 L 242.921875 691.199219 C 244.722656 691.328125 246.519531 691.328125 248.320312 691.328125 L 543.949219 691.328125 L 543.949219 77.585938 Z M 590.203125 77.585938 L 543.949219 77.585938 L 543.949219 691.199219 L 544.976562 691.199219 C 619.75 691.199219 685.40625 630.171875 690.800781 555.65625 L 716.109375 213 C 721.636719 138.613281 664.976562 77.585938 590.203125 77.585938 Z M 203.09375 77.585938 C 128.320312 77.585938 71.660156 138.613281 77.183594 213.128906 L 102.496094 555.785156 C 107.890625 628.503906 170.589844 688.375 243.050781 691.199219 L 243.050781 77.585938 Z M 203.09375 77.585938" clip-rule="nonzero"></path></clipPath><clipPath id="1706434153603-1209559_63388549fa"><path d="M 136.121094 349.738281 L 657.164062 349.738281 L 657.164062 419.035156 L 136.121094 419.035156 Z M 136.121094 349.738281" clip-rule="nonzero"></path></clipPath></defs><path fill="#fff" fill-opacity="1" d="M-76.8 -76.8H844.8000000000001V844.8000000000001H-76.8z"></path><path fill="#fff" fill-opacity="1" d="M-76.8 -76.8H844.8000000000001V844.8000000000001H-76.8z"></path><g clip-path="url(#1706434153603-1209559_24bdacd814)"><g clip-path="url(#1706434153603-1209559_c6ddd077e6)"><path fill="#000" d="M 76.800781 77.585938 L 716.089844 77.585938 L 716.089844 691.199219 L 76.800781 691.199219 Z M 76.800781 77.585938" fill-opacity="1" fill-rule="nonzero"></path></g></g><g clip-path="url(#1706434153603-1209559_63388549fa)"><path fill="#fff" d="M 463.738281 415.859375 C 463.738281 415.859375 475.191406 419.035156 489.820312 419.035156 C 505.410156 419.035156 512.628906 417.304688 512.628906 417.304688 L 512.628906 405.753906 C 512.628906 405.753906 504.835938 407.296875 493.957031 407.296875 C 484.433594 407.296875 478.558594 406.042969 478.558594 406.042969 L 478.558594 389.683594 L 508.109375 389.683594 L 508.109375 378.132812 L 478.558594 378.132812 L 478.558594 362.542969 C 478.558594 362.542969 484.335938 361.484375 492.996094 361.484375 C 502.71875 361.484375 511.476562 363.023438 511.476562 363.023438 L 511.476562 351.375 C 511.476562 351.375 503.777344 349.738281 491.261719 349.738281 C 474.617188 349.738281 463.738281 352.726562 463.738281 352.726562 Z M 252.578125 389.585938 C 252.191406 390.546875 251.714844 392.378906 251.425781 393.4375 C 251.136719 392.378906 250.65625 390.546875 250.269531 389.585938 L 237.179688 355.996094 C 234.964844 350.414062 231.503906 349.738281 225.152344 349.738281 C 222.9375 349.738281 218.414062 350.03125 218.414062 350.03125 L 211.675781 418.074219 L 226.59375 418.074219 L 229.867188 372.457031 L 244.015625 407.007812 C 245.074219 409.699219 247.191406 410.761719 251.425781 410.761719 C 255.65625 410.761719 257.777344 409.699219 258.835938 407.007812 L 272.984375 372.457031 L 276.253906 418.074219 L 291.171875 418.074219 L 284.4375 350.03125 C 284.4375 350.03125 279.910156 349.738281 277.699219 349.738281 C 271.347656 349.738281 267.882812 350.414062 265.667969 355.996094 Z M 177.894531 403.542969 C 174.71875 404.792969 167.019531 407.296875 161.339844 407.296875 C 155.179688 407.296875 150.5625 405.179688 150.5625 398.441406 C 150.5625 392.570312 153.734375 389.203125 162.207031 388.914062 L 177.894531 388.335938 Z M 169.039062 349.738281 C 155.757812 349.738281 145.363281 353.011719 141.320312 355.035156 L 144.496094 366.199219 C 144.496094 366.199219 154.699219 362.542969 164.707031 362.542969 C 173.273438 362.542969 177.699219 364.945312 177.699219 373.417969 L 177.699219 378.230469 L 164.707031 378.230469 C 142.667969 378.230469 136.121094 388.335938 136.121094 399.5 C 136.121094 414.320312 147.671875 419.035156 158.164062 419.035156 C 170.386719 419.035156 177.511719 413.9375 178.375 413.9375 C 179.050781 413.9375 181.550781 416.628906 192.714844 416.628906 L 192.714844 369.472656 C 192.714844 355.324219 183.957031 349.738281 169.039062 349.738281 Z M 347.667969 403.542969 C 344.492188 404.792969 336.792969 407.296875 331.117188 407.296875 C 324.957031 407.296875 320.335938 405.179688 320.335938 398.441406 C 320.335938 392.570312 323.511719 389.203125 331.980469 388.914062 L 347.667969 388.335938 Z M 338.8125 349.738281 C 325.53125 349.738281 315.136719 353.011719 311.097656 355.035156 L 314.273438 366.199219 C 314.273438 366.199219 324.476562 362.542969 334.480469 362.542969 C 343.046875 362.542969 347.476562 364.945312 347.476562 373.417969 L 347.476562 378.230469 L 334.480469 378.230469 C 312.445312 378.230469 305.898438 388.335938 305.898438 399.5 C 305.898438 414.320312 317.449219 419.035156 327.9375 419.035156 C 340.160156 419.035156 347.285156 413.9375 348.148438 413.9375 C 348.824219 413.9375 351.324219 416.628906 362.488281 416.628906 L 362.488281 369.472656 C 362.488281 355.324219 353.730469 349.738281 338.8125 349.738281 Z M 574.902344 401.136719 C 571.339844 402.867188 563.640625 405.753906 556.617188 405.753906 C 546.410156 405.753906 544.679688 401.136719 544.679688 390.546875 L 544.679688 350.316406 L 542.464844 350.316406 C 539.097656 350.316406 531.59375 350.894531 529.761719 351.28125 L 529.761719 392.472656 C 529.761719 410.472656 534.191406 419.035156 552.476562 419.035156 C 566.433594 419.035156 574.613281 413.648438 575.1875 413.648438 C 575.382812 413.648438 580.195312 416.628906 589.824219 416.628906 L 589.824219 351.28125 C 588.761719 351.089844 581.542969 350.316406 577.882812 350.316406 L 574.902344 350.316406 Z M 607.441406 416.628906 C 607.441406 416.628906 616.683594 419.035156 629.578125 419.035156 C 641.804688 419.035156 657.203125 414.898438 657.203125 398.347656 C 657.203125 387.5625 649.214844 382.945312 636.21875 378.230469 C 629.195312 375.632812 623.226562 373.320312 623.226562 368.507812 C 623.226562 366.199219 624.960938 361.675781 633.910156 361.675781 C 642.28125 361.675781 650.851562 365.523438 650.851562 365.523438 L 654.605469 354.457031 C 652.097656 353.207031 643.917969 349.738281 632.5625 349.738281 C 620.246094 349.738281 608.214844 356.285156 608.214844 369.472656 C 608.214844 383.042969 620.53125 387.179688 630.15625 390.355469 C 636.703125 392.570312 642.1875 394.882812 642.1875 399.210938 C 642.1875 403.445312 639.878906 407.101562 628.808594 407.101562 C 619.761719 407.101562 610.136719 405.082031 610.136719 405.082031 Z M 399.0625 362.636719 C 401.46875 362.15625 406.183594 361.484375 410.902344 361.484375 C 421.679688 361.484375 430.152344 367.546875 430.152344 383.910156 C 430.152344 399.789062 426.011719 407.296875 409.554688 407.296875 C 404.261719 407.296875 399.0625 406.523438 399.0625 406.523438 Z M 411.574219 349.738281 C 403.105469 349.738281 391.363281 351.183594 384.144531 353.78125 L 384.144531 417.015625 C 390.113281 418.269531 401.277344 419.035156 409.074219 419.035156 C 435.636719 419.035156 445.933594 408.640625 445.933594 383.910156 C 445.933594 362.542969 432.84375 349.738281 411.574219 349.738281" fill-opacity="1" fill-rule="nonzero"></path></g></g></svg>