<svg xmlns="http://www.w3.org/2000/svg" zoomAndPan="magnify" preserveAspectRatio="xMidYMid meet" viewBox="0 0 768 768"><title>booking square</title><g class="nc-icon-wrapper"><defs><clipPath id="1706434153645-1156870_9907ddf304"><path d="M 76 76.800781 L 717 76.800781 L 717 691 L 76 691 Z M 76 76.800781" clip-rule="nonzero"></path></clipPath><clipPath id="1706434153645-1156870_5cde5e5e8b"><path d="M 242.921875 76.800781 L 242.921875 690.414062 C 244.722656 690.542969 246.519531 690.542969 248.320312 690.542969 L 543.949219 690.542969 L 543.949219 76.800781 Z M 590.203125 76.800781 L 543.949219 76.800781 L 543.949219 690.414062 L 544.976562 690.414062 C 619.75 690.414062 685.40625 629.386719 690.800781 554.871094 L 716.109375 212.214844 C 721.636719 137.828125 664.976562 76.800781 590.203125 76.800781 Z M 203.09375 76.800781 C 128.320312 76.800781 71.660156 137.828125 77.183594 212.34375 L 102.496094 555 C 107.890625 627.71875 170.589844 687.589844 243.050781 690.414062 L 243.050781 76.800781 Z M 203.09375 76.800781" clip-rule="nonzero"></path></clipPath><clipPath id="1706434153645-1156870_2c944b03db"><path d="M 412 361 L 456 361 L 456 423.925781 L 412 423.925781 Z M 412 361" clip-rule="nonzero"></path></clipPath><clipPath id="1706434153645-1156870_13245d29a6"><path d="M 156.328125 345 L 199 345 L 199 407 L 156.328125 407 Z M 156.328125 345" clip-rule="nonzero"></path></clipPath></defs><path fill="#fff" fill-opacity="1" d="M-76.8 -76.8H844.8000000000001V844.8000000000001H-76.8z"></path><path fill="#fff" fill-opacity="1" d="M-76.8 -76.8H844.8000000000001V844.8000000000001H-76.8z"></path><g clip-path="url(#1706434153645-1156870_9907ddf304)"><g clip-path="url(#1706434153645-1156870_5cde5e5e8b)"><path fill="#000" d="M 76.800781 76.800781 L 716.089844 76.800781 L 716.089844 690.414062 L 76.800781 690.414062 Z M 76.800781 76.800781" fill-opacity="1" fill-rule="nonzero"></path></g></g><path fill="#fff" d="M 344.851562 351.390625 C 344.851562 347.339844 348.121094 344.066406 352.144531 344.066406 C 356.179688 344.066406 359.460938 347.339844 359.460938 351.390625 C 359.460938 355.433594 356.179688 358.710938 352.144531 358.710938 C 348.121094 358.710938 344.851562 355.433594 344.851562 351.390625" fill-opacity="1" fill-rule="nonzero"></path><path fill="#fff" d="M 460.109375 400.105469 C 460.109375 396.054688 463.375 392.773438 467.398438 392.773438 C 471.433594 392.773438 474.714844 396.054688 474.714844 400.105469 C 474.714844 404.144531 471.433594 407.425781 467.398438 407.425781 C 463.378906 407.425781 460.109375 404.144531 460.109375 400.105469" fill-opacity="1" fill-rule="nonzero"></path><path fill="#fff" d="M 224.960938 396.9375 C 218.671875 396.9375 214.300781 391.941406 214.300781 384.800781 C 214.300781 377.664062 218.671875 372.671875 224.960938 372.671875 C 231.289062 372.671875 235.710938 377.664062 235.710938 384.800781 C 235.710938 392.054688 231.382812 396.9375 224.960938 396.9375 Z M 224.960938 362.003906 C 211.652344 362.003906 201.992188 371.59375 201.992188 384.800781 C 201.992188 398.007812 211.652344 407.597656 224.960938 407.597656 C 238.324219 407.597656 248.023438 398.007812 248.023438 384.800781 C 248.023438 371.59375 238.324219 362.003906 224.960938 362.003906 M 330.703125 385.941406 C 330.1875 384.96875 329.59375 384.144531 328.960938 383.492188 L 328.558594 383.0625 L 328.984375 382.65625 C 329.59375 382.011719 330.21875 381.25 330.820312 380.363281 L 342.566406 362.902344 L 328.308594 362.902344 L 319.480469 376.5625 C 318.984375 377.292969 317.972656 377.664062 316.464844 377.664062 L 314.453125 377.664062 L 314.453125 351.839844 C 314.453125 346.675781 311.234375 345.972656 307.757812 345.972656 L 301.808594 345.972656 L 301.816406 406.925781 L 314.453125 406.925781 L 314.453125 388.644531 L 315.636719 388.644531 C 317.078125 388.644531 318.058594 388.808594 318.507812 389.59375 L 325.476562 402.746094 C 327.425781 406.316406 329.363281 406.925781 333.015625 406.925781 L 342.695312 406.925781 L 335.484375 395 L 330.703125 385.941406 M 392.042969 361.90625 C 385.613281 361.90625 381.515625 364.761719 379.214844 367.175781 L 378.449219 367.953125 L 378.179688 366.898438 C 377.503906 364.3125 375.226562 362.886719 371.804688 362.886719 L 366.140625 362.886719 L 366.175781 406.910156 L 378.726562 406.910156 L 378.726562 386.621094 C 378.726562 384.636719 378.984375 382.914062 379.507812 381.34375 C 380.90625 376.589844 384.800781 373.636719 389.671875 373.636719 C 393.589844 373.636719 395.117188 375.703125 395.117188 381.046875 L 395.117188 400.21875 C 395.117188 404.777344 397.226562 406.910156 401.789062 406.910156 L 407.761719 406.910156 L 407.742188 378.910156 C 407.742188 367.789062 402.316406 361.90625 392.042969 361.90625 M 352.308594 362.90625 L 346.363281 362.90625 L 346.402344 396.945312 L 346.398438 396.945312 L 346.398438 406.921875 L 352.746094 406.921875 C 352.828125 406.921875 352.890625 406.929688 352.972656 406.929688 L 355.929688 406.921875 L 358.871094 406.921875 L 358.871094 406.902344 L 358.894531 406.902344 L 358.917969 369.589844 C 358.917969 365.089844 356.765625 362.90625 352.3125 362.90625 M 274.253906 396.9375 C 267.960938 396.9375 263.582031 391.941406 263.582031 384.800781 C 263.582031 377.664062 267.960938 372.671875 274.253906 372.671875 C 280.566406 372.671875 285 377.664062 285 384.800781 C 285 392.054688 280.671875 396.9375 274.253906 396.9375 Z M 274.253906 362.003906 C 260.929688 362.003906 251.269531 371.59375 251.269531 384.800781 C 251.269531 398.007812 260.929688 407.597656 274.253906 407.597656 C 287.597656 407.597656 297.316406 398.007812 297.316406 384.800781 C 297.316406 371.59375 287.597656 362.003906 274.253906 362.003906" fill-opacity="1" fill-rule="nonzero"></path><path fill="#fff" d="M 543.234375 396.9375 C 536.949219 396.9375 532.5625 391.941406 532.5625 384.800781 C 532.5625 377.664062 536.949219 372.671875 543.234375 372.671875 C 549.550781 372.671875 553.984375 377.664062 553.984375 384.800781 C 553.984375 392.054688 549.65625 396.9375 543.234375 396.9375 Z M 543.234375 362.003906 C 529.914062 362.003906 520.253906 371.59375 520.253906 384.800781 C 520.253906 398.007812 529.914062 407.597656 543.234375 407.597656 C 556.582031 407.597656 566.296875 398.007812 566.296875 384.800781 C 566.296875 371.59375 556.582031 362.003906 543.234375 362.003906" fill-opacity="1" fill-rule="nonzero"></path><g clip-path="url(#1706434153645-1156870_2c944b03db)"><path fill="#fff" d="M 434.199219 395 C 427.339844 395 424.898438 389.015625 424.898438 383.40625 C 424.898438 380.9375 425.523438 372.882812 433.542969 372.882812 C 437.527344 372.882812 442.835938 374.023438 442.835938 383.820312 C 442.835938 393.0625 438.136719 395 434.199219 395 Z M 449.351562 362.789062 C 446.96875 362.789062 445.136719 363.738281 444.21875 365.472656 L 443.871094 366.144531 L 443.292969 365.640625 C 441.265625 363.886719 437.632812 361.808594 431.734375 361.808594 C 420.003906 361.808594 412.101562 370.621094 412.101562 383.738281 C 412.101562 396.835938 420.277344 405.992188 431.972656 405.992188 C 435.96875 405.992188 439.125 405.058594 441.625 403.164062 L 442.59375 402.4375 L 442.59375 403.660156 C 442.59375 409.539062 438.792969 412.785156 431.898438 412.785156 C 428.550781 412.785156 425.5 411.96875 423.460938 411.230469 C 420.800781 410.425781 419.238281 411.089844 418.160156 413.761719 L 417.164062 416.226562 L 415.753906 419.824219 L 416.628906 420.289062 C 421.039062 422.632812 426.78125 424.027344 431.972656 424.027344 C 442.660156 424.027344 455.136719 418.558594 455.136719 403.164062 L 455.183594 362.789062 L 449.355469 362.789062" fill-opacity="1" fill-rule="nonzero"></path></g><g clip-path="url(#1706434153645-1156870_13245d29a6)"><path fill="#fff" d="M 178.226562 396.433594 L 168.011719 396.421875 L 168.011719 384.210938 C 168.011719 381.601562 169.023438 380.242188 171.261719 379.929688 L 178.226562 379.929688 C 183.199219 379.929688 186.414062 383.066406 186.417969 388.140625 C 186.414062 393.347656 183.28125 396.429688 178.226562 396.433594 Z M 168.011719 363.488281 L 168.011719 360.273438 C 168.011719 357.460938 169.203125 356.121094 171.816406 355.949219 L 177.042969 355.949219 C 181.527344 355.949219 184.210938 358.632812 184.210938 363.121094 C 184.210938 366.542969 182.371094 370.539062 177.207031 370.539062 L 168.011719 370.539062 Z M 191.273438 375.675781 L 189.429688 374.640625 L 191.039062 373.261719 C 192.914062 371.648438 196.058594 368.023438 196.058594 361.761719 C 196.058594 352.183594 188.625 346 177.125 346 L 164 346 L 164 345.996094 L 162.503906 345.996094 C 159.09375 346.121094 156.367188 348.894531 156.328125 352.324219 L 156.328125 406.703125 L 162.351562 406.703125 C 162.367188 406.707031 162.371094 406.703125 162.378906 406.707031 L 177.382812 406.703125 C 190.167969 406.703125 198.421875 399.746094 198.421875 388.964844 C 198.421875 383.164062 195.753906 378.199219 191.273438 375.675781" fill-opacity="1" fill-rule="nonzero"></path></g><path fill="#fff" d="M 622.351562 362.050781 C 617.144531 362.050781 612.113281 364.488281 608.882812 368.578125 L 607.972656 369.730469 L 607.257812 368.441406 C 604.933594 364.203125 600.933594 362.050781 595.371094 362.050781 C 589.539062 362.050781 585.628906 365.304688 583.808594 367.238281 L 582.621094 368.527344 L 582.164062 366.832031 C 581.5 364.394531 579.328125 363.050781 576.039062 363.050781 L 570.765625 363.050781 L 570.714844 406.902344 L 582.699219 406.902344 L 582.699219 387.546875 C 582.699219 385.851562 582.910156 384.171875 583.332031 382.417969 C 584.480469 377.742188 587.621094 372.710938 592.90625 373.210938 C 596.167969 373.523438 597.757812 376.042969 597.757812 380.90625 L 597.757812 406.902344 L 609.828125 406.902344 L 609.828125 387.546875 C 609.828125 385.425781 610.023438 383.839844 610.503906 382.25 C 611.472656 377.785156 614.753906 373.207031 619.855469 373.207031 C 623.542969 373.207031 624.910156 375.296875 624.910156 380.90625 L 624.910156 400.492188 C 624.910156 404.925781 626.886719 406.902344 631.3125 406.902344 L 636.953125 406.902344 L 636.964844 378.910156 C 636.964844 367.726562 632.039062 362.050781 622.351562 362.050781 M 513.316406 391.679688 C 513.277344 391.722656 508.121094 397.160156 501.332031 397.160156 C 495.148438 397.160156 488.898438 393.363281 488.898438 384.890625 C 488.898438 377.574219 493.742188 372.460938 500.679688 372.460938 C 502.929688 372.460938 505.492188 373.269531 505.894531 374.628906 L 505.953125 374.855469 C 506.875 377.933594 509.671875 378.097656 510.222656 378.097656 L 516.789062 378.105469 L 516.789062 372.367188 C 516.789062 364.796875 507.160156 362.050781 500.679688 362.050781 C 486.820312 362.050781 476.769531 371.699219 476.769531 384.984375 C 476.769531 398.261719 486.710938 407.898438 500.425781 407.898438 C 512.320312 407.898438 518.792969 400.078125 518.851562 400 L 519.199219 399.574219 L 514 390.949219 L 513.3125 391.679688" fill-opacity="1" fill-rule="nonzero"></path></g></svg>