<svg xmlns="http://www.w3.org/2000/svg" zoomAndPan="magnify" preserveAspectRatio="xMidYMid meet" viewBox="0 0 768 768"><title>ctrip square</title><g class="nc-icon-wrapper"><defs><clipPath id="1706434153652-1962610_8f2db67a79"><path d="M 62 76.800781 L 702 76.800781 L 702 691 L 62 691 Z M 62 76.800781" clip-rule="nonzero"></path></clipPath><clipPath id="1706434153652-1962610_d50f19cfac"><path d="M 228.609375 76.800781 L 228.609375 690.414062 C 230.410156 690.542969 232.207031 690.542969 234.007812 690.542969 L 529.636719 690.542969 L 529.636719 76.800781 Z M 575.886719 76.800781 L 529.636719 76.800781 L 529.636719 690.414062 L 530.664062 690.414062 C 605.4375 690.414062 671.089844 629.386719 676.488281 554.871094 L 701.796875 212.214844 C 707.324219 137.828125 650.664062 76.800781 575.886719 76.800781 Z M 188.78125 76.800781 C 114.007812 76.800781 57.347656 137.828125 62.871094 212.34375 L 88.183594 555 C 93.578125 627.71875 156.277344 687.589844 228.738281 690.414062 L 228.738281 76.800781 Z M 188.78125 76.800781" clip-rule="nonzero"></path></clipPath></defs><path fill="#fff" fill-opacity="1" d="M-76.8 -76.8H844.8000000000001V844.8000000000001H-76.8z"></path><path fill="#fff" fill-opacity="1" d="M-76.8 -76.8H844.8000000000001V844.8000000000001H-76.8z"></path><g clip-path="url(#1706434153652-1962610_8f2db67a79)"><g clip-path="url(#1706434153652-1962610_d50f19cfac)"><path fill="#000" d="M 62.488281 76.800781 L 701.777344 76.800781 L 701.777344 690.414062 L 62.488281 690.414062 Z M 62.488281 76.800781" fill-opacity="1" fill-rule="nonzero"></path></g></g><path fill="#fff" d="M 322.160156 350.621094 C 314.929688 350.621094 308.039062 353.894531 303.402344 359.421875 L 303.402344 353.757812 L 284.640625 353.757812 L 284.640625 445.308594 L 305.378906 445.308594 L 305.378906 413.179688 C 310.085938 417.066406 316.019531 419.179688 322.160156 419.179688 C 340.648438 419.179688 355.453125 403.832031 355.453125 384.800781 C 355.453125 365.96875 340.375 350.621094 322.160156 350.621094 Z M 355.453125 385.070312 C 355.453125 366.039062 340.648438 350.6875 322.160156 350.6875 M 319.910156 400.421875 C 311.929688 400.421875 305.378906 393.597656 305.378906 385.34375 C 305.378906 376.816406 311.929688 370.269531 319.910156 370.269531 C 327.890625 370.269531 334.441406 377.089844 334.441406 385.34375 C 334.714844 393.328125 328.503906 400.082031 320.457031 400.351562 C 320.25 400.421875 320.046875 400.421875 319.910156 400.421875 Z M 319.910156 400.421875" fill-opacity="1" fill-rule="nonzero"></path><path fill="#fff" d="M 389.835938 406.902344 C 389.835938 407.722656 389.753906 408.535156 389.59375 409.335938 C 389.433594 410.140625 389.199219 410.921875 388.882812 411.679688 C 388.570312 412.4375 388.1875 413.15625 387.730469 413.839844 C 387.277344 414.519531 386.757812 415.148438 386.179688 415.730469 C 385.597656 416.308594 384.96875 416.828125 384.285156 417.28125 C 383.605469 417.738281 382.886719 418.121094 382.128906 418.4375 C 381.371094 418.75 380.589844 418.988281 379.785156 419.144531 C 378.984375 419.304688 378.171875 419.386719 377.351562 419.386719 C 376.53125 419.386719 375.71875 419.304688 374.914062 419.144531 C 374.113281 418.988281 373.332031 418.75 372.574219 418.4375 C 371.816406 418.121094 371.097656 417.738281 370.414062 417.28125 C 369.734375 416.828125 369.101562 416.308594 368.523438 415.730469 C 367.945312 415.148438 367.425781 414.519531 366.96875 413.839844 C 366.515625 413.15625 366.128906 412.4375 365.816406 411.679688 C 365.503906 410.921875 365.265625 410.140625 365.105469 409.335938 C 364.945312 408.535156 364.867188 407.722656 364.867188 406.902344 C 364.867188 406.082031 364.945312 405.269531 365.105469 404.464844 C 365.265625 403.664062 365.503906 402.882812 365.816406 402.125 C 366.128906 401.367188 366.515625 400.648438 366.96875 399.964844 C 367.425781 399.285156 367.945312 398.652344 368.523438 398.074219 C 369.101562 397.496094 369.734375 396.976562 370.414062 396.523438 C 371.097656 396.066406 371.816406 395.683594 372.574219 395.367188 C 373.332031 395.054688 374.113281 394.816406 374.914062 394.65625 C 375.71875 394.496094 376.53125 394.417969 377.351562 394.417969 C 378.171875 394.417969 378.984375 394.496094 379.785156 394.65625 C 380.589844 394.816406 381.371094 395.054688 382.128906 395.367188 C 382.886719 395.683594 383.605469 396.066406 384.285156 396.523438 C 384.96875 396.976562 385.597656 397.496094 386.179688 398.074219 C 386.757812 398.652344 387.277344 399.285156 387.730469 399.964844 C 388.1875 400.648438 388.570312 401.367188 388.882812 402.125 C 389.199219 402.882812 389.433594 403.664062 389.59375 404.464844 C 389.753906 405.269531 389.835938 406.082031 389.835938 406.902344 Z M 389.835938 406.902344" fill-opacity="1" fill-rule="nonzero"></path><path fill="#fff" d="M 271.269531 333.566406 C 271.269531 334.332031 271.195312 335.089844 271.046875 335.839844 C 270.894531 336.59375 270.675781 337.324219 270.382812 338.03125 C 270.089844 338.738281 269.730469 339.410156 269.304688 340.046875 C 268.878906 340.683594 268.394531 341.273438 267.851562 341.816406 C 267.3125 342.355469 266.722656 342.839844 266.085938 343.265625 C 265.449219 343.691406 264.777344 344.050781 264.066406 344.34375 C 263.359375 344.636719 262.628906 344.859375 261.878906 345.007812 C 261.128906 345.15625 260.371094 345.230469 259.605469 345.230469 C 258.835938 345.230469 258.078125 345.15625 257.328125 345.007812 C 256.578125 344.859375 255.847656 344.636719 255.140625 344.34375 C 254.433594 344.050781 253.757812 343.691406 253.121094 343.265625 C 252.484375 342.839844 251.898438 342.355469 251.355469 341.816406 C 250.8125 341.273438 250.328125 340.683594 249.902344 340.046875 C 249.480469 339.410156 249.121094 338.738281 248.824219 338.03125 C 248.53125 337.324219 248.3125 336.59375 248.164062 335.839844 C 248.011719 335.089844 247.9375 334.332031 247.9375 333.566406 C 247.9375 332.800781 248.011719 332.042969 248.164062 331.289062 C 248.3125 330.539062 248.53125 329.808594 248.824219 329.101562 C 249.121094 328.394531 249.480469 327.722656 249.902344 327.085938 C 250.328125 326.449219 250.8125 325.859375 251.355469 325.316406 C 251.898438 324.777344 252.484375 324.292969 253.121094 323.867188 C 253.757812 323.441406 254.433594 323.082031 255.140625 322.789062 C 255.847656 322.496094 256.578125 322.273438 257.328125 322.125 C 258.078125 321.976562 258.835938 321.898438 259.605469 321.898438 C 260.371094 321.898438 261.128906 321.976562 261.878906 322.125 C 262.628906 322.273438 263.359375 322.496094 264.066406 322.789062 C 264.777344 323.082031 265.449219 323.441406 266.085938 323.867188 C 266.722656 324.292969 267.3125 324.777344 267.851562 325.316406 C 268.394531 325.859375 268.878906 326.449219 269.304688 327.085938 C 269.730469 327.722656 270.089844 328.394531 270.382812 329.101562 C 270.675781 329.808594 270.894531 330.539062 271.046875 331.289062 C 271.195312 332.042969 271.269531 332.800781 271.269531 333.566406 Z M 271.269531 333.566406" fill-opacity="1" fill-rule="nonzero"></path><path fill="#fff" d="M 249.371094 353.757812 L 270.109375 353.757812 L 270.109375 416.316406 L 249.371094 416.316406 Z M 249.371094 353.757812" fill-opacity="1" fill-rule="nonzero"></path><path fill="#fff" d="M 126.507812 324.765625 L 126.507812 342.09375 L 153.523438 342.09375 L 153.523438 416.316406 L 174.261719 416.316406 L 174.261719 342.09375 L 201.277344 342.09375 L 201.277344 324.765625 Z M 126.507812 324.765625" fill-opacity="1" fill-rule="nonzero"></path><path fill="#fff" d="M 433.359375 400.421875 C 425.378906 400.421875 418.828125 393.597656 418.828125 385.34375 C 418.828125 376.816406 425.378906 370.269531 433.359375 370.269531 C 437.382812 370.199219 441.203125 371.835938 443.863281 374.839844 L 457.507812 361.195312 C 451.097656 354.78125 442.433594 351.167969 433.359375 351.234375 C 414.324219 351.234375 398.910156 366.585938 398.910156 385.617188 C 398.910156 404.652344 414.257812 420.070312 433.289062 420.070312 C 442.363281 420.070312 451.097656 416.519531 457.578125 410.109375 L 443.933594 396.464844 C 441.339844 398.375 437.65625 400.421875 433.359375 400.421875 Z M 433.359375 400.421875" fill-opacity="1" fill-rule="nonzero"></path><path fill="#fff" d="M 615.710938 350.621094 C 607.183594 350.621094 600.359375 353.757812 596.402344 360.855469 C 592.71875 354.304688 585.898438 350.621094 577.644531 350.621094 C 569.390625 350.621094 563.453125 354.304688 559.429688 360.855469 L 559.429688 353.757812 L 540.601562 353.757812 L 540.601562 416.042969 L 561.339844 416.042969 L 561.339844 377.363281 C 561.339844 371.972656 565.296875 367.675781 570.414062 367.675781 C 575.527344 367.675781 579.484375 371.972656 579.484375 377.363281 L 579.484375 416.316406 L 599.132812 416.316406 L 599.132812 377.363281 C 599.132812 371.972656 603.089844 367.675781 608.207031 367.675781 C 613.324219 367.675781 617.28125 371.972656 617.28125 377.363281 L 617.28125 416.316406 L 638.15625 416.316406 L 638.15625 373.40625 C 638.425781 359.421875 629.628906 350.621094 615.710938 350.621094 Z M 615.710938 350.621094" fill-opacity="1" fill-rule="nonzero"></path><path fill="#fff" d="M 495.917969 350.621094 C 476.882812 350.621094 461.535156 366.039062 461.535156 385.070312 C 461.535156 404.105469 476.953125 419.453125 495.984375 419.453125 C 515.019531 419.453125 530.367188 404.035156 530.367188 385.003906 C 530.09375 365.96875 514.746094 350.621094 495.917969 350.621094 Z M 495.917969 400.421875 C 487.933594 400.421875 481.386719 393.597656 481.386719 385.34375 C 481.386719 376.816406 487.933594 370.269531 495.917969 370.269531 C 503.898438 370.269531 510.449219 377.089844 510.449219 385.34375 C 510.449219 393.597656 503.898438 400.421875 495.917969 400.421875 Z M 495.917969 400.421875" fill-opacity="1" fill-rule="nonzero"></path><path fill="#fff" d="M 234.566406 353.484375 C 226.925781 353.417969 219.832031 357.304688 215.808594 363.71875 L 215.808594 353.757812 L 197.046875 353.757812 L 197.046875 416.316406 L 217.785156 416.316406 L 217.785156 390.121094 C 217.785156 379.339844 225.765625 372.792969 235.113281 372.792969 C 236.273438 372.792969 237.363281 373.066406 238.25 373.066406 L 238.25 354.03125 C 237.089844 353.691406 235.863281 353.484375 234.566406 353.484375 Z M 234.566406 353.484375" fill-opacity="1" fill-rule="nonzero"></path></g></svg>