<svg xmlns="http://www.w3.org/2000/svg" zoomAndPan="magnify" preserveAspectRatio="xMidYMid meet" viewBox="0 0 768 768"><title>ctrip circle</title><g class="nc-icon-wrapper"><defs><clipPath id="1706434153649-805170_bca9d9e66c"><path d="M 28.625 28.625 L 739.375 28.625 L 739.375 739.375 L 28.625 739.375 Z M 28.625 28.625" clip-rule="nonzero"></path></clipPath><clipPath id="1706434153649-805170_b87a38ad26"><path d="M 384 28.625 C 187.730469 28.625 28.625 187.734375 28.625 384 C 28.625 580.269531 187.730469 739.375 384 739.375 C 580.269531 739.375 739.375 580.269531 739.375 384 C 739.375 187.734375 580.269531 28.625 384 28.625 Z M 384 28.625" clip-rule="nonzero"></path></clipPath></defs><path fill="#fff" fill-opacity="1" d="M-76.8 -76.8H844.8000000000001V844.8000000000001H-76.8z"></path><path fill="#fff" fill-opacity="1" d="M-76.8 -76.8H844.8000000000001V844.8000000000001H-76.8z"></path><g clip-path="url(#1706434153649-805170_bca9d9e66c)"><g clip-path="url(#1706434153649-805170_b87a38ad26)"><path fill="#000" d="M 28.625 28.625 L 739.375 28.625 L 739.375 739.375 L 28.625 739.375 Z M 28.625 28.625" fill-opacity="1" fill-rule="nonzero"></path></g></g><path fill="#fff" d="M 326.484375 347.109375 C 318.394531 347.109375 310.691406 350.773438 305.503906 356.949219 L 305.503906 350.617188 L 284.523438 350.617188 L 284.523438 453 L 307.714844 453 L 307.714844 417.066406 C 312.980469 421.417969 319.617188 423.78125 326.484375 423.78125 C 347.15625 423.78125 363.714844 406.617188 363.714844 385.332031 C 363.714844 364.273438 346.851562 347.109375 326.484375 347.109375 Z M 363.714844 385.636719 C 363.714844 364.351562 347.15625 347.1875 326.484375 347.1875 M 323.964844 402.800781 C 315.039062 402.800781 307.714844 395.171875 307.714844 385.941406 C 307.714844 376.40625 315.039062 369.082031 323.964844 369.082031 C 332.890625 369.082031 340.214844 376.710938 340.214844 385.941406 C 340.519531 394.867188 333.578125 402.421875 324.574219 402.726562 C 324.347656 402.800781 324.117188 402.800781 323.964844 402.800781 Z M 323.964844 402.800781" fill-opacity="1" fill-rule="nonzero"></path><path fill="#fff" d="M 402.164062 410.050781 C 402.164062 410.964844 402.074219 411.875 401.894531 412.773438 C 401.714844 413.671875 401.453125 414.546875 401.101562 415.390625 C 400.75 416.238281 400.320312 417.042969 399.8125 417.804688 C 399.300781 418.566406 398.722656 419.273438 398.074219 419.921875 C 397.425781 420.570312 396.722656 421.148438 395.957031 421.65625 C 395.195312 422.167969 394.390625 422.597656 393.546875 422.949219 C 392.699219 423.300781 391.824219 423.5625 390.925781 423.742188 C 390.027344 423.921875 389.121094 424.011719 388.203125 424.011719 C 387.285156 424.011719 386.378906 423.921875 385.480469 423.742188 C 384.578125 423.5625 383.707031 423.300781 382.859375 422.949219 C 382.011719 422.597656 381.207031 422.167969 380.445312 421.65625 C 379.683594 421.148438 378.980469 420.570312 378.332031 419.921875 C 377.683594 419.273438 377.101562 418.566406 376.59375 417.804688 C 376.085938 417.042969 375.65625 416.238281 375.304688 415.390625 C 374.953125 414.546875 374.6875 413.671875 374.507812 412.773438 C 374.332031 411.875 374.242188 410.964844 374.242188 410.050781 C 374.242188 409.132812 374.332031 408.226562 374.507812 407.324219 C 374.6875 406.425781 374.953125 405.554688 375.304688 404.707031 C 375.65625 403.859375 376.085938 403.054688 376.59375 402.292969 C 377.101562 401.53125 377.683594 400.824219 378.332031 400.175781 C 378.980469 399.53125 379.683594 398.949219 380.445312 398.441406 C 381.207031 397.933594 382.011719 397.5 382.859375 397.152344 C 383.707031 396.800781 384.578125 396.535156 385.480469 396.355469 C 386.378906 396.179688 387.285156 396.089844 388.203125 396.089844 C 389.121094 396.089844 390.027344 396.179688 390.925781 396.355469 C 391.824219 396.535156 392.699219 396.800781 393.546875 397.152344 C 394.390625 397.5 395.195312 397.933594 395.957031 398.441406 C 396.722656 398.949219 397.425781 399.53125 398.074219 400.175781 C 398.722656 400.824219 399.300781 401.53125 399.8125 402.292969 C 400.320312 403.054688 400.75 403.859375 401.101562 404.707031 C 401.453125 405.554688 401.714844 406.425781 401.894531 407.324219 C 402.074219 408.226562 402.164062 409.132812 402.164062 410.050781 Z M 402.164062 410.050781" fill-opacity="1" fill-rule="nonzero"></path><path fill="#fff" d="M 269.570312 328.035156 C 269.570312 328.894531 269.488281 329.742188 269.320312 330.582031 C 269.152344 331.421875 268.90625 332.238281 268.578125 333.027344 C 268.25 333.820312 267.847656 334.574219 267.371094 335.285156 C 266.894531 335.996094 266.355469 336.65625 265.75 337.261719 C 265.144531 337.867188 264.484375 338.40625 263.773438 338.882812 C 263.058594 339.359375 262.308594 339.761719 261.515625 340.089844 C 260.726562 340.417969 259.910156 340.664062 259.070312 340.832031 C 258.230469 341 257.382812 341.082031 256.523438 341.082031 C 255.667969 341.082031 254.820312 341 253.980469 340.832031 C 253.140625 340.664062 252.324219 340.417969 251.53125 340.089844 C 250.742188 339.761719 249.988281 339.359375 249.277344 338.882812 C 248.5625 338.40625 247.90625 337.867188 247.300781 337.261719 C 246.695312 336.65625 246.152344 335.996094 245.675781 335.285156 C 245.203125 334.574219 244.800781 333.820312 244.472656 333.027344 C 244.144531 332.238281 243.894531 331.421875 243.730469 330.582031 C 243.5625 329.742188 243.480469 328.894531 243.480469 328.035156 C 243.480469 327.179688 243.5625 326.332031 243.730469 325.492188 C 243.894531 324.652344 244.144531 323.835938 244.472656 323.042969 C 244.800781 322.253906 245.203125 321.5 245.675781 320.789062 C 246.152344 320.078125 246.695312 319.417969 247.300781 318.8125 C 247.90625 318.207031 248.5625 317.664062 249.277344 317.191406 C 249.988281 316.714844 250.742188 316.3125 251.53125 315.984375 C 252.324219 315.65625 253.140625 315.410156 253.980469 315.242188 C 254.820312 315.074219 255.667969 314.992188 256.523438 314.992188 C 257.382812 314.992188 258.230469 315.074219 259.070312 315.242188 C 259.910156 315.410156 260.726562 315.65625 261.515625 315.984375 C 262.308594 316.3125 263.058594 316.714844 263.773438 317.191406 C 264.484375 317.664062 265.144531 318.207031 265.75 318.8125 C 266.355469 319.417969 266.894531 320.078125 267.371094 320.789062 C 267.847656 321.5 268.25 322.253906 268.578125 323.042969 C 268.90625 323.835938 269.152344 324.652344 269.320312 325.492188 C 269.488281 326.332031 269.570312 327.179688 269.570312 328.035156 Z M 269.570312 328.035156" fill-opacity="1" fill-rule="nonzero"></path><path fill="#fff" d="M 245.082031 350.617188 L 268.273438 350.617188 L 268.273438 420.578125 L 245.082031 420.578125 Z M 245.082031 350.617188" fill-opacity="1" fill-rule="nonzero"></path><path fill="#fff" d="M 107.679688 318.195312 L 107.679688 337.574219 L 137.890625 337.574219 L 137.890625 420.578125 L 161.085938 420.578125 L 161.085938 337.574219 L 191.296875 337.574219 L 191.296875 318.195312 Z M 107.679688 318.195312" fill-opacity="1" fill-rule="nonzero"></path><path fill="#fff" d="M 450.835938 402.800781 C 441.910156 402.800781 434.585938 395.171875 434.585938 385.941406 C 434.585938 376.40625 441.910156 369.082031 450.835938 369.082031 C 455.339844 369.003906 459.609375 370.835938 462.585938 374.191406 L 477.84375 358.933594 C 470.671875 351.761719 460.984375 347.71875 450.835938 347.796875 C 429.550781 347.796875 412.308594 364.960938 412.308594 386.246094 C 412.308594 407.53125 429.476562 424.773438 450.761719 424.773438 C 460.90625 424.773438 470.671875 420.804688 477.921875 413.636719 L 462.664062 398.378906 C 459.761719 400.511719 455.644531 402.800781 450.835938 402.800781 Z M 450.835938 402.800781" fill-opacity="1" fill-rule="nonzero"></path><path fill="#fff" d="M 654.761719 347.109375 C 645.226562 347.109375 637.597656 350.617188 633.171875 358.554688 C 629.050781 351.230469 621.421875 347.109375 612.191406 347.109375 C 602.960938 347.109375 596.324219 351.230469 591.824219 358.554688 L 591.824219 350.617188 L 570.765625 350.617188 L 570.765625 420.273438 L 593.957031 420.273438 L 593.957031 377.015625 C 593.957031 370.988281 598.382812 366.183594 604.105469 366.183594 C 609.828125 366.183594 614.253906 370.988281 614.253906 377.015625 L 614.253906 420.578125 L 636.222656 420.578125 L 636.222656 377.015625 C 636.222656 370.988281 640.648438 366.183594 646.371094 366.183594 C 652.09375 366.183594 656.515625 370.988281 656.515625 377.015625 L 656.515625 420.578125 L 679.863281 420.578125 L 679.863281 372.589844 C 680.167969 356.949219 670.324219 347.109375 654.761719 347.109375 Z M 654.761719 347.109375" fill-opacity="1" fill-rule="nonzero"></path><path fill="#fff" d="M 520.796875 347.109375 C 499.511719 347.109375 482.34375 364.351562 482.34375 385.636719 C 482.34375 406.921875 499.585938 424.085938 520.871094 424.085938 C 542.15625 424.085938 559.324219 406.84375 559.324219 385.558594 C 559.019531 364.273438 541.851562 347.109375 520.796875 347.109375 Z M 520.796875 402.800781 C 511.871094 402.800781 504.546875 395.171875 504.546875 385.941406 C 504.546875 376.40625 511.871094 369.082031 520.796875 369.082031 C 529.722656 369.082031 537.046875 376.710938 537.046875 385.941406 C 537.046875 395.171875 529.722656 402.800781 520.796875 402.800781 Z M 520.796875 402.800781" fill-opacity="1" fill-rule="nonzero"></path><path fill="#fff" d="M 228.527344 350.3125 C 219.980469 350.238281 212.046875 354.585938 207.546875 361.757812 L 207.546875 350.617188 L 186.566406 350.617188 L 186.566406 420.578125 L 209.757812 420.578125 L 209.757812 391.28125 C 209.757812 379.226562 218.683594 371.902344 229.136719 371.902344 C 230.433594 371.902344 231.652344 372.210938 232.644531 372.210938 L 232.644531 350.925781 C 231.347656 350.542969 229.976562 350.3125 228.527344 350.3125 Z M 228.527344 350.3125" fill-opacity="1" fill-rule="nonzero"></path></g></svg>