<svg xmlns="http://www.w3.org/2000/svg" zoomAndPan="magnify" preserveAspectRatio="xMidYMid meet" viewBox="0 0 768 768"><title>egencia circle</title><g class="nc-icon-wrapper"><defs><clipPath id="1706434153665-4613932_5cc2e09fbd"><path d="M 28.625 28.625 L 739.375 28.625 L 739.375 739.375 L 28.625 739.375 Z M 28.625 28.625" clip-rule="nonzero"></path></clipPath><clipPath id="1706434153665-4613932_5e083b2fcb"><path d="M 384 28.625 C 187.730469 28.625 28.625 187.730469 28.625 384 C 28.625 580.269531 187.730469 739.375 384 739.375 C 580.269531 739.375 739.375 580.269531 739.375 384 C 739.375 187.730469 580.269531 28.625 384 28.625 Z M 384 28.625" clip-rule="nonzero"></path></clipPath></defs><path fill="#fff" fill-opacity="1" d="M-76.8 -76.8H844.8000000000001V844.8000000000001H-76.8z"></path><path fill="#fff" fill-opacity="1" d="M-76.8 -76.8H844.8000000000001V844.8000000000001H-76.8z"></path><g clip-path="url(#1706434153665-4613932_5cc2e09fbd)"><g clip-path="url(#1706434153665-4613932_5e083b2fcb)"><path fill="#000" d="M 28.625 28.625 L 739.375 28.625 L 739.375 739.375 L 28.625 739.375 Z M 28.625 28.625" fill-opacity="1" fill-rule="nonzero"></path></g></g><path fill="#fff" d="M 136.996094 368.640625 C 135.871094 368.882812 135.792969 370.246094 136.996094 370.246094 C 138.761719 370.167969 147.113281 369.925781 154.578125 370.648438 C 163.246094 371.449219 171.515625 373.699219 178.019531 375.867188 C 184.441406 378.035156 198.730469 386.140625 198.730469 386.140625 C 198.730469 386.140625 180.265625 396.578125 174.003906 412.152344 C 173.683594 412.957031 174.085938 413.277344 175.210938 412.632812 C 198.8125 398.585938 215.269531 389.996094 244.007812 384.375 C 245.855469 383.972656 245.613281 383.8125 244.089844 383.414062 C 242.484375 383.011719 237.023438 382.046875 222.8125 376.75 C 208.605469 371.449219 194.957031 366.554688 178.980469 365.351562 C 176.652344 365.1875 174.246094 365.109375 171.757812 365.109375 C 155.140625 365.027344 137.476562 368.5625 136.996094 368.640625" fill-opacity="1" fill-rule="nonzero"></path><path fill="#fff" d="M 251.3125 355.15625 C 246.816406 360.53125 237.425781 367.355469 228.433594 370.890625 C 227.230469 371.371094 227.550781 372.09375 228.03125 372.414062 C 228.191406 372.496094 228.835938 372.734375 229.71875 373.054688 L 241.519531 376.828125 C 242.484375 377.152344 242.484375 377.070312 242.882812 376.667969 C 249.144531 370.40625 251.554688 361.335938 251.957031 355.316406 C 251.957031 355.316406 252.035156 354.59375 251.875 354.59375 C 251.796875 354.671875 251.632812 354.832031 251.3125 355.15625" fill-opacity="1" fill-rule="nonzero"></path><path fill="#fff" d="M 464.375 412.957031 L 456.828125 412.957031 C 456.34375 412.957031 455.945312 412.714844 455.703125 412.3125 L 432.984375 373.296875 L 432.984375 411.589844 C 432.984375 412.3125 432.34375 412.957031 431.621094 412.957031 L 424.074219 412.957031 C 423.351562 412.957031 422.707031 412.3125 422.707031 411.589844 L 422.707031 356.117188 C 422.707031 355.394531 423.351562 354.753906 424.074219 354.753906 L 431.621094 354.753906 C 432.101562 354.753906 432.503906 354.992188 432.742188 355.394531 L 455.542969 392.804688 L 455.542969 356.117188 C 455.542969 355.394531 456.183594 354.753906 456.90625 354.753906 L 464.375 354.753906 C 465.097656 354.753906 465.738281 355.394531 465.738281 356.117188 L 465.738281 411.589844 C 465.820312 412.3125 465.175781 412.957031 464.375 412.957031" fill-opacity="1" fill-rule="nonzero"></path><path fill="#fff" d="M 544.171875 412.957031 L 536.625 412.957031 C 535.902344 412.957031 535.257812 412.3125 535.257812 411.589844 L 535.257812 356.117188 C 535.257812 355.394531 535.902344 354.753906 536.625 354.753906 L 544.171875 354.753906 C 544.894531 354.753906 545.535156 355.394531 545.535156 356.117188 L 545.535156 411.589844 C 545.535156 412.3125 544.972656 412.957031 544.171875 412.957031" fill-opacity="1" fill-rule="nonzero"></path><path fill="#fff" d="M 501.140625 413.675781 C 493.996094 413.675781 488.214844 411.109375 483.882812 406.132812 C 479.625 401.152344 477.457031 392.886719 477.457031 384.777344 L 477.457031 382.691406 C 477.457031 377.3125 478.421875 370.96875 480.429688 366.875 C 482.4375 362.699219 485.328125 359.488281 489.019531 357.242188 C 492.710938 354.992188 496.964844 353.871094 501.785156 353.871094 C 508.207031 353.871094 513.421875 355.636719 517.277344 359.167969 C 520.40625 361.976562 522.574219 365.832031 523.539062 370.488281 C 523.621094 370.890625 523.539062 371.289062 523.296875 371.613281 C 523.058594 371.933594 522.65625 372.09375 522.253906 372.09375 L 514.546875 372.09375 C 513.90625 372.09375 513.34375 371.691406 513.183594 371.050781 C 512.460938 368.480469 511.417969 366.472656 509.972656 365.1875 C 508.046875 363.421875 505.316406 362.539062 501.703125 362.539062 C 497.289062 362.539062 493.914062 364.066406 491.507812 367.195312 C 489.019531 370.40625 487.734375 376.667969 487.734375 382.691406 L 487.734375 384.859375 C 487.734375 390.558594 488.9375 396.738281 491.347656 400.03125 C 493.675781 403.242188 496.886719 404.765625 501.0625 404.765625 C 504.914062 404.765625 507.804688 403.964844 509.8125 402.359375 C 511.335938 401.152344 512.460938 399.066406 513.183594 396.335938 C 513.34375 395.695312 513.90625 395.292969 514.46875 395.292969 L 522.175781 395.292969 C 522.574219 395.292969 522.976562 395.453125 523.21875 395.855469 C 523.457031 396.175781 523.539062 396.578125 523.457031 396.980469 C 522.335938 401.796875 520.167969 405.648438 516.796875 408.460938 C 513.023438 411.992188 507.644531 413.675781 501.140625 413.675781" fill-opacity="1" fill-rule="nonzero"></path><path fill="#fff" d="M 305.019531 412.957031 L 276.601562 412.957031 C 275.878906 412.957031 275.238281 412.3125 275.238281 411.589844 L 275.238281 356.117188 C 275.238281 355.394531 275.878906 354.753906 276.601562 354.753906 L 305.019531 354.753906 C 305.742188 354.753906 306.382812 355.394531 306.382812 356.117188 L 306.382812 362.136719 C 306.382812 362.859375 305.742188 363.503906 305.019531 363.503906 L 285.511719 363.503906 L 285.511719 378.597656 L 305.019531 378.597656 C 305.742188 378.597656 306.382812 379.238281 306.382812 379.960938 L 306.382812 385.980469 C 306.382812 386.703125 305.742188 387.347656 305.019531 387.347656 L 285.511719 387.347656 L 285.511719 404.285156 L 305.019531 404.285156 C 305.742188 404.285156 306.382812 404.925781 306.382812 405.648438 L 306.382812 411.671875 C 306.382812 412.3125 305.824219 412.957031 305.019531 412.957031" fill-opacity="1" fill-rule="nonzero"></path><path fill="#fff" d="M 406.332031 412.957031 L 377.914062 412.957031 C 377.191406 412.957031 376.546875 412.3125 376.546875 411.589844 L 376.546875 356.117188 C 376.546875 355.394531 377.191406 354.753906 377.914062 354.753906 L 406.332031 354.753906 C 407.054688 354.753906 407.695312 355.394531 407.695312 356.117188 L 407.695312 362.136719 C 407.695312 362.859375 407.054688 363.503906 406.332031 363.503906 L 386.824219 363.503906 L 386.824219 378.597656 L 406.332031 378.597656 C 407.054688 378.597656 407.695312 379.238281 407.695312 379.960938 L 407.695312 385.980469 C 407.695312 386.703125 407.054688 387.347656 406.332031 387.347656 L 386.824219 387.347656 L 386.824219 404.285156 L 406.332031 404.285156 C 407.054688 404.285156 407.695312 404.925781 407.695312 405.648438 L 407.695312 411.671875 C 407.777344 412.3125 407.132812 412.957031 406.332031 412.957031" fill-opacity="1" fill-rule="nonzero"></path><path fill="#fff" d="M 571.945312 397.941406 L 570.582031 398.585938 L 570.984375 397.542969 L 573.152344 391.519531 L 581.257812 369.042969 L 589.929688 392.964844 C 583.265625 394.25 578.046875 395.613281 571.945312 397.941406 M 606.867188 411.027344 L 585.675781 355.554688 C 585.515625 354.992188 584.953125 354.671875 584.46875 354.671875 L 578.046875 354.671875 C 577.484375 354.671875 577.003906 354.992188 576.765625 355.554688 L 555.652344 411.027344 C 555.488281 411.429688 555.570312 411.910156 555.8125 412.3125 C 556.050781 412.714844 556.453125 412.957031 556.933594 412.957031 L 564.480469 412.957031 C 565.285156 412.957031 565.925781 412.957031 565.925781 412.957031 C 574.675781 403.320312 588.082031 398.585938 591.617188 397.460938 L 596.914062 411.992188 C 597.074219 412.554688 597.636719 412.875 598.199219 412.875 L 605.664062 412.875 C 606.144531 412.875 606.546875 412.632812 606.789062 412.234375 C 607.027344 411.992188 607.027344 411.511719 606.867188 411.027344" fill-opacity="1" fill-rule="nonzero"></path><path fill="#fff" d="M 341.628906 413.675781 C 336.808594 413.675781 332.476562 412.554688 328.703125 410.304688 C 324.929688 408.058594 321.957031 404.847656 319.871094 400.671875 C 317.863281 396.578125 316.742188 391.84375 316.742188 386.464844 L 316.742188 381.644531 C 316.742188 372.976562 318.828125 366.152344 323.003906 361.335938 C 327.175781 356.4375 333.199219 353.949219 340.742188 353.949219 C 346.925781 353.949219 351.984375 355.554688 355.835938 358.6875 C 358.566406 360.933594 360.574219 363.984375 361.855469 367.597656 C 362.019531 368 361.9375 368.480469 361.695312 368.800781 C 361.457031 369.203125 361.054688 369.363281 360.574219 369.363281 L 352.785156 369.363281 C 352.222656 369.363281 351.824219 369.042969 351.582031 368.5625 C 349.65625 364.546875 346.203125 362.539062 340.824219 362.539062 C 336.25 362.539062 332.875 364.066406 330.546875 367.195312 C 328.140625 370.40625 326.9375 375.144531 326.9375 381.324219 L 326.9375 385.820312 C 326.9375 391.679688 328.300781 396.417969 330.949219 399.789062 C 333.597656 403.160156 337.050781 404.765625 341.628906 404.765625 C 344.277344 404.765625 346.605469 404.445312 348.53125 403.882812 C 350.21875 403.402344 351.582031 402.597656 352.707031 401.554688 L 352.707031 387.105469 L 343.554688 387.105469 C 342.832031 387.105469 342.1875 386.464844 342.1875 385.742188 L 342.1875 379.71875 C 342.1875 378.996094 342.832031 378.355469 343.554688 378.355469 L 362.902344 378.355469 L 362.902344 404.042969 C 362.902344 404.367188 362.820312 404.605469 362.660156 404.847656 C 360.574219 407.738281 357.683594 409.90625 354.070312 411.347656 C 350.457031 413.035156 346.285156 413.675781 341.628906 413.675781" fill-opacity="1" fill-rule="nonzero"></path><path fill="#fff" d="M 616.261719 362.300781 C 615.859375 363.023438 615.378906 363.503906 614.65625 363.90625 C 613.933594 364.304688 613.210938 364.546875 612.40625 364.546875 C 611.605469 364.546875 610.882812 364.304688 610.160156 363.984375 C 609.515625 363.582031 608.957031 363.023438 608.554688 362.378906 C 608.152344 361.65625 607.992188 360.933594 607.992188 360.132812 C 607.992188 359.328125 608.152344 358.605469 608.554688 357.882812 C 608.957031 357.160156 609.515625 356.679688 610.160156 356.277344 C 610.882812 355.875 611.605469 355.714844 612.40625 355.714844 C 613.210938 355.714844 614.011719 355.957031 614.65625 356.359375 C 615.378906 356.761719 615.859375 357.320312 616.261719 357.964844 C 616.664062 358.605469 616.824219 359.410156 616.824219 360.210938 C 616.902344 360.855469 616.664062 361.578125 616.261719 362.300781 M 617.0625 357.402344 C 616.582031 356.597656 615.941406 355.957031 615.136719 355.476562 C 614.335938 354.992188 613.371094 354.753906 612.40625 354.753906 C 611.445312 354.753906 610.5625 354.992188 609.679688 355.476562 C 608.796875 355.957031 608.152344 356.597656 607.671875 357.402344 C 607.1875 358.203125 606.949219 359.089844 606.949219 360.132812 C 606.949219 361.175781 607.1875 361.976562 607.671875 362.859375 C 608.152344 363.664062 608.796875 364.304688 609.679688 364.789062 C 610.480469 365.269531 611.445312 365.511719 612.40625 365.511719 C 613.371094 365.511719 614.335938 365.269531 615.136719 364.789062 C 615.941406 364.304688 616.664062 363.664062 617.0625 362.859375 C 617.546875 362.058594 617.785156 361.175781 617.785156 360.210938 C 617.785156 359.089844 617.546875 358.203125 617.0625 357.402344" fill-opacity="1" fill-rule="nonzero"></path><path fill="#fff" d="M 613.128906 359.488281 C 612.96875 359.570312 612.730469 359.648438 612.488281 359.648438 L 611.683594 359.648438 L 611.683594 358.203125 L 612.488281 358.203125 C 612.808594 358.203125 613.128906 358.285156 613.210938 358.367188 C 613.371094 358.445312 613.453125 358.6875 613.453125 358.925781 C 613.371094 359.25 613.289062 359.410156 613.128906 359.488281 M 614.253906 361.976562 C 614.253906 361.816406 614.253906 361.65625 614.253906 361.335938 C 614.253906 361.015625 614.171875 360.773438 614.09375 360.53125 C 614.011719 360.292969 613.851562 360.132812 613.613281 360.050781 C 614.09375 359.8125 614.335938 359.488281 614.335938 359.007812 C 614.335938 358.527344 614.171875 358.125 613.851562 357.882812 C 613.53125 357.644531 613.050781 357.484375 612.488281 357.484375 L 610.882812 357.484375 L 610.882812 362.378906 L 611.765625 362.378906 L 611.765625 360.453125 L 612.648438 360.453125 C 612.96875 360.453125 613.128906 360.53125 613.289062 360.613281 C 613.453125 360.773438 613.453125 360.933594 613.453125 361.253906 C 613.453125 361.898438 613.453125 362.21875 613.53125 362.378906 L 614.414062 362.378906 L 614.414062 362.300781 C 614.335938 362.21875 614.253906 362.136719 614.253906 361.976562" fill-opacity="1" fill-rule="nonzero"></path></g></svg>