<svg xmlns="http://www.w3.org/2000/svg" zoomAndPan="magnify" preserveAspectRatio="xMidYMid meet" viewBox="0 0 768 768"><title>egencia square</title><g class="nc-icon-wrapper"><defs><clipPath id="1706434153669-1672293_f6319fa3c1"><path d="M 76 76.800781 L 717 76.800781 L 717 691 L 76 691 Z M 76 76.800781" clip-rule="nonzero"></path></clipPath><clipPath id="1706434153669-1672293_8029f2c512"><path d="M 242.921875 76.800781 L 242.921875 690.414062 C 244.722656 690.542969 246.519531 690.542969 248.320312 690.542969 L 543.949219 690.542969 L 543.949219 76.800781 Z M 590.203125 76.800781 L 543.949219 76.800781 L 543.949219 690.414062 L 544.976562 690.414062 C 619.75 690.414062 685.40625 629.386719 690.800781 554.871094 L 716.109375 212.214844 C 721.636719 137.828125 664.976562 76.800781 590.203125 76.800781 Z M 203.09375 76.800781 C 128.320312 76.800781 71.660156 137.828125 77.183594 212.34375 L 102.496094 555 C 107.890625 627.71875 170.589844 687.589844 243.050781 690.414062 L 243.050781 76.800781 Z M 203.09375 76.800781" clip-rule="nonzero"></path></clipPath></defs><path fill="#fff" fill-opacity="1" d="M-76.8 -76.8H844.8000000000001V844.8000000000001H-76.8z"></path><path fill="#fff" fill-opacity="1" d="M-76.8 -76.8H844.8000000000001V844.8000000000001H-76.8z"></path><g clip-path="url(#1706434153669-1672293_f6319fa3c1)"><g clip-path="url(#1706434153669-1672293_8029f2c512)"><path fill="#000" d="M 76.800781 76.800781 L 716.089844 76.800781 L 716.089844 690.414062 L 76.800781 690.414062 Z M 76.800781 76.800781" fill-opacity="1" fill-rule="nonzero"></path></g></g><path fill="#fff" d="M 154.882812 365.730469 C 153.769531 365.96875 153.691406 367.316406 154.882812 367.316406 C 156.632812 367.238281 164.894531 367 172.28125 367.714844 C 180.863281 368.507812 189.046875 370.734375 195.480469 372.878906 C 201.835938 375.023438 215.980469 383.046875 215.980469 383.046875 C 215.980469 383.046875 197.707031 393.375 191.507812 408.789062 C 191.191406 409.585938 191.589844 409.902344 192.699219 409.265625 C 216.058594 395.363281 232.347656 386.863281 260.789062 381.300781 C 262.617188 380.902344 262.378906 380.746094 260.867188 380.347656 C 259.277344 379.949219 253.875 378.996094 239.8125 373.753906 C 225.75 368.507812 212.246094 363.664062 196.433594 362.472656 C 194.132812 362.3125 191.746094 362.234375 189.285156 362.234375 C 172.839844 362.152344 155.359375 365.648438 154.882812 365.730469" fill-opacity="1" fill-rule="nonzero"></path><path fill="#fff" d="M 268.019531 352.382812 C 263.570312 357.703125 254.273438 364.457031 245.375 367.953125 C 244.183594 368.429688 244.5 369.144531 244.976562 369.460938 C 245.136719 369.542969 245.773438 369.78125 246.644531 370.097656 L 258.324219 373.832031 C 259.277344 374.148438 259.277344 374.070312 259.675781 373.671875 C 265.871094 367.476562 268.257812 358.5 268.652344 352.539062 C 268.652344 352.539062 268.734375 351.824219 268.574219 351.824219 C 268.496094 351.90625 268.335938 352.0625 268.019531 352.382812" fill-opacity="1" fill-rule="nonzero"></path><path fill="#fff" d="M 478.875 409.585938 L 471.40625 409.585938 C 470.929688 409.585938 470.53125 409.347656 470.292969 408.949219 L 447.808594 370.335938 L 447.808594 408.234375 C 447.808594 408.949219 447.175781 409.585938 446.460938 409.585938 L 438.992188 409.585938 C 438.277344 409.585938 437.640625 408.949219 437.640625 408.234375 L 437.640625 353.335938 C 437.640625 352.621094 438.277344 351.984375 438.992188 351.984375 L 446.460938 351.984375 C 446.9375 351.984375 447.332031 352.222656 447.570312 352.621094 L 470.136719 389.644531 L 470.136719 353.335938 C 470.136719 352.621094 470.769531 351.984375 471.484375 351.984375 L 478.875 351.984375 C 479.589844 351.984375 480.226562 352.621094 480.226562 353.335938 L 480.226562 408.234375 C 480.304688 408.949219 479.667969 409.585938 478.875 409.585938" fill-opacity="1" fill-rule="nonzero"></path><path fill="#fff" d="M 557.847656 409.585938 L 550.378906 409.585938 C 549.664062 409.585938 549.027344 408.949219 549.027344 408.234375 L 549.027344 353.335938 C 549.027344 352.621094 549.664062 351.984375 550.378906 351.984375 L 557.847656 351.984375 C 558.5625 351.984375 559.195312 352.621094 559.195312 353.335938 L 559.195312 408.234375 C 559.195312 408.949219 558.640625 409.585938 557.847656 409.585938" fill-opacity="1" fill-rule="nonzero"></path><path fill="#fff" d="M 515.261719 410.300781 C 508.191406 410.300781 502.46875 407.757812 498.179688 402.832031 C 493.96875 397.90625 491.824219 389.722656 491.824219 381.699219 L 491.824219 379.632812 C 491.824219 374.308594 492.777344 368.03125 494.765625 363.980469 C 496.75 359.847656 499.609375 356.671875 503.265625 354.445312 C 506.917969 352.222656 511.128906 351.109375 515.898438 351.109375 C 522.253906 351.109375 527.417969 352.859375 531.230469 356.355469 C 534.328125 359.132812 536.472656 362.949219 537.429688 367.554688 C 537.507812 367.953125 537.429688 368.351562 537.1875 368.667969 C 536.949219 368.984375 536.554688 369.144531 536.15625 369.144531 L 528.53125 369.144531 C 527.894531 369.144531 527.335938 368.746094 527.179688 368.113281 C 526.464844 365.570312 525.429688 363.582031 524 362.3125 C 522.09375 360.566406 519.394531 359.691406 515.816406 359.691406 C 511.449219 359.691406 508.109375 361.199219 505.726562 364.296875 C 503.265625 367.476562 501.992188 373.671875 501.992188 379.632812 L 501.992188 381.777344 C 501.992188 387.417969 503.183594 393.535156 505.570312 396.792969 C 507.871094 399.972656 511.050781 401.480469 515.183594 401.480469 C 518.996094 401.480469 521.855469 400.6875 523.84375 399.097656 C 525.351562 397.90625 526.464844 395.839844 527.179688 393.136719 C 527.335938 392.503906 527.894531 392.105469 528.449219 392.105469 L 536.078125 392.105469 C 536.472656 392.105469 536.871094 392.265625 537.109375 392.660156 C 537.347656 392.980469 537.429688 393.375 537.347656 393.773438 C 536.234375 398.539062 534.089844 402.355469 530.753906 405.136719 C 527.019531 408.628906 521.695312 410.300781 515.261719 410.300781" fill-opacity="1" fill-rule="nonzero"></path><path fill="#fff" d="M 321.167969 409.585938 L 293.042969 409.585938 C 292.328125 409.585938 291.695312 408.949219 291.695312 408.234375 L 291.695312 353.335938 C 291.695312 352.621094 292.328125 351.984375 293.042969 351.984375 L 321.167969 351.984375 C 321.882812 351.984375 322.519531 352.621094 322.519531 353.335938 L 322.519531 359.292969 C 322.519531 360.007812 321.882812 360.644531 321.167969 360.644531 L 301.863281 360.644531 L 301.863281 375.582031 L 321.167969 375.582031 C 321.882812 375.582031 322.519531 376.214844 322.519531 376.929688 L 322.519531 382.890625 C 322.519531 383.605469 321.882812 384.238281 321.167969 384.238281 L 301.863281 384.238281 L 301.863281 401.003906 L 321.167969 401.003906 C 321.882812 401.003906 322.519531 401.640625 322.519531 402.355469 L 322.519531 408.3125 C 322.519531 408.949219 321.964844 409.585938 321.167969 409.585938" fill-opacity="1" fill-rule="nonzero"></path><path fill="#fff" d="M 421.433594 409.585938 L 393.308594 409.585938 C 392.59375 409.585938 391.957031 408.949219 391.957031 408.234375 L 391.957031 353.335938 C 391.957031 352.621094 392.59375 351.984375 393.308594 351.984375 L 421.433594 351.984375 C 422.148438 351.984375 422.785156 352.621094 422.785156 353.335938 L 422.785156 359.292969 C 422.785156 360.007812 422.148438 360.644531 421.433594 360.644531 L 402.128906 360.644531 L 402.128906 375.582031 L 421.433594 375.582031 C 422.148438 375.582031 422.785156 376.214844 422.785156 376.929688 L 422.785156 382.890625 C 422.785156 383.605469 422.148438 384.238281 421.433594 384.238281 L 402.128906 384.238281 L 402.128906 401.003906 L 421.433594 401.003906 C 422.148438 401.003906 422.785156 401.640625 422.785156 402.355469 L 422.785156 408.3125 C 422.863281 408.949219 422.226562 409.585938 421.433594 409.585938" fill-opacity="1" fill-rule="nonzero"></path><path fill="#fff" d="M 585.335938 394.726562 L 583.984375 395.363281 L 584.382812 394.328125 L 586.527344 388.371094 L 594.550781 366.125 L 603.132812 389.800781 C 596.539062 391.074219 591.375 392.421875 585.335938 394.726562 M 619.894531 407.675781 L 598.921875 352.777344 C 598.761719 352.222656 598.207031 351.90625 597.730469 351.90625 L 591.375 351.90625 C 590.816406 351.90625 590.339844 352.222656 590.101562 352.777344 L 569.207031 407.675781 C 569.046875 408.074219 569.128906 408.550781 569.367188 408.949219 C 569.605469 409.347656 570 409.585938 570.476562 409.585938 L 577.945312 409.585938 C 578.742188 409.585938 579.375 409.585938 579.375 409.585938 C 588.035156 400.050781 601.304688 395.363281 604.800781 394.25 L 610.042969 408.628906 C 610.203125 409.1875 610.757812 409.503906 611.316406 409.503906 L 618.703125 409.503906 C 619.179688 409.503906 619.578125 409.265625 619.816406 408.867188 C 620.054688 408.628906 620.054688 408.152344 619.894531 407.675781" fill-opacity="1" fill-rule="nonzero"></path><path fill="#fff" d="M 357.398438 410.300781 C 352.628906 410.300781 348.339844 409.1875 344.605469 406.960938 C 340.871094 404.738281 337.933594 401.558594 335.867188 397.429688 C 333.878906 393.375 332.769531 388.6875 332.769531 383.367188 L 332.769531 378.597656 C 332.769531 370.019531 334.835938 363.265625 338.964844 358.5 C 343.097656 353.652344 349.054688 351.191406 356.523438 351.191406 C 362.640625 351.191406 367.644531 352.777344 371.460938 355.878906 C 374.160156 358.101562 376.148438 361.121094 377.417969 364.695312 C 377.578125 365.09375 377.496094 365.570312 377.257812 365.886719 C 377.019531 366.285156 376.625 366.445312 376.148438 366.445312 L 368.441406 366.445312 C 367.882812 366.445312 367.488281 366.125 367.25 365.648438 C 365.34375 361.675781 361.925781 359.691406 356.601562 359.691406 C 352.074219 359.691406 348.738281 361.199219 346.433594 364.296875 C 344.050781 367.476562 342.859375 372.164062 342.859375 378.28125 L 342.859375 382.730469 C 342.859375 388.53125 344.210938 393.21875 346.832031 396.554688 C 349.453125 399.890625 352.867188 401.480469 357.398438 401.480469 C 360.019531 401.480469 362.324219 401.164062 364.230469 400.605469 C 365.898438 400.128906 367.25 399.335938 368.363281 398.300781 L 368.363281 384 L 359.304688 384 C 358.589844 384 357.953125 383.367188 357.953125 382.652344 L 357.953125 376.691406 C 357.953125 375.976562 358.589844 375.34375 359.304688 375.34375 L 378.453125 375.34375 L 378.453125 400.765625 C 378.453125 401.082031 378.371094 401.320312 378.214844 401.558594 C 376.148438 404.421875 373.289062 406.566406 369.710938 407.996094 C 366.136719 409.664062 362.003906 410.300781 357.398438 410.300781" fill-opacity="1" fill-rule="nonzero"></path><path fill="#fff" d="M 629.191406 359.453125 C 628.792969 360.167969 628.316406 360.644531 627.601562 361.042969 C 626.886719 361.4375 626.171875 361.675781 625.378906 361.675781 C 624.582031 361.675781 623.867188 361.4375 623.152344 361.121094 C 622.515625 360.722656 621.960938 360.167969 621.5625 359.53125 C 621.167969 358.816406 621.007812 358.101562 621.007812 357.308594 C 621.007812 356.511719 621.167969 355.796875 621.5625 355.082031 C 621.960938 354.367188 622.515625 353.890625 623.152344 353.492188 C 623.867188 353.097656 624.582031 352.9375 625.378906 352.9375 C 626.171875 352.9375 626.964844 353.175781 627.601562 353.574219 C 628.316406 353.96875 628.792969 354.527344 629.191406 355.160156 C 629.589844 355.796875 629.746094 356.59375 629.746094 357.386719 C 629.828125 358.023438 629.589844 358.738281 629.191406 359.453125 M 629.984375 354.605469 C 629.507812 353.8125 628.871094 353.175781 628.078125 352.699219 C 627.285156 352.222656 626.332031 351.984375 625.378906 351.984375 C 624.421875 351.984375 623.550781 352.222656 622.675781 352.699219 C 621.800781 353.175781 621.167969 353.8125 620.691406 354.605469 C 620.214844 355.398438 619.976562 356.273438 619.976562 357.308594 C 619.976562 358.339844 620.214844 359.132812 620.691406 360.007812 C 621.167969 360.804688 621.800781 361.4375 622.675781 361.914062 C 623.46875 362.390625 624.421875 362.628906 625.378906 362.628906 C 626.332031 362.628906 627.285156 362.390625 628.078125 361.914062 C 628.871094 361.4375 629.589844 360.804688 629.984375 360.007812 C 630.460938 359.214844 630.699219 358.339844 630.699219 357.386719 C 630.699219 356.273438 630.460938 355.398438 629.984375 354.605469" fill-opacity="1" fill-rule="nonzero"></path><path fill="#fff" d="M 626.09375 356.671875 C 625.933594 356.75 625.695312 356.832031 625.457031 356.832031 L 624.664062 356.832031 L 624.664062 355.398438 L 625.457031 355.398438 C 625.773438 355.398438 626.09375 355.480469 626.171875 355.558594 C 626.332031 355.640625 626.410156 355.878906 626.410156 356.117188 C 626.332031 356.433594 626.25 356.59375 626.09375 356.671875 M 627.203125 359.132812 C 627.203125 358.976562 627.203125 358.816406 627.203125 358.5 C 627.203125 358.179688 627.125 357.941406 627.046875 357.703125 C 626.964844 357.464844 626.808594 357.308594 626.570312 357.226562 C 627.046875 356.988281 627.285156 356.671875 627.285156 356.195312 C 627.285156 355.71875 627.125 355.320312 626.808594 355.082031 C 626.488281 354.84375 626.011719 354.683594 625.457031 354.683594 L 623.867188 354.683594 L 623.867188 359.53125 L 624.742188 359.53125 L 624.742188 357.625 L 625.617188 357.625 C 625.933594 357.625 626.09375 357.703125 626.25 357.785156 C 626.410156 357.941406 626.410156 358.101562 626.410156 358.417969 C 626.410156 359.054688 626.410156 359.371094 626.488281 359.53125 L 627.363281 359.53125 L 627.363281 359.453125 C 627.285156 359.371094 627.203125 359.292969 627.203125 359.132812" fill-opacity="1" fill-rule="nonzero"></path></g></svg>