<svg xmlns="http://www.w3.org/2000/svg" zoomAndPan="magnify" preserveAspectRatio="xMidYMid meet" viewBox="0 0 768 768"><title>expedia square</title><g class="nc-icon-wrapper"><defs><clipPath id="1706434153672-5168462_Infinity"><path d="M 64 76.800781 L 704 76.800781 L 704 691 L 64 691 Z M 64 76.800781" clip-rule="nonzero"></path></clipPath><clipPath id="1706434153672-5168462_2ce94514cc"><path d="M 230.273438 76.800781 L 230.273438 690.414062 C 232.074219 690.542969 233.871094 690.542969 235.671875 690.542969 L 531.300781 690.542969 L 531.300781 76.800781 Z M 577.554688 76.800781 L 531.300781 76.800781 L 531.300781 690.414062 L 532.328125 690.414062 C 607.105469 690.414062 672.757812 629.386719 678.152344 554.871094 L 703.460938 212.214844 C 708.988281 137.828125 652.328125 76.800781 577.554688 76.800781 Z M 190.445312 76.800781 C 115.671875 76.800781 59.011719 137.828125 64.539062 212.34375 L 89.847656 555 C 95.242188 627.71875 157.941406 687.589844 230.402344 690.414062 L 230.402344 76.800781 Z M 190.445312 76.800781" clip-rule="nonzero"></path></clipPath></defs><path fill="#fff" fill-opacity="1" d="M-76.8 -76.8H844.8000000000001V844.8000000000001H-76.8z"></path><path fill="#fff" fill-opacity="1" d="M-76.8 -76.8H844.8000000000001V844.8000000000001H-76.8z"></path><g clip-path="url(#1706434153672-5168462_525e796015)"><g clip-path="url(#1706434153672-5168462_2ce94514cc)"><path fill="#000" d="M 64.152344 76.800781 L 703.441406 76.800781 L 703.441406 690.414062 L 64.152344 690.414062 Z M 64.152344 76.800781" fill-opacity="1" fill-rule="nonzero"></path></g></g><path fill="#fff" d="M 531.007812 384 C 531.007812 465.21875 465.21875 531.007812 384 531.007812 C 331.664062 531.007812 285.796875 503.738281 259.851562 462.574219 C 257.71875 459.339844 255.734375 456.03125 253.972656 452.578125 C 243.09375 432.144531 236.992188 408.769531 236.992188 384 C 236.992188 302.777344 302.777344 236.992188 384 236.992188 C 435.894531 236.992188 481.464844 263.820312 507.558594 304.46875 C 510.132812 308.289062 512.410156 312.332031 514.542969 316.449219 C 525.050781 336.664062 531.007812 359.667969 531.007812 384 Z M 531.007812 384" fill-opacity="1" fill-rule="nonzero"></path><path fill="#000" d="M 514.542969 316.449219 C 512.410156 312.332031 510.132812 308.289062 507.558594 304.46875 C 486.902344 312.699219 467.058594 322.402344 447.433594 332.546875 C 440.890625 335.875 434.421875 339.359375 428 342.910156 L 330.710938 290.28125 L 319.683594 297.632812 L 384 347.246094 L 393.039062 363.074219 C 387.792969 366.175781 382.558594 369.292969 377.308594 372.386719 C 354.230469 386.203125 331.371094 400.464844 308.804688 415.089844 C 290.28125 427.292969 271.90625 439.566406 253.972656 452.578125 C 255.734375 456.03125 257.71875 459.339844 259.851562 462.574219 C 280.066406 453.460938 299.835938 443.683594 319.535156 433.761719 C 343.5 421.414062 367.242188 408.695312 390.6875 395.613281 C 395.964844 392.621094 401.242188 389.636719 406.511719 386.652344 L 413.402344 398.699219 L 426.265625 481.390625 L 437.289062 477.714844 L 442.148438 365.925781 C 448.226562 362.242188 454.261719 358.484375 460.222656 354.597656 C 478.820312 342.617188 497.121094 330.269531 514.542969 316.449219 Z M 514.542969 316.449219" fill-opacity="1" fill-rule="nonzero"></path></g></svg>