<svg xmlns="http://www.w3.org/2000/svg" zoomAndPan="magnify" preserveAspectRatio="xMidYMid meet" viewBox="0 0 768 768"><title>hopper square</title><g class="nc-icon-wrapper"><defs><clipPath id="1706434153682-8407802_db9b8ff763"><path d="M 76 76.800781 L 717 76.800781 L 717 691 L 76 691 Z M 76 76.800781" clip-rule="nonzero"></path></clipPath><clipPath id="1706434153682-8407802_76a1cd59f0"><path d="M 242.921875 76.800781 L 242.921875 690.414062 C 244.722656 690.542969 246.519531 690.542969 248.320312 690.542969 L 543.949219 690.542969 L 543.949219 76.800781 Z M 590.203125 76.800781 L 543.949219 76.800781 L 543.949219 690.414062 L 544.976562 690.414062 C 619.75 690.414062 685.40625 629.386719 690.800781 554.871094 L 716.109375 212.214844 C 721.636719 137.828125 664.976562 76.800781 590.203125 76.800781 Z M 203.09375 76.800781 C 128.320312 76.800781 71.660156 137.828125 77.183594 212.34375 L 102.496094 555 C 107.890625 627.71875 170.589844 687.589844 243.050781 690.414062 L 243.050781 76.800781 Z M 203.09375 76.800781" clip-rule="nonzero"></path></clipPath></defs><path fill="#fff" fill-opacity="1" d="M-76.8 -76.8H844.8000000000001V844.8000000000001H-76.8z"></path><path fill="#fff" fill-opacity="1" d="M-76.8 -76.8H844.8000000000001V844.8000000000001H-76.8z"></path><g clip-path="url(#1706434153682-8407802_db9b8ff763)"><g clip-path="url(#1706434153682-8407802_76a1cd59f0)"><path fill="#000" d="M 76.800781 76.800781 L 716.089844 76.800781 L 716.089844 690.414062 L 76.800781 690.414062 Z M 76.800781 76.800781" fill-opacity="1" fill-rule="nonzero"></path></g></g><path fill="#fff" d="M 164.296875 369.859375 C 162.289062 369.214844 160.859375 368.730469 159.414062 368.289062 C 149.558594 365.273438 146.378906 355.972656 152.46875 347.699219 C 155.199219 343.996094 158.839844 341.324219 163.011719 339.390625 C 173.371094 334.574219 175.699219 335.683594 177.351562 346.964844 C 177.832031 350.25 178.8125 351.160156 181.832031 349.953125 C 211.269531 338.179688 235.15625 349.183594 257.277344 367.976562 C 259.789062 370.109375 262.5625 375.433594 266.191406 371.921875 C 268.621094 369.570312 264.15625 366.066406 262.40625 363.320312 C 257.152344 355.082031 250.304688 347.839844 247.433594 338.132812 C 245.894531 332.914062 245.273438 327.664062 246.355469 322.441406 C 247.304688 317.867188 250.121094 316.054688 254.402344 319.488281 C 258.628906 322.882812 261.894531 327.007812 263.765625 332.128906 C 267.222656 341.582031 270.542969 351.085938 274.183594 360.464844 C 275.003906 362.570312 274.839844 367.082031 278.554688 365.601562 C 281.597656 364.394531 279.300781 360.964844 278.609375 358.570312 C 275.613281 348.140625 272.289062 337.796875 269.648438 327.28125 C 268.554688 322.925781 266.027344 316.3125 271.023438 314.335938 C 276.992188 311.96875 281.160156 317.96875 283.894531 322.761719 C 290.3125 334.023438 290.96875 346.566406 289.90625 359.050781 C 289.40625 364.933594 290.15625 369.160156 295.339844 372.601562 C 299.992188 375.691406 303.746094 379.929688 306.9375 384.558594 C 314.003906 394.78125 311.863281 401.832031 300.945312 407.828125 C 296.828125 410.09375 289.117188 408.464844 289.007812 414.144531 C 288.9375 417.734375 294.660156 421.363281 297.621094 425.105469 C 301.738281 430.308594 305.90625 435.492188 307.207031 442.292969 C 307.917969 446.023438 308.90625 449.984375 304.8125 452.210938 C 301.023438 454.277344 297.539062 452.210938 294.589844 449.820312 C 289.363281 445.605469 285.679688 440.011719 281.558594 434.808594 C 270.007812 420.21875 256.128906 408.378906 239.222656 400.417969 C 210.425781 386.859375 182.421875 389.394531 155.363281 405.421875 C 150.800781 408.125 146.757812 411.707031 142.148438 414.320312 C 139.023438 416.089844 136.679688 422.097656 132.488281 418.671875 C 128.957031 415.789062 130.988281 410.746094 132.570312 406.777344 C 136.691406 396.421875 143.960938 388.328125 151.898438 380.785156 C 155.730469 377.152344 159.820312 373.789062 164.296875 369.859375 Z M 555.699219 388.90625 C 548.476562 405.125 535.890625 410.832031 518.199219 405.152344 C 517.015625 418.566406 519.75 431.496094 518.445312 444.445312 C 518.035156 448.515625 518.414062 453.023438 512.65625 452.890625 C 507.902344 452.78125 504.890625 450.289062 504.445312 445.039062 C 502.230469 418.839844 502.019531 392.648438 504.800781 366.492188 C 505.519531 359.773438 508.832031 358.523438 514.332031 362.722656 C 515.882812 363.910156 516.503906 363.996094 518.191406 363.574219 C 538.40625 358.5 545.636719 361.71875 556.285156 380.375 C 559.074219 379.527344 558.949219 376.699219 560.019531 374.757812 C 565.785156 364.292969 578.6875 358.871094 590.082031 362.355469 C 597.054688 364.488281 601.839844 368.503906 601.558594 376.527344 C 601.273438 384.660156 595.820312 388.304688 588.898438 389.664062 C 584.355469 390.558594 579.492188 389.832031 574.5 389.832031 C 578.488281 397.167969 583.6875 399.015625 592.746094 396.367188 C 603.710938 393.164062 608.121094 384.011719 612.097656 374.597656 C 613.125 372.160156 610.925781 370.773438 609.835938 369.039062 C 607.777344 365.75 606.832031 362.167969 608.136719 358.414062 C 609.023438 355.867188 610.472656 353.578125 613.707031 353.492188 C 616.753906 353.40625 619.496094 354.929688 619.820312 357.609375 C 620.875 366.460938 627.558594 365.679688 633.472656 366.007812 C 646.300781 366.714844 648.5625 369.945312 644.058594 381.796875 C 643.121094 384.273438 641.921875 386.65625 641.039062 389.148438 C 640.117188 391.746094 637.523438 395.226562 640.628906 396.929688 C 643.382812 398.4375 645.820312 394.933594 647.542969 392.710938 C 651.089844 388.140625 654.277344 383.296875 657.578125 378.617188 C 659.421875 378.863281 659.761719 380.222656 659.917969 381.453125 C 661.300781 392.042969 649.296875 407.171875 639.015625 407.875 C 629.542969 408.527344 623.851562 401.960938 626.070312 392.832031 C 626.628906 390.523438 627.832031 388.339844 628.175781 386.015625 C 628.597656 383.203125 633.679688 379.671875 628.667969 377.761719 C 624.554688 376.195312 618.546875 373.070312 616.164062 381.65625 C 614.792969 386.609375 611.664062 391.292969 608.5 395.484375 C 594.390625 414.179688 569.230469 411.765625 558.460938 390.875 C 557.996094 389.976562 557.75 388.839844 555.699219 388.90625 Z M 540.09375 384.660156 C 540.226562 377.816406 535.09375 371.597656 529.144531 371.382812 C 522.070312 371.125 516.667969 376.367188 516.46875 383.675781 C 516.261719 391.195312 521.050781 396.507812 528.207031 396.703125 C 534.726562 396.878906 539.957031 391.578125 540.09375 384.660156 Z M 579.503906 383.386719 C 583.507812 381.960938 589.695312 383.074219 589.863281 376.253906 C 589.964844 372.21875 586.453125 371.011719 583.066406 371.355469 C 578.128906 371.851562 574.558594 374.628906 573.808594 379.703125 C 573.167969 384.058594 576.871094 382.917969 579.503906 383.386719 Z M 579.503906 383.386719" fill-opacity="1" fill-rule="nonzero"></path><path fill="#fff" d="M 350.003906 382.265625 C 354.980469 376.5625 358.050781 370.335938 363.378906 365.730469 C 367.648438 362.042969 372.496094 359.890625 378.066406 361.773438 C 383.191406 363.503906 383.769531 368.449219 384.273438 372.898438 C 384.875 378.144531 384.765625 383.472656 385.261719 388.730469 C 385.582031 392.113281 384.378906 397.246094 390.316406 396.539062 C 395.082031 395.976562 395.3125 392.269531 394.683594 388.035156 C 392.804688 375.503906 400.710938 364.558594 413.335938 361.640625 C 426.828125 358.523438 440.40625 365.414062 444.496094 377.449219 C 447.445312 386.121094 444.558594 395.277344 436.890625 401.605469 C 428.578125 408.464844 416.222656 410.078125 407.066406 404.101562 C 402.011719 400.804688 399.238281 401.027344 394.476562 404.59375 C 385.21875 411.523438 374.886719 406.910156 372.066406 395.625 C 370.957031 391.164062 371.191406 386.675781 370.921875 382.195312 C 370.777344 379.839844 371.03125 377.015625 368.359375 376.011719 C 365.289062 374.855469 363.378906 377.320312 361.761719 379.371094 C 356.605469 385.894531 353.378906 393.488281 350.316406 401.109375 C 348.84375 404.765625 347.578125 408.109375 342.671875 407.519531 C 337.664062 406.925781 338.09375 402.683594 337.839844 399.605469 C 335.746094 373.960938 334.777344 348.296875 337.261719 322.601562 C 337.753906 317.539062 340.59375 315.527344 345.039062 315.40625 C 349.929688 315.277344 351.21875 318.757812 351.324219 322.871094 C 351.707031 337.183594 351.820312 351.488281 350.769531 365.785156 C 350.359375 371.28125 350.246094 376.777344 350.003906 382.265625 Z M 419.523438 396.675781 C 425.507812 396.816406 430.089844 391.535156 430.183594 384.402344 C 430.269531 377.519531 425.625 371.617188 419.992188 371.449219 C 414.410156 371.28125 409.398438 377.121094 409.269531 383.933594 C 409.140625 390.855469 413.714844 396.539062 419.523438 396.675781 Z M 447.492188 407.105469 C 448.207031 393.761719 448.722656 380.546875 449.679688 367.355469 C 450.207031 360.074219 453.652344 358.304688 459.449219 362.675781 C 461.941406 364.550781 463.199219 363.558594 464.917969 362.816406 C 470.832031 360.28125 476.902344 360.414062 482.875 362.101562 C 495.058594 365.542969 502.625 377.355469 500.265625 388.800781 C 497.890625 400.371094 483.949219 409.972656 471.4375 406.9375 C 462.824219 404.847656 462.964844 408.210938 463.289062 414.53125 C 463.800781 424.566406 463.53125 434.636719 463.742188 444.6875 C 463.835938 449.082031 463.171875 453.117188 457.761719 452.949219 C 453.109375 452.804688 449.726562 450.300781 449.546875 445.03125 C 449.523438 444.238281 449.429688 443.445312 449.386719 442.660156 Z M 484.828125 383.953125 C 484.773438 377.023438 480.179688 371.605469 474.203125 371.425781 C 467.132812 371.210938 461.957031 376.519531 461.886719 384.058594 C 461.8125 391.882812 466.402344 396.71875 473.898438 396.699219 C 480.664062 396.675781 484.886719 391.757812 484.828125 383.953125 Z M 484.828125 383.953125" fill-opacity="1" fill-rule="nonzero"></path></g></svg>