<svg xmlns="http://www.w3.org/2000/svg" zoomAndPan="magnify" preserveAspectRatio="xMidYMid meet" viewBox="0 0 768 768"><title>hotel tonight square</title><g class="nc-icon-wrapper"><defs><clipPath id="1706434153693-3114114_aa50ddb498"><path d="M 76 76.800781 L 717 76.800781 L 717 691 L 76 691 Z M 76 76.800781" clip-rule="nonzero"></path></clipPath><clipPath id="1706434153693-3114114_Infinity"><path d="M 242.921875 76.800781 L 242.921875 690.414062 C 244.722656 690.542969 246.519531 690.542969 248.320312 690.542969 L 543.949219 690.542969 L 543.949219 76.800781 Z M 590.203125 76.800781 L 543.949219 76.800781 L 543.949219 690.414062 L 544.976562 690.414062 C 619.75 690.414062 685.40625 629.386719 690.800781 554.871094 L 716.109375 212.214844 C 721.636719 137.828125 664.976562 76.800781 590.203125 76.800781 Z M 203.09375 76.800781 C 128.320312 76.800781 71.660156 137.828125 77.183594 212.34375 L 102.496094 555 C 107.890625 627.71875 170.589844 687.589844 243.050781 690.414062 L 243.050781 76.800781 Z M 203.09375 76.800781" clip-rule="nonzero"></path></clipPath></defs><path fill="#fff" fill-opacity="1" d="M-76.8 -76.8H844.8000000000001V844.8000000000001H-76.8z"></path><path fill="#fff" fill-opacity="1" d="M-76.8 -76.8H844.8000000000001V844.8000000000001H-76.8z"></path><g clip-path="url(#1706434153693-3114114_aa50ddb498)"><g clip-path="url(#1706434153693-3114114_28e5466264)"><path fill="#000" d="M 76.800781 76.800781 L 716.089844 76.800781 L 716.089844 690.414062 L 76.800781 690.414062 Z M 76.800781 76.800781" fill-opacity="1" fill-rule="nonzero"></path></g></g><path fill="#fff" d="M 168.0625 284.835938 L 206.40625 284.835938 L 206.40625 374.710938 L 593.34375 374.710938 L 593.34375 477.417969 L 555 477.417969 L 555 413.414062 L 206.90625 413.414062 L 206.90625 477.417969 L 168.0625 477.417969 Z M 168.0625 284.835938" fill-opacity="1" fill-rule="nonzero"></path><path fill="#fff" d="M 242.0625 350.328125 L 234.40625 350.328125 L 234.40625 301.917969 L 241.777344 301.917969 L 241.777344 322.1875 L 258.433594 322.1875 L 258.433594 301.917969 L 266.300781 301.917969 L 266.300781 350.117188 L 258.859375 350.117188 L 258.859375 329.417969 L 242.484375 329.417969 L 242.484375 350.328125 Z M 242.0625 350.328125" fill-opacity="1" fill-rule="nonzero"></path><path fill="#fff" d="M 492.054688 347.351562 C 484.613281 343.523438 486.597656 338.632812 492.480469 335.796875 C 490.355469 334.238281 488.867188 331.96875 488.230469 329.347656 C 486.953125 323.109375 490.992188 317.085938 497.160156 315.738281 C 498.507812 315.527344 499.851562 315.457031 501.199219 315.527344 C 502.050781 315.597656 502.902344 315.738281 503.75 315.953125 C 507.792969 316.800781 508.855469 316.375 510.34375 312.335938 L 514.597656 312.335938 C 516.296875 317.015625 514.808594 319.355469 510.132812 319.992188 C 510.980469 321.691406 511.621094 323.464844 512.042969 325.308594 C 513.109375 330.625 509.707031 335.867188 504.320312 336.933594 C 504.175781 336.933594 504.035156 337.003906 503.894531 337.003906 C 503.539062 337.003906 503.183594 337.074219 502.832031 337.214844 C 500.988281 337.355469 499.214844 337.355469 497.371094 337.214844 C 496.167969 337.214844 495.035156 337.5 493.96875 338.066406 C 493.046875 338.632812 492.765625 339.765625 493.261719 340.6875 C 493.332031 340.832031 493.402344 340.902344 493.546875 341.042969 C 493.828125 341.398438 494.183594 341.753906 494.609375 341.894531 C 496.378906 342.390625 498.222656 342.746094 500.066406 342.957031 C 502.335938 343.027344 504.601562 343.242188 506.871094 343.59375 C 510.203125 343.738281 513.035156 345.863281 514.101562 349.050781 C 515.09375 352.667969 513.957031 356.496094 511.125 358.90625 C 507.4375 362.09375 502.546875 363.371094 497.796875 362.378906 C 495.316406 361.882812 492.835938 361.101562 490.566406 360.039062 C 488.582031 359.1875 487.164062 357.417969 486.742188 355.359375 C 485.820312 352.667969 487.09375 349.691406 489.71875 348.554688 C 490.496094 348.203125 491.277344 347.777344 492.054688 347.351562 Z M 494.183594 326.65625 C 493.96875 329.84375 496.308594 332.609375 499.5 332.820312 C 502.6875 333.035156 505.453125 330.695312 505.664062 327.503906 L 505.664062 326.867188 C 506.089844 323.75 503.894531 320.914062 500.773438 320.488281 C 497.65625 320.0625 494.820312 322.261719 494.394531 325.378906 C 494.253906 325.804688 494.183594 326.230469 494.183594 326.65625 Z M 500.5625 357.132812 C 502.476562 357.203125 504.390625 356.707031 506.019531 355.644531 C 507.578125 354.863281 508.289062 353.023438 507.722656 351.390625 C 507.507812 350.117188 506.445312 349.050781 505.167969 348.839844 C 501.980469 347.988281 498.578125 347.988281 495.386719 348.839844 C 493.402344 349.265625 492.128906 351.109375 492.410156 353.09375 C 492.625 354.441406 493.6875 355.503906 494.960938 355.785156 C 496.664062 356.777344 498.578125 357.203125 500.5625 357.132812 Z M 500.5625 357.132812" fill-opacity="1" fill-rule="nonzero"></path><path fill="#fff" d="M 519.984375 350.328125 L 519.984375 301.917969 L 526.789062 301.917969 L 526.789062 321.195312 L 527.214844 321.410156 C 527.636719 320.699219 528.132812 320.0625 528.703125 319.496094 C 531.039062 316.449219 535.011719 315.101562 538.695312 316.234375 C 542.238281 317.226562 544.71875 320.347656 544.933594 323.960938 C 545.074219 324.742188 545.144531 325.519531 545.144531 326.300781 L 545.144531 350.398438 L 538.339844 350.398438 L 538.339844 325.875 C 538.414062 323.820312 536.996094 321.976562 534.9375 321.621094 C 533.023438 321.054688 530.96875 321.765625 529.835938 323.324219 C 528.0625 325.589844 527.070312 328.355469 527.140625 331.191406 L 527.140625 350.613281 Z M 519.984375 350.328125" fill-opacity="1" fill-rule="nonzero"></path><path fill="#fff" d="M 392.46875 308.933594 L 380.703125 308.933594 L 380.703125 302.128906 L 411.605469 302.128906 L 411.605469 308.722656 L 400.125 308.722656 L 400.125 350.117188 L 392.257812 350.117188 Z M 392.46875 308.933594" fill-opacity="1" fill-rule="nonzero"></path><path fill="#fff" d="M 460.230469 350.117188 L 460.230469 326.441406 C 460.230469 323.253906 458.957031 321.339844 456.828125 320.984375 C 454.277344 320.347656 451.582031 321.691406 450.589844 324.171875 C 449.316406 326.230469 448.675781 328.566406 448.675781 330.976562 L 448.675781 350.1875 L 441.875 350.1875 L 441.875 316.375 L 444.566406 316.164062 L 447.261719 316.164062 L 447.683594 322.542969 L 448.109375 322.757812 C 448.535156 321.90625 449.171875 321.054688 449.597656 320.203125 C 452.292969 315.878906 458.035156 314.535156 462.429688 317.226562 C 464.980469 318.785156 466.539062 321.480469 466.679688 324.457031 C 466.894531 332.960938 466.679688 341.539062 466.679688 350.257812 Z M 460.230469 350.117188" fill-opacity="1" fill-rule="nonzero"></path><path fill="#fff" d="M 435.492188 333.035156 C 435.28125 336.011719 435.28125 338.773438 434.855469 341.539062 C 434.21875 346.644531 429.964844 350.542969 424.863281 350.683594 C 423.445312 350.894531 422.027344 350.894531 420.609375 350.683594 C 415.648438 350.46875 411.535156 346.644531 411.039062 341.753906 C 410.613281 336.222656 410.613281 330.625 411.039062 325.09375 C 411.464844 320.203125 415.363281 316.304688 420.183594 315.953125 C 422.167969 315.738281 424.152344 315.738281 426.136719 315.953125 C 430.675781 316.660156 434.21875 320.203125 434.855469 324.667969 C 435.421875 327.503906 435.636719 330.269531 435.492188 333.035156 Z M 417.417969 333.53125 L 417.417969 340.335938 C 417.347656 343.097656 419.617188 345.4375 422.382812 345.4375 C 422.453125 345.4375 422.523438 345.4375 422.523438 345.4375 L 422.949219 345.4375 C 425.570312 345.792969 428.050781 343.878906 428.335938 341.253906 C 428.335938 341.183594 428.335938 341.042969 428.335938 340.972656 L 428.335938 340.335938 C 428.546875 335.65625 428.546875 331.191406 428.335938 326.441406 C 428.335938 323.394531 425.855469 320.914062 422.804688 320.914062 C 419.757812 320.914062 417.277344 323.394531 417.277344 326.441406 C 417.5625 328.78125 417.632812 331.121094 417.488281 333.53125 Z M 417.417969 333.53125" fill-opacity="1" fill-rule="nonzero"></path><path fill="#fff" d="M 297.773438 333.53125 C 297.773438 335.867188 297.984375 338.207031 297.773438 340.546875 C 297.632812 346.148438 293.09375 350.613281 287.566406 350.753906 C 285.722656 350.894531 283.953125 350.824219 282.109375 350.542969 C 276.933594 349.621094 273.175781 345.152344 273.175781 339.910156 C 272.964844 335.65625 272.964844 331.191406 273.175781 326.867188 C 273.746094 320.0625 279.699219 314.960938 286.574219 315.527344 C 292.667969 316.023438 297.417969 320.84375 297.914062 326.867188 C 297.914062 328.992188 297.914062 331.332031 297.703125 333.457031 Z M 291.109375 333.53125 L 291.109375 326.9375 C 291.253906 324.101562 289.054688 321.621094 286.21875 321.480469 L 286.007812 321.480469 C 283.171875 321.125 280.621094 323.109375 280.265625 325.945312 L 280.265625 326.371094 C 280.054688 331.050781 280.054688 335.941406 280.265625 340.617188 C 280.265625 343.3125 282.464844 345.507812 285.15625 345.507812 L 285.792969 345.507812 C 288.558594 345.722656 290.96875 343.664062 291.253906 340.902344 C 291.253906 340.832031 291.253906 340.6875 291.253906 340.617188 L 291.253906 340.191406 C 291.324219 337.996094 291.109375 335.585938 291.109375 333.53125 Z M 291.109375 333.53125" fill-opacity="1" fill-rule="nonzero"></path><path fill="#fff" d="M 348.523438 333.53125 L 331.230469 333.53125 C 331.230469 336.082031 331.441406 338.632812 331.652344 341.398438 C 332.078125 344.019531 334.488281 345.792969 337.113281 345.4375 L 337.324219 345.4375 C 339.945312 345.722656 342.355469 343.738281 342.570312 341.113281 C 342.570312 340.972656 342.570312 340.902344 342.570312 340.757812 C 342.570312 340.121094 342.78125 339.269531 342.78125 338.421875 L 348.523438 338.421875 C 349.726562 344.089844 346.113281 349.621094 340.441406 350.753906 C 339.664062 350.894531 338.8125 350.964844 338.03125 350.964844 C 331.441406 351.179688 326.976562 348.628906 325.417969 343.3125 C 324.992188 342.035156 324.777344 340.617188 324.777344 339.269531 C 324.777344 335.445312 324.566406 331.402344 324.777344 327.574219 C 324.847656 320.84375 330.308594 315.457031 337.039062 315.382812 C 338.953125 315.382812 340.867188 315.878906 342.5 316.871094 C 345.972656 318.433594 348.3125 321.835938 348.453125 325.589844 C 348.664062 328.144531 348.664062 330.90625 348.523438 333.53125 Z M 342.285156 329.632812 C 342.5 326.65625 342.925781 323.890625 339.945312 321.976562 C 337.820312 320.628906 335.128906 320.769531 333.140625 322.1875 C 330.589844 324.101562 331.015625 326.867188 331.230469 329.632812 Z M 342.285156 329.632812" fill-opacity="1" fill-rule="nonzero"></path><path fill="#fff" d="M 355.117188 301.917969 L 361.636719 301.917969 L 361.636719 350.328125 L 355.117188 350.328125 Z M 355.117188 301.917969" fill-opacity="1" fill-rule="nonzero"></path><path fill="#fff" d="M 319.675781 322.402344 L 314.359375 322.402344 C 314.996094 331.757812 313.082031 341.183594 316.273438 350.117188 L 309.042969 350.117188 C 308.40625 348.132812 307.980469 346.003906 307.765625 343.949219 C 307.554688 337.925781 307.554688 331.757812 307.554688 325.804688 L 307.554688 322.613281 L 303.300781 322.402344 L 303.300781 316.945312 L 307.765625 316.730469 L 307.765625 310.351562 L 314.570312 308.226562 L 314.570312 316.375 L 320.03125 316.589844 Z M 319.675781 322.402344" fill-opacity="1" fill-rule="nonzero"></path><path fill="#fff" d="M 555 322.613281 L 550.53125 322.1875 L 550.53125 316.730469 L 555.210938 316.519531 L 555.210938 310.351562 L 561.804688 308.226562 L 561.804688 316.375 L 567.261719 316.589844 L 567.261719 322.046875 L 562.15625 322.261719 C 561.234375 331.546875 561.804688 340.902344 563.859375 349.972656 L 556.769531 349.972656 C 555.707031 348.132812 555.210938 346.074219 555.28125 343.949219 C 555.070312 337.78125 555.070312 331.617188 555.070312 325.164062 C 555 324.386719 554.925781 323.464844 555 322.613281 Z M 555 322.613281" fill-opacity="1" fill-rule="nonzero"></path><path fill="#fff" d="M 474.335938 316.449219 L 480.929688 316.449219 L 480.929688 350.1875 L 474.335938 350.1875 Z M 474.335938 316.449219" fill-opacity="1" fill-rule="nonzero"></path><path fill="#fff" d="M 474.550781 303.617188 L 480.929688 303.617188 L 480.929688 310.351562 L 474.550781 310.351562 Z M 474.550781 303.617188" fill-opacity="1" fill-rule="nonzero"></path></g></svg>