<svg xmlns="http://www.w3.org/2000/svg" zoomAndPan="magnify" preserveAspectRatio="xMidYMid meet" viewBox="0 0 768 768"><title>hotels com square</title><g class="nc-icon-wrapper"><defs><clipPath id="1706434153699-6719803_eaf1463ce5"><path d="M 76 76.800781 L 717 76.800781 L 717 691 L 76 691 Z M 76 76.800781" clip-rule="nonzero"></path></clipPath><clipPath id="1706434153699-6719803_a543589e2f"><path d="M 242.921875 76.800781 L 242.921875 690.414062 C 244.722656 690.542969 246.519531 690.542969 248.320312 690.542969 L 543.949219 690.542969 L 543.949219 76.800781 Z M 590.203125 76.800781 L 543.949219 76.800781 L 543.949219 690.414062 L 544.976562 690.414062 C 619.75 690.414062 685.40625 629.386719 690.800781 554.871094 L 716.109375 212.214844 C 721.636719 137.828125 664.976562 76.800781 590.203125 76.800781 Z M 203.09375 76.800781 C 128.320312 76.800781 71.660156 137.828125 77.183594 212.34375 L 102.496094 555 C 107.890625 627.71875 170.589844 687.589844 243.050781 690.414062 L 243.050781 76.800781 Z M 203.09375 76.800781" clip-rule="nonzero"></path></clipPath></defs><path fill="#fff" fill-opacity="1" d="M-76.8 -76.8H844.8000000000001V844.8000000000001H-76.8z"></path><path fill="#fff" fill-opacity="1" d="M-76.8 -76.8H844.8000000000001V844.8000000000001H-76.8z"></path><g clip-path="url(#1706434153699-6719803_eaf1463ce5)"><g clip-path="url(#1706434153699-6719803_a543589e2f)"><path fill="#000" d="M 76.800781 76.800781 L 716.089844 76.800781 L 716.089844 690.414062 L 76.800781 690.414062 Z M 76.800781 76.800781" fill-opacity="1" fill-rule="nonzero"></path></g></g><path fill="#fff" d="M 599.785156 366.691406 C 599.367188 366.691406 599.03125 366.339844 599.03125 365.933594 L 599.03125 360.847656 L 597.582031 360.847656 C 597.226562 360.847656 596.921875 360.550781 596.921875 360.1875 C 596.921875 359.816406 597.226562 359.523438 597.582031 359.523438 L 601.980469 359.523438 C 602.332031 359.523438 602.636719 359.816406 602.636719 360.1875 C 602.636719 360.550781 602.332031 360.847656 601.980469 360.847656 L 600.523438 360.847656 L 600.523438 365.933594 C 600.523438 366.339844 600.191406 366.691406 599.785156 366.691406 M 610.65625 366.691406 C 610.25 366.691406 609.917969 366.339844 609.917969 365.933594 L 609.917969 361.507812 L 608.027344 366.414062 C 607.964844 366.574219 607.804688 366.6875 607.625 366.6875 C 607.449219 366.6875 607.292969 366.578125 607.230469 366.414062 L 605.335938 361.511719 L 605.335938 365.933594 C 605.335938 366.339844 605.015625 366.691406 604.609375 366.691406 C 604.191406 366.691406 603.851562 366.339844 603.851562 365.933594 L 603.851562 360.679688 C 603.851562 359.996094 604.398438 359.445312 605.066406 359.445312 C 605.589844 359.445312 606.027344 359.777344 606.207031 360.246094 L 607.625 363.945312 L 609.058594 360.246094 C 609.222656 359.777344 609.675781 359.445312 610.1875 359.445312 C 610.867188 359.445312 611.410156 359.996094 611.410156 360.679688 L 611.410156 365.933594 C 611.410156 366.339844 611.074219 366.691406 610.65625 366.691406 M 212.984375 357.285156 C 212.984375 354.742188 213.773438 352.386719 215.113281 350.433594 C 211.085938 351.621094 208.125 355.300781 208.125 359.714844 L 208.125 367.484375 L 212.984375 367.730469 Z M 208.125 410.730469 C 208.125 415.140625 211.085938 418.824219 215.117188 420.011719 C 213.773438 418.058594 212.984375 415.703125 212.984375 413.160156 L 212.984375 398.582031 L 208.125 398.582031 Z M 220.273438 398.582031 L 215.414062 398.582031 L 215.414062 413.164062 C 215.414062 417.574219 218.375 421.257812 222.402344 422.441406 C 221.0625 420.488281 220.273438 418.132812 220.273438 415.589844 Z M 220.273438 354.855469 C 220.273438 352.3125 221.0625 349.957031 222.402344 348.003906 C 218.375 349.191406 215.414062 352.871094 215.414062 357.285156 L 215.414062 367.851562 L 220.273438 368.09375 Z M 165.496094 351.742188 C 161.945312 353.863281 159.539062 357.707031 159.539062 362.140625 L 159.539062 408.300781 C 159.539062 412.742188 161.945312 416.582031 165.496094 418.699219 C 164.761719 416.925781 164.394531 415.078125 164.394531 413.160156 L 164.394531 357.285156 C 164.394531 355.324219 164.792969 353.453125 165.496094 351.742188 M 171.683594 352.425781 C 171.683594 350.464844 172.082031 348.597656 172.785156 346.886719 C 169.234375 349.003906 166.828125 352.84375 166.828125 357.285156 L 166.828125 413.164062 C 166.828125 418.382812 170.136719 422.792969 174.761719 424.511719 C 172.84375 422.042969 171.683594 418.953125 171.683594 415.59375 Z M 171.683594 352.425781" fill-opacity="1" fill-rule="nonzero"></path><path fill="#fff" d="M 232.417969 345.136719 C 227.054688 345.136719 222.703125 349.488281 222.703125 354.851562 L 222.703125 370.644531 L 198.410156 369.433594 L 198.410156 352.425781 C 198.410156 345.71875 192.96875 340.28125 186.261719 340.28125 C 179.550781 340.28125 174.117188 345.71875 174.117188 352.425781 L 174.117188 415.589844 C 174.117188 422.300781 179.550781 427.734375 186.261719 427.734375 C 192.96875 427.734375 198.410156 422.300781 198.410156 415.589844 L 198.410156 396.15625 L 222.703125 396.15625 L 222.703125 415.589844 C 222.703125 420.957031 227.054688 425.304688 232.417969 425.304688 C 237.785156 425.304688 242.132812 420.957031 242.132812 415.589844 L 242.132812 354.855469 C 242.132812 349.488281 237.785156 345.140625 232.417969 345.140625 M 316.300781 404.304688 L 316.300781 386.3125 L 290.058594 386.3125 L 290.058594 404.304688 C 290.058594 406.222656 288.492188 407.855469 286.570312 407.855469 C 284.582031 407.855469 282.945312 406.222656 282.945312 404.304688 L 282.945312 363.265625 C 282.945312 361.347656 284.582031 359.714844 286.503906 359.714844 C 288.492188 359.714844 290.058594 361.347656 290.058594 363.265625 L 290.058594 379.980469 L 316.300781 379.980469 L 316.300781 363.265625 C 316.300781 361.347656 317.863281 359.714844 319.859375 359.714844 C 321.847656 359.714844 323.410156 361.347656 323.410156 363.265625 L 323.410156 404.304688 C 323.410156 406.222656 321.847656 407.855469 319.859375 407.855469 C 317.863281 407.855469 316.300781 406.222656 316.300781 404.304688 M 328.4375 390.292969 C 328.4375 380.40625 335.125 372.300781 345.789062 372.300781 C 356.527344 372.300781 363.140625 380.40625 363.140625 390.292969 C 363.140625 400.25 356.527344 408.355469 345.789062 408.355469 C 335.125 408.355469 328.4375 400.25 328.4375 390.292969 M 356.457031 390.292969 C 356.457031 383.820312 352.683594 377.988281 345.789062 377.988281 C 338.960938 377.988281 335.125 383.820312 335.125 390.292969 C 335.125 396.832031 338.960938 402.667969 345.789062 402.667969 C 352.683594 402.667969 356.457031 396.832031 356.457031 390.292969 M 400.34375 372.300781 C 410.65625 372.300781 417.054688 380.339844 417.054688 389.371094 C 417.054688 391.289062 415.699219 392.425781 413.285156 392.425781 L 389.886719 392.425781 C 390.386719 398.253906 394.65625 403.097656 401.550781 403.097656 C 404.464844 403.097656 407.527344 402.167969 410.085938 400.316406 C 410.441406 400.035156 410.9375 399.964844 411.511719 399.964844 C 412.933594 399.964844 414.070312 401.101562 414.070312 402.523438 C 414.070312 403.445312 413.640625 404.15625 412.933594 404.660156 C 409.515625 407.144531 405.460938 408.355469 400.914062 408.355469 C 390.671875 408.355469 383.132812 401.101562 383.132812 390.289062 C 383.132812 380.339844 390.316406 372.300781 400.34375 372.300781 M 389.820312 387.804688 L 410.796875 387.804688 C 410.65625 383.253906 407.59375 377.566406 400.34375 377.566406 C 393.445312 377.566406 390.171875 383.113281 389.820312 387.804688 M 421.128906 404.65625 L 421.128906 362.910156 C 421.128906 361.136719 422.550781 359.714844 424.332031 359.714844 C 426.039062 359.714844 427.527344 361.136719 427.527344 362.910156 L 427.527344 404.65625 C 427.527344 406.4375 426.039062 407.859375 424.332031 407.859375 C 423.90625 407.863281 423.496094 407.78125 423.105469 407.621094 C 422.710938 407.457031 422.363281 407.226562 422.0625 406.925781 C 421.761719 406.625 421.53125 406.277344 421.371094 405.886719 C 421.207031 405.492188 421.128906 405.082031 421.128906 404.65625 M 431.644531 402.238281 C 431.644531 400.675781 432.855469 399.464844 434.417969 399.464844 C 434.988281 399.464844 435.554688 399.679688 435.984375 399.960938 C 438.613281 401.882812 442.027344 403.234375 445.652344 403.234375 C 450.488281 403.234375 453.046875 401.246094 453.046875 398.324219 C 453.046875 394.914062 449.136719 393.777344 444.726562 392.785156 C 438.898438 391.425781 432.074219 389.863281 432.074219 382.46875 C 432.074219 376.996094 436.761719 372.300781 445.15625 372.300781 C 449.921875 372.300781 453.691406 373.71875 456.605469 375.855469 C 457.242188 376.351562 457.742188 377.0625 457.742188 377.992188 C 457.742188 379.40625 456.53125 380.617188 455.113281 380.617188 C 454.617188 380.617188 454.046875 380.40625 453.691406 380.121094 C 451.488281 378.488281 448.5 377.492188 445.230469 377.492188 C 440.890625 377.492188 438.1875 379.199219 438.1875 381.972656 C 438.1875 384.960938 441.886719 385.957031 446.148438 386.949219 C 452.125 388.300781 459.238281 389.9375 459.238281 397.828125 C 459.238281 403.730469 454.402344 408.355469 445.371094 408.355469 C 440.601562 408.355469 436.339844 407.148438 432.855469 404.515625 C 432.140625 404.019531 431.644531 403.167969 431.644531 402.238281 M 467.632812 399.394531 C 470.050781 399.394531 472.113281 401.390625 472.113281 403.804688 C 472.113281 406.222656 470.050781 408.285156 467.632812 408.285156 C 465.214844 408.285156 463.222656 406.222656 463.222656 403.804688 C 463.222656 401.390625 465.214844 399.394531 467.632812 399.394531 M 505.339844 390.292969 C 505.339844 380.40625 512.023438 372.300781 522.691406 372.300781 C 533.429688 372.300781 540.042969 380.40625 540.042969 390.292969 C 540.042969 400.25 533.429688 408.355469 522.691406 408.355469 C 512.023438 408.355469 505.339844 400.25 505.339844 390.292969 M 533.363281 390.292969 C 533.363281 383.820312 529.589844 377.988281 522.691406 377.988281 C 515.863281 377.988281 512.023438 383.820312 512.023438 390.292969 C 512.023438 396.832031 515.863281 402.667969 522.691406 402.667969 C 529.589844 402.667969 533.363281 396.832031 533.363281 390.292969 M 592.996094 382.683594 L 592.996094 404.660156 C 592.996094 406.433594 591.5 407.859375 589.726562 407.859375 C 588.019531 407.859375 586.597656 406.433594 586.597656 404.660156 L 586.597656 384.601562 C 586.597656 380.621094 584.816406 378.699219 580.621094 378.699219 C 577.136719 378.699219 573.722656 382.621094 572.085938 385.109375 L 572.085938 404.660156 C 572.085938 405.085938 572.007812 405.492188 571.847656 405.886719 C 571.683594 406.277344 571.453125 406.625 571.152344 406.925781 C 570.851562 407.226562 570.507812 407.457031 570.113281 407.617188 C 569.722656 407.78125 569.3125 407.859375 568.890625 407.859375 C 567.183594 407.859375 565.6875 406.433594 565.6875 404.660156 L 565.6875 384.601562 C 565.6875 380.621094 563.980469 378.699219 559.640625 378.699219 C 556.296875 378.699219 552.960938 382.859375 551.25 385.34375 L 551.25 404.660156 C 551.25 406.433594 549.757812 407.855469 548.050781 407.855469 C 546.273438 407.855469 544.847656 406.433594 544.847656 404.660156 L 544.847656 376 C 544.847656 374.222656 546.273438 372.796875 547.976562 372.796875 C 549.757812 372.796875 551.25 374.222656 551.25 376 L 551.25 377.988281 C 552.671875 375.855469 557.226562 372.300781 562.34375 372.300781 C 567.539062 372.300781 570.59375 375 571.660156 378.699219 C 573.648438 375.496094 578.300781 372.300781 583.347656 372.300781 C 589.679688 372.300781 592.996094 375.785156 592.996094 382.683594" fill-opacity="1" fill-rule="nonzero"></path><path fill="#fff" d="M 491.292969 372.300781 C 496.203125 372.300781 499.613281 373.863281 502.246094 376.28125 C 502.8125 376.78125 503.242188 377.632812 503.242188 378.417969 C 503.242188 380.050781 501.957031 381.332031 500.398438 381.332031 C 499.613281 381.332031 498.976562 381.042969 498.472656 380.621094 C 496.484375 378.773438 494.28125 377.988281 491.578125 377.988281 C 484.820312 377.988281 480.484375 383.179688 480.484375 390.289062 C 480.484375 397.402344 484.828125 402.441406 491.578125 402.664062 C 496.136719 402.824219 500.726562 399.507812 504.414062 393.683594 C 504.875 392.960938 505.546875 391.617188 506.097656 390.917969 C 507.144531 389.597656 507.890625 390.230469 508.503906 390.871094 C 509.632812 392.050781 509.625 394.851562 508.890625 396.230469 C 506.816406 400.097656 505.070312 401.902344 503.089844 403.839844 C 500.328125 406.515625 496.203125 408.351562 491.292969 408.351562 C 480.914062 408.351562 473.800781 400.601562 473.800781 390.289062 C 473.800781 379.980469 480.914062 372.296875 491.292969 372.296875 M 387.703125 402.234375 C 387.703125 403.445312 384.242188 406.152344 381.75 407.359375 C 380.332031 408.046875 378.902344 408.355469 376.839844 408.355469 C 371.4375 408.355469 368.664062 405.296875 368.664062 399.890625 L 368.664062 378.773438 L 365.390625 378.773438 C 363.902344 378.773438 362.546875 377.492188 362.546875 375.925781 C 362.546875 374.433594 363.902344 373.152344 365.390625 373.152344 L 368.664062 373.152344 L 368.664062 366.613281 C 368.660156 366.1875 368.742188 365.777344 368.902344 365.382812 C 369.066406 364.992188 369.296875 364.644531 369.597656 364.34375 C 369.898438 364.042969 370.246094 363.8125 370.636719 363.648438 C 371.03125 363.488281 371.441406 363.40625 371.867188 363.410156 C 373.570312 363.410156 375.0625 364.832031 375.0625 366.613281 L 375.0625 373.152344 L 379.546875 373.152344 C 381.105469 373.152344 382.386719 374.433594 382.386719 375.925781 C 382.386719 377.492188 381.105469 378.773438 379.546875 378.773438 L 375.0625 378.773438 L 375.0625 398.46875 C 375.0625 400.886719 376.203125 402.664062 378.40625 402.664062 C 382.320312 402.664062 385.398438 396.589844 387.132812 396.589844 C 388.765625 396.589844 387.703125 400.671875 387.703125 402.238281" fill-opacity="1" fill-rule="nonzero"></path></g></svg>