<svg xmlns="http://www.w3.org/2000/svg" zoomAndPan="magnify" preserveAspectRatio="xMidYMid meet" viewBox="0 0 768 768"><title>ideas_circle</title><g class="nc-icon-wrapper"><defs><clipPath id="1706434153711-7220936_6db5e8993a"><path d="M 29.585938 28.625 L 740.332031 28.625 L 740.332031 739.375 L 29.585938 739.375 Z M 29.585938 28.625" clip-rule="nonzero"></path></clipPath><clipPath id="1706434153711-7220936_d38cfb077d"><path d="M 384.960938 28.625 C 188.691406 28.625 29.585938 187.730469 29.585938 384 C 29.585938 580.269531 188.691406 739.375 384.960938 739.375 C 581.226562 739.375 740.332031 580.269531 740.332031 384 C 740.332031 187.730469 581.226562 28.625 384.960938 28.625 Z M 384.960938 28.625" clip-rule="nonzero"></path></clipPath></defs><path fill="#fff" fill-opacity="1" d="M-76.8 -76.8H844.8000000000001V844.8000000000001H-76.8z"></path><path fill="#fff" fill-opacity="1" d="M-76.8 -76.8H844.8000000000001V844.8000000000001H-76.8z"></path><g clip-path="url(#1706434153711-7220936_6db5e8993a)"><g clip-path="url(#1706434153711-7220936_d38cfb077d)"><path fill="#000" d="M 29.585938 28.625 L 740.332031 28.625 L 740.332031 739.375 L 29.585938 739.375 Z M 29.585938 28.625" fill-opacity="1" fill-rule="nonzero"></path></g></g><path fill="#fff" d="M 625.953125 371.746094 C 625.953125 393.183594 610.902344 407.621094 584.300781 407.621094 C 571.351562 407.445312 558.574219 404.210938 547.199219 397.996094 L 547.199219 377.871094 C 554.460938 382.332031 568.289062 390.382812 584.652344 390.382812 C 597.425781 390.382812 605.476562 385.308594 605.476562 374.71875 C 605.476562 366.757812 599.441406 361.332031 581.5 357.132812 C 557.527344 351.355469 547.898438 338.582031 547.898438 323.53125 C 547.898438 306.203125 559.101562 290.277344 586.925781 290.277344 C 597.601562 290.542969 608.101562 293.253906 617.640625 298.242188 L 617.640625 316.792969 C 608.453125 310.84375 597.863281 307.429688 586.925781 306.90625 C 573.539062 306.90625 568.375 312.679688 568.375 320.644531 C 568.375 328.605469 575.640625 333.15625 588.5 336.304688 C 614.402344 342.34375 625.953125 354.769531 625.953125 371.746094 Z M 625.953125 371.746094" fill-opacity="1" fill-rule="nonzero"></path><path fill="#fff" d="M 529.960938 392.222656 C 533.023438 392.132812 536.085938 391.519531 538.886719 390.296875 L 538.886719 399.921875 C 534.160156 404.035156 528.210938 406.308594 522 406.308594 C 508.523438 406.308594 502.484375 399.308594 499.949219 388.722656 C 489.972656 401.058594 474.832031 407.972656 458.996094 407.621094 C 428.632812 407.621094 405.269531 381.371094 405.269531 348.992188 C 405.269531 316.617188 428.632812 290.191406 458.996094 290.191406 C 475.183594 289.492188 490.847656 296.316406 501.261719 308.742188 L 508.960938 291.417969 L 522.699219 291.417969 L 522.699219 381.371094 C 522.609375 389.332031 525.148438 392.222656 529.960938 392.222656 Z M 499.335938 329.21875 C 492.074219 316.179688 478.246094 308.21875 463.371094 308.304688 C 442.542969 308.304688 428.542969 323.96875 428.542969 349.257812 C 428.542969 374.546875 442.632812 389.945312 463.371094 389.945312 C 478.335938 389.597656 492.070312 381.371094 499.335938 368.246094 Z M 499.335938 329.21875" fill-opacity="1" fill-rule="nonzero"></path><path fill="#fff" d="M 268.9375 309.09375 C 279.261719 320.03125 284.773438 334.554688 284.164062 349.519531 C 284.6875 364.480469 279.175781 379.09375 268.9375 389.945312 C 258.4375 400.445312 242.511719 406.746094 220.808594 406.746094 L 184.058594 406.746094 L 184.058594 292.292969 L 220.898438 292.292969 C 242.597656 292.292969 258.4375 298.589844 268.9375 309.09375 Z M 262.460938 349.605469 C 262.984375 340.070312 260.011719 330.707031 254.0625 323.179688 C 248.023438 316.441406 237.960938 311.890625 221.070312 311.890625 L 205.320312 311.890625 L 205.320312 387.410156 L 221.070312 387.410156 C 237.960938 387.410156 248.023438 382.683594 254.0625 375.945312 C 260.011719 368.507812 262.984375 359.144531 262.460938 349.605469 Z M 262.460938 349.605469" fill-opacity="1" fill-rule="nonzero"></path><path fill="#fff" d="M 391.265625 377.171875 L 397.742188 390.820312 C 384.792969 401.496094 368.515625 407.445312 351.628906 407.621094 C 316.453125 407.621094 294.050781 382.683594 294.050781 348.730469 C 294.050781 313.203125 318.550781 290.191406 348.476562 290.191406 C 376.917969 290.191406 397.042969 310.667969 397.042969 334.03125 C 396.957031 338.054688 396.429688 341.992188 395.46875 345.84375 L 317.0625 345.84375 C 315.140625 363.433594 322.488281 389.246094 358.367188 389.246094 C 370.265625 388.632812 381.816406 384.433594 391.265625 377.171875 Z M 318.988281 330.441406 L 374.027344 330.441406 C 374.203125 329.65625 374.378906 328.78125 374.378906 327.90625 C 374.378906 317.316406 365.804688 307.078125 348.828125 307.078125 C 334.566406 306.816406 322.050781 316.53125 318.988281 330.441406 Z M 318.988281 330.441406" fill-opacity="1" fill-rule="nonzero"></path><path fill="#fff" d="M 162.355469 292.292969 L 137.066406 292.292969 L 134.09375 301.042969 C 134.09375 301.042969 141.355469 302.09375 141.355469 311.890625 L 141.355469 387.234375 C 141.355469 397.035156 134.269531 398.082031 134.269531 398.082031 L 137.417969 406.921875 L 162.707031 406.921875 Z M 162.355469 292.292969" fill-opacity="1" fill-rule="nonzero"></path><path fill="#fff" d="M 637.328125 297.628906 L 637.328125 308.828125 L 634.441406 308.828125 L 634.441406 297.628906 L 629.980469 297.628906 L 629.980469 295.355469 L 641.878906 295.355469 L 641.878906 297.628906 Z M 656.582031 308.828125 L 656.582031 300.78125 C 656.582031 300.429688 656.582031 299.378906 656.582031 299.378906 C 656.582031 299.378906 656.316406 300.429688 656.144531 300.78125 L 652.554688 308.828125 L 650.804688 308.828125 L 647.65625 300.78125 C 647.65625 300.429688 647.128906 299.378906 647.128906 299.378906 C 647.128906 299.378906 647.128906 300.429688 647.128906 300.78125 L 647.128906 308.828125 L 644.59375 308.828125 L 644.59375 295.441406 L 647.566406 295.441406 L 651.765625 304.980469 L 655.96875 295.441406 L 658.941406 295.441406 L 658.941406 308.828125 Z M 656.582031 308.828125" fill-opacity="1" fill-rule="nonzero"></path><path fill="#fff" d="M 188.957031 446.910156 L 191.582031 446.910156 L 204.445312 476.835938 L 200.332031 476.835938 L 196.746094 468.4375 L 183.621094 468.4375 L 180.03125 476.835938 L 176.183594 476.835938 Z M 195.519531 465.289062 L 190.183594 452.949219 L 184.933594 465.289062 Z M 195.519531 465.289062" fill-opacity="1" fill-rule="nonzero"></path><path fill="#fff" d="M 332.113281 461.960938 C 331.851562 453.5625 338.503906 446.5625 346.902344 446.296875 C 347.253906 446.296875 347.601562 446.296875 348.039062 446.296875 C 351.714844 446.210938 355.304688 447.261719 358.367188 449.273438 L 358.367188 453.386719 C 355.566406 450.761719 351.804688 449.363281 347.953125 449.449219 C 341.128906 449.449219 335.703125 454.960938 335.703125 461.785156 C 335.703125 468.613281 341.214844 474.039062 347.953125 474.039062 C 351.804688 474.125 355.476562 472.8125 358.367188 470.1875 L 358.367188 474.386719 C 355.304688 476.488281 351.628906 477.539062 347.953125 477.539062 C 339.550781 477.886719 332.464844 471.324219 332.113281 462.925781 C 332.113281 462.574219 332.113281 462.222656 332.113281 461.960938 Z M 332.113281 461.960938" fill-opacity="1" fill-rule="nonzero"></path><path fill="#fff" d="M 368.253906 461.960938 C 368.167969 453.210938 375.253906 446.035156 384.09375 445.949219 C 392.84375 445.859375 400.019531 452.949219 400.105469 461.785156 C 400.191406 470.539062 393.105469 477.710938 384.265625 477.800781 C 384.265625 477.800781 384.179688 477.800781 384.179688 477.800781 C 375.691406 478.0625 368.515625 471.414062 368.253906 462.925781 C 368.253906 462.574219 368.253906 462.222656 368.253906 461.960938 Z M 395.90625 461.960938 C 395.554688 455.488281 389.953125 450.5 383.480469 450.847656 C 377.003906 451.199219 372.015625 456.800781 372.367188 463.273438 C 372.714844 469.488281 377.964844 474.386719 384.179688 474.386719 C 390.566406 474.476562 395.90625 469.3125 395.90625 462.835938 C 395.992188 462.574219 395.90625 462.222656 395.90625 461.960938 Z M 395.90625 461.960938" fill-opacity="1" fill-rule="nonzero"></path><path fill="#fff" d="M 411.65625 446.910156 L 415.59375 446.910156 L 427.058594 471.761719 L 438.605469 446.910156 L 442.195312 446.910156 L 442.195312 476.835938 L 438.519531 476.835938 L 438.519531 456.449219 C 438.519531 455.660156 438.519531 453.910156 438.519531 453.910156 C 438.519531 453.910156 437.820312 455.75 437.46875 456.449219 L 428.105469 476.925781 L 425.394531 476.925781 L 416.207031 456.535156 C 415.855469 455.835938 415.15625 454 415.15625 454 C 415.15625 454 415.15625 455.75 415.15625 456.535156 L 415.15625 477.011719 L 411.570312 477.011719 Z M 411.65625 446.910156" fill-opacity="1" fill-rule="nonzero"></path><path fill="#fff" d="M 455.40625 446.910156 L 465.296875 446.910156 C 470.285156 446.910156 474.308594 450.9375 474.308594 455.925781 C 474.308594 460.910156 470.285156 464.9375 465.296875 464.9375 L 459.609375 464.9375 L 459.609375 476.835938 L 455.40625 476.835938 Z M 465.296875 461.699219 C 468.445312 461.960938 471.160156 459.597656 471.421875 456.449219 C 471.683594 453.300781 469.320312 450.585938 466.171875 450.324219 C 465.910156 450.324219 465.558594 450.324219 465.296875 450.324219 L 459.609375 450.324219 L 459.609375 461.699219 Z M 465.296875 461.699219" fill-opacity="1" fill-rule="nonzero"></path><path fill="#fff" d="M 492.949219 446.910156 L 495.746094 446.910156 L 508.609375 476.835938 L 504.496094 476.835938 L 500.910156 468.4375 L 487.523438 468.4375 L 483.933594 476.835938 L 480.085938 476.835938 Z M 499.335938 465.289062 L 494.085938 452.949219 L 488.835938 465.289062 Z M 499.335938 465.289062" fill-opacity="1" fill-rule="nonzero"></path><path fill="#fff" d="M 518.585938 446.910156 L 520.859375 446.910156 L 538.710938 469.226562 L 538.710938 446.910156 L 542.300781 446.910156 L 542.300781 476.835938 L 540.023438 476.835938 L 522.171875 454.523438 L 522.171875 476.835938 L 518.585938 476.835938 Z M 518.585938 446.910156" fill-opacity="1" fill-rule="nonzero"></path><path fill="#fff" d="M 563.914062 464.9375 L 552.1875 446.824219 L 556.5625 446.824219 L 566.101562 461.523438 L 575.464844 446.910156 L 579.578125 446.910156 L 567.851562 465.023438 L 567.851562 477.011719 L 563.914062 477.011719 Z M 563.914062 464.9375" fill-opacity="1" fill-rule="nonzero"></path><path fill="#fff" d="M 232.449219 467.039062 C 232.796875 470.625 235.511719 471.9375 238.835938 471.9375 C 241.199219 471.9375 245.308594 471.5 245.136719 468.351562 C 244.960938 465.199219 240.496094 464.761719 235.949219 463.625 C 231.398438 462.574219 226.933594 461 226.933594 455.3125 C 226.933594 449.625 233.585938 447.171875 238.660156 447.171875 C 244.433594 447.171875 249.6875 449.625 250.472656 455.835938 L 243.996094 455.835938 C 243.472656 452.949219 241.023438 452.25 238.308594 452.25 C 236.472656 452.25 233.148438 452.6875 233.148438 455.136719 C 233.148438 458.199219 237.699219 458.722656 242.335938 459.6875 C 246.886719 460.5625 251.4375 462.398438 251.4375 467.914062 C 251.4375 474.5625 244.699219 477.101562 238.835938 477.101562 C 231.574219 477.101562 226.496094 473.949219 226.320312 467.300781 Z M 232.449219 467.039062" fill-opacity="1" fill-rule="nonzero"></path><path fill="#fff" d="M 278.738281 469.75 C 278.738281 471.324219 279.085938 471.851562 280.226562 471.851562 C 280.75 471.9375 281.273438 471.9375 281.710938 471.851562 L 281.710938 476.136719 C 280.398438 476.574219 279.085938 476.75 277.773438 476.835938 C 275.238281 476.835938 273.488281 475.960938 272.960938 473.25 C 270.25 475.613281 266.75 476.925781 263.160156 476.835938 C 258.085938 476.835938 253.535156 474.125 253.535156 468.613281 C 253.535156 461.613281 259.136719 460.472656 264.386719 459.863281 C 268.847656 458.988281 272.875 459.511719 272.875 455.925781 C 272.875 452.335938 269.550781 452.074219 267.011719 452.074219 C 263.421875 452.074219 261.0625 453.472656 260.796875 456.535156 L 254.410156 456.535156 C 254.847656 449.273438 260.972656 447.171875 267.1875 447.171875 C 272.699219 447.171875 278.472656 449.449219 278.472656 455.398438 Z M 272.523438 461.960938 C 270.074219 463.011719 267.535156 463.535156 264.910156 463.625 C 262.199219 464.0625 259.835938 465.023438 259.835938 468.351562 C 259.835938 471.675781 263.425781 471.9375 265.523438 471.9375 C 268.238281 471.9375 272.523438 470.539062 272.523438 466.601562 Z M 272.523438 461.960938" fill-opacity="1" fill-rule="nonzero"></path><path fill="#fff" d="M 288.886719 467.039062 C 289.238281 470.625 291.949219 471.9375 295.273438 471.9375 C 297.636719 471.9375 301.75 471.5 301.574219 468.351562 C 301.402344 465.199219 296.851562 464.761719 292.386719 463.625 C 287.835938 462.574219 283.375 461 283.375 455.3125 C 283.375 449.625 290.023438 447.171875 295.101562 447.171875 C 300.875 447.171875 305.949219 449.625 306.914062 455.835938 L 300.527344 455.835938 C 300 452.949219 297.550781 452.25 294.75 452.25 C 293 452.25 289.675781 452.6875 289.675781 455.136719 C 289.675781 458.199219 294.226562 458.722656 298.863281 459.6875 C 303.414062 460.5625 307.789062 462.136719 307.789062 467.738281 C 307.789062 474.386719 301.050781 476.925781 295.1875 476.925781 C 287.925781 476.925781 282.761719 473.773438 282.675781 467.125 L 288.886719 467.125 Z M 288.886719 467.039062" fill-opacity="1" fill-rule="nonzero"></path></g></svg>