<svg xmlns="http://www.w3.org/2000/svg" zoomAndPan="magnify" preserveAspectRatio="xMidYMid meet" viewBox="0 0 768 768"><title>ideas  square</title><g class="nc-icon-wrapper"><defs><clipPath id="1706434153714-3496686_508349acc5"><path d="M 76 77.191406 L 717 77.191406 L 717 691 L 76 691 Z M 76 77.191406" clip-rule="nonzero"></path></clipPath><clipPath id="1706434153714-3496686_eae1e99456"><path d="M 242.921875 77.191406 L 242.921875 690.808594 C 244.722656 690.9375 246.519531 690.9375 248.320312 690.9375 L 543.949219 690.9375 L 543.949219 77.191406 Z M 590.203125 77.191406 L 543.949219 77.191406 L 543.949219 690.808594 L 544.976562 690.808594 C 619.75 690.808594 685.40625 629.78125 690.800781 555.261719 L 716.109375 212.609375 C 721.636719 138.21875 664.976562 77.191406 590.203125 77.191406 Z M 203.09375 77.191406 C 128.320312 77.191406 71.660156 138.21875 77.183594 212.738281 L 102.496094 555.390625 C 107.890625 628.109375 170.589844 687.980469 243.050781 690.808594 L 243.050781 77.191406 Z M 203.09375 77.191406" clip-rule="nonzero"></path></clipPath></defs><path fill="#fff" fill-opacity="1" d="M-76.8 -76.8H844.8000000000001V844.8000000000001H-76.8z"></path><path fill="#fff" fill-opacity="1" d="M-76.8 -76.8H844.8000000000001V844.8000000000001H-76.8z"></path><g clip-path="url(#1706434153714-3496686_508349acc5)"><g clip-path="url(#1706434153714-3496686_eae1e99456)"><path fill="#000" d="M 76.800781 77.191406 L 716.089844 77.191406 L 716.089844 690.808594 L 76.800781 690.808594 Z M 76.800781 77.191406" fill-opacity="1" fill-rule="nonzero"></path></g></g><path fill="#fff" d="M 636.425781 371.746094 C 636.425781 393.183594 621.375 407.621094 594.773438 407.621094 C 581.824219 407.445312 569.046875 404.210938 557.671875 397.996094 L 557.671875 377.871094 C 564.933594 382.332031 578.761719 390.382812 595.125 390.382812 C 607.898438 390.382812 615.949219 385.308594 615.949219 374.71875 C 615.949219 366.757812 609.914062 361.332031 591.972656 357.132812 C 568 351.355469 558.371094 338.582031 558.371094 323.53125 C 558.371094 306.203125 569.574219 290.277344 597.398438 290.277344 C 608.074219 290.542969 618.574219 293.253906 628.113281 298.242188 L 628.113281 316.792969 C 618.925781 310.84375 608.335938 307.429688 597.398438 306.90625 C 584.011719 306.90625 578.847656 312.679688 578.847656 320.644531 C 578.847656 328.605469 586.113281 333.15625 598.976562 336.304688 C 624.875 342.34375 636.425781 354.769531 636.425781 371.746094 Z M 636.425781 371.746094" fill-opacity="1" fill-rule="nonzero"></path><path fill="#fff" d="M 540.433594 392.222656 C 543.496094 392.132812 546.558594 391.519531 549.359375 390.296875 L 549.359375 399.921875 C 544.632812 404.035156 538.683594 406.308594 532.472656 406.308594 C 518.996094 406.308594 512.957031 399.308594 510.421875 388.722656 C 500.445312 401.058594 485.308594 407.972656 469.46875 407.621094 C 439.105469 407.621094 415.742188 381.371094 415.742188 348.992188 C 415.742188 316.617188 439.105469 290.191406 469.46875 290.191406 C 485.65625 289.492188 501.320312 296.316406 511.734375 308.742188 L 519.433594 291.417969 L 533.171875 291.417969 L 533.171875 381.371094 C 533.082031 389.332031 535.621094 392.222656 540.433594 392.222656 Z M 509.808594 329.21875 C 502.546875 316.179688 488.71875 308.21875 473.84375 308.304688 C 453.019531 308.304688 439.015625 323.96875 439.015625 349.257812 C 439.015625 374.546875 453.105469 389.945312 473.84375 389.945312 C 488.808594 389.597656 502.546875 381.371094 509.808594 368.246094 Z M 509.808594 329.21875" fill-opacity="1" fill-rule="nonzero"></path><path fill="#fff" d="M 279.410156 309.09375 C 289.734375 320.03125 295.246094 334.554688 294.636719 349.519531 C 295.160156 364.480469 289.648438 379.09375 279.410156 389.945312 C 268.910156 400.445312 252.984375 406.746094 231.28125 406.746094 L 194.53125 406.746094 L 194.53125 292.292969 L 231.371094 292.292969 C 253.070312 292.292969 268.910156 298.589844 279.410156 309.09375 Z M 272.933594 349.605469 C 273.460938 340.070312 270.484375 330.707031 264.535156 323.179688 C 258.496094 316.441406 248.433594 311.890625 231.542969 311.890625 L 215.792969 311.890625 L 215.792969 387.410156 L 231.542969 387.410156 C 248.433594 387.410156 258.496094 382.683594 264.535156 375.945312 C 270.484375 368.507812 273.460938 359.144531 272.933594 349.605469 Z M 272.933594 349.605469" fill-opacity="1" fill-rule="nonzero"></path><path fill="#fff" d="M 401.738281 377.171875 L 408.214844 390.820312 C 395.265625 401.496094 378.988281 407.445312 362.101562 407.621094 C 326.925781 407.621094 304.523438 382.683594 304.523438 348.730469 C 304.523438 313.203125 329.023438 290.191406 358.949219 290.191406 C 387.390625 290.191406 407.515625 310.667969 407.515625 334.03125 C 407.429688 338.054688 406.902344 341.992188 405.941406 345.84375 L 327.535156 345.84375 C 325.613281 363.433594 332.960938 389.246094 368.839844 389.246094 C 380.738281 388.632812 392.289062 384.433594 401.738281 377.171875 Z M 329.460938 330.441406 L 384.5 330.441406 C 384.675781 329.65625 384.851562 328.78125 384.851562 327.90625 C 384.851562 317.316406 376.277344 307.078125 359.300781 307.078125 C 345.039062 306.816406 332.523438 316.53125 329.460938 330.441406 Z M 329.460938 330.441406" fill-opacity="1" fill-rule="nonzero"></path><path fill="#fff" d="M 172.828125 292.292969 L 147.539062 292.292969 L 144.566406 301.042969 C 144.566406 301.042969 151.828125 302.09375 151.828125 311.890625 L 151.828125 387.234375 C 151.828125 397.035156 144.742188 398.082031 144.742188 398.082031 L 147.890625 406.921875 L 173.179688 406.921875 Z M 172.828125 292.292969" fill-opacity="1" fill-rule="nonzero"></path><path fill="#fff" d="M 647.800781 297.628906 L 647.800781 308.828125 L 644.914062 308.828125 L 644.914062 297.628906 L 640.453125 297.628906 L 640.453125 295.355469 L 652.351562 295.355469 L 652.351562 297.628906 Z M 667.054688 308.828125 L 667.054688 300.78125 C 667.054688 300.429688 667.054688 299.378906 667.054688 299.378906 C 667.054688 299.378906 666.789062 300.429688 666.617188 300.78125 L 663.027344 308.828125 L 661.277344 308.828125 L 658.128906 300.78125 C 658.128906 300.429688 657.601562 299.378906 657.601562 299.378906 C 657.601562 299.378906 657.601562 300.429688 657.601562 300.78125 L 657.601562 308.828125 L 655.066406 308.828125 L 655.066406 295.441406 L 658.039062 295.441406 L 662.238281 304.980469 L 666.441406 295.441406 L 669.414062 295.441406 L 669.414062 308.828125 Z M 667.054688 308.828125" fill-opacity="1" fill-rule="nonzero"></path><path fill="#fff" d="M 199.429688 446.910156 L 202.054688 446.910156 L 214.917969 476.835938 L 210.804688 476.835938 L 207.21875 468.4375 L 194.09375 468.4375 L 190.503906 476.835938 L 186.65625 476.835938 Z M 205.992188 465.289062 L 200.65625 452.949219 L 195.40625 465.289062 Z M 205.992188 465.289062" fill-opacity="1" fill-rule="nonzero"></path><path fill="#fff" d="M 342.585938 461.960938 C 342.324219 453.5625 348.976562 446.5625 357.375 446.296875 C 357.726562 446.296875 358.074219 446.296875 358.511719 446.296875 C 362.1875 446.210938 365.777344 447.261719 368.839844 449.273438 L 368.839844 453.386719 C 366.039062 450.761719 362.277344 449.363281 358.425781 449.449219 C 351.601562 449.449219 346.175781 454.960938 346.175781 461.785156 C 346.175781 468.613281 351.6875 474.039062 358.425781 474.039062 C 362.277344 474.125 365.949219 472.8125 368.839844 470.1875 L 368.839844 474.386719 C 365.777344 476.488281 362.101562 477.539062 358.425781 477.539062 C 350.023438 477.886719 342.9375 471.324219 342.585938 462.925781 C 342.585938 462.574219 342.585938 462.222656 342.585938 461.960938 Z M 342.585938 461.960938" fill-opacity="1" fill-rule="nonzero"></path><path fill="#fff" d="M 378.726562 461.960938 C 378.640625 453.210938 385.726562 446.035156 394.566406 445.949219 C 403.316406 445.859375 410.492188 452.949219 410.578125 461.785156 C 410.664062 470.539062 403.578125 477.710938 394.738281 477.800781 C 394.738281 477.800781 394.652344 477.800781 394.652344 477.800781 C 386.164062 478.0625 378.988281 471.414062 378.726562 462.925781 C 378.726562 462.574219 378.726562 462.222656 378.726562 461.960938 Z M 406.378906 461.960938 C 406.027344 455.488281 400.425781 450.5 393.953125 450.847656 C 387.476562 451.199219 382.488281 456.800781 382.839844 463.273438 C 383.1875 469.488281 388.441406 474.386719 394.652344 474.386719 C 401.039062 474.476562 406.378906 469.3125 406.378906 462.835938 C 406.464844 462.574219 406.378906 462.222656 406.378906 461.960938 Z M 406.378906 461.960938" fill-opacity="1" fill-rule="nonzero"></path><path fill="#fff" d="M 422.128906 446.910156 L 426.066406 446.910156 L 437.53125 471.761719 L 449.078125 446.910156 L 452.667969 446.910156 L 452.667969 476.835938 L 448.992188 476.835938 L 448.992188 456.449219 C 448.992188 455.660156 448.992188 453.910156 448.992188 453.910156 C 448.992188 453.910156 448.292969 455.75 447.941406 456.449219 L 438.578125 476.925781 L 435.867188 476.925781 L 426.679688 456.535156 C 426.328125 455.835938 425.628906 454 425.628906 454 C 425.628906 454 425.628906 455.75 425.628906 456.535156 L 425.628906 477.011719 L 422.042969 477.011719 Z M 422.128906 446.910156" fill-opacity="1" fill-rule="nonzero"></path><path fill="#fff" d="M 465.878906 446.910156 L 475.769531 446.910156 C 480.757812 446.910156 484.78125 450.9375 484.78125 455.925781 C 484.78125 460.910156 480.757812 464.9375 475.769531 464.9375 L 470.082031 464.9375 L 470.082031 476.835938 L 465.878906 476.835938 Z M 475.769531 461.699219 C 478.917969 461.960938 481.632812 459.597656 481.894531 456.449219 C 482.15625 453.300781 479.792969 450.585938 476.644531 450.324219 C 476.382812 450.324219 476.03125 450.324219 475.769531 450.324219 L 470.082031 450.324219 L 470.082031 461.699219 Z M 475.769531 461.699219" fill-opacity="1" fill-rule="nonzero"></path><path fill="#fff" d="M 503.421875 446.910156 L 506.21875 446.910156 L 519.082031 476.835938 L 514.96875 476.835938 L 511.382812 468.4375 L 497.996094 468.4375 L 494.40625 476.835938 L 490.558594 476.835938 Z M 509.808594 465.289062 L 504.558594 452.949219 L 499.308594 465.289062 Z M 509.808594 465.289062" fill-opacity="1" fill-rule="nonzero"></path><path fill="#fff" d="M 529.058594 446.910156 L 531.332031 446.910156 L 549.183594 469.226562 L 549.183594 446.910156 L 552.773438 446.910156 L 552.773438 476.835938 L 550.496094 476.835938 L 532.644531 454.523438 L 532.644531 476.835938 L 529.058594 476.835938 Z M 529.058594 446.910156" fill-opacity="1" fill-rule="nonzero"></path><path fill="#fff" d="M 574.386719 464.9375 L 562.660156 446.824219 L 567.035156 446.824219 L 576.574219 461.523438 L 585.9375 446.910156 L 590.050781 446.910156 L 578.324219 465.023438 L 578.324219 477.011719 L 574.386719 477.011719 Z M 574.386719 464.9375" fill-opacity="1" fill-rule="nonzero"></path><path fill="#fff" d="M 242.921875 467.039062 C 243.269531 470.625 245.984375 471.9375 249.308594 471.9375 C 251.671875 471.9375 255.78125 471.5 255.609375 468.351562 C 255.433594 465.199219 250.96875 464.761719 246.421875 463.625 C 241.871094 462.574219 237.40625 461 237.40625 455.3125 C 237.40625 449.625 244.058594 447.171875 249.132812 447.171875 C 254.90625 447.171875 260.160156 449.625 260.945312 455.835938 L 254.46875 455.835938 C 253.945312 452.949219 251.496094 452.25 248.78125 452.25 C 246.945312 452.25 243.621094 452.6875 243.621094 455.136719 C 243.621094 458.199219 248.171875 458.722656 252.808594 459.6875 C 257.359375 460.5625 261.910156 462.398438 261.910156 467.914062 C 261.910156 474.5625 255.171875 477.101562 249.308594 477.101562 C 242.046875 477.101562 236.96875 473.949219 236.792969 467.300781 Z M 242.921875 467.039062" fill-opacity="1" fill-rule="nonzero"></path><path fill="#fff" d="M 289.210938 469.75 C 289.210938 471.324219 289.558594 471.851562 290.699219 471.851562 C 291.222656 471.9375 291.746094 471.9375 292.183594 471.851562 L 292.183594 476.136719 C 290.871094 476.574219 289.558594 476.75 288.246094 476.835938 C 285.710938 476.835938 283.960938 475.960938 283.433594 473.25 C 280.722656 475.613281 277.222656 476.925781 273.632812 476.835938 C 268.558594 476.835938 264.007812 474.125 264.007812 468.613281 C 264.007812 461.613281 269.609375 460.472656 274.859375 459.863281 C 279.320312 458.988281 283.347656 459.511719 283.347656 455.925781 C 283.347656 452.335938 280.023438 452.074219 277.484375 452.074219 C 273.898438 452.074219 271.535156 453.472656 271.269531 456.535156 L 264.882812 456.535156 C 265.320312 449.273438 271.445312 447.171875 277.660156 447.171875 C 283.171875 447.171875 288.949219 449.449219 288.949219 455.398438 Z M 282.996094 461.960938 C 280.546875 463.011719 278.007812 463.535156 275.382812 463.625 C 272.671875 464.0625 270.308594 465.023438 270.308594 468.351562 C 270.308594 471.675781 273.898438 471.9375 275.996094 471.9375 C 278.710938 471.9375 282.996094 470.539062 282.996094 466.601562 Z M 282.996094 461.960938" fill-opacity="1" fill-rule="nonzero"></path><path fill="#fff" d="M 299.359375 467.039062 C 299.710938 470.625 302.421875 471.9375 305.75 471.9375 C 308.109375 471.9375 312.222656 471.5 312.046875 468.351562 C 311.875 465.199219 307.324219 464.761719 302.859375 463.625 C 298.308594 462.574219 293.847656 461 293.847656 455.3125 C 293.847656 449.625 300.496094 447.171875 305.574219 447.171875 C 311.347656 447.171875 316.421875 449.625 317.386719 455.835938 L 311 455.835938 C 310.472656 452.949219 308.023438 452.25 305.222656 452.25 C 303.472656 452.25 300.148438 452.6875 300.148438 455.136719 C 300.148438 458.199219 304.699219 458.722656 309.335938 459.6875 C 313.886719 460.5625 318.261719 462.136719 318.261719 467.738281 C 318.261719 474.386719 311.523438 476.925781 305.660156 476.925781 C 298.398438 476.925781 293.234375 473.773438 293.148438 467.125 L 299.359375 467.125 Z M 299.359375 467.039062" fill-opacity="1" fill-rule="nonzero"></path></g></svg>