<svg xmlns="http://www.w3.org/2000/svg" zoomAndPan="magnify" preserveAspectRatio="xMidYMid meet" viewBox="0 0 768 768"><title>jtb circle</title><g class="nc-icon-wrapper"><defs><clipPath id="1706434153716-6081170_a94555a2d2"><path d="M 28.625 28.625 L 739.375 28.625 L 739.375 739.375 L 28.625 739.375 Z M 28.625 28.625" clip-rule="nonzero"></path></clipPath><clipPath id="1706434153716-6081170_a91d702c28"><path d="M 384 28.625 C 187.730469 28.625 28.625 187.734375 28.625 384 C 28.625 580.269531 187.730469 739.375 384 739.375 C 580.269531 739.375 739.375 580.269531 739.375 384 C 739.375 187.734375 580.269531 28.625 384 28.625 Z M 384 28.625" clip-rule="nonzero"></path></clipPath></defs><path fill="#fff" fill-opacity="1" d="M-76.8 -76.8H844.8000000000001V844.8000000000001H-76.8z"></path><path fill="#fff" fill-opacity="1" d="M-76.8 -76.8H844.8000000000001V844.8000000000001H-76.8z"></path><g clip-path="url(#1706434153716-6081170_a94555a2d2)"><g clip-path="url(#1706434153716-6081170_a91d702c28)"><path fill="#000" d="M 28.625 28.625 L 739.375 28.625 L 739.375 739.375 L 28.625 739.375 Z M 28.625 28.625" fill-opacity="1" fill-rule="nonzero"></path></g></g><path fill="#fff" d="M 539.375 396.660156 C 549.867188 406.75 557.535156 420.875 554.710938 436.613281 C 549.867188 460.425781 530.089844 477.78125 506.683594 482.621094 C 504.664062 483.027344 493.367188 485.042969 484.488281 485.042969 L 419.914062 485.042969 L 450.988281 361.550781 L 503.453125 343.386719 L 477.625 447.109375 C 496.996094 446.703125 510.316406 432.175781 509.105469 418.453125 C 507.894531 404.730469 501.4375 397.871094 492.960938 393.835938 C 494.980469 393.027344 523.632812 374.867188 517.582031 355.898438 C 511.121094 336.929688 482.46875 339.351562 465.921875 343.792969 C 453.410156 346.617188 427.984375 354.285156 419.511719 357.917969 L 387.222656 485.042969 L 337.585938 485.042969 L 364.21875 378.902344 C 363.414062 378.902344 324.667969 396.660156 324.667969 396.660156 L 337.988281 342.984375 C 353.324219 336.125 418.300781 309.890625 460.273438 303.03125 C 516.371094 293.746094 551.882812 309.890625 561.972656 337.738281 C 571.660156 365.585938 557.535156 386.972656 539.375 396.660156" fill-opacity="1" fill-rule="nonzero"></path><path fill="#fff" d="M 268.167969 378.5 L 257.273438 421.277344 C 251.621094 443.476562 236.691406 465.671875 208.035156 466.480469 L 194.71875 519.75 C 199.5625 519.75 222.566406 517.332031 242.742188 509.257812 C 274.625 495.941406 299.246094 472.128906 308.125 434.597656 L 330.320312 346.214844 C 329.917969 346.617188 285.925781 367.601562 268.167969 378.5" fill-opacity="1" fill-rule="nonzero"></path><path fill="#fff" d="M 287.945312 300.609375 L 268.574219 378.5 C 285.925781 368.007812 329.917969 347.019531 330.722656 346.617188 L 342.425781 301.011719 L 287.945312 301.011719" fill-opacity="1" fill-rule="nonzero"></path></g></svg>