<svg xmlns="http://www.w3.org/2000/svg" zoomAndPan="magnify" preserveAspectRatio="xMidYMid meet" viewBox="0 0 768 768"><title>kayak square</title><g class="nc-icon-wrapper"><defs><clipPath id="1706434153723-6035319_092cbb0cd9"><path d="M 76 76.800781 L 717 76.800781 L 717 691 L 76 691 Z M 76 76.800781" clip-rule="nonzero"></path></clipPath><clipPath id="1706434153723-6035319_ea88512d0c"><path d="M 242.921875 76.800781 L 242.921875 690.414062 C 244.722656 690.542969 246.519531 690.542969 248.320312 690.542969 L 543.949219 690.542969 L 543.949219 76.800781 Z M 590.203125 76.800781 L 543.949219 76.800781 L 543.949219 690.414062 L 544.976562 690.414062 C 619.75 690.414062 685.40625 629.386719 690.800781 554.871094 L 716.109375 212.214844 C 721.636719 137.828125 664.976562 76.800781 590.203125 76.800781 Z M 203.09375 76.800781 C 128.320312 76.800781 71.660156 137.828125 77.183594 212.34375 L 102.496094 555 C 107.890625 627.71875 170.589844 687.589844 243.050781 690.414062 L 243.050781 76.800781 Z M 203.09375 76.800781" clip-rule="nonzero"></path></clipPath></defs><path fill="#fff" fill-opacity="1" d="M-76.8 -76.8H844.8000000000001V844.8000000000001H-76.8z"></path><path fill="#fff" fill-opacity="1" d="M-76.8 -76.8H844.8000000000001V844.8000000000001H-76.8z"></path><g clip-path="url(#1706434153723-6035319_092cbb0cd9)"><g clip-path="url(#1706434153723-6035319_ea88512d0c)"><path fill="#000" d="M 76.800781 76.800781 L 716.089844 76.800781 L 716.089844 690.414062 L 76.800781 690.414062 Z M 76.800781 76.800781" fill-opacity="1" fill-rule="nonzero"></path></g></g><path fill="#fff" d="M 120.988281 330.132812 L 228.714844 330.132812 L 228.714844 437.859375 L 120.988281 437.859375 Z M 120.988281 330.132812" fill-opacity="1" fill-rule="nonzero"></path><path fill="#000" d="M 154.199219 357.085938 L 167.292969 357.085938 L 167.292969 410.949219 L 154.199219 410.949219 Z M 154.199219 357.085938" fill-opacity="1" fill-rule="nonzero"></path><path fill="#000" d="M 195.507812 410.90625 L 181.0625 410.90625 L 166.167969 383.996094 L 181.0625 357.085938 L 195.507812 357.085938 L 180.523438 383.996094 Z M 195.507812 410.90625" fill-opacity="1" fill-rule="nonzero"></path><path fill="#fff" d="M 234.703125 330.132812 L 342.429688 330.132812 L 342.429688 437.859375 L 234.703125 437.859375 Z M 234.703125 330.132812" fill-opacity="1" fill-rule="nonzero"></path><path fill="#000" d="M 278.800781 403.164062 L 276.460938 410.996094 L 262.511719 410.996094 L 280.238281 356.996094 L 296.890625 356.996094 L 314.484375 410.996094 L 300.21875 410.996094 L 297.878906 403.253906 Z M 288.339844 372.476562 L 282.039062 392.589844 L 294.640625 392.589844 Z M 288.339844 372.476562" fill-opacity="1" fill-rule="nonzero"></path><path fill="#fff" d="M 348.367188 330.132812 L 456.09375 330.132812 L 456.09375 437.859375 L 348.367188 437.859375 Z M 348.367188 330.132812" fill-opacity="1" fill-rule="nonzero"></path><path fill="#000" d="M 408.980469 410.996094 L 395.796875 410.996094 L 395.796875 387.191406 L 378.113281 356.996094 L 393.683594 356.996094 L 402.410156 373.554688 L 411.007812 356.996094 L 426.351562 356.996094 L 408.980469 387.191406 Z M 408.980469 410.996094" fill-opacity="1" fill-rule="nonzero"></path><path fill="#fff" d="M 462.078125 330.132812 L 569.804688 330.132812 L 569.804688 437.859375 L 462.078125 437.859375 Z M 462.078125 330.132812" fill-opacity="1" fill-rule="nonzero"></path><path fill="#000" d="M 506.175781 403.164062 L 503.839844 410.996094 L 489.886719 410.996094 L 507.617188 356.996094 L 524.265625 356.996094 L 541.863281 410.996094 L 527.597656 410.996094 L 525.257812 403.253906 Z M 515.714844 372.476562 L 509.417969 392.589844 L 522.015625 392.589844 Z M 515.714844 372.476562" fill-opacity="1" fill-rule="nonzero"></path><path fill="#fff" d="M 575.746094 330.132812 L 683.472656 330.132812 L 683.472656 437.859375 L 575.746094 437.859375 Z M 575.746094 330.132812" fill-opacity="1" fill-rule="nonzero"></path><path fill="#000" d="M 608.953125 357.085938 L 622.046875 357.085938 L 622.046875 410.949219 L 608.953125 410.949219 Z M 608.953125 357.085938" fill-opacity="1" fill-rule="nonzero"></path><path fill="#000" d="M 650.261719 410.90625 L 635.820312 410.90625 L 620.921875 383.996094 L 635.820312 357.085938 L 650.261719 357.085938 L 635.277344 383.996094 Z M 650.261719 410.90625" fill-opacity="1" fill-rule="nonzero"></path></g></svg>