<svg xmlns="http://www.w3.org/2000/svg" zoomAndPan="magnify" preserveAspectRatio="xMidYMid meet" viewBox="0 0 768 768"><title>oracle square</title><g class="nc-icon-wrapper"><defs><clipPath id="1706435399342-3863884_39b34e3228"><path d="M 70 83.230469 L 698 83.230469 L 698 685 L 70 685 Z M 70 83.230469" clip-rule="nonzero"></path></clipPath><clipPath id="1706435399342-3863884_32c1459b1a"><path d="M 233.300781 83.230469 L 233.300781 684.769531 C 235.0625 684.894531 236.828125 684.894531 238.589844 684.894531 L 528.402344 684.894531 L 528.402344 83.230469 Z M 573.746094 83.230469 L 528.402344 83.230469 L 528.402344 684.769531 L 529.410156 684.769531 C 602.710938 684.769531 667.074219 624.941406 672.363281 551.890625 L 697.175781 215.980469 C 702.589844 143.058594 647.046875 83.230469 573.746094 83.230469 Z M 194.253906 83.230469 C 120.953125 83.230469 65.410156 143.058594 70.824219 216.109375 L 95.636719 552.019531 C 100.925781 623.304688 162.390625 682 233.425781 684.769531 L 233.425781 83.230469 Z M 194.253906 83.230469" clip-rule="nonzero"></path></clipPath></defs><g clip-path="url(#1706435399342-3863884_39b34e3228)"><g clip-path="url(#1706435399342-3863884_32c1459b1a)"><path fill="#000" d="M 70.445312 83.230469 L 697.15625 83.230469 L 697.15625 684.769531 L 70.445312 684.769531 Z M 70.445312 83.230469" fill-opacity="1" fill-rule="nonzero"></path></g></g><path fill="#fff" d="M 344.585938 338.167969 L 375.65625 338.167969 L 359.226562 311.734375 L 329.132812 359.558594 L 315.386719 359.558594 L 352.070312 302.136719 C 353.613281 299.777344 356.296875 298.394531 359.226562 298.394531 C 362.074219 298.394531 364.757812 299.777344 366.300781 302.054688 L 403.066406 359.558594 L 389.320312 359.558594 L 382.8125 348.90625 L 351.417969 348.90625 L 344.585938 338.167969" fill-opacity="1" fill-rule="nonzero"></path><path fill="#fff" d="M 487.003906 348.824219 L 487.003906 298.964844 L 475.375 298.964844 L 475.375 353.703125 C 475.375 355.167969 476.023438 356.632812 477.082031 357.6875 C 478.21875 358.828125 479.683594 359.476562 481.3125 359.476562 L 534.34375 359.476562 L 541.253906 348.824219 L 487.003906 348.824219" fill-opacity="1" fill-rule="nonzero"></path><path fill="#fff" d="M 294.484375 339.957031 C 305.789062 339.957031 314.898438 330.765625 314.898438 319.460938 C 314.898438 308.15625 305.789062 298.964844 294.484375 298.964844 L 243.566406 298.964844 L 243.566406 359.476562 L 255.199219 359.476562 L 255.199219 309.621094 L 293.667969 309.621094 C 299.039062 309.621094 303.429688 314.011719 303.429688 319.378906 C 303.429688 324.746094 299.039062 329.222656 293.667969 329.222656 L 260.808594 329.222656 L 295.539062 359.476562 L 312.457031 359.476562 L 289.113281 339.875 L 294.484375 339.875" fill-opacity="1" fill-rule="nonzero"></path><path fill="#fff" d="M 171.910156 359.558594 C 155.15625 359.558594 141.652344 346.058594 141.652344 329.300781 C 141.652344 312.546875 155.238281 299.046875 171.910156 299.046875 L 207.128906 299.046875 C 223.882812 299.046875 237.304688 312.628906 237.304688 329.300781 C 237.304688 346.058594 223.800781 359.558594 207.128906 359.558594 L 171.910156 359.558594 M 206.316406 348.90625 C 217.132812 348.90625 225.917969 340.121094 225.917969 329.300781 C 225.917969 318.484375 217.132812 309.699219 206.316406 309.699219 L 172.722656 309.699219 C 161.90625 309.699219 153.121094 318.484375 153.121094 329.300781 C 153.121094 340.121094 161.90625 348.90625 172.722656 348.90625 L 206.316406 348.90625" fill-opacity="1" fill-rule="nonzero"></path><path fill="#fff" d="M 427.304688 359.558594 C 410.550781 359.558594 396.964844 346.058594 396.964844 329.300781 C 396.964844 312.546875 410.550781 299.046875 427.304688 299.046875 L 469.109375 299.046875 L 462.199219 309.699219 L 428.035156 309.699219 C 417.136719 309.699219 408.433594 318.484375 408.433594 329.300781 C 408.433594 340.121094 417.21875 348.90625 428.035156 348.90625 L 469.925781 348.90625 L 463.09375 359.558594 L 427.304688 359.558594" fill-opacity="1" fill-rule="nonzero"></path><path fill="#fff" d="M 569.640625 348.90625 C 560.695312 348.90625 553.128906 342.886719 550.773438 334.671875 L 600.550781 334.671875 L 607.382812 324.015625 L 550.773438 324.015625 C 553.128906 315.800781 560.695312 309.78125 569.640625 309.78125 L 603.804688 309.78125 L 610.636719 299.128906 L 568.910156 299.128906 C 552.234375 299.128906 538.652344 312.710938 538.652344 329.382812 C 538.652344 346.140625 552.234375 359.640625 568.910156 359.640625 L 604.859375 359.640625 L 611.691406 348.984375 L 569.640625 348.984375" fill-opacity="1" fill-rule="nonzero"></path><path fill="#fff" d="M 616.898438 305.472656 C 616.898438 302.542969 619.257812 300.101562 622.265625 300.101562 C 625.273438 300.101562 627.632812 302.460938 627.632812 305.472656 C 627.632812 308.398438 625.273438 310.839844 622.265625 310.839844 C 619.257812 310.839844 616.898438 308.398438 616.898438 305.472656 M 622.265625 312.304688 C 626.007812 312.304688 629.015625 309.292969 629.015625 305.550781 C 629.015625 301.8125 626.007812 298.71875 622.265625 298.71875 C 618.441406 298.71875 615.433594 301.8125 615.433594 305.550781 C 615.433594 309.292969 618.441406 312.304688 622.265625 312.304688 M 621.617188 301.484375 C 622.671875 301.484375 623.078125 301.566406 623.648438 301.730469 C 624.949219 302.136719 625.113281 303.4375 625.113281 303.84375 L 625.03125 304.496094 L 624.054688 305.796875 L 623.730469 305.960938 L 625.519531 309.132812 L 623.8125 309.132812 L 622.265625 306.203125 L 621.207031 306.203125 L 621.207031 309.132812 L 619.664062 309.132812 L 619.664062 301.484375 L 621.617188 301.484375 M 622.183594 304.902344 L 623.40625 304.414062 L 623.648438 303.761719 L 623.078125 302.867188 L 621.695312 302.707031 L 621.289062 302.707031 L 621.289062 304.902344 L 622.183594 304.902344" fill-opacity="1" fill-rule="nonzero"></path><path fill="#fff" d="M 141.003906 390.304688 L 612.75 390.304688 L 612.75 393.640625 L 141.003906 393.640625 Z M 141.003906 390.304688" fill-opacity="1" fill-rule="nonzero"></path><path fill="#fff" d="M 194.523438 424.382812 L 202.980469 424.382812 L 202.980469 440.164062 L 217.863281 440.164062 L 217.863281 424.382812 L 226.40625 424.382812 L 226.40625 463.832031 L 217.945312 463.832031 L 217.945312 446.507812 L 202.980469 446.507812 L 202.980469 463.832031 L 194.523438 463.832031 Z M 194.523438 424.382812" fill-opacity="1" fill-rule="nonzero"></path><path fill="#fff" d="M 253.898438 423.570312 C 258.125 423.570312 263.902344 424.546875 267.722656 428.9375 C 271.953125 433.738281 272.765625 439.917969 272.765625 443.742188 C 272.765625 449.433594 270.976562 455.617188 267.804688 459.195312 C 263.414062 464.074219 257.070312 464.808594 253.816406 464.808594 C 248.609375 464.808594 243.40625 463.179688 239.824219 459.441406 C 235.515625 454.886719 234.945312 448.296875 234.945312 444.71875 C 234.945312 434.226562 239.664062 423.570312 253.898438 423.570312 M 246.738281 455.371094 C 247.960938 457 249.992188 458.546875 253.898438 458.546875 C 257.3125 458.546875 259.671875 457.324219 261.296875 454.886719 C 262.601562 452.933594 263.980469 449.84375 263.980469 443.578125 C 263.980469 441.707031 263.820312 438.941406 263.007812 436.503906 C 261.378906 431.621094 258.042969 429.507812 253.976562 429.507812 C 250.804688 429.507812 248.285156 430.808594 246.738281 432.84375 C 244.460938 435.609375 243.8125 439.835938 243.8125 444.3125 C 243.8125 448.132812 244.378906 452.363281 246.738281 455.371094" fill-opacity="1" fill-rule="nonzero"></path><path fill="#fff" d="M 287.730469 451.226562 C 287.730469 453.09375 287.652344 458.707031 294.890625 458.707031 C 299.445312 458.707031 302.371094 456.511719 302.371094 453.175781 C 302.371094 449.679688 299.933594 449.109375 294.890625 447.890625 C 285.535156 445.53125 280.414062 442.765625 280.414062 435.933594 C 280.414062 429.425781 285.046875 423.734375 296.027344 423.734375 C 300.09375 423.734375 304.976562 424.628906 307.902344 428.371094 C 310.101562 431.214844 310.101562 434.386719 310.101562 435.691406 L 301.964844 435.691406 C 301.886719 434.308594 301.398438 429.671875 295.621094 429.671875 C 291.71875 429.671875 289.113281 431.785156 289.113281 435.039062 C 289.113281 438.699219 292.042969 439.351562 297.65625 440.734375 C 304.488281 442.359375 311.15625 444.230469 311.15625 451.875 C 311.15625 458.953125 305.300781 464.726562 294.320312 464.726562 C 279.191406 464.726562 279.109375 455.046875 279.03125 451.226562 Z M 287.730469 451.226562" fill-opacity="1" fill-rule="nonzero"></path><path fill="#fff" d="M 319.535156 424.464844 L 331.734375 424.464844 C 337.429688 424.464844 342.144531 424.871094 345.398438 428.777344 C 347.515625 431.296875 347.839844 434.144531 347.839844 436.175781 C 347.839844 440.734375 345.96875 444.636719 342.796875 446.671875 C 339.867188 448.539062 335.882812 448.539062 333.851562 448.539062 L 328.15625 448.539062 L 328.15625 463.914062 L 319.617188 463.914062 L 319.617188 424.464844 Z M 327.914062 442.195312 L 331.328125 442.195312 C 334.09375 442.195312 339.136719 442.195312 339.136719 436.175781 C 339.136719 430.808594 334.582031 430.808594 332.222656 430.808594 L 327.992188 430.808594 L 327.992188 442.195312 Z M 327.914062 442.195312" fill-opacity="1" fill-rule="nonzero"></path><path fill="#fff" d="M 354.753906 424.222656 L 363.210938 424.222656 L 363.210938 463.75 L 354.753906 463.75 Z M 354.753906 424.222656" fill-opacity="1" fill-rule="nonzero"></path><path fill="#fff" d="M 381.511719 430.890625 L 369.800781 430.890625 L 369.800781 424.382812 L 401.765625 424.382812 L 401.765625 430.890625 L 390.050781 430.890625 L 390.050781 463.832031 L 381.511719 463.832031 Z M 381.511719 430.890625" fill-opacity="1" fill-rule="nonzero"></path><path fill="#fff" d="M 425.269531 424.382812 L 438.933594 463.832031 L 430.394531 463.832031 L 427.546875 455.292969 L 411.933594 455.292969 L 409.003906 463.832031 L 400.953125 463.832031 L 415.183594 424.382812 Z M 425.515625 448.949219 L 420.066406 432.109375 L 414.210938 448.949219 Z M 425.515625 448.949219" fill-opacity="1" fill-rule="nonzero"></path><path fill="#fff" d="M 446.011719 424.382812 L 454.632812 424.382812 L 454.632812 457.082031 L 471.550781 457.082031 L 471.550781 463.832031 L 446.011719 463.832031 Z M 446.011719 424.382812" fill-opacity="1" fill-rule="nonzero"></path><path fill="#fff" d="M 478.21875 424.222656 L 486.679688 424.222656 L 486.679688 463.75 L 478.21875 463.75 Z M 478.21875 424.222656" fill-opacity="1" fill-rule="nonzero"></path><path fill="#fff" d="M 505.0625 430.890625 L 493.269531 430.890625 L 493.269531 424.382812 L 525.234375 424.382812 L 525.234375 430.890625 L 513.519531 430.890625 L 513.519531 463.832031 L 505.0625 463.832031 Z M 505.0625 430.890625" fill-opacity="1" fill-rule="nonzero"></path><path fill="#fff" d="M 540.441406 424.546875 L 548.574219 442.441406 L 556.871094 424.546875 L 565.492188 424.546875 L 552.234375 449.433594 L 552.234375 463.832031 L 543.859375 463.832031 L 543.859375 449.355469 L 530.519531 424.546875 Z M 540.441406 424.546875" fill-opacity="1" fill-rule="nonzero"></path></g></svg>