<svg xmlns="http://www.w3.org/2000/svg" zoomAndPan="magnify" preserveAspectRatio="xMidYMid meet" viewBox="0 0 768 768"><title>priceline square</title><g class="nc-icon-wrapper"><defs><clipPath id="1706434153801-349974_aa27765811"><path d="M 47 72.453125 L 688 72.453125 L 688 687 L 47 687 Z M 47 72.453125" clip-rule="nonzero"></path></clipPath><clipPath id="1706434153801-349974_43683f5639"><path d="M 214.058594 72.453125 L 214.058594 686.070312 C 215.859375 686.199219 217.65625 686.199219 219.457031 686.199219 L 515.085938 686.199219 L 515.085938 72.453125 Z M 561.339844 72.453125 L 515.085938 72.453125 L 515.085938 686.070312 L 516.113281 686.070312 C 590.886719 686.070312 656.539062 625.042969 661.9375 550.523438 L 687.246094 207.871094 C 692.773438 133.480469 636.113281 72.453125 561.339844 72.453125 Z M 174.230469 72.453125 C 99.457031 72.453125 42.796875 133.480469 48.320312 208 L 73.632812 550.652344 C 79.027344 623.371094 141.726562 683.242188 214.1875 686.070312 L 214.1875 72.453125 Z M 174.230469 72.453125" clip-rule="nonzero"></path></clipPath><clipPath id="1706434153801-349974_2efe12a9d9"><path d="M 140.964844 322.042969 L 600 322.042969 L 600 436.46875 L 140.964844 436.46875 Z M 140.964844 322.042969" clip-rule="nonzero"></path></clipPath><clipPath id="1706434153801-349974_f8777727b9"><path d="M 599 328 L 626.964844 328 L 626.964844 357 L 599 357 Z M 599 328" clip-rule="nonzero"></path></clipPath></defs><path fill="#fff" fill-opacity="1" d="M-76.8 -76.8H844.8000000000001V844.8000000000001H-76.8z"></path><path fill="#fff" fill-opacity="1" d="M-76.8 -76.8H844.8000000000001V844.8000000000001H-76.8z"></path><g clip-path="url(#1706434153801-349974_aa27765811)"><g clip-path="url(#1706434153801-349974_43683f5639)"><path fill="#000" d="M 47.9375 72.453125 L 687.226562 72.453125 L 687.226562 686.070312 L 47.9375 686.070312 Z M 47.9375 72.453125" fill-opacity="1" fill-rule="nonzero"></path></g></g><g clip-path="url(#1706434153801-349974_2efe12a9d9)"><path fill="#fff" d="M 580.644531 373.890625 C 580.242188 371.257812 579.835938 367.613281 577.203125 364.777344 C 574.976562 362.347656 571.328125 361.132812 568.089844 361.132812 C 563.632812 361.132812 560.394531 363.359375 558.570312 365.382812 C 555.9375 368.21875 555.328125 371.257812 554.722656 373.890625 Z M 599.277344 397.789062 C 597.050781 401.027344 594.820312 404.269531 591.582031 407.308594 C 586.113281 412.574219 577.808594 416.421875 567.683594 416.421875 C 548.847656 416.421875 535.484375 404.269531 535.484375 383.207031 C 535.484375 367.613281 542.976562 347.765625 568.089844 347.765625 C 571.9375 347.765625 582.875 348.167969 590.972656 357.082031 C 599.277344 365.992188 599.683594 378.546875 599.886719 385.839844 L 554.519531 385.839844 C 554.316406 393.941406 558.976562 401.839844 568.898438 401.839844 C 579.226562 401.839844 582.671875 395.15625 584.898438 390.496094 Z M 490.925781 355.664062 C 492.75 353.636719 493.964844 352.21875 497.207031 350.601562 C 500.039062 349.382812 504.292969 348.371094 508.75 348.371094 C 512.597656 348.371094 516.851562 349.183594 520.089844 351.003906 C 526.773438 354.648438 528.394531 360.320312 528.394531 370.246094 L 528.394531 414.191406 L 509.761719 414.191406 L 509.761719 377.941406 C 509.761719 372.066406 509.558594 370.042969 508.953125 368.421875 C 507.535156 364.980469 504.292969 363.5625 500.648438 363.5625 C 490.726562 363.5625 490.726562 371.664062 490.726562 379.5625 L 490.726562 414.191406 L 471.890625 414.191406 L 471.890625 349.992188 L 490.726562 349.992188 Z M 460.144531 333.585938 C 460.144531 339.257812 455.6875 343.714844 450.015625 343.714844 C 444.550781 343.714844 439.890625 339.054688 439.890625 333.585938 C 439.890625 327.917969 444.347656 323.460938 450.015625 323.460938 C 455.6875 323.460938 460.144531 328.121094 460.144531 333.585938 M 440.699219 349.789062 L 459.128906 349.789062 L 459.128906 414.191406 L 440.699219 414.191406 Z M 428.144531 414.191406 L 409.308594 414.191406 L 409.308594 322.042969 L 428.144531 322.042969 Z M 381.765625 373.890625 C 381.363281 371.257812 380.957031 367.613281 378.121094 364.777344 C 375.894531 362.347656 372.246094 361.132812 369.007812 361.132812 C 364.550781 361.132812 361.3125 363.359375 359.488281 365.382812 C 356.855469 368.21875 356.25 371.257812 355.640625 373.890625 Z M 400.601562 397.789062 C 398.375 401.027344 396.144531 404.269531 392.90625 407.308594 C 387.4375 412.574219 379.132812 416.421875 368.804688 416.421875 C 349.96875 416.421875 336.601562 404.269531 336.601562 383.207031 C 336.601562 367.613281 344.097656 347.765625 369.210938 347.765625 C 373.058594 347.765625 383.996094 348.167969 392.09375 357.082031 C 400.398438 365.992188 400.804688 378.546875 401.207031 385.839844 L 355.640625 385.839844 C 355.4375 393.941406 360.097656 401.839844 370.222656 401.839844 C 380.550781 401.839844 383.996094 395.15625 386.425781 390.496094 Z M 327.289062 394.546875 C 327.289062 394.34375 326.882812 394.34375 326.882812 394.546875 C 326.476562 395.15625 326.070312 395.964844 325.464844 396.574219 C 321.617188 401.027344 316.957031 401.027344 315.945312 401.027344 C 306.023438 401.027344 301.769531 390.292969 301.769531 381.789062 C 301.769531 374.09375 305.210938 362.347656 315.339844 362.347656 C 318.171875 362.347656 320.605469 363.359375 322.425781 364.574219 C 325.058594 366.398438 326.273438 368.21875 327.289062 370.246094 C 327.488281 370.445312 327.691406 370.445312 327.691406 370.445312 C 329.109375 365.179688 331.742188 360.117188 335.792969 356.066406 C 328.503906 349.183594 319.996094 347.96875 314.527344 347.96875 C 293.261719 347.96875 282.53125 363.765625 282.53125 382.394531 C 282.53125 408.722656 301.972656 416.015625 314.125 416.015625 C 321.210938 416.015625 327.488281 413.585938 332.351562 410.140625 C 333.363281 409.332031 334.375 408.523438 335.1875 407.710938 C 331.539062 404.472656 328.703125 400.015625 327.289062 394.546875 Z M 275.035156 333.585938 C 275.035156 339.257812 270.582031 343.714844 264.910156 343.714844 C 259.441406 343.714844 254.785156 339.054688 254.785156 333.585938 C 254.785156 327.917969 259.238281 323.460938 264.910156 323.460938 C 270.582031 323.460938 275.035156 328.121094 275.035156 333.585938 M 255.59375 349.789062 L 274.023438 349.789062 L 274.023438 414.191406 L 255.59375 414.191406 Z M 229.265625 356.472656 C 233.316406 352.828125 237.972656 349.992188 247.695312 349.183594 L 247.695312 365.992188 L 241.417969 367.003906 C 232.507812 368.625 229.671875 370.042969 229.671875 378.144531 L 229.671875 414.394531 L 210.835938 414.394531 L 210.835938 349.789062 L 229.0625 349.789062 L 229.0625 356.472656 Z M 172.558594 361.738281 C 169.117188 361.738281 165.671875 363.15625 162.835938 367.003906 C 160.203125 370.648438 158.988281 376.117188 158.988281 382.195312 C 158.988281 390.292969 161.015625 395.359375 163.445312 397.992188 C 165.671875 400.421875 168.710938 401.636719 171.75 401.636719 C 180.863281 401.636719 184.914062 391.710938 184.914062 381.585938 C 184.914062 373.078125 182.683594 364.167969 174.988281 362.144531 C 174.179688 361.941406 173.367188 361.738281 172.558594 361.738281 Z M 157.570312 356.066406 C 158.179688 355.257812 158.785156 354.648438 159.394531 354.042969 C 162.636719 351.003906 168.304688 348.371094 175.394531 348.371094 C 190.988281 348.371094 203.140625 360.320312 203.140625 381.789062 C 203.140625 394.953125 197.46875 415.40625 175.597656 415.40625 C 168.507812 415.40625 164.863281 412.976562 159.800781 409.941406 L 159.800781 436.46875 L 140.964844 436.46875 L 140.964844 349.992188 L 157.570312 349.992188 Z M 157.570312 356.066406" fill-opacity="1" fill-rule="nonzero"></path></g><g clip-path="url(#1706434153801-349974_f8777727b9)"><path fill="#fff" d="M 613.050781 328.929688 C 615.683594 328.929688 617.910156 329.539062 620.136719 330.753906 C 622.367188 331.96875 623.984375 333.789062 625.199219 335.816406 C 626.414062 338.042969 627.023438 340.269531 627.023438 342.703125 C 627.023438 345.132812 626.414062 347.5625 625.199219 349.585938 C 623.984375 351.816406 622.367188 353.433594 620.136719 354.648438 C 617.910156 355.867188 615.683594 356.472656 613.050781 356.472656 C 610.417969 356.472656 608.1875 355.867188 605.960938 354.648438 C 603.734375 353.433594 602.113281 351.613281 600.898438 349.585938 C 599.683594 347.359375 599.074219 345.132812 599.074219 342.703125 C 599.074219 340.269531 599.683594 337.839844 600.898438 335.816406 C 602.113281 333.585938 603.734375 331.96875 605.960938 330.753906 C 608.1875 329.539062 610.417969 328.929688 613.050781 328.929688 M 613.050781 353.433594 C 615.074219 353.433594 616.898438 353.03125 618.515625 352.015625 C 620.136719 351.003906 621.351562 349.789062 622.367188 348.167969 C 623.378906 346.550781 623.78125 344.726562 623.78125 342.902344 C 623.78125 341.082031 623.378906 339.257812 622.367188 337.636719 C 621.351562 336.019531 620.136719 334.804688 618.515625 333.789062 C 616.898438 332.777344 615.074219 332.371094 613.25 332.371094 C 611.226562 332.371094 609.402344 332.777344 607.785156 333.789062 C 606.164062 334.804688 604.949219 336.019531 603.9375 337.636719 C 602.921875 339.257812 602.519531 341.082031 602.519531 342.902344 C 602.519531 344.726562 602.921875 346.550781 603.9375 348.167969 C 604.949219 349.789062 606.164062 351.003906 607.785156 352.015625 C 609.203125 353.03125 611.023438 353.433594 613.050781 353.433594 M 618.921875 340.472656 C 618.921875 341.484375 618.71875 342.296875 618.316406 343.105469 C 617.910156 343.917969 617.300781 344.320312 616.492188 344.726562 L 619.328125 348.980469 L 615.480469 348.980469 L 613.453125 345.335938 L 611.023438 345.335938 L 611.023438 348.980469 L 607.582031 348.980469 L 607.582031 336.019531 L 613.25 336.019531 C 615.074219 336.019531 616.289062 336.421875 617.300781 337.234375 C 618.515625 337.839844 618.921875 339.054688 618.921875 340.472656 M 611.023438 342.703125 L 613.453125 342.703125 C 614.265625 342.703125 614.667969 342.5 615.074219 342.09375 C 615.480469 341.6875 615.683594 341.285156 615.683594 340.472656 C 615.683594 339.867188 615.480469 339.257812 615.074219 338.851562 C 614.667969 338.449219 614.0625 338.246094 613.453125 338.246094 L 611.023438 338.246094 Z M 611.023438 342.703125" fill-opacity="1" fill-rule="nonzero"></path></g></g></svg>