<svg xmlns="http://www.w3.org/2000/svg" zoomAndPan="magnify" preserveAspectRatio="xMidYMid meet" viewBox="0 0 768 768"><title>travelocity circle</title><g class="nc-icon-wrapper"><defs><clipPath id="1706434153843-2155905_1bc749f55f"><path d="M 28.625 28.625 L 739.375 28.625 L 739.375 739.375 L 28.625 739.375 Z M 28.625 28.625" clip-rule="nonzero"></path></clipPath><clipPath id="1706434153843-2155905_01d8784454"><path d="M 384 28.625 C 187.730469 28.625 28.625 187.734375 28.625 384 C 28.625 580.269531 187.730469 739.375 384 739.375 C 580.269531 739.375 739.375 580.269531 739.375 384 C 739.375 187.734375 580.269531 28.625 384 28.625 Z M 384 28.625" clip-rule="nonzero"></path></clipPath></defs><path fill="#fff" fill-opacity="1" d="M-76.8 -76.8H844.8000000000001V844.8000000000001H-76.8z"></path><path fill="#fff" fill-opacity="1" d="M-76.8 -76.8H844.8000000000001V844.8000000000001H-76.8z"></path><g clip-path="url(#1706434153843-2155905_1bc749f55f)"><g clip-path="url(#1706434153843-2155905_01d8784454)"><path fill="#000" d="M 28.625 28.625 L 739.375 28.625 L 739.375 739.375 L 28.625 739.375 Z M 28.625 28.625" fill-opacity="1" fill-rule="nonzero"></path></g></g><path fill="#fff" d="M 135.855469 406.6875 C 136.753906 406.238281 137.800781 406.238281 138.699219 405.789062 C 137.203125 404.140625 135.554688 402.644531 134.359375 400.699219 C 133.910156 400.097656 134.207031 399.949219 134.507812 399.800781 C 134.808594 399.800781 134.65625 399.199219 134.808594 398.902344 C 135.40625 398.75 135.40625 398.003906 135.707031 397.554688 C 135.707031 397.40625 135.707031 396.957031 135.855469 396.804688 C 136.003906 396.65625 136.304688 396.507812 136.605469 396.804688 C 137.800781 398.300781 139.148438 399.199219 140.496094 400.25 C 142.144531 401.445312 143.941406 402.34375 145.289062 403.839844 C 145.4375 403.839844 145.886719 404.140625 145.886719 403.839844 C 146.035156 402.34375 146.632812 400.847656 147.234375 399.648438 C 147.382812 399.199219 147.53125 398.601562 147.832031 398.152344 C 148.28125 397.253906 149.328125 396.65625 150.078125 396.058594 C 151.425781 395.308594 152.921875 396.058594 153.96875 394.859375 C 154.269531 394.558594 154.867188 394.859375 155.167969 394.859375 C 156.066406 395.308594 157.261719 395.007812 158.011719 395.757812 C 156.8125 398.453125 156.8125 401.296875 155.917969 404.140625 C 155.765625 404.738281 155.46875 405.636719 155.765625 405.9375 C 157.113281 406.386719 160.558594 405.789062 160.707031 405.636719 C 162.503906 405.636719 164.148438 405.636719 165.945312 406.085938 C 167.292969 406.386719 168.191406 406.984375 169.390625 408.035156 C 171.335938 409.53125 171.335938 412.226562 171.035156 414.621094 C 171.035156 414.769531 170.136719 415.667969 169.839844 415.519531 C 169.6875 415.519531 169.6875 414.917969 169.539062 414.769531 C 168.789062 415.367188 167.445312 416.714844 166.996094 416.714844 C 166.84375 416.714844 165.945312 415.816406 165.496094 415.519531 C 164 414.472656 162.203125 414.769531 160.558594 414.917969 C 158.609375 415.070312 156.664062 414.769531 154.71875 415.667969 C 155.46875 417.015625 156.664062 417.765625 157.863281 418.8125 C 159.660156 420.609375 161.457031 421.957031 163.25 423.753906 C 164.449219 425.101562 165.648438 425.996094 166.394531 427.496094 C 165.945312 427.792969 166.394531 427.945312 166.097656 428.242188 C 165.796875 428.394531 165.796875 427.792969 165.496094 427.792969 C 165.199219 427.792969 165.046875 428.242188 165.046875 428.542969 C 165.199219 428.691406 164.75 429.589844 164.449219 429.589844 C 164.300781 429.742188 163.550781 430.191406 163.25 430.191406 C 163.101562 430.191406 162.203125 429.742188 162.203125 429.890625 C 162.503906 430.339844 162.804688 430.9375 162.652344 431.089844 C 161.90625 430.9375 161.457031 430.9375 161.007812 430.339844 C 158.609375 428.242188 156.367188 426 153.820312 423.753906 C 152.921875 422.855469 152.324219 421.65625 151.125 420.757812 C 149.328125 424.949219 148.132812 427.945312 146.335938 432.136719 C 145.886719 432.882812 145.738281 434.832031 145.289062 434.980469 C 144.988281 435.128906 143.941406 433.632812 143.339844 432.433594 C 143.339844 429.890625 143.640625 428.992188 143.789062 426.296875 L 143.789062 425.847656 C 143.941406 422.40625 144.988281 419.410156 144.839844 415.816406 C 144.839844 415.519531 144.390625 415.367188 143.941406 415.367188 C 139.449219 414.917969 135.105469 414.320312 130.617188 413.722656 C 129.566406 413.574219 128.519531 413.574219 127.472656 413.125 C 127.324219 412.972656 126.722656 412.675781 126.574219 412.675781 C 126.425781 412.523438 126.425781 412.523438 126.273438 412.523438 C 128.070312 410.726562 129.566406 408.78125 132.113281 407.734375 C 133.3125 407.734375 135.105469 406.984375 135.855469 406.6875 Z M 135.855469 406.6875" fill-opacity="1" fill-rule="nonzero"></path><path fill="#fff" d="M 177.625 430.9375 C 177.324219 430.789062 177.472656 430.488281 177.472656 430.488281 C 177.773438 430.039062 178.371094 430.039062 178.671875 430.039062 C 179.867188 429.742188 181.214844 430.039062 182.414062 429.742188 C 182.714844 429.589844 182.863281 429.292969 183.011719 429.292969 C 183.910156 428.84375 184.808594 428.691406 185.855469 428.394531 C 186.15625 428.242188 186.753906 427.945312 186.457031 427.496094 C 185.40625 426.296875 184.359375 425.25 183.761719 423.902344 C 183.460938 423.152344 182.863281 422.554688 182.863281 421.804688 C 182.863281 421.207031 183.613281 421.058594 184.210938 421.355469 C 186.90625 422.855469 188.703125 425.101562 190.648438 427.496094 C 190.945312 427.945312 191.394531 426.894531 191.546875 426.445312 C 192.445312 424.5 193.042969 422.253906 194.089844 420.308594 C 194.390625 419.710938 194.839844 418.960938 195.4375 418.8125 C 196.335938 418.511719 196.933594 417.914062 197.683594 417.464844 C 198.28125 417.164062 198.730469 417.464844 199.332031 417.164062 C 199.628906 417.015625 200.230469 417.613281 200.679688 417.464844 C 201.425781 417.015625 202.023438 417.316406 202.773438 417.464844 C 203.222656 417.765625 203.371094 418.214844 203.222656 418.664062 C 202.472656 420.457031 202.175781 422.253906 200.976562 424.050781 C 200.078125 425.398438 199.480469 426.746094 198.433594 428.09375 C 198.433594 428.242188 198.28125 428.542969 198.582031 428.542969 C 199.179688 428.691406 199.929688 428.542969 200.378906 428.84375 C 202.175781 429.441406 203.972656 429.292969 205.917969 429.589844 C 206.816406 429.890625 206.816406 431.238281 207.714844 431.984375 C 208.164062 432.285156 207.414062 432.734375 206.816406 432.882812 C 205.46875 433.332031 204.121094 432.734375 202.773438 433.183594 C 200.527344 433.632812 198.28125 433.183594 196.1875 434.082031 C 196.933594 434.832031 197.683594 435.429688 198.28125 436.179688 L 200.078125 438.871094 C 200.679688 439.921875 200.976562 440.820312 201.277344 441.867188 C 201.574219 442.316406 201.425781 443.0625 201.425781 443.664062 C 201.125 443.511719 201.125 443.0625 200.976562 442.914062 C 200.679688 442.914062 200.527344 443.363281 200.078125 443.363281 C 199.78125 443.214844 199.628906 442.914062 199.480469 442.765625 C 199.03125 442.316406 198.582031 441.566406 198.433594 440.96875 C 197.535156 439.023438 195.886719 437.824219 194.390625 436.628906 C 192.894531 439.769531 191.84375 442.914062 189.75 445.910156 C 189.601562 446.207031 189.300781 446.207031 188.851562 446.207031 C 188.703125 446.058594 188.550781 446.507812 188.402344 446.507812 C 188.253906 446.207031 188.101562 446.207031 187.953125 446.058594 C 187.355469 445.609375 186.457031 445.011719 186.304688 444.261719 C 186.007812 443.511719 185.707031 442.914062 185.707031 442.167969 C 185.707031 442.015625 185.40625 441.71875 185.40625 441.71875 C 185.707031 441.269531 185.707031 440.519531 185.855469 440.21875 C 186.15625 439.769531 186.753906 439.320312 186.753906 438.871094 C 187.355469 437.375 188.402344 436.179688 188.703125 434.679688 C 185.855469 434.230469 182.863281 434.382812 180.019531 433.332031 C 179.417969 433.035156 178.671875 432.882812 178.074219 432.433594 C 177.773438 431.386719 177.921875 431.089844 177.625 430.9375 Z M 177.625 430.9375" fill-opacity="1" fill-rule="nonzero"></path><path fill="#fff" d="M 181.066406 384.378906 C 181.964844 382.132812 183.460938 380.789062 183.613281 378.242188 C 178.820312 375.546875 173.132812 377.195312 169.539062 370.90625 C 168.640625 369.558594 169.539062 363.273438 169.988281 362.523438 C 171.035156 360.277344 173.132812 360.277344 175.078125 361.773438 C 175.226562 361.625 176.726562 362.074219 177.023438 362.222656 C 178.96875 361.925781 181.066406 362.671875 183.164062 363.121094 C 185.855469 363.421875 188.101562 364.46875 190.648438 364.171875 C 190.796875 364.019531 191.097656 363.421875 191.097656 362.671875 C 190.496094 358.929688 189.601562 355.636719 188.703125 351.746094 C 188.253906 350.847656 188.402344 349.648438 188.101562 348.75 C 187.953125 346.503906 186.457031 343.0625 187.804688 342.015625 C 187.953125 341.863281 188.253906 342.460938 188.402344 342.3125 C 188.851562 342.015625 189 341.414062 189.449219 341.566406 C 194.089844 344.707031 197.984375 349.5 202.175781 354.140625 C 203.523438 355.488281 203.820312 351.894531 204.871094 350.695312 C 205.167969 350.097656 204.871094 348.75 205.167969 348.300781 C 206.21875 346.355469 206.367188 343.960938 207.265625 342.164062 C 208.910156 339.917969 209.808594 336.472656 212.207031 335.578125 C 213.851562 335.128906 215.648438 335.726562 217.144531 337.371094 C 217.445312 337.523438 218.191406 337.371094 218.640625 337.820312 C 220.289062 339.320312 221.636719 341.265625 223.433594 343.0625 C 224.03125 343.808594 224.332031 345.15625 224.03125 345.757812 C 223.582031 348.300781 221.335938 348.449219 219.988281 350.246094 C 217.445312 354.4375 214.75 358.632812 212.207031 362.824219 C 211.90625 363.421875 211.15625 364.769531 211.757812 365.367188 C 215.347656 368.960938 218.492188 372.703125 222.535156 375.546875 C 225.078125 377.195312 227.773438 377.042969 230.019531 379.289062 C 231.667969 381.234375 232.863281 383.332031 233.613281 385.878906 C 224.480469 391.714844 214.152344 382.132812 204.421875 382.285156 C 203.671875 382.433594 203.820312 383.480469 203.820312 383.929688 C 204.269531 388.121094 205.019531 392.164062 205.46875 396.207031 C 205.617188 399.050781 207.113281 401.894531 207.5625 404.589844 C 207.714844 405.636719 208.613281 408.332031 207.265625 408.183594 C 205.769531 408.183594 203.671875 407.734375 202.625 405.339844 C 201.277344 402.195312 199.929688 398.902344 198.882812 395.457031 C 198.730469 394.410156 198.28125 393.511719 198.730469 392.613281 C 198.882812 390.96875 197.832031 389.46875 197.382812 388.273438 C 197.085938 387.671875 196.484375 388.570312 196.035156 388.871094 C 194.691406 390.667969 193.34375 392.316406 192.144531 394.410156 C 189.898438 397.554688 187.355469 399.5 184.359375 400.847656 C 182.113281 401.746094 178.820312 402.195312 177.324219 398.75 C 178.074219 398.601562 178.671875 396.957031 178.222656 396.507812 C 174.777344 391.265625 179.570312 388.121094 181.066406 384.378906 Z M 181.066406 384.378906" fill-opacity="1" fill-rule="nonzero"></path><path fill="#fff" d="M 281.667969 443.214844 L 273.285156 443.214844 L 273.285156 398.453125 L 281.667969 398.453125 L 281.667969 405.9375 C 284.8125 400.996094 288.703125 397.703125 296.1875 397.703125 L 296.789062 397.703125 L 296.789062 404.890625 L 296.1875 404.890625 C 292.597656 404.890625 289.753906 406.085938 287.207031 408.484375 C 284.0625 411.476562 281.816406 416.117188 281.667969 420.011719 Z M 281.667969 443.214844" fill-opacity="1" fill-rule="nonzero"></path><path fill="#fff" d="M 315.050781 444.113281 C 305.023438 444.113281 300.53125 437.523438 300.53125 431.535156 C 300.53125 421.957031 308.613281 416.867188 329.425781 413.273438 L 329.425781 411.328125 C 329.425781 406.386719 326.429688 403.839844 320.589844 403.839844 C 312.804688 403.839844 310.113281 408.78125 309.363281 410.277344 L 309.214844 410.878906 L 301.578125 407.585938 L 301.878906 406.984375 C 305.171875 401.148438 312.507812 397.40625 320.441406 397.40625 C 329.125 397.40625 337.808594 401.597656 337.808594 411.027344 L 337.808594 433.035156 C 337.808594 437.523438 338.257812 439.921875 338.855469 442.316406 L 339.003906 443.0625 L 330.320312 443.0625 L 329.722656 437.675781 C 326.578125 440.96875 321.640625 444.113281 315.050781 444.113281 Z M 329.273438 419.710938 C 315.5 422.105469 308.765625 425.996094 308.765625 431.535156 C 308.765625 435.128906 312.507812 437.675781 315.800781 437.675781 C 319.992188 437.675781 325.53125 434.832031 329.273438 430.789062 Z M 329.273438 419.710938" fill-opacity="1" fill-rule="nonzero"></path><path fill="#fff" d="M 366.851562 443.214844 L 356.671875 443.214844 L 342.296875 398.453125 L 350.832031 398.453125 L 362.058594 433.632812 L 373.289062 398.453125 L 380.921875 398.453125 Z M 366.851562 443.214844" fill-opacity="1" fill-rule="nonzero"></path><path fill="#fff" d="M 441.402344 443.214844 L 432.871094 443.214844 L 432.871094 383.632812 L 441.402344 380.039062 Z M 441.402344 443.214844" fill-opacity="1" fill-rule="nonzero"></path><path fill="#fff" d="M 469.246094 444.113281 C 457.121094 444.113281 449.039062 434.832031 449.039062 420.90625 C 449.039062 406.984375 457.121094 397.703125 469.246094 397.703125 C 481.375 397.703125 489.457031 406.984375 489.457031 420.90625 C 489.457031 434.832031 481.375 444.113281 469.246094 444.113281 Z M 469.246094 403.992188 C 461.914062 403.992188 457.421875 410.277344 457.421875 420.90625 C 457.421875 431.535156 461.914062 437.824219 469.246094 437.824219 C 476.582031 437.824219 481.074219 431.535156 481.074219 420.90625 C 481.074219 410.277344 476.582031 403.992188 469.246094 403.992188 Z M 469.246094 403.992188" fill-opacity="1" fill-rule="nonzero"></path><path fill="#fff" d="M 514.457031 444.113281 C 502.332031 444.113281 494.25 434.832031 494.25 420.90625 C 494.25 406.984375 502.332031 397.703125 514.457031 397.703125 C 523.140625 397.703125 529.28125 401.746094 532.574219 409.828125 L 532.871094 410.429688 L 524.9375 412.824219 L 524.789062 412.375 C 523.589844 408.632812 520.746094 404.140625 514.457031 404.140625 C 506.972656 404.140625 502.632812 410.277344 502.632812 421.058594 C 502.632812 431.835938 506.972656 437.972656 514.457031 437.972656 C 520.296875 437.972656 523.140625 436.027344 526.585938 430.191406 L 526.882812 429.742188 L 534.070312 432.285156 L 533.769531 432.882812 C 528.53125 440.96875 523.140625 444.113281 514.457031 444.113281 Z M 514.457031 444.113281" fill-opacity="1" fill-rule="nonzero"></path><path fill="#fff" d="M 540.207031 398.453125 L 548.589844 398.453125 L 548.589844 443.214844 L 540.207031 443.214844 Z M 540.207031 398.453125" fill-opacity="1" fill-rule="nonzero"></path><path fill="#fff" d="M 255.621094 444.113281 C 249.332031 444.113281 245.140625 442.765625 244.390625 436.476562 L 244.390625 404.890625 L 237.65625 404.890625 L 237.65625 398.601562 L 244.390625 398.601562 L 244.390625 386.328125 L 252.773438 382.734375 L 252.773438 398.601562 L 263.554688 398.601562 L 261.90625 404.890625 L 252.925781 404.890625 L 252.925781 435.429688 C 252.925781 436.628906 253.523438 437.824219 257.566406 437.824219 C 259.660156 437.824219 261.308594 437.675781 264.003906 437.226562 L 264.902344 437.074219 L 263.253906 443.363281 L 262.953125 443.363281 C 260.558594 443.8125 258.761719 444.113281 255.621094 444.113281 Z M 255.621094 444.113281" fill-opacity="1" fill-rule="nonzero"></path><path fill="#fff" d="M 594.25 459.679688 C 592.007812 459.679688 589.3125 459.382812 588.261719 459.234375 L 587.664062 459.082031 L 589.609375 452.796875 L 590.660156 452.796875 C 591.40625 452.945312 592.304688 452.945312 593.351562 452.945312 C 597.546875 452.945312 602.636719 451.898438 604.730469 443.0625 L 588.5625 398.300781 L 596.496094 398.300781 L 596.648438 398.601562 L 608.472656 430.640625 L 618.953125 398.152344 L 627.785156 398.152344 L 611.46875 446.507812 C 607.277344 458.035156 598.890625 459.679688 594.25 459.679688 Z M 594.25 459.679688" fill-opacity="1" fill-rule="nonzero"></path><path fill="#fff" d="M 575.539062 444.113281 C 569.25 444.113281 565.058594 442.765625 564.3125 436.476562 L 564.3125 404.738281 L 557.574219 404.738281 L 557.574219 398.453125 L 564.3125 398.453125 L 564.3125 386.175781 L 572.695312 382.582031 L 572.695312 398.453125 L 583.472656 398.453125 L 581.824219 404.738281 L 572.84375 404.738281 L 572.84375 435.28125 C 572.84375 436.476562 573.441406 437.675781 577.484375 437.675781 C 579.582031 437.675781 581.226562 437.527344 583.921875 437.078125 L 584.820312 436.925781 L 583.171875 443.214844 L 582.875 443.214844 C 580.480469 443.8125 578.683594 444.113281 575.539062 444.113281 Z M 575.539062 444.113281" fill-opacity="1" fill-rule="nonzero"></path><path fill="#fff" d="M 406.074219 444.113281 C 400.382812 444.113281 395.292969 442.167969 391.402344 438.574219 C 386.910156 434.382812 384.664062 428.242188 384.664062 420.90625 C 384.664062 406.984375 392.75 397.703125 404.875 397.703125 C 409.964844 397.703125 414.753906 399.351562 418.050781 402.496094 C 421.792969 406.085938 423.886719 411.476562 423.886719 418.0625 L 423.886719 422.703125 L 393.199219 422.703125 C 393.496094 431.386719 398.886719 437.824219 406.074219 437.824219 C 411.164062 437.824219 415.503906 435.429688 418.050781 430.9375 L 418.347656 430.339844 L 423.738281 435.578125 L 423.4375 436.027344 C 418.050781 443.511719 414.753906 444.113281 406.074219 444.113281 Z M 393.347656 416.265625 L 415.355469 416.265625 C 415.203125 408.632812 411.3125 403.992188 405.023438 403.992188 C 398.289062 403.992188 394.097656 408.484375 393.347656 416.265625 Z M 393.347656 416.265625" fill-opacity="1" fill-rule="nonzero"></path><path fill="#fff" d="M 540.207031 383.632812 L 548.589844 383.632812 L 548.589844 392.015625 L 540.207031 392.015625 Z M 540.207031 383.632812" fill-opacity="1" fill-rule="nonzero"></path><path fill="#fff" d="M 631.078125 401.746094 C 631.378906 401.148438 631.828125 400.546875 632.277344 400.097656 C 632.726562 399.648438 633.324219 399.199219 634.074219 398.902344 C 634.671875 398.601562 635.421875 398.453125 636.167969 398.453125 C 636.917969 398.453125 637.664062 398.601562 638.265625 398.902344 C 638.863281 399.199219 639.460938 399.5 640.0625 400.097656 C 640.511719 400.546875 640.960938 401.148438 641.257812 401.746094 C 641.558594 402.34375 641.707031 403.09375 641.707031 403.839844 C 641.707031 404.589844 641.558594 405.339844 641.257812 405.9375 C 640.960938 406.535156 640.511719 407.136719 640.0625 407.734375 C 639.613281 408.183594 639.011719 408.632812 638.265625 408.933594 C 637.664062 409.230469 636.917969 409.378906 636.167969 409.378906 C 635.421875 409.378906 634.671875 409.230469 634.074219 408.933594 C 633.472656 408.632812 632.875 408.332031 632.277344 407.734375 C 631.828125 407.285156 631.378906 406.6875 631.078125 405.9375 C 630.78125 405.339844 630.628906 404.589844 630.628906 403.839844 C 630.628906 403.09375 630.78125 402.34375 631.078125 401.746094 Z M 631.976562 405.789062 C 632.277344 406.386719 632.574219 406.835938 632.875 407.285156 C 633.324219 407.734375 633.773438 408.035156 634.371094 408.332031 C 634.972656 408.632812 635.570312 408.632812 636.167969 408.632812 C 636.765625 408.632812 637.367188 408.484375 637.964844 408.332031 C 638.5625 408.035156 639.011719 407.734375 639.3125 407.285156 C 639.761719 406.835938 640.0625 406.386719 640.210938 405.789062 C 640.511719 405.1875 640.511719 404.589844 640.511719 403.992188 C 640.511719 403.394531 640.359375 402.792969 640.210938 402.195312 C 639.910156 401.597656 639.613281 401.148438 639.3125 400.699219 C 638.863281 400.25 638.414062 399.949219 637.964844 399.800781 C 637.367188 399.5 636.765625 399.5 636.167969 399.5 C 635.570312 399.5 634.972656 399.648438 634.371094 399.800781 C 633.773438 400.097656 633.324219 400.398438 632.875 400.699219 C 632.425781 401.148438 632.125 401.597656 631.976562 402.195312 C 631.675781 402.792969 631.675781 403.394531 631.675781 403.992188 C 631.675781 404.589844 631.828125 405.1875 631.976562 405.789062 Z M 636.46875 400.699219 C 637.214844 400.699219 637.816406 400.847656 638.113281 401.148438 C 638.414062 401.445312 638.714844 401.894531 638.714844 402.496094 C 638.714844 403.09375 638.5625 403.542969 638.265625 403.691406 C 637.964844 403.992188 637.515625 404.140625 637.066406 404.140625 L 638.863281 406.984375 L 637.816406 406.984375 L 636.019531 404.289062 L 634.972656 404.289062 L 634.972656 406.984375 L 633.921875 406.984375 L 633.921875 400.699219 Z M 636.019531 403.542969 L 636.617188 403.542969 C 636.765625 403.542969 637.066406 403.542969 637.214844 403.394531 C 637.367188 403.394531 637.515625 403.242188 637.515625 403.09375 C 637.664062 402.945312 637.664062 402.792969 637.664062 402.496094 C 637.664062 402.34375 637.664062 402.046875 637.515625 402.046875 C 637.367188 402.046875 637.367188 401.894531 637.214844 401.746094 C 637.066406 401.746094 636.917969 401.597656 636.765625 401.597656 L 634.972656 401.597656 L 634.972656 403.542969 Z M 636.019531 403.542969" fill-opacity="1" fill-rule="nonzero"></path><path fill="#fff" d="M 631.078125 401.746094 C 631.378906 401.148438 631.828125 400.546875 632.277344 400.097656 C 632.726562 399.648438 633.324219 399.199219 634.074219 398.902344 C 634.671875 398.601562 635.421875 398.453125 636.167969 398.453125 C 636.917969 398.453125 637.664062 398.601562 638.265625 398.902344 C 638.863281 399.199219 639.460938 399.5 640.0625 400.097656 C 640.511719 400.546875 640.960938 401.148438 641.257812 401.746094 C 641.558594 402.34375 641.707031 403.09375 641.707031 403.839844 C 641.707031 404.589844 641.558594 405.339844 641.257812 405.9375 C 640.960938 406.535156 640.511719 407.136719 640.0625 407.734375 C 639.613281 408.183594 639.011719 408.632812 638.265625 408.933594 C 637.664062 409.230469 636.917969 409.378906 636.167969 409.378906 C 635.421875 409.378906 634.671875 409.230469 634.074219 408.933594 C 633.472656 408.632812 632.875 408.332031 632.277344 407.734375 C 631.828125 407.285156 631.378906 406.6875 631.078125 405.9375 C 630.78125 405.339844 630.628906 404.589844 630.628906 403.839844 C 630.628906 403.09375 630.78125 402.34375 631.078125 401.746094 Z M 631.976562 405.789062 C 632.277344 406.386719 632.574219 406.835938 632.875 407.285156 C 633.324219 407.734375 633.773438 408.035156 634.371094 408.332031 C 634.972656 408.632812 635.570312 408.632812 636.167969 408.632812 C 636.765625 408.632812 637.367188 408.484375 637.964844 408.332031 C 638.5625 408.035156 639.011719 407.734375 639.3125 407.285156 C 639.761719 406.835938 640.0625 406.386719 640.210938 405.789062 C 640.511719 405.1875 640.511719 404.589844 640.511719 403.992188 C 640.511719 403.394531 640.359375 402.792969 640.210938 402.195312 C 639.910156 401.597656 639.613281 401.148438 639.3125 400.699219 C 638.863281 400.25 638.414062 399.949219 637.964844 399.800781 C 637.367188 399.5 636.765625 399.5 636.167969 399.5 C 635.570312 399.5 634.972656 399.648438 634.371094 399.800781 C 633.773438 400.097656 633.324219 400.398438 632.875 400.699219 C 632.425781 401.148438 632.125 401.597656 631.976562 402.195312 C 631.675781 402.792969 631.675781 403.394531 631.675781 403.992188 C 631.675781 404.589844 631.828125 405.1875 631.976562 405.789062 Z M 636.46875 400.699219 C 637.214844 400.699219 637.816406 400.847656 638.113281 401.148438 C 638.414062 401.445312 638.714844 401.894531 638.714844 402.496094 C 638.714844 403.09375 638.5625 403.542969 638.265625 403.691406 C 637.964844 403.992188 637.515625 404.140625 637.066406 404.140625 L 638.863281 406.984375 L 637.816406 406.984375 L 636.019531 404.289062 L 634.972656 404.289062 L 634.972656 406.984375 L 633.921875 406.984375 L 633.921875 400.699219 Z M 636.019531 403.542969 L 636.617188 403.542969 C 636.765625 403.542969 637.066406 403.542969 637.214844 403.394531 C 637.367188 403.394531 637.515625 403.242188 637.515625 403.09375 C 637.664062 402.945312 637.664062 402.792969 637.664062 402.496094 C 637.664062 402.34375 637.664062 402.046875 637.515625 402.046875 C 637.367188 402.046875 637.367188 401.894531 637.214844 401.746094 C 637.066406 401.746094 636.917969 401.597656 636.765625 401.597656 L 634.972656 401.597656 L 634.972656 403.542969 Z M 636.019531 403.542969" fill-opacity="1" fill-rule="nonzero"></path></g></svg>