<svg xmlns="http://www.w3.org/2000/svg" zoomAndPan="magnify" preserveAspectRatio="xMidYMid meet" viewBox="0 0 768 768"><title>travelzoo circle</title><g class="nc-icon-wrapper"><defs><clipPath id="1706434153852-1536314_4d1643ce06"><path d="M 28.625 28.625 L 739.375 28.625 L 739.375 739.375 L 28.625 739.375 Z M 28.625 28.625" clip-rule="nonzero"></path></clipPath><clipPath id="1706434153852-1536314_5004eed74a"><path d="M 384 28.625 C 187.730469 28.625 28.625 187.734375 28.625 384 C 28.625 580.269531 187.730469 739.375 384 739.375 C 580.269531 739.375 739.375 580.269531 739.375 384 C 739.375 187.734375 580.269531 28.625 384 28.625 Z M 384 28.625" clip-rule="nonzero"></path></clipPath></defs><path fill="#fff" fill-opacity="1" d="M-76.8 -76.8H844.8000000000001V844.8000000000001H-76.8z"></path><path fill="#fff" fill-opacity="1" d="M-76.8 -76.8H844.8000000000001V844.8000000000001H-76.8z"></path><g clip-path="url(#1706434153852-1536314_4d1643ce06)"><g clip-path="url(#1706434153852-1536314_5004eed74a)"><path fill="#000" d="M 28.625 28.625 L 739.375 28.625 L 739.375 739.375 L 28.625 739.375 Z M 28.625 28.625" fill-opacity="1" fill-rule="nonzero"></path></g></g><path fill="#000" d="M 425.0625 355.074219 L 425.0625 429.039062 L 443.839844 429.039062 L 443.839844 445.914062 L 407.089844 445.914062 L 407.089844 355.074219 Z M 396.050781 341.117188 L 396.050781 357.992188 L 377.863281 357.992188 L 377.863281 377.742188 L 393.894531 377.742188 L 393.894531 394.613281 L 377.863281 394.613281 L 377.863281 415.085938 L 396.304688 415.085938 L 396.304688 431.957031 L 359.933594 431.957031 L 359.933594 341.117188 Z M 305.671875 337.605469 L 316.5 381.207031 C 318.066406 386.367188 318.65625 391.570312 319.757812 396.773438 L 320.011719 396.773438 C 320.984375 391.441406 321.320312 386.285156 322.800781 380.996094 L 333.753906 337.605469 L 352.53125 337.605469 L 327.328125 428.449219 L 312.609375 428.449219 L 286.390625 337.605469 Z M 271.289062 405.90625 L 258.644531 405.90625 L 262.492188 381.671875 L 264.441406 367.929688 L 264.691406 367.929688 L 266.722656 381.671875 Z M 255.769531 344.585938 L 234.667969 435.425781 L 252.511719 435.425781 L 255.769531 420.117188 L 273.957031 420.117188 L 277.339844 435.425781 L 296.496094 435.425781 L 274.675781 344.585938 Z M 194.195312 355.875 L 196.605469 355.875 C 205.65625 355.410156 208.785156 360.695312 208.785156 367.210938 C 208.785156 374.652344 205.527344 380.195312 197.324219 380.195312 L 194.195312 380.066406 Z M 194.152344 431.875 L 194.152344 389.960938 L 194.40625 389.960938 L 210.179688 431.875 L 229.082031 431.875 L 213.308594 390.554688 C 222.234375 385.605469 226.207031 377.0625 226.207031 367.039062 C 226.207031 342.214844 205.738281 341.03125 194.277344 341.03125 L 176.21875 341.03125 L 176.21875 431.875 Z M 168.058594 349.785156 L 168.058594 366.660156 L 153.847656 366.660156 L 153.847656 440.628906 L 135.875 440.628906 L 135.875 366.660156 L 121.789062 366.660156 L 121.789062 349.785156 Z M 168.058594 349.785156" fill-opacity="1" fill-rule="nonzero"></path><path fill="#000" d="M 492.855469 327.160156 L 461.730469 401.128906 L 490.277344 401.128906 L 490.277344 418.003906 L 435.550781 418.003906 L 465.832031 344.035156 L 439.441406 344.035156 L 439.441406 327.160156 Z M 516.917969 388.3125 C 516.917969 380.234375 517.765625 358.074219 529.691406 358.074219 C 541.617188 358.074219 542.421875 380.234375 542.421875 388.3125 C 542.421875 395.503906 541.574219 418.550781 529.648438 418.550781 C 517.765625 418.550781 516.917969 395.503906 516.917969 388.3125 Z M 529.734375 341.453125 C 513.707031 341.453125 497.804688 354.183594 497.804688 388.3125 C 497.804688 422.402344 513.707031 435.171875 529.734375 435.171875 C 545.761719 435.171875 561.664062 422.441406 561.664062 388.3125 C 561.621094 354.183594 545.71875 341.453125 529.734375 341.453125 Z M 587.039062 383.070312 C 587.039062 375.035156 587.882812 352.832031 599.8125 352.832031 C 611.738281 352.832031 612.582031 375.035156 612.539062 383.070312 C 612.539062 390.300781 611.695312 413.351562 599.769531 413.351562 C 587.882812 413.308594 587.039062 390.300781 587.039062 383.070312 Z M 599.8125 336.210938 C 583.78125 336.210938 567.878906 348.984375 567.878906 383.070312 C 567.878906 417.199219 583.78125 429.929688 599.8125 429.929688 C 615.839844 429.929688 631.742188 417.15625 631.742188 383.070312 C 631.742188 348.984375 615.839844 336.210938 599.8125 336.210938 Z M 599.8125 336.210938" fill-opacity="1" fill-rule="nonzero"></path><path stroke-linecap="butt" transform="matrix(4.22915 0 0 4.22915 121.79 322.085)" fill-opacity="1" fill="#fff" fill-rule="nonzero" stroke-linejoin="miter" d="M 12.020053 5.590134 L 12.020053 9.580301 L 8.659814 9.580301 L 8.649654 27.079773 L 4.410101 27.079773 L 4.410101 9.580301 L 1.080343 9.580301 L 1.080343 5.590134 Z M 18.200194 7.030104 L 18.770086 7.030104 C 20.910183 6.910029 21.650027 8.169888 21.650027 9.709612 C 21.650027 11.480249 20.879703 12.789985 18.940038 12.789985 L 18.200194 12.760428 Z M 18.190034 25.009873 L 18.190034 15.100033 L 18.250071 15.100033 L 21.97977 25.020033 L 26.450235 25.020033 L 22.719613 15.249665 C 24.830153 14.080324 25.760269 12.060301 25.770429 9.690216 C 25.770429 3.82042 20.92958 3.539631 18.219591 3.539631 L 13.949557 3.539631 L 13.949557 25.020033 Z M 36.430272 18.860212 L 33.440418 18.860212 L 34.350213 13.129888 L 34.80003 9.879564 L 34.860068 9.879564 L 35.340366 13.129888 Z M 32.750451 4.359832 L 27.759971 25.830074 L 31.969967 25.830074 L 32.740291 22.21029 L 37.039881 22.21029 L 37.839762 25.830074 L 42.370265 25.830074 L 37.230153 4.359832 Z M 44.560239 2.710193 L 47.119673 13.019974 C 47.490057 14.250275 47.630451 15.470417 47.889997 16.699795 L 47.950034 16.699795 C 48.180023 15.450097 48.260381 14.229955 48.610444 12.970097 L 51.200358 2.710193 L 55.640343 2.710193 L 49.68003 24.180436 L 46.199718 24.180436 L 40.000179 2.700033 Z M 65.929803 3.539631 L 65.929803 7.529799 L 61.630213 7.529799 L 61.630213 12.199773 L 65.419949 12.199773 L 65.419949 16.18994 L 61.630213 16.18994 L 61.630213 21.029866 L 65.989841 21.029866 L 65.989841 25.020033 L 57.389736 25.020033 L 57.389736 3.539631 Z M 72.789751 6.849992 L 72.789751 24.340227 L 77.229736 24.340227 L 77.229736 28.330395 L 68.540038 28.330395 L 68.540038 6.849992 Z M 72.789751 6.849992" stroke="#000" stroke-width=".257" stroke-opacity="1" stroke-miterlimit="4"></path><path stroke-linecap="butt" transform="matrix(4.22915 0 0 4.22915 121.79 322.085)" fill-opacity="1" fill="#fff" fill-rule="nonzero" stroke-linejoin="miter" d="M 88.819696 0.240353 L 81.460053 17.729665 L 88.210087 17.729665 L 88.210087 21.719832 L 75.279912 21.719832 L 82.429886 4.229597 L 76.199867 4.229597 L 76.199867 0.240353 Z M 94.510303 14.700093 C 94.510303 12.789985 94.709811 7.550119 97.529714 7.550119 C 100.349617 7.550119 100.55005 12.789985 100.55005 14.700093 C 100.55005 16.409769 100.349617 21.850067 97.529714 21.850067 C 94.709811 21.850067 94.510303 16.409769 94.510303 14.700093 Z M 97.539874 3.609828 C 93.750139 3.609828 89.98996 6.630164 89.98996 14.689933 C 89.98996 22.749702 93.750139 25.770037 97.539874 25.770037 C 101.32961 25.770037 105.089789 22.749702 105.089789 14.689933 C 105.079629 6.640324 101.320374 3.619988 97.539874 3.609828 Z M 111.089819 13.459631 C 111.089819 11.550447 111.290251 6.309657 114.120314 6.309657 C 116.940217 6.309657 117.139726 11.550447 117.139726 13.459631 C 117.139726 15.170231 116.940217 20.609605 114.120314 20.609605 C 111.290251 20.609605 111.089819 15.170231 111.089819 13.459631 Z M 114.110154 2.38045 C 110.320418 2.38045 106.56024 5.399862 106.56024 13.459631 C 106.56024 21.520324 110.310258 24.549896 114.110154 24.549896 C 117.89989 24.549896 121.660068 21.52956 121.660068 13.469791 C 121.660068 5.399862 117.89989 2.38045 114.110154 2.38045 Z M 114.110154 2.38045" stroke="#000" stroke-width=".257" stroke-opacity="1" stroke-miterlimit="4"></path><path fill="#000" d="M 627.933594 332.066406 C 627.933594 327.328125 631.488281 323.734375 636.097656 323.734375 C 640.621094 323.734375 644.21875 327.328125 644.21875 332.066406 C 644.21875 336.886719 640.621094 340.441406 636.097656 340.441406 C 631.488281 340.441406 627.933594 336.886719 627.933594 332.066406 Z M 636.097656 342.089844 C 641.550781 342.089844 646.203125 337.859375 646.203125 332.066406 C 646.203125 326.3125 641.550781 322.085938 636.097656 322.085938 C 630.558594 322.085938 625.90625 326.3125 625.90625 332.066406 C 625.90625 337.859375 630.558594 342.089844 636.097656 342.089844 Z M 633.980469 332.828125 L 636.011719 332.828125 L 639.058594 337.859375 L 641.003906 337.859375 L 637.746094 332.785156 C 639.4375 332.574219 640.75 331.644531 640.75 329.613281 C 640.75 327.328125 639.394531 326.3125 636.6875 326.3125 L 632.289062 326.3125 L 632.289062 337.859375 L 634.066406 337.859375 Z M 633.980469 331.347656 L 633.980469 327.792969 L 636.351562 327.792969 C 637.578125 327.792969 638.847656 328.046875 638.886719 329.484375 C 638.886719 331.261719 637.578125 331.390625 636.054688 331.347656 Z M 633.980469 331.347656" fill-opacity="1" fill-rule="nonzero"></path></g></svg>