<svg xmlns="http://www.w3.org/2000/svg" zoomAndPan="magnify" preserveAspectRatio="xMidYMid meet" viewBox="0 0 768 768"><title>tripadvisor circle</title><g class="nc-icon-wrapper"><defs><clipPath id="1706434153866-6258307_87b6865413"><path d="M 28.625 28.625 L 739.375 28.625 L 739.375 739.375 L 28.625 739.375 Z M 28.625 28.625" clip-rule="nonzero"></path></clipPath><clipPath id="1706434153866-6258307_ee3ff274f5"><path d="M 384 28.625 C 187.730469 28.625 28.625 187.734375 28.625 384 C 28.625 580.269531 187.730469 739.375 384 739.375 C 580.269531 739.375 739.375 580.269531 739.375 384 C 739.375 187.734375 580.269531 28.625 384 28.625 Z M 384 28.625" clip-rule="nonzero"></path></clipPath><clipPath id="1706434153866-6258307_f8ea397914"><path d="M 230.398438 246.082031 L 537.898438 246.082031 L 537.898438 444 L 230.398438 444 Z M 230.398438 246.082031" clip-rule="nonzero"></path></clipPath><clipPath id="1706434153866-6258307_3b0c6bc7f3"><path d="M 531 506 L 537.898438 506 L 537.898438 513 L 531 513 Z M 531 506" clip-rule="nonzero"></path></clipPath><clipPath id="1706434153866-6258307_4cb6b5eee0"><path d="M 230.398438 468 L 263 468 L 263 513 L 230.398438 513 Z M 230.398438 468" clip-rule="nonzero"></path></clipPath><clipPath id="1706434153866-6258307_c04faec724"><path d="M 518 480 L 537.898438 480 L 537.898438 513 L 518 513 Z M 518 480" clip-rule="nonzero"></path></clipPath></defs><path fill="#fff" fill-opacity="1" d="M-76.8 -76.8H844.8000000000001V844.8000000000001H-76.8z"></path><path fill="#fff" fill-opacity="1" d="M-76.8 -76.8H844.8000000000001V844.8000000000001H-76.8z"></path><g clip-path="url(#1706434153866-6258307_87b6865413)"><g clip-path="url(#1706434153866-6258307_ee3ff274f5)"><path fill="#000" d="M 28.625 28.625 L 739.375 28.625 L 739.375 739.375 L 28.625 739.375 Z M 28.625 28.625" fill-opacity="1" fill-rule="nonzero"></path></g></g><path fill="#fff" d="M 307.113281 387.328125 C 308.003906 387.328125 308.894531 387.285156 309.777344 387.199219 C 310.664062 387.109375 311.546875 386.980469 312.417969 386.808594 C 313.292969 386.632812 314.15625 386.417969 315.007812 386.160156 C 315.859375 385.902344 316.695312 385.601562 317.519531 385.261719 C 318.34375 384.917969 319.144531 384.539062 319.933594 384.121094 C 320.71875 383.699219 321.480469 383.242188 322.21875 382.75 C 322.960938 382.253906 323.675781 381.722656 324.363281 381.160156 C 325.050781 380.59375 325.710938 379.996094 326.339844 379.367188 C 326.972656 378.738281 327.566406 378.078125 328.132812 377.390625 C 328.699219 376.703125 329.226562 375.988281 329.722656 375.246094 C 330.21875 374.507812 330.675781 373.742188 331.09375 372.957031 C 331.515625 372.171875 331.894531 371.367188 332.234375 370.546875 C 332.578125 369.722656 332.875 368.886719 333.136719 368.035156 C 333.394531 367.183594 333.609375 366.320312 333.785156 365.445312 C 333.957031 364.574219 334.089844 363.691406 334.175781 362.804688 C 334.261719 361.921875 334.304688 361.03125 334.304688 360.140625 C 334.304688 359.25 334.261719 358.363281 334.175781 357.476562 C 334.089844 356.589844 333.957031 355.710938 333.785156 354.835938 C 333.609375 353.964844 333.394531 353.101562 333.136719 352.25 C 332.878906 351.394531 332.578125 350.558594 332.238281 349.734375 C 331.894531 348.914062 331.515625 348.109375 331.097656 347.324219 C 330.675781 346.539062 330.21875 345.773438 329.722656 345.035156 C 329.230469 344.292969 328.699219 343.578125 328.136719 342.890625 C 327.570312 342.203125 326.972656 341.542969 326.34375 340.914062 C 325.714844 340.285156 325.054688 339.6875 324.367188 339.121094 C 323.675781 338.558594 322.964844 338.027344 322.222656 337.53125 C 321.480469 337.039062 320.71875 336.582031 319.933594 336.160156 C 319.148438 335.742188 318.34375 335.359375 317.523438 335.019531 C 316.699219 334.679688 315.863281 334.378906 315.007812 334.121094 C 314.15625 333.863281 313.292969 333.648438 312.421875 333.472656 C 311.546875 333.300781 310.667969 333.167969 309.78125 333.082031 C 308.894531 332.996094 308.007812 332.949219 307.117188 332.949219 C 306.226562 332.949219 305.335938 332.996094 304.453125 333.082031 C 303.566406 333.167969 302.683594 333.300781 301.8125 333.472656 C 300.9375 333.648438 300.074219 333.863281 299.222656 334.121094 C 298.371094 334.378906 297.535156 334.679688 296.710938 335.019531 C 295.886719 335.363281 295.085938 335.742188 294.300781 336.164062 C 293.515625 336.582031 292.75 337.039062 292.011719 337.535156 C 291.269531 338.027344 290.554688 338.558594 289.867188 339.125 C 289.179688 339.6875 288.519531 340.285156 287.890625 340.917969 C 287.261719 341.546875 286.664062 342.207031 286.097656 342.894531 C 285.535156 343.582031 285.003906 344.296875 284.507812 345.035156 C 284.015625 345.777344 283.558594 346.539062 283.136719 347.324219 C 282.71875 348.109375 282.335938 348.914062 281.996094 349.738281 C 281.65625 350.5625 281.355469 351.398438 281.097656 352.25 C 280.839844 353.101562 280.625 353.964844 280.449219 354.839844 C 280.277344 355.710938 280.144531 356.59375 280.058594 357.480469 C 279.972656 358.363281 279.929688 359.253906 279.929688 360.144531 C 279.929688 361.035156 279.972656 361.921875 280.058594 362.808594 C 280.148438 363.695312 280.277344 364.574219 280.453125 365.445312 C 280.625 366.320312 280.839844 367.183594 281.101562 368.035156 C 281.359375 368.886719 281.660156 369.722656 282 370.546875 C 282.339844 371.367188 282.71875 372.171875 283.140625 372.957031 C 283.558594 373.742188 284.015625 374.503906 284.511719 375.246094 C 285.007812 375.984375 285.535156 376.699219 286.101562 377.386719 C 286.664062 378.078125 287.261719 378.734375 287.890625 379.367188 C 288.523438 379.996094 289.179688 380.59375 289.867188 381.15625 C 290.558594 381.722656 291.269531 382.25 292.011719 382.746094 C 292.75 383.242188 293.515625 383.699219 294.300781 384.117188 C 295.085938 384.539062 295.886719 384.917969 296.710938 385.257812 C 297.535156 385.597656 298.371094 385.898438 299.222656 386.15625 C 300.074219 386.414062 300.9375 386.632812 301.808594 386.804688 C 302.683594 386.980469 303.5625 387.109375 304.449219 387.199219 C 305.335938 387.285156 306.222656 387.328125 307.113281 387.328125 Z M 307.113281 387.328125" fill-opacity="1" fill-rule="nonzero"></path><path fill="#fff" d="M 487.574219 360.144531 C 487.574219 361.035156 487.53125 361.921875 487.445312 362.808594 C 487.355469 363.695312 487.226562 364.574219 487.054688 365.449219 C 486.878906 366.320312 486.664062 367.183594 486.40625 368.035156 C 486.144531 368.886719 485.847656 369.726562 485.503906 370.546875 C 485.164062 371.371094 484.785156 372.175781 484.363281 372.960938 C 483.945312 373.746094 483.488281 374.507812 482.992188 375.25 C 482.5 375.988281 481.96875 376.703125 481.402344 377.390625 C 480.839844 378.082031 480.242188 378.738281 479.613281 379.367188 C 478.980469 380 478.324219 380.597656 477.636719 381.160156 C 476.945312 381.726562 476.230469 382.253906 475.492188 382.75 C 474.75 383.246094 473.988281 383.703125 473.203125 384.121094 C 472.417969 384.542969 471.613281 384.921875 470.792969 385.261719 C 469.96875 385.605469 469.132812 385.902344 468.277344 386.160156 C 467.425781 386.421875 466.5625 386.636719 465.691406 386.808594 C 464.816406 386.984375 463.9375 387.113281 463.050781 387.203125 C 462.164062 387.289062 461.277344 387.332031 460.386719 387.332031 C 459.496094 387.332031 458.609375 387.289062 457.722656 387.203125 C 456.835938 387.113281 455.957031 386.984375 455.082031 386.808594 C 454.207031 386.636719 453.347656 386.421875 452.492188 386.160156 C 451.640625 385.902344 450.804688 385.605469 449.980469 385.261719 C 449.160156 384.921875 448.355469 384.542969 447.570312 384.121094 C 446.785156 383.703125 446.019531 383.246094 445.28125 382.75 C 444.539062 382.253906 443.828125 381.726562 443.136719 381.160156 C 442.449219 380.597656 441.789062 380 441.160156 379.367188 C 440.53125 378.738281 439.933594 378.082031 439.371094 377.390625 C 438.804688 376.703125 438.273438 375.988281 437.78125 375.25 C 437.285156 374.507812 436.828125 373.746094 436.40625 372.960938 C 435.988281 372.175781 435.609375 371.371094 435.265625 370.546875 C 434.925781 369.726562 434.625 368.886719 434.367188 368.035156 C 434.109375 367.183594 433.894531 366.320312 433.71875 365.449219 C 433.546875 364.574219 433.414062 363.695312 433.328125 362.808594 C 433.242188 361.921875 433.199219 361.035156 433.199219 360.144531 C 433.199219 359.253906 433.242188 358.363281 433.328125 357.480469 C 433.414062 356.59375 433.546875 355.710938 433.71875 354.839844 C 433.894531 353.964844 434.109375 353.101562 434.367188 352.25 C 434.625 351.398438 434.925781 350.5625 435.265625 349.738281 C 435.609375 348.917969 435.988281 348.113281 436.40625 347.328125 C 436.828125 346.542969 437.285156 345.777344 437.78125 345.039062 C 438.273438 344.296875 438.804688 343.582031 439.371094 342.894531 C 439.933594 342.207031 440.53125 341.546875 441.160156 340.917969 C 441.789062 340.289062 442.449219 339.691406 443.136719 339.125 C 443.828125 338.5625 444.539062 338.03125 445.28125 337.535156 C 446.019531 337.042969 446.785156 336.585938 447.570312 336.164062 C 448.355469 335.746094 449.160156 335.363281 449.980469 335.023438 C 450.804688 334.683594 451.640625 334.382812 452.492188 334.125 C 453.347656 333.867188 454.207031 333.652344 455.082031 333.476562 C 455.957031 333.304688 456.835938 333.171875 457.722656 333.085938 C 458.609375 333 459.496094 332.953125 460.386719 332.953125 C 461.277344 332.953125 462.164062 333 463.050781 333.085938 C 463.9375 333.171875 464.816406 333.304688 465.691406 333.476562 C 466.5625 333.652344 467.425781 333.867188 468.277344 334.125 C 469.132812 334.382812 469.96875 334.683594 470.792969 335.023438 C 471.613281 335.363281 472.417969 335.746094 473.203125 336.164062 C 473.988281 336.585938 474.75 337.042969 475.492188 337.535156 C 476.230469 338.03125 476.945312 338.5625 477.636719 339.125 C 478.324219 339.691406 478.980469 340.289062 479.613281 340.917969 C 480.242188 341.546875 480.839844 342.207031 481.402344 342.894531 C 481.96875 343.582031 482.5 344.296875 482.992188 345.039062 C 483.488281 345.777344 483.945312 346.542969 484.363281 347.328125 C 484.785156 348.113281 485.164062 348.917969 485.503906 349.738281 C 485.847656 350.5625 486.144531 351.398438 486.40625 352.25 C 486.664062 353.101562 486.878906 353.964844 487.054688 354.839844 C 487.226562 355.710938 487.355469 356.59375 487.445312 357.480469 C 487.53125 358.363281 487.574219 359.253906 487.574219 360.144531 Z M 487.574219 360.144531" fill-opacity="1" fill-rule="nonzero"></path><g clip-path="url(#1706434153866-6258307_f8ea397914)"><path fill="#fff" d="M 230.480469 360.144531 C 230.480469 402.472656 264.789062 436.777344 307.113281 436.777344 C 311.902344 436.785156 316.648438 436.34375 321.351562 435.457031 C 326.054688 434.574219 330.636719 433.253906 335.09375 431.507812 C 339.550781 429.757812 343.804688 427.609375 347.859375 425.0625 C 351.910156 422.515625 355.691406 419.609375 359.199219 416.351562 L 383.761719 443.082031 L 408.328125 416.367188 C 411.835938 419.621094 415.613281 422.523438 419.667969 425.070312 C 423.71875 427.617188 427.972656 429.761719 432.425781 431.507812 C 436.882812 433.253906 441.460938 434.570312 446.164062 435.457031 C 450.867188 436.34375 455.613281 436.78125 460.398438 436.773438 C 502.726562 436.773438 537.066406 402.460938 537.066406 360.140625 C 537.070312 357.480469 536.933594 354.828125 536.660156 352.1875 C 536.386719 349.542969 535.976562 346.917969 535.425781 344.316406 C 534.878906 341.714844 534.199219 339.148438 533.382812 336.621094 C 532.570312 334.089844 531.625 331.609375 530.550781 329.175781 C 529.476562 326.742188 528.277344 324.375 526.957031 322.066406 C 525.636719 319.761719 524.199219 317.527344 522.644531 315.371094 C 521.089844 313.214844 519.429688 311.144531 517.660156 309.160156 C 515.890625 307.175781 514.019531 305.289062 512.054688 303.503906 L 537.128906 276.21875 L 481.539062 276.21875 C 477.964844 273.785156 474.300781 271.488281 470.554688 269.328125 C 466.804688 267.167969 462.984375 265.152344 459.085938 263.277344 C 455.1875 261.402344 451.222656 259.679688 447.195312 258.101562 C 443.167969 256.523438 439.089844 255.097656 434.957031 253.824219 C 430.820312 252.550781 426.644531 251.433594 422.429688 250.472656 C 418.210938 249.511719 413.964844 248.707031 409.6875 248.066406 C 405.410156 247.421875 401.113281 246.9375 396.800781 246.617188 C 392.488281 246.292969 388.167969 246.132812 383.84375 246.132812 C 379.515625 246.132812 375.199219 246.292969 370.882812 246.617188 C 366.570312 246.9375 362.277344 247.421875 358 248.066406 C 353.722656 248.707031 349.472656 249.511719 345.257812 250.472656 C 341.039062 251.433594 336.863281 252.550781 332.730469 253.824219 C 328.597656 255.097656 324.515625 256.523438 320.488281 258.101562 C 316.460938 259.679688 312.5 261.402344 308.601562 263.277344 C 304.703125 265.152344 300.878906 267.167969 297.132812 269.328125 C 293.382812 271.488281 289.722656 273.785156 286.144531 276.21875 L 230.398438 276.21875 L 255.476562 303.503906 C 253.511719 305.292969 251.640625 307.179688 249.871094 309.160156 C 248.105469 311.144531 246.441406 313.214844 244.890625 315.375 C 243.335938 317.53125 241.898438 319.761719 240.578125 322.070312 C 239.257812 324.378906 238.0625 326.746094 236.988281 329.179688 C 235.914062 331.609375 234.96875 334.09375 234.15625 336.625 C 233.339844 339.152344 232.660156 341.71875 232.113281 344.320312 C 231.566406 346.921875 231.15625 349.546875 230.882812 352.191406 C 230.609375 354.835938 230.476562 357.484375 230.480469 360.144531 Z M 512.25 360.144531 C 512.25 361.84375 512.167969 363.535156 512 365.226562 C 511.835938 366.917969 511.585938 368.597656 511.253906 370.261719 C 510.921875 371.929688 510.511719 373.574219 510.015625 375.199219 C 509.523438 376.824219 508.953125 378.421875 508.304688 379.992188 C 507.652344 381.5625 506.925781 383.09375 506.125 384.59375 C 505.324219 386.089844 504.453125 387.546875 503.511719 388.957031 C 502.566406 390.371094 501.554688 391.734375 500.476562 393.046875 C 499.402344 394.359375 498.261719 395.617188 497.058594 396.816406 C 495.859375 398.019531 494.601562 399.15625 493.289062 400.234375 C 491.976562 401.3125 490.613281 402.324219 489.199219 403.265625 C 487.789062 404.210938 486.332031 405.082031 484.835938 405.882812 C 483.335938 406.683594 481.804688 407.410156 480.234375 408.058594 C 478.664062 408.710938 477.066406 409.28125 475.441406 409.773438 C 473.816406 410.269531 472.171875 410.679688 470.503906 411.011719 C 468.839844 411.34375 467.160156 411.59375 465.46875 411.757812 C 463.78125 411.925781 462.085938 412.007812 460.386719 412.007812 C 458.6875 412.007812 456.992188 411.925781 455.304688 411.757812 C 453.613281 411.59375 451.933594 411.34375 450.269531 411.011719 C 448.601562 410.679688 446.957031 410.269531 445.332031 409.773438 C 443.707031 409.28125 442.109375 408.710938 440.539062 408.058594 C 438.96875 407.410156 437.4375 406.683594 435.9375 405.882812 C 434.441406 405.082031 432.984375 404.210938 431.570312 403.265625 C 430.160156 402.324219 428.796875 401.3125 427.484375 400.234375 C 426.171875 399.15625 424.914062 398.019531 423.710938 396.816406 C 422.511719 395.617188 421.371094 394.359375 420.292969 393.046875 C 419.21875 391.734375 418.207031 390.371094 417.261719 388.957031 C 416.320312 387.546875 415.445312 386.089844 414.644531 384.59375 C 413.84375 383.09375 413.121094 381.5625 412.46875 379.992188 C 411.820312 378.421875 411.25 376.824219 410.753906 375.199219 C 410.261719 373.574219 409.851562 371.929688 409.519531 370.261719 C 409.1875 368.597656 408.9375 366.917969 408.773438 365.226562 C 408.605469 363.535156 408.523438 361.84375 408.523438 360.144531 C 408.523438 358.445312 408.605469 356.75 408.773438 355.058594 C 408.9375 353.371094 409.1875 351.691406 409.519531 350.027344 C 409.851562 348.359375 410.261719 346.714844 410.753906 345.089844 C 411.25 343.460938 411.820312 341.867188 412.46875 340.296875 C 413.121094 338.726562 413.84375 337.191406 414.644531 335.695312 C 415.445312 334.195312 416.320312 332.742188 417.261719 331.328125 C 418.207031 329.917969 419.21875 328.554688 420.292969 327.242188 C 421.371094 325.929688 422.511719 324.671875 423.710938 323.46875 C 424.914062 322.269531 426.171875 321.128906 427.484375 320.050781 C 428.796875 318.972656 430.160156 317.964844 431.570312 317.019531 C 432.984375 316.078125 434.441406 315.203125 435.9375 314.402344 C 437.4375 313.601562 438.96875 312.878906 440.539062 312.226562 C 442.109375 311.578125 443.707031 311.003906 445.332031 310.511719 C 446.957031 310.019531 448.601562 309.605469 450.269531 309.277344 C 451.933594 308.945312 453.613281 308.695312 455.304688 308.527344 C 456.992188 308.363281 458.6875 308.277344 460.386719 308.277344 C 462.085938 308.277344 463.78125 308.363281 465.46875 308.527344 C 467.160156 308.695312 468.839844 308.945312 470.503906 309.277344 C 472.171875 309.605469 473.816406 310.019531 475.441406 310.511719 C 477.066406 311.003906 478.664062 311.578125 480.234375 312.226562 C 481.804688 312.878906 483.335938 313.601562 484.835938 314.402344 C 486.332031 315.203125 487.789062 316.078125 489.199219 317.019531 C 490.613281 317.964844 491.976562 318.972656 493.289062 320.050781 C 494.601562 321.128906 495.859375 322.269531 497.058594 323.46875 C 498.261719 324.671875 499.402344 325.929688 500.476562 327.242188 C 501.554688 328.554688 502.566406 329.917969 503.511719 331.328125 C 504.453125 332.742188 505.324219 334.195312 506.125 335.695312 C 506.925781 337.191406 507.652344 338.726562 508.304688 340.296875 C 508.953125 341.867188 509.523438 343.460938 510.019531 345.089844 C 510.511719 346.714844 510.921875 348.359375 511.253906 350.027344 C 511.585938 351.691406 511.835938 353.371094 512 355.058594 C 512.167969 356.75 512.25 358.445312 512.25 360.144531 Z M 383.753906 271.203125 C 393.636719 271.191406 403.421875 272.152344 413.113281 274.089844 C 422.804688 276.03125 432.210938 278.902344 441.332031 282.714844 C 408.597656 295.242188 383.777344 324.523438 383.777344 358.648438 C 383.777344 324.519531 358.953125 295.234375 326.214844 282.710938 C 335.328125 278.902344 344.726562 276.03125 354.410156 274.09375 C 364.09375 272.15625 373.875 271.191406 383.753906 271.203125 Z M 307.113281 308.277344 C 308.8125 308.277344 310.507812 308.363281 312.199219 308.527344 C 313.886719 308.695312 315.566406 308.945312 317.230469 309.277344 C 318.898438 309.605469 320.542969 310.019531 322.167969 310.511719 C 323.792969 311.003906 325.390625 311.578125 326.960938 312.226562 C 328.53125 312.878906 330.0625 313.601562 331.5625 314.402344 C 333.058594 315.203125 334.515625 316.078125 335.929688 317.019531 C 337.339844 317.964844 338.703125 318.972656 340.015625 320.050781 C 341.328125 321.128906 342.585938 322.269531 343.789062 323.46875 C 344.988281 324.671875 346.128906 325.929688 347.207031 327.242188 C 348.28125 328.554688 349.292969 329.917969 350.238281 331.328125 C 351.179688 332.742188 352.054688 334.195312 352.855469 335.695312 C 353.65625 337.191406 354.378906 338.726562 355.03125 340.296875 C 355.679688 341.867188 356.25 343.460938 356.746094 345.089844 C 357.238281 346.714844 357.648438 348.359375 357.980469 350.023438 C 358.3125 351.691406 358.5625 353.371094 358.726562 355.058594 C 358.894531 356.75 358.976562 358.445312 358.976562 360.144531 C 358.976562 361.84375 358.894531 363.535156 358.726562 365.226562 C 358.5625 366.917969 358.3125 368.597656 357.980469 370.261719 C 357.648438 371.929688 357.238281 373.574219 356.746094 375.199219 C 356.25 376.824219 355.679688 378.421875 355.03125 379.992188 C 354.378906 381.5625 353.65625 383.09375 352.855469 384.59375 C 352.054688 386.089844 351.179688 387.546875 350.238281 388.957031 C 349.292969 390.371094 348.28125 391.734375 347.207031 393.046875 C 346.128906 394.359375 344.988281 395.617188 343.789062 396.816406 C 342.585938 398.019531 341.328125 399.15625 340.015625 400.234375 C 338.703125 401.3125 337.339844 402.324219 335.929688 403.265625 C 334.515625 404.210938 333.058594 405.082031 331.5625 405.882812 C 330.0625 406.683594 328.53125 407.410156 326.960938 408.058594 C 325.390625 408.710938 323.792969 409.28125 322.167969 409.773438 C 320.542969 410.269531 318.898438 410.679688 317.230469 411.011719 C 315.566406 411.34375 313.886719 411.59375 312.199219 411.757812 C 310.507812 411.925781 308.8125 412.007812 307.113281 412.007812 C 305.414062 412.007812 303.71875 411.925781 302.03125 411.757812 C 300.339844 411.59375 298.660156 411.34375 296.996094 411.011719 C 295.328125 410.679688 293.683594 410.269531 292.058594 409.773438 C 290.433594 409.28125 288.835938 408.710938 287.265625 408.058594 C 285.695312 407.410156 284.164062 406.683594 282.664062 405.882812 C 281.167969 405.082031 279.710938 404.210938 278.300781 403.265625 C 276.886719 402.324219 275.523438 401.3125 274.210938 400.234375 C 272.898438 399.15625 271.640625 398.019531 270.441406 396.816406 C 269.238281 395.617188 268.101562 394.359375 267.023438 393.046875 C 265.945312 391.734375 264.933594 390.371094 263.988281 388.957031 C 263.046875 387.546875 262.175781 386.089844 261.375 384.59375 C 260.574219 383.09375 259.847656 381.5625 259.199219 379.992188 C 258.546875 378.421875 257.976562 376.824219 257.484375 375.199219 C 256.988281 373.574219 256.578125 371.929688 256.246094 370.261719 C 255.914062 368.597656 255.664062 366.917969 255.5 365.226562 C 255.332031 363.535156 255.25 361.84375 255.25 360.144531 C 255.25 358.445312 255.332031 356.75 255.5 355.058594 C 255.664062 353.371094 255.914062 351.691406 256.246094 350.027344 C 256.578125 348.359375 256.988281 346.714844 257.484375 345.089844 C 257.976562 343.460938 258.546875 341.867188 259.199219 340.296875 C 259.847656 338.726562 260.574219 337.191406 261.375 335.695312 C 262.175781 334.195312 263.046875 332.742188 263.988281 331.328125 C 264.933594 329.917969 265.945312 328.554688 267.023438 327.242188 C 268.101562 325.929688 269.238281 324.671875 270.441406 323.46875 C 271.640625 322.269531 272.898438 321.128906 274.210938 320.050781 C 275.523438 318.972656 276.886719 317.964844 278.300781 317.019531 C 279.710938 316.078125 281.167969 315.203125 282.664062 314.402344 C 284.164062 313.601562 285.695312 312.878906 287.265625 312.226562 C 288.835938 311.578125 290.433594 311.003906 292.058594 310.511719 C 293.683594 310.019531 295.328125 309.605469 296.996094 309.277344 C 298.660156 308.945312 300.339844 308.695312 302.03125 308.527344 C 303.71875 308.363281 305.414062 308.277344 307.113281 308.277344 Z M 307.113281 308.277344" fill-opacity="1" fill-rule="nonzero"></path></g><g clip-path="url(#1706434153866-6258307_3b0c6bc7f3)"><path fill="#fff" d="M 534.460938 506.671875 C 534.046875 506.671875 533.648438 506.75 533.261719 506.910156 C 532.878906 507.066406 532.539062 507.292969 532.246094 507.585938 C 531.953125 507.882812 531.726562 508.21875 531.566406 508.605469 C 531.410156 508.988281 531.328125 509.386719 531.328125 509.804688 C 531.328125 510.21875 531.410156 510.617188 531.566406 511.003906 C 531.726562 511.386719 531.953125 511.726562 532.246094 512.019531 C 532.539062 512.3125 532.878906 512.539062 533.261719 512.699219 C 533.648438 512.855469 534.046875 512.9375 534.460938 512.9375 C 534.878906 512.9375 535.277344 512.855469 535.660156 512.699219 C 536.046875 512.539062 536.382812 512.3125 536.675781 512.019531 C 536.972656 511.726562 537.199219 511.386719 537.355469 511.003906 C 537.515625 510.617188 537.59375 510.21875 537.59375 509.804688 C 537.59375 509.386719 537.515625 508.988281 537.355469 508.605469 C 537.195312 508.222656 536.96875 507.882812 536.675781 507.589844 C 536.382812 507.296875 536.042969 507.070312 535.660156 506.910156 C 535.277344 506.75 534.878906 506.671875 534.460938 506.671875 Z M 534.460938 512.445312 C 534.113281 512.445312 533.773438 512.378906 533.449219 512.242188 C 533.125 512.109375 532.839844 511.917969 532.589844 511.671875 C 532.34375 511.421875 532.152344 511.136719 532.019531 510.8125 C 531.882812 510.488281 531.816406 510.148438 531.816406 509.800781 C 531.816406 509.449219 531.882812 509.109375 532.019531 508.785156 C 532.152344 508.460938 532.34375 508.175781 532.589844 507.929688 C 532.839844 507.679688 533.125 507.488281 533.449219 507.355469 C 533.773438 507.222656 534.113281 507.152344 534.460938 507.152344 C 534.8125 507.152344 535.152344 507.222656 535.472656 507.355469 C 535.796875 507.488281 536.085938 507.679688 536.332031 507.929688 C 536.582031 508.175781 536.773438 508.460938 536.90625 508.785156 C 537.039062 509.109375 537.109375 509.449219 537.109375 509.800781 C 537.109375 510.148438 537.039062 510.488281 536.90625 510.8125 C 536.773438 511.136719 536.582031 511.421875 536.332031 511.671875 C 536.085938 511.917969 535.796875 512.109375 535.472656 512.242188 C 535.152344 512.378906 534.8125 512.445312 534.460938 512.445312 Z M 534.460938 512.445312" fill-opacity="1" fill-rule="nonzero"></path></g><path fill="#fff" d="M 535.480469 509.269531 C 535.480469 509.140625 535.457031 509.015625 535.40625 508.898438 C 535.355469 508.777344 535.28125 508.675781 535.1875 508.589844 C 535.089844 508.5 534.980469 508.4375 534.859375 508.398438 C 534.734375 508.359375 534.609375 508.347656 534.480469 508.363281 L 533.480469 508.363281 L 533.480469 511.214844 L 533.972656 511.214844 L 533.972656 510.175781 L 534.503906 510.175781 L 535.023438 511.214844 L 535.554688 511.214844 L 534.984375 510.078125 C 535.144531 510.011719 535.269531 509.902344 535.359375 509.753906 C 535.449219 509.605469 535.488281 509.445312 535.480469 509.269531 Z M 534.457031 509.742188 L 533.972656 509.742188 L 533.972656 508.796875 L 534.457031 508.796875 C 534.789062 508.796875 534.988281 508.964844 534.988281 509.269531 C 534.988281 509.578125 534.789062 509.742188 534.457031 509.742188 Z M 534.457031 509.742188" fill-opacity="1" fill-rule="nonzero"></path><path fill="#fff" d="M 266.296875 485.730469 L 266.296875 480.335938 L 258.03125 480.335938 L 258.03125 512.460938 L 266.308594 512.460938 L 266.308594 493.191406 C 266.308594 489.703125 268.546875 487.992188 272.035156 487.992188 L 276.570312 487.992188 L 276.570312 480.335938 L 272.679688 480.335938 C 269.652344 480.335938 267.019531 481.914062 266.296875 485.730469 Z M 266.296875 485.730469" fill-opacity="1" fill-rule="nonzero"></path><path fill="#fff" d="M 284.300781 467.640625 C 283.972656 467.636719 283.644531 467.667969 283.320312 467.730469 C 282.992188 467.792969 282.679688 467.886719 282.371094 468.011719 C 282.066406 468.136719 281.773438 468.289062 281.5 468.46875 C 281.222656 468.652344 280.96875 468.859375 280.730469 469.089844 C 280.496094 469.324219 280.285156 469.574219 280.101562 469.847656 C 279.914062 470.125 279.757812 470.414062 279.628906 470.714844 C 279.5 471.019531 279.402344 471.335938 279.335938 471.660156 C 279.269531 471.984375 279.234375 472.308594 279.234375 472.640625 C 279.230469 472.972656 279.261719 473.296875 279.324219 473.625 C 279.386719 473.949219 279.480469 474.261719 279.605469 474.570312 C 279.726562 474.875 279.882812 475.167969 280.0625 475.441406 C 280.246094 475.71875 280.453125 475.976562 280.683594 476.210938 C 280.917969 476.445312 281.167969 476.65625 281.441406 476.839844 C 281.714844 477.027344 282.003906 477.183594 282.308594 477.3125 C 282.613281 477.441406 282.929688 477.539062 283.253906 477.605469 C 283.574219 477.671875 283.902344 477.707031 284.234375 477.707031 C 284.5625 477.710938 284.890625 477.679688 285.214844 477.617188 C 285.539062 477.554688 285.855469 477.460938 286.164062 477.339844 C 286.46875 477.214844 286.761719 477.0625 287.035156 476.878906 C 287.3125 476.699219 287.566406 476.492188 287.804688 476.257812 C 288.039062 476.027344 288.25 475.773438 288.433594 475.5 C 288.621094 475.226562 288.777344 474.9375 288.90625 474.632812 C 289.035156 474.328125 289.132812 474.015625 289.199219 473.691406 C 289.265625 473.367188 289.300781 473.039062 289.300781 472.707031 C 289.308594 472.375 289.28125 472.046875 289.222656 471.722656 C 289.164062 471.394531 289.070312 471.078125 288.949219 470.769531 C 288.828125 470.460938 288.675781 470.167969 288.492188 469.890625 C 288.3125 469.613281 288.105469 469.355469 287.871094 469.121094 C 287.636719 468.882812 287.382812 468.671875 287.109375 468.488281 C 286.832031 468.300781 286.542969 468.144531 286.234375 468.019531 C 285.929688 467.890625 285.613281 467.796875 285.289062 467.734375 C 284.960938 467.667969 284.632812 467.636719 284.300781 467.640625 Z M 284.300781 467.640625" fill-opacity="1" fill-rule="nonzero"></path><path fill="#fff" d="M 280.175781 480.335938 L 288.429688 480.335938 L 288.429688 512.441406 L 280.175781 512.441406 Z M 280.175781 480.335938" fill-opacity="1" fill-rule="nonzero"></path><path fill="#fff" d="M 311.15625 479.796875 C 309.398438 479.785156 307.683594 480.058594 306.015625 480.617188 C 304.347656 481.175781 302.8125 481.988281 301.414062 483.054688 L 301.414062 480.335938 L 293.179688 480.335938 L 293.179688 521.867188 L 301.433594 521.867188 L 301.433594 509.726562 C 302.832031 510.792969 304.363281 511.601562 306.027344 512.160156 C 307.691406 512.722656 309.402344 512.996094 311.15625 512.992188 C 311.703125 512.992188 312.242188 512.964844 312.785156 512.914062 C 313.324219 512.859375 313.863281 512.78125 314.394531 512.675781 C 314.929688 512.566406 315.453125 512.4375 315.976562 512.277344 C 316.496094 512.121094 317.007812 511.9375 317.507812 511.730469 C 318.011719 511.523438 318.5 511.289062 318.980469 511.035156 C 319.460938 510.777344 319.925781 510.5 320.378906 510.195312 C 320.828125 509.894531 321.265625 509.570312 321.6875 509.226562 C 322.105469 508.882812 322.507812 508.515625 322.890625 508.132812 C 323.277344 507.746094 323.640625 507.347656 323.984375 506.925781 C 324.332031 506.503906 324.652344 506.070312 324.957031 505.617188 C 325.257812 505.164062 325.539062 504.699219 325.792969 504.21875 C 326.050781 503.742188 326.28125 503.25 326.488281 502.75 C 326.699219 502.246094 326.878906 501.734375 327.039062 501.214844 C 327.195312 500.695312 327.328125 500.167969 327.433594 499.636719 C 327.539062 499.101562 327.621094 498.566406 327.671875 498.023438 C 327.726562 497.484375 327.753906 496.941406 327.753906 496.398438 C 327.753906 495.855469 327.726562 495.3125 327.671875 494.769531 C 327.621094 494.230469 327.539062 493.691406 327.433594 493.160156 C 327.328125 492.628906 327.195312 492.101562 327.039062 491.582031 C 326.878906 491.058594 326.699219 490.550781 326.488281 490.046875 C 326.28125 489.542969 326.050781 489.054688 325.792969 488.574219 C 325.539062 488.09375 325.257812 487.628906 324.957031 487.179688 C 324.652344 486.726562 324.332031 486.289062 323.984375 485.871094 C 323.640625 485.449219 323.277344 485.046875 322.890625 484.664062 C 322.507812 484.277344 322.105469 483.914062 321.6875 483.570312 C 321.265625 483.226562 320.828125 482.902344 320.378906 482.597656 C 319.925781 482.296875 319.460938 482.019531 318.980469 481.761719 C 318.5 481.503906 318.011719 481.273438 317.507812 481.066406 C 317.007812 480.859375 316.496094 480.675781 315.976562 480.515625 C 315.453125 480.359375 314.929688 480.226562 314.394531 480.121094 C 313.863281 480.015625 313.324219 479.9375 312.785156 479.882812 C 312.242188 479.828125 311.703125 479.800781 311.15625 479.800781 Z M 310.429688 505.402344 C 309.835938 505.402344 309.25 505.347656 308.667969 505.230469 C 308.089844 505.113281 307.523438 504.945312 306.976562 504.71875 C 306.429688 504.492188 305.910156 504.214844 305.417969 503.882812 C 304.925781 503.554688 304.46875 503.179688 304.050781 502.761719 C 303.632812 502.34375 303.257812 501.886719 302.929688 501.394531 C 302.601562 500.902344 302.324219 500.382812 302.097656 499.835938 C 301.871094 499.289062 301.699219 498.726562 301.582031 498.144531 C 301.46875 497.5625 301.410156 496.976562 301.410156 496.386719 C 301.410156 495.792969 301.46875 495.207031 301.585938 494.625 C 301.699219 494.046875 301.871094 493.480469 302.097656 492.933594 C 302.324219 492.386719 302.601562 491.867188 302.929688 491.375 C 303.261719 490.882812 303.632812 490.425781 304.054688 490.007812 C 304.472656 489.589844 304.925781 489.214844 305.421875 488.886719 C 305.914062 488.558594 306.433594 488.28125 306.980469 488.054688 C 307.527344 487.828125 308.089844 487.65625 308.671875 487.542969 C 309.253906 487.425781 309.839844 487.367188 310.429688 487.367188 C 311.023438 487.367188 311.609375 487.425781 312.191406 487.542969 C 312.769531 487.660156 313.335938 487.828125 313.882812 488.054688 C 314.429688 488.28125 314.949219 488.5625 315.441406 488.890625 C 315.933594 489.21875 316.386719 489.59375 316.808594 490.011719 C 317.226562 490.429688 317.597656 490.886719 317.929688 491.378906 C 318.257812 491.871094 318.535156 492.390625 318.761719 492.9375 C 318.988281 493.484375 319.15625 494.050781 319.273438 494.628906 C 319.386719 495.210938 319.445312 495.796875 319.445312 496.390625 C 319.445312 496.980469 319.386719 497.570312 319.273438 498.148438 C 319.15625 498.730469 318.984375 499.292969 318.757812 499.839844 C 318.53125 500.386719 318.253906 500.90625 317.925781 501.398438 C 317.597656 501.890625 317.222656 502.347656 316.804688 502.765625 C 316.386719 503.183594 315.929688 503.558594 315.4375 503.886719 C 314.945312 504.214844 314.425781 504.492188 313.878906 504.71875 C 313.332031 504.945312 312.769531 505.117188 312.1875 505.230469 C 311.605469 505.347656 311.019531 505.402344 310.429688 505.402344 Z M 310.429688 505.402344" fill-opacity="1" fill-rule="nonzero"></path><path fill="#fff" d="M 471.242188 493.574219 L 466.425781 492.25 C 463.257812 491.429688 462.023438 490.453125 462.023438 488.777344 C 462.023438 487.105469 463.757812 486.007812 466.242188 486.007812 C 468.605469 486.007812 470.457031 487.558594 470.457031 489.535156 L 470.457031 489.71875 L 478.066406 489.71875 L 478.066406 489.535156 C 478.066406 483.707031 473.316406 479.796875 466.242188 479.796875 C 459.234375 479.796875 454.148438 483.707031 454.148438 489.097656 C 454.148438 493.289062 456.929688 496.445312 461.773438 497.757812 L 466.386719 499.007812 C 469.890625 499.980469 471.191406 501.058594 471.191406 502.984375 C 471.191406 505.019531 469.300781 506.386719 466.507812 506.386719 C 463.582031 506.386719 461.621094 504.539062 461.621094 501.789062 L 461.621094 501.605469 L 453.546875 501.605469 L 453.546875 501.789062 C 453.546875 508.378906 458.835938 512.976562 466.441406 512.976562 C 473.757812 512.976562 479.066406 508.484375 479.066406 502.292969 C 479.066406 499.269531 477.710938 495.296875 471.242188 493.574219 Z M 471.242188 493.574219" fill-opacity="1" fill-rule="nonzero"></path><path fill="#fff" d="M 357.050781 483.054688 C 355.652344 481.988281 354.117188 481.175781 352.449219 480.617188 C 350.78125 480.058594 349.066406 479.785156 347.308594 479.796875 C 346.765625 479.796875 346.222656 479.820312 345.679688 479.875 C 345.140625 479.929688 344.601562 480.007812 344.070312 480.113281 C 343.535156 480.21875 343.011719 480.351562 342.488281 480.507812 C 341.96875 480.667969 341.457031 480.851562 340.957031 481.058594 C 340.453125 481.265625 339.964844 481.5 339.484375 481.753906 C 339.003906 482.011719 338.539062 482.289062 338.085938 482.589844 C 337.636719 482.894531 337.199219 483.21875 336.78125 483.5625 C 336.359375 483.90625 335.957031 484.269531 335.574219 484.65625 C 335.1875 485.039062 334.824219 485.441406 334.480469 485.863281 C 334.132812 486.28125 333.8125 486.71875 333.507812 487.171875 C 333.207031 487.621094 332.929688 488.089844 332.671875 488.566406 C 332.414062 489.046875 332.183594 489.539062 331.976562 490.039062 C 331.765625 490.542969 331.585938 491.054688 331.425781 491.574219 C 331.269531 492.09375 331.136719 492.621094 331.03125 493.152344 C 330.925781 493.6875 330.84375 494.222656 330.792969 494.761719 C 330.738281 495.304688 330.710938 495.847656 330.710938 496.390625 C 330.710938 496.933594 330.738281 497.476562 330.792969 498.015625 C 330.84375 498.558594 330.925781 499.09375 331.03125 499.628906 C 331.136719 500.160156 331.269531 500.6875 331.425781 501.207031 C 331.585938 501.726562 331.765625 502.238281 331.976562 502.742188 C 332.183594 503.242188 332.414062 503.734375 332.671875 504.214844 C 332.929688 504.691406 333.207031 505.15625 333.507812 505.609375 C 333.8125 506.0625 334.132812 506.496094 334.480469 506.917969 C 334.824219 507.339844 335.1875 507.742188 335.574219 508.125 C 335.957031 508.507812 336.359375 508.875 336.78125 509.21875 C 337.199219 509.5625 337.636719 509.886719 338.085938 510.1875 C 338.539062 510.492188 339.003906 510.769531 339.484375 511.027344 C 339.964844 511.28125 340.453125 511.515625 340.957031 511.722656 C 341.457031 511.929688 341.96875 512.113281 342.488281 512.269531 C 343.011719 512.429688 343.535156 512.558594 344.070312 512.667969 C 344.601562 512.773438 345.140625 512.851562 345.679688 512.90625 C 346.222656 512.957031 346.765625 512.984375 347.308594 512.984375 C 349.066406 512.992188 350.78125 512.71875 352.449219 512.160156 C 354.117188 511.601562 355.652344 510.792969 357.050781 509.726562 L 357.050781 512.445312 L 365.304688 512.445312 L 365.304688 480.320312 L 357.050781 480.320312 Z M 357.050781 496.390625 C 357.050781 496.980469 356.992188 497.570312 356.878906 498.148438 C 356.761719 498.730469 356.589844 499.292969 356.363281 499.839844 C 356.136719 500.386719 355.859375 500.90625 355.53125 501.402344 C 355.203125 501.894531 354.828125 502.347656 354.410156 502.765625 C 353.992188 503.1875 353.535156 503.558594 353.042969 503.886719 C 352.550781 504.21875 352.03125 504.496094 351.484375 504.722656 C 350.9375 504.949219 350.371094 505.121094 349.792969 505.234375 C 349.210938 505.351562 348.625 505.40625 348.03125 505.40625 C 347.441406 505.40625 346.851562 505.351562 346.273438 505.234375 C 345.691406 505.117188 345.128906 504.949219 344.582031 504.722656 C 344.035156 504.492188 343.515625 504.214844 343.023438 503.886719 C 342.53125 503.558594 342.074219 503.183594 341.65625 502.765625 C 341.238281 502.347656 340.863281 501.890625 340.535156 501.398438 C 340.207031 500.90625 339.925781 500.386719 339.699219 499.839844 C 339.476562 499.292969 339.304688 498.726562 339.1875 498.148438 C 339.074219 497.566406 339.015625 496.980469 339.015625 496.386719 C 339.015625 495.796875 339.074219 495.210938 339.1875 494.628906 C 339.304688 494.046875 339.476562 493.484375 339.703125 492.9375 C 339.929688 492.390625 340.207031 491.871094 340.535156 491.378906 C 340.867188 490.886719 341.238281 490.429688 341.660156 490.011719 C 342.078125 489.59375 342.535156 489.21875 343.027344 488.890625 C 343.519531 488.5625 344.039062 488.285156 344.585938 488.058594 C 345.132812 487.832031 345.695312 487.660156 346.277344 487.546875 C 346.859375 487.429688 347.445312 487.371094 348.035156 487.371094 C 348.628906 487.371094 349.214844 487.429688 349.796875 487.546875 C 350.375 487.660156 350.941406 487.832031 351.488281 488.058594 C 352.035156 488.285156 352.554688 488.5625 353.046875 488.890625 C 353.539062 489.222656 353.992188 489.59375 354.410156 490.015625 C 354.832031 490.433594 355.203125 490.886719 355.53125 491.378906 C 355.863281 491.871094 356.140625 492.394531 356.367188 492.941406 C 356.59375 493.488281 356.761719 494.050781 356.878906 494.632812 C 356.992188 495.210938 357.050781 495.796875 357.050781 496.390625 Z M 357.050781 496.390625" fill-opacity="1" fill-rule="nonzero"></path><path fill="#fff" d="M 395.101562 483.054688 C 393.703125 481.988281 392.167969 481.175781 390.5 480.617188 C 388.832031 480.0625 387.121094 479.785156 385.363281 479.796875 C 384.820312 479.796875 384.277344 479.820312 383.734375 479.875 C 383.195312 479.929688 382.65625 480.007812 382.125 480.113281 C 381.589844 480.21875 381.066406 480.351562 380.542969 480.507812 C 380.023438 480.667969 379.511719 480.851562 379.011719 481.058594 C 378.507812 481.265625 378.019531 481.5 377.539062 481.753906 C 377.058594 482.011719 376.59375 482.289062 376.140625 482.589844 C 375.691406 482.894531 375.253906 483.21875 374.835938 483.5625 C 374.414062 483.90625 374.011719 484.269531 373.628906 484.65625 C 373.242188 485.039062 372.878906 485.441406 372.535156 485.863281 C 372.1875 486.28125 371.867188 486.71875 371.5625 487.171875 C 371.261719 487.621094 370.984375 488.089844 370.726562 488.566406 C 370.46875 489.046875 370.238281 489.539062 370.03125 490.039062 C 369.820312 490.542969 369.640625 491.054688 369.480469 491.574219 C 369.324219 492.09375 369.191406 492.621094 369.085938 493.152344 C 368.980469 493.6875 368.898438 494.222656 368.847656 494.761719 C 368.792969 495.304688 368.765625 495.847656 368.765625 496.390625 C 368.765625 496.933594 368.792969 497.476562 368.847656 498.015625 C 368.898438 498.558594 368.980469 499.09375 369.085938 499.628906 C 369.191406 500.160156 369.324219 500.6875 369.480469 501.207031 C 369.640625 501.726562 369.820312 502.238281 370.03125 502.742188 C 370.238281 503.242188 370.46875 503.734375 370.726562 504.214844 C 370.984375 504.691406 371.261719 505.15625 371.5625 505.609375 C 371.867188 506.0625 372.1875 506.496094 372.535156 506.917969 C 372.878906 507.339844 373.242188 507.742188 373.628906 508.125 C 374.011719 508.507812 374.414062 508.875 374.835938 509.21875 C 375.253906 509.5625 375.691406 509.886719 376.140625 510.1875 C 376.59375 510.492188 377.058594 510.769531 377.539062 511.027344 C 378.019531 511.28125 378.507812 511.515625 379.011719 511.722656 C 379.511719 511.929688 380.023438 512.113281 380.542969 512.269531 C 381.066406 512.429688 381.589844 512.558594 382.125 512.667969 C 382.65625 512.773438 383.195312 512.851562 383.734375 512.90625 C 384.277344 512.957031 384.820312 512.984375 385.363281 512.984375 C 387.121094 512.992188 388.832031 512.71875 390.5 512.160156 C 392.167969 511.601562 393.703125 510.792969 395.101562 509.726562 L 395.101562 512.445312 L 403.355469 512.445312 L 403.355469 468.90625 L 395.101562 468.90625 Z M 386.085938 505.402344 C 385.496094 505.402344 384.910156 505.347656 384.328125 505.230469 C 383.746094 505.117188 383.183594 504.945312 382.636719 504.71875 C 382.089844 504.492188 381.570312 504.214844 381.078125 503.886719 C 380.582031 503.558594 380.128906 503.183594 379.710938 502.765625 C 379.289062 502.347656 378.917969 501.890625 378.585938 501.398438 C 378.257812 500.90625 377.980469 500.386719 377.753906 499.839844 C 377.527344 499.292969 377.355469 498.726562 377.238281 498.148438 C 377.125 497.566406 377.066406 496.980469 377.066406 496.386719 C 377.066406 495.796875 377.125 495.207031 377.238281 494.628906 C 377.355469 494.046875 377.527344 493.484375 377.753906 492.9375 C 377.980469 492.390625 378.257812 491.871094 378.585938 491.375 C 378.914062 490.882812 379.289062 490.429688 379.707031 490.011719 C 380.125 489.589844 380.582031 489.21875 381.074219 488.886719 C 381.566406 488.558594 382.085938 488.28125 382.632812 488.054688 C 383.179688 487.828125 383.746094 487.65625 384.324219 487.542969 C 384.90625 487.425781 385.492188 487.367188 386.085938 487.367188 C 386.675781 487.367188 387.265625 487.425781 387.84375 487.542969 C 388.425781 487.65625 388.988281 487.828125 389.535156 488.054688 C 390.082031 488.28125 390.601562 488.5625 391.09375 488.890625 C 391.589844 489.21875 392.042969 489.59375 392.460938 490.011719 C 392.878906 490.429688 393.253906 490.886719 393.582031 491.378906 C 393.914062 491.871094 394.191406 492.390625 394.417969 492.9375 C 394.644531 493.484375 394.8125 494.050781 394.929688 494.628906 C 395.042969 495.210938 395.101562 495.796875 395.101562 496.390625 C 395.101562 496.980469 395.042969 497.566406 394.929688 498.148438 C 394.8125 498.730469 394.640625 499.292969 394.414062 499.839844 C 394.1875 500.386719 393.910156 500.90625 393.582031 501.398438 C 393.253906 501.890625 392.878906 502.34375 392.460938 502.765625 C 392.042969 503.183594 391.585938 503.554688 391.09375 503.886719 C 390.601562 504.214844 390.082031 504.492188 389.535156 504.71875 C 388.992188 504.945312 388.425781 505.117188 387.847656 505.230469 C 387.265625 505.347656 386.679688 505.402344 386.085938 505.402344 Z M 386.085938 505.402344" fill-opacity="1" fill-rule="nonzero"></path><path fill="#fff" d="M 441.691406 480.335938 L 449.945312 480.335938 L 449.945312 512.441406 L 441.691406 512.441406 Z M 441.691406 480.335938" fill-opacity="1" fill-rule="nonzero"></path><path fill="#fff" d="M 445.816406 467.640625 C 445.488281 467.636719 445.160156 467.667969 444.835938 467.730469 C 444.507812 467.792969 444.195312 467.886719 443.886719 468.011719 C 443.582031 468.136719 443.289062 468.289062 443.015625 468.46875 C 442.738281 468.652344 442.484375 468.859375 442.246094 469.089844 C 442.011719 469.324219 441.800781 469.574219 441.617188 469.847656 C 441.429688 470.125 441.273438 470.414062 441.144531 470.714844 C 441.015625 471.019531 440.917969 471.335938 440.851562 471.660156 C 440.785156 471.984375 440.75 472.308594 440.75 472.640625 C 440.746094 472.972656 440.777344 473.296875 440.839844 473.625 C 440.902344 473.949219 440.996094 474.261719 441.117188 474.570312 C 441.242188 474.875 441.398438 475.167969 441.578125 475.441406 C 441.761719 475.71875 441.96875 475.976562 442.199219 476.210938 C 442.429688 476.445312 442.683594 476.65625 442.957031 476.839844 C 443.230469 477.027344 443.519531 477.183594 443.824219 477.3125 C 444.128906 477.441406 444.445312 477.539062 444.765625 477.605469 C 445.089844 477.671875 445.417969 477.707031 445.75 477.707031 C 446.078125 477.710938 446.40625 477.679688 446.730469 477.617188 C 447.054688 477.554688 447.371094 477.460938 447.679688 477.339844 C 447.984375 477.214844 448.273438 477.0625 448.550781 476.878906 C 448.828125 476.699219 449.082031 476.492188 449.320312 476.257812 C 449.554688 476.027344 449.765625 475.773438 449.949219 475.5 C 450.136719 475.226562 450.292969 474.9375 450.421875 474.632812 C 450.550781 474.328125 450.648438 474.015625 450.714844 473.691406 C 450.78125 473.367188 450.816406 473.039062 450.816406 472.707031 C 450.824219 472.375 450.796875 472.046875 450.738281 471.722656 C 450.679688 471.394531 450.585938 471.078125 450.464844 470.769531 C 450.339844 470.460938 450.1875 470.167969 450.007812 469.890625 C 449.828125 469.613281 449.617188 469.355469 449.386719 469.121094 C 449.152344 468.882812 448.898438 468.671875 448.625 468.488281 C 448.347656 468.300781 448.058594 468.144531 447.75 468.019531 C 447.445312 467.890625 447.128906 467.796875 446.804688 467.734375 C 446.476562 467.667969 446.148438 467.636719 445.816406 467.640625 Z M 445.816406 467.640625" fill-opacity="1" fill-rule="nonzero"></path><path fill="#fff" d="M 498.15625 479.796875 C 497.613281 479.796875 497.070312 479.820312 496.53125 479.875 C 495.988281 479.929688 495.453125 480.007812 494.917969 480.113281 C 494.386719 480.21875 493.859375 480.351562 493.339844 480.507812 C 492.820312 480.667969 492.308594 480.851562 491.808594 481.058594 C 491.304688 481.265625 490.8125 481.5 490.335938 481.753906 C 489.855469 482.011719 489.390625 482.289062 488.9375 482.589844 C 488.484375 482.894531 488.050781 483.21875 487.628906 483.5625 C 487.210938 483.90625 486.808594 484.269531 486.421875 484.65625 C 486.039062 485.039062 485.675781 485.441406 485.328125 485.863281 C 484.984375 486.28125 484.660156 486.71875 484.359375 487.171875 C 484.058594 487.621094 483.777344 488.085938 483.523438 488.566406 C 483.265625 489.046875 483.035156 489.539062 482.824219 490.039062 C 482.617188 490.542969 482.433594 491.050781 482.277344 491.574219 C 482.117188 492.09375 481.988281 492.621094 481.882812 493.152344 C 481.773438 493.6875 481.695312 494.222656 481.640625 494.761719 C 481.589844 495.304688 481.5625 495.847656 481.5625 496.390625 C 481.5625 496.933594 481.589844 497.476562 481.640625 498.015625 C 481.695312 498.558594 481.773438 499.09375 481.882812 499.628906 C 481.988281 500.160156 482.117188 500.6875 482.277344 501.207031 C 482.433594 501.726562 482.617188 502.238281 482.824219 502.742188 C 483.035156 503.242188 483.265625 503.734375 483.523438 504.214844 C 483.777344 504.691406 484.058594 505.15625 484.359375 505.609375 C 484.660156 506.0625 484.984375 506.496094 485.328125 506.917969 C 485.675781 507.339844 486.039062 507.742188 486.421875 508.125 C 486.808594 508.507812 487.210938 508.875 487.628906 509.21875 C 488.050781 509.5625 488.484375 509.886719 488.9375 510.1875 C 489.390625 510.492188 489.855469 510.769531 490.335938 511.027344 C 490.8125 511.28125 491.304688 511.515625 491.808594 511.722656 C 492.308594 511.929688 492.820312 512.113281 493.339844 512.269531 C 493.859375 512.429688 494.386719 512.558594 494.917969 512.667969 C 495.453125 512.773438 495.988281 512.851562 496.53125 512.90625 C 497.070312 512.957031 497.613281 512.984375 498.15625 512.984375 C 498.699219 512.984375 499.242188 512.957031 499.785156 512.90625 C 500.324219 512.851562 500.863281 512.773438 501.394531 512.667969 C 501.929688 512.558594 502.453125 512.429688 502.976562 512.269531 C 503.496094 512.113281 504.007812 511.929688 504.507812 511.722656 C 505.011719 511.515625 505.5 511.28125 505.980469 511.027344 C 506.460938 510.769531 506.925781 510.492188 507.378906 510.1875 C 507.828125 509.886719 508.265625 509.5625 508.683594 509.21875 C 509.105469 508.875 509.507812 508.507812 509.890625 508.125 C 510.277344 507.742188 510.640625 507.339844 510.984375 506.917969 C 511.332031 506.496094 511.652344 506.0625 511.957031 505.609375 C 512.257812 505.15625 512.535156 504.691406 512.792969 504.214844 C 513.050781 503.734375 513.28125 503.242188 513.488281 502.742188 C 513.699219 502.238281 513.878906 501.726562 514.039062 501.207031 C 514.195312 500.6875 514.328125 500.160156 514.433594 499.628906 C 514.539062 499.09375 514.621094 498.558594 514.671875 498.015625 C 514.726562 497.476562 514.753906 496.933594 514.753906 496.390625 C 514.753906 495.847656 514.726562 495.304688 514.671875 494.761719 C 514.621094 494.222656 514.539062 493.6875 514.433594 493.152344 C 514.328125 492.621094 514.195312 492.09375 514.039062 491.574219 C 513.878906 491.050781 513.699219 490.542969 513.488281 490.039062 C 513.28125 489.539062 513.050781 489.046875 512.792969 488.566406 C 512.535156 488.089844 512.257812 487.621094 511.957031 487.171875 C 511.652344 486.71875 511.332031 486.28125 510.984375 485.863281 C 510.640625 485.441406 510.277344 485.039062 509.890625 484.65625 C 509.507812 484.269531 509.105469 483.90625 508.683594 483.5625 C 508.265625 483.21875 507.828125 482.894531 507.378906 482.589844 C 506.925781 482.289062 506.460938 482.011719 505.980469 481.753906 C 505.5 481.5 505.011719 481.265625 504.507812 481.058594 C 504.007812 480.851562 503.496094 480.667969 502.976562 480.507812 C 502.453125 480.351562 501.929688 480.21875 501.394531 480.113281 C 500.863281 480.007812 500.324219 479.929688 499.785156 479.875 C 499.242188 479.820312 498.699219 479.796875 498.15625 479.796875 Z M 498.15625 505.402344 C 497.566406 505.402344 496.980469 505.347656 496.398438 505.230469 C 495.816406 505.117188 495.253906 504.945312 494.707031 504.71875 C 494.160156 504.492188 493.636719 504.214844 493.144531 503.886719 C 492.652344 503.558594 492.199219 503.183594 491.777344 502.765625 C 491.359375 502.347656 490.984375 501.890625 490.65625 501.398438 C 490.328125 500.90625 490.050781 500.386719 489.824219 499.839844 C 489.597656 499.292969 489.425781 498.726562 489.308594 498.148438 C 489.195312 497.566406 489.136719 496.980469 489.136719 496.386719 C 489.136719 495.796875 489.195312 495.207031 489.308594 494.628906 C 489.425781 494.046875 489.597656 493.484375 489.824219 492.9375 C 490.050781 492.390625 490.328125 491.871094 490.65625 491.375 C 490.984375 490.882812 491.359375 490.429688 491.777344 490.011719 C 492.195312 489.589844 492.652344 489.21875 493.144531 488.886719 C 493.636719 488.558594 494.15625 488.28125 494.703125 488.054688 C 495.25 487.828125 495.816406 487.65625 496.394531 487.542969 C 496.976562 487.425781 497.5625 487.367188 498.15625 487.367188 C 498.746094 487.367188 499.332031 487.425781 499.914062 487.542969 C 500.496094 487.65625 501.058594 487.828125 501.605469 488.054688 C 502.152344 488.28125 502.671875 488.5625 503.164062 488.890625 C 503.65625 489.21875 504.113281 489.59375 504.53125 490.011719 C 504.949219 490.429688 505.324219 490.886719 505.652344 491.378906 C 505.980469 491.871094 506.257812 492.390625 506.484375 492.9375 C 506.710938 493.484375 506.882812 494.050781 507 494.628906 C 507.113281 495.210938 507.171875 495.796875 507.171875 496.390625 C 507.171875 496.980469 507.113281 497.566406 507 498.148438 C 506.882812 498.730469 506.710938 499.292969 506.484375 499.839844 C 506.257812 500.386719 505.980469 500.90625 505.652344 501.398438 C 505.324219 501.890625 504.949219 502.34375 504.53125 502.765625 C 504.113281 503.183594 503.65625 503.554688 503.164062 503.886719 C 502.671875 504.214844 502.152344 504.492188 501.605469 504.71875 C 501.058594 504.945312 500.496094 505.117188 499.914062 505.230469 C 499.335938 505.347656 498.75 505.402344 498.15625 505.402344 Z M 498.15625 505.402344" fill-opacity="1" fill-rule="nonzero"></path><g clip-path="url(#1706434153866-6258307_4cb6b5eee0)"><path fill="#fff" d="M 262.066406 468.90625 L 230.398438 468.90625 L 230.398438 476.273438 L 242.125 476.273438 L 242.125 512.445312 L 250.347656 512.445312 L 250.347656 476.273438 L 262.066406 476.273438 Z M 262.066406 468.90625" fill-opacity="1" fill-rule="nonzero"></path></g><path fill="#fff" d="M 422.222656 503.648438 L 414.882812 480.335938 L 406.210938 480.335938 L 417.222656 512.445312 L 427.15625 512.445312 L 438.234375 480.335938 L 429.566406 480.335938 Z M 422.222656 503.648438" fill-opacity="1" fill-rule="nonzero"></path><g clip-path="url(#1706434153866-6258307_c04faec724)"><path fill="#fff" d="M 537.101562 487.992188 L 537.101562 480.335938 L 533.234375 480.335938 C 530.210938 480.335938 527.566406 481.914062 526.851562 485.730469 L 526.851562 480.335938 L 518.578125 480.335938 L 518.578125 512.460938 L 526.851562 512.460938 L 526.851562 493.191406 C 526.851562 489.703125 529.089844 487.992188 532.578125 487.992188 Z M 537.101562 487.992188" fill-opacity="1" fill-rule="nonzero"></path></g></g></svg>