<svg xmlns="http://www.w3.org/2000/svg" zoomAndPan="magnify" preserveAspectRatio="xMidYMid meet" viewBox="0 0 768 768"><title>triptease square</title><g class="nc-icon-wrapper"><defs><clipPath id="1706435205922-7186644_22c0eb38f8"><path d="M 64 77.585938 L 704 77.585938 L 704 692 L 64 692 Z M 64 77.585938" clip-rule="nonzero"></path></clipPath><clipPath id="1706435205922-7186644_6557168637"><path d="M 230.273438 77.585938 L 230.273438 691.199219 C 232.074219 691.328125 233.871094 691.328125 235.671875 691.328125 L 531.300781 691.328125 L 531.300781 77.585938 Z M 577.554688 77.585938 L 531.300781 77.585938 L 531.300781 691.199219 L 532.328125 691.199219 C 607.105469 691.199219 672.757812 630.171875 678.152344 555.65625 L 703.460938 213 C 708.988281 138.613281 652.328125 77.585938 577.554688 77.585938 Z M 190.445312 77.585938 C 115.671875 77.585938 59.011719 138.613281 64.539062 213.128906 L 89.847656 555.785156 C 95.242188 628.503906 157.941406 688.375 230.402344 691.199219 L 230.402344 77.585938 Z M 190.445312 77.585938" clip-rule="nonzero"></path></clipPath><clipPath id="1706435205922-7186644_Infinity"><path d="M 333 278 L 429 278 L 429 373 L 333 373 Z M 333 278" clip-rule="nonzero"></path></clipPath><clipPath id="1706435205922-7186644_74d641ce32"><path d="M 380.238281 278.300781 L 428.289062 326.355469 L 381.714844 372.929688 L 333.660156 324.875 Z M 380.238281 278.300781" clip-rule="nonzero"></path></clipPath><clipPath id="1706435205922-7186644_a7dc063a46"><path d="M 380.238281 278.304688 L 430.675781 328.742188 L 382.890625 376.523438 L 332.453125 326.085938 Z M 380.238281 278.304688" clip-rule="nonzero"></path></clipPath><clipPath id="1706435205922-7186644_3dd31305f0"><path d="M 380.238281 278.304688 L 428.160156 326.226562 L 381.40625 372.980469 L 333.484375 325.058594 Z M 380.238281 278.304688" clip-rule="nonzero"></path></clipPath></defs><g clip-path="url(#1706435205922-7186644_22c0eb38f8)"><g clip-path="url(#1706435205922-7186644_6557168637)"><path fill="#000" d="M 64.152344 77.585938 L 703.441406 77.585938 L 703.441406 691.199219 L 64.152344 691.199219 Z M 64.152344 77.585938" fill-opacity="1" fill-rule="nonzero"></path></g></g><g clip-path="url(#1706435205922-7186644_4e27736324)"><g clip-path="url(#1706435205922-7186644_74d641ce32)"><g clip-path="url(#1706435205922-7186644_a7dc063a46)"><g clip-path="url(#1706435205922-7186644_3dd31305f0)"><path stroke-linecap="butt" transform="scale(.52275) rotate(45 -278.955 1144.223)" fill="none" stroke-linejoin="miter" d="M 0.00245961 0.000987191 L 129.647864 0.000987191 L 129.647864 126.486629 L 0.00245961 126.486629 Z M 0.00245961 0.000987191" stroke="#fff" stroke-width="17.217" stroke-opacity="1" stroke-miterlimit="4"></path></g></g></g></g><path d="M 2.71875 -41.734375 L 36.046875 -41.734375 L 37.265625 -36.109375 L 22.265625 -36.109375 L 22.265625 0 L 16.515625 0.609375 L 16.515625 -36.109375 L 1.515625 -36.109375 Z M 2.71875 -41.734375" transform="translate(145.19 466.806)" fill="#fff" fill-opacity="1"></path><path d="M 25.578125 -17.234375 L 36.65625 0 L 30.421875 0.609375 L 19.46875 -16.328125 L 10.890625 -16.328125 L 10.890625 0 L 5.140625 0.609375 L 5.140625 -41.3125 C 8.929688 -42 13.285156 -42.34375 18.203125 -42.34375 C 23.691406 -42.34375 27.734375 -41.28125 30.328125 -39.15625 C 32.929688 -37.039062 34.234375 -33.765625 34.234375 -29.328125 C 34.234375 -22.753906 31.347656 -18.722656 25.578125 -17.234375 Z M 10.890625 -36.171875 L 10.890625 -21.953125 L 19.46875 -21.953125 C 22.582031 -21.953125 24.863281 -22.546875 26.3125 -23.734375 C 27.757812 -24.929688 28.484375 -26.796875 28.484375 -29.328125 C 28.484375 -31.828125 27.664062 -33.671875 26.03125 -34.859375 C 24.40625 -36.054688 21.878906 -36.65625 18.453125 -36.65625 C 15.910156 -36.65625 13.390625 -36.492188 10.890625 -36.171875 Z M 10.890625 -36.171875" transform="translate(207.067 466.806)" fill="#fff" fill-opacity="1"></path><path d="M 5.4375 0.609375 L 5.4375 -41.734375 L 11.1875 -42.34375 L 11.1875 0 Z M 5.4375 0.609375" transform="translate(268.036 466.806)" fill="#fff" fill-opacity="1"></path><path d="M 10.890625 0 L 5.140625 0.609375 L 5.140625 -41.3125 C 9.253906 -42 13.609375 -42.34375 18.203125 -42.34375 C 23.691406 -42.34375 27.734375 -41.28125 30.328125 -39.15625 C 32.929688 -37.039062 34.234375 -33.765625 34.234375 -29.328125 C 34.234375 -24.898438 32.953125 -21.625 30.390625 -19.5 C 27.828125 -17.382812 23.847656 -16.328125 18.453125 -16.328125 L 10.890625 -16.328125 Z M 10.890625 -36.171875 L 10.890625 -21.953125 L 18.453125 -21.953125 C 21.921875 -21.953125 24.457031 -22.546875 26.0625 -23.734375 C 27.675781 -24.929688 28.484375 -26.796875 28.484375 -29.328125 C 28.484375 -31.828125 27.664062 -33.671875 26.03125 -34.859375 C 24.40625 -36.054688 21.878906 -36.65625 18.453125 -36.65625 C 15.910156 -36.65625 13.390625 -36.492188 10.890625 -36.171875 Z M 10.890625 -36.171875" transform="translate(307.776 466.806)" fill="#fff" fill-opacity="1"></path><path d="M 2.71875 -41.734375 L 36.046875 -41.734375 L 37.265625 -36.109375 L 22.265625 -36.109375 L 22.265625 0 L 16.515625 0.609375 L 16.515625 -36.109375 L 1.515625 -36.109375 Z M 2.71875 -41.734375" transform="translate(363.618 466.806)" fill="#fff" fill-opacity="1"></path><path d="M 10.578125 -5.625 L 33.75 -5.625 L 32.546875 0 L 4.84375 0 L 4.84375 -41.734375 L 32.546875 -41.734375 L 33.75 -36.109375 L 10.578125 -36.109375 L 10.578125 -24.5 L 29.703125 -24.5 L 29.703125 -18.875 L 10.578125 -18.875 Z M 10.578125 -5.625" transform="translate(421.2 466.806)" fill="#fff" fill-opacity="1"></path><path d="M 11.1875 -9.609375 L 6.34375 0.609375 L 0.296875 0 L 20.984375 -42.34375 L 21.53125 -42.34375 L 42.28125 0 L 36.171875 0.609375 L 31.328125 -9.609375 Z M 29.09375 -14.328125 L 21.296875 -30.84375 L 13.421875 -14.328125 Z M 29.09375 -14.328125" transform="translate(477.694 466.806)" fill="#fff" fill-opacity="1"></path><path d="M 1.8125 -2.71875 L 3.875 -7.984375 C 7.457031 -6.003906 11.832031 -5.015625 17 -5.015625 C 19.738281 -5.015625 21.882812 -5.554688 23.4375 -6.640625 C 24.988281 -7.734375 25.765625 -9.226562 25.765625 -11.125 C 25.765625 -13.507812 23.003906 -15.523438 17.484375 -17.171875 C 15.785156 -17.660156 14.367188 -18.082031 13.234375 -18.4375 C 12.109375 -18.800781 10.78125 -19.359375 9.25 -20.109375 C 7.71875 -20.859375 6.488281 -21.625 5.5625 -22.40625 C 4.632812 -23.195312 3.835938 -24.21875 3.171875 -25.46875 C 2.503906 -26.71875 2.191406 -28.085938 2.234375 -29.578125 C 2.234375 -33.609375 3.535156 -36.742188 6.140625 -38.984375 C 8.742188 -41.222656 12.382812 -42.34375 17.0625 -42.34375 C 20.5625 -42.34375 24.410156 -41.535156 28.609375 -39.921875 L 26.734375 -34.65625 C 23.753906 -35.988281 20.488281 -36.65625 16.9375 -36.65625 C 14.113281 -36.65625 11.914062 -36.097656 10.34375 -34.984375 C 8.769531 -33.878906 7.984375 -32.335938 7.984375 -30.359375 C 7.984375 -27.984375 10.742188 -25.890625 16.265625 -24.078125 C 18.804688 -23.265625 21.109375 -22.457031 23.171875 -21.65625 C 25.628906 -20.769531 27.632812 -19.476562 29.1875 -17.78125 C 30.738281 -16.082031 31.515625 -14.128906 31.515625 -11.921875 C 31.515625 -7.804688 30.242188 -4.6875 27.703125 -2.5625 C 25.160156 -0.445312 21.429688 0.609375 16.515625 0.609375 C 11.671875 0.609375 6.769531 -0.5 1.8125 -2.71875 Z M 1.8125 -2.71875" transform="translate(539.087 466.806)" fill="#fff" fill-opacity="1"></path><path d="M 10.578125 -5.625 L 33.75 -5.625 L 32.546875 0 L 4.84375 0 L 4.84375 -41.734375 L 32.546875 -41.734375 L 33.75 -36.109375 L 10.578125 -36.109375 L 10.578125 -24.5 L 29.703125 -24.5 L 29.703125 -18.875 L 10.578125 -18.875 Z M 10.578125 -5.625" transform="translate(592.133 466.806)" fill="#fff" fill-opacity="1"></path><path d="M 1.875 -28.859375 L 24.921875 -28.859375 L 25.765625 -24.96875 L 15.390625 -24.96875 L 15.390625 0 L 11.421875 0.421875 L 11.421875 -24.96875 L 1.046875 -24.96875 Z M 1.875 -28.859375" transform="translate(367.27 343.09)" fill="#fff" fill-opacity="1"></path></g></svg>