<svg xmlns="http://www.w3.org/2000/svg" zoomAndPan="magnify" preserveAspectRatio="xMidYMid meet" viewBox="0 0 768 768"><title>vrbo circle</title><g class="nc-icon-wrapper"><defs><clipPath id="1706434153899-3785085_130c4207a9"><path d="M 28.625 28.625 L 739.375 28.625 L 739.375 739.375 L 28.625 739.375 Z M 28.625 28.625" clip-rule="nonzero"></path></clipPath><clipPath id="1706434153899-3785085_6758dd210d"><path d="M 384 28.625 C 187.730469 28.625 28.625 187.730469 28.625 384 C 28.625 580.269531 187.730469 739.375 384 739.375 C 580.269531 739.375 739.375 580.269531 739.375 384 C 739.375 187.730469 580.269531 28.625 384 28.625 Z M 384 28.625" clip-rule="nonzero"></path></clipPath></defs><path fill="#fff" fill-opacity="1" d="M-76.8 -76.8H844.8000000000001V844.8000000000001H-76.8z"></path><path fill="#fff" fill-opacity="1" d="M-76.8 -76.8H844.8000000000001V844.8000000000001H-76.8z"></path><g clip-path="url(#1706434153899-3785085_130c4207a9)"><g clip-path="url(#1706434153899-3785085_6758dd210d)"><path fill="#000" d="M 28.625 28.625 L 739.375 28.625 L 739.375 739.375 L 28.625 739.375 Z M 28.625 28.625" fill-opacity="1" fill-rule="nonzero"></path></g></g><path fill="#fff" d="M 570.5 358.59375 L 570.5 358.808594 C 598.261719 361.144531 606.414062 380.863281 606.019531 392.320312 C 605.375 425.507812 579.65625 452.226562 538.175781 455.496094 L 538.175781 455.675781 C 583.753906 452.945312 610.4375 429.386719 611.011719 395.625 C 610.941406 383.195312 601.890625 360.425781 570.5 358.59375 Z M 570.5 358.59375" fill-opacity="1" fill-rule="nonzero"></path><path fill="#fff" d="M 538.175781 455.101562 C 540.269531 454.960938 542.351562 454.722656 544.421875 454.390625 C 546.492188 454.058594 548.542969 453.628906 550.574219 453.105469 C 552.605469 452.582031 554.609375 451.96875 556.585938 451.257812 C 558.558594 450.550781 560.496094 449.753906 562.398438 448.863281 C 564.296875 447.976562 566.152344 447.003906 567.964844 445.941406 C 569.773438 444.882812 571.53125 443.742188 573.234375 442.519531 C 574.941406 441.296875 576.585938 439.996094 578.167969 438.621094 C 579.753906 437.246094 581.273438 435.800781 582.722656 434.285156 C 584.171875 432.769531 585.550781 431.191406 586.855469 429.550781 C 588.160156 427.90625 589.382812 426.207031 590.53125 424.449219 C 591.679688 422.691406 592.742188 420.886719 593.71875 419.03125 C 594.699219 417.175781 595.59375 415.28125 596.394531 413.34375 C 597.199219 411.40625 597.914062 409.433594 598.535156 407.433594 C 599.15625 405.429688 599.683594 403.398438 600.117188 401.347656 C 600.550781 399.296875 600.886719 397.226562 601.128906 395.144531 C 601.371094 393.058594 601.519531 390.96875 601.566406 388.871094 C 601.566406 378.382812 594.382812 361.144531 570.25 359.207031 L 570.25 359.386719 C 590.21875 361.503906 597.257812 376.050781 597.113281 385.566406 C 596.539062 417.570312 571.722656 451.472656 538.390625 454.886719 Z M 538.175781 455.101562" fill-opacity="1" fill-rule="nonzero"></path><path fill="#fff" d="M 538.460938 454.492188 C 567.949219 451.4375 591.691406 413.511719 592.335938 382.082031 C 592.335938 373.570312 586.914062 361.683594 570.070312 359.78125 L 570.070312 359.996094 C 583.320312 362.007812 588.027344 371.238281 588.027344 378.816406 C 587.488281 409.59375 564.359375 450.898438 538.964844 454.238281 Z M 538.460938 454.492188" fill-opacity="1" fill-rule="nonzero"></path><path fill="#fff" d="M 538.859375 453.664062 L 538.859375 453.914062 C 560.40625 450.789062 582.640625 405.5 583.179688 375.332031 C 583.214844 374.40625 583.164062 373.484375 583.019531 372.566406 C 582.878906 371.652344 582.652344 370.757812 582.335938 369.886719 C 582.023438 369.015625 581.628906 368.179688 581.152344 367.386719 C 580.675781 366.589844 580.128906 365.847656 579.507812 365.15625 C 578.886719 364.46875 578.207031 363.84375 577.46875 363.285156 C 576.726562 362.730469 575.941406 362.246094 575.105469 361.839844 C 574.273438 361.4375 573.410156 361.113281 572.511719 360.875 C 571.617188 360.636719 570.707031 360.488281 569.78125 360.425781 L 569.78125 360.640625 C 570.433594 360.75 571.070312 360.921875 571.691406 361.152344 C 572.308594 361.378906 572.902344 361.664062 573.46875 362.007812 C 574.035156 362.347656 574.566406 362.738281 575.058594 363.179688 C 575.550781 363.621094 575.996094 364.105469 576.398438 364.628906 C 576.800781 365.15625 577.148438 365.714844 577.445312 366.304688 C 577.742188 366.894531 577.980469 367.511719 578.160156 368.144531 C 578.339844 368.78125 578.460938 369.429688 578.519531 370.089844 C 578.578125 370.746094 578.574219 371.40625 578.507812 372.0625 C 577.683594 401.550781 556.132812 450.46875 538.859375 453.664062 Z M 525.316406 441.957031 C 525.820312 413.582031 548.195312 363.730469 564.824219 360.355469 L 564.824219 360.101562 C 543.992188 363.191406 520.972656 409.273438 520.433594 438.507812 C 520.363281 439.449219 520.386719 440.386719 520.503906 441.324219 C 520.621094 442.261719 520.832031 443.179688 521.132812 444.074219 C 521.433594 444.96875 521.820312 445.824219 522.296875 446.640625 C 522.769531 447.457031 523.320312 448.21875 523.945312 448.925781 C 524.570312 449.632812 525.261719 450.269531 526.015625 450.839844 C 526.769531 451.40625 527.574219 451.894531 528.425781 452.300781 C 529.277344 452.707031 530.160156 453.027344 531.078125 453.253906 C 531.992188 453.484375 532.921875 453.621094 533.867188 453.664062 L 533.867188 453.449219 C 533.207031 453.355469 532.5625 453.199219 531.933594 452.980469 C 531.304688 452.761719 530.703125 452.480469 530.128906 452.140625 C 529.554688 451.800781 529.019531 451.40625 528.527344 450.960938 C 528.03125 450.515625 527.585938 450.023438 527.1875 449.492188 C 526.789062 448.957031 526.449219 448.386719 526.164062 447.785156 C 525.878906 447.183594 525.65625 446.558594 525.496094 445.910156 C 525.335938 445.265625 525.238281 444.609375 525.210938 443.941406 C 525.179688 443.277344 525.214844 442.613281 525.316406 441.957031 Z M 525.316406 441.957031" fill-opacity="1" fill-rule="nonzero"></path><path fill="#fff" d="M 516.160156 435.203125 C 516.699219 405.214844 540.796875 363.121094 565.292969 359.78125 L 565.292969 359.566406 C 536.558594 362.617188 512.027344 401.121094 511.417969 431.753906 C 511.417969 440.304688 517.019531 452.945312 533.6875 454.3125 L 533.6875 454.09375 C 520.683594 452.40625 516.015625 442.78125 516.160156 435.203125 Z M 516.160156 435.203125" fill-opacity="1" fill-rule="nonzero"></path><path fill="#fff" d="M 507 428.453125 C 507.539062 397.023438 533.148438 362.546875 565.578125 359.132812 L 565.578125 358.917969 C 563.503906 359.09375 561.4375 359.359375 559.382812 359.722656 C 557.332031 360.082031 555.300781 360.535156 553.289062 361.082031 C 551.277344 361.625 549.292969 362.261719 547.339844 362.984375 C 545.382812 363.707031 543.46875 364.519531 541.585938 365.417969 C 539.703125 366.316406 537.867188 367.296875 536.074219 368.359375 C 534.28125 369.421875 532.542969 370.5625 530.851562 371.785156 C 529.164062 373.007812 527.53125 374.300781 525.960938 375.667969 C 524.386719 377.039062 522.882812 378.472656 521.4375 379.976562 C 519.996094 381.484375 518.625 383.050781 517.324219 384.679688 C 516.023438 386.304688 514.800781 387.988281 513.648438 389.730469 C 512.5 391.46875 511.433594 393.257812 510.445312 395.089844 C 509.460938 396.925781 508.558594 398.804688 507.742188 400.722656 C 506.921875 402.636719 506.195312 404.589844 505.554688 406.570312 C 504.910156 408.554688 504.363281 410.5625 503.902344 412.597656 C 503.441406 414.628906 503.074219 416.679688 502.800781 418.746094 C 502.527344 420.8125 502.347656 422.886719 502.257812 424.96875 C 502.257812 435.453125 509.441406 453.269531 533.613281 454.847656 L 533.613281 454.632812 C 512.78125 452.765625 506.855469 437.859375 507 428.453125 Z M 507 428.453125" fill-opacity="1" fill-rule="nonzero"></path><path fill="#fff" d="M 497.839844 421.699219 C 498.417969 388.691406 526.863281 361.683594 565.867188 358.558594 L 565.867188 358.34375 C 522.191406 361.035156 493.605469 384.597656 493.027344 418.214844 C 492.777344 430.640625 501.863281 453.628906 533.21875 455.425781 C 505.851562 453.269531 497.664062 433.15625 497.839844 421.699219 Z M 475.644531 359.0625 C 460.597656 357.015625 442.421875 365.851562 432.1875 381.367188 L 432.367188 381.617188 C 442.0625 367.679688 458.441406 359.386719 471.875 361.253906 C 480.925781 362.472656 487.140625 369.332031 485.882812 382.800781 C 482.683594 417.101562 453.773438 455.640625 407.511719 455.53125 L 407.511719 455.78125 C 408.789062 455.832031 410.0625 455.851562 411.339844 455.839844 C 412.613281 455.828125 413.890625 455.789062 415.164062 455.71875 C 416.4375 455.644531 417.707031 455.546875 418.976562 455.414062 C 420.246094 455.285156 421.511719 455.121094 422.769531 454.933594 C 424.03125 454.742188 425.289062 454.523438 426.539062 454.273438 C 427.789062 454.023438 429.035156 453.742188 430.273438 453.433594 C 431.511719 453.128906 432.742188 452.789062 433.960938 452.425781 C 435.183594 452.058594 436.398438 451.664062 437.601562 451.238281 C 438.804688 450.816406 439.996094 450.367188 441.179688 449.886719 C 442.359375 449.40625 443.53125 448.898438 444.6875 448.367188 C 445.847656 447.832031 446.992188 447.269531 448.125 446.679688 C 449.257812 446.09375 450.375 445.476562 451.476562 444.835938 C 452.578125 444.195312 453.667969 443.53125 454.738281 442.835938 C 455.808594 442.144531 456.863281 441.429688 457.902344 440.6875 C 458.941406 439.945312 459.960938 439.179688 460.960938 438.390625 C 461.960938 437.601562 462.945312 436.785156 463.910156 435.949219 C 464.871094 435.113281 465.816406 434.257812 466.738281 433.375 C 467.660156 432.496094 468.5625 431.59375 469.445312 430.671875 C 470.324219 429.746094 471.183594 428.804688 472.019531 427.839844 C 472.855469 426.878906 473.667969 425.894531 474.457031 424.894531 C 475.246094 423.890625 476.011719 422.871094 476.753906 421.835938 C 477.496094 420.796875 478.214844 419.742188 478.90625 418.671875 C 479.597656 417.597656 480.265625 416.511719 480.90625 415.410156 C 481.546875 414.308594 482.160156 413.1875 482.75 412.058594 C 483.339844 410.925781 483.898438 409.78125 484.433594 408.621094 C 484.96875 407.464844 485.476562 406.292969 485.957031 405.113281 C 486.433594 403.929688 486.886719 402.738281 487.308594 401.535156 C 487.734375 400.332031 488.128906 399.117188 488.492188 397.894531 C 488.859375 396.675781 489.195312 395.445312 489.503906 394.207031 C 489.8125 392.96875 490.09375 391.722656 490.34375 390.472656 C 490.589844 389.222656 490.8125 387.964844 491.003906 386.707031 C 491.191406 385.445312 491.355469 384.179688 491.484375 382.910156 C 492.742188 368.039062 485.847656 360.460938 475.644531 359.0625 Z M 475.644531 359.0625" fill-opacity="1" fill-rule="nonzero"></path><path fill="#fff" d="M 480.457031 382.660156 C 481.570312 370.84375 476.292969 364.699219 467.996094 363.585938 C 456.035156 361.972656 441.488281 369.261719 432.691406 382.082031 L 432.871094 382.300781 C 440.949219 371.238281 453.878906 364.339844 464.261719 365.777344 C 471.445312 366.746094 476.183594 372.136719 475.035156 382.550781 C 472.269531 412.074219 444.113281 452.660156 407.65625 454.921875 C 448.386719 454.886719 477.441406 414.839844 480.457031 382.660156 Z M 480.457031 382.660156" fill-opacity="1" fill-rule="nonzero"></path><path fill="#fff" d="M 408.160156 454.203125 L 408.160156 454.417969 C 442.101562 450.359375 467.242188 409.128906 469.933594 382.40625 C 470.726562 373.644531 466.703125 368.972656 460.703125 368.039062 C 451.652344 366.785156 440.375 372.890625 433.410156 382.660156 L 433.410156 382.875 C 440.054688 374.289062 449.320312 369.191406 456.644531 370.195312 C 461.816406 370.914062 464.980469 374.828125 464.296875 381.976562 C 462.035156 406.328125 438.941406 447.773438 408.160156 454.203125 Z M 408.160156 454.203125" fill-opacity="1" fill-rule="nonzero"></path><path fill="#fff" d="M 408.554688 453.375 L 408.554688 453.699219 C 433.695312 446.949219 457.003906 403.417969 458.835938 381.867188 C 459.339844 376.375 456.898438 373.140625 452.875 372.601562 C 446.878906 371.777344 439.261719 376.195312 433.695312 383.375 L 433.695312 383.59375 C 438.328125 378.0625 444.472656 374.144531 448.960938 374.757812 C 451.871094 375.152344 453.773438 377.703125 453.378906 381.761719 C 451.976562 400.582031 430.425781 444.039062 408.554688 453.375 Z M 404.605469 428.917969 C 401.921875 434.804688 400.027344 440.933594 398.929688 447.308594 C 398.949219 447.90625 399.042969 448.492188 399.214844 449.066406 C 399.390625 449.644531 399.632812 450.183594 399.949219 450.695312 C 400.265625 451.207031 400.640625 451.667969 401.074219 452.078125 C 401.511719 452.492188 401.992188 452.839844 402.519531 453.125 C 402.867188 453.300781 403.226562 453.445312 403.597656 453.554688 L 403.597656 453.234375 C 403.082031 452.730469 402.714844 452.136719 402.496094 451.449219 C 402.28125 450.761719 402.242188 450.0625 402.378906 449.355469 C 403.867188 442.894531 406.035156 436.667969 408.878906 430.679688 L 455.570312 312.15625 L 448.996094 313.449219 C 449.355469 314.957031 436.75 345.953125 436.246094 347.496094 Z M 404.605469 428.917969" fill-opacity="1" fill-rule="nonzero"></path><path fill="#fff" d="M 396.019531 425.21875 C 393.640625 430.925781 391.9375 436.828125 390.921875 442.925781 C 390.34375 449.425781 396.019531 452.945312 403.632812 454.09375 L 403.632812 453.878906 C 398.425781 452.945312 394.402344 450.289062 394.871094 445.261719 C 396.070312 439.085938 397.890625 433.097656 400.332031 427.300781 L 431.433594 347.28125 C 432.1875 345.164062 444.003906 316.574219 442.207031 314.742188 L 435.816406 316.035156 L 435.816406 316.394531 C 436.066406 323.359375 427.984375 342.433594 426.332031 346.921875 Z M 396.019531 425.21875" fill-opacity="1" fill-rule="nonzero"></path><path fill="#fff" d="M 416.636719 346.527344 L 387.328125 421.554688 C 384.976562 426.863281 383.324219 432.382812 382.371094 438.113281 C 381.582031 447.269531 389.089844 453.59375 403.132812 454.5625 C 400.226562 454.242188 397.402344 453.582031 394.65625 452.585938 C 394.019531 452.433594 393.402344 452.222656 392.804688 451.953125 C 392.207031 451.6875 391.636719 451.367188 391.097656 450.996094 C 390.558594 450.628906 390.054688 450.210938 389.59375 449.75 C 389.128906 449.285156 388.710938 448.785156 388.335938 448.246094 C 387.964844 447.710938 387.644531 447.140625 387.375 446.542969 C 387.105469 445.949219 386.894531 445.332031 386.734375 444.695312 C 386.578125 444.058594 386.480469 443.414062 386.441406 442.761719 C 386.402344 442.109375 386.421875 441.457031 386.503906 440.804688 C 387.519531 434.816406 389.269531 429.042969 391.746094 423.496094 L 421.628906 346.707031 C 423.136719 342.648438 431.683594 323.253906 429.636719 317.328125 L 423.460938 318.546875 L 423.460938 318.90625 C 426.835938 323.539062 418.609375 341.5 416.636719 346.527344 Z M 416.636719 346.527344" fill-opacity="1" fill-rule="nonzero"></path><path fill="#fff" d="M 406.003906 348.070312 L 378.925781 417.890625 C 376.679688 422.875 375.167969 428.070312 374.398438 433.480469 C 373.429688 444.9375 383.378906 454.3125 403.132812 455.027344 C 386.574219 454.09375 377.558594 446.265625 378.457031 435.921875 C 379.292969 430.363281 380.871094 425.023438 383.199219 419.902344 L 411.175781 348.070312 C 413.691406 341.5 421.125 325.371094 417.101562 319.984375 L 410.746094 321.277344 L 410.746094 321.636719 C 415.054688 327.5625 408.878906 340.886719 406.003906 348.070312 Z M 406.003906 348.070312" fill-opacity="1" fill-rule="nonzero"></path><path fill="#fff" d="M 402.84375 455.460938 C 380.539062 454.492188 369.296875 443.609375 370.519531 430.964844 C 371.1875 425.886719 372.554688 421 374.613281 416.3125 L 400.4375 349.578125 C 403.671875 341.246094 409.703125 328.675781 404.964844 322.464844 L 399.109375 323.683594 L 399.109375 324.042969 C 404.101562 329.648438 399.46875 338.839844 396.054688 348.144531 L 370.339844 414.230469 C 368.253906 418.808594 366.925781 423.59375 366.355469 428.59375 C 365.132812 442.351562 377.378906 454.8125 402.773438 455.566406 Z M 373.464844 371.34375 C 373 362.472656 367.753906 358.414062 361.398438 358.414062 C 349.832031 358.414062 339.847656 367.539062 333.5625 379.964844 L 333.5625 375.582031 C 333.058594 365.921875 326.378906 358.414062 314.492188 358.414062 C 289.351562 358.414062 276.960938 374.972656 272.828125 393.71875 L 273.042969 393.71875 C 277.425781 376.15625 289.132812 360.320312 311.726562 360.320312 C 312.265625 360.269531 312.804688 360.25 313.347656 360.257812 C 313.886719 360.265625 314.425781 360.300781 314.964844 360.363281 C 315.503906 360.425781 316.035156 360.515625 316.566406 360.632812 C 317.09375 360.753906 317.613281 360.898438 318.128906 361.066406 C 318.640625 361.238281 319.144531 361.4375 319.636719 361.660156 C 320.132812 361.882812 320.613281 362.128906 321.082031 362.402344 C 321.546875 362.675781 322 362.972656 322.4375 363.289062 C 322.875 363.609375 323.296875 363.949219 323.699219 364.3125 C 324.101562 364.675781 324.484375 365.054688 324.847656 365.457031 C 325.210938 365.859375 325.550781 366.277344 325.871094 366.714844 C 326.191406 367.152344 326.488281 367.601562 326.761719 368.070312 C 327.035156 368.539062 327.285156 369.015625 327.511719 369.511719 C 327.734375 370.003906 327.933594 370.507812 328.105469 371.019531 C 328.277344 371.53125 328.425781 372.054688 328.542969 372.582031 C 328.664062 373.109375 328.753906 373.640625 328.820312 374.179688 C 328.882812 374.71875 328.921875 375.257812 328.929688 375.796875 C 329.539062 387.183594 325.769531 396.054688 321.746094 406.292969 L 303.429688 454.167969 L 308.3125 454.167969 L 326.628906 406.6875 C 327.851562 403.417969 329 400.363281 330.042969 397.417969 C 333.632812 389.878906 338.125 382.15625 340.457031 382.15625 C 342.183594 382.15625 342.722656 383.628906 342.828125 384.957031 C 342.839844 388.53125 342.382812 392.042969 341.464844 395.496094 C 340.542969 398.953125 339.191406 402.226562 337.40625 405.320312 L 337.621094 405.535156 C 340.40625 402.394531 342.609375 398.886719 344.226562 395.007812 C 345.84375 391.132812 346.792969 387.101562 347.066406 382.910156 C 347.066406 380.433594 345.847656 378.671875 343.476562 378.671875 C 339.558594 378.671875 334.566406 386.71875 330.90625 395.230469 C 331.335938 393.863281 331.695312 392.5 332.054688 391.171875 C 335.96875 382.660156 341.390625 375.402344 346.421875 375.402344 C 349.507812 375.402344 351.375 377.523438 351.554688 381.007812 C 351.988281 389.484375 344.375 401.835938 337.980469 405.894531 L 338.195312 406.113281 C 346.886719 402.234375 356.441406 389.484375 355.902344 379.066406 C 355.652344 374.433594 353.207031 371.882812 349.328125 371.882812 C 342.9375 371.882812 336.757812 379.316406 332.484375 388.511719 C 332.484375 387.792969 332.773438 387.074219 332.878906 386.320312 C 337.65625 376.445312 344.660156 368.617188 352.453125 368.617188 C 356.691406 368.617188 359.925781 371.488281 360.210938 377.089844 C 360.894531 389.445312 349.222656 402.589844 338.664062 406.433594 L 338.878906 406.648438 C 351.84375 403.347656 365.382812 389.445312 364.628906 375.152344 C 364.269531 368.398438 360.425781 365.132812 355.433594 365.132812 C 346.457031 365.167969 338.445312 373.210938 333.453125 383.988281 L 333.453125 382.226562 C 339.164062 370.664062 348.179688 361.898438 358.597656 361.898438 C 364.199219 361.898438 368.832031 365.492188 369.371094 373.320312 C 370.234375 389.734375 355.003906 403.632812 339.488281 407.117188 L 339.703125 407.296875 C 357.660156 404.566406 374.433594 389.699219 373.464844 371.34375 Z M 373.464844 371.34375" fill-opacity="1" fill-rule="nonzero"></path><path fill="#fff" d="M 324.441406 376.15625 C 324.429688 375.671875 324.398438 375.183594 324.339844 374.703125 C 324.28125 374.21875 324.199219 373.738281 324.09375 373.261719 C 323.988281 372.789062 323.855469 372.320312 323.703125 371.855469 C 323.546875 371.394531 323.371094 370.941406 323.171875 370.496094 C 322.96875 370.054688 322.746094 369.621094 322.503906 369.199219 C 322.257812 368.777344 321.992188 368.371094 321.707031 367.976562 C 321.421875 367.582031 321.117188 367.203125 320.792969 366.839844 C 320.46875 366.476562 320.125 366.128906 319.765625 365.800781 C 319.40625 365.472656 319.03125 365.164062 318.640625 364.871094 C 318.25 364.582031 317.84375 364.3125 317.425781 364.0625 C 317.007812 363.8125 316.578125 363.585938 316.136719 363.382812 C 315.695312 363.175781 315.242188 362.992188 314.78125 362.832031 C 314.324219 362.675781 313.855469 362.539062 313.382812 362.425781 C 312.90625 362.3125 312.429688 362.226562 311.945312 362.164062 C 311.464844 362.097656 310.976562 362.0625 310.492188 362.046875 C 310.003906 362.03125 309.519531 362.042969 309.03125 362.078125 C 288.992188 362.078125 277.460938 376.984375 273.402344 393.71875 L 273.65625 393.71875 C 278.109375 378.132812 288.308594 364.019531 306.230469 364.019531 C 306.660156 363.976562 307.089844 363.960938 307.519531 363.964844 C 307.949219 363.96875 308.378906 363.996094 308.808594 364.046875 C 309.234375 364.097656 309.660156 364.167969 310.078125 364.261719 C 310.5 364.355469 310.914062 364.46875 311.324219 364.605469 C 311.730469 364.742188 312.132812 364.902344 312.523438 365.078125 C 312.914062 365.257812 313.296875 365.457031 313.667969 365.671875 C 314.039062 365.890625 314.398438 366.128906 314.746094 366.382812 C 315.09375 366.636719 315.425781 366.910156 315.742188 367.199219 C 316.0625 367.492188 316.363281 367.796875 316.652344 368.117188 C 316.9375 368.4375 317.207031 368.773438 317.460938 369.125 C 317.710938 369.472656 317.945312 369.835938 318.160156 370.207031 C 318.375 370.582031 318.566406 370.964844 318.742188 371.359375 C 318.917969 371.753906 319.070312 372.15625 319.203125 372.5625 C 319.335938 372.972656 319.445312 373.390625 319.535156 373.8125 C 319.625 374.230469 319.691406 374.65625 319.738281 375.085938 C 319.78125 375.511719 319.804688 375.941406 319.808594 376.375 C 320.308594 385.820312 315.855469 396.234375 312.300781 405.714844 L 293.410156 454.167969 L 298.4375 454.167969 L 316.933594 406.113281 C 320.882812 396.234375 324.980469 386.394531 324.441406 376.15625 Z M 324.441406 376.15625" fill-opacity="1" fill-rule="nonzero"></path><path fill="#fff" d="M 315.496094 376.554688 C 315.5 375.800781 315.425781 375.058594 315.273438 374.320312 C 315.121094 373.585938 314.894531 372.871094 314.59375 372.183594 C 314.289062 371.496094 313.921875 370.84375 313.484375 370.234375 C 313.046875 369.621094 312.550781 369.0625 311.992188 368.554688 C 311.4375 368.046875 310.839844 367.601562 310.191406 367.222656 C 309.542969 366.839844 308.863281 366.53125 308.148438 366.289062 C 307.4375 366.050781 306.707031 365.886719 305.960938 365.800781 C 305.210938 365.714844 304.464844 365.707031 303.714844 365.777344 C 287.984375 365.777344 278.359375 379.355469 274.195312 393.757812 L 274.410156 393.757812 C 278.828125 380.359375 287.878906 367.71875 300.949219 367.71875 C 301.578125 367.671875 302.199219 367.691406 302.824219 367.777344 C 303.445312 367.859375 304.050781 368.003906 304.644531 368.214844 C 305.234375 368.421875 305.800781 368.6875 306.335938 369.011719 C 306.875 369.332031 307.375 369.707031 307.835938 370.132812 C 308.296875 370.558594 308.710938 371.027344 309.074219 371.539062 C 309.441406 372.046875 309.75 372.589844 310.003906 373.164062 C 310.257812 373.738281 310.453125 374.332031 310.582031 374.945312 C 310.714844 375.554688 310.785156 376.175781 310.792969 376.804688 C 311.1875 384.3125 306.015625 396.484375 302.601562 405 L 283.171875 454.167969 L 288.378906 454.167969 L 307.453125 405.320312 C 310.828125 396.449219 315.855469 385.246094 315.496094 376.554688 Z M 315.496094 376.554688" fill-opacity="1" fill-rule="nonzero"></path><path fill="#fff" d="M 306.339844 377.128906 C 306.34375 376.605469 306.292969 376.089844 306.191406 375.582031 C 306.085938 375.070312 305.933594 374.578125 305.726562 374.101562 C 305.519531 373.621094 305.265625 373.171875 304.964844 372.746094 C 304.664062 372.320312 304.324219 371.933594 303.941406 371.578125 C 303.558594 371.226562 303.144531 370.914062 302.695312 370.648438 C 302.25 370.382812 301.78125 370.164062 301.289062 369.996094 C 300.796875 369.828125 300.289062 369.710938 299.773438 369.648438 C 299.257812 369.585938 298.738281 369.574219 298.222656 369.621094 C 287.445312 369.621094 278.863281 381.328125 274.769531 393.71875 L 275.019531 393.71875 C 279.292969 382.660156 286.621094 371.523438 295.417969 371.523438 C 295.824219 371.476562 296.226562 371.472656 296.632812 371.515625 C 297.039062 371.554688 297.433594 371.640625 297.820312 371.765625 C 298.207031 371.890625 298.578125 372.058594 298.925781 372.265625 C 299.277344 372.46875 299.601562 372.710938 299.902344 372.988281 C 300.199219 373.265625 300.464844 373.570312 300.699219 373.902344 C 300.929688 374.238281 301.125 374.59375 301.28125 374.96875 C 301.4375 375.34375 301.550781 375.730469 301.621094 376.132812 C 301.691406 376.53125 301.722656 376.9375 301.707031 377.34375 C 302.027344 383.304688 295.996094 396.84375 293.121094 404.351562 L 273.152344 454.167969 L 278.144531 454.167969 L 297.753906 404.746094 C 301.128906 396.84375 306.699219 383.988281 306.339844 377.128906 Z M 306.339844 377.128906" fill-opacity="1" fill-rule="nonzero"></path><path fill="#fff" d="M 297.289062 377.703125 C 297.316406 377.402344 297.308594 377.101562 297.269531 376.804688 C 297.234375 376.503906 297.164062 376.214844 297.058594 375.929688 C 296.957031 375.648438 296.828125 375.378906 296.664062 375.121094 C 296.503906 374.867188 296.320312 374.632812 296.105469 374.421875 C 295.894531 374.207031 295.660156 374.019531 295.40625 373.855469 C 295.15625 373.691406 294.886719 373.558594 294.605469 373.453125 C 294.320312 373.351562 294.03125 373.277344 293.730469 373.238281 C 293.433594 373.195312 293.132812 373.1875 292.832031 373.210938 C 286.476562 373.210938 279.617188 383.234375 275.488281 393.648438 L 275.738281 393.648438 C 279.902344 384.382812 286.332031 375.117188 290.105469 375.117188 C 291.648438 375.117188 292.652344 375.90625 292.761719 377.847656 C 292.976562 381.902344 286.226562 397.132812 283.496094 403.707031 L 263.167969 453.988281 L 268.195312 453.988281 L 288.34375 403.992188 C 291.183594 397.023438 297.539062 382.550781 297.289062 377.703125 Z M 242.371094 420.335938 L 245.605469 413.546875 L 234.648438 357.660156 C 231.597656 341.929688 235.261719 335.070312 247.617188 332.699219 L 247.617188 332.484375 L 236.195312 332.484375 C 232.890625 334.136719 225.886719 339.09375 229.800781 357.625 Z M 242.371094 420.335938" fill-opacity="1" fill-rule="nonzero"></path><path fill="#fff" d="M 235.90625 433.839844 L 239.105469 427.085938 L 224.738281 357.300781 C 222.042969 343.761719 223.191406 336.722656 227.683594 332.699219 L 227.683594 332.484375 L 219.925781 332.484375 C 217.554688 337.546875 216.835938 342.613281 219.566406 356.007812 Z M 229.296875 447.308594 L 232.496094 440.625 L 214.539062 355.828125 C 211.375 342.648438 212.09375 336.613281 213.386719 332.484375 L 206.527344 332.484375 C 206.457031 339.648438 207.367188 346.691406 209.257812 353.601562 Z M 200.242188 332.484375 L 192.160156 332.484375 L 192.160156 332.699219 C 195.753906 337.082031 196.832031 342.433594 199.703125 354.25 L 221.253906 454.203125 L 226.101562 454.203125 L 204.550781 353.925781 C 202.6875 346.863281 201.253906 339.71875 200.242188 332.484375 Z M 184.082031 332.484375 L 175.425781 332.484375 L 175.425781 332.699219 C 183.328125 335.824219 187.207031 341.820312 190.328125 355.863281 L 211.628906 454.167969 L 216.476562 454.167969 L 195.035156 355.253906 C 191.335938 338.085938 187.457031 334.925781 184.082031 332.484375 Z M 294.199219 332.484375 C 284 338.445312 277.929688 349.472656 265.214844 376.804688 L 265.539062 376.984375 C 280.226562 349.472656 288.597656 338.519531 307.558594 332.808594 L 307.558594 332.484375 Z M 264.496094 376.265625 L 264.820312 376.480469 C 276.886719 348.070312 280.046875 340.132812 284.96875 332.699219 L 284.96875 332.484375 L 275.199219 332.484375 L 275.199219 332.769531 C 276.203125 344.15625 272.398438 354.644531 264.496094 376.265625 Z M 264.496094 376.265625" fill-opacity="1" fill-rule="nonzero"></path><path fill="#fff" d="M 263.851562 375.835938 L 264.171875 376.050781 C 271.824219 350.585938 274.300781 339.34375 267.550781 332.484375 L 258.03125 332.484375 L 258.03125 332.699219 C 268.804688 336.507812 271.03125 347.390625 263.851562 375.835938 Z M 613.597656 365.167969 L 613.597656 370.015625 L 612.878906 370.015625 L 612.878906 365.167969 L 610.796875 365.167969 L 610.796875 364.484375 L 615.753906 364.484375 L 615.753906 365.167969 Z M 621.859375 370.015625 L 621.859375 365.3125 L 620.136719 369.945312 L 619.308594 369.945312 L 617.765625 365.3125 L 617.765625 370.015625 L 617.082031 370.015625 L 617.296875 364.484375 L 618.554688 364.484375 L 619.992188 369.117188 L 621.644531 364.484375 L 622.792969 364.484375 L 623.007812 370.015625 Z M 621.859375 370.015625" fill-opacity="1" fill-rule="nonzero"></path></g></svg>