<svg viewBox="0 0 512 512" xmlns="http://www.w3.org/2000/svg"><g><path d="M211 160.736h30v30h-30Z"/><path d="M452 392c-27.906 0-51.424 19.151-58.101 45h-79.797c-5.439-21.053-22.048-37.663-43.101-43.101v-72.427h140.5c55.416 0 100.5-45.084 100.5-100.5 0-46.62-31.89-86.475-76.025-97.479 -6.082-69.113-64.284-123.493-134.948-123.493 -33.882 0-65.69 12.264-90.582 34.732 -9.662-2.869-19.677-4.318-29.889-4.318 -53.866 0-98.394 40.747-104.374 93.039 -44.217 10.947-76.183 50.842-76.183 97.518 0 55.416 45.084 100.5 100.5 100.5H241v72.427c-21.053 5.439-37.663 22.048-43.101 43.101h-79.797c-6.677-25.849-30.195-45-58.101-45 -33.084 0-60 26.916-60 60s26.916 60 60 60c27.906 0 51.424-19.151 58.101-45h79.797c6.677 25.849 30.195 45 58.101 45 27.906 0 51.424-19.151 58.101-45h79.797c6.677 25.849 30.195 45 58.101 45 33.084 0 60-26.916 60-60C511.999 418.915 485.084 392 452 392ZM211 220.736v30h-30v-120h90v120h-30v-30Zm90-90h30v120h-30Z"/></g></svg>