<svg viewBox="0 0 512 512" xmlns="http://www.w3.org/2000/svg"><g><path d="M181 250.736h30v-30h30v30h30v-120h-90Zm60-90v30h-30v-30Z"/><path d="M301 130.736h30v120h-30Z"/><path d="M452 392c-27.906 0-51.424 19.151-58.101 45h-79.797c-5.439-21.053-22.048-37.663-43.101-43.101v-72.427h140.5c55.416 0 100.5-45.084 100.5-100.5 0-46.62-31.89-86.475-76.025-97.479 -6.082-69.113-64.284-123.493-134.948-123.493 -33.882 0-65.69 12.264-90.582 34.732 -9.662-2.869-19.677-4.318-29.889-4.318 -53.866 0-98.394 40.747-104.374 93.039 -44.217 10.947-76.183 50.842-76.183 97.518 0 55.416 45.084 100.5 100.5 100.5H241v72.427c-21.053 5.439-37.663 22.048-43.101 43.101h-79.797c-6.677-25.849-30.195-45-58.101-45 -33.084 0-60 26.916-60 60s26.916 60 60 60c27.906 0 51.424-19.151 58.101-45h79.797c6.677 25.849 30.195 45 58.101 45 27.906 0 51.424-19.151 58.101-45h79.797c6.677 25.849 30.195 45 58.101 45 33.084 0 60-26.916 60-60C511.999 418.915 485.084 392 452 392ZM30 220.971c-1e-07-35.773 26.759-65.867 62.243-70l13.396-1.561 -.132-13.485 -.007-.455c0-41.387 33.671-75.058 75.058-75.058 9.702 0 19.146 1.826 28.066 5.426l9.394 3.791 7.025-7.297C245.117 41.483 272.104 30 301.028 30c58.157 0 105.472 47.314 105.471 105.519l-.072 13.9 13.33 1.553c35.484 4.133 62.243 34.227 62.243 70 0 38.874-31.626 70.5-70.5 70.5h-311c-38.874-.001-70.5-31.627-70.5-70.501ZM60 482c-16.542 0-30-13.458-30-30s13.458-30 30-30 30 13.458 30 30 -13.458 30-30 30Zm196 0c-16.542 0-30-13.458-30-30s13.458-30 30-30 30 13.458 30 30 -13.458 30-30 30Zm196 0c-16.542 0-30-13.458-30-30s13.458-30 30-30 30 13.458 30 30 -13.458 30-30 30Z"/></g></svg>