<?xml version="1.0" encoding="iso-8859-1"?>
<!-- Generator: Adobe Illustrator 19.0.0, SVG Export Plug-In . SVG Version: 6.00 Build 0)  -->
<svg version="1.1" id="Layer_1" xmlns="http://www.w3.org/2000/svg" xmlns:xlink="http://www.w3.org/1999/xlink" x="0px" y="0px"
	 viewBox="0 0 512 512" style="enable-background:new 0 0 512 512;" xml:space="preserve">
<g>
	<g>
		<g>
			<path d="M309.333,469.333c5.888,0,10.667-4.779,10.667-10.667v-21.333c0-5.888-4.779-10.667-10.667-10.667
				s-10.667,4.779-10.667,10.667v21.333C298.667,464.555,303.445,469.333,309.333,469.333z"/>
			<path d="M352,320h-13.568c52.544-29.12,88.235-85.12,88.235-149.333C426.667,76.565,350.101,0,256,0
				S85.333,76.565,85.333,170.667c0,64.213,35.691,120.213,88.235,149.333H160C71.765,320,0,391.765,0,480v21.333
				C0,507.221,4.779,512,10.667,512h490.667c5.888,0,10.667-4.779,10.667-10.667V480C512,391.765,440.235,320,352,320z M256,21.333
				c58.027,0,108.331,33.344,133.035,81.835C357.995,79.147,310.357,64,256,64s-101.995,15.147-133.035,39.168
				C147.669,54.677,197.973,21.333,256,21.333z M256,85.333c80.939,0,149.333,39.083,149.333,85.333S336.939,256,256,256
				s-149.333-39.083-149.333-85.333S175.061,85.333,256,85.333z M122.965,238.165c31.04,24.021,78.677,39.168,133.035,39.168
				s101.995-15.147,133.035-39.168C364.331,286.656,314.027,320,256,320S147.669,286.656,122.965,238.165z M341.333,490.667h-192
				v-85.333h192V490.667z M490.667,490.667h-128v-96c0-5.888-4.779-10.667-10.667-10.667H138.667
				c-5.888,0-10.667,4.779-10.667,10.667v96H21.333V480c0-76.459,62.208-138.667,138.667-138.667h192
				c76.459,0,138.667,62.208,138.667,138.667V490.667z"/>
			<path d="M266.667,469.333c5.888,0,10.667-4.779,10.667-10.667v-21.333c0-5.888-4.779-10.667-10.667-10.667
				S256,431.445,256,437.333v21.333C256,464.555,260.779,469.333,266.667,469.333z"/>
			<path d="M181.333,469.333c5.888,0,10.667-4.779,10.667-10.667v-21.333c0-5.888-4.779-10.667-10.667-10.667
				s-10.667,4.779-10.667,10.667v21.333C170.667,464.555,175.445,469.333,181.333,469.333z"/>
			<path d="M224,469.333c5.888,0,10.667-4.779,10.667-10.667v-21.333c0-5.888-4.779-10.667-10.667-10.667
				s-10.667,4.779-10.667,10.667v21.333C213.333,464.555,218.112,469.333,224,469.333z"/>
		</g>
	</g>
</g>
<g>
</g>
<g>
</g>
<g>
</g>
<g>
</g>
<g>
</g>
<g>
</g>
<g>
</g>
<g>
</g>
<g>
</g>
<g>
</g>
<g>
</g>
<g>
</g>
<g>
</g>
<g>
</g>
<g>
</g>
</svg>
