<?xml version="1.0" encoding="iso-8859-1"?>
<!-- Generator: Adobe Illustrator 19.0.0, SVG Export Plug-In . SVG Version: 6.00 Build 0)  -->
<svg version="1.1" id="Layer_1" xmlns="http://www.w3.org/2000/svg" xmlns:xlink="http://www.w3.org/1999/xlink" x="0px" y="0px"
	 viewBox="0 0 512 512" style="enable-background:new 0 0 512 512;" xml:space="preserve">
<g>
	<g>
		<g>
			<path d="M224,426.667c-5.888,0-10.667,4.779-10.667,10.667v21.333c0,5.888,4.779,10.667,10.667,10.667
				s10.667-4.779,10.667-10.667v-21.333C234.667,431.445,229.888,426.667,224,426.667z"/>
			<path d="M181.333,426.667c-5.888,0-10.667,4.779-10.667,10.667v21.333c0,5.888,4.779,10.667,10.667,10.667
				S192,464.555,192,458.667v-21.333C192,431.445,187.221,426.667,181.333,426.667z"/>
			<path d="M352,320h-13.568c51.776-28.693,87.061-83.52,88.085-146.581c0.256-0.896,0.555-1.771,0.555-2.752
				c0-1.067-0.149-2.112-0.448-3.093C424.981,74.901,349.056,0,256,0C161.899,0,85.333,76.565,85.333,170.667
				c0,64.213,35.691,120.213,88.235,149.333H160C71.765,320,0,391.765,0,480v21.333C0,507.221,4.779,512,10.667,512h490.667
				c5.888,0,10.667-4.779,10.667-10.667V480C512,391.765,440.235,320,352,320z M106.667,170.667
				c0-46.251,68.395-85.333,149.333-85.333s149.333,39.083,149.333,85.333S336.939,256,256,256S106.667,216.917,106.667,170.667z
				 M362.667,490.667H128v-96c0-5.888,4.779-10.667,10.667-10.667H352c5.888,0,10.667,4.779,10.667,10.667V490.667z"/>
			<path d="M309.333,426.667c-5.888,0-10.667,4.779-10.667,10.667v21.333c0,5.888,4.779,10.667,10.667,10.667
				S320,464.555,320,458.667v-21.333C320,431.445,315.221,426.667,309.333,426.667z"/>
			<path d="M266.667,426.667c-5.888,0-10.667,4.779-10.667,10.667v21.333c0,5.888,4.779,10.667,10.667,10.667
				s10.667-4.779,10.667-10.667v-21.333C277.333,431.445,272.555,426.667,266.667,426.667z"/>
		</g>
	</g>
</g>
<g>
</g>
<g>
</g>
<g>
</g>
<g>
</g>
<g>
</g>
<g>
</g>
<g>
</g>
<g>
</g>
<g>
</g>
<g>
</g>
<g>
</g>
<g>
</g>
<g>
</g>
<g>
</g>
<g>
</g>
</svg>
