<svg id="Layer_1" enable-background="new 0 0 512 512" height="512" viewBox="0 0 512 512" width="512" xmlns="http://www.w3.org/2000/svg"><path d="m436.016 62.299c-48.209-40.174-112.141-62.299-180.016-62.299s-131.806 22.125-180.016 62.299c-48.999 40.833-75.984 95.358-75.984 153.533 0 34.444 9.842 68.705 28.462 99.077 16.461 26.851 39.846 50.83 67.938 69.742v112.349c0 6.067 3.655 11.536 9.26 13.858 1.856.769 3.805 1.142 5.737 1.142 3.904 0 7.741-1.523 10.61-4.394l80.643-80.642c17.487 3.121 35.395 4.701 53.35 4.701 67.875 0 131.807-22.125 180.016-62.3 49-40.832 75.984-95.358 75.984-153.534 0-58.174-26.985-112.699-75.984-153.532z"/></svg>