<svg id="Layer_1" enable-background="new 0 0 512 512" height="512" viewBox="0 0 512 512" width="512" xmlns="http://www.w3.org/2000/svg"><path d="m436.016 62.3c-48.21-40.175-112.141-62.3-180.016-62.3s-131.806 22.125-180.016 62.3c-48.999 40.833-75.984 95.358-75.984 153.533 0 34.444 9.842 68.705 28.462 99.077 16.461 26.851 39.846 50.83 67.938 69.742v112.348c0 6.067 3.655 11.536 9.26 13.858 1.856.769 3.805 1.142 5.737 1.142 3.904 0 7.74-1.523 10.61-4.394l80.643-80.641c17.488 3.121 35.396 4.701 53.351 4.701 67.875 0 131.806-22.125 180.016-62.3 49-40.833 75.984-95.359 75.984-153.534s-26.986-112.699-75.985-153.532zm-180.016 339.367c-18.671 0-37.272-1.893-55.287-5.624-4.946-1.021-10.077.51-13.649 4.082l-60.664 60.662v-84.277c0-5.168-2.66-9.972-7.041-12.714-56.789-35.55-89.359-89.481-89.359-147.963 0-102.469 101.383-185.833 226-185.833s226 83.364 226 185.833-101.383 185.834-226 185.834z"/></svg>