<svg viewBox="0 0 512 512" xmlns="http://www.w3.org/2000/svg"><path d="M454.316 185.297c-2.483-5.23-7.758-8.566-13.55-8.566H290.32l91.061-154.1c2.74-4.637 2.783-10.389.113-15.066 -2.67-4.677-7.642-7.567-13.029-7.565l-128.534.014c-5.334.002-10.267 2.834-12.954 7.441l-168.7 289.184c-2.707 4.639-2.726 10.371-.051 15.029 2.675 4.656 7.636 7.529 13.007 7.529h149.488l-43.54 174.164c-1.704 6.814 1.551 13.9 7.831 17.049 2.142 1.072 4.439 1.59 6.714 1.59 4.396 0 8.704-1.932 11.63-5.52L452.39 201.213c3.661-4.488 4.411-10.684 1.926-15.916Z"/></svg>