<svg viewBox="0 0 512.001 512.001" xmlns="http://www.w3.org/2000/svg"><path d="M454.317 185.299c-2.484-5.231-7.758-8.566-13.55-8.566H290.321l91.06-154.102c2.74-4.638 2.783-10.388.114-15.065 -2.67-4.679-7.643-7.566-13.03-7.565l-128.534.015c-5.334.001-10.267 2.834-12.955 7.441L58.277 296.64c-2.707 4.64-2.726 10.372-.051 15.029s7.636 7.529 13.007 7.529h149.488l-43.54 174.164c-1.704 6.814 1.551 13.899 7.831 17.048 2.142 1.073 4.439 1.591 6.714 1.591 4.396 0 8.704-1.933 11.63-5.52L452.39 201.214c3.661-4.487 4.412-10.683 1.927-15.915ZM222.581 435.458l31.905-127.622c1.12-4.48.113-9.229-2.729-12.869 -2.843-3.641-7.204-5.769-11.823-5.769H97.35L248.549 30.015l93.63-.012 -91.058 154.099c-2.74 4.637-2.784 10.387-.114 15.065 2.669 4.678 7.642 7.565 13.028 7.565h145.137Z"/></svg>