<svg id="Layer_1" enable-background="new 0 0 513.07 513.07" height="512" viewBox="0 0 513.07 513.07" width="512" xmlns="http://www.w3.org/2000/svg"><g><path d="m84.754 106.069c0-8.284-6.716-15-15-15h-32.133c-8.284 0-15 6.716-15 15s6.716 15 15 15h32.134c8.284 0 14.999-6.715 14.999-15z"/><path d="m82.35 168.081-27.828 16.067c-7.174 4.143-9.632 13.316-5.49 20.49 2.778 4.813 7.82 7.503 13.004 7.503 2.544 0 5.124-.649 7.486-2.013l27.828-16.067c7.174-4.143 9.632-13.316 5.49-20.49-4.141-7.175-13.315-9.631-20.49-5.49z"/><path d="m54.52 27.994 27.828 16.067c2.362 1.364 4.941 2.013 7.486 2.013 5.184 0 10.226-2.69 13.004-7.503 4.142-7.174 1.685-16.348-5.49-20.49l-27.827-16.067c-7.174-4.145-16.349-1.686-20.491 5.49-4.142 7.174-1.685 16.348 5.49 20.49z"/><path d="m435.283 1.07h-241c-30.419 0-55.167 24.747-55.167 55.166v401.668c0 30.419 24.748 55.166 55.167 55.166h241c30.418 0 55.166-24.747 55.166-55.166v-401.668c0-30.419-24.747-55.166-55.166-55.166zm25.166 456.834c0 13.877-11.29 25.166-25.166 25.166h-241c-13.877 0-25.167-11.289-25.167-25.166v-401.668c0-13.877 11.29-25.166 25.167-25.166h241c13.876 0 25.166 11.289 25.166 25.166z"/><path d="m244.117 61.069c-24.813 0-44.999 20.188-44.999 45.001s20.187 45 44.999 45 44.999-20.187 44.999-45-20.187-45.001-44.999-45.001zm0 60.001c-8.271 0-14.999-6.729-14.999-15s6.729-15.001 14.999-15.001 14.999 6.729 14.999 15.001-6.729 15-14.999 15z"/><path d="m334.115 95.337c-3.95 0-7.81 1.6-10.61 4.39-2.79 2.79-4.39 6.66-4.39 10.61s1.6 7.81 4.39 10.6c2.8 2.801 6.66 4.4 10.61 4.4s7.81-1.6 10.61-4.4c2.79-2.79 4.39-6.649 4.39-10.6s-1.6-7.82-4.39-10.61c-2.8-2.79-6.66-4.39-10.61-4.39z"/></g></svg>