<svg id="Layer_1" enable-background="new 0 0 513.07 513.07" height="512" viewBox="0 0 513.07 513.07" width="512" xmlns="http://www.w3.org/2000/svg"><g><path d="m84.754 106.069c0-8.284-6.716-15-15-15h-32.133c-8.284 0-15 6.716-15 15s6.716 15 15 15h32.133c8.284 0 15-6.715 15-15z"/><path d="m82.349 168.081-27.828 16.067c-7.174 4.143-9.632 13.316-5.49 20.49 2.778 4.813 7.82 7.503 13.004 7.503 2.544 0 5.124-.649 7.486-2.013l27.828-16.067c7.174-4.143 9.632-13.316 5.49-20.49-4.141-7.175-13.314-9.631-20.49-5.49z"/><path d="m54.519 27.994 27.828 16.067c2.363 1.364 4.941 2.013 7.486 2.013 5.184 0 10.226-2.69 13.004-7.503 4.142-7.174 1.685-16.348-5.49-20.49l-27.827-16.067c-7.177-4.145-16.349-1.686-20.491 5.49-4.142 7.174-1.684 16.348 5.49 20.49z"/><path d="m435.283 1.07h-241c-30.418 0-55.166 24.747-55.166 55.166v401.668c0 30.419 24.748 55.166 55.166 55.166h241c30.418 0 55.166-24.747 55.166-55.166v-401.668c0-30.419-24.747-55.166-55.166-55.166zm-191.166 150c-24.813 0-45-20.187-45-45s20.187-45.001 45-45.001c24.812 0 44.998 20.188 44.998 45.001s-20.186 45-44.998 45zm100.608-30.133c-2.8 2.801-6.66 4.4-10.61 4.4s-7.81-1.6-10.61-4.4c-2.79-2.79-4.39-6.649-4.39-10.6s1.6-7.82 4.39-10.61c2.8-2.79 6.66-4.39 10.61-4.39s7.81 1.6 10.61 4.39c2.79 2.79 4.39 6.66 4.39 10.61s-1.6 7.809-4.39 10.6z"/><path d="m244.117 91.069c-8.271 0-15 6.729-15 15.001s6.729 15 15 15c8.27 0 14.998-6.729 14.998-15s-6.728-15.001-14.998-15.001z"/></g></svg>