<svg viewBox="0 0 512 512" xmlns="http://www.w3.org/2000/svg" class="a"><style>.b{fill: #000;}.a{}</style><path d="M359.025 166.91V95.99c0-8.29-6.72-15-15-15h-64c-8.29 0-15 6.71-15 15v41c-31.39 0-38.94-.58-53.72 2.22l-6.62-101.36C203.16 16.54 185.44-.03 164.01-.03c-21.3 0-39.161 16.63-40.68 37.896 -12.76 182.907-14.97 214.39-15.01 215.577 -1.26 14.92-.95 11.16 10.39 133.39 6.57 70.846 66.01 125.13 137.28 125.13 71.149 0 130.697-54.18 137.279-125.14l10.3-111.14c3.75-40.49-12.26-81.58-44.59-108.81Zm-30-55.919v37.11c-10.78-4.83-22.23-8.15-34-9.83v-27.29Zm-165-81c5.75 0 10.35 4.51 10.74 9.91l7.09 108.72c-14.107 6.48-27.04 15.54-38.03 26.84l9.44-135.49c.39-5.61 5.12-10.01 10.74-10.01Zm209.71 242.959l-10.31 111.13c-5.18 55.815-51.36 97.906-107.41 97.906 -56.06 0-102.231-42.1-107.41-97.906l-10.31-111.14c-5.29-57.018 39.48-105.959 96.58-105.959h42.262c21.01 0 40.77 6.51 57.21 18.613 .45.38.92.73 1.42 1.06 25.7 19.64 41.2 51.15 37.94 86.28Z" class="b"/><path d="M298.025 201h-84c-24.82 0-45 20.18-45 45v36c0 24.81 20.18 45 45 45h84c24.81 0 45-20.19 45-45v-36c0-24.82-20.19-45-45-45Zm15 81c0 8.27-6.73 15-15 15h-84c-8.28 0-15-6.73-15-15v-36c0-8.28 6.72-15 15-15h84c8.27 0 15 6.72 15 15Z" class="b"/><path d="M200.025 369c-8.29 0-15 6.71-15 15v32c0 8.28 6.71 15 15 15 8.28 0 15-6.72 15-15v-32c0-8.29-6.72-15-15-15Z" class="b"/><path d="M312.025 369c-8.29 0-15 6.71-15 15v32c0 8.28 6.71 15 15 15 8.28 0 15-6.72 15-15v-32c0-8.29-6.72-15-15-15Z" class="b"/><path d="M256.025 353c-8.29 0-15 6.71-15 15v64c0 8.28 6.71 15 15 15 8.28 0 15-6.72 15-15v-64c0-8.29-6.72-15-15-15Z" class="b"/></svg>