<svg viewBox="0 0 512.034 512.034" xmlns="http://www.w3.org/2000/svg"><g><path d="M316.017 211.009c-57.897 0-105 47.103-105 105 0 57.892 47.096 104.992 104.986 105v.015h.096c18.335 0 36.46-4.869 52.418-14.083l-15-25.98c-11.404 6.584-24.341 10.063-37.418 10.063 -.022 0-.082-.015-.082-.015 -41.355 0-75-33.645-75-75s33.645-75 75-75 75 33.645 75 75c0 8.271-6.729 15-15 15s-15-6.729-15-15c0-24.813-20.187-45-45-45s-45 20.187-45 45 20.187 45 45 45c11.517 0 22.032-4.354 30-11.495 7.968 7.141 18.483 11.495 30 11.495 24.813 0 45-20.187 45-45 0-57.898-47.102-105-105-105Zm0 120c-8.271 0-15-6.729-15-15s6.729-15 15-15 15 6.729 15 15 -6.728 15-15 15Z"/><path d="M475.1 428.838c24.183-33.763 36.917-72.587 36.917-112.829 0-85.179-55.184-157.766-131.846-184.26 -26.585-76.045-98.736-131.74-184.154-131.74 -107.799 0-196 88.214-196 196 0 40.243 12.735 79.066 36.917 112.829l-36.934 83.188 83.205-36.941c14.976 10.649 31.249 19.056 48.554 25.085 26.497 76.659 99.082 131.839 184.258 131.839 40.242 0 79.066-12.735 112.829-36.917l83.188 36.934ZM87.289 320.447l-28.255 12.545 12.545-28.255c-2.359-4.105-41.562-44.023-41.562-108.728 0-91.533 74.467-166 166-166 62.918 0 120.498 37.158 148.032 93.003 -9.158-1.311-18.515-2.003-28.032-2.003 -107.523 0-195 87.477-195 195 0 9.515.692 18.869 2.002 28.026 -19.718-9.741-31.207-20.307-35.73-23.588Zm337.456 120c-4.104 2.359-44.024 41.562-108.728 41.562 -90.981 0-165-74.467-165-166 0-90.981 74.019-165 165-165 91.533 0 166 74.019 166 165 0 64.958-39.132 104.5-41.562 108.728L453 452.992Z"/></g></svg>