<svg viewBox="0 0 512 512" xmlns="http://www.w3.org/2000/svg"><g><path d="M316 301a15 15 0 1 0 0 30 15 15 0 1 0 0-30Z"/><path d="M512 316c0-104.452-86.032-195-196-195 -107.52 0-195 87.48-195 195 0 109.558 90.161 196 195 196 40.195 0 79.98-13.7 112.998-36.933L512 512l-36.918-83.002C498.285 395.966 512 356.181 512 316Zm-136 45c-11.567 0-22.02-4.508-30-11.704 -7.98 7.196-18.433 11.704-30 11.704 -24.814 0-45-20.186-45-45s20.186-45 45-45 45 20.186 45 45c0 8.276 6.738 15 15 15s15-6.724 15-15c0-41.353-33.633-75-75-75s-75 33.647-75 75 33.633 75 75 75v.015h.088c13.066 0 26.016-3.472 37.412-10.063l15 25.986c-15.967 9.214-34.072 14.077-52.412 14.077 -.029 0-.059 0-.088 0V421c-57.891 0-105-47.109-105-105s47.109-105 105-105 105 47.109 105 105c0 24.814-20.186 45-45 45Z"/><path d="M91 316C91 191.928 191.928 91 316 91c16.086 0 31.805 2.291 47.254 5.651 -34.305-58.396-96.617-96.651-167.254-96.651 -107.52 0-196 88.48-196 196 0 40.181 13.715 79.966 36.918 112.998L-1.6e-05 392l82.973-36.918c4.374 3.093 9.089 5.385 13.636 8.08C93.278 347.805 91 332.106 91 316Z"/></g></svg>