<svg viewBox="0 0 232.914 232.914" xmlns="http://www.w3.org/2000/svg"><g><path d="M9 64.099c-4.971 0-9 4.029-9 9v86.716c0 4.971 4.029 9 9 9s9-4.029 9-9V73.099c0-4.971-4.029-9-9-9Z"/><path d="M51.983 38.092c-4.971 0-9 4.029-9 9v138.73c0 4.971 4.029 9 9 9s9-4.029 9-9V47.092c0-4.971-4.029-9-9-9Z"/><path d="M94.966 1.896c-4.971 0-9 4.029-9 9v211.121c0 4.971 4.029 9 9 9s9-4.029 9-9V10.896c0-4.97-4.029-9-9-9Z"/><path d="M137.948 54.361c-4.971 0-9 4.029-9 9v106.193c0 4.971 4.029 9 9 9s9-4.029 9-9V63.361c0-4.971-4.029-9-9-9Z"/><path d="M180.931 64.099c-4.971 0-9 4.029-9 9v86.716c0 4.971 4.029 9 9 9s9-4.029 9-9V73.099c0-4.971-4.03-9-9-9Z"/><path d="M223.914 92.919c-4.971 0-9 4.029-9 9v29.077c0 4.971 4.029 9 9 9s9-4.029 9-9v-29.077c0-4.971-4.029-9-9-9Z"/></g></svg>