<svg viewBox="0 0 428 428" xmlns="http://www.w3.org/2000/svg"><g><path d="M8 181.2v0c-4.418 0-8 3.582-8 8v49.6c0 4.418 3.582 8 8 8s8-3.582 8-8v-49.6c0-4.418-3.582-8-8-8Z"/><path d="M39.68 140.8c-4.418 0-8 3.582-8 8v130.4c0 4.418 3.582 8 8 8s8-3.582 8-8V148.8c0-4.418-3.582-8-8-8Z"/><path d="M71.36 154.8c-4.418 0-8 3.582-8 8v102.4c0 4.418 3.582 8 8 8s8-3.582 8-8V162.8c0-4.418-3.582-8-8-8Z"/><path d="M103.04 181.2v0c-4.418 0-8 3.582-8 8v49.6c0 4.418 3.582 8 8 8s8-3.582 8-8v-49.6c0-4.418-3.582-8-8-8Z"/><path d="M134.8 111.52c-4.418 0-8 3.582-8 8v188.96c0 4.418 3.582 8 8 8s8-3.582 8-8V119.52c0-4.418-3.582-8-8-8Z"/><path d="M166.48 150.56c-4.418 0-8 3.582-8 8v110.88c0 4.418 3.582 8 8 8s8-3.582 8-8V158.56c0-4.418-3.582-8-8-8Z"/><path d="M198 163.92c-4.418 0-8 3.582-8 8v84.16c0 4.418 3.582 8 8 8s8-3.582 8-8v-84.16c0-4.418-3.582-8-8-8Z"/><path d="M230 181.2v0c-4.418 0-8 3.582-8 8v49.6c0 4.418 3.582 8 8 8s8-3.582 8-8v-49.6c0-4.418-3.582-8-8-8Z"/><path d="M261.52 163.92c-4.418 0-8 3.582-8 8v84.16c0 4.418 3.582 8 8 8s8-3.582 8-8v-84.16c0-4.418-3.582-8-8-8Z"/><path d="M293.2 150.56c-4.418 0-8 3.582-8 8v110.88c0 4.418 3.582 8 8 8s8-3.582 8-8V158.56c0-4.418-3.582-8-8-8Z"/><path d="M324.96 111.52c-4.418 0-8 3.582-8 8v188.96c0 4.418 3.582 8 8 8s8-3.582 8-8V119.52c0-4.418-3.582-8-8-8Z"/><path d="M356.64 154.8c-4.418 0-8 3.582-8 8v102.4c0 4.418 3.582 8 8 8s8-3.582 8-8V162.8c0-4.418-3.582-8-8-8Z"/><path d="M388.32 181.2v0c-4.418 0-8 3.582-8 8v49.6c0 4.418 3.582 8 8 8s8-3.582 8-8v-49.6c0-4.418-3.582-8-8-8Z"/><path d="M420 181.2v0c-4.418 0-8 3.582-8 8v49.6c0 4.418 3.582 8 8 8s8-3.582 8-8v-49.6c0-4.418-3.582-8-8-8Z"/></g></svg>