<svg viewBox="0 -.493335 354.987 354.987" xmlns="http://www.w3.org/2000/svg"><g><path d="M6.82812 102.895C3.05469 102.895 0 105.949 0 109.719v34.1328C0 147.625 3.05469 150.68 6.82812 150.68c3.76953 0 6.82422-3.05469 6.82422-6.82813V109.719c0-3.76953-3.05469-6.82422-6.82422-6.82422Z" transform="translate(0 47)"/><path d="M40.9844 74.9414c-3.76953 0-6.82812 3.05859-6.82812 6.82812v94.5156c0 3.77344 3.05859 6.82812 6.82812 6.82812 3.76953 0 6.82812-3.05469 6.82812-6.82812V81.7695c0-3.76953-3.05859-6.82812-6.82812-6.82812Z" transform="translate(0 47)"/><path d="M75.0937 27.8008c-3.76953 0-6.82812 3.05469-6.82812 6.82422v191.148c0 3.76953 3.05859 6.82812 6.82812 6.82812 3.76953 0 6.82812-3.05859 6.82812-6.82812V34.625c0-3.76953-3.05859-6.82422-6.82812-6.82422Z" transform="translate(0 47)"/><path d="M109.227 61.9336c-3.76953 0-6.82812 3.05469-6.82812 6.82812v116.051c0 3.76953 3.05859 6.82812 6.82812 6.82812 3.76953 0 6.82813-3.05859 6.82813-6.82812V68.7617c0-3.77344-3.05859-6.82812-6.82813-6.82812Z" transform="translate(0 47)"/><path d="M212.293 45.4062c-3.76953 0-6.82422 3.05469-6.82422 6.82812v153.59c0 3.76953 3.05469 6.82422 6.82422 6.82422s6.82812-3.05469 6.82812-6.82422v-153.59c0-3.77344-3.05859-6.82812-6.82812-6.82812Z" transform="translate(0 47)"/><path d="M279.895 55.1055c-3.76953 0-6.82812 3.05859-6.82812 6.82812v136.531c0 3.77344 3.05859 6.82812 6.82812 6.82812 3.76953 0 6.82422-3.05469 6.82422-6.82812V61.9336c0-3.76953-3.05469-6.82812-6.82422-6.82812Z" transform="translate(0 47)"/><path d="M314.027 89.2383c-3.76953 0-6.82812 3.05859-6.82812 6.82812v68.2656c0 3.76953 3.05859 6.82812 6.82812 6.82812 3.76953 0 6.82422-3.05859 6.82422-6.82812V96.0664c0-3.76953-3.05469-6.82812-6.82422-6.82812Z" transform="translate(0 47)"/><path d="M245.762.492188c-3.77344 0-6.82812 3.05859-6.82812 6.82812v245.758c0 3.77344 3.05469 6.82812 6.82812 6.82812 3.76953 0 6.82422-3.05469 6.82422-6.82812V7.32031c0-3.76953-3.05469-6.82812-6.82422-6.82812Z" transform="translate(0 47)"/><path d="M143.359 109.719c-3.76953 0-6.82422 3.05859-6.82422 6.82812v27.3047c0 3.77344 3.05469 6.82813 6.82422 6.82813s6.82812-3.05469 6.82812-6.82813V116.547c0-3.76953-3.05859-6.82812-6.82812-6.82812Z" transform="translate(0 47)"/><path d="M348.16 107.434c-3.76953 0-6.82812 3.05469-6.82812 6.82422v29.5391c0 3.76953 3.05859 6.82812 6.82812 6.82812 3.76953 0 6.82812-3.05859 6.82812-6.82812V114.258c0-3.76953-3.05859-6.82422-6.82812-6.82422Z" transform="translate(0 47)"/><path d="M176.852 94.418c-3.77344 0-6.82812 3.05469-6.82812 6.82422v55.5703c0 3.76953 3.05469 6.82812 6.82812 6.82812 3.76953 0 6.82422-3.05859 6.82422-6.82812V101.242c0-3.76953-3.05469-6.82422-6.82422-6.82422Z" transform="translate(0 47)"/></g></svg>