<svg viewBox="0 0 512 512" xmlns="http://www.w3.org/2000/svg"><path d="M497 208.285h-15.616c-4.312-10.76-10.158-18.468-15.463-23.773 -13.429-13.431-28.593-17.138-32.92-17.953 -13.158-2.481-34.251-3.131-55.481-2.976 -.063-.001-.124-.01-.187-.01 -.001 0-.002 0-.003 0l-238.324.048c-.031 0-.06.004-.09.005 -22.688-.281-45.843.279-59.917 2.933 -4.327.815-19.491 4.522-32.92 17.953 -5.305 5.306-11.152 13.013-15.463 23.773H15c-8.284 0-15 6.716-15 15 0 8.284 6.716 15 15 15h9.366c-.097 1.931-.15 3.913-.15 5.952 0 64.701 43.484 99.008 83.887 103.503 4.212.469 8.424.7 12.62.7 27.416-.001 54.09-9.878 74.692-27.969 16.256-14.273 35.162-39.473 42.698-82.187h35.774c7.536 42.713 26.442 67.914 42.698 82.187 20.604 18.092 47.274 27.969 74.692 27.969 4.194-.001 8.41-.231 12.62-.7 40.402-4.495 83.887-38.802 83.887-103.503 0-2.039-.053-4.021-.15-5.952H497c8.284 0 15-6.716 15-15 0-8.284-6.716-15-15-15Zm-226.26 0h-29.48c.069-1.759.128-3.533.162-5.339 .06-3.191-.314-6.325-1.08-9.345l31.319-.006c-.767 3.022-1.143 6.158-1.082 9.352 .033 1.805.092 3.579.161 5.338Z"/></svg>