<svg id="Layer_1" enable-background="new 0 0 512 512" height="512" viewBox="0 0 512 512" width="512" xmlns="http://www.w3.org/2000/svg"><g><path d="m315.188 59.999 20-59.999h-158.374l19.998 59.999z"/><path d="m376.5 0h-9.688l-26.582 79.742c-2.042 6.125-7.774 10.257-14.23 10.257h-140c-6.457 0-12.188-4.132-14.23-10.257l-26.579-79.742h-9.689c-30.419 0-55.168 24.747-55.168 55.166v401.667c0 30.419 24.749 55.167 55.168 55.167h240.998c30.419 0 55.166-24.748 55.166-55.167v-401.667c0-30.419-24.747-55.166-55.166-55.166zm-201.9 320.267c0 8.284-6.716 15-15 15s-15-6.716-15-15v-68.534c0-8.284 6.716-15 15-15s15 6.716 15 15zm64.267 32.132c0 8.284-6.716 15-15 15s-15-6.716-15-15v-132.8c0-8.284 6.716-15 15-15s15 6.716 15 15zm64.266-32.132c0 8.284-6.716 15-15 15s-15-6.716-15-15v-68.534c0-8.284 6.716-15 15-15s15 6.716 15 15zm64.267 32.132c0 8.284-6.716 15-15 15s-15-6.716-15-15v-132.8c0-8.284 6.716-15 15-15s15 6.716 15 15z"/></g></svg>