<svg id="Layer_1" enable-background="new 0 0 512 512" height="512" viewBox="0 0 512 512" width="512" xmlns="http://www.w3.org/2000/svg"><g><path d="m376.5 0h-30.502-179.996-30.5c-30.42 0-55.168 24.748-55.168 55.166v401.667c0 30.419 24.748 55.167 55.168 55.167h240.998c30.419 0 55.166-24.748 55.166-55.167v-401.667c0-30.418-24.747-55.166-55.166-55.166zm-51.313 30-10 29.999h-118.375l-9.999-29.999zm76.479 426.833c0 13.877-11.289 25.167-25.166 25.167h-240.998c-13.878 0-25.168-11.29-25.168-25.167v-401.667c0-13.876 11.29-25.166 25.168-25.166h19.688l16.579 49.742c2.042 6.125 7.773 10.257 14.23 10.257h139.998c6.456 0 12.188-4.131 14.23-10.256l16.583-49.743h19.69c13.877 0 25.166 11.29 25.166 25.166z"/><path d="m159.6 236.732c-8.284 0-15 6.716-15 15v68.534c0 8.284 6.716 15 15 15s15-6.716 15-15v-68.534c0-8.284-6.716-15-15-15z"/><path d="m352.4 204.599c-8.284 0-15 6.716-15 15v132.801c0 8.284 6.716 15 15 15s15-6.716 15-15v-132.801c0-8.285-6.715-15-15-15z"/><path d="m288.133 236.732c-8.284 0-15 6.716-15 15v68.534c0 8.284 6.716 15 15 15s15-6.716 15-15v-68.534c0-8.284-6.716-15-15-15z"/><path d="m223.867 204.599c-8.284 0-15 6.716-15 15v132.801c0 8.284 6.716 15 15 15s15-6.716 15-15v-132.801c0-8.285-6.716-15-15-15z"/></g></svg>