<svg id="Capa_1" enable-background="new 0 0 512 512" height="512" viewBox="0 0 512 512" width="512" xmlns="http://www.w3.org/2000/svg"><g><path d="m359 130.06v-34.06c0-8.28-6.72-15-15-15h-64c-8.28 0-15 6.72-15 15v11h12.13c29.1 0 57.44 8.15 81.87 23.06z"/><path d="m209.32 109.11-4.65-71.24c-1.51-21.24-19.38-37.87-40.67-37.87s-39.16 16.63-40.67 37.9l-8.73 125.19c22.933-27.621 56.684-47.685 94.72-53.98z"/><path d="m277.13 137h-42.26c-74.584 0-133.369 64.2-126.46 138.73l10.31 111.13c3.18 34.3 18.95 65.96 44.4 89.16 52.608 47.938 133.074 48.009 185.76 0 25.45-23.2 41.22-54.86 44.4-89.16l10.31-111.13c6.912-74.566-51.907-138.73-126.46-138.73zm-62.13 294c0 8.28-6.72 15-15 15s-15-6.72-15-15v-32c0-8.28 6.72-15 15-15s15 6.72 15 15zm56 16c0 8.28-6.72 15-15 15s-15-6.72-15-15v-64c0-8.28 6.72-15 15-15s15 6.72 15 15zm56-16c0 8.28-6.72 15-15 15s-15-6.72-15-15v-32c0-8.28 6.72-15 15-15s15 6.72 15 15zm16-149c0 24.81-20.19 45-45 45h-84c-24.81 0-45-20.19-45-45v-36c0-24.81 20.19-45 45-45h84c24.81 0 45 20.19 45 45z"/><path d="m298 231h-84c-8.27 0-15 6.73-15 15v36c0 8.27 6.73 15 15 15h84c8.27 0 15-6.73 15-15v-36c0-8.27-6.73-15-15-15z"/></g></svg>