<svg id="Capa_1" enable-background="new 0 0 512 512" height="512" viewBox="0 0 512 512" width="512" xmlns="http://www.w3.org/2000/svg"><g><path d="m497 33h-18v-18c0-8.284-6.716-15-15-15s-15 6.716-15 15v18h-17c-8.284 0-15 6.716-15 15s6.716 15 15 15h17v17c0 8.284 6.716 15 15 15s15-6.716 15-15v-17h18c8.284 0 15-6.716 15-15s-6.716-15-15-15z"/><path d="m80 369h-17v-17c0-8.284-6.716-15-15-15s-15 6.716-15 15v17h-18c-8.284 0-15 6.716-15 15s6.716 15 15 15h18v17c0 8.284 6.716 15 15 15s15-6.716 15-15v-17h17c8.284 0 15-6.716 15-15s-6.716-15-15-15z"/><path d="m207 371h34v-121.73l-34-17z"/><path d="m213.91 202.18 42.09 21.05 42.09-21.05-42.09-63.14z"/><path d="m305 371v-138.73l-34 17v121.73z"/><path d="m254.6.01c-99.79.74-181.25 82.99-181.6 183.34-.201 58.927 27.588 112.453 72.47 146.51 13.34 10.12 24.01 22.62 31.53 36.8v-158.66c0-2.96.88-5.86 2.52-8.32l64-96c5.927-8.891 19.023-8.906 24.96 0l64 96c1.64 2.46 2.52 5.36 2.52 8.32v158.68c7.53-14.2 18.21-26.71 31.59-36.87 88.482-67.206 97.604-197.528 17.83-276.69-34.88-34.62-80.98-53.45-129.82-53.11z"/><path d="m335 416c0-8.28-6.72-15-15-15h-128c-8.28 0-15 6.72-15 15v25h158z"/><path d="m222 512h68c23.46 0 42.79-18.06 44.82-41h-157.64c2.03 22.94 21.36 41 44.82 41z"/><path d="m177 441h-9c-8.28 0-15 6.72-15 15s6.72 15 15 15h9.18c-.246-2.703-.18-1.341-.18-30z"/><path d="m344 441h-9c0 28.955.061 27.351-.18 30h9.18c8.28 0 15-6.72 15-15s-6.72-15-15-15z"/></g></svg>