<svg id="Capa_1" enable-background="new 0 0 512 512" height="512" viewBox="0 0 512 512" width="512" xmlns="http://www.w3.org/2000/svg"><g><path d="m254.599.005c-99.785.748-181.249 82.997-181.598 183.346-.205 59.059 27.682 112.521 72.473 146.508 14.065 10.673 25.137 23.994 32.7 39.141h-2.174c-8.284 0-15 6.716-15 15v41h-9c-8.284 0-15 6.716-15 15s6.716 15 15 15h9v12c0 24.813 20.187 45 45 45h100c24.813 0 45-20.187 45-45v-12h9c8.284 0 15-6.716 15-15s-6.716-15-15-15h-9v-41c0-8.284-6.716-15-15-15h-2.168c7.57-15.146 18.662-28.484 32.76-39.19 44.363-33.695 72.408-86.762 72.408-145.81 0-101.615-82.512-184.685-184.401-183.995zm-39.599 368.995v-135.152l26 14.857v120.295zm56-120.295 26-14.857v135.152h-26zm-15-25.981-34.284-19.59 34.284-48.977 34.283 48.977zm65 244.276c0 8.271-6.729 15-15 15h-100c-8.271 0-15-6.729-15-15v-12h130zm-130-42v-26h130v26zm157.447-119.081c-7.913 6.01-15.076 12.69-21.447 19.938v-117.857c0-3.078-.947-6.081-2.711-8.602l-56-80c-5.963-8.518-18.607-8.528-24.577 0l-56 80c-1.765 2.521-2.712 5.524-2.712 8.602v117.837c-6.356-7.23-13.502-13.889-21.392-19.876-38.686-29.354-60.776-74.006-60.607-122.505.292-83.988 68.399-152.826 151.823-153.452 83.792-.635 154.176 67.763 154.176 153.996 0 48.253-22.071 92.691-60.553 121.919z"/><path d="m497 33h-18v-18c0-8.284-6.716-15-15-15s-15 6.716-15 15v18h-17c-8.284 0-15 6.716-15 15s6.716 15 15 15h17v17c0 8.284 6.716 15 15 15s15-6.716 15-15v-17h18c8.284 0 15-6.716 15-15s-6.716-15-15-15z"/><path d="m80 369h-17v-17c0-8.284-6.716-15-15-15s-15 6.716-15 15v17h-18c-8.284 0-15 6.716-15 15s6.716 15 15 15h18v17c0 8.284 6.716 15 15 15s15-6.716 15-15v-17h17c8.284 0 15-6.716 15-15s-6.716-15-15-15z"/></g></svg>