<svg id="Capa_1" enable-background="new 0 0 512.003 512.003" height="512" viewBox="0 0 512.003 512.003" width="512" xmlns="http://www.w3.org/2000/svg"><g><path d="m121.001 196.386c-18.104 13.705-30 35.213-30 59.617 0 4.955 0 110.649 0 105h30c0-4.633 0-171.416 0-164.617z"/><path d="m421.001 256.003c0-24.404-11.896-45.912-30-59.617 0 3.081 0 167.698 0 164.617h30c0-9.466 0-109.434 0-105z"/><circle cx="256.001" cy="198.003" r="15"/><path d="m264.263 5.479-8.32-5.479-8.276 5.537c-33.16 22.165-58.658 52.634-75.245 87.466h167.056c-18.413-38.372-43.957-66.899-75.215-87.524z"/><path d="m151.001 186.299v144.704h25.794l-22.513 90h-36.044c-6.213-17.422-22.707-30-42.237-30-24.814 0-45 20.186-45 45s20.186 45 45 45c19.53 0 36.024-12.578 42.237-30h59.482l29.987-120h33.294v93.763c-17.422 6.213-30 22.707-30 42.237 0 24.814 20.186 45 45 45s45-20.186 45-45c0-19.53-12.578-36.024-30-42.237v-93.763h33.294l29.987 120h59.482c6.213 17.422 22.707 30 42.237 30 24.814 0 45-20.186 45-45s-20.186-45-45-45c-19.53 0-36.024 12.578-42.237 30h-36.044l-22.513-90h25.794v-144.704c0-21.581-3.602-42.874-9.836-63.296h-190.371c-6.18 20.284-9.793 41.492-9.793 63.296zm105-33.296c24.814 0 45 20.186 45 45s-20.186 45-45 45-45-20.186-45-45 20.186-45 45-45z"/></g></svg>