<svg xmlns="http://www.w3.org/2000/svg" width="512" height="512" viewBox="0 0 512 512">
  <defs>
    <style>
      .cls-1 {
        fill-rule: evenodd;
      }
    </style>
  </defs>
  <path id="Color_Fill_1" data-name="Color Fill 1" class="cls-1" d="M127.22,0H364.137c9.483,0,20.492-.9,28.564.96l5.281,0.48c11.23,2.748,21.634,4.708,31.2,8.881a150.291,150.291,0,0,1,26.164,14.642c2.847,2,5.408,4.652,8.161,6.721a93.256,93.256,0,0,1,9.842,9.121l3.6,3.361c4.477,5.916,9.652,11.394,13.682,17.763,8.412,13.3,13.687,27.256,18.483,44.407,0.883,3.158.655,6.028,1.44,9.361,1.671,7.1,1.44,15.8,1.44,24.484V376.859c0,2.547.235,5.778-.24,7.921v3.361l-1.68,12.722c-2.232,8.628-3.79,17.068-6.961,24.723-11.4,27.529-29.222,49.975-53.049,65.051a157.23,157.23,0,0,1-35.045,16.082c-5.421,1.793-11.3,2.451-17.043,3.841l-7.441.72c-4.048.9-9.056,0.72-13.922,0.72H142.582c-9.419,0-19.174.4-26.884-1.44l-4.561-.48c-10.057-2.6-19.592-4.594-28.324-8.4-33.261-14.5-58-39.221-72.491-72.491-3.193-7.328-5.15-15.331-7.441-23.524C-0.208,394.621,0,380.977,0,367.017V127.22l0.96-9.842C2.83,109.472,3.6,101.767,6,94.575,19.237,54.9,45.957,26.378,82.813,10.322c8.728-3.8,18.263-5.83,28.324-8.4,3.384-.865,7.014-0.694,10.322-1.44C123.205,0.086,125.858.858,127.22,0ZM397.742,98.175c-1.2.724-3.274,0.433-4.561,0.96a16.081,16.081,0,0,0-8.881,8.882c-3.84,9.629,3.244,17.437,9.6,19.683,1.554,0.549,4.989,1.332,7.441.72,5.135-1.281,9.395-4.384,11.281-8.881C417.334,108.31,408.592,98.2,397.742,98.175Zm-146.663,60.49-11.041,1.2c-6.977,1.773-13.787,2.917-19.924,5.521-28.215,11.972-44.7,30.745-56.408,59.289-5.679,13.839-6.669,38.274-2.161,54.009,1.375,4.8,2.033,8.938,3.841,13.2,10.472,24.694,27.907,43.006,52.568,53.528,6.295,2.686,13.24,4.549,20.643,6.481,3.044,0.794,5.838.241,9.122,0.96,2.285,0.5,10.4,1.121,13.2.48,2.44-.557,5.345-0.1,7.921-0.72,6.629-1.586,13.34-2.149,19.2-4.561,26.4-10.857,46.032-27.494,57.369-53.288,3.078-7,4.641-14.634,6.721-22.8,0.866-3.4.178-7.2,0.96-10.8,0.724-3.33.513-12.858-.24-16.083L351.175,235a135.744,135.744,0,0,0-5.761-17.043q-15.918-36.308-52.328-52.088c-6.9-2.994-14.544-4.263-22.564-6.241C264.744,158.2,257.832,158.674,251.079,158.665Z"/>
</svg>
