<svg id="Layer_1" enable-background="new 0 0 512 512" height="512" viewBox="0 0 512 512" width="512" xmlns="http://www.w3.org/2000/svg"><g><path d="m256.004 158.536c-53.743 0-97.467 43.722-97.467 97.464s43.724 97.464 97.467 97.464 97.467-43.722 97.467-97.464-43.724-97.464-97.467-97.464z"/><path d="m376.5 0h-241c-74.715 0-135.5 60.785-135.5 135.5v241c0 74.715 60.785 135.5 135.5 135.5h241c74.715 0 135.5-60.785 135.5-135.5v-241c0-74.715-60.785-135.5-135.5-135.5zm-120.496 383.464c-70.285 0-127.467-57.18-127.467-127.464s57.182-127.464 127.467-127.464 127.467 57.18 127.467 127.464-57.182 127.464-127.467 127.464zm153.206-259.451c-2.79 2.79-6.66 4.391-10.61 4.391-3.939 0-7.81-1.601-10.61-4.391-2.79-2.8-4.38-6.67-4.38-10.609 0-3.95 1.59-7.811 4.38-10.61 2.801-2.79 6.66-4.39 10.61-4.39s7.82 1.6 10.61 4.39c2.79 2.8 4.39 6.66 4.39 10.61 0 3.949-1.6 7.809-4.39 10.609z"/></g></svg>