<?xml version="1.0" encoding="UTF-8"?><svg id="a" xmlns="http://www.w3.org/2000/svg" viewBox="0 0 12 13.44"><path id="b" d="M7.2,4.8h2.48c.4,0,.92-.05,1.25,.04,.39,.12,.69,.36,.88,.68,.28,.47,.19,1.41,.19,2.15v4.54c-.11,.51-.41,.9-.83,1.08-.52,.23-1.56,.13-2.28,.13H4.14c-1.2,0-1.95,.11-2.45-.64-.31-.46-.24-1.24-.24-2.01v-3.45c0-1.1-.08-1.76,.57-2.23,.42-.31,.91-.28,1.64-.28h2.58V1.93H2.8c-.13,.65-1.08,1.18-1.88,.86C.37,2.58,.11,2.16,0,1.49c-.03-.22,.07-.46,.13-.61C.34,.4,.95-.14,1.72,.03c.51,.12,.95,.45,1.08,.93h3.12c.44,0,.98-.07,1.17,.18,.16,.2,.1,.7,.1,1.06v2.6ZM1.39,.98c-.19,.08-.33,.13-.39,.34-.1,.32,.19,.67,.5,.62,.6-.1,.58-.97-.11-.96Zm3.31,6.69c-.13,.06-.29,.04-.41,.09-.39,.16-.68,.45-.83,.83-.33,.84,.22,1.59,.8,1.84,.16,.07,.4,.16,.65,.11,.59-.1,.96-.35,1.19-.8,.43-.85-.11-1.67-.7-1.96-.19-.09-.42-.12-.7-.12Zm3.8,0c-.12,.05-.26,.04-.37,.09-.43,.17-.74,.5-.88,.96-.25,.81,.3,1.49,.82,1.71,.16,.07,.41,.16,.67,.12,.59-.1,1-.36,1.21-.83,.49-1.11-.34-2.05-1.44-2.05Zm-3.72,.96c.62,0,.66,.84,.13,.95-.4,.08-.69-.31-.55-.65,.08-.19,.21-.22,.42-.29Zm3.83,0c.63,0,.67,.85,.1,.96-.34,.06-.64-.29-.53-.62,.07-.22,.21-.25,.43-.34Z" style="fill-rule:evenodd;"/></svg>