<svg xmlns="http://www.w3.org/2000/svg" xmlns:xlink="http://www.w3.org/1999/xlink" width="1024" zoomAndPan="magnify" viewBox="0 0 768 767.999994" height="1024" preserveAspectRatio="xMidYMid meet" version="1.0"><defs><clipPath id="809f119566"><path d="M 28.625 28.625 L 739.375 28.625 L 739.375 739.375 L 28.625 739.375 Z M 28.625 28.625 " clip-rule="nonzero"/></clipPath><clipPath id="1d9a70767d"><path d="M 384 28.625 C 187.730469 28.625 28.625 187.730469 28.625 384 C 28.625 580.269531 187.730469 739.375 384 739.375 C 580.269531 739.375 739.375 580.269531 739.375 384 C 739.375 187.730469 580.269531 28.625 384 28.625 Z M 384 28.625 " clip-rule="nonzero"/></clipPath><clipPath id="371f2f2928"><path d="M 28.625 28.625 L 739.367188 28.625 L 739.367188 739.367188 L 28.625 739.367188 Z M 28.625 28.625 " clip-rule="nonzero"/></clipPath><clipPath id="69750bf12a"><path d="M 383.996094 28.625 C 187.730469 28.625 28.625 187.730469 28.625 383.996094 C 28.625 580.261719 187.730469 739.367188 383.996094 739.367188 C 580.261719 739.367188 739.367188 580.261719 739.367188 383.996094 C 739.367188 187.730469 580.261719 28.625 383.996094 28.625 Z M 383.996094 28.625 " clip-rule="nonzero"/></clipPath></defs><g clip-path="url(#809f119566)"><g clip-path="url(#1d9a70767d)"><path fill="#231815" d="M 28.625 28.625 L 739.375 28.625 L 739.375 739.375 L 28.625 739.375 Z M 28.625 28.625 " fill-opacity="1" fill-rule="nonzero"/></g></g><g clip-path="url(#371f2f2928)"><g clip-path="url(#69750bf12a)"><path stroke-linecap="butt" transform="matrix(0.75, 0, 0, 0.75, 28.625973, 28.625995)" fill="none" stroke-linejoin="miter" d="M 473.826852 -0.00132675 C 212.139339 -0.00132675 -0.00129672 212.139309 -0.00129672 473.826822 C -0.00129672 735.514335 212.139339 947.65497 473.826852 947.65497 C 735.514365 947.65497 947.655 735.514335 947.655 473.826822 C 947.655 212.139309 735.514365 -0.00132675 473.826852 -0.00132675 Z M 473.826852 -0.00132675 " stroke="#000000" stroke-width="30" stroke-opacity="1" stroke-miterlimit="4"/></g></g><path fill="#ffffff" d="M 337.933594 338.167969 L 369.003906 338.167969 L 352.574219 311.734375 L 322.480469 359.558594 L 308.734375 359.558594 L 345.414062 302.136719 C 346.960938 299.777344 349.644531 298.394531 352.574219 298.394531 C 355.417969 298.394531 358.105469 299.777344 359.648438 302.054688 L 396.414062 359.558594 L 382.667969 359.558594 L 376.160156 348.90625 L 344.765625 348.90625 L 337.933594 338.167969 " fill-opacity="1" fill-rule="nonzero"/><path fill="#ffffff" d="M 480.351562 348.824219 L 480.351562 298.964844 L 468.71875 298.964844 L 468.71875 353.703125 C 468.71875 355.167969 469.371094 356.632812 470.429688 357.6875 C 471.566406 358.828125 473.03125 359.476562 474.65625 359.476562 L 527.6875 359.476562 L 534.601562 348.824219 L 480.351562 348.824219 " fill-opacity="1" fill-rule="nonzero"/><path fill="#ffffff" d="M 287.828125 339.957031 C 299.136719 339.957031 308.246094 330.765625 308.246094 319.460938 C 308.246094 308.15625 299.136719 298.964844 287.828125 298.964844 L 236.914062 298.964844 L 236.914062 359.476562 L 248.542969 359.476562 L 248.542969 309.621094 L 287.015625 309.621094 C 292.382812 309.621094 296.777344 314.011719 296.777344 319.378906 C 296.777344 324.746094 292.382812 329.222656 287.015625 329.222656 L 254.15625 329.222656 L 288.886719 359.476562 L 305.804688 359.476562 L 282.460938 339.875 L 287.828125 339.875 " fill-opacity="1" fill-rule="nonzero"/><path fill="#ffffff" d="M 165.257812 359.558594 C 148.5 359.558594 135 346.058594 135 329.304688 C 135 312.546875 148.582031 299.046875 165.257812 299.046875 L 200.476562 299.046875 C 217.230469 299.046875 230.652344 312.628906 230.652344 329.304688 C 230.652344 346.058594 217.148438 359.558594 200.476562 359.558594 L 165.257812 359.558594 M 199.660156 348.90625 C 210.480469 348.90625 219.265625 340.121094 219.265625 329.304688 C 219.265625 318.484375 210.480469 309.699219 199.660156 309.699219 L 166.070312 309.699219 C 155.253906 309.699219 146.46875 318.484375 146.46875 329.304688 C 146.46875 340.121094 155.253906 348.90625 166.070312 348.90625 L 199.660156 348.90625 " fill-opacity="1" fill-rule="nonzero"/><path fill="#ffffff" d="M 420.652344 359.558594 C 403.894531 359.558594 390.3125 346.058594 390.3125 329.304688 C 390.3125 312.546875 403.894531 299.046875 420.652344 299.046875 L 462.457031 299.046875 L 455.542969 309.699219 L 421.382812 309.699219 C 410.484375 309.699219 401.78125 318.484375 401.78125 329.304688 C 401.78125 340.121094 410.566406 348.90625 421.382812 348.90625 L 463.269531 348.90625 L 456.4375 359.558594 L 420.652344 359.558594 " fill-opacity="1" fill-rule="nonzero"/><path fill="#ffffff" d="M 562.988281 348.90625 C 554.042969 348.90625 546.476562 342.886719 544.117188 334.671875 L 593.894531 334.671875 L 600.726562 324.015625 L 544.117188 324.015625 C 546.476562 315.800781 554.042969 309.78125 562.988281 309.78125 L 597.148438 309.78125 L 603.980469 299.128906 L 562.257812 299.128906 C 545.582031 299.128906 532 312.710938 532 329.382812 C 532 346.140625 545.582031 359.640625 562.257812 359.640625 L 598.207031 359.640625 L 605.039062 348.984375 L 562.988281 348.984375 " fill-opacity="1" fill-rule="nonzero"/><path fill="#ffffff" d="M 610.246094 305.472656 C 610.246094 302.542969 612.601562 300.101562 615.613281 300.101562 C 618.621094 300.101562 620.980469 302.460938 620.980469 305.472656 C 620.980469 308.398438 618.621094 310.839844 615.613281 310.839844 C 612.601562 310.839844 610.246094 308.398438 610.246094 305.472656 M 615.613281 312.304688 C 619.355469 312.304688 622.363281 309.292969 622.363281 305.554688 C 622.363281 301.8125 619.355469 298.71875 615.613281 298.71875 C 611.789062 298.71875 608.78125 301.8125 608.78125 305.554688 C 608.78125 309.292969 611.789062 312.304688 615.613281 312.304688 M 614.960938 301.484375 C 616.019531 301.484375 616.425781 301.566406 616.996094 301.730469 C 618.296875 302.136719 618.460938 303.4375 618.460938 303.84375 L 618.378906 304.496094 L 617.402344 305.796875 L 617.078125 305.960938 L 618.867188 309.132812 L 617.15625 309.132812 L 615.613281 306.203125 L 614.554688 306.203125 L 614.554688 309.132812 L 613.007812 309.132812 L 613.007812 301.484375 L 614.960938 301.484375 M 615.53125 304.902344 L 616.75 304.414062 L 616.996094 303.761719 L 616.425781 302.867188 L 615.042969 302.707031 L 614.636719 302.707031 L 614.636719 304.902344 L 615.53125 304.902344 " fill-opacity="1" fill-rule="nonzero"/><path fill="#ffffff" d="M 134.347656 390.304688 L 606.097656 390.304688 L 606.097656 393.640625 L 134.347656 393.640625 Z M 134.347656 390.304688 " fill-opacity="1" fill-rule="nonzero"/><path fill="#ffffff" d="M 187.867188 424.382812 L 196.328125 424.382812 L 196.328125 440.164062 L 211.210938 440.164062 L 211.210938 424.382812 L 219.75 424.382812 L 219.75 463.832031 L 211.292969 463.832031 L 211.292969 446.507812 L 196.328125 446.507812 L 196.328125 463.832031 L 187.867188 463.832031 Z M 187.867188 424.382812 " fill-opacity="1" fill-rule="nonzero"/><path fill="#ffffff" d="M 247.242188 423.570312 C 251.472656 423.570312 257.246094 424.546875 261.070312 428.9375 C 265.300781 433.738281 266.113281 439.917969 266.113281 443.742188 C 266.113281 449.4375 264.324219 455.617188 261.152344 459.195312 C 256.757812 464.074219 250.414062 464.808594 247.160156 464.808594 C 241.957031 464.808594 236.75 463.179688 233.171875 459.441406 C 228.863281 454.886719 228.292969 448.296875 228.292969 444.71875 C 228.292969 434.226562 233.007812 423.570312 247.242188 423.570312 M 240.085938 455.375 C 241.304688 457 243.339844 458.546875 247.242188 458.546875 C 250.660156 458.546875 253.019531 457.324219 254.644531 454.886719 C 255.945312 452.933594 257.328125 449.84375 257.328125 443.578125 C 257.328125 441.707031 257.167969 438.941406 256.351562 436.503906 C 254.726562 431.625 251.390625 429.507812 247.324219 429.507812 C 244.152344 429.507812 241.632812 430.808594 240.085938 432.84375 C 237.808594 435.609375 237.15625 439.839844 237.15625 444.3125 C 237.15625 448.132812 237.726562 452.363281 240.085938 455.375 " fill-opacity="1" fill-rule="nonzero"/><path fill="#ffffff" d="M 281.078125 451.226562 C 281.078125 453.09375 280.996094 458.707031 288.238281 458.707031 C 292.792969 458.707031 295.71875 456.511719 295.71875 453.175781 C 295.71875 449.679688 293.277344 449.109375 288.238281 447.890625 C 278.882812 445.53125 273.757812 442.765625 273.757812 435.933594 C 273.757812 429.425781 278.394531 423.734375 289.375 423.734375 C 293.441406 423.734375 298.320312 424.628906 301.25 428.371094 C 303.445312 431.214844 303.445312 434.386719 303.445312 435.691406 L 295.3125 435.691406 C 295.230469 434.308594 294.742188 429.671875 288.96875 429.671875 C 285.0625 429.671875 282.460938 431.785156 282.460938 435.039062 C 282.460938 438.699219 285.390625 439.351562 291 440.734375 C 297.835938 442.359375 304.503906 444.230469 304.503906 451.875 C 304.503906 458.953125 298.648438 464.726562 287.667969 464.726562 C 272.539062 464.726562 272.457031 455.046875 272.375 451.226562 Z M 281.078125 451.226562 " fill-opacity="1" fill-rule="nonzero"/><path fill="#ffffff" d="M 312.882812 424.464844 L 325.082031 424.464844 C 330.773438 424.464844 335.492188 424.871094 338.746094 428.777344 C 340.859375 431.296875 341.1875 434.144531 341.1875 436.179688 C 341.1875 440.734375 339.316406 444.636719 336.144531 446.671875 C 333.214844 448.539062 329.230469 448.539062 327.195312 448.539062 L 321.503906 448.539062 L 321.503906 463.914062 L 312.960938 463.914062 L 312.960938 424.464844 Z M 321.257812 442.195312 L 324.675781 442.195312 C 327.441406 442.195312 332.484375 442.195312 332.484375 436.179688 C 332.484375 430.808594 327.929688 430.808594 325.570312 430.808594 L 321.339844 430.808594 L 321.339844 442.195312 Z M 321.257812 442.195312 " fill-opacity="1" fill-rule="nonzero"/><path fill="#ffffff" d="M 348.097656 424.222656 L 356.558594 424.222656 L 356.558594 463.75 L 348.097656 463.75 Z M 348.097656 424.222656 " fill-opacity="1" fill-rule="nonzero"/><path fill="#ffffff" d="M 374.859375 430.890625 L 363.148438 430.890625 L 363.148438 424.382812 L 395.113281 424.382812 L 395.113281 430.890625 L 383.398438 430.890625 L 383.398438 463.832031 L 374.859375 463.832031 Z M 374.859375 430.890625 " fill-opacity="1" fill-rule="nonzero"/><path fill="#ffffff" d="M 418.617188 424.382812 L 432.28125 463.832031 L 423.742188 463.832031 L 420.894531 455.292969 L 405.277344 455.292969 L 402.351562 463.832031 L 394.296875 463.832031 L 408.53125 424.382812 Z M 418.863281 448.949219 L 413.410156 432.109375 L 407.554688 448.949219 Z M 418.863281 448.949219 " fill-opacity="1" fill-rule="nonzero"/><path fill="#ffffff" d="M 439.359375 424.382812 L 447.980469 424.382812 L 447.980469 457.082031 L 464.898438 457.082031 L 464.898438 463.832031 L 439.359375 463.832031 Z M 439.359375 424.382812 " fill-opacity="1" fill-rule="nonzero"/><path fill="#ffffff" d="M 471.566406 424.222656 L 480.027344 424.222656 L 480.027344 463.75 L 471.566406 463.75 Z M 471.566406 424.222656 " fill-opacity="1" fill-rule="nonzero"/><path fill="#ffffff" d="M 498.40625 430.890625 L 486.613281 430.890625 L 486.613281 424.382812 L 518.578125 424.382812 L 518.578125 430.890625 L 506.867188 430.890625 L 506.867188 463.832031 L 498.40625 463.832031 Z M 498.40625 430.890625 " fill-opacity="1" fill-rule="nonzero"/><path fill="#ffffff" d="M 533.789062 424.546875 L 541.921875 442.441406 L 550.21875 424.546875 L 558.839844 424.546875 L 545.582031 449.4375 L 545.582031 463.832031 L 537.203125 463.832031 L 537.203125 449.355469 L 523.867188 424.546875 Z M 533.789062 424.546875 " fill-opacity="1" fill-rule="nonzero"/></svg>