<?xml version="1.0" encoding="UTF-8"?><svg width="1024" height="1024" preserveAspectRatio="xMidYMid" version="1.1" viewBox="0 -3e-06 768 768" xmlns="http://www.w3.org/2000/svg" xmlns:xlink="http://www.w3.org/1999/xlink"><defs><clipPath id="a"><path d="M76 76.8008h641V691H76Z"/></clipPath><clipPath id="b"><path d="M242.922 76.8008v613.613c1.80078.128907 3.59766.128907 5.39844.128907h295.629V76.8008Zm347.281 0H543.949v613.613h1.02734c74.7734 0 140.43-61.0273 145.824-135.543l25.3086-342.656c5.52734-74.3867-51.1328-135.414-125.906-135.414Zm-387.109 0c-74.7734 0-131.434 61.0273-125.91 135.543L102.496 555C107.891 627.719 170.59 687.59 243.051 690.414V76.8008Z"/></clipPath><clipPath id="c"><path d="M252 433h70v70.082h-70Z"/></clipPath><clipPath id="d"><path d="M154 433h71v70.082h-71Z"/></clipPath><clipPath id="e"><path d="M349 433h70v70.082h-70Z"/></clipPath><clipPath id="f"><path d="M543 433h71v70.082h-71Z"/></clipPath><clipPath id="g"><path d="M446 433h71v70.082h-71Z"/></clipPath><clipPath id="h"><path d="M149.668 295H231v81h-81.332Z"/></clipPath><clipPath id="i"><path d="M440 264.582h82V375h-82Z"/></clipPath><clipPath id="j"><path d="M537 295h81.418v81H537Z"/></clipPath><path id="k" d="M-76.8-76.8h921.6v921.6H-76.8Z"/></defs><g fill="#FFF"><use xlink:href="#k"/><use xlink:href="#k"/></g><g clip-path="url(#a)"><path clip-path="url(#b)" fill="#000" d="M76.8008 76.8008H716.09v613.613H76.8008Z"/></g><g fill="#FFF"><path clip-path="url(#c)" d="M286.895 433.602c-19.1797 0-34.7734 15.5742-34.7734 34.7187 0 19.1445 15.5859 34.7227 34.7734 34.7227 19.1875 0 34.7578-15.5781 34.7578-34.7227 0-19.1445-15.5938-34.7187-34.7578-34.7187"/><path clip-path="url(#d)" d="M189.703 433.602c-19.1797 0-34.7734 15.582-34.7734 34.7187 0 19.1367 15.5938 34.7227 34.7734 34.7227s34.7773-15.5781 34.7773-34.7227c0-19.1445-15.5977-34.7187-34.7773-34.7187"/><path clip-path="url(#e)" d="M384.066 433.602c-19.1641 0-34.7734 15.582-34.7734 34.7187 0 19.1367 15.6094 34.7227 34.7734 34.7227s34.7773-15.5781 34.7773-34.7227c0-19.1445-15.6016-34.7187-34.7773-34.7187"/><path clip-path="url(#f)" d="M578.426 433.602c-19.1758 0-34.7734 15.5742-34.7734 34.7187 0 19.1445 15.5977 34.7227 34.7734 34.7227s34.7734-15.5781 34.7734-34.7227c0-19.1445-15.5977-34.7187-34.7734-34.7187"/><path clip-path="url(#g)" d="M481.246 433.602c-19.1758 0-34.7773 15.5781-34.7773 34.7187 0 19.1445 15.6016 34.7187 34.7773 34.7187 19.1758 0 34.7852-15.5703 34.7852-34.7187s-15.5938-34.7187-34.7695-34.7187"/><path clip-path="url(#h)" d="M218.691 335.219c0-16.2344-12.2695-28.4844-28.5313-28.4844 -16.2578 0-28.5273 12.25-28.5273 28.4844 0 16.2305 12.2695 28.4844 28.5273 28.4844 16.2617 0 28.5313-12.2539 28.5313-28.4844m-69.0234 0c0-22.5117 18.1016-39.5078 40.4922-39.5078 22.5469 0 40.4961 16.8438 40.4961 39.3516v34.6133c0 3.52344-2.45703 5.97266-6.13672 5.97266 -3.83594 0-6.13672-2.44922-6.13672-5.97266V359.566H217.77c-4.75391 8.11719-14.2617 15.168-28.375 15.168 -21.7813-.007813-39.7266-16.8516-39.7266-39.5156"/><path d="M315.633 335.219c0-16.2344-12.2695-28.4844-28.5313-28.4844 -16.2578 0-28.5273 12.25-28.5273 28.4844 0 16.2305 12.2695 28.4844 28.5273 28.4844s28.5313-12.2539 28.5313-28.4844M262.254 400.305C259.035 398.762 257.5 396.016 258.727 392.797 259.957 389.43 263.023 388.055 266.242 389.582 272.512 392.52 279.105 394 286.027 394.023c18.2539 0 29.2969-10.8711 29.2969-29.4023V359.566H314.711c-4.75391 8.11719-14.2656 15.168-28.375 15.168 -21.7813 0-39.7266-16.8477-39.7266-39.5117 0-22.5117 18.1016-39.5078 40.4922-39.5078 22.5508 0 40.4961 16.8438 40.4961 39.3555v28.7734c0 24.8125-15.9648 41.5-42.0313 41.5 -7.98047 0-15.9609-1.54297-23.3125-5.05078"/><path d="M412.574 335.219c0-16.2344-12.2734-28.4844-28.5273-28.4844 -16.2578 0-28.5313 12.25-28.5313 28.4844 0 16.2305 12.2695 28.4844 28.5313 28.4844 16.2617 0 28.5273-12.2539 28.5273-28.4844m-69.0234 0c0-22.5117 17.9492-39.5078 40.4961-39.5078 22.5469 0 40.4883 16.9961 40.4883 39.5078s-17.9414 39.5078-40.4883 39.5078 -40.4961-16.9961-40.4961-39.5078"/><path clip-path="url(#i)" d="M509.516 335.219c0-16.2344-12.2734-28.4844-28.5273-28.4844 -16.2578 0-28.5313 12.25-28.5313 28.4844 0 16.2305 12.2695 28.4844 28.5313 28.4844 16.2617 0 28.5273-12.2539 28.5273-28.4844m-69.0234 0c0-22.5117 17.793-39.5078 39.7266-39.5078 14.1133 0 23.6211 7.04297 28.375 15.1641h.613281V270.594c0-3.52344 2.44922-5.97266 6.13672-5.97266 3.83594 0 6.13281 2.44922 6.13281 5.97266v64.7773c0 22.5156-17.9453 39.3594-40.4883 39.3594 -22.3984 0-40.4961-16.9961-40.4961-39.5078"/><path clip-path="url(#j)" d="M606.457 335.219c0-16.2344-12.2734-28.4844-28.5273-28.4844 -16.2578 0-28.5313 12.25-28.5313 28.4844 0 16.2305 12.2695 28.4844 28.5313 28.4844 16.2578 0 28.5273-12.2539 28.5273-28.4844m-69.0234 0c0-22.5117 18.1016-39.5078 40.4961-39.5078 22.543 0 40.4883 16.8438 40.4883 39.3516v34.6133c0 3.52344-2.45312 5.97266-6.13281 5.97266 -3.83594 0-6.13672-2.44922-6.13672-5.97266V359.566H605.535c-4.75391 8.11719-14.2617 15.168-28.375 15.168 -21.7813 0-39.7266-16.8477-39.7266-39.5117"/></g></svg>