<?xml version="1.0" encoding="UTF-8"?><svg width="1024" height="1024" preserveAspectRatio="xMidYMid" version="1.1" viewBox="0 -3e-06 768 768" xmlns="http://www.w3.org/2000/svg" xmlns:xlink="http://www.w3.org/1999/xlink"><defs><clipPath id="a"><use xlink:href="#c"/></clipPath><clipPath id="b"><path d="M384 28.625C187.73 28.625 28.625 187.73 28.625 384c0 196.27 159.105 355.375 355.375 355.375 196.27 0 355.375-159.105 355.375-355.375C739.375 187.73 580.27 28.625 384 28.625Z"/></clipPath><path id="c" d="M28.625 28.625h710.75v710.75H28.625Z"/><path id="d" d="M-76.8-76.8h921.6v921.6H-76.8Z"/></defs><g fill="#FFF"><use xlink:href="#d"/><use xlink:href="#d"/></g><g clip-path="url(#a)"><use clip-path="url(#b)" fill="#000" xlink:href="#c"/></g><path fill="#FFF" d="M399.512 339.445c0 6.45313-5.19922 11.6523-11.6523 11.6523 -6.45703 0-11.6563-5.19922-11.6563-11.6523 0-6.45703 5.01953-11.6562 11.6563-11.6562 6.63281.179688 11.6523 5.37891 11.6523 11.6562ZM351.461 362.93v2.87109s-5.55469-7.17188-17.3906-7.17188c-19.543 0-34.7813 14.8789-34.7813 35.5 0 20.4375 15.0625 35.4961 34.7813 35.4961 12.0117 0 17.3906-7.34766 17.3906-7.34766v3.04687c0 1.43359 1.07812 2.50781 2.51172 2.50781h14.5234V360.422H353.973c-1.43359 0-2.51172 1.25391-2.51172 2.50781Zm0 43.2109c-2.6875 3.94141-8.06641 7.35156-14.5195 7.35156 -11.4766 0-20.2617-7.17188-20.2617-19.3633 0-12.1914 8.78516-19.3633 20.2617-19.3633 6.27344 0 12.0117 3.58594 14.5195 7.34766Zm27.793-45.7187h17.2109v67.4102H379.254Zm257.098-1.79297c-11.832 0-17.3906 7.17188-17.3906 7.17188v-37.832H601.75v99.8633h14.5234c1.43359 0 2.50781-1.25391 2.50781-2.50781V422.277s5.55859 7.34766 17.3906 7.34766c19.543 0 34.7813-15.0586 34.7813-35.4961 0-20.4414-15.2383-35.5-34.6016-35.5ZM633.484 413.312c-6.63281 0-11.832-3.40625-14.5234-7.35156V381.938c2.69141-3.58594 8.42578-7.35156 14.5234-7.35156 11.4727 0 20.2578 7.17187 20.2578 19.3633 0 12.1914-8.78516 19.3633-20.2578 19.3633ZM592.785 387.852v40.1602H575.574V389.824c0-11.1172-3.58594-15.5977-13.2695-15.5977 -5.19922 0-10.5781 2.6875-13.9844 6.63281v46.9727H531.109V360.422h13.625c1.4375 0 2.51172 1.25391 2.51172 2.50781v2.87109c5.01953-5.19922 11.6523-7.17188 18.2852-7.17188 7.53125 0 13.8086 2.15234 18.8281 6.45313 6.09375 5.01953 8.42578 11.4766 8.42578 22.7695ZM489.336 358.629c-11.832 0-17.3906 7.17188-17.3906 7.17188v-37.832H454.734v99.8633h14.5195c1.4375 0 2.51172-1.25391 2.51172-2.50781V422.277s5.55859 7.34766 17.3906 7.34766c19.543 0 34.7813-15.0586 34.7813-35.4961 .179688-20.4414-15.0586-35.5-34.6016-35.5ZM486.469 413.312c-6.63672 0-11.8359-3.40625-14.5234-7.35156V381.938c2.6875-3.58594 8.42578-7.35156 14.5234-7.35156 11.4727 0 20.2578 7.17187 20.2578 19.3633 0 12.1914-8.78516 19.3633-20.2578 19.3633ZM439.852 358.629c5.19922 0 7.89063.894532 7.89063.894532v15.957s-14.3438-4.83984-23.3086 5.37891v47.1523H407.223V360.422h14.5195c1.4375 0 2.51172 1.25391 2.51172 2.50781v2.87109C427.48 362.035 434.473 358.629 439.852 358.629Zm-178.75 63.1094C260.203 419.586 259.309 417.254 258.41 415.285 256.977 412.055 255.543 409.008 254.289 406.141L254.109 405.961c-12.3711-26.8945-25.6406-54.1445-39.625-81.0391L213.949 323.848C212.516 321.156 211.078 318.289 209.645 315.418 207.852 312.191 206.059 308.785 203.191 305.559 197.453 298.387 189.207 294.441 180.422 294.441c-8.96484 0-17.0312 3.94531-22.9492 10.7578C154.781 308.426 152.813 311.832 151.02 315.062 149.582 317.93 148.148 320.797 146.715 323.488L146.176 324.562c-13.8047 26.8945-27.25 54.1445-39.6211 81.0391l-.179688.359376c-1.25391 2.86719-2.6875 5.91406-4.125 9.14453 -.894531 1.97266-1.79297 4.12109-2.6875 6.45313 -2.33203 6.63281-3.04687 12.9102-2.15234 19.3633 1.97266 13.4453 10.9375 24.7422 23.3086 29.7617 4.66016 1.97266 9.5 2.86719 14.5234 2.86719 1.43359 0 3.22656-.179687 4.66016-.355469 5.91797-.71875 12.0117-2.69141 17.9297-6.09766 7.35156-4.125 14.3438-10.0391 22.2305-18.6445 7.89062 8.60547 15.0586 14.5195 22.2305 18.6445 5.91797 3.40625 12.0156 5.37891 17.9297 6.09766 1.43359.175782 3.22656.355469 4.66406.355469 5.01953 0 10.0391-.894531 14.5195-2.86719 12.5508-5.01953 21.3359-16.4961 23.3086-29.7617 1.43359-6.27734.71875-12.5508-1.61328-19.1836ZM180.242 431.062c-9.68359-12.1953-15.957-23.668-18.1094-33.3477 -.894531-4.125-1.07422-7.71094-.535156-10.9375 .355469-2.87109 1.43359-5.37891 2.86719-7.53125 3.40625-4.83984 9.14453-7.88672 15.7773-7.88672 6.63281 0 12.5508 2.86719 15.7773 7.88672 1.43359 2.15234 2.51172 4.66016 2.86719 7.53125 .539062 3.22656.359375 6.99219-.535157 10.9375 -2.15234 9.5-8.42969 20.9766-18.1094 33.3477Zm71.5352 8.42578C250.523 448.809 244.246 456.879 235.461 460.465 231.16 462.258 226.5 462.793 221.836 462.258c-4.48047-.539062-8.96484-1.97266-13.625-4.66406 -6.45313-3.58594-12.9102-9.14062-20.4375-17.3906 11.832-14.5195 19.0039-27.7891 21.6914-39.6211 1.25781-5.55859 1.43359-10.5781.898437-15.2383 -.71875-4.48438-2.33203-8.60938-4.83984-12.1914 -5.55859-8.07031-14.8828-12.7305-25.2812-12.7305 -10.3984 0-19.7227 4.83984-25.2812 12.7305C152.453 376.734 150.84 380.859 150.121 385.344c-.71875 4.66016-.539063 9.85938.898437 15.2383 2.6875 11.832 10.0391 25.2773 21.6914 39.8008 -7.35156 8.25-13.9844 13.8047-20.4375 17.3906 -4.66016 2.69141-9.14453 4.125-13.625 4.66406 -4.84375.535156-9.50391-.179688-13.6289-1.79297 -8.78516-3.58594-15.0586-11.6563-16.3125-20.9766C108.168 435.184 108.527 430.703 110.32 425.684c.535157-1.79297 1.43359-3.58594 2.32813-5.73828 1.25781-2.87109 2.69141-5.91797 4.125-8.96484l.179687-.359375c12.3711-26.7148 25.6367-53.9648 39.4453-80.5l.535156-1.07422c1.43359-2.69141 2.87109-5.55859 4.30469-8.25C162.672 317.93 164.285 315.238 166.258 312.91c3.76563-4.30469 8.78516-6.63281 14.3438-6.63281 5.55859 0 10.5781 2.32812 14.3438 6.63281C196.914 315.238 198.531 317.93 199.965 320.797c1.43359 2.69141 2.86719 5.55859 4.30078 8.25l.539063 1.07422C218.43 356.836 231.699 384.086 244.07 410.801V410.98c1.43359 2.86719 2.6875 6.09375 4.12109 8.96484C249.09 422.098 249.984 423.891 250.523 425.684c1.43359 4.66016 1.97266 9.14062 1.25391 13.8047Z"/></svg>