<?xml version="1.0" encoding="UTF-8"?><svg width="1024" height="1024" preserveAspectRatio="xMidYMid" version="1.1" viewBox="0 -3e-06 768 768" xmlns="http://www.w3.org/2000/svg" xmlns:xlink="http://www.w3.org/1999/xlink"><defs><clipPath id="a"><use xlink:href="#d"/></clipPath><clipPath id="b"><path d="M384 28.625C187.73 28.625 28.625 187.734 28.625 384c0 196.27 159.105 355.375 355.375 355.375 196.27 0 355.375-159.105 355.375-355.375C739.375 187.734 580.27 28.625 384 28.625Z"/></clipPath><clipPath id="c"><path d="M101.793 344.781h589.711v78.4297H101.793Z"/></clipPath><path id="d" d="M28.625 28.625h710.75v710.75H28.625Z"/><path id="e" d="M-76.8-76.8h921.6v921.6H-76.8Z"/></defs><g fill="#FFF"><use xlink:href="#e"/><use xlink:href="#e"/></g><g clip-path="url(#a)"><use clip-path="url(#b)" fill="#000" xlink:href="#d"/></g><path clip-path="url(#c)" fill="#FFF" d="M472.586 419.613s12.9648 3.59766 29.5195 3.59766c17.6445 0 25.8125-1.96094 25.8125-1.96094V408.176s-8.82031 1.74609-21.1289 1.74609c-10.7812 0-17.4297-1.41797-17.4297-1.41797V389.988h33.4453V376.914H489.359V359.27s6.53516-1.19922 16.3398-1.19922c11.0039 0 20.9141 1.74219 20.9141 1.74219V346.633s-8.71484-1.85156-22.875-1.85156c-18.8438 0-31.1523 3.37891-31.1523 3.37891ZM233.598 389.875c-.4375 1.08984-.980468 3.16016-1.30859 4.35937 -.324218-1.19922-.871093-3.26953-1.30469-4.35937L216.168 351.863C213.664 345.543 209.742 344.781 202.555 344.781c-2.50781 0-7.62891.324219-7.62891.324219l-7.625 77.0156h16.8867l3.70312-51.6328 16.0117 39.1055C225.102 412.645 227.496 413.84 232.289 413.84c4.79297 0 7.19141-1.19531 8.38672-4.24609l16.0117-39.1055 3.70703 51.6328h16.8828l-7.625-77.0156s-5.12109-.324219-7.625-.324219c-7.1875 0-11.1094.761719-13.6172 7.08203ZM149.07 405.672c-3.59766 1.41797-12.3125 4.25-18.7383 4.25 -6.97266 0-12.1992-2.39844-12.1992-10.0234 0-6.64453 3.59375-10.457 13.1836-10.7852L149.07 388.461ZM139.047 344.781c-15.0312 0-26.7969 3.70312-31.3711 5.99219L111.27 363.406s11.5508-4.13672 22.875-4.13672c9.69531 0 14.707 2.72266 14.707 12.3086v5.44531h-14.707c-24.9453 0-32.3516 11.4375-32.3516 24.0742 0 16.7734 13.0703 22.1133 24.9453 22.1133 13.832 0 21.8945-5.77344 22.875-5.77344 .761719 0 3.59375 3.04687 16.2305 3.04687v-53.375c0-16.0078-9.91406-22.3281-26.7969-22.3281Zm202.172 60.8906c-3.59375 1.41797-12.3086 4.25-18.7344 4.25 -6.97266 0-12.2031-2.39844-12.2031-10.0234 0-6.64453 3.59766-10.457 13.1836-10.7852l17.7539-.652343ZM331.195 344.781c-15.0312 0-26.7969 3.70312-31.3711 5.99219l3.59375 12.6328s11.5508-4.13672 22.875-4.13672C335.988 359.27 341 361.992 341 371.578v5.44531h-14.707c-24.9414 0-32.3516 11.4375-32.3516 24.0742 0 16.7734 13.0742 22.1133 24.9453 22.1133 13.8359 0 21.8945-5.77344 22.875-5.77344 .761719 0 3.59375 3.04687 16.2305 3.04687v-53.375c0-16.0078-9.91016-22.3281-26.7969-22.3281Zm267.203 58.168C594.367 404.906 585.656 408.176 577.703 408.176c-11.5508 0-13.5078-5.22656-13.5078-17.2109V345.434H561.688c-3.80859 0-12.3086.652344-14.375 1.08984v46.6211c0 20.3711 5.01172 30.0664 25.7031 30.0664 15.7969 0 25.0547-6.10156 25.707-6.10156 .21875 0 5.66797 3.375 16.5625 3.375V346.523c-1.19922-.21875-9.37109-1.08984-13.5117-1.08984h-3.375Zm36.832 17.5352s10.457 2.72656 25.0508 2.72656c13.8359 0 31.2656-4.68359 31.2656-23.418 0-12.2031-9.04297-17.4336-23.75-22.7695C659.848 374.082 653.094 371.469 653.094 366.02c0-2.61328 1.96094-7.73047 12.0898-7.73047 9.47656 0 19.1719 4.35547 19.1719 4.35547l4.25-12.5273C685.77 348.703 676.512 344.781 663.66 344.781c-13.9414 0-27.5586 7.40625-27.5586 22.3281 0 15.3633 13.9414 20.0469 24.832 23.6406C668.344 393.254 674.555 395.871 674.555 400.77c0 4.79297-2.61719 8.93359-15.1445 8.93359 -10.2383 0-21.1328-2.28906-21.1328-2.28906ZM399.383 359.379C402.109 358.832 407.445 358.07 412.785 358.07c12.1992 0 21.7852 6.86328 21.7852 25.3828 0 17.9727-4.6875 26.4688-23.3086 26.4688 -5.99219 0-11.8789-.871094-11.8789-.871094Zm14.1641-14.5977c-9.58594 0-22.875 1.63281-31.0469 4.57422v71.5664C389.258 422.34 401.895 423.211 410.715 423.211c30.0625 0 41.7187-11.7656 41.7187-39.7578 0-24.1836-14.8164-38.6719-38.8867-38.6719"/></svg>