<?xml version="1.0" encoding="UTF-8"?><svg width="1024" height="1024" preserveAspectRatio="xMidYMid" version="1.1" viewBox="0 -3e-06 768 768" xmlns="http://www.w3.org/2000/svg" xmlns:xlink="http://www.w3.org/1999/xlink"><defs><clipPath id="a"><path d="M76 77.5859h641V692H76Z"/></clipPath><clipPath id="b"><path d="M242.922 77.5859v613.613c1.80078.128906 3.59766.128906 5.39844.128906h295.629V77.5859Zm347.281 0H543.949v613.613h1.02734c74.7734 0 140.43-61.0273 145.824-135.543L716.109 213c5.52734-74.3867-51.1328-135.414-125.906-135.414Zm-387.109 0c-74.7734 0-131.434 61.0273-125.91 135.543l25.3125 342.656c5.39453 72.7188 68.0937 132.59 140.555 135.414V77.586Z"/></clipPath><clipPath id="c"><path d="M136.121 349.742h521.043v69.293H136.121Z"/></clipPath><path id="d" d="M-76.8-76.8h921.6v921.6H-76.8Z"/></defs><g fill="#FFF"><use xlink:href="#d"/><use xlink:href="#d"/></g><g clip-path="url(#a)"><path clip-path="url(#b)" fill="#000" d="M76.8008 77.5859H716.09v613.613H76.8008Z"/></g><path clip-path="url(#c)" fill="#FFF" d="M463.738 415.859s11.4531 3.17578 26.082 3.17578c15.5898 0 22.8086-1.73047 22.8086-1.73047V405.754s-7.79297 1.54297-18.6719 1.54297c-9.52344 0-15.3984-1.25391-15.3984-1.25391V389.684h29.5508V378.133H478.559V362.543s5.77734-1.05859 14.4375-1.05859c9.72266 0 18.4805 1.53906 18.4805 1.53906V351.379s-7.69922-1.63672-20.2148-1.63672c-16.6445 0-27.5234 2.98437-27.5234 2.98437Zm-211.16-26.2734c-.386719.964843-.863281 2.79297-1.15234 3.85156C251.137 392.379 250.656 390.551 250.27 389.586L237.18 355.996C234.965 350.414 231.504 349.742 225.152 349.742c-2.21484 0-6.73828.289062-6.73828.289062l-6.73828 68.043h14.918l3.27344-45.6172 14.1484 34.5508c1.05859 2.69141 3.17578 3.75391 7.41016 3.75391 4.23047 0 6.35156-1.0625 7.41016-3.75391l14.1484-34.5508 3.26953 45.6172h14.918l-6.73438-68.043s-4.52734-.289062-6.73828-.289062c-6.35156 0-9.81641.671874-12.0312 6.25391Zm-74.6836 13.957c-3.17578 1.25-10.875 3.75391-16.5547 3.75391 -6.16016 0-10.7773-2.11719-10.7773-8.85547 0-5.87109 3.17187-9.23828 11.6445-9.52734l15.6875-.578124ZM169.039 349.742c-13.2812 0-23.6758 3.26953-27.7187 5.29297l3.17578 11.1641s10.2031-3.65625 20.2109-3.65625c8.56641 0 12.9922 2.40625 12.9922 10.875v4.8125H164.707c-22.0391 0-28.5859 10.1055-28.5859 21.2695 0 14.8203 11.5508 19.5352 22.043 19.5352 12.2227 0 19.3477-5.09766 20.2109-5.09766 .675781 0 3.17578 2.69141 14.3398 2.69141V369.473c0-14.1484-8.75781-19.7305-23.6758-19.7305Zm178.629 53.8008c-3.17578 1.25-10.875 3.75391-16.5508 3.75391 -6.16016 0-10.7813-2.11719-10.7813-8.85547 0-5.87109 3.17578-9.23828 11.6445-9.52734l15.6875-.578124ZM338.812 349.742c-13.2812 0-23.6758 3.26953-27.7148 5.29297l3.17578 11.1641s10.2031-3.65625 20.207-3.65625c8.56641 0 12.9961 2.40625 12.9961 10.875v4.8125H334.48c-22.0352 0-28.582 10.1055-28.582 21.2695 0 14.8203 11.5508 19.5352 22.0391 19.5352 12.2227 0 19.3477-5.09766 20.2109-5.09766 .675781 0 3.17578 2.69141 14.3398 2.69141V369.473c0-14.1484-8.75781-19.7305-23.6758-19.7305Zm236.09 51.3945C571.34 402.867 563.641 405.754 556.617 405.754c-10.207 0-11.9375-4.61719-11.9375-15.2031V350.316H542.465c-3.36719 0-10.8711.578125-12.7031.964844v41.1914c0 18 4.42969 26.5625 22.7148 26.5625 13.957 0 22.1367-5.38672 22.7109-5.38672 .195312 0 5.00781 2.98047 14.6367 2.98047V351.281C588.762 351.09 581.543 350.316 577.883 350.316H574.902Zm32.5391 15.4922s9.24219 2.40625 22.1367 2.40625c12.2266 0 27.625-4.13672 27.625-20.6875 0-10.7813-7.98828-15.4023-20.9844-20.1172C629.195 375.633 623.227 373.32 623.227 368.508c0-2.30859 1.73438-6.83203 10.6836-6.83203 8.37109 0 16.9414 3.84766 16.9414 3.84766l3.75391-11.0664c-2.50781-1.25-10.6875-4.71484-22.043-4.71484 -12.3164 0-24.3477 6.54297-24.3477 19.7305 0 13.5703 12.3164 17.707 21.9414 20.8867C636.703 392.57 642.187 394.883 642.187 399.211c0 4.23437-2.30859 7.89062-13.3789 7.89062 -9.04687 0-18.6719-2.01953-18.6719-2.01953ZM399.063 362.637c2.40625-.480469 7.12109-1.15234 11.8398-1.15234 10.7773 0 19.25 6.0625 19.25 22.4258 0 15.8789-4.14063 23.3867-20.5977 23.3867 -5.29297 0-10.4922-.769531-10.4922-.769531Zm12.5117-12.8945c-8.46875 0-20.2109 1.44141-27.4297 4.03906v63.2344C390.113 418.27 401.277 419.035 409.074 419.035c26.5625 0 36.8594-10.3945 36.8594-35.125 0-21.3672-13.0898-34.168-34.3594-34.168"/></svg>