<?xml version="1.0" encoding="UTF-8"?><svg width="1024" height="1024" preserveAspectRatio="xMidYMid" version="1.1" viewBox="0 -3e-06 768 768" xmlns="http://www.w3.org/2000/svg" xmlns:xlink="http://www.w3.org/1999/xlink"><defs><clipPath id="a"><path d="M76 76.8008h641V691H76Z"/></clipPath><clipPath id="b"><path d="M242.922 76.8008v613.613c1.80078.128907 3.59766.128907 5.39844.128907h295.629V76.8008Zm347.281 0H543.949v613.613h1.02734c74.7734 0 140.43-61.0273 145.824-135.543l25.3086-342.656c5.52734-74.3867-51.1328-135.414-125.906-135.414Zm-387.109 0c-74.7734 0-131.434 61.0273-125.91 135.543L102.496 555C107.891 627.719 170.59 687.59 243.051 690.414V76.8008Z"/></clipPath><clipPath id="c"><path d="M412 361h44v62.9258h-44Z"/></clipPath><clipPath id="d"><path d="M156.328 345H199v62H156.328Z"/></clipPath><path id="e" d="M-76.8-76.8h921.6v921.6H-76.8Z"/></defs><g fill="#FFF"><use xlink:href="#e"/><use xlink:href="#e"/></g><g clip-path="url(#a)"><path clip-path="url(#b)" fill="#000" d="M76.8008 76.8008H716.09v613.613H76.8008Z"/></g><g fill="#FFF"><path d="M344.852 351.391c0-4.05078 3.26953-7.32422 7.29297-7.32422 4.03516 0 7.31641 3.27344 7.31641 7.32422 0 4.04297-3.28125 7.32031-7.31641 7.32031 -4.02344 0-7.29297-3.27734-7.29297-7.32031"/><path d="M460.109 400.105c0-4.05078 3.26562-7.33203 7.28906-7.33203 4.03516 0 7.31641 3.28125 7.31641 7.33203 0 4.03906-3.28125 7.32031-7.31641 7.32031 -4.01953 0-7.28906-3.28125-7.28906-7.32031"/><path d="M224.961 396.938c-6.28906 0-10.6602-4.99609-10.6602-12.1367 0-7.13672 4.37109-12.1289 10.6602-12.1289 6.32812 0 10.75 4.99219 10.75 12.1289 0 7.25391-4.32813 12.1367-10.75 12.1367Zm0-34.9336c-13.3086 0-22.9688 9.58984-22.9688 22.7969 0 13.2109 9.66016 22.7969 22.9688 22.7969 13.3633 0 23.0625-9.58594 23.0625-22.7969 0-13.207-9.69922-22.7969-23.0625-22.7969m105.742 23.9375C330.188 384.969 329.594 384.145 328.961 383.492L328.559 383.063l.425781-.40625C329.594 382.012 330.219 381.25 330.82 380.363l11.7461-17.4609H328.309L319.48 376.563c-.496094.730469-1.50781 1.10156-3.01562 1.10156H314.453V351.84c0-5.16406-3.21875-5.86719-6.69531-5.86719H301.809l.007812 60.9531h12.6367V388.645h1.18359c1.44141 0 2.42188.164063 2.87109.949219L325.477 402.75c1.94922 3.56641 3.88672 4.17578 7.53906 4.17578h9.67969L335.484 395 330.703 385.941m61.3398-24.0352c-6.42969 0-10.5273 2.85547-12.8281 5.26953l-.765625.777344L378.18 366.898c-.675782-2.58594-2.95313-4.01172-6.375-4.01172H366.141L366.176 406.91h12.5508V386.621c0-1.98438.257813-3.70703.78125-5.27734C380.906 376.59 384.801 373.637 389.672 373.637c3.91797 0 5.44531 2.06641 5.44531 7.41016v19.1719c0 4.55859 2.10937 6.69141 6.67187 6.69141h5.97266l-.019531-28c0-11.1211-5.42578-17.0039-15.6992-17.0039m-39.7344 1H346.363l.039063 34.0391H346.398v9.97656h6.34766c.082031 0 .144531.007813.226562.007813L355.93 406.922h2.94141V406.906h.023437L358.918 369.59c0-4.5-2.15234-6.68359-6.60547-6.68359M274.254 396.938c-6.29297 0-10.6719-4.99609-10.6719-12.1367 0-7.13672 4.37891-12.1289 10.6719-12.1289C280.566 372.672 285 377.664 285 384.801c0 7.25391-4.32812 12.1367-10.7461 12.1367Zm0-34.9336c-13.3242 0-22.9844 9.58984-22.9844 22.7969 0 13.2109 9.66016 22.7969 22.9844 22.7969 13.3438 0 23.0625-9.58594 23.0625-22.7969 0-13.207-9.71875-22.7969-23.0625-22.7969"/><path d="M543.234 396.938c-6.28516 0-10.6719-4.99609-10.6719-12.1367 0-7.13672 4.38672-12.1289 10.6719-12.1289 6.31641 0 10.75 4.99219 10.75 12.1289 0 7.25391-4.32813 12.1367-10.75 12.1367Zm0-34.9336c-13.3203 0-22.9805 9.58984-22.9805 22.7969 0 13.2109 9.66016 22.7969 22.9805 22.7969 13.3477 0 23.0625-9.58594 23.0625-22.7969 0-13.207-9.71484-22.7969-23.0625-22.7969"/><path clip-path="url(#c)" d="M434.199 395c-6.85938 0-9.30078-5.98438-9.30078-11.5938 0-2.46875.625-10.5234 8.64453-10.5234 3.98437 0 9.29297 1.14063 9.29297 10.9375C442.836 393.062 438.137 395 434.199 395Zm15.1523-32.2109c-2.38281 0-4.21484.949219-5.13281 2.68359l-.347656.671875 -.578125-.503906C441.266 363.887 437.633 361.809 431.734 361.809c-11.7305 0-19.6328 8.8125-19.6328 21.9297 0 13.0977 8.17578 22.2539 19.8711 22.2539 3.99609 0 7.15234-.933594 9.65234-2.82813l.96875-.726562V403.66c0 5.87891-3.80078 9.125-10.6953 9.125 -3.34766 0-6.39844-.816406-8.4375-1.55469C420.801 410.426 419.238 411.09 418.16 413.762L417.164 416.227 415.754 419.824l.875.464843c4.41016 2.34375 10.1523 3.73828 15.3438 3.73828 10.6875 0 23.1641-5.46875 23.1641-20.8633l.046875-40.375H449.355"/><path clip-path="url(#d)" d="M178.227 396.434L168.012 396.422V384.211c0-2.60938 1.01172-3.96875 3.25-4.28125h6.96484c4.97266 0 8.1875 3.13672 8.19141 8.21094C186.414 393.348 183.281 396.43 178.227 396.434ZM168.012 363.488V360.273c0-2.8125 1.19141-4.15234 3.80469-4.32422h5.22656c4.48438 0 7.16797 2.68359 7.16797 7.17188 0 3.42188-1.83984 7.41797-7.00391 7.41797H168.012Zm23.2617 12.1875L189.43 374.641l1.60937-1.37891c1.875-1.61328 5.01953-5.23828 5.01953-11.5C196.059 352.184 188.625 346 177.125 346H164V345.996H162.504c-3.41016.125-6.13672 2.89844-6.17578 6.32813v54.3789h6.02344c.015626.003906.019532 0 .027344.003906l15.0039-.003906c12.7852 0 21.0391-6.95703 21.0391-17.7383 0-5.80078-2.66797-10.7656-7.14844-13.2891"/><path d="M622.352 362.051c-5.20703 0-10.2383 2.4375-13.4688 6.52734L607.973 369.73 607.258 368.441C604.934 364.203 600.934 362.051 595.371 362.051c-5.83203 0-9.74219 3.25391-11.5625 5.1875l-1.1875 1.28906 -.457032-1.69531c-.664062-2.4375-2.83594-3.78125-6.125-3.78125H570.766L570.715 406.906h11.9844V387.547c0-1.69531.210937-3.375.632812-5.12891C584.48 377.742 587.621 372.711 592.906 373.211c3.26172.3125 4.85156 2.83203 4.85156 7.69531v26h12.0703V387.547c0-2.12109.195313-3.70703.675781-5.29688 .96875-4.46484 4.25-9.04297 9.35156-9.04297 3.6875 0 5.05469 2.08984 5.05469 7.69922v19.5859c0 4.43359 1.97656 6.41406 6.40234 6.41406h5.64062L636.965 378.91c0-11.1836-4.92578-16.8594-14.6133-16.8594M513.316 391.68C513.277 391.723 508.121 397.16 501.332 397.16c-6.18359 0-12.4336-3.79687-12.4336-12.2695 0-7.31641 4.84375-12.4258 11.7813-12.4258 2.25 0 4.8125.804687 5.21484 2.16406l.058594.226563c.921875 3.07813 3.71875 3.24219 4.26953 3.24219l6.56641.007813V372.367c0-7.57031-9.62891-10.3164-16.1094-10.3164 -13.8594 0-23.9102 9.64844-23.9102 22.9336 0 13.2773 9.94141 22.9141 23.6562 22.9141 11.8945 0 18.3672-7.82031 18.4258-7.89844l.347657-.425781L514 390.949l-.6875.730469"/></g></svg>