<?xml version="1.0" encoding="UTF-8"?><svg width="1024" height="1024" preserveAspectRatio="xMidYMid" version="1.1" viewBox="0 -3e-06 768 768" xmlns="http://www.w3.org/2000/svg" xmlns:xlink="http://www.w3.org/1999/xlink"><defs><clipPath id="a"><path d="M88 76.8008h640V691H88Z"/></clipPath><clipPath id="b"><path d="M254.363 76.8008v613.613c1.79688.128907 3.59766.128907 5.39453.128907h295.629V76.8008Zm347.277 0H555.387v613.613h1.02734c74.7773 0 140.43-61.0273 145.824-135.543l25.3125-342.656c5.52344-74.3867-51.1367-135.414-125.91-135.414Zm-387.105 0c-74.7773 0-131.434 61.0273-125.91 135.543L113.934 555c5.39844 72.7188 68.0937 132.59 140.559 135.414V76.8008Z"/></clipPath><path id="c" d="M-76.8-76.8h921.6v921.6H-76.8Z"/></defs><g fill="#FFF"><use xlink:href="#c"/><use xlink:href="#c"/></g><g clip-path="url(#a)"><path clip-path="url(#b)" fill="#000" d="M88.2383 76.8008h639.289v613.613H88.2383Z"/></g><path fill="#FFF" d="M652.187 432.172v-18.5H607.219V392.602h35.9727V374.355H607.219V353.543h44.4531V335.301H585.895v96.8711ZM493.906 409.301c6.16406 15.6758 21.0703 24.668 41.1094 24.668 22.6133 0 36.2305-11.5625 36.2305-30.5781 0-14.9023-8.99219-24.9219-28.5195-28.7773L529.105 372.043C521.141 370.504 517.289 366.906 517.289 362.023c0-6.9375 5.65234-10.793 15.1562-10.793 9.50781 0 16.4453 4.88281 20.5586 13.6172l17.4727-9.50391c-5.14062-13.875-19.2734-22.0977-38.0313-22.0977 -21.8398 0-36.2266 11.0469-36.2266 30.3203 0 14.9023 9.25 24.6641 27.4922 28.2617l13.875 2.82813c8.48047 1.79688 12.8477 5.13672 12.8477 10.793 0 7.19141-5.65234 11.3047-15.1602 11.3047 -10.793 0-18.2422-5.91016-23.3828-16.4453Zm-51.1328 24.668c23.8945 0 38.2852-13.875 38.2852-38.0273V334.785H460.758v60.3828c0 12.8477-6.67969 19.7852-17.7305 19.7852 -11.0469 0-17.7266-6.9375-17.7266-19.7852V334.785H403.715v61.1562C404.23 420.352 418.875 433.969 442.773 433.969M326.887 334.785l34.9453 51.1328v45.9961h21.5859V380.523L352.066 335.043H326.887Zm-30.832 22.3555l12.8437 38.2852H283.207Zm47.7891 74.7734l-35.457-97.1289H283.977L248.516 431.656h22.0977l6.16797-18.5h38.0273l6.16797 18.5ZM185.309 353.285h11.0469c18.7578 0 28.7773 10.793 28.7773 30.0664 0 19.2695-10.0195 30.0625-28.7773 30.0625H185.309Zm11.5625 78.6289c32.375 0 50.1055-17.2148 50.1055-48.5625 0-31.3516-17.7305-48.5664-50.1055-48.5664H163.98v96.8711Z"/></svg>