<?xml version="1.0" encoding="UTF-8"?><svg width="1024" height="1024" preserveAspectRatio="xMidYMid" version="1.1" viewBox="0 -3e-06 768 768" xmlns="http://www.w3.org/2000/svg" xmlns:xlink="http://www.w3.org/1999/xlink"><defs><clipPath id="a"><use xlink:href="#c"/></clipPath><clipPath id="b"><path d="M384 28.625C187.73 28.625 28.625 187.73 28.625 384c0 196.27 159.105 355.375 355.375 355.375 196.27 0 355.375-159.105 355.375-355.375C739.375 187.73 580.27 28.625 384 28.625Z"/></clipPath><path id="c" d="M28.625 28.625h710.75v710.75H28.625Z"/><path id="d" d="M-76.8-76.8h921.6v921.6H-76.8Z"/></defs><g fill="#FFF"><use xlink:href="#d"/><use xlink:href="#d"/></g><g clip-path="url(#a)"><use clip-path="url(#b)" fill="#000" xlink:href="#c"/></g><g fill="#FFF"><path d="M655.457 417.633L655.273 417.453c-3.9375-3.57422-8.79688-6.50781-12.4609-8.70703L641.894 408.195C639.695 406.91 637.313 405.535 634.84 404.254s0 .089844 0 .089844c0 18.8828-9.44141 32.1719-22.9141 32.1719 -14.4805 0-23.2773-13.6562-23.2773-31.8047 0-6.50391 1.19141-13.1055 3.75781-18.6016C586.539 384 580.582 382.074 574.441 380.152c-1.375-.460938-2.65625-.828125-4.03125-1.28516C566.379 386.199 564.18 395.09 564.18 405.262c0 30.0625 20.4375 48.2969 47.0117 48.2969 19.8906 0 40.0508-10.7227 46.1914-34.1836L656.926 418.918C656.559 418.645 656.102 418.184 655.457 417.633Z"/><path d="M595.52 381.16c3.75781-4.85937 9.25781-8.06641 16.5898-8.06641 14.3906 0 21.1719 13.1992 22.4531 26.3945C638.961 401.961 642.902 404.344 646.387 406.82c3.48047 2.47266 7.97266 5.58984 11.7305 9.4375 .824218-4.03125 1.19141-8.24609 1.19141-12.3711 0-28.5-18.6953-48.1133-46.5586-48.1133 -16.3125 0-29.875 6.23047-38.4922 17.4141l2.10938.730469C582.875 376.211 589.289 378.594 595.52 381.16Z"/><path d="M201.805 314.898H178.16v53.1562H177.793C173.578 361.09 164.32 355.773 151.398 355.773c-22.543 0-42.1562 18.6953-41.9727 50.0391 0 28.8672 17.6875 47.9297 40.0508 47.9297 13.6523 0 25.0195-6.50391 30.6094-16.9531h.367187l.914063 14.8477h21.1719C202.172 445.313 201.715 434.863 201.715 425.242ZM178.16 411.035C178.254 413.328 177.977 415.711 177.426 418 175.137 428.176 166.613 434.773 156.988 434.773c-15.0273 0-23.4609-12.5547-23.4609-29.6953 0-17.5039 8.43359-30.9766 23.6445-30.9766 10.8164 0 18.2383 7.51563 20.4375 16.7734 .367187 2.01562.550781 4.12109.550781 6.14062Z"/><path d="M311.23 357.879H287.586V414.52c0 2.47266-.457032 4.94922-1.375 7.33203C283.738 427.809 277.598 434.59 268.156 434.59c-12.5547 0-17.5039-9.98828-17.5039-25.5703V357.973H227.008v55.0781c0 30.6133 15.582 40.7852 32.7187 40.7852 16.7695 0 26.0273-9.625 30.0586-16.4062h.367188l1.10156 14.2969h20.8047C311.691 444.027 311.324 434.773 311.324 423.59V357.879Z"/><path d="M376.668 355.773c-30.0586 0-45.8242 24.4688-45.8242 50.4063 0 28.6836 17.8711 47.5625 48.3008 47.5625 13.4688 0 24.6523-2.65625 32.7148-5.95703L408.379 431.473C401.23 434.133 393.348 435.688 382.352 435.688c-15.0312 0-28.3203-7.33203-28.8711-24.2852h62.7773c.550782-3.30078.828126-6.69141.734376-9.98828 .09375-20.6211-9.71484-45.6406-40.3242-45.6406Zm18.1445 39.0391H353.574c.914062-9.62109 7.14844-22.9102 21.7188-22.9102 15.7656 0 19.7031 14.2969 19.5195 22.9102Z"/><path d="M463.273 348.898V333.777L440.18 340.559v7.42578c1.46484 0 2.83984 0 3.94141.089844 6.23047.089843 12.6484.367187 19.1523.824219Z"/><path d="M444.395 357.973c-3.84766-.09375-10.4453 0-17.6875.183594V375.57H440.18v44.082c0 12.3711 2.29297 20.8008 7.33203 26.2109C451.91 450.719 459.242 453.742 467.949 453.742c7.51562 0 13.6562-1.19141 17.1367-2.47266L484.719 433.121c-2.65625.734375-4.85547 1.19141-9.25391 1.19141 -9.07422 0-12.0977-5.95703-12.0977-17.3203V375.57h22.543V360.723c-2.65625-.367187-5.3125-.640625-7.87891-.917968 -11.6406-1.19141-22.9141-1.64844-33.6367-1.83203Z"/><path d="M511.48 364.754c-5.77344-1.00781-11.457-2.01562-17.1367-2.83984V375.57h13.4727v44.082c0 12.3711 2.28906 20.8008 7.33203 26.2109 4.39844 4.85547 11.7305 7.87891 20.4375 7.87891 7.51172 0 13.6523-1.19141 17.1367-2.47266L552.355 433.121C549.699 433.855 547.59 434.312 543.098 434.312 534.027 434.312 531 428.355 531 416.992V375.57h22.5469v-1.375C550.43 373.367 547.223 372.543 544.105 371.719 533.203 369.063 522.203 366.68 511.48 364.754Z"/><path d="M545.297 364.113c2.75.734375 5.41016 1.55859 8.16016 2.38281V357.879H530.91V333.777L507.816 340.559v14.6641c1.46484.273438 2.92969.550782 4.39844.917969C523.121 358.34 534.301 361.09 545.297 364.113Z"/></g></svg>