<?xml version="1.0" encoding="UTF-8"?><svg width="768" height="768" preserveAspectRatio="xMidYMid" version="1.1" viewBox="0 0 768 768" xmlns="http://www.w3.org/2000/svg" xmlns:xlink="http://www.w3.org/1999/xlink"><defs><clipPath id="a"><use xlink:href="#c"/></clipPath><clipPath id="b"><path d="M384 28.625C187.73 28.625 28.625 187.734 28.625 384c0 196.27 159.105 355.375 355.375 355.375 196.27 0 355.375-159.105 355.375-355.375C739.375 187.734 580.27 28.625 384 28.625Z"/></clipPath><path id="c" d="M28.625 28.625h710.75v710.75H28.625Z"/><path id="d" d="M-76.8-76.8h921.6v921.6H-76.8Z"/></defs><g transform="translate(0 3e-06)"><g fill="#FFF"><use xlink:href="#d"/><use xlink:href="#d"/></g></g><g clip-path="url(#a)"><use clip-path="url(#b)" fill="#000" xlink:href="#c" x="0" y="3e-06"/></g><g transform="translate(0 3e-06)"><g fill="#FFF"><path d="M142.234 366.121c-1.10938.238281-1.19141 1.58984 0 1.58984 1.75-.082032 10.0117-.320313 17.3984.394531 8.58203.796875 16.7656 3.01953 23.1992 5.16406 6.35547 2.14844 20.5 10.1719 20.5 10.1719s-18.2734 10.3281-24.4727 25.7422c-.316406.792968.082031 1.10938 1.19531.476562C203.41 395.754 219.699 387.254 248.141 381.691c1.82812-.394531 1.58984-.554687.078125-.953125C246.629 380.343 241.227 379.39 227.164 374.144 213.102 368.902 199.598 364.054 183.786 362.863c-2.30078-.160156-4.6875-.238281-7.14844-.238281 -16.4453-.078125-33.9258 3.41797-34.4023 3.49609"/><path d="M255.371 352.773c-4.449 5.325-13.746 12.079-22.644 15.571 -1.19141.480469-.875 1.19531-.398437 1.51172 .160156.078125.796875.316406 1.67188.636719l11.6758 3.73437c.953125.316407.953125.238282 1.35156-.160156C253.227 367.867 255.61 358.891 256.004 352.934s.082032-.714844-.078125-.714844c-.078125.078125-.238281.238281-.554687.554688"/><path d="M466.227 409.977h-7.469c-.476562 0-.875-.238281-1.11328-.636718L435.16 370.73v37.8945c0 .714844-.632812 1.35156-1.34766 1.35156H426.344c-.714844 0-1.35156-.636718-1.35156-1.35156V353.727c0-.714843.636718-1.35156 1.35156-1.35156h7.46875c.476562 0 .871094.238281 1.10938.636719l22.5664 37.0234V353.727c0-.714843.632813-1.35156 1.34766-1.35156h7.39062c.714844 0 1.35156.636719 1.35156 1.35156v54.8984c.07763.7146-.55837 1.3516-1.35137 1.3516"/><path d="M545.199 409.977h-7.469c-.714844 0-1.35156-.636718-1.35156-1.35156V353.727c0-.714843.636719-1.35156 1.35156-1.35156h7.46875c.714843 0 1.34766.636719 1.34766 1.35156v54.8984c0 .714844-.554687 1.35156-1.34766 1.35156"/><path d="M502.613 410.691c-7.07031 0-12.7891-2.54297-17.082-7.46875 -4.211-4.92525-6.355-13.1092-6.355-21.1322v-2.067c0-5.32031.953125-11.5977 2.94141-15.6484 1.98437-4.13281 4.84375-7.3125 8.5-9.53516C494.27 352.613 498.48 351.504 503.25 351.504c6.35547 0 11.5195 1.74609 15.332 5.24219 3.098 2.78081 5.246 6.59381 6.199 11.2028 .078125.394531 0 .792969-.238281 1.11328 -.238281.316406-.636719.476562-1.03516.476562h-7.625c-.636718 0-1.19141-.398437-1.35156-1.03516 -.714844-2.54297-1.75-4.52734-3.17969-5.80078 -1.90625-1.74609-4.60547-2.62109-8.18359-2.62109 -4.36719 0-7.70312 1.51172-10.0898 4.60938 -2.46094 3.17578-3.73437 9.375-3.73437 15.332v2.14453c0 5.64062 1.19531 11.7617 3.57812 15.0156 2.30469 3.17969 5.48047 4.6875 9.61328 4.6875 3.8125 0 6.67188-.792969 8.66016-2.38281C512.703 398.297 513.816 396.23 514.531 393.531c.160156-.636719.714844-1.03516 1.26953-1.03516H523.43c.398437 0 .792968.160156 1.03125.558594 .238281.316406.320312.714843.238281 1.11328 -1.11328 4.76562-3.25781 8.57812-6.59375 11.3594 -3.73438 3.49609-9.05859 5.16406-15.4922 5.16406"/><path d="M308.52 409.977h-28.125c-.714843 0-1.34766-.636718-1.34766-1.35156V353.727c0-.714843.632813-1.35156 1.34766-1.35156h28.125c.714844 0 1.35156.636719 1.35156 1.35156v5.96094c0 .714844-.636719 1.34766-1.35156 1.34766h-19.305v14.9375h19.305c.714844 0 1.35156.636719 1.35156 1.35156v5.95703c0 .714844-.636719 1.35156-1.35156 1.35156h-19.305v16.7617h19.305c.714844 0 1.35156.636719 1.35156 1.35156v5.96094c0 .632813-.554688 1.26953-1.35156 1.26953"/><path d="M408.785 409.977H380.66c-.714844 0-1.35156-.636718-1.35156-1.35156V353.727c0-.714843.636718-1.35156 1.35156-1.35156h28.125c.714844 0 1.35156.636719 1.35156 1.35156v5.96094c0 .714844-.636719 1.34766-1.35156 1.34766H389.48v14.9375h19.3047c.714844 0 1.35156.636719 1.35156 1.35156v5.95703c0 .714844-.636719 1.35156-1.35156 1.35156H389.48v16.7617h19.3047c.714844 0 1.35156.636719 1.35156 1.35156v5.96094c.078125.632813-.558594 1.26953-1.35156 1.26953"/><path d="M572.688 395.121l-1.35156.632812 .398437-1.03125 2.14453-5.95703L581.902 366.52l8.58203 23.6758c-6.59303 1.2692-11.757 2.6202-17.796 4.9252m34.558 12.949l-20.973-54.898c-.160157-.558594-.714844-.875-1.19141-.875H578.727c-.558593 0-1.03516.316406-1.27344.875L556.559 408.07c-.160156.398438-.078125.875.160156 1.26953 .238281.398437.632812.636718 1.11328.636718h7.46484c.796875 0 1.42969 0 1.42969 0 8.66016-9.53516 21.9297-14.2227 25.4258-15.332l5.24219 14.3789c.160157.554687.714844.875 1.27344.875h7.38672c.476562 0 .875-.238282 1.11328-.636719 .238281-.238281.238281-.714844.078125-1.19141"/><path d="M344.75 410.691c-4.76563 0-9.05859-1.11328-12.793-3.33594 -3.734-2.22606-6.672-5.40206-8.738-9.53506 -1.985-4.05-3.098-8.738-3.098-14.062v-4.766c0-8.58203 2.06641-15.3359 6.19531-20.1016 4.13281-4.84766 10.0898-7.30859 17.5586-7.30859 6.11719 0 11.125 1.58984 14.9375 4.6875C361.512 358.492 363.5 361.512 364.77 365.09c.160157.394531.082031.871094-.15625 1.19141 -.238281.394531-.636719.554688-1.11328.554688H355.793c-.554688 0-.953125-.316407-1.19141-.792969C352.695 362.07 349.277 360.082 343.953 360.082c-4.52734 0-7.86328 1.51172-10.168 4.60938 -2.38281 3.17578-3.57422 7.86328-3.57422 13.9844v4.44531c0 5.80078 1.35156 10.4883 3.97266 13.8242C336.805 400.285 340.223 401.871 344.75 401.871c2.62109 0 4.92578-.316406 6.83203-.871094C353.25 400.523 354.602 399.727 355.715 398.695v-14.3h-9.059c-.714844 0-1.35156-.636719-1.35156-1.35156V377.086c0-.714844.636718-1.35156 1.35156-1.35156h19.1484v25.4219c0 .320312-.082032.558594-.238282.796875C363.5 404.813 360.641 406.957 357.062 408.387c-3.574 1.668-7.703 2.304-12.312 2.304"/><path d="M616.543 359.844c-.398438.714844-.875 1.19141-1.58984 1.58984 -.714844.398437-1.42969.636718-2.22266.636718 -.796875 0-1.51172-.238281-2.22656-.558593 -.636718-.394531-1.19141-.953125-1.58984-1.58594 -.3941-.715025-.5551-1.43402-.5551-2.22702 0-.792969.160156-1.50781.554687-2.22266 .398438-.714843.953126-1.19141 1.58984-1.58984 .715473-.3985 1.43047-.5585 2.22647-.5585 .792969 0 1.58594.238281 2.22266.636719 .714844.398437 1.19141.953125 1.58984 1.58984 .398437.636718.554687 1.42969.554687 2.22266 .082032.636718-.15625 1.35156-.554687 2.06641M617.336 355c-.477-.797-1.109-1.434-1.906-1.91 -.793-.477-1.746-.715-2.7-.715 -.953125 0-1.82812.238281-2.70313.714844C609.152 353.566 608.52 354.203 608.043 355c-.476563.792969-.714844 1.66797-.714844 2.69922s.238281 1.82812.714844 2.70313c.476562.792968 1.10938 1.42969 1.98438 1.90625 .792968.476562 1.75.714844 2.70313.714844 .95313 0 1.90625-.238282 2.69922-.714844 .796874-.476563 1.51172-1.11328 1.90625-1.90625 .476562-.796875.714843-1.67188.714843-2.625 0-1.10938-.238281-1.98438-.714843-2.77734"/><path d="M613.445 357.062c-.160156.082031-.398437.160156-.636718.160156H612.016V355.793h.792969c.316406 0 .636718.078125.714844.160156 .160156.078125.238281.316406.238281.554687 -.078125.316407-.160157.476563-.316407.554688m1.10938 2.46484c0-.160156 0-.316406 0-.636719 0-.316406-.078126-.554687-.15625-.792969C614.316 357.859 614.16 357.699 613.922 357.621c.476563-.238282.714844-.558594.714844-1.03516 0-.476563-.160157-.871094-.476563-1.10938 -.320281-.23846-.797281-.39846-1.35128-.39846h-1.59v4.84766h.875V358.016h.875c.316406 0 .476562.082031.632812.160156 .160157.160157.160157.316407.160157.636719 0 .636719 0 .953125.078125 1.11328h.875V359.844c-.078125-.078125-.160156-.15625-.160156-.316406"/></g></g></svg>