<?xml version="1.0" encoding="UTF-8"?><svg width="768" height="768" preserveAspectRatio="xMidYMid" version="1.1" viewBox="0 0 768 768" xmlns="http://www.w3.org/2000/svg" xmlns:xlink="http://www.w3.org/1999/xlink"><defs><clipPath id="a"><use xlink:href="#c"/></clipPath><clipPath id="b"><path d="M384.961 28.625C188.691 28.625 29.586 187.73 29.586 384c0 196.27 159.105 355.375 355.375 355.375 196.266 0 355.371-159.105 355.371-355.375 0-196.27-159.105-355.375-355.371-355.375Z"/></clipPath><path id="d" d="M-76.8-76.8h921.6v921.6H-76.8Z"/><path id="c" d="M29.5859 28.625h710.746v710.75H29.5859Z"/></defs><g transform="translate(0 3e-06)"><g fill="#FFF"><use xlink:href="#d"/><use xlink:href="#d"/></g></g><g clip-path="url(#a)"><use clip-path="url(#b)" fill="#000" xlink:href="#c" x="0" y="3e-06"/></g><path fill="#FFF" d="M210.055 355.469v61.4297c0 8.98828-4.45313 17.5625-18.3867 17.5625H166.93V420.773h20.8633c2.88672 0 6.10156-.742188 6.10156-5.11328V404.613c-2.72286 4.617-9.64886 8.657-17.7309 8.657 -15.5 0-27.457-11.707-27.457-29.6016 0-17.9727 11.875-29.6836 27.375-29.6836 8.57812 0 15.2539 3.96094 18.0586 8.82422 0-.660156-.246094-1.73047-.246094-4.78125V355.387h16.1602Zm-30.262 43.785c8.57422 0 14.5117-6.35156 14.5117-15.5859 0-9.39844-5.85156-15.7461-14.5117-15.7461 -8.49219 0-14.3477 6.34766-14.3477 15.7461 -.082031 9.23438 5.85547 15.5859 14.3477 15.5859Zm95.3164-10.4727H232.563c.910156 6.34766 5.85547 11.4609 13.1133 11.4609 4.78125 0 9.23438-1.98047 11.4609-5.85547l16.8203 1.73438c-5.11328 12.2031-15.832 17.9727-28.6133 17.9727 -17.0664 0-29.9297-12.6133-29.9297-30.0937 0-17.4805 12.6133-30.0977 29.6836-30.0977 15.75 0 29.9297 10.2266 29.9297 34.2187 .082031.082031.082031.660156.082031.660156Zm-42.957-10.8828h25.5586c-.90625-5.77344-5.76953-10.4727-12.6133-10.4727 -6.76172 0-11.625 4.37109-12.9453 10.4727ZM302.73 333.785v21.6836h12.3711v13.6875H302.73v25.8086c0 3.62891 2.88672 4.12109 5.35938 4.12109 4.125 0 7.50391-.410157 7.50391-.410157v13.8516s-7.83203.742187-12.6133.742187c-8.08203 0-16.4922-1.40234-16.4922-12.8633v-31.332H277.5V355.305h8.98828v-21.684H302.73Zm55.3281 40.8125c0-4.12109-3.21484-6.75781-9.48047-6.75781 -5.77344 0-12.9453 2.88281-17.2344 5.35937L324.996 360.996s10.6367-7.01172 24.4883-7.01172c12.9453 0 24.8164 6.01953 24.8164 21.1094v37.5977H358.059V407.332c-2.969 4.453-9.481 6.844-15.996 6.844 -12.1211 0-19.9531-8.57422-19.9531-17.9727 0-10.8867 7.99609-17.5625 20.6953-17.5625H354.02c2.71875 0 3.95703-1.23828 3.95703-3.38281 .082032-.082031.082032-.660156.082032-.660156Zm0 17.5625v-4.121c-.9881.988-2.7221 1.238-5.0311 1.238h-6.101c-5.10938 0-8.07812 2.22656-8.07812 6.26562 0 3.875 3.13281 6.76172 8.07812 6.76172 5.85547 0 11.1328-3.05078 11.1328-10.1445Zm59.6133-20.6953h-6.8434c-8.24609 0-11.9531 3.875-11.9531 13.8516v27.375H382.629V355.551h15.75v9.15234c2.22656-6.10156 7.75-9.89453 14.8398-9.89453 1.48438 0 2.96875.167968 4.45312.496094 0-.082032 0 16.1602 0 16.1602Zm2.39062 12.6172c0-17.4805 13.6055-30.0977 30.5898-30.0977 16.9883 0 30.5938 12.6172 30.5938 30.0977 0 17.4805-13.6055 30.0937-30.5938 30.0937 -16.9844-.082031-30.5898-12.6133-30.5898-30.0937Zm16.2461 0c0 8.82031 5.85156 15.582 14.3438 15.582 8.32812 0 14.2656-6.76172 14.2656-15.582 0-8.98828-5.85547-15.5859-14.2656-15.5859 -8.49192-.082-14.3429 6.598-14.3429 15.586Zm49.1406 0c0-17.4805 13.6055-30.0977 30.5898-30.0977 16.9844 0 30.5898 12.6172 30.5898 30.0977 0 17.4805-13.6055 30.0937-30.5898 30.0937 -16.9844-.082031-30.5898-12.6133-30.5898-30.0937Zm16.2422 0c0 8.82031 5.85547 15.582 14.3477 15.582 8.32813 0 14.2656-6.76172 14.2656-15.582 0-8.98828-5.85547-15.5859-14.2656-15.5859 -8.49219-.082032-14.3477 6.59766-14.3477 15.5859Zm125.496-5.03125c0-7.00781-4.45312-9.97656-9.48047-9.97656 -4.62109 0-8.74219 2.64062-11.875 6.51562v37.1016H589.59V379.051c0-6.84375-4.37109-9.97656-9.48438-9.97656 -4.61719 0-8.73828 2.64062-11.8711 6.51562v37.1016H551.988V355.551h15.832v2.22656c0 1.98047-.246093 4.45312-.246093 4.45312C571.777 356.953 578.211 353.985 584.64 353.985c8.49219 0 15.0898 3.62891 18.3867 10.3906 4.78516-6.59766 11.2148-10.3906 19.2109-10.3906 12.3711 0 21.1094 7.83594 21.1094 21.1914V412.61H627.105Z" transform="translate(0 3e-06)"/></svg>