<?xml version="1.0" encoding="UTF-8"?><svg width="1024" height="1024" preserveAspectRatio="xMidYMid" version="1.1" viewBox="0 -3e-06 768 768" xmlns="http://www.w3.org/2000/svg" xmlns:xlink="http://www.w3.org/1999/xlink"><defs><clipPath id="a"><path d="M76 76.8008h641V691H76Z"/></clipPath><clipPath id="b"><path d="M242.922 76.8008v613.613c1.80078.128907 3.59766.128907 5.39844.128907h295.629V76.8008Zm347.281 0H543.949v613.613h1.02734c74.7734 0 140.43-61.0273 145.824-135.543l25.3086-342.656c5.52734-74.3867-51.1328-135.414-125.906-135.414Zm-387.109 0c-74.7734 0-131.434 61.0273-125.91 135.543L102.496 555C107.891 627.719 170.59 687.59 243.051 690.414V76.8008Z"/></clipPath><path id="c" d="M-76.8-76.8h921.6v921.6H-76.8Z"/></defs><g fill="#FFF"><use xlink:href="#c"/><use xlink:href="#c"/></g><g clip-path="url(#a)"><path clip-path="url(#b)" fill="#000" d="M76.8008 76.8008H716.09v613.613H76.8008Z"/></g><g fill="#FFF"><path d="M164.297 369.859C162.289 369.215 160.859 368.73 159.414 368.289 149.559 365.273 146.379 355.973 152.469 347.699c2.73047-3.70703 6.37109-6.375 10.543-8.3125 10.3594-4.8125 12.6875-3.70312 14.3398 7.57812C177.832 350.25 178.812 351.16 181.832 349.953 211.27 338.18 235.156 349.184 257.277 367.977c2.51172 2.13281 5.28516 7.45703 8.91406 3.94531C268.621 369.57 264.156 366.066 262.406 363.32 257.152 355.082 250.305 347.84 247.434 338.133 245.895 332.91 245.273 327.664 246.355 322.438c.949219-4.57031 3.76562-6.38281 8.04687-2.94922 4.22656 3.39453 7.49219 7.51953 9.36328 12.6406 3.45703 9.45313 6.77734 18.957 10.418 28.3359 .820312 2.10547.65625 6.61719 4.37109 5.13672 3.04297-1.20703.746093-4.63672.054687-7.03125 -2.99609-10.4297-6.32031-20.7734-8.96094-31.2891 -1.09375-4.35547-3.62109-10.9688 1.375-12.9453C276.992 311.965 281.16 317.969 283.895 322.762c6.41797 11.2617 7.07422 23.8047 6.01172 36.2891 -.5 5.88281.25 10.1094 5.43359 13.5508 4.65234 3.08984 8.40625 7.32813 11.5977 11.957 7.06641 10.2227 4.92578 17.2734-5.99219 23.2695 -4.11719 2.26562-11.8281.636719-11.9375 6.3125C288.937 417.734 294.66 421.363 297.621 425.105c4.11719 5.20312 8.28516 10.3867 9.58594 17.1875 .710938 3.73047 1.69922 7.69141-2.39453 9.91797 -3.78906 2.0625-7.27344 0-10.2227-2.39063C289.363 445.605 285.68 440.012 281.559 434.809 270.008 420.219 256.129 408.379 239.223 400.418 210.426 386.859 182.422 389.395 155.363 405.422 150.801 408.125 146.758 411.703 142.148 414.32 139.023 416.09 136.68 422.098 132.488 418.672c-3.53125-2.88281-1.5-7.92578.082031-11.8945 4.12109-10.3555 11.3906-18.4492 19.3281-25.9961C155.73 377.152 159.82 373.789 164.297 369.859Zm391.402 19.0469c-7.22266 16.2188-19.8086 21.9258-37.5 16.2461 -1.18359 13.4141 1.55078 26.3438.246093 39.293 -.410156 4.07031-.03125 8.57813-5.78906 8.44531 -4.75391-.109375-7.76562-2.60156-8.21094-7.85156C502.23 418.84 502.02 392.648 504.801 366.492c.71875-6.71875 4.03125-7.96875 9.53125-3.76953 1.55078 1.1875 2.17188 1.27344 3.85938.851563C538.406 358.5 545.637 361.719 556.285 380.375c2.78906-.847656 2.66406-3.67578 3.73438-5.61719 5.76562-10.4648 18.668-15.8867 30.0625-12.4023C597.055 364.488 601.84 368.504 601.559 376.527 601.273 384.66 595.82 388.305 588.898 389.664c-4.54297.894532-9.40625.167969-14.3984.167969 3.98828 7.33594 9.1875 9.18359 18.2461 6.53516 10.9648-3.20313 15.375-12.3555 19.3516-21.7695 1.02734-2.4375-1.17188-3.82422-2.26172-5.55859 -2.05859-3.28906-3.00391-6.87109-1.69922-10.625 .886719-2.54687 2.33594-4.83594 5.57031-4.92187C616.754 353.402 619.496 354.93 619.82 357.609 620.875 366.461 627.559 365.68 633.473 366.008c12.8281.707032 15.0898 3.9375 10.5859 15.7891 -.9375 2.47656-2.13672 4.85938-3.01953 7.35156C640.117 391.746 637.523 395.227 640.629 396.93 643.383 398.437 645.82 394.934 647.543 392.711 651.09 388.141 654.277 383.297 657.578 378.617c1.84375.246093 2.18359 1.60547 2.33984 2.83594 1.38281 10.5898-10.6211 25.7148-20.9023 26.4219 -9.47266.652344-15.1641-5.91406-12.9453-15.043C626.629 390.523 627.832 388.34 628.176 386.016c.421875-2.8125 5.50391-6.34375.492188-8.25391C624.555 376.195 618.547 373.07 616.164 381.656c-1.37109 4.94922-4.5 9.63672-7.66406 13.8281C594.391 414.18 569.23 411.766 558.461 390.871 557.996 389.977 557.75 388.84 555.699 388.906ZM540.094 384.66c.132812-6.84375-5-13.0625-10.9492-13.2773C522.07 371.125 516.668 376.367 516.469 383.672 516.262 391.195 521.051 396.508 528.207 396.703c6.51953.175781 11.75-5.125 11.8867-12.043Zm39.4102-1.27344c4.00391-1.42969 10.1914-.3125 10.3594-7.13281 .101563-4.03516-3.41016-5.24219-6.79688-4.89844 -4.9375.496093-8.50781 3.27344-9.25781 8.34766 -.640625 4.35156 3.0625 3.21484 5.69531 3.68359Z"/><path d="M350.004 382.266C354.98 376.563 358.051 370.336 363.379 365.73c4.26953-3.6875 9.11719-5.83984 14.6875-3.95703 5.125 1.73047 5.70312 6.67578 6.20703 11.125 .601562 5.24609.492187 10.5742.988281 15.832 .320312 3.38281-.882813 8.51562 5.05469 7.80859 4.76562-.566406 4.99609-4.26953 4.36719-8.50391 -1.87891-12.5312 6.02734-23.4805 18.6523-26.3945 13.4922-3.11719 27.0703 3.77344 31.1602 15.8086 2.94922 8.67188.0625 17.8281-7.60547 24.1562 -8.3125 6.85938-20.668 8.47266-29.8242 2.49609 -5.05469-3.29687-7.82812-3.07422-12.5898.492188C385.219 411.523 374.887 406.91 372.066 395.625c-1.10938-4.46094-.875-8.94922-1.14453-13.4297 -.144531-2.35547.109375-5.17969-2.5625-6.18359C365.289 374.855 363.379 377.32 361.762 379.371 356.606 385.895 353.379 393.488 350.316 401.109c-1.47266 3.65625-2.73828 7-7.64453 6.41016 -5.00781-.59375-4.57813-4.83594-4.83203-7.91406 -2.09375-25.6445-3.0625-51.3086-.578125-77.0039 .492187-5.0625 3.33203-7.07422 7.77734-7.19531C349.93 315.277 351.219 318.758 351.324 322.871 351.707 337.184 351.82 351.488 350.77 365.785 350.359 371.281 350.246 376.777 350.004 382.266Zm69.5195 14.4102c5.98437.140625 10.5664-5.14063 10.6602-12.2734C430.27 377.52 425.625 371.617 419.992 371.449 414.41 371.281 409.398 377.121 409.27 383.934 409.141 390.855 413.715 396.539 419.523 396.676Zm27.9687 10.4297c.714843-13.3438 1.23047-26.5586 2.1875-39.75 .527343-7.28125 3.97266-9.05078 9.76953-4.67969 2.49219 1.875 3.75.882813 5.46875.140625 5.91406-2.53516 11.9844-2.40234 17.957-.714844 12.1836 3.44141 19.75 15.25 17.3906 26.6992 -2.375 11.5703-16.3164 21.1719-28.8281 18.1367 -8.61328-2.09375-8.47266 1.27344-8.14844 7.59375 .511719 10.0352.242188 20.1055.453126 30.1562 .09375 4.39453-.570313 8.42969-5.98047 8.26172 -4.65234-.144531-8.03516-2.64844-8.21484-7.91797C449.523 444.238 449.43 443.445 449.387 442.66Zm37.3359-23.1523C484.773 377.023 480.18 371.605 474.203 371.426 467.133 371.211 461.957 376.516 461.887 384.055 461.813 391.883 466.402 396.719 473.898 396.695c6.76562-.019531 10.9883-4.9375 10.9297-12.7422Z"/></g></svg>