<?xml version="1.0" encoding="UTF-8"?><svg width="768" height="768" preserveAspectRatio="xMidYMid" version="1.1" viewBox="0 0 768 768" xmlns="http://www.w3.org/2000/svg" xmlns:xlink="http://www.w3.org/1999/xlink"><defs><clipPath id="a"><path d="M76 76.8008h641V691H76Z"/></clipPath><clipPath id="b"><path d="M242.922 76.8008v613.613c1.80078.128907 3.59766.128907 5.39844.128907h295.629V76.8008Zm347.281 0h-46.254v613.613h1.02734c74.7734 0 140.43-61.0273 145.824-135.543l25.3086-342.656c5.52734-74.3867-51.1328-135.414-125.906-135.414Zm-387.109 0c-74.7734 0-131.434 61.0273-125.91 135.543L102.496 555c5.395 72.719 68.094 132.59 140.555 135.414V76.8008Z"/></clipPath><path id="c" d="M-76.8-76.8h921.6v921.6H-76.8Z"/></defs><g transform="translate(0 3e-06)"><g fill="#FFF"><use xlink:href="#c"/><use xlink:href="#c"/></g></g><g clip-path="url(#a)"><path clip-path="url(#b)" fill="#000" d="M76.8008 76.8008H716.09v613.613H76.8008Z" transform="translate(0 3e-06)"/></g><g fill="#FFF"><path d="M206.984 390.633v30.4453h-18.586V393.73c0-7.60938-3.36328-10.8867-8.76172-10.8867 -6.01562 0-10.6211 3.71875-10.6211 12.5703v25.6641h-18.582V347.445h18.6719v25.3984c4.16092-3.8044 9.73492-5.7534 16.0199-5.7534 12.3906-.085938 21.8594 7.08203 21.8594 23.543m46.375 2.83203c0 8.14062-4.77734 12.7461-11.1523 12.7461 -6.28125 0-11.1484-4.60547-11.1484-12.7461 0-8.05469 4.86719-12.5664 11.1484-12.5664 6.375 0 11.1523 4.51172 11.1523 12.5664m-41.1523 0c0 16.1094 12.6562 27.5234 30 27.5234 17.5234 0 30.0039-11.5039 30.0039-27.5234 0-16.0195-12.4805-27.3477-30.0039-27.3477 -17.4336 0-30 11.3281-30 27.3477M334.25 390.898c.621094-7.52344 4.86719-11.5937 11.2383-11.5937 5.22266 0 9.02734 2.92187 10.2695 7.34766L334.25 390.898m25.7539 11.2383c-3.6289 3.0977-7.0779 4.6057-12.3009 4.6057 -5.84375 0-10-2.03906-12.0352-6.375l37.9648-7.25781c-.0896-17.3432-12.9216-27.0782-28.2306-27.0782 -16.9063 0-29.3828 11.4141-29.3828 27.3437 0 15.9336 12.3008 27.5273 31.1523 27.5273 10.0898 0 17.5234-2.92187 22.5664-8.58594l-9.7339-10.1791m98.3242-8.67188c0 8.14062-4.86719 12.7461-11.1484 12.7461 -6.28516 0-11.1523-4.60547-11.1523-12.7461 0-8.05469 4.86719-12.5664 11.1523-12.5664 6.19531 0 11.1484 4.51172 11.1484 12.5664m18.7656 0c0-16.9023-11.6836-27.3477-26.1094-27.3477 -6.19531 0-11.1523 1.76953-14.7812 5.48828v-24.25H417.531v72.75h17.789v-5.3125c3.53906 4.25 8.76172 6.19531 15.6641 6.19531 14.4258 0 26.1094-10.5312 26.1094-27.5234m23.5391-2.56641c.6214-7.5237 4.8674-11.5937 11.2424-11.5937 5.21875 0 9.02344 2.92187 10.2656 7.34766L500.633 390.898m25.8438 11.2383c-3.6288 3.0977-7.0818 4.6057-12.3008 4.6057 -5.84375 0-10.0039-2.03906-12.0391-6.375l37.9687-7.25781c-.0896-17.3432-12.9216-27.0782-28.2306-27.0782 -16.9063 0-29.3828 11.4141-29.3828 27.3437 0 15.9336 12.3008 27.5273 31.1523 27.5273 10.0859 0 17.5234-2.92187 22.5664-8.58594l-9.7339-10.1791m60.3594-8.67188c0 8.14062-4.78125 12.7461-11.0664 12.7461 -6.37109 0-11.1484-4.60547-11.1484-12.7461 0-8.05469 4.77734-12.5664 11.1484-12.5664 6.28516 0 11.0664 4.51172 11.0664 12.5664m-.2664-46.1101v24.25c-3.543-3.718-8.496-5.488-14.691-5.488 -14.5156 0-26.1992 10.5312-26.1992 27.3477 0 16.9922 11.6836 27.5234 26.1992 27.5234 6.90234 0 12.0352-1.94531 15.5742-6.19531v5.3125h17.7891v-72.75Zm26.3711 68.1484c5.22266 3.27344 14.5156 5.48438 23.543 5.48438 17.2578 0 26.2852-7.60938 26.2852-17.4336 0-21.0625-31.332-13.1875-31.332-20.5312 0-1.94922 2.30078-3.71875 8.49609-3.71875 4.69141 0 10.0039.972656 15.3125 3.89453L660.82 370.543c-5.308-2.922-13.539-4.512-20.972-4.512 -16.6406 0-25.9336 7.60938-25.9336 17.6094 0 21.2422 31.418 13.1875 31.418 20.2695 0 2.21094-2.03516 3.625-8.31641 3.625 -6.46094 0-13.6289-1.85547-18.5-4.86719L612.941 415.504m-303.824-10.535c-1.59375 1.0625-3.62891 1.68359-5.66406 1.68359 -3.36328 0-5.48828-2.125-5.48828-6.10547V380.012H310v-13.895h-12.035v-18.672h-18.676v53.2773c0 13.6289 7.87891 20.2656 21.5078 20.2656 4.86719 0 9.73438-.972656 12.9219-3.00781Zm72.2148-3.27344c0 12.5664 7.78906 19.293 20.4453 19.293 2.92187 0 5.66406-.351562 8.58594-1.32812l-.79704-13.8944c-.976562.53125-2.65625.976563-4.16016.976563 -3.62891 0-5.75391-2.03906-5.75391-6.01953v-53.368H381.246v54.3398" transform="translate(0 3e-06)"/><path d="M150.434 402.402h18.6719v18.6758H150.434Z" transform="translate(0 3e-06)"/><path d="M150.434 383.73h18.6719v18.6719H150.434Z" transform="translate(0 3e-06)"/><path d="M131.758 383.73h18.6758v18.6719H131.758Z" transform="translate(0 3e-06)"/></g></svg>