<?xml version="1.0" encoding="UTF-8"?><svg width="1024" height="1024" preserveAspectRatio="xMidYMid" version="1.1" viewBox="0 -3e-06 768 768" xmlns="http://www.w3.org/2000/svg"><defs><clipPath id="a"><path d="M76 76.8008h641V691H76Z"/></clipPath><clipPath id="b"><path d="M242.922 76.8008v613.613c1.80078.128907 3.59766.128907 5.39844.128907h295.629V76.8008Zm347.281 0H543.949v613.613h1.02734c74.7734 0 140.43-61.0273 145.824-135.543l25.3086-342.656c5.52734-74.3867-51.1328-135.414-125.906-135.414Zm-387.109 0c-74.7734 0-131.434 61.0273-125.91 135.543L102.496 555C107.891 627.719 170.59 687.59 243.051 690.414V76.8008Z"/></clipPath></defs><g clip-path="url(#a)"><path clip-path="url(#b)" fill="#000" d="M76.8008 76.8008H716.09v613.613H76.8008Z"/></g><g fill="#FFF"><path d="M599.785 366.691c-.417968 0-.753906-.351562-.753906-.757812V360.848H597.582c-.355469 0-.660156-.296875-.660156-.660156 0-.371094.304687-.664062.660156-.664062H601.98c.351562 0 .65625.292968.65625.664062 0 .363281-.304688.660156-.65625.660156H600.523v5.08594c0 .40625-.332032.757812-.738282.757812m10.8711 0c-.40625 0-.738281-.351562-.738281-.757812V361.508L608.027 366.414c-.0625.160157-.222656.277344-.402344.277344 -.175781 0-.332031-.113281-.394531-.277344L605.336 361.512v4.42188c0 .40625-.320313.757812-.726563.757812 -.417969 0-.757813-.351562-.757813-.757812V360.68c0-.683594.546876-1.23438 1.21484-1.23438 .523438 0 .960938.332032 1.14062.800782l1.41797 3.69922 1.43359-3.69922c.164062-.46875.617187-.800782 1.12891-.800782 .679688 0 1.22266.550782 1.22266 1.23438v5.25391c0 .40625-.335937.757812-.753906.757812M212.984 357.285c0-2.54297.789063-4.89844 2.12891-6.85156 -4.02734 1.1875-6.98828 4.86719-6.98828 9.28125v7.76953l4.85938.246094ZM208.125 410.73c0 4.41016 2.96094 8.09375 6.99219 9.28125C213.773 418.059 212.984 415.703 212.984 413.16V398.582H208.125Zm12.1484-12.1484H215.414v14.582c0 4.41016 2.96094 8.09375 6.98828 9.27734C221.063 420.488 220.273 418.133 220.273 415.59Zm0-43.7266c0-2.54297.789062-4.89844 2.12891-6.85156 -4.02734 1.1875-6.98828 4.86719-6.98828 9.28125v10.5664l4.85938.242188ZM165.496 351.742C161.945 353.863 159.539 357.707 159.539 362.141v46.1602c0 4.44141 2.40625 8.28125 5.95703 10.3984C164.762 416.926 164.395 415.078 164.395 413.16v-55.875c0-1.96094.398438-3.83203 1.10156-5.54297m6.1875.683593c0-1.96094.398437-3.82812 1.10156-5.53906 -3.55078 2.11719-5.95703 5.95703-5.95703 10.3984v55.8789c0 5.21875 3.30859 9.62891 7.93359 11.3477 -1.91797-2.46875-3.07813-5.55859-3.07813-8.91797Z"/><path d="M232.418 345.137c-5.36328 0-9.71484 4.35156-9.71484 9.71484v15.793L198.41 369.434V352.426c0-6.70312-5.44141-12.1445-12.1484-12.1445 -6.71094 0-12.1445 5.44141-12.1445 12.1445V415.59c0 6.71094 5.43359 12.1445 12.1445 12.1445 6.70703 0 12.1484-5.43359 12.1484-12.1445V396.156h24.293V415.59c0 5.36719 4.35156 9.71484 9.71484 9.71484 5.36719 0 9.71484-4.34766 9.71484-9.71484V354.855c0-5.36719-4.34766-9.71484-9.71484-9.71484m83.8828 59.1641V386.313H290.059v17.9922c0 1.91797-1.56641 3.55078-3.48828 3.55078 -1.98828 0-3.625-1.63281-3.625-3.55078V363.266c0-1.91797 1.63672-3.55078 3.55859-3.55078 1.98828 0 3.55469 1.63281 3.55469 3.55078V379.98h26.2422V363.266c0-1.91797 1.5625-3.55078 3.55859-3.55078 1.98828 0 3.55078 1.63281 3.55078 3.55078v41.0391c0 1.91797-1.5625 3.55078-3.55078 3.55078 -1.99609 0-3.55859-1.63281-3.55859-3.55078m12.1367-14.0117c0-9.88672 6.6875-17.9922 17.3516-17.9922 10.7383 0 17.3516 8.10547 17.3516 17.9922 0 9.95703-6.61328 18.0625-17.3516 18.0625 -10.6641 0-17.3516-8.10547-17.3516-18.0625m28.0195 0c0-6.47266-3.77344-12.3047-10.668-12.3047 -6.82812 0-10.6641 5.83203-10.6641 12.3047 0 6.53906 3.83594 12.375 10.6641 12.375 6.89453 0 10.668-5.83594 10.668-12.375m43.8867-17.9922c10.3125 0 16.7109 8.03906 16.7109 17.0703 0 1.91797-1.35547 3.05469-3.76953 3.05469H389.887c.5 5.82812 4.76953 10.6719 11.6641 10.6719 2.91406 0 5.97656-.929687 8.53516-2.78125 .355468-.28125.851562-.351562 1.42578-.351562 1.42188 0 2.55859 1.13672 2.55859 2.55859 0 .921874-.429687 1.63281-1.13672 2.13672 -3.41797 2.48438-7.47266 3.69531-12.0195 3.69531 -10.2422 0-17.7812-7.25391-17.7812-18.0664 0-9.94922 7.18359-17.9883 17.2109-17.9883M389.82 387.805h20.9766C410.656 383.254 407.594 377.566 400.344 377.566c-6.89844 0-10.1719 5.54687-10.5234 10.2383m31.3086 16.8516V362.91c0-1.77344 1.42188-3.19531 3.20313-3.19531 1.70703 0 3.19531 1.42188 3.19531 3.19531v41.7461c0 1.78125-1.48828 3.20313-3.19531 3.20313 -.425781.003906-.835937-.078125-1.22656-.238281 -.394531-.164063-.742188-.394532-1.04297-.695313 -.300781-.300781-.53125-.648437-.691406-1.03906 -.164063-.394531-.242188-.804688-.242188-1.23047m10.5156-2.41797c0-1.5625 1.21094-2.77344 2.77344-2.77344 .570312 0 1.13672.214844 1.56641.496094 2.62891 1.92187 6.04297 3.27344 9.66797 3.27344 4.83594 0 7.39453-1.98828 7.39453-4.91016 0-3.41016-3.91016-4.54688-8.32031-5.53906 -5.82812-1.35938-12.6523-2.92187-12.6523-10.3164 0-5.47266 4.6875-10.168 13.082-10.168 4.76562 0 8.53516 1.41797 11.4492 3.55469 .636719.496093 1.13672 1.20703 1.13672 2.13672 0 1.41406-1.21094 2.625-2.62891 2.625 -.496093 0-1.06641-.210938-1.42188-.496094C451.488 378.488 448.5 377.492 445.23 377.492c-4.33984 0-7.04297 1.70703-7.04297 4.48047 0 2.98828 3.69922 3.98438 7.96094 4.97656 5.97656 1.35156 13.0898 2.98828 13.0898 10.8789 0 5.90234-4.83594 10.5273-13.8672 10.5273 -4.76953 0-9.03125-1.20703-12.5156-3.83984C432.141 404.02 431.645 403.168 431.645 402.238m35.9883-2.84375c2.41797 0 4.48047 1.99609 4.48047 4.41016 0 2.41797-2.0625 4.48047-4.48047 4.48047 -2.41797 0-4.41016-2.0625-4.41016-4.48047 0-2.41406 1.99219-4.41016 4.41016-4.41016m37.707-9.10156c0-9.88672 6.68359-17.9922 17.3516-17.9922 10.7383 0 17.3516 8.10547 17.3516 17.9922 0 9.95703-6.61328 18.0625-17.3516 18.0625 -10.668 0-17.3516-8.10547-17.3516-18.0625m28.0234 0c0-6.47266-3.77344-12.3047-10.6719-12.3047 -6.82812 0-10.668 5.83203-10.668 12.3047 0 6.53906 3.83984 12.375 10.668 12.375 6.89844 0 10.6719-5.83594 10.6719-12.375m59.6328-7.60938V404.66c0 1.77344-1.49609 3.19922-3.26953 3.19922 -1.70703 0-3.12891-1.42578-3.12891-3.19922V384.602c0-3.98047-1.78125-5.90234-5.97656-5.90234 -3.48438 0-6.89844 3.92188-8.53516 6.41016V404.66c0 .425782-.078126.832032-.238282 1.22656 -.164062.390625-.394531.738281-.695312 1.03906 -.300782.300781-.644532.53125-1.03906.691407 -.390625.164062-.800781.242187-1.22266.242187 -1.70703 0-3.20313-1.42578-3.20313-3.19922V384.602c0-3.98047-1.70703-5.90234-6.04687-5.90234 -3.34375 0-6.67969 4.16016-8.39062 6.64453V404.66c0 1.77344-1.49219 3.19922-3.19922 3.19922 -1.77734 0-3.20313-1.42578-3.20313-3.19922V376c0-1.77734 1.42578-3.20313 3.12891-3.20313 1.78125 0 3.27344 1.42578 3.27344 3.20313v1.98828c1.42188-2.13281 5.97656-5.6875 11.0937-5.6875 5.19531 0 8.25 2.69922 9.31641 6.39844 1.98828-3.20313 6.64063-6.39844 11.6875-6.39844 6.33203 0 9.64844 3.48437 9.64844 10.3828"/><path d="M491.293 372.301c4.91016 0 8.32031 1.5625 10.9531 3.98047 .566406.5.996094 1.35156.996094 2.13672 0 1.63281-1.28516 2.91406-2.84375 2.91406 -.785157 0-1.42188-.289062-1.92578-.710937 -1.98828-1.84766-4.19141-2.63281-6.89453-2.63281 -6.75781 0-11.0937 5.19141-11.0937 12.3008 0 7.11328 4.34375 12.1523 11.0937 12.375 4.55859.160157 9.14844-3.15625 12.8359-8.98047 .460938-.722656 1.13281-2.06641 1.68359-2.76562 1.04688-1.32031 1.79297-.6875 2.40625-.046875 1.12891 1.17969 1.12109 3.98047.386719 5.35938C506.816 400.098 505.07 401.902 503.09 403.84 500.328 406.516 496.203 408.352 491.293 408.352c-10.3789 0-17.4922-7.75-17.4922-18.0625 0-10.3086 7.11328-17.9922 17.4922-17.9922m-103.59 29.9375c0 1.21094-3.46094 3.91797-5.95313 5.125 -1.41797.6875-2.84766.996094-4.91016.996094 -5.40234 0-8.17578-3.05859-8.17578-8.46484V378.773H365.391c-1.48828 0-2.84375-1.28125-2.84375-2.84766 0-1.49219 1.35547-2.77344 2.84375-2.77344h3.27344V366.613c-.003906-.425781.078126-.835937.238282-1.23047 .164062-.390624.394531-.738281.695312-1.03906 .300782-.300781.648438-.53125 1.03906-.695312 .394531-.160157.804687-.242188 1.23047-.238282 1.70312 0 3.19531 1.42188 3.19531 3.20313v6.53906h4.48438c1.55859 0 2.83984 1.28125 2.83984 2.77344 0 1.56641-1.28125 2.84766-2.83984 2.84766H375.062v19.6953c0 2.41797 1.14062 4.19531 3.34375 4.19531 3.91406 0 6.99219-6.07422 8.72656-6.07422 1.63281 0 .570313 4.08203.570313 5.64844"/></g></svg>