<?xml version="1.0" encoding="UTF-8"?><svg width="1024" height="1024" preserveAspectRatio="xMidYMid" version="1.1" viewBox="0 -3e-06 768 768" xmlns="http://www.w3.org/2000/svg" xmlns:xlink="http://www.w3.org/1999/xlink"><defs><clipPath id="a"><use xlink:href="#c"/></clipPath><clipPath id="b"><path d="M384 28.625C187.73 28.625 28.625 187.734 28.625 384c0 196.27 159.105 355.375 355.375 355.375 196.27 0 355.375-159.105 355.375-355.375C739.375 187.734 580.27 28.625 384 28.625Z"/></clipPath><path id="c" d="M28.625 28.625h710.75v710.75H28.625Z"/><path id="d" d="M-76.8-76.8h921.6v921.6H-76.8Z"/></defs><g fill="#FFF"><use xlink:href="#d"/><use xlink:href="#d"/></g><g clip-path="url(#a)"><use clip-path="url(#b)" fill="#000" xlink:href="#c"/></g><g fill="#FFF"><path d="M488.289 316.203C493.063 314.531 498.32 318.332 499.043 323.148 499.879 328.195 495.023 333.18 489.973 332.582 485.922 332.242 482.461 328.531 482.469 324.461 482.293 320.805 484.941 317.434 488.289 316.203Z"/><path d="M327.91 343.898C327.855 336.871 327.883 329.84 327.906 322.813c5.15234.066406 10.3086.058594 15.4609.019531 -.035157 7.01953.054687 14.0352-.039063 21.0547 4.62109 0 9.24609.039062 13.8711-.019531 -.046875 3.90625.363281 7.82031.015625 11.7305 -4.63281.078125-9.34766-.339844-13.9336.1875l-.628906.355469c-.246094 12.5586.210937 25.125-.214844 37.6836 -.03125 2.13672.261719 4.26563.667969 6.35938 .214843-.09375.632812-.28125.847656-.378906 1.03125.890624 1.85938 2.19141 3.3125 2.41406 3.34766.640625 6.78906.28125 10.1641-.011719 -.328126 3.98047-.128907 7.98047-.230469 11.9688 -6.875.742188-14.0898 1.625-20.7539-.726562 -2.98437-.984375-5.58984-3.16016-6.78125-6.10156C328.16 403.75 327.973 399.773 327.891 395.926c0-13.4531-.027344-26.9102.015625-40.3633 -3.44922-.007812-6.89844.007812-10.3398-.007812 -.011718-3.88672-.011718-7.77344.027344-11.6563 3.44141-.003907 6.875-.003907 10.3164 0Z"/><path d="M629.293 338.488c2.22266-.011719 4.44531.007813 6.67578 0C635.895 338.996 635.84 339.508 635.793 340.02 635.215 339.992 634.07 339.937 633.496 339.91 632.93 339.898 632.371 339.898 631.82 339.902c-.835937.023437-1.67187.050781-2.49219.089844 -.007813-.378907-.027344-1.125-.035156-1.50391Z"/><path d="M646.563 338.508C645.891 338.48 645.231 338.457 644.57 338.43c-.9375 1.94531-1.65234 3.98828-2.57422 5.93359 -.671875-2-1.375-3.99219-2.26953-5.91406 -.679687.011719-1.35547.027343-2.01953.03125 -.0625 2.79687-.035156 5.59375-.027343 8.39062 .34375 0 1.02734-.007813 1.37109-.007813 -.046875-2.28906-.105469-4.58203-.019531-6.86719 .984375 2.48828 1.67578 5.11719 3.12109 7.39844 1.24219-2.37109 2.06641-4.92188 2.98047-7.4375C645.18 342.262 645.105 344.559 645.086 346.855c.371093.015625 1.10547.042969 1.47656.046875 -.035156-2.79297-.015625-5.59766 0-8.39453Z"/><path d="M631.816 339.902C632.371 339.898 632.93 339.898 633.496 339.91c-.203125 2.3125-.148438 4.62891-.148438 6.94531 -.390625.007812-1.16797.015625-1.55078.015625 .019531-2.31641.019531-4.64062.019531-6.96875Z"/><path d="M295.004 352.41C288.23 345.645 278.66 341.805 269.082 342.156c-7.38281.011719-14.6367 2.57031-20.5273 6.98438 -7.94531 5.875-13.1758 15.1875-14.332 24.9766 -.121094 2.84766-.074218 5.69922.066406 8.54687C235.887 396.273 245.859 408.516 258.98 412.578 265.91 414.695 273.621 415.105 280.473 412.465c.589844-.019532 1.12891-.1875 1.61328-.5C294.563 407.891 303.676 395.93 305.422 383.051c1.5625-11.0898-2.44141-22.7852-10.418-30.6406Z"/><path d="M316.449 343.879l1.14453.019532C317.555 347.781 317.555 351.668 317.566 355.555l-1.125.054687c0-3.91016-.019531-7.82422.007813-11.7305Z"/><path d="M366.555 343.867c5.46484.046874 10.918.039062 16.3789-.007813 1.95312 6.75781 3.40234 13.6484 5.375 20.3984 2.62891 10.8633 5.75781 21.6016 8.30469 32.4844C398.547 390.738 399.703 384.52 401.348 378.441c2.9375-11.5117 5.67187-23.0664 8.6875-34.5625 5.14453.007813 10.293.039063 15.4375-.011718 4.26172 17.6172 8.35938 35.2813 12.7148 52.8672C443.043 379.121 447.633 361.43 452.566 343.84c5.21875.105468 10.4414.046875 15.6641.03125 -7.44141 23.4258-14.582 46.9453-21.9727 70.3867 -5.24219.011719-10.4883-.035156-15.7344.039063 -4.49219-17.4688-8.64063-35.0195-13.1172-52.4883 -.621094 1.89844-.960938 3.87891-1.42969 5.8125l-.15625.09375c-.234374.140625-.710937.433594-.949218.578125 -1.4375 3.89062-2.11328 8.00781-3.20313 11.9961 -.628907 2.19531-.816407 4.48047-.695313 6.75C409.156 396.187 406.551 405.176 404.469 414.27c-5.39453-.019531-10.7891 0-16.1914-.019531 -7.36328-23.4258-14.3828-46.957-21.7227-70.3828Z"/><path d="M483.035 343.859c5.15625.046875 10.3164.058594 15.4844.007813 -.007812 23.4727-.042969 46.9453.011719 70.418C493.352 414.242 488.18 414.25 483.008 414.289c.066407-23.4766.003907-46.9492.027344-70.4297Z"/><path d="M560.848 342.457c-3.27734-.300781-6.625-.625-9.87109.09375C543.27 344.324 536.887 350.414 534.293 357.832c.035156-4.64844.027343-9.29688.046875-13.9375 -4.39063 0-8.78125.003907-13.168 0L520.004 343.867c.011719 23.457.046875 46.9219-.015625 70.3906C525.102 414.23 530.219 414.23 535.336 414.25c-.070313-11.5273-.03125-23.0547-.027344-34.582 -.050782-2.66016.464844-5.28906.992187-7.88281l.152344-.058594c1.52344-5.78906 5.26953-11.2109 10.8906-13.6094C549.695 356.965 552.363 357.07 554.902 356.762c1.98047.242187 3.97266.417969 5.96484.578125 -.058594-4.95703-.011719-9.92578-.019532-14.8828Z"/><path d="M342.652 356.141l.628906-.355469c.152344 12.8945 0 25.8047.074219 38.6992 -.019531 1.79688.390625 3.55078.597656 5.32031 -.214844.09375-.632813.285156-.847656.378906 -.402344-2.09766-.699219-4.22656-.667969-6.35938 .425781-12.5586-.03125-25.125.214844-37.6836Z"/><path d="M219.906 361.051c-.390625-6.0625-3.8125-12.0664-9.09375-15.1992 -4.84766-3.13672-10.8477-3.85937-16.5117-3.72656 -7.75391.265625-15.5859 4.30078-19.5195 11.1055 -.105469-.0625-.328125-.183594-.4375-.242188 .28125-11.9063-.007812-23.8164.148438-35.7227 -5.14453 0-10.2891.019531-15.4375-.011719 .023437 32.3398.027343 64.6719 0 97.0117 5.14062-.050781 10.2852-.042969 15.4258 0 -.054688-13.7734 0-27.5391-.035157-41.3086 -.054687-3.05078.679688-6.04297 1.58984-8.93359 1.35938-1.58203 2.15625-3.58984 3.68359-5.03906 1.92578-2.03516 4.5-3.22656 7.05859-4.25l.121094-.136719c3.73828-.519531 7.5625-.445312 11.1641.761719 1.37109 1.27344 3.14844 2.11719 4.16406 3.73828C203.391 360.891 203.754 363.047 204.551 365c.566407 4.20312.355469 8.44922.390625 12.6719 -.019531 12.1953.039063 24.3906-.027344 36.5859 5.10938-.019531 10.2148-.046874 15.3281.007813C220.234 399.59 220.234 384.918 220.234 370.242c-.011719-3.06641.121094-6.14453-.328125-9.19141Z"/><path d="M414.871 368.293c.234375-.144531.714844-.4375.949218-.578125 -1.70312 6.41406-2.94141 12.957-4.84766 19.3242 -.121094-2.26953.066406-4.55469.691406-6.75C412.758 376.301 413.43 372.184 414.871 368.293Z"/></g><path fill="#E59095" d="M234.289 382.664C233.543 379.875 233.5 376.91 234.223 374.117c-.121094 2.84766-.074218 5.69922.066406 8.54687Z"/><path fill="#FFF" d="M631.664 382.977h1.375c.308594-3.78125.417969-7.64844-.335937-11.3867 -1.41406-11.1016-8.63281-21.75-18.7617-26.5469C613.895 345.02 613.852 344.996 613.809 344.973 601.512 338.73 588.43 344.039 588.43 344.039h.003906C580.113 347.109 573.223 353.934 569.887 362.137c-3.85156 8.61719-4.41016 18.4805-2.4375 27.6523l-.027344.128907c1.24609 5.76562 3.64062 11.3828 7.63672 15.7891 5.94531 6.83984 15.0781 10.4766 24.0703 10.4102 11.0039.628906 22.9766-4.10156 28.7383-13.8594C630.082 399.309 631.141 395.73 632.07 392.215 627.172 392.199 622.27 392.191 617.375 392.219c-.128906.5-.398438 1.49609-.53125 1.99609C615.813 395.82 614.879 397.512 613.617 398.937 612.535 399.977 611.457 400.844 610.391 401.566c-.179687.097656-.359375.199219-.546875.289063 -.015625.035156-.035156.070312-.054688.105469 -6.54687 4.10547-12.668 2.74609-16.9492.59375 -.027344-.042969-.058594-.085938-.082032-.128907C592.469 402.309 592.18 402.184 591.898 402.055c-2.75781-1.55469-4.58984-3.31641-5.01953-3.75 -3.67969-4.03125-5.02734-9.75781-5.13281-15.1328 16.6445-.15625 33.2891.226563 49.918-.195313ZM581.223 373.281l.609375-.066406c.023438-4.01172 1.10156-8.07422 3.49219-11.3281C589.746 355.273 599.07 352.348 606.391 355.59 613.332 358.445 617.332 365.875 617.59 373.152l.625.039062c-2.30859 1.42188-5.10938.84375-7.66797.917969 -8.51953 0-17.043-.074219-25.5547.039063 -1.32422.070312-2.61328-.25-3.76953-.867188Z"/></svg>