<?xml version="1.0" encoding="UTF-8"?><svg width="1024" height="1024" preserveAspectRatio="xMidYMid" version="1.1" viewBox="0 -3e-06 768 768" xmlns="http://www.w3.org/2000/svg" xmlns:xlink="http://www.w3.org/1999/xlink"><defs><clipPath id="a"><path d="M76 77.1914h641V691H76Z"/></clipPath><clipPath id="b"><path d="M242.922 77.1914v613.617c1.80078.128906 3.59766.128906 5.39844.128906h295.629V77.1914Zm347.281 0H543.949v613.617h1.02734c74.7734 0 140.43-61.0273 145.824-135.547l25.3086-342.652c5.52734-74.3906-51.1328-135.418-125.906-135.418Zm-387.109 0c-74.7734 0-131.434 61.0273-125.91 135.547l25.3125 342.652C107.891 628.109 170.59 687.98 243.051 690.809V77.1914Z"/></clipPath><path id="c" d="M-76.8-76.8h921.6v921.6H-76.8Z"/></defs><g fill="#FFF"><use xlink:href="#c"/><use xlink:href="#c"/></g><g clip-path="url(#a)"><path clip-path="url(#b)" fill="#000" d="M76.8008 77.1914H716.09v613.617H76.8008Z"/></g><g fill="#FFF"><path d="M636.426 371.746c0 21.4375-15.0508 35.875-41.6523 35.875 -12.9492-.175782-25.7266-3.41016-37.1016-9.625v-20.125c7.26172 4.46094 21.0898 12.5117 37.4531 12.5117 12.7734 0 20.8242-5.07422 20.8242-15.6641 0-7.96094-6.03516-13.3867-23.9766-17.5859C568 351.355 558.371 338.582 558.371 323.531c0-17.3281 11.2031-33.2539 39.0273-33.2539 10.6758.265625 21.1758 2.97656 30.7148 7.96484v18.5508C618.926 310.844 608.336 307.43 597.398 306.906c-13.3867 0-18.5508 5.77344-18.5508 13.7383 0 7.96094 7.26562 12.5117 20.1289 15.6602C624.875 342.344 636.426 354.77 636.426 371.746Z"/><path d="M540.434 392.223c3.0625-.089844 6.125-.703125 8.92578-1.92578v9.625C544.633 404.035 538.684 406.309 532.473 406.309c-13.4766 0-19.5156-7-22.0508-17.5859 -9.97656 12.3359-25.1133 19.25-40.9531 18.8984 -30.3633 0-53.7266-26.25-53.7266-58.6289 0-32.375 23.3633-58.8008 53.7266-58.8008 16.1875-.699218 31.8516 6.125 42.2656 18.5508l7.69922-17.3242h13.7383v89.9531C533.082 389.332 535.621 392.223 540.434 392.223Zm-30.625-63.0039c-7.26172-13.0391-21.0898-21-35.9648-20.9141 -20.8242 0-34.8281 15.6641-34.8281 40.9531 0 25.2891 14.0898 40.6875 34.8281 40.6875 14.9648-.347656 28.7031-8.57422 35.9648-21.6992Z"/><path d="M279.41 309.094C289.734 320.031 295.246 334.555 294.637 349.52 295.16 364.48 289.648 379.094 279.41 389.945c-10.5 10.5-26.4258 16.8008-48.1289 16.8008h-36.75V292.293h36.8398c21.6992 0 37.5391 6.29688 48.0391 16.8008ZM272.934 349.605C273.461 340.07 270.484 330.707 264.535 323.18 258.496 316.441 248.434 311.891 231.543 311.891h-15.75V387.41h15.75c16.8906 0 26.9531-4.72656 32.9922-11.4648 5.94922-7.4375 8.92578-16.8008 8.39844-26.3398Z"/><path d="M401.738 377.172L408.215 390.82c-12.9492 10.6758-29.2266 16.625-46.1133 16.8008 -35.1758 0-57.5781-24.9375-57.5781-58.8906 0-35.5273 24.5-58.5391 54.4258-58.5391 28.4414 0 48.5664 20.4766 48.5664 43.8398C407.43 338.055 406.902 341.992 405.941 345.844H327.535C325.613 363.434 332.961 389.246 368.84 389.246c11.8984-.613282 23.4492-4.8125 32.8984-12.0742ZM329.461 330.441H384.5c.175781-.785156.351562-1.66016.351562-2.53516 0-10.5898-8.57422-20.8281-25.5508-20.8281 -14.2617-.261719-26.7773 9.45313-29.8398 23.3633Z"/><path d="M172.828 292.293H147.539l-2.97266 8.75s7.26172 1.05078 7.26172 10.8477v75.3437c0 9.80078-7.08594 10.8477-7.08594 10.8477l3.14844 8.83984H173.18Z"/><path d="M647.801 297.629v11.1992H644.914V297.629H640.453V295.355h11.8984v2.27344Zm19.2539 11.1992V300.781c0-.351562 0-1.40234 0-1.40234s-.265626 1.05078-.4375 1.40234L663.027 308.828h-1.75L658.129 300.781c0-.351562-.527344-1.40234-.527344-1.40234s0 1.05078 0 1.40234v8.04687H655.066V295.441h2.97266L662.238 304.98l4.20312-9.53906h2.97266v13.3867Z"/><path d="M199.43 446.91h2.625l12.8633 29.9258H210.805L207.219 468.437h-13.125L190.504 476.836H186.656Zm6.5625 18.3789L200.656 452.949l-5.25 12.3398Z"/><path d="M342.586 461.961C342.324 453.563 348.977 446.563 357.375 446.297c.351562 0 .699219 0 1.13672 0 3.67578-.085937 7.26562.964844 10.3281 2.97656v4.11328c-2.80078-2.625-6.5625-4.02344-10.4141-3.9375 -6.82422 0-12.25 5.51172-12.25 12.3359 0 6.82812 5.51172 12.2539 12.25 12.2539 3.85156.085938 7.52344-1.22656 10.4141-3.85156v4.19922c-3.0625 2.10156-6.73828 3.15234-10.4141 3.15234 -8.40234.347657-15.4883-6.21484-15.8398-14.6133 0-.351562 0-.703125 0-.964843Z"/><path d="M378.727 461.961c-.085937-8.75 7-15.9258 15.8398-16.0117 8.75-.089844 15.9258 7 16.0117 15.8359 .085937 8.75391-7 15.9258-15.8398 16.0156 0 0-.085937 0-.085937 0 -8.48828.261719-15.6641-6.38672-15.9258-14.875 0-.351562 0-.703125 0-.964843Zm27.6523 0C406.027 455.488 400.426 450.5 393.953 450.848 387.477 451.199 382.488 456.801 382.84 463.273c.347656 6.21484 5.60156 11.1133 11.8125 11.1133 6.38672.089843 11.7266-5.07422 11.7266-11.5508 .085938-.261719 0-.613282 0-.875Z"/><path d="M422.129 446.91h3.9375l11.4648 24.8516L449.078 446.91h3.58984v29.9258H448.992V456.449c0-.789063 0-2.53906 0-2.53906s-.699219 1.83984-1.05078 2.53906L438.578 476.926H435.867L426.68 456.535C426.328 455.836 425.629 454 425.629 454s0 1.75 0 2.53516v20.4766H422.043Z"/><path d="M465.879 446.91h9.89062c4.98828 0 9.01172 4.02734 9.01172 9.01562 0 4.98437-4.02344 9.01172-9.01172 9.01172h-5.6875v11.8984H465.879Zm9.89062 14.7891c3.14844.261719 5.86328-2.10156 6.125-5.25 .261719-3.14844-2.10156-5.86328-5.25-6.125 -.261719 0-.613281 0-.875 0h-5.6875v11.375Z"/><path d="M503.422 446.91h2.79687l12.8633 29.9258H514.969L511.383 468.437H497.996L494.406 476.836H490.559Zm6.38672 18.3789l-5.25-12.3398 -5.25 12.3398Z"/><path d="M529.059 446.91h2.27344l17.8516 22.3164V446.91h3.58984v29.9258H550.496L532.645 454.523v22.3125H529.059Z"/><path d="M574.387 464.938L562.66 446.824h4.375l9.53906 14.6992L585.938 446.91h4.11328L578.324 465.023v11.9883h-3.9375Z"/><path d="M242.922 467.039c.347656 3.58594 3.0625 4.89844 6.38672 4.89844 2.36328 0 6.47266-.4375 6.30078-3.58594 -.175781-3.15234-4.64062-3.58984-9.1875-4.72656C241.871 462.574 237.406 461 237.406 455.313c0-5.6875 6.65234-8.13672 11.7266-8.13672 5.77344 0 11.0273 2.44922 11.8125 8.66016H254.469C253.945 452.949 251.496 452.25 248.781 452.25c-1.83594 0-5.16016.4375-5.16016 2.88672 0 3.0625 4.55078 3.58594 9.1875 4.55078 4.55078.875 9.10156 2.71094 9.10156 8.22656 0 6.64844-6.73828 9.1875-12.6016 9.1875 -7.26172 0-12.3398-3.15234-12.5156-9.80078Z"/><path d="M289.211 469.75c0 1.57422.347656 2.10156 1.48828 2.10156 .523437.085938 1.04688.085938 1.48438 0v4.28516c-1.3125.4375-2.625.613281-3.9375.699219 -2.53516 0-4.28516-.875-4.8125-3.58594 -2.71094 2.36328-6.21094 3.67578-9.80078 3.58594 -5.07422 0-9.625-2.71094-9.625-8.22266 0-7 5.60156-8.14062 10.8516-8.75 4.46094-.875 8.48828-.351562 8.48828-3.9375 0-3.58984-3.32422-3.85156-5.86328-3.85156 -3.58594 0-5.94922 1.39844-6.21484 4.46094H264.883c.4375-7.26172 6.5625-9.36328 12.7773-9.36328 5.51172 0 11.2891 2.27734 11.2891 8.22656ZM282.996 461.961C280.547 463.012 278.008 463.539 275.383 463.625c-2.71094.4375-5.07422 1.39844-5.07422 4.72656 0 3.32422 3.58984 3.58594 5.6875 3.58594 2.71484 0 7-1.39844 7-5.33594Z"/><path d="M299.359 467.039c.351563 3.58594 3.0625 4.89844 6.39062 4.89844 2.35938 0 6.47266-.4375 6.29688-3.58594 -.171875-3.15234-4.72266-3.58984-9.1875-4.72656C298.309 462.574 293.848 461 293.848 455.313c0-5.6875 6.64844-8.13672 11.7266-8.13672 5.77344 0 10.8477 2.44922 11.8125 8.66016H311C310.473 452.949 308.023 452.25 305.223 452.25c-1.75 0-5.07422.4375-5.07422 2.88672 0 3.0625 4.55078 3.58594 9.1875 4.55078 4.55078.875 8.92578 2.44922 8.92578 8.05078 0 6.64844-6.73828 9.1875-12.6016 9.1875 -7.26172 0-12.4258-3.15234-12.5117-9.80078h6.21094Z"/></g></svg>