<?xml version="1.0" encoding="UTF-8"?><svg width="1024" height="1024" preserveAspectRatio="xMidYMid" version="1.1" viewBox="0 -3e-06 768 768" xmlns="http://www.w3.org/2000/svg" xmlns:xlink="http://www.w3.org/1999/xlink"><defs><clipPath id="a"><use xlink:href="#c"/></clipPath><clipPath id="b"><path d="M384 28.625C187.73 28.625 28.625 187.73 28.625 384c0 196.27 159.105 355.375 355.375 355.375 196.27 0 355.375-159.105 355.375-355.375C739.375 187.73 580.27 28.625 384 28.625Z"/></clipPath><path id="c" d="M28.625 28.625h710.75v710.75H28.625Z"/><path id="d" d="M-76.8-76.8h921.6v921.6H-76.8Z"/></defs><g fill="#FFF"><use xlink:href="#d"/><use xlink:href="#d"/></g><g clip-path="url(#a)"><use clip-path="url(#b)" fill="#000" xlink:href="#c"/></g><g fill="#FFF"><path d="M539.375 396.66C549.867 406.75 557.535 420.875 554.711 436.613 549.867 460.426 530.09 477.781 506.684 482.621c-2.01953.40625-13.3164 2.42188-22.1953 2.42188H419.914l31.0742-123.492 52.4648-18.1641 -25.8281 103.723c19.3711-.40625 32.6914-14.9336 31.4805-28.6563 -1.21094-13.7227-7.66797-20.582-16.1445-24.6172C494.98 393.027 523.633 374.867 517.582 355.898 511.121 336.93 482.469 339.352 465.922 343.793 453.41 346.617 427.984 354.285 419.512 357.918L387.223 485.043H337.586l26.6328-106.141c-.804688 0-39.5508 17.7578-39.5508 17.7578l13.3203-53.6758c15.3359-6.85938 80.3125-33.0937 122.285-39.9531 56.0977-9.28516 91.6094 6.85938 101.699 34.707 9.6875 27.8477-4.4375 49.2344-22.5977 58.9219"/><path d="M268.168 378.5L257.273 421.277C251.621 443.477 236.691 465.672 208.035 466.48L194.719 519.75c4.84375 0 27.8477-2.41797 48.0234-10.4922 31.8828-13.3164 56.5039-37.1289 65.3828-74.6602L330.32 346.215C329.918 346.617 285.926 367.602 268.168 378.5"/><path d="M287.945 300.609L268.574 378.5C285.926 368.008 329.918 347.02 330.723 346.617l11.7031-45.6055H287.945"/></g></svg>