<?xml version="1.0" encoding="UTF-8"?><svg width="1024" height="1024" preserveAspectRatio="xMidYMid" version="1.1" viewBox="0 -3e-06 768 768" xmlns="http://www.w3.org/2000/svg" xmlns:xlink="http://www.w3.org/1999/xlink"><defs><clipPath id="a"><path d="M76 76.8008h641V691H76Z"/></clipPath><clipPath id="b"><path d="M242.922 76.8008v613.613c1.80078.128907 3.59766.128907 5.39844.128907h295.629V76.8008Zm347.281 0H543.949v613.613h1.02734c74.7734 0 140.43-61.0273 145.824-135.543l25.3086-342.656c5.52734-74.3867-51.1328-135.414-125.906-135.414Zm-387.109 0c-74.7734 0-131.434 61.0273-125.91 135.543L102.496 555C107.891 627.719 170.59 687.59 243.051 690.414V76.8008Z"/></clipPath><path id="c" d="M-76.8-76.8h921.6v921.6H-76.8Z"/></defs><g fill="#FFF"><use xlink:href="#c"/><use xlink:href="#c"/></g><g clip-path="url(#a)"><path clip-path="url(#b)" fill="#000" d="M76.8008 76.8008H716.09v613.613H76.8008Z"/></g><g fill="#FFF"><path d="M215.387 332.457h7.72656v69.0977H215.387Z"/><path d="M240.219 333.855c2.82031 0 4.85938 1.96094 4.85938 4.80859 0 2.84766-2.03906 4.85547-4.85938 4.85547 -2.81641 0-4.75781-2.00781-4.75781-4.85547 0-2.84766 1.94531-4.80859 4.75781-4.80859Zm3.89453 20.6133v47.1094H236.387V354.469Z"/><path d="M254.191 377.855c0-14.1328 10.1523-24.3906 23.5156-24.3906 8.35547 0 14.4766 3.63281 17.9727 8.6875V354.449h7.72656v43.7227c0 14.6211-9.91406 23.9961-25.457 23.9961 -8.69531 0-16.5234-3.33594-21.5742-9.27734L261.48 407.789c4.27344 4.66016 9.95703 7.26172 16.4688 7.26172 10.832 0 17.7305-6.13281 17.7305-15.75V393.805C292.277 398.762 286.059 402.539 277.707 402.539c-13.3633 0-23.5156-10.5-23.5156-24.6836Zm7.67969 0c0 9.76562 6.89844 17.6172 16.6133 17.6172 9.95703 0 17.293-7.85156 17.293-17.6172 0-9.71484-7.33594-17.3203-17.293-17.3203C268.77 360.531 261.871 368.137 261.871 377.855Z"/><path d="M316.453 401.551V332.457h7.77344v29.0508C326.848 357.141 332.387 353.461 339.82 353.461c12.1914 0 19.5781 7.30859 19.5781 19.4297v28.6602H351.719V374.809c0-9.17578-4.75781-13.9883-13.1172-13.9883 -7.96875 0-14.4297 5.54688-14.4297 14.1367v26.5977H316.453Z"/><path d="M365.961 361.176V354.457h8.64844V339.34h7.625v15.1133h15.4023v6.72266H382.281v25.4688c0 6.18359 3.30469 8.88672 8.0625 8.88672 2.52734 0 5.73438-.6875 7.96875-1.81641l1.02344 6.72266c-1.99219 1.12891-6.02734 2.11328-9.8125 2.11328 -8.98828 0-14.9609-5.00391-14.9609-14.625v-26.75Z"/><path d="M409.957 401.551V332.457H417.73v29.0508c2.625-4.36719 8.16406-8.04687 15.5938-8.04687 12.1914 0 19.5781 7.30859 19.5781 19.4297v28.6602H445.227V374.809c0-9.17578-4.75781-13.9883-13.1172-13.9883 -7.96875 0-14.4297 5.54688-14.4297 14.1367v26.5977H409.957Z"/><path d="M462.09 378c0-13.7891 10.5859-24.5352 24.7734-24.5352 14.1875 0 24.7813 10.7461 24.7813 24.5352 0 13.7891-10.5938 24.5391-24.7813 24.5391 -14.1875 0-24.7734-10.7461-24.7734-24.5391Zm24.7695 17.2773c9.8125 0 17.0508-7.55859 17.0508-17.2734s-7.23438-17.2734-17.0508-17.2734c-9.8125 0-17.0508 7.55859-17.0508 17.2734s7.23828 17.2734 17.0508 17.2734Z"/><path d="M519.293 383.156V354.453h7.67969v26.793c0 9.17969 4.71094 13.9375 13.0156 13.9375 8.0625 0 14.4297-5.49219 14.4297-14.0859V354.453h7.72656v47.1094H554.418V394.5C551.797 398.914 546.309 402.547 538.777 402.547 526.629 402.543 519.293 395.227 519.293 383.156Z"/><path d="M576.215 387.57c2.57422 4.70703 7.1875 7.94531 13.9453 7.94531 6.06641 0 10.3945-2.60156 10.3945-6.62109 0-4.36719-3.20703-5.74219-11.0742-7.50781C579.52 379.133 572.426 376.039 572.426 367.008c0-8.24609 7.72656-13.543 17.3398-13.543 8.41016 0 14.625 4.12109 17.3945 8.73438L601.871 366.613C599.637 363.328 595.797 360.48 589.773 360.48c-5.92578 0-9.71484 2.5-9.71484 6.37891 0 4.51562 3.73828 5.74219 11.6563 7.65625 10.0625 2.45312 16.6172 5.69141 16.6172 14.3789 0 8.33984-8.35938 13.6445-18.168 13.6445 -9.66797 0-16.5156-4.125-19.8711-10.6016Z"/><path d="M637.586 353.465c11.6602 0 22.4961 8.29297 22.4961 22.1289 0 1.42578-.050781 2.99609-.246093 4.32031H621.406C621.894 388.5 628.258 395.422 637.977 395.422c6.55469 0 11.3711-3.09375 14.7188-7.90234L658.574 391.84C654.297 398.516 646.719 402.539 637.977 402.539c-14.0391 0-24.3906-10.6992-24.3906-24.5391 0-13.8359 10.7383-24.5352 24-24.5352ZM621.703 373.488h30.6563C651.824 365.73 645.555 360.582 637.637 360.582c-8.06641 0-14.7695 5.14844-15.9336 12.9063Z"/><path d="M193.852 377.547H162.527L155.352 386.629h38.5c2.35938 0 4.27344-2.03516 4.27344-4.54297 0-2.50781-1.91406-4.53906-4.27344-4.53906Z"/><path d="M164.48 342.09c1.51562-1.92188 1.28516-4.78125-.527344-6.39453 -1.80859-1.61719-4.50391-1.36328-6.02344.558594L129.66 372.031V386.16Z"/><path d="M176.719 350.129l10.7227-13.5664c1.51953-1.92188 1.28125-4.78125-.53125-6.39844 -1.80859-1.61328-4.50391-1.35937-6.02344.5625L131.941 392.668 129.66 395.559v6.19531h64.168c2.36328 0 4.27734-2.03125 4.27734-4.53906 0-2.50781-1.91406-4.54297-4.27734-4.54297H143.105Z"/><path d="M318.105 433.023V418.078h10.5469v2.57422H321.051v3.51172h5.96484v2.57422H321.051v6.28516Zm23.7422.21875c-4.48438 0-7.75391-3.14844-7.75391-7.66016 0-4.52344 3.26953-7.72656 7.75391-7.72656 4.50391 0 7.76562 3.21484 7.76562 7.72656 0 4.51172-3.26172 7.66016-7.76562 7.66016ZM337.125 425.57c0 2.92969 1.99609 4.91016 4.73438 4.91016 2.76953 0 4.73437-1.98047 4.73437-4.91016 0-2.90625-1.96484-4.94141-4.73437-4.94141 -2.75 0-4.73438 2.03516-4.73438 4.94141Zm22.6523 7.44141H356.82V418.078h6.53516c3.21875 0 5.30078 1.93359 5.30078 4.79688 0 1.90625-1.03516 3.46875-2.75781 4.21484l3.34766 5.93359H366.02l-3.02344-5.4375H359.777Zm0-12.3594v4.35937h3.39453c1.625 0 2.46484-1.00391 2.46484-2.13672 0-1.24219-.839844-2.22266-2.46484-2.22266Zm16.3477 12.3711V418.078h3.12109l4.77734 9.94922 4.76562-9.94922H391.91v14.9453H388.965V423.855L384.973 432.023H383.063L379.07 423.855v9.16797Zm23.9531 0V418.078h10.5391v2.57422H403.023v3.44531h6.58984v2.57422H403.023v3.78516h7.75391v2.56641Zm20.8633-.011719H417.988V418.078H424.52c3.21875 0 5.30078 1.93359 5.30078 4.79688 0 1.90625-1.03516 3.46875-2.76172 4.21484L430.41 433.023H427.18L424.16 427.586H420.941Zm0-12.3594v4.35937h3.39062c1.62891 0 2.46875-1.00391 2.46875-2.13672 0-1.24219-.839843-2.22266-2.46875-2.22266Zm27.2656 9.80469v2.56641h-10.918V418.078h2.94531v12.3789Zm2.35156-12.3789h3.51562l3.72266 6.28125 3.75781-6.28125h3.40234L459.246 427.375v5.64844h-2.9375V427.375Zm36.8008 15.1641c-4.48438 0-7.75781-3.14844-7.75781-7.66016 0-4.52344 3.27344-7.72656 7.75781-7.72656 4.50391 0 7.76562 3.21484 7.76562 7.72656 0 4.51172-3.26172 7.66016-7.76562 7.66016ZM482.637 425.57c0 2.92969 1.99609 4.91016 4.73438 4.91016 2.76562 0 4.73047-1.98047 4.73047-4.91016 0-2.90625-1.96484-4.94141-4.73047-4.94141 -2.75 0-4.73438 2.03516-4.73438 4.94141Zm17.3398-4.85156V418.078h12.1914v2.64062H507.547v12.3047H504.613V420.719Zm18.2148 12.3047H515.047l5.97656-14.9453h3.38281l5.98828 14.9453H527.254L526.164 430.094h-6.875ZM520.121 427.73h5.19141L522.727 421.18Zm28.8672-9.65234v14.9453H546.039V418.078Zm11.1172 14.9453H557.164V418.078h2.67188l8.19141 10.2578V418.078h2.94531v14.9453H568.258L560.105 422.875Zm18.1289-3.3125l2.16797-1.58594c.699218 1.44141 2.03125 2.43359 3.80859 2.43359 1.42187 0 2.54297-.695313 2.54297-1.66406 0-.988281-1.10156-1.51953-2.86719-2.07812 -2.84766-.902344-5.17188-1.78516-5.17188-4.66797 0-2.81641 2.73438-4.29297 5.24609-4.29297 2.68359 0 4.53906 1.58594 5.47656 3.24609L587.168 422.73c-.640625-1.08984-1.71094-2.1875-3.28125-2.1875 -1.14844 0-2.16016.613281-2.16016 1.59375 0 1.19922 1.07813 1.375 2.93359 2.03906 2.78125.988281 5.09766 1.75 5.09766 4.69922 0 2.92578-2.9375 4.36719-5.57812 4.36719 -2.85938 0-5.0625-1.50781-5.94531-3.53125Zm21.6797-11.6328v14.9453H596.973V418.078Zm14.8867 15.1641c-4.31641 0-7.67969-3.32422-7.67969-7.69141 0-4.37109 3.27344-7.69531 7.60547-7.69531 2.5625 0 4.92969 1.23438 6.48828 3.51172L618.895 423.039C617.738 421.277 616.234 420.609 614.727 420.609c-2.69531 0-4.58203 2.04688-4.58203 4.94141 0 2.90625 1.96484 4.94141 4.65625 4.94141 2.46875 0 3.85156-1.46484 4.19141-3.05078H614.508v-2.5625h7.46094c.046875.386719.054688.824219.054688 1.19922 0 3.83984-2.68359 7.16406-7.22266 7.16406Zm14.3242-15.1641h2.94141v6.03906h7.22266V418.078h2.9375v14.9453h-2.9375V426.684H632.066v6.33984H629.125Zm19.6484 2.64062V418.078h12.1953v2.64062h-4.625v12.3047H653.41V420.719Z"/></g></svg>