<?xml version="1.0" encoding="UTF-8"?><svg width="1024" height="1024" preserveAspectRatio="xMidYMid" version="1.1" viewBox="0 -3e-06 768 768" xmlns="http://www.w3.org/2000/svg" xmlns:xlink="http://www.w3.org/1999/xlink"><defs><clipPath id="a"><use xlink:href="#e"/></clipPath><clipPath id="b"><path d="M384 28.625C187.73 28.625 28.625 187.734 28.625 384c0 196.27 159.105 355.375 355.375 355.375 196.27 0 355.375-159.105 355.375-355.375C739.375 187.734 580.27 28.625 384 28.625Z"/></clipPath><clipPath id="c"><path d="M140.965 322.043H600v114.426H140.965Z"/></clipPath><clipPath id="d"><path d="M599 328h27.9648v29H599Z"/></clipPath><path id="e" d="M28.625 28.625h710.75v710.75H28.625Z"/><path id="f" d="M-76.8-76.8h921.6v921.6H-76.8Z"/></defs><g fill="#FFF"><use xlink:href="#f"/><use xlink:href="#f"/></g><g clip-path="url(#a)"><use clip-path="url(#b)" fill="#000" xlink:href="#e"/></g><g fill="#FFF"><path clip-path="url(#c)" d="M580.644 373.891C580.242 371.258 579.836 367.613 577.203 364.777c-2.22656-2.42969-5.875-3.64453-9.11328-3.64453 -4.45703 0-7.69531 2.22656-9.51953 4.25 -2.63281 2.83594-3.24219 5.875-3.84766 8.50781Zm18.6328 23.8984C597.051 401.027 594.82 404.27 591.582 407.305 586.113 412.57 577.809 416.422 567.684 416.422c-18.8359 0-32.1992-12.1523-32.1992-33.2148 0-15.5938 7.49219-35.4414 32.6055-35.4414 3.84766 0 14.7852.402344 22.8828 9.31641C599.277 365.992 599.684 378.547 599.887 385.84H554.52c-.203125 8.10156 4.45703 16 14.3789 16 10.3281 0 13.7734-6.68359 16-11.3438Zm-108.352-42.125c1.82422-2.02734 3.03906-3.44531 6.28125-5.0625 2.83203-1.21875 7.08594-2.23047 11.543-2.23047 3.84766 0 8.10156.8125 11.3398 2.63281C526.773 354.648 528.394 360.32 528.394 370.246v43.9453H509.762v-36.25c0-5.875-.203125-7.89844-.808594-9.51953C507.535 364.98 504.293 363.563 500.648 363.563c-9.92188 0-9.92188 8.10156-9.92188 16v34.6289H471.891V349.992h18.8359ZM460.144 333.586c0 5.67187-4.45703 10.1289-10.1289 10.1289 -5.46484 0-10.125-4.66016-10.125-10.1289 0-5.66797 4.45703-10.125 10.125-10.125 5.67188 0 10.1289 4.66016 10.1289 10.125M440.699 349.789h18.4297v64.4023H440.699ZM428.145 414.191H409.309V322.043h18.8359ZM381.766 373.891C381.363 371.258 380.957 367.613 378.121 364.777c-2.22656-2.42969-5.875-3.64453-9.11328-3.64453 -4.45703 0-7.69531 2.22656-9.51953 4.25 -2.63281 2.83594-3.23828 5.875-3.84766 8.50781Zm18.8359 23.8984C398.375 401.027 396.145 404.27 392.906 407.305 387.437 412.57 379.133 416.422 368.805 416.422c-18.8359 0-32.2031-12.1523-32.2031-33.2148 0-15.5938 7.49609-35.4414 32.6094-35.4414 3.84766 0 14.7852.402344 22.8828 9.31641C400.398 365.992 400.805 378.547 401.207 385.84H355.641c-.203125 8.10156 4.45703 16 14.582 16 10.3281 0 13.7734-6.68359 16.2031-11.3438ZM327.289 394.547c0-.203125-.40625-.203125-.40625 0 -.40625.609375-.8125 1.41797-1.41797 2.02734 -3.84766 4.45312-8.50781 4.45312-9.51953 4.45312 -9.92187 0-14.1758-10.7344-14.1758-19.2383 0-7.69531 3.44141-19.4414 13.5703-19.4414 2.83203 0 5.26562 1.01172 7.08594 2.22656 2.63281 1.82422 3.84766 3.64453 4.86328 5.67188 .199219.199218.402344.199218.402344.199218C329.109 365.18 331.742 360.117 335.793 356.066 328.504 349.184 319.996 347.969 314.527 347.969c-21.2656 0-31.9961 15.7969-31.9961 34.4258 0 26.3281 19.4414 33.6211 31.5938 33.6211 7.08594 0 13.3633-2.42969 18.2266-5.875 1.01172-.808594 2.02344-1.61719 2.83594-2.42969 -3.64844-3.23828-6.48438-7.69531-7.89844-13.1641ZM275.035 333.586c0 5.67187-4.45312 10.1289-10.125 10.1289 -5.46875 0-10.125-4.66016-10.125-10.1289 0-5.66797 4.45312-10.125 10.125-10.125s10.125 4.66016 10.125 10.125M255.594 349.789h18.4297v64.4023H255.594ZM229.266 356.473c4.05078-3.64453 8.70703-6.48047 18.4297-7.28906v16.8086L241.418 367.004C232.508 368.625 229.672 370.043 229.672 378.145v36.25H210.836V349.789h18.2266v6.68359Zm-56.707 5.26562c-3.44141 0-6.88672 1.41797-9.72266 5.26562 -2.63281 3.64453-3.84766 9.11328-3.84766 15.1914 0 8.09766 2.02734 13.1641 4.45703 15.7969C165.672 400.422 168.711 401.637 171.75 401.637c9.11328 0 13.1641-9.92578 13.1641-20.0508 0-8.50781-2.23047-17.418-9.92578-19.4414 -.808593-.203125-1.62109-.40625-2.42969-.40625ZM157.57 356.066C158.18 355.258 158.785 354.648 159.394 354.043c3.24219-3.03906 8.91016-5.67188 16-5.67188 15.5938 0 27.7461 11.9492 27.7461 33.418 0 13.1641-5.67187 33.6172-27.543 33.6172 -7.08984 0-10.7344-2.42969-15.7969-5.46875v26.5312H140.965V349.992H157.57Z"/><path clip-path="url(#d)" d="M613.051 328.93c2.63281 0 4.85937.609374 7.08594 1.82422 2.23047 1.21484 3.84766 3.03516 5.0625 5.0625C626.414 338.043 627.023 340.27 627.023 342.703c0 2.42969-.609376 4.85938-1.82422 6.88281 -1.21484 2.23047-2.83203 3.84766-5.0625 5.0625C617.91 355.867 615.684 356.473 613.051 356.473c-2.63281 0-4.86328-.605468-7.08984-1.82422 -2.22656-1.21484-3.84766-3.03516-5.0625-5.0625 -1.21484-2.22656-1.82422-4.45313-1.82422-6.88281 0-2.43359.609375-4.86328 1.82422-6.88672 1.21484-2.23047 2.83594-3.84766 5.0625-5.0625C608.188 329.539 610.418 328.93 613.051 328.93m0 24.5039c2.02344 0 3.84766-.402344 5.46484-1.41797 1.62109-1.01172 2.83594-2.22656 3.85156-3.84766 1.01172-1.61719 1.41406-3.44141 1.41406-5.26563 0-1.82031-.402344-3.64453-1.41406-5.26563C621.352 336.02 620.137 334.805 618.516 333.789 616.898 332.777 615.074 332.371 613.25 332.371c-2.02344 0-3.84766.40625-5.46484 1.41797C606.164 334.805 604.949 336.02 603.938 337.637 602.922 339.258 602.52 341.082 602.52 342.902c0 1.82422.402344 3.64844 1.41797 5.26563 1.01172 1.62109 2.22656 2.83594 3.84766 3.84766 1.41797 1.01562 3.23828 1.41797 5.26562 1.41797m5.87109-12.9609c0 1.01172-.203125 1.82422-.605469 2.63281 -.40625.8125-1.01562 1.21484-1.82422 1.62109L619.328 348.98H615.48L613.453 345.336H611.023V348.98H607.582V336.02H613.25c1.82422 0 3.03906.402344 4.05078 1.21484 1.21484.605469 1.62109 1.82031 1.62109 3.23828M611.023 342.703h2.42969c.8125 0 1.21484-.203125 1.62109-.609375s.609375-.808594.609375-1.62109c0-.605468-.203125-1.21484-.609375-1.62109 -.40625-.402343-1.01172-.605468-1.62109-.605468H611.023Z"/></g></svg>