<?xml version="1.0" encoding="UTF-8"?><svg width="1024" height="1024" preserveAspectRatio="xMidYMid" version="1.1" viewBox="0 -3e-06 768 768" xmlns="http://www.w3.org/2000/svg" xmlns:xlink="http://www.w3.org/1999/xlink"><defs><clipPath id="a"><use xlink:href="#c"/></clipPath><clipPath id="b"><path d="M384 28.625C187.73 28.625 28.625 187.734 28.625 384c0 196.27 159.105 355.375 355.375 355.375 196.27 0 355.375-159.105 355.375-355.375C739.375 187.734 580.27 28.625 384 28.625Z"/></clipPath><path id="c" d="M28.625 28.625h710.75v710.75H28.625Z"/><path id="d" d="M-76.8-76.8h921.6v921.6H-76.8Z"/></defs><g fill="#FFF"><use xlink:href="#d"/><use xlink:href="#d"/></g><g clip-path="url(#a)"><use clip-path="url(#b)" fill="#000" xlink:href="#c"/></g><path fill="#FFF" d="M267.199 409.578C266.129 412.645 265.617 416.066 265.617 419.766c0 12.4648 9.35937 23.2578 24.9531 23.2578 14.3047 0 22.4883-5.99219 26.2148-9.97266h.5L316.555 440.652h35.9023l8.84766-41.3047c.363281-1.78516.652343-3.49219.835937-5.12109L267.199 409.578m44.082-24.1016C312.312 380.551 316.07 376.648 320.832 376.648c4.85156 0 6.83594 4.125 5.97656 8.30859L326.191 387.973l35.832-3.75c-2.71484-18.3008-19.8203-26.25-39.6875-26.25 -29.5977 0-43.7422 14.7148-46.5313 27.7344L275.418 387.547h35.4492Zm9.67969 27.207C319.824 418.699 315.742 423.441 309.992 423.441c-5.41016 0-7.86719-4.4375-6.83594-9.28125C304.027 410.09 308.273 406.016 316.148 406.016h6.23047Zm95.7656-27.3242c-2.48828 3.33984-4.5 8.15234-6.08984 15.418 -3.40234 15.6992.300781 19.8047 4.94141 19.8047 6.19141 0 11.4336-5.88672 14.0078-19.5742 1.64844-8.72266 1.39844-14.9961-.964844-17.5703l38.332-6.20703c1.87891 6.08203 2.1875 13.8906.390625 22.8047 -5.61719 28.1992-22.8711 42.9883-42.1367 42.9883 -8.72266 0-18.2461-2.26953-22.207-11.5586H402.184L399.078 440.648H364.391l10.2969-48.4844 42.0391-6.80469m2.07422-18.2656c3.01562-2.44922 10.4531-8.14453 21.8281-8.14453 11.5547 0 20.4336 5.02344 24.8633 14.5039l-88.793 9.24219 11.9336-56.1563h38.2422L418.262 367.094ZM193.52 421.523l3.35938-16.125H153.473c-3.00781 27.3047 18.4297 38.25 45.9336 38.25 26.3906 0 54.3008-8.80859 60.5156-32.8906L193.52 421.523m-1.4375-27.2656C176.691 389.391 165.078 380.328 165.078 363.156c0-25.125 25.0781-39.5078 58.6367-39.5859 28.4297-.105468 47.2461 11.7422 43.9297 35.375H227.191C228.617 352.488 224.902 348.824 217.98 348.824c-5.37891 0-9.54297 2.78516-10.207 6.05078 -.9375 4.67578 2.05469 7.625 9.30859 9.58984 6.11328 1.66797 10.293 2.77734 16.3008 4.49219C250.496 373.855 258.68 384.07 260.793 394.766L209.953 400.004Zm347.91-33.9102c-8.44531 0-15.2109 4.86719-19.7773 11.1328H519.52l1.17969-10.1719H485.238L483.078 371.633 502.652 369.59 502.219 371.543 482.355 374.766 468.371 440.648h38.2422s3.94531-18.9297 6.35156-30.0195C516.82 392.941 526.52 388.941 532.984 388.941c5.45703 0 8.86719 2.46094 9.71484 3.15234l6.25781-29.4922C548.355 362.262 545.09 360.348 539.992 360.348m63.9492 30.8359l.394532-1.84766c1.16016-6.13281-1.78125-10.7773-8.21094-10.7773 -5.92578 0-10.9766 4.25-12.7539 12.625h20.5703m28.4102 24.0078c-5.91797 16.8008-22.1953 27.832-48.8984 27.832 -22.2266 0-43.6523-12.9297-38.3633-42.5391 4.42578-24.9258 27.3242-41.5313 53.5117-41.5313 29.3281 0 42.1367 20.1367 37.3789 43.6133L634.84 407.945H579.75c-.175781.617188-.875 3.17969-.875 5.99219 0 7.03906 3.73828 9.50391 8.49609 9.50391 4.91016 0 9.13672-2.74609 11.4609-8.25Zm6.24219 18.6367h1.01562c1.16797 0 2.16016-.425781 2.16016-1.51562 0-.777344-.578125-1.55859-2.16016-1.55859 -.460937 0-.773437.039063-1.01953.078125Zm0 4.90234H637.18V429.883c.742187-.113281 1.4375-.210937 2.50391-.210937 1.33984 0 2.21875.277344 2.75781.667969 .519532.382812.800782.988281.800782 1.82812 0 1.16016-.773438 1.87109-1.72656 2.15234v.074219C642.289 434.531 642.82 435.234 643 436.543c.210938 1.37891.425781 1.90234.5625 2.1875H642.078C641.863 438.449 641.652 437.633 641.48 436.469 641.273 435.34 640.699 434.918 639.578 434.918H638.594ZM640.07 427.41c-3.49609 0-6.34766 2.99609-6.34766 6.69531 0 3.77734 2.85156 6.74609 6.37891 6.74609 3.52734.03125 6.34766-2.96875 6.34766-6.70703 0-3.73828-2.82031-6.73438-6.34766-6.73438Zm.03125-1.23438c4.33984 0 7.79688 3.52734 7.79688 7.92969 0 4.48047-3.45703 7.98047-7.83203 7.98047 -4.33203 0-7.85938-3.5-7.85938-7.98047 0-4.40234 3.52734-7.92969 7.86328-7.92969Z"/></svg>