<?xml version="1.0" encoding="UTF-8"?><svg width="1024" height="1024" preserveAspectRatio="xMidYMid" version="1.1" viewBox="0 -3e-06 768 768" xmlns="http://www.w3.org/2000/svg" xmlns:xlink="http://www.w3.org/1999/xlink"><defs><clipPath id="a"><use xlink:href="#c"/></clipPath><clipPath id="b"><path d="M384 28.625C187.73 28.625 28.625 187.734 28.625 384c0 196.27 159.105 355.375 355.375 355.375 196.27 0 355.375-159.105 355.375-355.375C739.375 187.734 580.27 28.625 384 28.625Z"/></clipPath><path id="c" d="M28.625 28.625h710.75v710.75H28.625Z"/><path id="d" d="M-76.8-76.8h921.6v921.6H-76.8Z"/></defs><g fill="#FFF"><use xlink:href="#d"/><use xlink:href="#d"/></g><g clip-path="url(#a)"><use clip-path="url(#b)" fill="#000" xlink:href="#c"/></g><g fill="#FFF"><path d="M320.867 354.453C315.203 359.582 301.98 369.023 279.59 369.023c-28.8633 0-51.5273-15.6484-51.5273-47.4844 0-33.1836 23.2031-49.1016 51.8008-49.1016 32.9063 0 39.3828 24.0117 40.4648 36.9609 -16.4609 7.01562-36.4219 12.4141-55.3047 16.457C266.91 338.535 273.117 354.723 297.664 354.996c11.6016 0 18.3438-3.77734 21.582-5.125ZM263.402 315.605C273.383 314.523 280.668 313.449 290.383 310.75 290.113 305.082 288.223 281.344 275.004 281.344c-10.5234 0-12.1406 13.7578-12.1406 23.4688 0 3.77734.539063 7.01562.539063 10.793Z"/><path d="M400.184 357.691c-2.15625 1.61719-16.457 11.332-35.6133 11.332 -53.1445 0-53.1445-38.5781-53.1445-46.9453 0-13.2148 11.8711-49.9102 55.8437-49.9102 26.9805 0 28.3281 7.82422 30.7578 8.09766C396.945 288.355 394.25 293.48 387.23 299.688H384.27C381.566 295.91 372.398 283.23 362.145 283.23 351.625 283.5 346.23 296.723 346.23 313.715c0 28.3281 16.457 41.0117 35.3359 41.0117 7.82812 0 12.4102-.808593 16.4609-1.62109Z"/><path d="M552.609 354.453C546.949 359.582 533.723 369.023 511.336 369.023c-28.8711 0-51.5273-15.6484-51.5273-47.4844 0-33.1836 23.1992-49.1016 51.7969-49.1016 32.9141 0 39.3828 24.0117 40.4648 36.9609 -16.457 7.01562-36.418 12.4141-55.3047 16.457 1.88672 12.6797 7.82812 28.8672 32.6406 29.1406 11.6016 0 18.3477-3.77734 21.582-5.125ZM495.422 315.605C505.398 314.523 512.684 313.449 522.398 310.75 522.121 305.082 520.238 281.344 507.02 281.344c-10.5234 0-12.1445 13.7578-12.1445 23.4688 .003906 3.77734.546875 7.01562.546875 10.793Z"/><path d="M215.922 304.004C215.383 298.336 209.715 281.613 196.496 281.613c-.808594 0-10.25 0-10.25 9.98047 0 4.85547 0 10.25 27.5156 23.1992 12.4102 5.66797 17.5352 16.7344 17.5352 24.8203 0 21.8516-19.4258 29.6758-41.8164 29.6758 -11.8672 0-20.7695-2.15234-30.7539-6.74219 -1.34766-7.55469-3.23828-19.4258-3.23828-30.2148h11.332C168.977 350.406 180.309 360.387 189.75 360.387c9.98047 0 11.6016-5.66406 11.6016-11.0586 0-4.31641-3.50781-10.5234-14.5703-16.457 -13.2148-6.74219-30.4844-12.9492-30.4844-32.375 0-16.9961 12.9492-27.7852 39.9297-27.7852 13.4883 0 21.8516 3.23437 26.9766 5.66406C225.09 286.734 225.09 295.91 225.09 304.273H215.922"/><path d="M550.453 275.406V265.965c0-21.8516 32.3711-18.3438 32.3711-18.3438v28.0547c8.91016.8125 14.0273 1.08203 22.3945 1.61719v5.125C598.742 283.5 589.305 284.309 582.824 284.578v32.6445c0 21.043.277343 38.3086 18.3477 38.3086 3.77344 0 7.28516-1.08203 9.4375-1.88672l1.35547 5.125C606.297 362.277 596.852 369.023 575 369.023c-2.96484 0-24.5469 0-24.5469-28.3281Z"/><path d="M406.117 369.023l.269531-59.8945c0-13.4922 0-20.7734-5.66797-20.7734H395.055l-1.61719-5.9375c18.3438-5.39062 26.9805-7.28125 41.5469-9.98047 1.34766 5.39844 1.62109 7.28516 2.16016 14.0312 5.125-5.12891 12.4102-14.0312 23.1992-14.0312 11.0625 0 15.1094 8.09375 17.2695 12.4141 -1.62109 7.28125-6.20703 13.2148-14.0273 17.8008 -5.67188 0-10.7969-5.66406-20.2383-8.09375C441.73 294.293 440.113 293.754 438.496 293.48v48.5625L438.223 350.406c.273438 22.1211-32.1055 18.6172-32.1055 18.6172Z"/><path d="M354.324 478.285C350.004 481.52 341.102 485.301 327.613 485.301c-19.1562 0-39.1172-11.332-39.1172-35.6172 0-32.3711 22.9297-46.1289 43.1641-46.1289 8.08984 0 15.6484 1.88672 19.4258 4.85156 0 3.23828-1.89063 8.36719-4.31641 12.4102H345.687C343.258 417.313 337.055 411.645 325.996 411.645c-12.1445 0-22.1289 9.71484-22.1289 28.5977 0 26.7109 13.7617 39.1211 32.918 39.1211 6.74219 0 13.7578-3.77734 16.1875-5.125Z"/><path d="M422.844 480.984C420.688 482.602 417.176 485.301 410.168 485.301c-8.63672 0-11.6016-3.50391-13.2227-7.01562 -5.39844 3.50781-11.6016 7.01562-24.8164 7.01562 -12.4062 0-20.7773-7.01562-20.7773-16.4609 0-21.8477 29.1406-28.3242 43.9805-32.9102V432.156c0-11.0625-2.96875-20.7773-15.6484-20.7773 -13.4922 0-17.8086 10.5195-20.7773 16.9961H357.559C355.672 426.488 354.324 424.598 353.242 421.633c5.125-6.74609 15.918-18.0781 33.7227-18.0781 19.1523 0 23.2031 9.98437 23.2031 27.25v24.0117c0 11.8672 0 24.5508 9.17578 24.5508 1.61328 0 2.42188-.273438 2.96484-.539063ZM392.629 444.02c-9.71094 0-26.168 4.31641-26.168 19.9688 0 9.70703 5.93359 15.3789 15.6484 15.3789 7.28516 0 11.6016-5.12891 12.6758-7.02344V443.758H392.629Z"/><path d="M560.977 475.855C558.273 478.285 546.672 485.297 531.57 485.297c-21.3164 0-38.5781-14.0273-38.5781-38.0352 0-28.332 19.6914-43.707 39.1133-43.707 22.6641 0 27.5195 16.457 29.6758 25.3594 -19.1484 9.44141-38.8477 14.5625-53.1445 18.0781 .804687 10.5156 8.625 30.207 31.5664 30.207 10.25 0 16.7227-4.3125 19.1523-5.39062ZM508.367 439.703c12.1406-2.16016 26.168-5.66406 38.0391-9.71484C543.977 419.469 539.926 409.492 526.98 409.492c-14.2969 0-18.6133 17.8047-18.6133 30.2109Z"/><path d="M600.902 428.914c0-7.55469-5.39844-19.6992-16.457-19.6992 -6.48047 0-10.7969 4.59375-10.7969 11.875 0 19.1523 37.5039 13.7578 37.5039 40.4687 0 15.918-13.2188 23.4688-29.1367 23.4688 -11.0625 0-16.7227-2.96875-21.3203-4.85547 -2.42578-7.55078-3.23047-15.918-3.23047-22.6641h4.58594c3.50391 11.0664 9.16797 21.8555 22.6563 21.8555 7.5625 0 11.8789-6.47656 11.8789-12.4102 0-22.9336-37.5039-14.8398-37.5039-42.3594 0-13.7578 12.4102-21.3086 26.9766-21.3086 8.90625 0 14.0312 2.69141 17.8047 4.85156 1.61719 5.9375 2.16016 11.332 2.16016 20.2344h-5.125v.542968Z"/><path d="M246.676 475.586C242.902 479.09 230.758 492.578 208.098 492.852c-28.5938.265626-52.0664-19.1562-52.0664-51.5273 0-38.5781 26.7109-58.8125 52.8789-58.8125 30.4844 0 37.2305 22.1211 40.1953 34.2617C223.207 429.449 196.77 436.465 177.074 441.047c.808593 14.0312 11.8711 41.0078 42.625 41.0078 13.7617 0 20.5039-9.16797 23.7422-10.7891M176.805 431.344c16.457-2.97266 35.6133-7.82031 51.5234-12.957 -3.23438-14.0234-8.90234-27.7852-26.1641-27.7852 -19.4219 0-25.3594 24.0117-25.3594 40.7422Z"/><path d="M280.129 428.914c0-7.55469-5.39453-19.6992-16.457-19.6992 -6.47266 0-10.7891 4.59375-10.7891 11.875 0 19.1523 37.5 13.7578 37.5 40.4687 0 15.918-13.2187 23.4688-29.1406 23.4688 -11.0586 0-16.7227-2.96875-21.3125-4.85547C237.5 472.621 236.691 464.254 236.691 457.508h4.58594c3.50781 11.0664 9.17578 21.8555 22.6641 21.8555 7.55469 0 11.8711-6.47656 11.8711-12.4102 0-22.9336-37.5-14.8398-37.5-42.3594 0-13.7578 12.4102-21.3086 26.9766-21.3086 8.90234 0 14.0312 2.69141 17.8047 4.85156 1.61719 5.9375 2.16016 11.332 2.16016 20.2344H280.125v.542968Z"/><path d="M457.914 403.555c-11.3281 0-18.8828 4.85156-22.6602 7.01172 0-1.35156-.808594-5.125-2.16016-7.01172 -5.93359 0-19.1523 4.31641-24.0078 5.9375l.542968 4.04687 3.77344-1.08203c.269531 0 1.61719-.273437 2.42969-.273437 4.58984 0 4.58984 4.58984 4.58984 21.3203v86.8672s14.832 1.61719 14.832-8.36328V483.402C437.953 483.945 442 485.297 449.016 485.297c18.6133 0 45.5937-11.0625 45.5937-45.0547 0-23.4688-16.7305-36.6875-36.6953-36.6875ZM453.871 479.363c-11.0625 0-14.2969-3.23828-18.6172-6.20703V415.152C437.949 414.074 442.27 411.379 449.285 411.379c15.1055 0 29.6758 10.5195 29.6758 32.6406 0 21.582-8.09375 35.3437-25.0898 35.3437Z"/></g></svg>