<?xml version="1.0" encoding="UTF-8"?><svg width="1024" height="1024" preserveAspectRatio="xMidYMid" version="1.1" viewBox="0 -3e-06 768 768" xmlns="http://www.w3.org/2000/svg" xmlns:xlink="http://www.w3.org/1999/xlink"><defs><clipPath id="a"><path d="M76 76.8008h641V691H76Z"/></clipPath><clipPath id="b"><path d="M242.922 76.8008v613.613c1.80078.128907 3.59766.128907 5.39844.128907h295.629V76.8008Zm347.281 0H543.949v613.613h1.02734c74.7734 0 140.43-61.0273 145.824-135.543l25.3086-342.656c5.52734-74.3867-51.1328-135.414-125.906-135.414Zm-387.109 0c-74.7734 0-131.434 61.0273-125.91 135.543L102.496 555C107.891 627.719 170.59 687.59 243.051 690.414V76.8008Z"/></clipPath><clipPath id="c"><path d="M230.398 230.398h307.5v307.5h-307.5Z"/></clipPath><path id="d" d="M-76.8-76.8h921.6v921.6H-76.8Z"/></defs><g fill="#FFF"><use xlink:href="#d"/><use xlink:href="#d"/></g><g clip-path="url(#a)"><path clip-path="url(#b)" fill="#000" d="M76.8008 76.8008H716.09v613.613H76.8008Z"/></g><path clip-path="url(#c)" fill="#FFF" d="M537.898 384.148c0 85.0312-68.9375 153.75-153.75 153.75 -84.8125 0-153.75-68.7188-153.75-153.75 0-84.8125 68.9375-153.75 153.75-153.75 84.8125 0 153.75 68.9375 153.75 153.75Z"/><path fill="#000" d="M354.355 455.914c22.1836 0 33.707-11.3086 33.707-27.1836 0-13.2656-8.04297-21.9648-25.0078-23.4844L354.355 404.375C344.137 403.289 341.309 400.242 341.309 395.676c0-4.78516 4.13281-8.26562 12.1797-8.26562 8.04687 0 16.0898 3.26562 21.0937 6.74219 .871094.4375 1.73828.4375 2.39062-.433594l8.26562-9.78516c.433594-.652344.433594-1.74219-.4375-2.39453 -7.17578-5.65234-17.832-9.78516-30.2266-9.78516 -20.0078 0-31.3164 9.78516-31.3164 25.4453 0 13.6992 8.26563 22.1797 24.793 23.7031l8.69922.871094C367.188 422.859 370.23 425.688 370.23 430.688c0 5.4375-5 9.57031-14.7852 9.57031 -8.26562 0-17.832-3.91406-23.4883-9.13281 -.652343-.652344-1.73828-.652344-2.39062 0l-9.57031 10c-.652344.652344-.652344 1.74219 0 2.39453 6.30859 5.87109 17.832 12.3945 34.3594 12.3945Zm109.605-.871093c1.08594 0 1.73828-.652344 1.73828-1.73828V408.941c0-12.832 4.56641-20.2227 15.2227-20.2227 4.35156 0 8.26562 1.51953 11.7461 3.91406 .867187.652344 1.73828.433594 2.39062-.4375l8.91797-11.0898c.652344-.871094.433594-1.52344-.4375-2.39062 -4.13281-4.13281-10.4375-6.74219-16.7422-6.74219 -10.0039 0-16.9648 4.13281-21.0977 10.2188V375.453c0-1.08984-.652344-1.74219-1.73828-1.74219H448.738C447.652 373.711 447 374.363 447 375.453v77.8516c0 1.08594.652344 1.73828 1.73828 1.73828ZM433.516 438.301H429.383c-5.21875 0-7.39453-1.74219-7.39453-7.39453v-42.625h11.7461c1.08594 0 1.73828-.652344 1.73828-1.73828V375.453c0-1.08984-.652344-1.74219-1.73828-1.74219H421.773V353.488c0-1.52344-1.08984-1.74219-1.95703-1.52344L405.68 356.531c-1.30469.433594-1.73828 1.08594-1.73828 2.17578L403.07 373.711H394.805c-1.08594 0-1.73828.652343-1.73828 1.74219v11.0898c0 1.08594.652344 1.73828 1.73828 1.73828H403.07v43.2773c0 15.6562 6.08984 23.4844 22.3984 23.4844h8.04687c1.08594 0 1.73828-.652344 1.73828-1.73828V440.039c0-.871093-.867187-1.73828-1.73828-1.73828ZM319.129 490.711c0 .867187.652344 1.51953 1.30469 1.51953h66.3242c.871094 0 1.52344-.652344 1.52344-1.51953V479.402c0-.871094-.652344-1.52344-1.52344-1.52344H320.648c-.867188 0-1.51953.652344-1.51953 1.52344Z"/></svg>