<?xml version="1.0" encoding="UTF-8"?><svg width="1024" height="1024" preserveAspectRatio="xMidYMid" version="1.1" viewBox="0 -3e-06 768 768" xmlns="http://www.w3.org/2000/svg" xmlns:xlink="http://www.w3.org/1999/xlink"><defs><clipPath id="a"><use xlink:href="#c"/></clipPath><clipPath id="b"><path d="M384 28.625C187.73 28.625 28.625 187.73 28.625 384c0 196.27 159.105 355.375 355.375 355.375 196.27 0 355.375-159.105 355.375-355.375C739.375 187.73 580.27 28.625 384 28.625Z"/></clipPath><path id="c" d="M28.625 28.625h710.75v710.75H28.625Z"/></defs><g clip-path="url(#a)"><use clip-path="url(#b)" fill="#000" xlink:href="#c"/></g><g fill="#000"><path d="M425.062 355.074v73.9648H443.84v16.875h-36.75V355.074Zm-29.0117-13.957v16.875H377.863v19.75h16.0312v16.8711H377.863v20.4727h18.4414v16.8711H359.934V341.117ZM305.672 337.605L316.5 381.207C318.066 386.367 318.656 391.57 319.758 396.773h.253907C320.984 391.441 321.32 386.285 322.801 380.996l10.9531-43.3906h18.7773L327.328 428.449H312.609L286.391 337.605ZM271.289 405.906H258.645l3.84766-24.2344L264.441 367.93h.25l2.03125 13.7422ZM255.77 344.586L234.668 435.426h17.8438L255.77 420.117h18.1875L277.34 435.426h19.1562L274.676 344.586ZM194.195 355.875h2.41016C205.656 355.41 208.785 360.695 208.785 367.211c0 7.44141-3.25781 12.9844-11.4609 12.9844L194.195 380.066Zm-.042968 76V389.961h.253906L210.18 431.875h18.9023L213.309 390.555c8.92578-4.94922 12.8984-13.4922 12.8984-23.5156 0-24.8242-20.4688-26.0078-31.9297-26.0078H176.219v90.8438ZM168.059 349.785v16.875H153.848v73.9687H135.875V366.66H121.789v-16.875Z"/><path d="M492.855 327.16L461.73 401.129h28.5469v16.875H435.551l30.2813-73.9687H439.441V327.16Zm24.0625 61.1523c0-8.07812.847656-30.2383 12.7734-30.2383 11.9258 0 12.7305 22.1602 12.7305 30.2383 0 7.19141-.847656 30.2383-12.7734 30.2383 -11.8828 0-12.7305-23.0469-12.7305-30.2383Zm12.8164-46.8594c-16.0273 0-31.9297 12.7305-31.9297 46.8594 0 34.0898 15.9023 46.8594 31.9297 46.8594s31.9297-12.7305 31.9297-46.8594c-.042968-34.1289-15.9453-46.8594-31.9297-46.8594ZM587.039 383.07c0-8.03516.84375-30.2383 12.7734-30.2383 11.9258 0 12.7695 22.2031 12.7266 30.2383 0 7.23047-.84375 30.2813-12.7695 30.2813C587.883 413.309 587.039 390.301 587.039 383.07Zm12.7734-46.8594c-16.0312 0-31.9336 12.7734-31.9336 46.8594 0 34.1289 15.9023 46.8594 31.9336 46.8594 16.0273 0 31.9297-12.7734 31.9297-46.8594 0-34.0859-15.9023-46.8594-31.9297-46.8594Z"/></g><g stroke-width=".257" fill="#FFF" stroke="#000"><path d="M12.0201 5.59013V9.5803H8.65981l-.01016 17.4995H4.4101V9.5803H1.08034V5.59013ZM18.2002 7.0301h.569892C20.9102 6.91003 21.65 8.16989 21.65 9.70961 21.65 11.4802 20.8797 12.79 18.94 12.79L18.2002 12.7604ZM18.19 25.0099V15.1h.060037l3.7297 9.92h4.47047L22.7196 15.2497c2.11054-1.16934 3.04066-3.18936 3.05082-5.55945 0-5.8698-4.84085-6.15058-7.55084-6.15058H13.9496V25.02Zm18.2402-6.14966H33.4404l.909795-5.73032L34.8 9.87956h.060038l.480298 3.25032ZM32.7505 4.35983L27.76 25.8301h4.21l.770324-3.61978h4.29959l.799881 3.61978h4.5305L37.2302 4.35983Zm11.8098-1.64964L47.1197 13.02c.370384 1.2303.510778 2.45044.770324 3.67982H47.95c.229989-1.2497.310347-2.46984.66041-3.7297l2.58991-10.2599h4.43998L49.68 24.1804H46.1997L40.0002 2.70003Zm21.3696.829438V7.5298H61.6302v4.66997H65.42v3.99017H61.6302v4.83993h4.35963V25.02h-8.6001V3.53963Zm6.85995 3.31036v17.4902h4.43998v3.99017H68.54V6.84999Z" transform="translate(121.79 322.085) scale(4.22915)"/><path d="M88.8197.240353L81.4601 17.7297h6.75003v3.99017H75.2799L82.4299 4.2296H76.1999V.240353Zm5.69061 14.4597c0-1.91011.199508-7.14997 3.01941-7.14997s3.02034 5.23987 3.02034 7.14997c0 1.70968-.200433 7.14997-3.02034 7.14997s-3.01941-5.4403-3.01941-7.14997Zm3.02957-11.0903C93.7501 3.60983 89.99 6.63016 89.99 14.6899c0 8.05977 3.76018 11.0801 7.54991 11.0801 3.78974 0 7.54991-3.02034 7.54991-11.0801C105.08 6.64032 101.32 3.61999 97.5399 3.60983Zm13.5499 9.8498c0-1.90918.200432-7.14997 3.0305-7.14997 2.8199 0 3.01941 5.24079 3.01941 7.14997 0 1.7106-.199509 7.14997-3.01941 7.14997 -2.83006 0-3.0305-5.43937-3.0305-7.14997ZM114.11 2.38045c-3.78974 0-7.54991 3.01941-7.54991 11.0792 0 8.06069 3.75002 11.0903 7.54991 11.0903 3.78974 0 7.54991-3.02034 7.54991-11.0801 0-8.06993-3.76018-11.0893-7.54991-11.0893Z" transform="translate(121.79 322.085) scale(4.22915)"/></g><path fill="#000" d="M627.934 332.066c0-4.73828 3.55469-8.33203 8.16406-8.33203 4.52344 0 8.12109 3.59375 8.12109 8.33203 0 4.82031-3.59766 8.375-8.12109 8.375 -4.60937 0-8.16406-3.55469-8.16406-8.375ZM636.098 342.09c5.45313 0 10.1055-4.23047 10.1055-10.0234 0-5.75391-4.65234-9.98047-10.1055-9.98047 -5.53906 0-10.1914 4.22656-10.1914 9.98047 0 5.79297 4.65234 10.0234 10.1914 10.0234ZM633.98 332.828h2.03125l3.04687 5.03125h1.94531L637.746 332.785C639.438 332.574 640.75 331.645 640.75 329.613c0-2.28516-1.35547-3.30078-4.0625-3.30078H632.289v11.5469h1.77734Zm0-1.48047V327.793h2.37109c1.22656 0 2.49609.253906 2.53516 1.69141 0 1.77734-1.30859 1.90625-2.83203 1.86328Z"/></svg>