<?xml version="1.0" encoding="UTF-8"?><svg width="768" height="768" preserveAspectRatio="xMidYMid" version="1.1" viewBox="0 0 768 768" xmlns="http://www.w3.org/2000/svg" xmlns:xlink="http://www.w3.org/1999/xlink"><defs><clipPath id="a"><path d="M62 76.8008h640V691H62Z"/></clipPath><clipPath id="b"><path d="M228.609 76.8008v613.613c1.80078.128907 3.59766.128907 5.39844.128907h295.629V76.8008Zm347.277 0h-46.25v613.613h1.02734c74.7734 0 140.426-61.0273 145.824-135.543l25.3086-342.656c5.52734-74.3867-51.1328-135.414-125.91-135.414Zm-387.105 0c-74.7734 0-131.434 61.0273-125.91 135.543L88.1836 555c5.39453 72.7188 68.0937 132.59 140.555 135.414V76.8008Z"/></clipPath><path id="c" d="M-76.8-76.8h921.6v921.6H-76.8Z"/></defs><g transform="translate(0 3e-06)"><g fill="#FFF"><use xlink:href="#c"/><use xlink:href="#c"/></g></g><g clip-path="url(#a)"><path clip-path="url(#b)" fill="#000" d="M62.4883 76.8008h639.289v613.613H62.4883Z" transform="translate(0 3e-06)"/></g><g transform="translate(0 3e-06)"><g fill="#FFF"><path d="M322.16 350.621c-7.23047 0-14.1211 3.27344-18.7578 8.80078V353.758H284.641v91.5508h20.7383V413.18c4.70703 3.88672 10.6406 6 16.7812 6 18.4883 0 33.293-15.3477 33.293-34.3789 0-18.832-15.0781-34.1797-33.293-34.1797Zm33.293 34.4492c0-19.0312-14.8047-34.3828-33.293-34.3828m-2.25 49.7344c-7.98047 0-14.5312-6.82422-14.5312-15.0781 0-8.52734 6.55078-15.0742 14.5312-15.0742 7.98047 0 14.5312 6.82031 14.5312 15.0742 .273438 7.98438-5.9375 14.7383-13.9844 15.0078 -.207031.070313-.410156.070313-.546875.070313Z"/><path d="M389.836 406.902c0 .820312-.082032 1.63281-.242188 2.43359 -.160156.804687-.394531 1.58594-.710938 2.34375 -.3125.757812-.695312 1.47656-1.15234 2.16016 -.453534.6805-.972534 1.3085-1.55053 1.8905 -.582032.578125-1.21094 1.09766-1.89453 1.55078 -.679687.457031-1.39844.839844-2.15625 1.15625 -.757812.3125-1.53906.550781-2.34375.707031 -.800781.160157-1.61328.242188-2.43359.242188 -.820312 0-1.63281-.082031-2.4375-.242188 -.800781-.15625-1.58203-.394531-2.33984-.707031 -.757813-.316406-1.47656-.699219-2.16016-1.15625 -.679687-.453125-1.3125-.972656-1.89062-1.55078 -.57876-.582-1.09776-1.21-1.55476-1.89 -.453-.684-.84-1.402-1.153-2.16 -.3125-.757813-.550781-1.53906-.710937-2.34375 -.160157-.800782-.238281-1.61328-.238281-2.43359 0-.820313.078124-1.63281.238281-2.4375 .160156-.800782.398437-1.58203.710937-2.33984 .3125-.757812.699219-1.47656 1.15234-2.16016 .457031-.679688.976562-1.3125 1.55469-1.89062 .578124-.578125 1.21094-1.09766 1.89062-1.55078 .683594-.457032 1.40234-.839844 2.16016-1.15625 .757812-.3125 1.53906-.550782 2.33984-.710938 .804688-.160156 1.61719-.238281 2.4375-.238281 .820313 0 1.63281.078125 2.43359.238281 .804688.160156 1.58594.398438 2.34375.710938 .757813.316406 1.47656.699218 2.15625 1.15625 .683594.453124 1.3125.972656 1.89453 1.55078 .578124.578125 1.09766 1.21094 1.55078 1.89062 .457031.683594.839843 1.40234 1.15234 2.16016 .316407.757812.550782 1.53906.710938 2.33984 .160156.804687.242188 1.61719.242188 2.4375Z"/><path d="M271.27 333.566c0 .765625-.074219 1.52344-.222656 2.27344 -.152344.753906-.371094 1.48438-.664063 2.19141C270.09 338.738 269.73 339.41 269.305 340.047c-.425782.636719-.910157 1.22656-1.45313 1.76953 -.539062.539063-1.12891 1.02344-1.76562 1.44922 -.636719.425781-1.30859.785156-2.01953 1.07812 -.707031.292969-1.4375.515625-2.1875.664062 -.75.148438-1.50781.222657-2.27344.222657 -.769531 0-1.52734-.074219-2.27734-.222657 -.75-.148437-1.48047-.371093-2.1875-.664062 -.707031-.292969-1.38281-.652344-2.01953-1.07812 -.63741-.42575-1.22341-.91075-1.76641-1.44975 -.543-.543-1.027-1.132-1.453-1.769 -.422-.637-.781-1.309-1.078-2.016 -.293-.707-.511-1.437-.66-2.191 -.152343-.75-.226562-1.50781-.226562-2.27344 0-.76563.074219-1.52344.226562-2.27734 .148438-.75.367188-1.48047.660157-2.1875 .296875-.707031.65625-1.37891 1.07812-2.01562 .425781-.636719.910156-1.22656 1.45312-1.76953 .542969-.539062 1.12891-1.02344 1.76562-1.44922 .636718-.425782 1.3125-.785157 2.01953-1.07813 .707031-.292968 1.4375-.515624 2.1875-.664062 .75-.148438 1.50781-.226562 2.27734-.226562 .765625 0 1.52344.078124 2.27344.226562 .75.148438 1.48047.371094 2.1875.664062 .710938.292969 1.38281.652344 2.01953 1.07813 .636718.425781 1.22656.910156 1.76562 1.44922 .542969.542969 1.02734 1.13281 1.45313 1.76953 .425781.636718.785156 1.30859 1.07812 2.01562 .292969.707032.511719 1.4375.664063 2.1875 .148437.753907.222656 1.51172.222656 2.27734Z"/><path d="M249.371 353.758h20.7383v62.5586H249.371Z"/><path d="M126.508 324.766v17.3281h27.0156v74.2227h20.7383V342.094h27.0156v-17.328Z"/><path d="M433.359 400.422c-7.98047 0-14.5312-6.82422-14.5312-15.0781 0-8.52734 6.55078-15.0742 14.5312-15.0742 4.024-.0707 7.844 1.5663 10.504 4.5703l13.6445-13.6445c-6.4095-6.4145-15.0735-10.0275-24.1485-9.9615 -19.0352 0-34.4492 15.3516-34.4492 34.3828 0 19.0352 15.3477 34.4531 34.3789 34.4531 9.07422 0 17.8086-3.55078 24.2891-9.96094l-13.6438-13.644c-2.594 1.91-6.278 3.957-10.575 3.957Z"/><path d="M615.711 350.621c-8.52734 0-15.3516 3.13672-19.3086 10.2344 -3.68359-6.55078-10.5039-10.2344-18.7578-10.2344 -8.25391 0-14.1914 3.68359-18.2148 10.2344v-7.0974H540.602v62.2852h20.738V377.363c0-5.39063 3.95703-9.6875 9.07422-9.6875 5.11328 0 9.07031 4.29687 9.07031 9.6875v38.9531h19.6484V377.363c0-5.39063 3.95703-9.6875 9.07422-9.6875 5.11719 0 9.07422 4.29687 9.07422 9.6875v38.9531h20.875V373.406c.269531-13.9844-8.52734-22.7852-22.4453-22.7852Z"/><path d="M495.918 350.621c-19.0352 0-34.3828 15.418-34.3828 34.4492 0 19.0352 15.418 34.3828 34.4492 34.3828 19.0352 0 34.3828-15.418 34.3828-34.4492 -.273438-19.0352-15.6211-34.3828-34.4492-34.3828Zm0 49.8008c-7.98438 0-14.5312-6.82422-14.5312-15.0781 0-8.52734 6.54687-15.0742 14.5312-15.0742 7.98047 0 14.5312 6.82031 14.5312 15.0742 0 8.25391-6.55078 15.0781-14.5312 15.0781Z"/><path d="M234.566 353.484c-7.64-.066-14.734 3.821-18.757 10.235v-9.961h-18.762v62.5586h20.7383V390.121c0-10.7812 7.98047-17.3281 17.3281-17.3281 1.16016 0 2.25.273437 3.13672.273437V354.031c-1.16012-.34-2.38712-.547-3.68412-.547Z"/></g></g></svg>