<svg viewBox="0 -3e-06 768 768" xmlns="http://www.w3.org/2000/svg" xmlns:xlink="http://www.w3.org/1999/xlink"><defs><clipPath id="a"><path d="M76 76.8008h641V691H76Z"/></clipPath><clipPath id="b"><path d="M242.922 76.8008v613.613c1.80078.128907 3.59766.128907 5.39844.128907h295.629V76.8008Zm347.281 0H543.949v613.613h1.02734c74.7734 0 140.43-61.0273 145.824-135.543l25.3086-342.656c5.52734-74.3867-51.1328-135.414-125.906-135.414Zm-387.109 0c-74.7734 0-131.434 61.0273-125.91 135.543L102.496 555C107.891 627.719 170.59 687.59 243.051 690.414V76.8008Z"/></clipPath><path id="c" d="M-76.8-76.8h921.6v921.6H-76.8Z"/></defs><g fill="#FFF"><use xlink:href="#c"/><use xlink:href="#c"/></g><g clip-path="url(#a)"><path clip-path="url(#b)" d="M76.8008 76.8008H716.09v613.613H76.8008Z"/></g><path fill="#FFF" d="M410.789 343.383c0 5.88281-4.74219 10.6211-10.625 10.6211 -5.88281 0-10.625-4.73828-10.625-10.6211 0-5.88672 4.57813-10.625 10.625-10.625 6.04688.164063 10.625 4.90234 10.625 10.625ZM366.984 364.793v2.61328s-5.06641-6.53516-15.8516-6.53516c-17.8164 0-31.7109 13.5664-31.7109 32.3594 0 18.6328 13.7305 32.3633 31.7109 32.3633 10.9492 0 15.8516-6.69922 15.8516-6.69922v2.77734c0 1.30859.980469 2.28906 2.28906 2.28906h13.2383v-61.457H369.273c-1.30859 0-2.28906 1.14453-2.28906 2.28906Zm0 39.3906C364.535 407.777 359.629 410.883 353.746 410.883c-10.4609 0-18.4688-6.53516-18.4688-17.6523 0-11.1133 8.00781-17.6484 18.4688-17.6484 5.71875 0 10.9492 3.26562 13.2383 6.69922ZM392.32 362.504h15.6875v61.457H392.32Zm234.379-1.63281c-10.7891 0-15.8555 6.53516-15.8555 6.53516V332.922H595.152v91.0391h13.2422c1.30469 0 2.28516-1.14453 2.28516-2.28906V418.895s5.06641 6.69922 15.8555 6.69922c17.8164 0 31.707-13.7305 31.707-32.3633 0-18.6328-13.8906-32.3594-31.543-32.3594ZM624.082 410.723c-6.04687 0-10.7852-3.10547-13.2383-6.70312V382.117c2.45312-3.26953 7.68359-6.69922 13.2383-6.69922 10.4609 0 18.4727 6.53516 18.4727 17.6523 0 11.1133-8.01172 17.6523-18.4727 17.6523ZM586.98 387.512v36.6133H571.289V389.309c0-10.1328-3.26562-14.2188-12.0937-14.2188 -4.73828 0-9.64062 2.45312-12.7461 6.04687v42.8242H530.758v-61.457H543.18c1.30469 0 2.28516 1.14453 2.28516 2.28906v2.61328c4.57812-4.73828 10.625-6.53516 16.6719-6.53516 6.86719 0 12.5859 1.96094 17.1641 5.88281C584.856 371.332 586.98 377.215 586.98 387.512ZM492.676 360.871c-10.7891 0-15.8555 6.53516-15.8555 6.53516V332.922H461.129v91.0391h13.2383c1.30859 0 2.28906-1.14453 2.28906-2.28906V418.895s5.06641 6.69922 15.8555 6.69922c17.8125 0 31.707-13.7305 31.707-32.3633 .164062-18.6328-13.7305-32.3594-31.543-32.3594ZM490.059 410.723c-6.04687 0-10.7852-3.10547-13.2383-6.70312V382.117C479.273 378.848 484.5 375.418 490.059 375.418c10.4609 0 18.4688 6.53516 18.4688 17.6523 0 11.1133-8.00781 17.6523-18.4688 17.6523ZM447.563 360.871c4.74219 0 7.19141.816406 7.19141.816406v14.5469s-13.0742-4.41406-21.2461 4.90234v42.9883H417.816V362.504h13.2383c1.30859 0 2.28906 1.14453 2.28906 2.28906v2.61328C436.285 363.977 442.66 360.871 447.563 360.871ZM284.609 418.402C283.793 416.441 282.973 414.316 282.156 412.52 280.852 409.578 279.543 406.797 278.398 404.184L278.234 404.02C266.957 379.504 254.863 354.66 242.113 330.145L241.621 329.16C240.316 326.711 239.008 324.094 237.699 321.48 236.066 318.539 234.43 315.434 231.816 312.492c-5.23047-6.53906-12.75-10.1367-20.7578-10.1367 -8.17188 0-15.5273 3.59766-20.9219 9.80859 -2.44922 2.94141-4.25 6.04688-5.88281 8.98828C182.945 323.77 181.641 326.383 180.332 328.836L179.84 329.816c-12.5859 24.5156-24.8438 49.3594-36.1211 73.875L143.555 404.02C142.414 406.633 141.105 409.414 139.797 412.355 138.98 414.152 138.164 416.113 137.344 418.238c-2.125 6.04687-2.77734 11.7695-1.96094 17.6523 1.80078 12.2578 9.97266 22.5547 21.25 27.1328 4.25 1.79687 8.66016 2.61328 13.2383 2.61328 1.30859 0 2.94141-.160157 4.25-.324219 5.39453-.65625 10.9492-2.45312 16.3438-5.55859C197.168 455.996 203.539 450.602 210.73 442.758 217.922 450.602 224.461 455.996 231 459.754c5.39453 3.10547 10.9492 4.90234 16.3438 5.55859 1.30859.164062 2.94141.324219 4.25.324219 4.57422 0 9.15234-.816407 13.2383-2.61328 11.4414-4.57813 19.4492-15.0391 21.2461-27.1328 1.30859-5.71875.65625-11.4414-1.46875-17.4883Zm-73.7148 8.5C202.07 415.789 196.348 405.328 194.387 396.5 193.57 392.742 193.406 389.473 193.898 386.531c.324218-2.61719 1.30469-4.90234 2.61328-6.86328 3.10547-4.41406 8.33594-7.19141 14.3828-7.19141 6.04687 0 11.4414 2.61328 14.3828 7.19141 1.30859 1.96094 2.28906 4.24609 2.61719 6.86328 .488281 2.94141.324219 6.375-.492187 9.96875 -1.96094 8.66406-7.67969 19.125-16.5078 30.4023Zm65.2148 7.67969c-1.14453 8.5-6.86328 15.8555-14.8711 19.125 -3.92578 1.63281-8.17578 2.125-12.4219 1.63281 -4.08984-.488282-8.17578-1.79688-12.4219-4.25 -5.88672-3.26562-11.7695-8.33203-18.6328-15.8516C228.547 422 235.086 409.902 237.535 399.117c1.14453-5.06641 1.30859-9.64453.820313-13.8945 -.65625-4.08594-2.125-7.84375-4.41406-11.1133 -5.06641-7.35547-13.5664-11.6055-23.0469-11.6055 -9.48047 0-17.9766 4.41406-23.043 11.6055C185.563 377.379 184.09 381.137 183.437 385.223c-.65625 4.25-.492188 8.99219.816406 13.8945 2.45312 10.7852 9.15234 23.043 19.7773 36.2852 -6.70312 7.51562-12.75 12.582-18.6328 15.8516 -4.25 2.45312-8.33594 3.76172-12.4219 4.25 -4.41406.492188-8.66406-.164062-12.4219-1.63281 -8.00781-3.26953-13.7305-10.625-14.875-19.125C145.191 430.66 145.516 426.574 147.152 422c.488281-1.63672 1.30859-3.26953 2.125-5.23047 1.14453-2.61719 2.44922-5.39453 3.75781-8.17188L153.199 408.27c11.2773-24.3555 23.3711-49.1953 35.957-73.3867l.492188-.980468C190.957 331.449 192.262 328.836 193.57 326.383 194.879 323.77 196.348 321.316 198.148 319.191 201.578 315.27 206.156 313.145 211.223 313.145c5.06641 0 9.64453 2.125 13.0742 6.04687 1.80078 2.125 3.26953 4.57812 4.57813 7.19141 1.30859 2.45313 2.61328 5.06641 3.92187 7.51953l.492187.980468c12.4219 24.3516 24.5156 49.1953 35.793 73.5508v.164062C270.391 411.211 271.535 414.152 272.84 416.77 273.66 418.73 274.477 420.363 274.965 422c1.30859 4.25 1.79688 8.33594 1.14453 12.582Z"/></svg>