<svg viewBox="0 -3e-06 768 768" xmlns="http://www.w3.org/2000/svg" xmlns:xlink="http://www.w3.org/1999/xlink"><defs><clipPath id="a"><use xlink:href="#c"/></clipPath><clipPath id="b"><path d="M384 28.625C187.73 28.625 28.625 187.73 28.625 384c0 196.27 159.105 355.375 355.375 355.375 196.27 0 355.375-159.105 355.375-355.375C739.375 187.73 580.27 28.625 384 28.625Z"/></clipPath><path id="c" d="M28.625 28.625h710.75v710.75H28.625Z"/><path id="d" d="M-76.8-76.8h921.6v921.6H-76.8Z"/></defs><g fill="#FFF"><use xlink:href="#d"/><use xlink:href="#d"/></g><g clip-path="url(#a)"><use clip-path="url(#b)" xlink:href="#c"/></g><path fill="#FFF" d="M628.098 432.563v-18.5H583.133V392.992h35.9727V374.75H583.133V353.937h44.4531V335.691H561.805v96.8711ZM469.816 409.695c6.16797 15.6719 21.0703 24.668 41.1133 24.668 22.6133 0 36.2305-11.5664 36.2305-30.5781 0-14.9023-8.99219-24.9258-28.5234-28.7773L505.02 372.437C497.055 370.895 493.199 367.297 493.199 362.414c0-6.9375 5.65234-10.7891 15.1602-10.7891 9.50781 0 16.4453 4.87891 20.5586 13.6172l17.4727-9.50781C541.25 341.859 527.117 333.637 508.359 333.637c-21.8398 0-36.2305 11.0508-36.2305 30.3203 0 14.9023 9.25 24.668 27.4961 28.2656L513.5 395.047C521.98 396.848 526.348 400.187 526.348 405.84c0 7.19531-5.65234 11.3047-15.1602 11.3047 -10.793 0-18.2461-5.91016-23.3828-16.4453Zm-51.1328 24.668c23.8984 0 38.2852-13.8789 38.2852-38.0313V335.18H436.672v60.3828c0 12.8477-6.67969 19.7852-17.7305 19.7852 -11.0469 0-17.7305-6.9375-17.7305-19.7852V335.18h-21.582v61.1523c.511719 24.4102 15.1602 38.0313 39.0547 38.0313M302.801 335.18l34.9453 51.1328v45.9922h21.582V380.914L327.98 335.437H302.801ZM271.965 357.535L284.812 395.82H259.117Zm47.793 74.7695l-35.457-97.125H259.891L224.43 432.051h22.0977l6.16797-18.5039h38.0273l6.16797 18.5039ZM161.219 353.68H172.27c18.7578 0 28.7773 10.793 28.7773 30.0625 0 19.2695-10.0195 30.0625-28.7773 30.0625H161.219Zm11.5625 78.625c32.3789 0 50.1055-17.2148 50.1055-48.5625 0-31.3477-17.7266-48.5625-50.1055-48.5625H139.894v96.8711Z"/></svg>