<svg viewBox="0 -3e-06 768 768" xmlns="http://www.w3.org/2000/svg" xmlns:xlink="http://www.w3.org/1999/xlink"><defs><clipPath id="a"><path d="M76 76.8008h641V691H76Z"/></clipPath><clipPath id="b"><path d="M242.922 76.8008v613.613c1.80078.128907 3.59766.128907 5.39844.128907h295.629V76.8008Zm347.281 0H543.949v613.613h1.02734c74.7734 0 140.43-61.0273 145.824-135.543l25.3086-342.656c5.52734-74.3867-51.1328-135.414-125.906-135.414Zm-387.109 0c-74.7734 0-131.434 61.0273-125.91 135.543L102.496 555C107.891 627.719 170.59 687.59 243.051 690.414V76.8008Z"/></clipPath><path id="c" d="M-76.8-76.8h921.6v921.6H-76.8Z"/></defs><g fill="#FFF"><use xlink:href="#c"/><use xlink:href="#c"/></g><g clip-path="url(#a)"><path clip-path="url(#b)" d="M76.8008 76.8008H716.09v613.613H76.8008Z"/></g><g fill="#FFF"><path d="M617.27 410.941L617.121 410.793C613.918 407.891 609.969 405.504 606.992 403.719L606.246 403.27C604.457 402.227 602.523 401.109 600.512 400.066s0 .074219 0 .074219c0 15.3438-7.67188 26.1445-18.6211 26.1445 -11.7695 0-18.918-11.0977-18.918-25.8438 0-5.28906.964844-10.6523 3.05078-15.1211C561.258 383.605 556.418 382.043 551.426 380.48c-1.11719-.375-2.16016-.671875-3.27734-1.04297 -3.27734 5.95703-5.06641 13.1836-5.06641 21.4492 0 24.4297 16.6133 39.2539 38.2109 39.2539 16.1641 0 32.5508-8.71484 37.5391-27.7813l-.371093-.375C618.164 411.762 617.793 411.391 617.27 410.941Z"/><path d="M568.559 381.297c3.05078-3.94531 7.51953-6.55469 13.4805-6.55469 11.6953 0 17.207 10.7266 18.25 21.4531 3.57422 2.01172 6.77734 3.94531 9.60547 5.95703C612.727 404.164 616.375 406.695 619.43 409.824c.671874-3.27734.96875-6.70312.96875-10.0547 0-23.1641-15.1953-39.1055-37.8398-39.1055 -13.2578 0-24.2812 5.06641-31.2813 14.1523l1.71094.597656c5.28906 1.86328 10.5039 3.79688 15.5703 5.88281Z"/><path d="M248.574 327.445H229.355v43.2031H229.059C225.633 364.984 218.109 360.664 207.605 360.664c-18.3203 0-34.2617 15.1953-34.1133 40.6719 0 23.4609 14.375 38.9531 32.5508 38.9531 11.0977 0 20.332-5.28906 24.8789-13.7773h.296875l.746094 12.0664h17.2031C248.871 433.437 248.5 424.945 248.5 417.125ZM229.355 405.578c.074219 1.86328-.148438 3.80078-.59375 5.66406 -1.86328 8.26562-8.78906 13.6289-16.6094 13.6289 -12.2188 0-19.0703-10.2031-19.0703-24.1328 0-14.2266 6.85156-25.1758 19.2188-25.1758 8.78906 0 14.8203 6.10938 16.6094 13.6328 .296875 1.63672.445313 3.35156.445313 4.98828Z"/><path d="M337.508 362.379H318.289V408.41c0 2.01172-.371093 4.02344-1.11719 5.95703 -2.01172 4.84375-7 10.3555-14.6719 10.3555 -10.2031 0-14.2266-8.11719-14.2266-20.7812V362.453H269.055v44.7656c0 24.8789 12.6641 33.1445 26.5938 33.1445 13.6289 0 21.1523-7.82031 24.4297-13.332h.296875L321.27 438.652h16.9063c-.296875-6.25781-.59375-13.7812-.59375-22.8672V362.379Z"/><path d="M390.687 360.664c-24.4297 0-37.2422 19.8906-37.2422 40.9688 0 23.3125 14.5273 38.6563 39.2539 38.6563 10.9492 0 20.0352-2.16016 26.5898-4.83984L416.461 422.191C410.652 424.352 404.246 425.617 395.309 425.617c-12.2187 0-23.0156-5.96094-23.4648-19.7383h51.0234c.445312-2.68359.667968-5.4375.59375-8.12109C423.535 381 415.566 360.664 390.687 360.664Zm14.75 31.7305H371.918C372.664 384.574 377.73 373.773 389.57 373.773c12.8125 0 16.0156 11.6211 15.8672 18.6211Z"/><path d="M461.078 355.078V342.789L442.305 348.301v6.03516c1.19531 0 2.3125 0 3.20312.074218 5.06641.074219 10.2812.296875 15.5703.667969Z"/><path d="M445.734 362.453c-3.12891-.074219-8.49219 0-14.3789.148437v14.1523h10.9492v35.8281c0 10.0547 1.86328 16.9063 5.96094 21.3008C451.84 437.832 457.801 440.289 464.875 440.289c6.10937 0 11.0977-.96875 13.9297-2.01172L478.504 423.531c-2.15625.59375-3.94531.96875-7.51953.96875 -7.375 0-9.83203-4.84375-9.83203-14.0781v-33.668h18.3203V364.687C477.313 364.391 475.152 364.168 473.07 363.941 463.609 362.977 454.449 362.602 445.734 362.453Z"/><path d="M500.254 367.965C495.563 367.145 490.945 366.328 486.328 365.656v11.0977h10.9492v35.8281c0 10.0547 1.85938 16.9063 5.95703 21.3008C506.809 437.832 512.77 440.289 519.844 440.289c6.10937 0 11.0977-.96875 13.9297-2.01172L533.477 423.531c-2.16016.59375-3.875.96875-7.52344.96875 -7.375 0-9.83203-4.84375-9.83203-14.0781v-33.668h18.3242V375.637C531.91 374.969 529.305 374.297 526.773 373.625 517.906 371.465 508.969 369.531 500.254 367.965Z"/><path d="M527.738 367.445c2.23438.59375 4.39453 1.26563 6.62891 1.93359v-7H516.047V342.789L497.277 348.301v11.918c1.19141.222656 2.38281.445312 3.57422.746094C509.715 362.75 518.801 364.984 527.738 367.445Z"/></g></svg>