<svg viewBox="0 0 768 768" xmlns="http://www.w3.org/2000/svg" xmlns:xlink="http://www.w3.org/1999/xlink"><defs><clipPath id="a"><path d="M76 76.8008h641V691H76Z"/></clipPath><clipPath id="b"><path d="M242.922 76.8008v613.613c1.80078.128907 3.59766.128907 5.39844.128907h295.629V76.8008Zm347.281 0h-46.254v613.613h1.02734c74.7734 0 140.43-61.0273 145.824-135.543l25.3086-342.656c5.52734-74.3867-51.1328-135.414-125.906-135.414Zm-387.109 0c-74.7734 0-131.434 61.0273-125.91 135.543L102.496 555c5.395 72.719 68.094 132.59 140.555 135.414V76.8008Z"/></clipPath><path id="c" d="M-76.8-76.8h921.6v921.6H-76.8Z"/></defs><g transform="translate(0 3e-06)"><g fill="#FFF"><use xlink:href="#c"/><use xlink:href="#c"/></g></g><g clip-path="url(#a)"><path clip-path="url(#b)" d="M76.8008 76.8008H716.09v613.613H76.8008Z" transform="translate(0 3e-06)"/></g><g transform="translate(0 3e-06)"><g fill="#FFF"><path d="M154.883 365.73c-1.11328.238281-1.19141 1.58594 0 1.58594 1.75-.078125 10.0117-.316406 17.3984.398438 8.58203.792968 16.7656 3.01953 23.1992 5.16406 6.35547 2.14453 20.5 10.168 20.5 10.168s-18.2734 10.3281-24.4727 25.7422c-.316406.796876.082032 1.11328 1.19141.476563C216.059 395.363 232.348 386.863 260.789 381.3c1.82813-.398437 1.58984-.554687.078126-.953125 -1.58984-.398437-6.99219-1.35156-21.0547-6.59375C225.75 368.508 212.246 363.664 196.434 362.473c-2.30078-.160156-4.6875-.238281-7.14844-.238281C172.84 362.152 155.359 365.648 154.883 365.73"/><path d="M268.02 352.383c-4.45 5.32-13.747 12.074-22.645 15.57 -1.19141.476563-.875 1.19141-.398438 1.50781 .160157.082031.796876.320312 1.66797.636718l11.6797 3.73438c.953125.316407.953125.238281 1.35156-.160156C265.871 367.477 268.258 358.5 268.652 352.539c.394-5.961.082031-.714843-.078125-.714843 -.078125.082031-.238281.238281-.554688.558593"/><path d="M478.875 409.586h-7.469c-.476562 0-.875-.238282-1.11328-.636719L447.809 370.336v37.8984c0 .714844-.632813 1.35156-1.34766 1.35156H438.992c-.714844 0-1.35156-.636719-1.35156-1.35156V353.336c0-.714844.636719-1.35156 1.35156-1.35156h7.46875c.476562 0 .871093.238281 1.10937.636719l22.5664 37.0195V353.336c0-.714844.632812-1.35156 1.34766-1.35156h7.39062c.714844 0 1.35156.636719 1.35156 1.35156v54.8984c.078126.714844-.558593 1.35156-1.35156 1.35156"/><path d="M557.848 409.586h-7.469c-.714844 0-1.35156-.636719-1.35156-1.35156V353.336c0-.714844.636718-1.35156 1.35156-1.35156h7.46875c.714844 0 1.34766.636719 1.34766 1.35156v54.8984c0 .714844-.554687 1.35156-1.34766 1.35156"/><path d="M515.262 410.301c-7.07031 0-12.793-2.54297-17.082-7.46875 -4.21094-4.92578-6.35547-13.1094-6.35547-21.1328V379.633c0-5.32422.953125-11.6016 2.94141-15.6523 1.98438-4.13281 4.84375-7.30859 8.5-9.53516C506.918 352.223 511.129 351.11 515.899 351.11c6.35547 0 11.5195 1.75 15.332 5.24609C534.328 359.133 536.473 362.949 537.43 367.555c.078124.398437 0 .796874-.242188 1.11328 -.238281.316406-.632812.476562-1.03125.476562h-7.625c-.636719 0-1.19531-.398437-1.35156-1.03125 -.715002-2.54359-1.75-4.53159-3.18-5.80159 -1.90625-1.75-4.60547-2.62109-8.18359-2.62109 -4.36719 0-7.70703 1.50781-10.0898 4.60547 -2.46094 3.17969-3.73437 9.375-3.73437 15.3359v2.14453c0 5.64062 1.19141 11.7578 3.57812 15.0156 2.30078 3.17969 5.48047 4.6875 9.61328 4.6875 3.8125 0 6.67187-.792969 8.66016-2.38281 1.5082-1.1911 2.6212-3.2571 3.3362-5.9601 .15625-.632813.714843-1.03125 1.26953-1.03125h7.62891c.394531 0 .792969.160156 1.03125.554687 .238281.320313.320313.714844.238281 1.11328C536.234 398.539 534.09 402.355 530.754 405.137c-3.734 3.492-9.059 5.164-15.492 5.164"/><path d="M321.168 409.586h-28.125c-.714844 0-1.34766-.636719-1.34766-1.35156V353.336c0-.714844.632813-1.35156 1.34766-1.35156h28.125c.714843 0 1.35156.636719 1.35156 1.35156v5.95703c0 .714843-.636719 1.35156-1.35156 1.35156h-19.305v14.9375h19.3047c.714843 0 1.35156.632813 1.35156 1.34766v5.96094c0 .714844-.636719 1.34766-1.35156 1.34766H301.863v16.7656h19.3047c.714843 0 1.35156.636719 1.35156 1.35156v5.95703c0 .636719-.554687 1.27344-1.35156 1.27344"/><path d="M421.434 409.586h-28.125c-.714844 0-1.35156-.636719-1.35156-1.35156V353.336c0-.714844.636719-1.35156 1.35156-1.35156h28.125c.714844 0 1.35156.636719 1.35156 1.35156v5.95703c0 .714843-.636718 1.35156-1.35156 1.35156h-19.305v14.9375h19.3047c.714844 0 1.35156.632813 1.35156 1.34766v5.96094c0 .714844-.636718 1.34766-1.35156 1.34766H402.129v16.7656h19.3047c.714844 0 1.35156.636719 1.35156 1.35156v5.95703c.078125.636719-.558594 1.27344-1.35156 1.27344"/><path d="M585.336 394.727l-1.35156.636719 .398437-1.03516 2.14453-5.95703 8.02344-22.2461 8.58203 23.6758C596.539 391.074 591.375 392.422 585.336 394.727m34.5586 12.9492L598.922 352.777c-.16-.554-.715-.871-1.191-.871h-6.356c-.558594 0-1.03516.316406-1.27344.871094L569.207 407.676c-.160156.398438-.078125.875.160157 1.27344 .238281.398437.632812.636719 1.10937.636719h7.46875c.796876 0 1.42969 0 1.42969 0 8.66003-9.53516 21.93-14.2232 25.426-15.3362l5.24219 14.3789c.160156.558594.714843.875 1.27344.875h7.38672c.476563 0 .875-.238281 1.11328-.636718 .238282-.238282.238282-.714844.078125-1.19141"/><path d="M357.398 410.301c-4.76953 0-9.05859-1.11328-12.793-3.33984 -3.734-2.22316-6.671-5.40216-8.738-9.53116 -1.988-4.055-3.097-8.742-3.097-14.063v-4.769c0-8.57812 2.06641-15.332 6.19531-20.0977 4.13281-4.84766 10.0898-7.30859 17.5586-7.30859 6.11719 0 11.1211 1.58594 14.9375 4.6875 2.69922 2.22266 4.6875 5.24219 5.95703 8.81641 .160156.398438.078125.875-.160157 1.19141 -.238281.398437-.632812.558593-1.10937.558593H368.441c-.558594 0-.953125-.320312-1.19141-.796874 -1.90625-3.97266-5.32422-5.95703-10.6484-5.95703 -4.52734 0-7.86328 1.50781-10.168 4.60547C344.05 367.477 342.859 372.164 342.859 378.282V382.73c0 5.80078 1.35156 10.4883 3.97266 13.8242 2.62137 3.3368 6.03537 4.9258 10.5664 4.9258 2.62109 0 4.92578-.316407 6.83203-.875 1.66797-.476 3.01997-1.269 4.13297-2.304V384h-9.058c-.714844 0-1.35156-.632812-1.35156-1.34766V376.691c0-.714844.636719-1.34766 1.35156-1.34766h19.1484v25.4219c0 .316406-.082031.554687-.238281.792969 -2.06641 2.86328-4.92578 5.00781-8.50391 6.4375C366.137 409.664 362.004 410.3 357.399 410.3"/><path d="M629.191 359.453c-.398437.714844-.875 1.19141-1.58984 1.58984 -.714843.394531-1.42969.632812-2.22266.632812 -.796875 0-1.51172-.238281-2.22656-.554687 -.636719-.398438-1.19141-.953125-1.58984-1.58984 -.394531-.714844-.554688-1.42969-.554688-2.22266 0-.796875.160157-1.51172.554688-2.22656 .398438-.714843.953125-1.19141 1.58984-1.58984 .714844-.394532 1.42969-.554688 2.22656-.554688 .792969 0 1.58594.238281 2.22266.636719 .714844.394531 1.19141.953125 1.58984 1.58594 .398438.636719.554688 1.43359.554688 2.22656 .082031.636719-.15625 1.35156-.554688 2.06641m.792969-4.84766C629.508 353.813 628.871 353.176 628.078 352.699c-.793-.476-1.746-.715-2.699-.715 -.957031 0-1.82812.238281-2.70313.714844 -.875.476562-1.50781 1.11328-1.98438 1.90625 -.476562.792969-.714844 1.66797-.714844 2.70313 0 1.03125.238282 1.82422.714844 2.69922 .476563.796876 1.10938 1.42969 1.98438 1.90625 .792969.476563 1.74609.714844 2.70313.714844 .953125 0 1.90625-.238281 2.69922-.714844 .79278-.475694 1.51178-1.10869 1.90578-1.90569 .476563-.792968.714844-1.66797.714844-2.62109 0-1.11328-.238281-1.98828-.714844-2.78125"/><path d="M626.094 356.672c-.160156.078125-.398438.160156-.636719.160156H624.664V355.398h.792969c.316407 0 .636719.082031.714844.160156 .160156.082031.238281.320312.238281.558594 -.078125.316406-.160156.476562-.316406.554687m1.10938 2.46094c0-.15625 0-.316406 0-.632812 0-.320312-.078125-.558594-.15625-.796875 -.081818-.23769-.237818-.39369-.476818-.47569 .476563-.238281.714844-.554687.714844-1.03125 0-.476562-.160156-.875-.476562-1.11328 -.320313-.238281-.796875-.398437-1.35156-.398437H623.867v4.84766h.875V357.625h.875c.316406 0 .476562.078125.632812.160156 .160156.15625.160156.316406.160156.632813 0 .636719 0 .953125.078125 1.11328h.875V359.453c-.078093-.082-.160093-.16-.160093-.32"/></g></g></svg>