<svg viewBox="0 -3e-06 768 768" xmlns="http://www.w3.org/2000/svg" xmlns:xlink="http://www.w3.org/1999/xlink"><defs><clipPath id="a"><use xlink:href="#c"/></clipPath><clipPath id="b"><path d="M384 28.625C187.73 28.625 28.625 187.73 28.625 384c0 196.27 159.105 355.375 355.375 355.375 196.27 0 355.375-159.105 355.375-355.375C739.375 187.73 580.27 28.625 384 28.625Z"/></clipPath><path id="c" d="M28.625 28.625h710.75v710.75H28.625Z"/><path id="d" d="M-76.8-76.8h921.6v921.6H-76.8Z"/></defs><g fill="#FFF"><use xlink:href="#d"/><use xlink:href="#d"/></g><g clip-path="url(#a)"><use clip-path="url(#b)" xlink:href="#c"/></g><path fill="#FFF" d="M531.008 384c0 81.2187-65.7891 147.008-147.008 147.008 -52.3359 0-98.2031-27.2695-124.148-68.4336C257.719 459.34 255.734 456.031 253.973 452.578 243.094 432.145 236.992 408.77 236.992 384c0-81.2227 65.7852-147.008 147.008-147.008 51.8945 0 97.4648 26.8281 123.559 67.4766C510.133 308.289 512.41 312.332 514.543 316.449 525.051 336.664 531.008 359.668 531.008 384Z"/><path d="M514.543 316.449C512.41 312.332 510.133 308.289 507.559 304.469c-20.6562 8.23047-40.5 17.9336-60.125 28.0781C440.891 335.875 434.422 339.359 428 342.91L330.711 290.281 319.684 297.633 384 347.246l9.03906 15.8281c-5.24609 3.10156-10.4805 6.21875-15.7305 9.3125C354.23 386.203 331.371 400.465 308.805 415.09c-18.5234 12.2031-36.8984 24.4766-54.832 37.4883C255.734 456.031 257.719 459.34 259.852 462.574c20.2148-9.11328 39.9844-18.8906 59.6836-28.8125C343.5 421.414 367.242 408.695 390.687 395.613c5.27734-2.99219 10.5547-5.97656 15.8242-8.96094l6.89062 12.0469 12.8633 82.6914 11.0234-3.67578 4.85938-111.789c6.07812-3.68359 12.1133-7.44141 18.0742-11.3281C478.82 342.617 497.121 330.27 514.543 316.449Z"/></svg>