<svg viewBox="0 -3e-06 768 768" xmlns="http://www.w3.org/2000/svg" xmlns:xlink="http://www.w3.org/1999/xlink"><defs><clipPath id="a"><use xlink:href="#c"/></clipPath><clipPath id="b"><path d="M384.961 28.625c-196.27 0-355.375 159.105-355.375 355.375 0 196.27 159.105 355.375 355.375 355.375 196.266 0 355.371-159.105 355.371-355.375 0-196.27-159.105-355.375-355.371-355.375Z"/></clipPath><path id="d" d="M-76.8-76.8h921.6v921.6H-76.8Z"/><path id="c" d="M29.5859 28.625h710.746v710.75H29.5859Z"/></defs><g fill="#FFF"><use xlink:href="#d"/><use xlink:href="#d"/></g><g clip-path="url(#a)"><use clip-path="url(#b)" xlink:href="#c"/></g><g fill="#FFF"><path d="M119.473 367.852C117.117 367.098 115.437 366.527 113.742 366.008 102.164 362.469 98.4336 351.543 105.582 341.828 108.789 337.477 113.063 334.34 117.965 332.066c12.168-5.65625 14.9023-4.35156 16.8398 8.89844C135.371 344.824 136.523 345.895 140.07 344.473c34.5742-13.8242 62.625-.902344 88.6016 21.168 2.95313 2.50781 6.20703 8.75781 10.4688 4.63672C242 367.516 236.754 363.398 234.695 360.176 228.527 350.496 220.484 341.992 217.113 330.59 215.305 324.461 214.574 318.297 215.848 312.16 216.961 306.789 220.27 304.664 225.297 308.695 230.262 312.68 234.094 317.527 236.293 323.543c4.05859 11.1016 7.96094 22.2617 12.2344 33.2734 .964844 2.47656.773437 7.77344 5.13672 6.03906 3.57422-1.42188.875-5.44922.0625-8.26172 -3.51953-12.2461-7.42187-24.3945-10.5234-36.7461 -1.28516-5.11719-4.25-12.8828 1.61328-15.207C251.828 299.863 256.723 306.91 259.934 312.543c7.53906 13.2227 8.3125 27.9531 7.0625 42.6172 -.589844 6.91016.292968 11.875 6.37891 15.9141 5.46484 3.62891 9.875 8.60938 13.6211 14.043 8.29688 12.0078 5.78516 20.2852-7.03516 27.3281 -4.83984 2.66016-13.8945.746094-14.0234 7.41406C265.855 424.078 272.578 428.34 276.055 432.738c4.83594 6.10938 9.73437 12.1953 11.2578 20.1836C288.148 457.305 289.309 461.953 284.504 464.57c-4.45312 2.42188-8.54687 0-12.0117-2.80859 -6.13672-4.95312-10.4609-11.5195-15.3008-17.6328C243.625 427 227.324 413.09 207.469 403.742 173.648 387.82 140.758 390.797 108.984 409.621 103.625 412.793 98.875 417 93.4609 420.07 89.793 422.148 87.0391 429.203 82.1172 425.18c-4.14844-3.38672-1.75781-9.30859.097656-13.9688 4.83594-12.1602 13.375-21.668 22.6992-30.5273 4.5-4.26172 9.30078-8.21484 14.5586-12.832Zm459.68 22.3672C570.672 409.27 555.887 415.973 535.109 409.305c-1.38672 15.75 1.82422 30.9375.289063 46.1445C534.918 460.23 535.363 465.523 528.598 465.367 523.02 465.238 519.477 462.312 518.957 456.145c-2.60156-30.7656-2.84766-61.5273.417969-92.2461 .84375-7.89063 4.73438-9.35938 11.1914-4.42578 1.82422 1.39062 2.55469 1.49219 4.53516 1C558.84 354.512 567.332 358.293 579.84 380.199c3.27734-.992188 3.12891-4.3125 4.38281-6.58984 6.77344-12.293 21.9297-18.6602 35.3086-14.5664 8.19141 2.5 13.8086 7.21875 13.4805 16.6406 -.335938 9.55078-6.73828 13.832-14.8711 15.4297 -5.33203 1.05078-11.0469.195313-16.9102.195313 4.6875 8.61328 10.793 10.7852 21.4297 7.67578 12.8789-3.76172 18.0586-14.5078 22.7266-25.5664 1.20703-2.86328-1.375-4.49219-2.65625-6.53125C640.313 363.023 639.203 358.82 640.738 354.41 641.777 351.422 643.48 348.73 647.281 348.629 650.859 348.527 654.074 350.32 654.457 353.469c1.23828 10.3906 9.08594 9.47266 16.0352 9.85938 15.0664.832031 17.7188 4.625 12.4336 18.5469C681.82 384.781 680.418 387.578 679.379 390.504 678.293 393.559 675.25 397.645 678.895 399.645c3.23828 1.77344 6.10156-2.34375 8.12109-4.95313C691.184 389.32 694.926 383.633 698.801 378.137c2.16797.289062 2.56641 1.88672 2.75 3.33203C703.172 393.906 689.074 411.672 677.004 412.5c-11.1289.769531-17.8125-6.94531-15.207-17.668 .65625-2.71094 2.07031-5.27734 2.47656-8.00781 .492187-3.29687 6.45703-7.44531.574218-9.6875C660.016 375.293 652.961 371.625 650.16 381.707c-1.60547 5.81641-5.28125 11.3203-9 16.2422 -16.5664 21.957-46.1172 19.1172-58.7656-5.41797 -.546875-1.05078-.835937-2.38672-3.24219-2.3125ZM560.824 385.234c.15625-8.03516-5.87109-15.3359-12.8594-15.5898C539.656 369.34 533.309 375.496 533.074 384.078 532.836 392.914 538.461 399.152 546.863 399.379c7.65625.207032 13.8008-6.01562 13.9609-14.1445Zm46.2813-1.49219c4.70703-1.67969 11.9727-.367188 12.168-8.37891 .121093-4.73828-4.00391-6.15625-7.98047-5.75 -5.80078.582031-9.99219 3.84375-10.875 9.80078 -.753907 5.11328 3.59766 3.77734 6.6875 4.32813Z"/><path d="M337.574 382.426c5.84766-6.70312 9.45313-14.0117 15.707-19.418 5.01953-4.33594 10.7109-6.85937 17.2539-4.65234C376.551 360.391 377.23 366.199 377.824 371.422c.703125 6.16406.578125 12.4219 1.16016 18.5977 .375 3.96875-1.03906 10 5.93359 9.16797 5.59766-.664062 5.87109-5.01562 5.12891-9.98828 -2.20312-14.7188 7.08203-27.5742 21.9102-31C427.801 354.539 443.75 362.633 448.551 376.77c3.46484 10.1836.074219 20.9375-8.92969 28.3672C429.855 413.191 415.344 415.086 404.59 408.066c-5.93359-3.86719-9.19141-3.60938-14.7812.578125 -10.875 8.13672-23.0117 2.72266-26.3242-10.5312C362.18 392.875 362.461 387.605 362.145 382.34c-.171875-2.76562.125-6.08594-3.00781-7.26172 -3.61328-1.35547-5.85547 1.53906-7.75391 3.94531 -6.05469 7.66406-9.84375 16.582-13.4375 25.5312 -1.73047 4.29297-3.21875 8.21875-8.98437 7.52734 -5.875-.695312-5.375-5.67969-5.67188-9.29688 -2.45703-30.1133-3.59766-60.2539-.679687-90.4336 .578125-5.94922 3.91406-8.30859 9.13281-8.44922C337.488 303.75 339 307.836 339.129 312.668c.449219 16.8086.582032 33.6133-.652344 50.4023 -.484374 6.45313-.617187 12.9063-.902343 19.3555Zm81.6445 16.9219c7.03125.164063 12.4141-6.03516 12.5234-14.4141C431.844 376.852 426.391 369.914 419.77 369.719 413.215 369.523 407.332 376.383 407.18 384.383 407.027 392.512 412.398 399.188 419.219 399.348Zm32.8516 12.25c.835938-15.6719 1.44531-31.1953 2.56641-46.6836 .621093-8.55078 4.66797-10.6289 11.4766-5.5 2.92578 2.20313 4.40234 1.03906 6.42187.164063C479.48 356.602 486.609 356.762 493.625 358.742c14.3086 4.04297 23.1914 17.9141 20.4258 31.3594 -2.79297 13.582-19.1641 24.8633-33.8594 21.2969 -10.1133-2.45703-9.94922 1.49609-9.57031 8.91797 .601562 11.7852.285156 23.6133.53125 35.418 .109375 5.16016-.667969 9.89844-7.02344 9.70312 -5.46484-.171875-9.43359-3.10938-9.64453-9.30078 -.03125-.929688-.140625-1.85938-.191406-2.78516Zm43.8477-27.1914c-.0625-8.13672-5.46094-14.5039-12.4766-14.7109 -8.30469-.253906-14.3828 5.97656-14.4648 14.832 -.089843 9.1875 5.30078 14.8711 14.1016 14.8438C491.027 399.348 495.988 393.57 495.918 384.406Z"/></g></svg>