<svg viewBox="0 0 768 768" xmlns="http://www.w3.org/2000/svg" xmlns:xlink="http://www.w3.org/1999/xlink"><defs><clipPath id="a"><use xlink:href="#c"/></clipPath><clipPath id="b"><path d="M384 28.625C187.73 28.625 28.625 187.73 28.625 384c0 196.27 159.105 355.375 355.375 355.375 196.27 0 355.375-159.105 355.375-355.375C739.375 187.73 580.27 28.625 384 28.625Z"/></clipPath><path id="c" d="M28.625 28.625h710.75v710.75H28.625Z"/><path id="d" d="M-76.8-76.8h921.6v921.6H-76.8Z"/></defs><g transform="translate(0 3e-06)"><g fill="#FFF"><use xlink:href="#d"/><use xlink:href="#d"/></g></g><g clip-path="url(#a)"><use clip-path="url(#b)" xlink:href="#c" x="0" y="3e-06"/></g><g transform="translate(0 3e-06)"><g fill="#FFF"><path d="M194.336 390.633v30.4453H175.75V393.73c0-7.60938-3.36328-10.8867-8.76172-10.8867 -6.01562 0-10.6172 3.71875-10.6172 12.5703v25.6641H137.785V347.445h18.6719v25.3984c4.16016-3.80469 9.73438-5.75 16.0195-5.75 12.3906-.089844 21.8594 7.07812 21.8594 23.5391m46.375 2.83203c0 8.14453-4.77734 12.7461-11.1523 12.7461 -6.28125 0-11.1484-4.60156-11.1484-12.7461 0-8.05469 4.86719-12.5664 11.1484-12.5664 6.375 0 11.1523 4.51172 11.1523 12.5664m-41.1523 0c0 16.1094 12.6562 27.5234 30 27.5234 17.5234 0 30.0039-11.5039 30.0039-27.5234 0-16.0195-12.4805-27.3477-30.0039-27.3477 -17.4336 0-30 11.3281-30 27.3477m122.043-2.56641c.6215-7.52312 4.8675-11.5931 11.2385-11.5931 5.22266 0 9.02734 2.92187 10.2695 7.34766L321.602 390.898m25.7539 11.2383c-3.6289 3.0977-7.0789 4.6057-12.3009 4.6057 -5.83984 0-10-2.03516-12.0352-6.375l37.9648-7.25391c-.085937-17.3477-12.9219-27.082-28.2305-27.082 -16.9063 0-29.3828 11.4141-29.3828 27.3437 0 15.9336 12.3008 27.5273 31.1523 27.5273 10.0898 0 17.5234-2.92187 22.5664-8.58594l-9.735-10.1792m98.325-8.672c0 8.14453-4.86719 12.7461-11.1484 12.7461 -6.28516 0-11.1523-4.60156-11.1523-12.7461 0-8.05469 4.86719-12.5664 11.1523-12.5664 6.19531 0 11.1484 4.51172 11.1484 12.5664m18.7656 0c0-16.9023-11.6836-27.3477-26.1094-27.3477 -6.19531 0-11.1523 1.76953-14.7812 5.48828v-24.25h-18.672v72.75h17.7891v-5.3125c3.53906 4.25 8.76172 6.19531 15.6641 6.19531 14.4258 0 26.1094-10.5312 26.1094-27.5234m23.5391-2.56641c.621094-7.52344 4.86719-11.5937 11.2422-11.5937 5.21875 0 9.02734 2.92187 10.2656 7.34766L487.984 390.898m25.8438 11.2383c-3.6288 3.0977-7.0818 4.6057-12.3008 4.6057 -5.84375 0-10.0039-2.03516-12.0391-6.375l37.9687-7.25391c-.089843-17.3477-12.9219-27.082-28.2305-27.082 -16.9063 0-29.3828 11.4141-29.3828 27.3437 0 15.9336 12.3008 27.5273 31.1523 27.5273 10.0898 0 17.5234-2.92187 22.5664-8.58594l-9.734-10.1792m60.3594-8.67188c0 8.14453-4.78125 12.7461-11.0625 12.7461 -6.375 0-11.1523-4.60156-11.1523-12.7461 0-8.05469 4.77734-12.5664 11.1523-12.5664 6.28125 0 11.0625 4.51172 11.0625 12.5664m-.2654-46.1101v24.25c-3.543-3.718-8.496-5.488-14.692-5.488 -14.5156 0-26.1992 10.5312-26.1992 27.3477 0 16.9922 11.6836 27.5234 26.1992 27.5234 6.90234 0 12.0352-1.94531 15.5742-6.19531v5.3125h17.7891v-72.75Zm26.3711 68.1484c5.22266 3.27344 14.5156 5.48438 23.543 5.48438 17.2578 0 26.2852-7.60938 26.2852-17.4336 0-21.0625-31.332-13.1875-31.332-20.5312 0-1.94922 2.30078-3.71875 8.49609-3.71875 4.69141 0 10.0039.972656 15.3125 3.89453l5.57422-12.6562C642.863 367.621 634.633 366.031 627.199 366.031c-16.6406 0-25.9336 7.60938-25.9336 17.6094 0 21.2422 31.418 13.1875 31.418 20.2695 0 2.21094-2.03516 3.62891-8.31641 3.62891 -6.46094 0-13.6289-1.85937-18.4961-4.87109L600.293 415.504m-303.824-10.535c-1.594 1.062-3.629 1.683-5.664 1.683 -3.36328 0-5.48828-2.125-5.48828-6.10547V380.012h12.0352v-13.895H285.316v-18.672h-18.675v53.2773c0 13.6289 7.87891 20.2656 21.5078 20.2656 4.86719 0 9.73437-.972656 12.9219-3.00781Zm72.2148-3.27344c0 12.5664 7.78906 19.293 20.4453 19.293 2.92187 0 5.66406-.351562 8.58594-1.32812l-.79704-13.8944c-.972657.53125-2.65625.976563-4.16016.976563 -3.62891 0-5.75391-2.03516-5.75391-6.01953v-53.368H368.598v54.3398"/><path d="M137.785 402.402h18.6719v18.6758H137.785Z"/><path d="M137.785 383.73h18.6719v18.6719H137.785Z"/><path d="M119.109 383.73h18.6758v18.6719H119.109Z"/></g></g></svg>