<svg viewBox="0 -3e-06 768 768" xmlns="http://www.w3.org/2000/svg" xmlns:xlink="http://www.w3.org/1999/xlink"><defs><clipPath id="a"><path d="M76 76.8008h641V691H76Z"/></clipPath><clipPath id="b"><path d="M242.922 76.8008v613.613c1.80078.128907 3.59766.128907 5.39844.128907h295.629V76.8008Zm347.281 0H543.949v613.613h1.02734c74.7734 0 140.43-61.0273 145.824-135.543l25.3086-342.656c5.52734-74.3867-51.1328-135.414-125.906-135.414Zm-387.109 0c-74.7734 0-131.434 61.0273-125.91 135.543L102.496 555C107.891 627.719 170.59 687.59 243.051 690.414V76.8008Z"/></clipPath><path id="c" d="M622.199 387.426c.273437-.546875.683593-1.09375 1.09375-1.50391 .410156-.410156.957031-.820313 1.64062-1.09375C625.48 384.555 626.164 384.418 626.844 384.418c.683594 0 1.36719.136719 1.91406.410156 .546876.273437 1.09375.546875 1.64063 1.09375 .410156.410156.820312.957031 1.09375 1.50391 .273437.546875.410156 1.23047.410156 1.91406s-.136719 1.36328-.410156 1.91016c-.273438.546875-.683594 1.09375-1.09375 1.64062 -.410157.410156-.957032.820313-1.64063 1.09375 -.546874.273437-1.23047.410156-1.91406.410156 -.679688 0-1.36328-.136719-1.91016-.410156C624.387 393.711 623.84 393.438 623.293 392.891 622.883 392.48 622.473 391.934 622.199 391.25 621.926 390.703 621.789 390.023 621.789 389.34c0-.683594.136719-1.36719.410157-1.91406Zm.820312 3.6875c.273438.546875.546875.957031.820313 1.36719 .410156.410156.820312.683593 1.36719.957031 .546875.273438 1.08984.273438 1.63672.273438s1.09375-.136719 1.64062-.273438c.546875-.273438.957031-.546875 1.23047-.957031 .410156-.410157.683594-.820313.820312-1.36719 .273438-.546875.273438-1.08984.273438-1.63672 0-.546874-.136719-1.09375-.273438-1.64062 -.273437-.546876-.546875-.957032-.820312-1.36719 -.410156-.410156-.820313-.683594-1.23047-.820312 -.546875-.273438-1.09375-.273438-1.64062-.273438s-1.08984.136719-1.63672.273438c-.546875.273437-.957031.546874-1.36719.820312 -.410156.410156-.683594.820312-.820313 1.36719 -.273437.546874-.273437 1.09375-.273437 1.64062 0 .546876.136718 1.08984.273437 1.63672Zm4.09766-4.64453c.683593 0 1.23047.136719 1.50391.410156 .273437.273438.546875.683594.546875 1.23047s-.136719.957031-.410157 1.09375c-.273437.273437-.683593.410156-1.09375.410156l1.64063 2.59375H628.348L626.707 389.75H625.754v2.45703H624.797V386.469ZM626.707 389.066h.546875c.136719 0 .410156 0 .546875-.136718 .136719 0 .273438-.136719.273438-.273438 .136719-.136719.136719-.273438.136719-.546875 0-.136719 0-.410156-.136719-.410156s-.136719-.136719-.273438-.273438c-.136719 0-.273437-.136719-.410156-.136719H625.754v1.77734Z"/></defs><g clip-path="url(#a)"><path clip-path="url(#b)" d="M76.8008 76.8008H716.09v613.613H76.8008Z"/></g><g fill="#FFF"><path d="M170.125 391.934c.820312-.410156 1.77734-.410156 2.59766-.820313 -1.36719-1.5-2.87109-2.86719-3.96484-4.64453 -.410156-.546875-.136718-.683594.136719-.820312 .273438 0 .136719-.546876.273438-.820313 .546875-.136719.546875-.820313.820312-1.23047 0-.136718 0-.546875.136719-.683594 .136719-.136718.410156-.273437.683594 0 1.09375 1.36719 2.32422 2.1875 3.55078 3.14453 1.50391 1.09375 3.14453 1.91406 4.375 3.28125 .136719 0 .546875.273437.546875 0 .136719-1.36719.683594-2.73438 1.23047-3.82813 .136719-.410157.273437-.957031.546875-1.36719C181.469 383.324 182.426 382.777 183.105 382.23c1.23047-.683594 2.59766 0 3.55469-1.08984 .273438-.273437.820313 0 1.09375 0 .820313.40625 1.91406.136719 2.59766.816406 -1.09375 2.46094-1.09375 5.05859-1.91406 7.65625C188.301 390.16 188.027 390.977 188.301 391.25c1.23047.410156 4.37109-.136719 4.50781-.273438 1.64062 0 3.14453 0 4.78516.410157 1.23047.273437 2.05078.820312 3.14453 1.77734 1.77344 1.36719 1.77344 3.82813 1.5 6.01563 0 .136718-.816406.953124-1.08984.816406 -.136719 0-.136719-.542969-.273438-.679688C200.191 399.859 198.961 401.09 198.551 401.09c-.136719 0-.957031-.820313-1.36719-1.09375 -1.36719-.953125-3.00781-.679688-4.51172-.542969 -1.77344.136719-3.55078-.136719-5.32812.679687 .683594 1.23047 1.77734 1.91406 2.87109 2.87109 1.64062 1.64062 3.27734 2.87109 4.91797 4.51172C196.227 408.746 197.32 409.562 198.004 410.93c-.410156.273437 0 .410156-.273437.683593 -.273438.136719-.273438-.410156-.546875-.410156 -.273438 0-.410156.410156-.410156.683594 .136718.136719-.273438.957031-.546876.957031 -.136718.136719-.820312.546875-1.09375.546875 -.136718 0-.957031-.410156-.957031-.273437 .273438.410156.546875.957031.410157 1.09375 -.683594-.136719-1.09375-.136719-1.50391-.683594 -2.18359-1.91406-4.23438-3.96484-6.55859-6.01172 -.820313-.820313-1.36719-1.91406-2.46094-2.73438C182.426 408.609 181.332 411.34 179.691 415.168c-.410156.683593-.546875 2.46094-.957031 2.59766 -.273437.136719-1.23047-1.23047-1.77734-2.32422 0-2.32422.273438-3.14453.410157-5.60547V409.426c.136718-3.14062 1.09375-5.875.957031-9.15625 0-.273437-.410157-.410156-.820313-.410156 -4.09766-.40625-8.0625-.953125-12.1641-1.5C164.387 398.223 163.43 398.223 162.473 397.812 162.336 397.676 161.789 397.402 161.652 397.402 161.516 397.266 161.516 397.266 161.379 397.266c1.64062-1.64062 3.00781-3.41797 5.32812-4.375 1.09375 0 2.73438-.683594 3.41797-.957031Z"/><path d="M208.254 414.074C207.98 413.938 208.117 413.664 208.117 413.664c.273437-.410156.820312-.410156 1.09375-.410156 1.09375-.273437 2.32031 0 3.41406-.273437 .273438-.136719.410156-.410157.546875-.410157C213.992 412.16 214.812 412.023 215.77 411.75 216.043 411.613 216.59 411.34 216.316 410.93 215.359 409.836 214.402 408.883 213.855 407.652 213.582 406.969 213.035 406.422 213.035 405.738c0-.546875.683594-.683593 1.23047-.410156 2.46094 1.36719 4.10156 3.41797 5.875 5.60156 .273437.410156.683594-.546876.820313-.957032 .820312-1.77344 1.36719-3.82422 2.32422-5.60156 .273438-.546875.683594-1.23047 1.23047-1.36719C225.336 402.73 225.883 402.184 226.566 401.773c.546875-.273438.957032 0 1.50391-.273438 .273438-.136719.816407.410156 1.22656.273438 .683594-.410157 1.23047-.136719 1.91406 0 .410156.273437.546874.683593.410156 1.09375C230.937 404.508 230.664 406.148 229.57 407.789 228.754 409.016 228.207 410.246 227.25 411.477c0 .136719-.136719.410157.136719.410157 .546875.136719 1.23047 0 1.63672.273437 1.64062.546875 3.28125.410156 5.05859.683594 .820313.273438.820313 1.50391 1.64062 2.1875 .410156.273438-.273437.683594-.820312.820312 -1.23047.410157-2.46094-.136718-3.69141.273438 -2.05078.410156-4.09766 0-6.01172.820312 .683593.683594 1.36719 1.22656 1.91406 1.91016l1.64062 2.46094c.542969.957032.816406 1.77734 1.08984 2.73438 .273438.410157.136719 1.09375.136719 1.64062C229.707 425.555 229.707 425.145 229.57 425.008c-.273437 0-.410156.410157-.816406.410157C228.48 425.281 228.344 425.008 228.207 424.871 227.797 424.461 227.387 423.777 227.25 423.23 226.43 421.453 224.926 420.359 223.559 419.266 222.191 422.137 221.234 425.008 219.324 427.738c-.136719.273438-.410157.273438-.820313.273438 -.136718-.136719-.273437.273437-.410156.273437C217.957 428.012 217.82 428.012 217.684 427.875 217.137 427.469 216.316 426.922 216.18 426.238 215.906 425.555 215.633 425.008 215.633 424.324c0-.136719-.273437-.410157-.273437-.410157 .273437-.410156.273437-1.09375.410156-1.36719 .273438-.410156.820313-.820313.820313-1.23047 .546875-1.36719 1.50391-2.46094 1.77734-3.82422C215.77 417.082 213.035 417.219 210.441 416.262 209.895 415.988 209.211 415.852 208.664 415.441 208.391 414.484 208.527 414.211 208.254 414.074Z"/><path d="M211.395 371.574c.820313-2.05078 2.1875-3.28125 2.32422-5.60547 -4.37109-2.46094-9.56641-.957031-12.8437-6.69531 -.820312-1.23047 0-6.96875.40625-7.65234C202.238 349.57 204.152 349.57 205.93 350.937c.136718-.136719 1.50391.273438 1.77734.410156 1.77734-.273437 3.6875.410156 5.60156.820313 2.46094.273437 4.51172 1.23047 6.83203.957031 .136719-.136719.410156-.683594.410156-1.36719C220.004 348.34 219.188 345.332 218.367 341.781 217.957 340.961 218.094 339.867 217.82 339.047 217.684 336.996 216.316 333.855 217.547 332.898c.136719-.136719.410156.410156.546875.273437 .410156-.273437.546875-.820313.957031-.683594C223.285 335.355 226.84 339.73 230.664 343.969c1.23047 1.22656 1.50391-2.05078 2.46094-3.14453 .273438-.546875 0-1.77734.273438-2.1875 .957031-1.77734 1.09375-3.96094 1.91406-5.60156C236.816 330.984 237.637 327.84 239.82 327.02c1.50391-.410156 3.14453.136719 4.51172 1.64062 .273438.136719.957031 0 1.36719.410156C247.203 330.438 248.43 332.215 250.07 333.855c.546876.683593.820313 1.91016.546876 2.45703 -.410157 2.32422-2.46094 2.46094-3.6875 4.10156C244.605 344.242 242.145 348.066 239.82 351.895 239.547 352.441 238.863 353.668 239.41 354.215 242.691 357.496 245.562 360.914 249.25 363.508c2.32422 1.50391 4.78516 1.36719 6.83594 3.41797 1.5 1.77734 2.59375 3.69141 3.27734 6.01172C251.027 378.27 241.598 369.523 232.715 369.66c-.683594.136719-.546875 1.09375-.546875 1.50391C232.578 374.988 233.262 378.68 233.672 382.367c.136719 2.59766 1.50391 5.19531 1.91406 7.65625 .136718.953124.957031 3.41406-.273438 3.27734 -1.36719 0-3.28125-.410156-4.23828-2.59766 -1.23047-2.86719-2.45703-5.875-3.41406-9.01953C227.523 380.73 227.113 379.91 227.523 379.09 227.66 377.586 226.703 376.219 226.293 375.125c-.273438-.546875-.820313.273438-1.23047.546875C223.832 377.313 222.602 378.816 221.508 380.73c-2.04687 2.86719-4.37109 4.64453-7.10547 5.875 -2.05078.820312-5.05469 1.23047-6.42188-1.91406 .683593-.136718 1.23047-1.64062.820312-2.05078 -3.14453-4.78125 1.23047-7.65234 2.59375-11.0664Z"/><path d="M303.23 425.281H295.578V384.418H303.23V391.25c2.87109-4.50781 6.42578-7.51562 13.2578-7.51562h.546875v6.5625H316.488c-3.28125 0-5.875 1.08984-8.19922 3.27734C305.418 396.309 303.367 400.543 303.23 404.098Z"/><path d="M333.707 426.102c-9.15625 0-13.2539-6.01562-13.2539-11.4805 0-8.74609 7.37891-13.3945 26.375-16.6719V396.172c0-4.51172-2.73438-6.83203-8.0625-6.83203 -7.10938 0-9.56641 4.50781-10.25 5.875l-.136719.546875 -6.97266-3.00781L321.68 392.207c3.00781-5.32812 9.70312-8.74609 16.9492-8.74609 7.92578 0 15.8516 3.82812 15.8516 12.4375v20.0898c0 4.09766.410156 6.28516.957031 8.47266l.136719.683593H347.648L347.102 420.223C344.23 423.23 339.719 426.102 333.707 426.102Zm12.9844-22.2773c-12.5742 2.1875-18.7227 5.73828-18.7227 10.7969 0 3.28125 3.41406 5.60156 6.42188 5.60156 3.82812 0 8.88281-2.59375 12.3008-6.28516Z"/><path d="M380.992 425.281H371.699L358.578 384.418h7.79297l10.25 32.1172 10.2461-32.1172H393.84Z"/><path d="M449.051 425.281H441.262V370.891l7.78906-3.28125Z"/><path d="M474.469 426.102c-11.0703 0-18.4492-8.47266-18.4492-21.1836 0-12.7109 7.37891-21.1836 18.4492-21.1836 11.0703 0 18.4492 8.47266 18.4492 21.1836 0 12.7109-7.37891 21.1836-18.4492 21.1836Zm0-36.625c-6.69531 0-10.7969 5.73828-10.7969 15.4414 0 9.70312 4.10156 15.4414 10.7969 15.4414 6.69531 0 10.7969-5.73828 10.7969-15.4414 0-9.70312-4.10156-15.4414-10.7969-15.4414Z"/><path d="M515.738 426.102c-11.0664 0-18.4492-8.47266-18.4492-21.1836 0-12.7109 7.38281-21.1836 18.4492-21.1836 7.92969 0 13.5312 3.69141 16.5391 11.0703l.273437.546874 -7.24609 2.1875 -.136719-.410156C524.078 393.711 521.48 389.613 515.738 389.613c-6.83203 0-10.793 5.60156-10.793 15.4414 0 9.83984 3.96094 15.4414 10.793 15.4414 5.33203 0 7.92969-1.77734 11.0703-7.10547L527.082 412.98l6.55859 2.32422 -.269531.546874c-4.78516 7.37891-9.70312 10.25-17.6328 10.25Z"/><path d="M539.246 384.418h7.65234v40.8633H539.246Z"/><path d="M279.453 426.102c-5.73828 0-9.56641-1.23047-10.25-6.97266v-28.832H263.055V384.555h6.14844v-11.207L276.855 370.07v14.4844h9.83984L285.191 390.293H276.992v27.8789c0 1.09375.546874 2.1875 4.23828 2.1875 1.91406 0 3.41406-.136719 5.875-.546875l.820312-.136719 -1.50391 5.74219H286.148c-2.18359.410156-3.82422.683593-6.69531.683593Z"/><path d="M588.582 440.313c-2.05078 0-4.51172-.273438-5.46875-.410156L582.566 439.766l1.77734-5.73828h.957031c.683594.136718 1.50391.136718 2.46094.136718 3.82422 0 8.47266-.957031 10.3867-9.01953L583.387 384.281h7.24219l.136719.273438 10.7969 29.2461 9.56641-29.6562h8.0625L604.297 428.285C600.469 438.809 592.816 440.313 588.582 440.313Z"/><path d="M571.496 426.102c-5.73828 0-9.56641-1.23047-10.2461-6.97266V390.16H555.098V384.418H561.25v-11.207l7.65234-3.27734v14.4844h9.83984L577.238 390.16H569.039v27.8789c0 1.08984.546876 2.18359 4.23438 2.18359 1.91406 0 3.41797-.136718 5.87891-.546875l.816406-.136719 -1.5 5.74219H578.195c-2.1875.546875-3.82812.820312-6.69922.820312Z"/><path d="M416.797 426.102c-5.19141 0-9.83984-1.77734-13.3906-5.05859 -4.10156-3.82422-6.15234-9.42969-6.15234-16.125 0-12.7109 7.37891-21.1836 18.4492-21.1836 4.64844 0 9.01953 1.50391 12.0273 4.375C431.148 391.387 433.059 396.309 433.059 402.32v4.23828H405.043c.273437 7.92578 5.19531 13.8008 11.7539 13.8008 4.64844 0 8.60938-2.18359 10.9336-6.28516l.273437-.546875 4.91797 4.78125 -.273437.410156C427.73 425.555 424.723 426.102 416.797 426.102ZM405.18 400.68H425.27C425.133 393.711 421.582 389.477 415.84 389.477c-6.14844 0-9.97656 4.09766-10.6602 11.2031Z"/><path d="M539.246 370.891h7.65234v7.65234H539.246Z"/><use xlink:href="#c"/><use xlink:href="#c"/></g></svg>