<svg viewBox="0 -3e-06 768 768" xmlns="http://www.w3.org/2000/svg" xmlns:xlink="http://www.w3.org/1999/xlink"><defs><clipPath id="a"><use xlink:href="#c"/></clipPath><clipPath id="b"><path d="M384 28.625C187.73 28.625 28.625 187.734 28.625 384c0 196.27 159.105 355.375 355.375 355.375 196.27 0 355.375-159.105 355.375-355.375C739.375 187.734 580.27 28.625 384 28.625Z"/></clipPath><path id="c" d="M28.625 28.625h710.75v710.75H28.625Z"/><path id="d" d="M631.078 401.746c.300781-.597656.75-1.19922 1.19922-1.64844 .449218-.449218 1.04688-.898437 1.79688-1.19531 .597656-.300782 1.34766-.449219 2.09375-.449219 .75 0 1.49609.148437 2.09766.449219 .597656.296875 1.19531.597656 1.79688 1.19531 .449219.449219.898438 1.05078 1.19531 1.64844 .300782.597656.449219 1.34766.449219 2.09375 0 .75-.148437 1.5-.449219 2.09766 -.296874.597656-.746093 1.19922-1.19531 1.79688 -.449219.449219-1.05078.898437-1.79688 1.19922 -.601563.296875-1.34766.445312-2.09766.445312 -.746094 0-1.49609-.148437-2.09375-.445312 -.601563-.300782-1.19922-.601563-1.79688-1.19922 -.449219-.449219-.898438-1.04688-1.19922-1.79688C630.781 405.34 630.629 404.59 630.629 403.84c0-.746094.152344-1.49609.449219-2.09375Zm.898437 4.04297c.300782.597657.597657 1.04688.898438 1.49609 .449219.449219.898438.75 1.49609 1.04688 .601562.300781 1.19922.300781 1.79688.300781 .597656 0 1.19922-.148437 1.79688-.300781 .597656-.296875 1.04688-.597656 1.34766-1.04688 .449219-.449218.75-.898437.898438-1.49609 .300781-.601562.300781-1.19922.300781-1.79687 0-.597657-.152344-1.19922-.300781-1.79688C639.91 401.598 639.613 401.148 639.313 400.699c-.449219-.449219-.898438-.75-1.34766-.898438C637.367 399.5 636.766 399.5 636.168 399.5c-.597657 0-1.19531.148438-1.79688.300781 -.597656.296875-1.04688.597657-1.49609.898438 -.449219.449219-.75.898437-.898438 1.49609 -.300781.597657-.300781 1.19922-.300781 1.79688 0 .597656.152344 1.19531.300781 1.79687Zm4.49219-5.08984c.746094 0 1.34766.148437 1.64453.449219 .300781.296874.601563.746093.601563 1.34766 0 .597656-.152344 1.04688-.449219 1.19531 -.300781.300782-.75.449219-1.19922.449219l1.79688 2.84375H637.816L636.02 404.289H634.973v2.69531H633.922V400.699ZM636.02 403.543h.597657c.148437 0 .449218 0 .597656-.148438 .152344 0 .300781-.152343.300781-.300781 .148437-.148438.148437-.300781.148437-.597656 0-.152344 0-.449219-.148437-.449219s-.148437-.152344-.300781-.300781c-.148438 0-.296875-.148438-.449219-.148438H634.973v1.94531Z"/></defs><g clip-path="url(#a)"><use clip-path="url(#b)" xlink:href="#c"/></g><g fill="#FFF"><path d="M135.855 406.687c.898437-.449219 1.94531-.449219 2.84375-.898438 -1.49609-1.64844-3.14453-3.14453-4.33984-5.08984 -.449219-.601563-.152344-.75.148437-.898438 .300782 0 .148438-.601562.300782-.898437 .597656-.152344.597656-.898438.898437-1.34766 0-.148438 0-.597657.148438-.75 .148437-.148438.449219-.296876.75 0C137.801 398.301 139.148 399.199 140.496 400.25 142.145 401.445 143.941 402.344 145.289 403.84c.148438 0 .597657.300781.597657 0 .148437-1.49609.746093-2.99219 1.34766-4.19141 .148437-.449219.296875-1.04688.597656-1.49609 .449219-.898438 1.49609-1.49609 2.24609-2.09375 1.34766-.75 2.84375 0 3.89062-1.19922 .300781-.300781.898438 0 1.19922 0 .898437.449219 2.09375.148437 2.84375.898437 -1.19922 2.69531-1.19922 5.53906-2.09375 8.38281 -.152344.597656-.449219 1.49609-.152344 1.79688 1.34766.449219 4.79297-.148438 4.94141-.300781 1.79688 0 3.44141 0 5.23828.449219 1.34766.300781 2.24609.898437 3.44531 1.94922 1.94531 1.49609 1.94531 4.19141 1.64453 6.58594 0 .148437-.898437 1.04688-1.19531.898437 -.152344 0-.152344-.601562-.300782-.75 -.75.597657-2.09375 1.94531-2.54297 1.94531 -.152344 0-1.05078-.898438-1.5-1.19531 -1.49609-1.04688-3.29297-.75-4.9375-.601562 -1.94922.152343-3.89453-.148438-5.83984.75 .75 1.34766 1.94531 2.09766 3.14453 3.14453C159.66 420.609 161.457 421.957 163.25 423.754c1.19922 1.34766 2.39844 2.24219 3.14453 3.74219 -.449219.296875 0 .449218-.296875.746094 -.300781.152343-.300781-.449219-.601562-.449219 -.296875 0-.449219.449219-.449219.75C165.199 428.691 164.75 429.59 164.449 429.59c-.148438.152344-.898438.601562-1.19922.601562 -.148438 0-1.04688-.449218-1.04688-.300781 .300781.449219.601563 1.04688.449219 1.19922 -.746094-.152344-1.19531-.152344-1.64453-.75C158.609 428.242 156.367 426 153.82 423.754 152.922 422.855 152.324 421.656 151.125 420.758c-1.79688 4.19141-2.99219 7.1875-4.78906 11.3789 -.449219.746093-.597657 2.69531-1.04688 2.84375 -.300781.148437-1.34766-1.34766-1.94922-2.54688 0-2.54297.300781-3.44141.449218-6.13672V425.848C143.941 422.406 144.988 419.41 144.84 415.816c0-.296875-.449219-.449218-.898438-.449218C139.449 414.918 135.105 414.32 130.617 413.723 129.566 413.574 128.52 413.574 127.473 413.125c-.148437-.152344-.75-.449219-.898437-.449219 -.148438-.152343-.148438-.152343-.300781-.152343C128.07 410.727 129.566 408.781 132.113 407.734c1.19922 0 2.99219-.75 3.74219-1.04688Z"/><path d="M177.625 430.937C177.324 430.789 177.473 430.488 177.473 430.488c.300782-.449219.898438-.449219 1.19922-.449219 1.19531-.296874 2.54297 0 3.74219-.296874 .300782-.152344.449219-.449219.597657-.449219C183.91 428.844 184.809 428.691 185.855 428.395c.300781-.152343.898437-.449219.601562-.898437C185.406 426.297 184.359 425.25 183.762 423.902c-.300781-.75-.898438-1.34766-.898438-2.09766 0-.597657.75-.746094 1.34766-.449219 2.69531 1.5 4.49219 3.74609 6.4375 6.14062 .296874.449218.746093-.601563.898437-1.05078C192.445 424.5 193.043 422.254 194.09 420.309c.300781-.597656.75-1.34766 1.34766-1.49609 .898438-.300781 1.49609-.898438 2.24609-1.34766 .597656-.300782 1.04688 0 1.64844-.300782 .296875-.148437.898438.449219 1.34766.300782 .746093-.449219 1.34375-.148438 2.09375 0 .449218.300781.597656.75.449218 1.19922 -.75 1.79297-1.04688 3.58984-2.24609 5.38672C200.078 425.398 199.48 426.746 198.434 428.094c0 .148438-.152344.449219.148437.449219 .597657.148437 1.34766 0 1.79688.300781 1.79688.597656 3.59375.449219 5.53906.746094 .898437.300781.898437 1.64844 1.79688 2.39453 .449218.300781-.300782.75-.898438.898437 -1.34766.449219-2.69531-.148437-4.04297.300782 -2.24609.449218-4.49219 0-6.58594.898437 .746094.75 1.49609 1.34766 2.09375 2.09766l1.79688 2.69141C200.68 439.922 200.977 440.82 201.277 441.867c.296875.449218.148437 1.19531.148437 1.79687 -.300781-.152343-.300781-.601562-.449219-.75 -.296874 0-.449218.449219-.898437.449219C199.781 443.215 199.629 442.914 199.48 442.766 199.031 442.316 198.582 441.566 198.434 440.969 197.535 439.023 195.887 437.824 194.391 436.629 192.895 439.77 191.844 442.914 189.75 445.91c-.148438.296875-.449219.296875-.898438.296875 -.148437-.148437-.300781.300781-.449218.300781 -.148438-.300781-.300782-.300781-.449219-.449218 -.597656-.449219-1.49609-1.04688-1.64844-1.79688 -.296876-.75-.597657-1.34766-.597657-2.09375 0-.152344-.300781-.449219-.300781-.449219 .300781-.449219.300781-1.19922.449219-1.5 .300781-.449219.898437-.898438.898437-1.34766C187.355 437.375 188.402 436.18 188.703 434.68 185.855 434.23 182.863 434.383 180.02 433.332 179.418 433.035 178.672 432.883 178.074 432.434 177.773 431.387 177.922 431.09 177.625 430.937Z"/><path d="M181.066 384.379c.898438-2.24609 2.39453-3.58984 2.54688-6.13672C178.82 375.547 173.133 377.195 169.539 370.906c-.898437-1.34766 0-7.63281.449219-8.38281 1.04688-2.24609 3.14453-2.24609 5.08984-.75 .148437-.148438 1.64844.300781 1.94531.449218 1.94531-.296875 4.04297.449219 6.14062.898438 2.69141.300781 4.9375 1.34766 7.48438 1.05078 .148437-.152344.449218-.75.449218-1.5C190.496 358.93 189.602 355.637 188.703 351.746 188.254 350.848 188.402 349.648 188.102 348.75c-.148437-2.24609-1.64453-5.6875-.296874-6.73438 .148437-.152344.449218.445313.597656.296875C188.852 342.016 189 341.414 189.449 341.566 194.09 344.707 197.984 349.5 202.176 354.141 203.523 355.488 203.82 351.895 204.871 350.695c.296875-.597656 0-1.94531.296875-2.39453 1.05078-1.94531 1.19922-4.33984 2.09766-6.13672C208.91 339.918 209.809 336.473 212.207 335.578c1.64453-.449219 3.44141.148437 4.9375 1.79297 .300781.152344 1.04688 0 1.49609.449218 1.64844 1.5 2.99609 3.44531 4.79297 5.24219 .597656.746094.898437 2.09375.597656 2.69531 -.449219 2.54297-2.69531 2.69141-4.04297 4.48828C217.445 354.437 214.75 358.633 212.207 362.824 211.906 363.422 211.156 364.77 211.758 365.367c3.58984 3.59375 6.73438 7.33594 10.7773 10.1797C225.078 377.195 227.773 377.043 230.02 379.289c1.64844 1.94531 2.84375 4.04297 3.59375 6.58984C224.48 391.715 214.152 382.133 204.422 382.285c-.75.148438-.601563 1.19531-.601563 1.64453C204.27 388.121 205.02 392.164 205.469 396.207c.148438 2.84375 1.64453 5.6875 2.09375 8.38281 .152344 1.04688 1.05078 3.74219-.296875 3.59375 -1.49609 0-3.59375-.449219-4.64062-2.84375 -1.34766-3.14453-2.69531-6.4375-3.74219-9.88281C198.73 394.41 198.281 393.512 198.73 392.613c.152343-1.64453-.898438-3.14453-1.34766-4.33984 -.296874-.601563-.898437.296874-1.34766.597656C194.691 390.668 193.344 392.316 192.145 394.41 189.898 397.555 187.355 399.5 184.359 400.848 182.113 401.746 178.82 402.195 177.324 398.75c.75-.148438 1.34766-1.79297.898437-2.24219C174.777 391.266 179.57 388.121 181.066 384.379Z"/><path d="M281.668 443.215H273.285V398.453h8.38281v7.48438c3.14453-4.94141 7.03516-8.23438 14.5195-8.23438h.601562v7.1875H296.187c-3.58984 0-6.43359 1.19531-8.98047 3.59375 -3.14453 2.99219-5.39062 7.63281-5.53906 11.5273Z"/><path d="M315.051 444.113c-10.0273 0-14.5195-6.58984-14.5195-12.5781 0-9.57812 8.08203-14.668 28.8945-18.2617V411.328c0-4.94141-2.99609-7.48828-8.83594-7.48828 -7.78516 0-10.4766 4.94141-11.2266 6.4375l-.148437.601562 -7.63672-3.29297 .300781-.601563c3.29297-5.83594 10.6289-9.57812 18.5625-9.57812 8.68359 0 17.3672 4.19141 17.3672 13.6211v22.0078c0 4.48828.449218 6.88672 1.04688 9.28125l.148437.746094H330.32L329.723 437.676c-3.14453 3.29297-8.08203 6.4375-14.6719 6.4375Zm14.2227-24.4023C315.5 422.105 308.766 425.996 308.766 431.535c0 3.59375 3.74219 6.14063 7.03516 6.14063 4.19141 0 9.73047-2.84375 13.4727-6.88672Z"/><path d="M366.852 443.215H356.672l-14.375-44.7617h8.53516l11.2266 35.1797 11.2305-35.1797h7.63281Z"/><path d="M441.402 443.215H432.871v-59.582l8.53125-3.59375Z"/><path d="M469.246 444.113c-12.125 0-20.207-9.28125-20.207-23.207 0-13.9219 8.08203-23.2031 20.207-23.2031 12.1289 0 20.2109 9.28125 20.2109 23.2031 0 13.9258-8.08203 23.207-20.2109 23.207Zm0-40.1211c-7.33203 0-11.8242 6.28516-11.8242 16.9141 0 10.6289 4.49219 16.918 11.8242 16.918 7.33594 0 11.8281-6.28906 11.8281-16.918 0-10.6289-4.49219-16.9141-11.8281-16.9141Z"/><path d="M514.457 444.113c-12.125 0-20.207-9.28125-20.207-23.207 0-13.9219 8.08203-23.2031 20.207-23.2031 8.68359 0 14.8242 4.04297 18.1172 12.125l.296875.601563 -7.93359 2.39453 -.148438-.449219C523.59 408.633 520.746 404.141 514.457 404.141c-7.48438 0-11.8242 6.13672-11.8242 16.918 0 10.7773 4.33984 16.9141 11.8242 16.9141 5.83984 0 8.68359-1.94531 12.1289-7.78125l.296874-.449218 7.1875 2.54297 -.300781.597656C528.531 440.969 523.141 444.113 514.457 444.113Z"/><path d="M540.207 398.453H548.59v44.7617H540.207Z"/><path d="M255.621 444.113c-6.28906 0-10.4805-1.34766-11.2305-7.63672V404.891H237.656V398.602h6.73438V386.328l8.38281-3.59375v15.8672h10.7813L261.906 404.891H252.926V435.43c0 1.19922.597657 2.39453 4.64062 2.39453 2.09375 0 3.74219-.148438 6.4375-.597657l.898438-.152343 -1.64844 6.28906H262.953c-2.39453.449219-4.19141.75-7.33203.75Z"/><path d="M594.25 459.68c-2.24219 0-4.9375-.296876-5.98828-.445313L587.664 459.082l1.94531-6.28516H590.66c.746094.148437 1.64453.148437 2.69141.148437 4.19531 0 9.28516-1.04687 11.3789-9.88281l-16.168-44.7617h7.93359l.152344.300781 11.8242 32.0391 10.4805-32.4883h8.83203L611.469 446.508C607.277 458.035 598.891 459.68 594.25 459.68Z"/><path d="M575.539 444.113c-6.28906 0-10.4805-1.34766-11.2266-7.63672V404.738H557.574V398.453h6.73828V386.176l8.38281-3.59375v15.8711h10.7773L581.824 404.738H572.844v30.543c0 1.19531.597656 2.39453 4.64063 2.39453 2.09766 0 3.74219-.148437 6.4375-.597656L584.82 436.926 583.172 443.215H582.875c-2.39453.597656-4.19141.898437-7.33594.898437Z"/><path d="M406.074 444.113c-5.69141 0-10.7812-1.94531-14.6719-5.53906 -4.49219-4.19141-6.73828-10.332-6.73828-17.668 0-13.9219 8.08594-23.2031 20.2109-23.2031 5.08984 0 9.87891 1.64844 13.1758 4.79297 3.74219 3.58984 5.83594 8.98047 5.83594 15.5664v4.64062H393.199c.296875 8.68359 5.6875 15.1211 12.875 15.1211 5.08984 0 9.42969-2.39453 11.9766-6.88672L418.348 430.34l5.39062 5.23828 -.300781.449219C418.051 443.512 414.754 444.113 406.074 444.113ZM393.348 416.266h22.0078c-.152344-7.63281-4.04297-12.2734-10.332-12.2734 -6.73438 0-10.9258 4.49219-11.6758 12.2734Z"/><path d="M540.207 383.633H548.59v8.38281H540.207Z"/><use xlink:href="#d"/><use xlink:href="#d"/></g></svg>