<svg viewBox="0 -3e-06 768 768" xmlns="http://www.w3.org/2000/svg" xmlns:xlink="http://www.w3.org/1999/xlink"><defs><clipPath id="a"><use xlink:href="#c"/></clipPath><clipPath id="b"><path d="M384.961 28.625c-196.27 0-355.375 159.109-355.375 355.375 0 196.27 159.105 355.375 355.375 355.375 196.266 0 355.371-159.105 355.371-355.375 0-196.266-159.105-355.375-355.371-355.375Z"/></clipPath><path id="d" d="M-76.8-76.8h921.6v921.6H-76.8Z"/><path id="c" d="M29.5859 28.625h710.746v710.75H29.5859Z"/></defs><g fill="#FFF"><use xlink:href="#d"/><use xlink:href="#d"/></g><g clip-path="url(#a)"><use clip-path="url(#b)" xlink:href="#c"/></g><g fill="#FFF"><path d="M168.063 284.836h38.3437v89.875h386.937v102.707H555V413.414H206.906v64.0039H168.063Z"/><path d="M242.062 350.328H234.406V301.918h7.37109v20.2695h16.6562V301.918h7.86719v48.1992H258.859V329.418h-16.375v20.9102Z"/><path d="M492.055 347.352C484.613 343.523 486.598 338.633 492.48 335.797c-2.125-1.55859-3.61328-3.82812-4.25-6.44922C486.953 323.109 490.992 317.086 497.16 315.738c1.34766-.210937 2.69141-.28125 4.03906-.210937 .851562.070312 1.70312.210937 2.55078.425781 4.04297.847656 5.10547.421875 6.59375-3.61719h4.25391c1.69922 4.67969.210938 7.01953-4.46484 7.65625C510.98 321.691 511.621 323.465 512.043 325.309c1.06641 5.31641-2.33594 10.5586-7.72266 11.625 -.144531 0-.285156.070312-.425781.070312 -.355469 0-.710937.070313-1.0625.210938 -1.84375.140625-3.61719.140625-5.46094 0 -1.20312 0-2.33594.285156-3.40234.851562 -.921875.566406-1.20312 1.69922-.707031 2.62109 .070312.144531.140625.214844.285156.355469 .28125.355469.636719.710937 1.0625.851562 1.76953.496094 3.61328.851563 5.45703 1.0625 2.26953.070313 4.53516.285157 6.80469.636719 3.33203.144531 6.16406 2.26953 7.23047 5.45703 .992188 3.61719-.144531 7.44531-2.97656 9.85547 -3.6875 3.1875-8.57812 4.46484-13.3281 3.47266 -2.48047-.496094-4.96094-1.27734-7.23047-2.33984 -1.98438-.851562-3.40234-2.62109-3.82422-4.67969 -.921876-2.69141.351562-5.66797 2.97656-6.80469 .777344-.351563 1.55859-.777344 2.33594-1.20313Zm2.12891-20.6953C493.969 329.844 496.309 332.609 499.5 332.82c3.1875.214844 5.95313-2.125 6.16406-5.31641V326.867C506.09 323.75 503.895 320.914 500.773 320.488 497.656 320.062 494.82 322.262 494.395 325.379c-.140625.425782-.210937.851563-.210937 1.27734Zm6.37891 30.4766c1.91406.070313 3.82812-.425781 5.45703-1.48828 1.55859-.78125 2.26953-2.62109 1.70312-4.25391C507.508 350.117 506.445 349.051 505.168 348.84c-3.1875-.851563-6.58984-.851563-9.78125 0C493.402 349.266 492.129 351.109 492.41 353.094c.214844 1.34766 1.27734 2.41016 2.55078 2.69141 1.70312.992188 3.61719 1.41797 5.60156 1.34766Z"/><path d="M519.984 350.328V301.918h6.80469v19.2773l.425782.214844c.421875-.710937.917968-1.34766 1.48828-1.91406 2.33594-3.04687 6.30859-4.39453 9.99219-3.26172 3.54297.992187 6.02344 4.11328 6.23828 7.72656 .140625.78125.210937 1.55859.210937 2.33984v24.0977H538.34V325.875C538.414 323.82 536.996 321.977 534.938 321.621c-1.91406-.566406-3.96875.144531-5.10156 1.70312C528.063 325.59 527.07 328.355 527.141 331.191v19.4219Z"/><path d="M392.469 308.934H380.703V302.129h30.9023v6.59375H400.125v41.3945H392.258Z"/><path d="M460.23 350.117V326.441c0-3.1875-1.27344-5.10156-3.40234-5.45703 -2.55078-.636719-5.24609.707031-6.23828 3.1875C449.316 326.23 448.676 328.566 448.676 330.977v19.2109H441.875V316.375l2.69141-.210938h2.69531l.421875 6.37891 .425781.214843c.425781-.851562 1.0625-1.70312 1.48828-2.55469 2.69531-4.32422 8.4375-5.66797 12.832-2.97656 2.55078 1.55859 4.10937 4.25391 4.25 7.23047 .214843 8.50391 0 17.082 0 25.8008Z"/><path d="M435.492 333.035C435.281 336.012 435.281 338.773 434.855 341.539 434.219 346.645 429.965 350.543 424.863 350.684c-1.41797.210937-2.83594.210937-4.25391 0C415.648 350.469 411.535 346.645 411.039 341.754c-.425781-5.53125-.425781-11.1289 0-16.6602 .425782-4.89062 4.32422-8.78906 9.14453-9.14062 1.98438-.214844 3.96875-.214844 5.95313 0 4.53906.707031 8.08203 4.25 8.71875 8.71484 .566406 2.83594.78125 5.60156.636719 8.36719Zm-18.0742.496094v6.80469C417.348 343.098 419.617 345.438 422.383 345.438c.070313 0 .140626 0 .140626 0h.425781c2.62109.355469 5.10156-1.55859 5.38672-4.18359 0-.070312 0-.210937 0-.28125V340.336c.210937-4.67969.210937-9.14453 0-13.8945 0-3.04687-2.48047-5.52734-5.53125-5.52734 -3.04688 0-5.52734 2.48047-5.52734 5.52734 .285156 2.33984.355468 4.67969.210937 7.08984Z"/><path d="M297.773 333.531c0 2.33594.210937 4.67578 0 7.01562 -.140626 5.60156-4.67969 10.0664-10.207 10.207 -1.84375.140625-3.61328.070313-5.45703-.210937C276.934 349.621 273.176 345.152 273.176 339.91c-.210937-4.25391-.210937-8.71875 0-13.043 .570313-6.80469 6.52344-11.9063 13.3984-11.3398 6.09375.496094 10.8438 5.31641 11.3398 11.3398 0 2.125 0 4.46484-.210937 6.58984Zm-6.66406 0V326.937C291.254 324.102 289.055 321.621 286.219 321.48H286.008C283.172 321.125 280.621 323.109 280.266 325.945v.425782c-.210937 4.67969-.210937 9.57031 0 14.2461 0 2.69531 2.19922 4.89062 4.89062 4.89062h.636719c2.76562.214844 5.17578-1.84375 5.46094-4.60547 0-.070313 0-.214844 0-.285156V340.191c.070313-2.19531-.144531-4.60547-.144531-6.66016Z"/><path d="M348.523 333.531H331.23c0 2.55078.210937 5.10156.421875 7.86719C332.078 344.02 334.488 345.793 337.113 345.437h.210938c2.62109.285156 5.03125-1.69922 5.24609-4.32422 0-.140625 0-.210937 0-.355469 0-.636718.210938-1.48828.210938-2.33594h5.74219c1.20312 5.66797-2.41016 11.1992-8.08203 12.332 -.777344.140625-1.62891.210938-2.41016.210938 -6.58984.214844-11.0547-2.33594-12.6133-7.65234C324.992 342.035 324.777 340.617 324.777 339.27c0-3.82422-.210938-7.86719 0-11.6953 .070312-6.73047 5.53125-12.1172 12.2617-12.1914 1.91406 0 3.82813.496094 5.46094 1.48828 3.47266 1.5625 5.8125 4.96484 5.95313 8.71875 .210937 2.55469.210937 5.31641.070313 7.94141ZM342.285 329.633C342.5 326.656 342.926 323.891 339.945 321.977c-2.125-1.34766-4.81641-1.20703-6.80469.210938 -2.55078 1.91406-2.125 4.67969-1.91016 7.44531Z"/><path d="M355.117 301.918h6.51953v48.4102H355.117Z"/><path d="M319.676 322.402H314.359c.636719 9.35547-1.27734 18.7812 1.91406 27.7148H309.043C308.406 348.133 307.98 346.004 307.766 343.949 307.555 337.926 307.555 331.758 307.555 325.805V322.613L303.301 322.402V316.945L307.766 316.73V310.352l6.80469-2.125v8.14844l5.46094.214844Z"/><path d="M555 322.613L550.531 322.187V316.73L555.211 316.52V310.352l6.59375-2.125v8.14844l5.45703.214844v5.45703l-5.10547.214844C561.234 331.547 561.805 340.902 563.859 349.973H556.77c-1.0625-1.83984-1.55859-3.89844-1.48828-6.02344C555.07 337.781 555.07 331.617 555.07 325.164 555 324.387 554.926 323.465 555 322.613Z"/><path d="M474.336 316.449H480.93v33.7383H474.336Z"/><path d="M474.551 303.617H480.93v6.73437H474.551Z"/></g></svg>