<svg viewBox="0 -3e-06 768 768" xmlns="http://www.w3.org/2000/svg" xmlns:xlink="http://www.w3.org/1999/xlink"><defs><clipPath id="a"><use xlink:href="#c"/></clipPath><clipPath id="b"><path d="M384.961 28.625c-196.27 0-355.375 159.105-355.375 355.375 0 196.27 159.105 355.375 355.375 355.375 196.266 0 355.371-159.105 355.371-355.375 0-196.27-159.105-355.375-355.371-355.375Z"/></clipPath><path id="d" d="M-76.8-76.8h921.6v921.6H-76.8Z"/><path id="c" d="M29.5859 28.625h710.746v710.75H29.5859Z"/></defs><g fill="#FFF"><use xlink:href="#d"/><use xlink:href="#d"/></g><g clip-path="url(#a)"><use clip-path="url(#b)" xlink:href="#c"/></g><g fill="#FFF"><path d="M625.953 371.746c0 21.4375-15.0508 35.875-41.6523 35.875 -12.9492-.175782-25.7266-3.41016-37.1016-9.625v-20.125c7.26172 4.46094 21.0898 12.5117 37.4531 12.5117 12.7734 0 20.8242-5.07422 20.8242-15.6641 0-7.96094-6.03516-13.3867-23.9766-17.5859 -23.9727-5.77734-33.6016-18.5508-33.6016-33.6016 0-17.3281 11.2031-33.2539 39.0273-33.2539 10.6758.265625 21.1758 2.97656 30.7148 7.96484v18.5508C608.453 310.844 597.863 307.43 586.926 306.906c-13.3867 0-18.5508 5.77344-18.5508 13.7383 0 7.96094 7.26562 12.5117 20.125 15.6602C614.402 342.344 625.953 354.77 625.953 371.746Z"/><path d="M529.961 392.223c3.0625-.089844 6.125-.703125 8.92578-1.92578v9.625C534.16 404.035 528.211 406.309 522 406.309c-13.4766 0-19.5156-7-22.0508-17.5859 -9.97656 12.3359-25.1172 19.25-40.9531 18.8984 -30.3633 0-53.7266-26.25-53.7266-58.6289 0-32.375 23.3633-58.8008 53.7266-58.8008 16.1875-.699218 31.8516 6.125 42.2656 18.5508l7.69922-17.3242h13.7383v89.9531C522.609 389.332 525.148 392.223 529.961 392.223Zm-30.625-63.0039c-7.26172-13.0391-21.0898-21-35.9648-20.9141 -20.8281 0-34.8281 15.6641-34.8281 40.9531 0 25.2891 14.0898 40.6875 34.8281 40.6875C478.336 389.598 492.07 381.371 499.336 368.246Z"/><path d="M268.938 309.094C279.262 320.031 284.773 334.555 284.164 349.52 284.687 364.48 279.176 379.094 268.938 389.945c-10.5 10.5-26.4258 16.8008-48.1289 16.8008h-36.75V292.293h36.8398c21.6992 0 37.5391 6.29688 48.0391 16.8008ZM262.461 349.605C262.984 340.07 260.012 330.707 254.062 323.18 248.023 316.441 237.961 311.891 221.07 311.891h-15.75V387.41h15.75c16.8906 0 26.9531-4.72656 32.9922-11.4648 5.94922-7.4375 8.92188-16.8008 8.39844-26.3398Z"/><path d="M391.266 377.172L397.742 390.82c-12.9492 10.6758-29.2266 16.625-46.1133 16.8008 -35.1758 0-57.5781-24.9375-57.5781-58.8906 0-35.5273 24.5-58.5391 54.4258-58.5391 28.4414 0 48.5664 20.4766 48.5664 43.8398C396.957 338.055 396.43 341.992 395.469 345.844H317.062C315.141 363.434 322.488 389.246 358.367 389.246c11.8984-.613282 23.4492-4.8125 32.8984-12.0742ZM318.988 330.441h55.0391c.175781-.785156.351562-1.66016.351562-2.53516 0-10.5898-8.57422-20.8281-25.5508-20.8281 -14.2617-.261719-26.7773 9.45313-29.8398 23.3633Z"/><path d="M162.355 292.293H137.066l-2.97266 8.75s7.26172 1.05078 7.26172 10.8477v75.3437c0 9.80078-7.08594 10.8477-7.08594 10.8477l3.14844 8.83984h25.2891Z"/><path d="M637.328 297.629v11.1992H634.441V297.629H629.98V295.355h11.8984v2.27344Zm19.2539 11.1992V300.781c0-.351562 0-1.40234 0-1.40234s-.265625 1.05078-.4375 1.40234L652.555 308.828h-1.75L647.656 300.781c0-.351562-.527344-1.40234-.527344-1.40234s0 1.05078 0 1.40234v8.04687H644.594V295.441h2.97266L651.766 304.98l4.20313-9.53906h2.97266v13.3867Z"/><path d="M188.957 446.91h2.625l12.8633 29.9258H200.332L196.746 468.437h-13.125L180.031 476.836H176.184Zm6.5625 18.3789L190.184 452.949l-5.25 12.3398Z"/><path d="M332.113 461.961C331.852 453.563 338.504 446.563 346.902 446.297c.351562 0 .699218 0 1.13672 0 3.67578-.085937 7.26563.964844 10.3281 2.97656v4.11328c-2.80078-2.625-6.5625-4.02344-10.4141-3.9375 -6.82422 0-12.25 5.51172-12.25 12.3359 0 6.82812 5.51172 12.2539 12.25 12.2539 3.85156.085938 7.52344-1.22656 10.4141-3.85156v4.19922c-3.0625 2.10156-6.73828 3.15234-10.4141 3.15234 -8.40234.347657-15.4883-6.21484-15.8398-14.6133 0-.351562 0-.703125 0-.964843Z"/><path d="M368.254 461.961c-.085937-8.75 7-15.9258 15.8398-16.0117 8.75-.089844 15.9258 7 16.0117 15.8359 .085937 8.75391-7 15.9258-15.8398 16.0156 0 0-.085937 0-.085937 0 -8.48828.261719-15.6641-6.38672-15.9258-14.875 0-.351562 0-.703125 0-.964843Zm27.6523 0C395.555 455.488 389.953 450.5 383.48 450.848c-6.47656.351563-11.4648 5.95313-11.1133 12.4258C372.715 469.488 377.965 474.387 384.18 474.387c6.38672.089843 11.7266-5.07422 11.7266-11.5508 .085938-.261719 0-.613282 0-.875Z"/><path d="M411.656 446.91h3.9375l11.4648 24.8516L438.605 446.91h3.58984v29.9258H438.519V456.449c0-.789063 0-2.53906 0-2.53906s-.699219 1.83984-1.05078 2.53906L428.105 476.926H425.395l-9.1875-20.3906C415.855 455.836 415.156 454 415.156 454s0 1.75 0 2.53516v20.4766H411.57Z"/><path d="M455.406 446.91h9.89062c4.98828 0 9.01172 4.02734 9.01172 9.01562 0 4.98437-4.02344 9.01172-9.01172 9.01172h-5.6875v11.8984H455.406Zm9.89062 14.7891c3.14844.261719 5.86328-2.10156 6.125-5.25 .261719-3.14844-2.10156-5.86328-5.25-6.125 -.261719 0-.613281 0-.875 0h-5.6875v11.375Z"/><path d="M492.949 446.91h2.79687l12.8633 29.9258H504.496L500.91 468.437H487.523L483.934 476.836H480.086Zm6.38672 18.3789l-5.25-12.3398 -5.25 12.3398Z"/><path d="M518.586 446.91h2.27344l17.8516 22.3164V446.91h3.58984v29.9258H540.023L522.172 454.523v22.3125H518.586Z"/><path d="M563.914 464.938L552.188 446.824h4.375l9.53906 14.6992L575.465 446.91h4.11328L567.852 465.023v11.9883h-3.9375Z"/><path d="M232.449 467.039c.347656 3.58594 3.0625 4.89844 6.38672 4.89844 2.36328 0 6.47266-.4375 6.30078-3.58594 -.175781-3.15234-4.64062-3.58984-9.1875-4.72656C231.398 462.574 226.934 461 226.934 455.313c0-5.6875 6.65234-8.14062 11.7266-8.14062 5.77344 0 11.0273 2.45312 11.8125 8.66406H243.996C243.473 452.949 241.023 452.25 238.309 452.25c-1.83594 0-5.16016.4375-5.16016 2.88672 0 3.0625 4.55078 3.58594 9.1875 4.55078 4.55078.875 9.10156 2.71094 9.10156 8.22656 0 6.64844-6.73828 9.1875-12.6016 9.1875 -7.26172 0-12.3398-3.15234-12.5156-9.80078Z"/><path d="M278.738 469.75c0 1.57422.347657 2.10156 1.48828 2.10156 .523438.085938 1.04688.085938 1.48438 0v4.28516c-1.3125.4375-2.625.613281-3.9375.699219 -2.53516 0-4.28516-.875-4.8125-3.58594C270.25 475.613 266.75 476.926 263.16 476.836c-5.07422 0-9.625-2.71094-9.625-8.22266 0-7 5.60156-8.14062 10.8516-8.75 4.46094-.875 8.48828-.351562 8.48828-3.9375 0-3.58984-3.32422-3.85156-5.86328-3.85156 -3.58984 0-5.94922 1.39844-6.21484 4.46094H254.41c.4375-7.26172 6.5625-9.36328 12.7773-9.36328 5.51172 0 11.2852 2.27734 11.2852 8.22656ZM272.523 461.961C270.074 463.012 267.535 463.535 264.91 463.625c-2.71094.4375-5.07422 1.39844-5.07422 4.72656 0 3.32422 3.58984 3.58594 5.6875 3.58594 2.71484 0 7-1.39844 7-5.33594Z"/><path d="M288.887 467.039c.351562 3.58594 3.0625 4.89844 6.38672 4.89844 2.36328 0 6.47656-.4375 6.30078-3.58594 -.171875-3.15234-4.72266-3.58984-9.1875-4.72656C287.836 462.574 283.375 461 283.375 455.313c0-5.6875 6.64844-8.14062 11.7266-8.14062 5.77344 0 10.8477 2.45312 11.8125 8.66406H300.527C300 452.949 297.551 452.25 294.75 452.25c-1.75 0-5.07422.4375-5.07422 2.88672 0 3.0625 4.55078 3.58594 9.1875 4.55078 4.55078.875 8.92578 2.44922 8.92578 8.05078 0 6.64844-6.73828 9.1875-12.6016 9.1875 -7.26172 0-12.4258-3.15234-12.5117-9.80078h6.21094Z"/></g></svg>