<svg viewBox="0 -3e-06 768 768" xmlns="http://www.w3.org/2000/svg" xmlns:xlink="http://www.w3.org/1999/xlink"><defs><clipPath id="a"><path d="M64 68.2812h640V682H64Z"/></clipPath><clipPath id="b"><path d="M230.273 68.2812v613.613c1.80078.128907 3.59766.128907 5.39844.128907h295.629V68.2812Zm347.281 0H531.301v613.613h1.02734c74.7773 0 140.43-61.0273 145.824-135.543l25.3086-342.656c5.52734-74.3867-51.1328-135.414-125.906-135.414Zm-387.109 0c-74.7734 0-131.434 61.0273-125.906 135.543L89.8477 546.48c5.39453 72.7188 68.0937 132.59 140.555 135.414V68.2813Z"/></clipPath><path id="c" d="M-76.8-76.8h921.6v921.6H-76.8Z"/></defs><g fill="#FFF"><use xlink:href="#c"/><use xlink:href="#c"/></g><g clip-path="url(#a)"><path clip-path="url(#b)" d="M64.1523 68.2812h639.289v613.613H64.1523Z"/></g><g fill="#FFF"><path d="M539.375 387.75c10.4922 10.0859 18.1602 24.2148 15.3359 39.9531C549.867 451.512 530.09 468.867 506.684 473.711c-2.01953.402343-13.3164 2.42187-22.1953 2.42187H419.914l31.0742-123.496 52.4648-18.1602 -25.8281 103.719c19.3711-.402343 32.6914-14.9336 31.4805-28.6523C507.895 395.82 501.437 388.957 492.961 384.922 494.98 384.117 523.633 365.953 517.582 346.988 511.121 328.02 482.469 330.441 465.922 334.879 453.41 337.703 427.984 345.371 419.512 349.004L387.223 476.133H337.586l26.6328-106.141c-.804688 0-39.5508 17.7578-39.5508 17.7578l13.3203-53.6758c15.3359-6.86328 80.3125-33.0937 122.285-39.957 56.0977-9.28125 91.6094 6.86328 101.699 34.707 9.6875 27.8477-4.4375 49.2383-22.5977 58.9258"/><path d="M268.168 369.586L257.273 412.367c-5.65234 22.1953-20.582 44.3945-49.2383 45.1992L194.719 510.84c4.84375 0 27.8477-2.42188 48.0234-10.4922 31.8828-13.3203 56.5039-37.1289 65.3828-74.6641L330.32 337.301c-.402343.402344-44.3945 21.3906-62.1523 32.2852"/><path d="M287.945 291.695L268.574 369.586c17.3516-10.4922 61.3437-31.4766 62.1484-31.8828l11.7031-45.6016H287.945"/></g></svg>