<svg viewBox="0 -3e-06 768 768" xmlns="http://www.w3.org/2000/svg" xmlns:xlink="http://www.w3.org/1999/xlink"><defs><clipPath id="a"><use xlink:href="#c"/></clipPath><clipPath id="b"><path d="M384 28.625C187.73 28.625 28.625 187.73 28.625 384c0 196.27 159.105 355.375 355.375 355.375 196.27 0 355.375-159.105 355.375-355.375C739.375 187.73 580.27 28.625 384 28.625Z"/></clipPath><path id="c" d="M28.625 28.625h710.75v710.75H28.625Z"/><path id="d" d="M-76.8-76.8h921.6v921.6H-76.8Z"/></defs><g fill="#FFF"><use xlink:href="#d"/><use xlink:href="#d"/></g><g clip-path="url(#a)"><use clip-path="url(#b)" xlink:href="#c"/></g><path fill="#FFF" d="M120.988 330.133h107.727v107.727H120.988Z"/><g><path d="M154.199 357.086h13.0937v53.8633H154.199Z"/><path d="M195.508 410.906H181.062L166.168 383.996l14.8945-26.9102h14.4453L180.523 383.996Z"/></g><path fill="#FFF" d="M234.703 330.133H342.43v107.727H234.703Z"/><path d="M278.801 403.164L276.461 410.996H262.512l17.7266-54h16.6523l17.5938 54H300.219L297.879 403.254ZM288.34 372.477L282.039 392.59h12.6016Z"/><path fill="#FFF" d="M348.367 330.133h107.727v107.727H348.367Z"/><path d="M408.98 410.996H395.797V387.191L378.113 356.996h15.5703L402.41 373.555l8.59766-16.5586h15.3438L408.98 387.191Z"/><path fill="#FFF" d="M462.078 330.133h107.727v107.727H462.078Z"/><path d="M506.176 403.164L503.84 410.996H489.887l17.7305-54h16.6484l17.5977 54H527.598L525.258 403.254Zm9.53906-30.6875L509.418 392.59h12.5977Z"/><path fill="#FFF" d="M575.746 330.133h107.727v107.727H575.746Z"/><g><path d="M608.953 357.086h13.0937v53.8633H608.953Z"/><path d="M650.262 410.906H635.82L620.922 383.996 635.82 357.086h14.4414L635.277 383.996Z"/></g></svg>