<svg viewBox="0 -3e-06 768 768" xmlns="http://www.w3.org/2000/svg"><defs><clipPath id="a"><path d="M76 76.8008h641V691H76Z"/></clipPath><clipPath id="b"><path d="M242.922 76.8008v613.613c1.80078.128907 3.59766.128907 5.39844.128907h295.629V76.8008Zm347.281 0H543.949v613.613h1.02734c74.7734 0 140.43-61.0273 145.824-135.543l25.3086-342.656c5.52734-74.3867-51.1328-135.414-125.906-135.414Zm-387.109 0c-74.7734 0-131.434 61.0273-125.91 135.543L102.496 555C107.891 627.719 170.59 687.59 243.051 690.414V76.8008Z"/></clipPath></defs><g clip-path="url(#a)"><path clip-path="url(#b)" d="M76.8008 76.8008H716.09v613.613H76.8008Z"/></g><g fill="#FFF"><path d="M455.492 430.246l40.9961-92.7969c.625-1.42969-.128906-2.62109-1.71484-2.62109H466.07c-1.57031 0-3.35547 1.19141-3.99219 2.64062L421.609 430.234c-.605469 1.42969.15625 2.62109 1.71875 2.62109h28.1641c1.56641 0 3.38672-1.18359 4-2.61328M602.48 405.258l63.5977-70.3945H591.695l-16.832 27.125h29.1758L539.387 432.875h78.7344l29.3281-27.6172ZM330.188 334.867H280.949c-2.72266 0-5.87891 2.05469-6.98047 4.57812L235.215 428.297c-1.10938 2.51562.238281 4.57813 2.99219 4.57813h24.4102c2.76953 0 5.89844-2.06641 7-4.56641l11.043-25.1758h11.4727c3.5625-.226562 5.10156 1.07422 3.12891 5.23438L286.75 428.277c-1.07422 2.53516.285156 4.59766 3.02734 4.59766h24.4297c2.73438 0 5.87109-2.06641 6.97266-4.59766l11.0937-25.6406c3.48437-8.32422-1.55859-14.7695-8.86719-15.125 6.49219-2.31641 12.4414-8.78125 15.125-14.5977l5.73047-13.5391c6.92969-15.6992 2.00391-24.7188-14.0742-24.5078M315.816 362.883L309.75 376.258C308.348 379.488 306.305 379.715 304.297 379.637H290.574L299.75 358.828h13.1562C316.105 359 316.941 360.168 315.816 362.883m110.25-28.0508H373.871c-1.95703 0-4.21094 1.48047-4.98828 3.26562L328.98 429.574C328.207 431.383 329.16 432.832 331.125 432.832h55.8633c17.7188-.253906 27.8672-4.19141 35.9727-22.9414l5.72656-12.4844c4.53125-10.7148.089844-15.332-8.35156-16.7031 7.04297-2.16406 12.3164-8.77734 14.6016-14.5977l4.67578-9.90234c5.74219-13.2578.945313-21.5625-13.5469-21.3711m-25.5703 61.375L396.941 403.316C395.152 408.273 392.062 409.613 387.715 409.684H371.375l7.81641-18.4414h16.3398c4.61719.335937 6.42188 1.46875 4.96484 4.96484m9.375-32.8438L407.398 368.996 407.039 369.73C405.887 372.531 403.723 373.582 401.309 373.504H387.129l6.49219-14.9063h14.4219c2.60938.167969 3.02734 1.85547 1.82812 4.76563m95.6563-28.4961L493.379 361.988h17.3125c1.19141 0 1.73438.851563 1.25781 1.9375L481.711 430.93c-.507813 1.07422.078124 1.94531 1.24219 1.94531h30.8438c1.18359 0 2.51562-.871094 3.01172-1.96875l29.0586-66.9648c.476562-1.07422 1.79687-1.95703 2.97656-1.95703h17.7695l16.7031-27.1211ZM249.766 368.227L253.59 359.875c7.71875-17.6289 2.61328-25.2031-12.5234-25.0078H204.602C189.633 334.672 177.09 343.133 170.18 358.844L158.879 390.645H148.281l20.3477 27.4766 33.6367-27.4805H193.715l9.88281-22.9297C205.188 363.949 207.957 362.129 210.906 361.98h5.74219c1.35937.058593 2.29297.496093 2.82031 1.08594L237.324 348.07Z"/><path d="M167.855 426.191L152.891 407.242 152.105 408.898C145.141 424.742 146.305 432.625 161.32 432.875h35.9609c14.8867-.253906 27.9258-8.13281 34.9375-23.9727l10.6484-24.5117h9.60156L236.121 356.902 202.762 384.391H211.93L205.168 400.031c-1.62891 3.31641-4.10156 5.125-6.76562 5.22266H193.637Z"/><path d="M677.949 334.301c1.32031 0 2.44141.464844 3.375 1.39844 .933593.933593 1.40234 2.04688 1.40234 3.35547 0 1.32031-.46875 2.45312-1.40234 3.38672 -.933594.933594-2.05469 1.41016-3.375 1.41016 -1.32031 0-2.44531-.472656-3.37891-1.41016 -.933593-.933594-1.39844-2.06641-1.39844-3.38672 0-1.32031.464844-2.44141 1.39844-3.36719 .925782-.921875 2.05859-1.39062 3.37891-1.39062m0 8.67188c1.08203 0 2.00391-.386719 2.78125-1.15234 .761719-.765625 1.15234-1.6875 1.15234-2.76172 0-1.08203-.390624-1.99609-1.15234-2.76172C679.953 335.52 679.031 335.141 677.949 335.141c-1.07422 0-1.99609.378906-2.76172 1.15234 -.765625.765625-1.15234 1.67969-1.15234 2.76172 0 1.08594.386719 2.00781 1.14453 2.76953 .761718.765625 1.6875 1.14453 2.76953 1.14453m2.43359-1.35938H679.238L677.898 339.574H677.281v2.03516h-1V336.453h1.61719c.546874 0 .992187.140625 1.33984.410156 .347657.28125.527344.644531.527344 1.10938 0 .636719-.335937 1.09375-.992187 1.35938ZM677.281 338.75H677.82c.644532 0 .972657-.253906.972657-.746094 0-.476562-.308594-.714844-.925781-.714844H677.281Z"/></g></svg>