<svg viewBox="0 -3e-06 768 768" xmlns="http://www.w3.org/2000/svg" xmlns:xlink="http://www.w3.org/1999/xlink"><defs><clipPath id="a"><use xlink:href="#c"/></clipPath><clipPath id="b"><path d="M384 28.625C187.73 28.625 28.625 187.73 28.625 384c0 196.27 159.105 355.375 355.375 355.375 196.27 0 355.375-159.105 355.375-355.375C739.375 187.73 580.27 28.625 384 28.625Z"/></clipPath><path id="c" d="M28.625 28.625h710.75v710.75H28.625Z"/></defs><g clip-path="url(#a)"><use clip-path="url(#b)" xlink:href="#c"/></g><g fill="#FFF"><path d="M440.719 437.133l46.707-105.723c.710938-1.62891-.148437-2.98828-1.95703-2.98828H452.77c-1.78906 0-3.82422 1.35938-4.55078 3.01172L402.113 437.121C401.422 438.754 402.293 440.109 404.07 440.109H436.16c1.78516 0 3.85547-1.34766 4.55859-2.97656m167.465-28.4687l72.457-80.1992H595.895L576.715 359.367h33.2461L536.301 440.133h89.7031l33.4141-31.4687ZM297.957 328.469H241.859c-3.10156 0-6.69922 2.33984-7.95703 5.21484L189.754 434.918C188.484 437.781 190.023 440.133 193.16 440.133h27.8125c3.15625 0 6.71875-2.35547 7.97656-5.20312l12.582-28.6836h13.0664c4.0625-.257813 5.81641 1.22266 3.56641 5.96094L248.465 434.895c-1.22266 2.88672.328125 5.23828 3.45312 5.23828h27.832c3.11328 0 6.6875-2.35547 7.94531-5.23828L300.332 405.68c3.97266-9.48047-1.77734-16.8242-10.1055-17.2305 7.40234-2.63672 14.1797-10.0039 17.2344-16.6328l6.52734-15.4219C321.887 338.504 316.273 328.23 297.957 328.469m-16.375 31.918L274.672 375.629c-1.59766 3.67578-3.92578 3.9375-6.21484 3.84766H252.82l10.457-23.707H278.27c3.64062.195313 4.59375 1.52734 3.3125 4.61719m125.609-31.957H347.723c-2.23047 0-4.79688 1.6875-5.67969 3.72266L296.582 436.371C295.699 438.43 296.785 440.082 299.023 440.082h63.6445c20.1875-.289062 31.75-4.77344 40.9844-26.1367L410.18 399.723c5.16016-12.207.101562-17.4688-9.51563-19.0312 8.02344-2.46484 14.0312-10.0039 16.6328-16.6328l5.32812-11.2812C429.168 337.672 423.703 328.215 407.191 328.43M378.059 398.355L374.008 406.457c-2.03906 5.64453-5.55469 7.17188-10.5117 7.25H344.883l8.90625-21.0117h18.6133c5.25781.386719 7.32031 1.67578 5.65625 5.66016m10.6797-37.418L385.922 367.352l-.40625.835938c-1.3125 3.19141-3.78125 4.39062-6.53125 4.30078H362.828l7.39844-16.9844h16.4297c2.97656.191406 3.45312 2.11719 2.08203 5.43359m108.98-32.4687L483.883 359.367h19.7227c1.35547 0 1.98047.972656 1.4375 2.20703L470.59 437.914C470.012 439.137 470.68 440.133 472.004 440.133h35.1406c1.34766 0 2.86328-.996093 3.42969-2.24219L543.68 361.594C544.223 360.371 545.73 359.367 547.074 359.367h20.2422l19.0312-30.9023ZM206.332 366.477l4.35547-9.51562c8.79297-20.082 2.97656-28.7148-14.2656-28.4883H154.871C137.82 328.246 123.531 337.887 115.656 355.785l-12.875 36.2305H90.707l23.1836 31.3086 38.3242-31.3086H142.473l11.2578-26.125c1.80859-4.28906 4.96484-6.35938 8.32812-6.53125h6.53906c1.55078.066406 2.61328.566406 3.21484 1.23438l20.3438-17.082Z"/><path d="M113.008 432.516L95.957 410.926 95.0625 412.816c-7.92969 18.0469-6.60547 27.0312 10.5 27.3125h40.9727C163.496 439.84 178.352 430.863 186.34 412.816l12.1289-27.9258H209.41l-18.625-31.3164 -38.0078 31.3164h10.4453L155.52 402.711C153.66 406.492 150.844 408.551 147.812 408.664H142.383Z"/><path d="M694.164 327.824c1.50391 0 2.78516.53125 3.84766 1.59375 1.0625 1.0625 1.59375 2.33203 1.59375 3.82422 0 1.50391-.53125 2.79297-1.59375 3.85937 -1.0625 1.0625-2.34375 1.60547-3.84766 1.60547 -1.50391 0-2.78125-.542969-3.84766-1.60547 -1.0625-1.06641-1.59375-2.35547-1.59375-3.85937 0-1.50391.53125-2.78516 1.59375-3.83594C691.371 328.355 692.66 327.82 694.164 327.82m0 9.87891c1.23438 0 2.28516-.441407 3.16797-1.3125 .871094-.871094 1.3125-1.92578 1.3125-3.14453 0-1.23438-.441406-2.27734-1.3125-3.14844 -.882812-.882812-1.93359-1.3125-3.16797-1.3125 -1.22266 0-2.27344.429688-3.14453 1.3125 -.871093.871094-1.3125 1.91406-1.3125 3.14844 0 1.23437.441407 2.28516 1.30078 3.15625C691.879 337.27 692.93 337.699 694.164 337.699m2.77344-1.55078H695.637L694.109 333.832H693.406v2.31641H692.262V330.277h1.84766c.621094 0 1.12891.160156 1.52734.464844 .394531.320312.597656.734374.597656 1.26562 0 .726563-.382813 1.24609-1.12891 1.55078ZM693.406 332.891h.609375c.738281 0 1.10938-.289063 1.10938-.847656 0-.539063-.351562-.8125-1.05078-.8125H693.406Z"/></g></svg>