<svg viewBox="0 -3e-06 768 768" xmlns="http://www.w3.org/2000/svg" xmlns:xlink="http://www.w3.org/1999/xlink"><defs><clipPath id="a"><path d="M76 76.8008h641V691H76Z"/></clipPath><clipPath id="b"><path d="M242.922 76.8008v613.613c1.80078.128907 3.59766.128907 5.39844.128907h295.629V76.8008Zm347.281 0H543.949v613.613h1.02734c74.7734 0 140.43-61.0273 145.824-135.543l25.3086-342.656c5.52734-74.3867-51.1328-135.414-125.906-135.414Zm-387.109 0c-74.7734 0-131.434 61.0273-125.91 135.543L102.496 555C107.891 627.719 170.59 687.59 243.051 690.414V76.8008Z"/></clipPath><path id="c" d="M-76.8-76.8h921.6v921.6H-76.8Z"/></defs><g fill="#FFF"><use xlink:href="#c"/><use xlink:href="#c"/></g><g clip-path="url(#a)"><path clip-path="url(#b)" d="M76.8008 76.8008H716.09v613.613H76.8008Z"/></g><g fill="#FFF"><path d="M333.516 354.453C327.852 359.582 314.629 369.02 292.238 369.02c-28.8633 0-51.5273-15.6445-51.5273-47.4805 0-33.1836 23.2031-49.1016 51.8008-49.1016 32.9063 0 39.3828 24.0117 40.4648 36.9609 -16.4609 7.01562-36.4219 12.4141-55.3047 16.457 1.88672 12.6797 8.08984 28.8672 32.6406 29.1406 11.6016 0 18.3438-3.77734 21.582-5.12891ZM276.051 315.605C286.031 314.523 293.316 313.449 303.031 310.75 302.762 305.082 300.871 281.344 287.652 281.344c-10.5234 0-12.1406 13.7578-12.1406 23.4688 0 3.77734.539062 7.01562.539062 10.793Z"/><path d="M412.832 357.691C410.676 359.309 396.375 369.02 377.219 369.02c-53.1445 0-53.1445-38.5742-53.1445-46.9414 0-13.2148 11.8711-49.9102 55.8437-49.9102 26.9805 0 28.3281 7.82422 30.7578 8.09766C409.594 288.355 406.898 293.48 399.879 299.688H396.918C394.215 295.91 385.047 283.23 374.793 283.23 364.273 283.5 358.879 296.723 358.879 313.715c0 28.3281 16.457 41.0117 35.3359 41.0117 7.82812 0 12.4102-.808593 16.4609-1.62109Z"/><path d="M565.258 354.453C559.598 359.582 546.371 369.02 523.984 369.02c-28.8711 0-51.5273-15.6445-51.5273-47.4805 0-33.1836 23.1953-49.1016 51.793-49.1016 32.9141 0 39.3867 24.0117 40.4687 36.9609 -16.457 7.01562-36.418 12.4141-55.3047 16.457 1.88672 12.6797 7.82813 28.8672 32.6406 29.1406 11.6016 0 18.3477-3.77734 21.582-5.12891ZM508.07 315.605C518.047 314.523 525.332 313.449 535.047 310.75 534.77 305.082 532.883 281.344 519.668 281.344c-10.5234 0-12.1445 13.7578-12.1445 23.4688 .003906 3.77734.546874 7.01562.546874 10.793Z"/><path d="M228.57 304.004C228.031 298.336 222.363 281.613 209.145 281.613c-.808593 0-10.25 0-10.25 9.98047 0 4.85547 0 10.25 27.5156 23.1992C238.82 320.461 243.945 331.527 243.945 339.613c0 21.8516-19.4258 29.6758-41.8164 29.6758 -11.8672 0-20.7695-2.15234-30.7539-6.74219 -1.34766-7.55469-3.23828-19.4258-3.23828-30.2148h11.332c2.15625 18.0742 13.4883 28.0547 22.9297 28.0547 9.98047 0 11.5977-5.66406 11.5977-11.0586 0-4.31641-3.50391-10.5234-14.5664-16.457 -13.2148-6.74219-30.4844-12.9492-30.4844-32.375 0-16.9961 12.9492-27.7852 39.9297-27.7852 13.4883 0 21.8516 3.23437 26.9766 5.66406C237.738 286.734 237.738 295.91 237.738 304.273H228.566"/><path d="M563.102 275.406V265.965c0-21.8516 32.3711-18.3477 32.3711-18.3477v28.0586c8.91016.8125 14.0273 1.08203 22.3945 1.61719v5.125C611.391 283.5 601.953 284.309 595.473 284.578v32.6445c0 21.043.277344 38.3086 18.3477 38.3086 3.77344 0 7.28516-1.08203 9.4375-1.88672l1.35547 5.125C618.945 362.277 609.5 369.02 587.648 369.02c-2.96484 0-24.5469 0-24.5469-28.3242Z"/><path d="M418.766 369.02l.269531-59.8906c0-13.4922 0-20.7734-5.66797-20.7734H407.703l-1.61719-5.9375C424.43 277.027 433.066 275.137 447.633 272.437c1.34766 5.39844 1.62109 7.28516 2.16016 14.0312 5.125-5.12891 12.4102-14.0312 23.1992-14.0312 11.0625 0 15.1094 8.09375 17.2695 12.4141 -1.62109 7.28125-6.20703 13.2148-14.0273 17.8008 -5.67187 0-10.7969-5.66406-20.2383-8.09375C454.379 294.293 452.762 293.754 451.144 293.48v48.5625L450.871 350.406C451.144 372.527 418.766 369.02 418.766 369.02Z"/><path d="M366.973 478.281C362.652 481.52 353.75 485.301 340.262 485.301c-19.1562 0-39.1172-11.332-39.1172-35.6172 0-32.3711 22.9297-46.1289 43.1641-46.1289 8.08984 0 15.6484 1.88672 19.4219 4.85156 0 3.23828-1.88672 8.36719-4.31641 12.4102H358.336C355.906 417.313 349.703 411.645 338.645 411.645c-12.1445 0-22.1289 9.71484-22.1289 28.5977 0 26.7109 13.7617 39.1211 32.918 39.1211 6.74219 0 13.7578-3.77734 16.1836-5.125Z"/><path d="M435.492 480.984C433.336 482.598 429.824 485.301 422.816 485.301c-8.63672 0-11.6016-3.50391-13.2227-7.01953 -5.39844 3.51172-11.6016 7.01953-24.8164 7.01953C372.367 485.301 364 478.281 364 468.84c0-21.8516 29.1406-28.3242 43.9766-32.9102V432.156c0-11.0625-2.96484-20.7773-15.6484-20.7773 -13.4883 0-17.8047 10.5195-20.7734 16.9961H370.207C368.32 426.488 366.973 424.598 365.891 421.633c5.125-6.74609 15.918-18.0781 33.7227-18.0781 19.1523 0 23.2031 9.98437 23.2031 27.25v24.0117c0 11.8672 0 24.5508 9.17578 24.5508 1.61328 0 2.42187-.273438 2.96484-.539063ZM405.277 444.02c-9.71094 0-26.168 4.31641-26.168 19.9688 0 9.70703 5.93359 15.3789 15.6484 15.3789 7.28516 0 11.6016-5.12891 12.6758-7.02344V443.758H405.277Z"/><path d="M573.625 475.855C570.922 478.281 559.32 485.297 544.219 485.297c-21.3164 0-38.5781-14.0273-38.5781-38.0352 0-28.332 19.6914-43.707 39.1133-43.707 22.6641 0 27.5195 16.457 29.6758 25.3594 -19.1484 9.44141-38.8516 14.5625-53.1445 18.0742 .804688 10.5195 8.625 30.2109 31.5664 30.2109 10.25 0 16.7227-4.3125 19.1523-5.39062ZM521.016 439.703c12.1406-2.16016 26.168-5.66406 38.0391-9.71484 -2.42969-10.5195-6.48047-20.4961-19.4258-20.4961 -14.2969 0-18.6133 17.8047-18.6133 30.2109Z"/><path d="M613.551 428.914c0-7.55469-5.39844-19.6992-16.4609-19.6992 -6.47656 0-10.793 4.59375-10.793 11.875 0 19.1523 37.5039 13.7578 37.5039 40.4687 0 15.918-13.2188 23.4688-29.1367 23.4688 -11.0625 0-16.7266-2.96875-21.3203-4.85547 -2.42578-7.55078-3.23047-15.918-3.23047-22.6641h4.58594c3.50391 11.0664 9.16797 21.8555 22.6563 21.8555 7.5625 0 11.875-6.47656 11.875-12.4102 0-22.9336-37.5-14.8398-37.5-42.3594 0-13.7578 12.4102-21.3086 26.9766-21.3086 8.90234 0 14.0273 2.69141 17.8047 4.85156 1.61719 5.9375 2.16016 11.3281 2.16016 20.2344h-5.125v.542968Z"/><path d="M259.324 475.586C255.551 479.09 243.406 492.578 220.746 492.852 192.152 493.117 168.68 473.695 168.68 441.324c0-38.5781 26.7109-58.8125 52.8789-58.8125 30.4844 0 37.2266 22.1211 40.1953 34.2617 -25.8984 12.6758-52.3359 19.6914-72.0313 24.2734 .808594 14.0312 11.8711 41.0078 42.625 41.0078 13.7617 0 20.5039-9.16797 23.7422-10.7891M189.453 431.344c16.457-2.97266 35.6094-7.82422 51.5234-12.957 -3.23437-14.0234-8.90234-27.7852-26.1641-27.7852 -19.4219 0-25.3594 24.0117-25.3594 40.7422Z"/><path d="M292.777 428.914c0-7.55469-5.39453-19.6992-16.457-19.6992 -6.47266 0-10.7891 4.59375-10.7891 11.875 0 19.1523 37.5 13.7578 37.5 40.4687 0 15.918-13.2188 23.4688-29.1406 23.4688 -11.0586 0-16.7266-2.96875-21.3125-4.85547C250.148 472.621 249.34 464.254 249.34 457.508h4.58594C257.434 468.574 263.102 479.363 276.59 479.363c7.55469 0 11.8672-6.47656 11.8672-12.4102 0-22.9336-37.4961-14.8398-37.4961-42.3594 0-13.7578 12.4102-21.3086 26.9766-21.3086 8.90234 0 14.0273 2.69141 17.8047 4.85156 1.61719 5.9375 2.16016 11.3281 2.16016 20.2344H292.773v.542968Z"/><path d="M470.562 403.555c-11.3281 0-18.8828 4.85156-22.6602 7.01172 0-1.35156-.808594-5.125-2.16016-7.01172 -5.93359 0-19.1523 4.31641-24.0078 5.9375l.542969 4.04687 3.77344-1.08203c.265625 0 1.61719-.273437 2.42969-.273437 4.58594 0 4.58594 4.58984 4.58594 21.3203v86.8672s14.8359 1.61719 14.8359-8.36328V483.402c2.69531.542968 6.74609 1.89453 13.7617 1.89453 18.6133 0 45.5937-11.0625 45.5937-45.0547 0-23.4688-16.7305-36.6875-36.6953-36.6875ZM466.52 479.363c-11.0625 0-14.2969-3.23828-18.6172-6.20703V415.152c2.69531-1.07812 7.01562-3.77344 14.0312-3.77344 15.1055 0 29.6758 10.5195 29.6758 32.6406 0 21.582-8.09375 35.3437-25.0898 35.3437Z"/></g></svg>