<svg viewBox="0 -3e-06 768 768" xmlns="http://www.w3.org/2000/svg" xmlns:xlink="http://www.w3.org/1999/xlink"><defs><clipPath id="a"><use xlink:href="#d"/></clipPath><clipPath id="b"><path d="M384 28.625C187.73 28.625 28.625 187.73 28.625 384c0 196.27 159.105 355.375 355.375 355.375 196.27 0 355.375-159.105 355.375-355.375C739.375 187.73 580.27 28.625 384 28.625Z"/></clipPath><clipPath id="c"><path d="M205.246 205.246h357.75v357.75h-357.75Z"/></clipPath><path id="d" d="M28.625 28.625h710.75v710.75H28.625Z"/><path id="e" d="M-76.8-76.8h921.6v921.6H-76.8Z"/></defs><g fill="#FFF"><use xlink:href="#e"/><use xlink:href="#e"/></g><g clip-path="url(#a)"><use clip-path="url(#b)" xlink:href="#d"/></g><path clip-path="url(#c)" fill="#FFF" d="M562.996 384.121c0 98.9258-80.2031 178.875-178.875 178.875 -98.6719 0-178.875-79.9492-178.875-178.875 0-98.6719 80.2031-178.875 178.875-178.875 98.6719 0 178.875 80.2031 178.875 178.875Z"/><path d="M349.457 467.613c25.8086 0 39.2187-13.1563 39.2187-31.625 0-15.4336-9.36328-25.5547-29.0977-27.3281L349.457 407.648C337.566 406.387 334.277 402.844 334.277 397.531c0-5.56641 4.80859-9.61719 14.168-9.61719 9.36328 0 18.7227 3.79688 24.543 7.84375C374 396.266 375.012 396.266 375.77 395.254l9.61719-11.3867c.503906-.757813.503906-2.02344-.507813-2.78125 -8.34766-6.57813-20.7461-11.3867-35.168-11.3867 -23.2773 0-36.4336 11.3867-36.4336 29.6016 0 15.9375 9.61719 25.8047 28.8438 27.5781l10.1211 1.01172C364.387 429.156 367.93 432.445 367.93 438.266c0 6.32422-5.82031 11.1289-17.207 11.1289 -9.61328 0-20.7461-4.55078-27.3242-10.625 -.757813-.757812-2.02344-.757812-2.78125 0L309.484 450.406c-.757813.761719-.757813 2.02734 0 2.78516C316.82 460.023 330.23 467.613 349.457 467.613Zm127.516-1.01172c1.26562 0 2.02344-.761718 2.02344-2.02344V412.965c0-14.9297 5.31641-23.5312 17.7109-23.5312 5.0625 0 9.61328 1.76953 13.6641 4.55469 1.01172.757813 2.02344.503907 2.78125-.507812l10.375-12.9023c.757812-1.01172.503906-1.76953-.507813-2.78125 -4.80469-4.80859-12.1445-7.84375-19.4805-7.84375 -11.6367 0-19.7344 4.80469-24.543 11.8906V374c0-1.26562-.757813-2.02344-2.02344-2.02344H459.262C458 371.977 457.238 372.734 457.238 374v90.5781c0 1.26172.761719 2.02344 2.02344 2.02344Zm-35.418-19.4844H436.746c-6.07422 0-8.60156-2.02344-8.60156-8.60156V388.926h13.6602c1.26562 0 2.02344-.757812 2.02344-2.02344V374c0-1.26562-.757813-2.02344-2.02344-2.02344H427.891V348.445c0-1.76953-1.26562-2.02344-2.27734-1.76953l-16.4453 5.3125C407.648 352.496 407.145 353.254 407.145 354.52l-1.01172 17.457H396.52c-1.26562 0-2.02734.757813-2.02734 2.02344v12.9023c0 1.26562.761718 2.02344 2.02734 2.02344h9.61328v50.3516c0 18.2148 7.08203 27.3242 26.0586 27.3242h9.35938c1.26562 0 2.02734-.761718 2.02734-2.02344V449.145c0-1.01172-1.01172-2.02734-2.02344-2.02734ZM308.473 508.094c0 1.01172.757813 1.76953 1.51562 1.76953h77.168c1.01172 0 1.76953-.757812 1.76953-1.76953V494.937c0-1.01172-.757812-1.77344-1.76953-1.77344H310.242c-1.01172 0-1.76953.761719-1.76953 1.77344Z"/></svg>