<svg viewBox="0 -3e-06 768 768" xmlns="http://www.w3.org/2000/svg"><defs><clipPath id="a"><path d="M76 76.8008h641V691H76Z"/></clipPath><clipPath id="b"><path d="M242.922 76.8008v613.613c1.80078.128907 3.59766.128907 5.39844.128907h295.629V76.8008Zm347.281 0H543.949v613.613h1.02734c74.7734 0 140.43-61.0273 145.824-135.543l25.3086-342.656c5.52734-74.3867-51.1328-135.414-125.906-135.414Zm-387.109 0c-74.7734 0-131.434 61.0273-125.91 135.543L102.496 555C107.891 627.719 170.59 687.59 243.051 690.414V76.8008Z"/></clipPath></defs><g clip-path="url(#a)"><path clip-path="url(#b)" d="M76.8008 76.8008H716.09v613.613H76.8008Z"/></g><g><path d="M433.863 357.781v67.0352h17.0195v15.2969H417.574v-82.332ZM407.57 345.133v15.293H391.09v17.8984h14.5273v15.293H391.09v18.5508h16.7109v15.2969H374.836v-82.332ZM325.66 341.953l9.8125 39.5156C336.891 386.145 337.43 390.859 338.426 395.574h.230469c.878906-4.83203 1.1875-9.50781 2.52734-14.2969l9.92969-39.3242h17.0156L345.285 424.281H331.949L308.184 341.953ZM294.5 403.852H283.039l3.48828-21.9609 1.76562-12.457h.230469l1.83594 12.457ZM280.434 348.277l-19.125 82.3281h16.1758l2.94922-13.875h16.4805l3.06641 13.875h17.3633L297.566 348.277ZM224.629 358.508h2.18359C235.016 358.09 237.852 362.879 237.852 368.781c0 6.74609-2.95312 11.7656-10.3867 11.7656L224.629 380.434ZM224.59 427.387V389.402H224.82l14.2969 37.9844H256.25L241.953 389.937c8.08594-4.48438 11.6875-12.2266 11.6875-21.3086 0-22.5-18.5508-23.5742-28.9375-23.5742H208.336v82.332ZM200.941 352.988v15.2969H188.062V435.32H171.773V368.285H159.008V352.988Z"/><path d="M495.305 332.484L467.094 399.52h25.875v15.293H443.371l27.4414-67.0352h-23.918v-15.293Zm21.8086 55.4219c0-7.32031.765625-27.4023 11.5742-27.4023 10.8125 0 11.5391 20.082 11.5391 27.4023 0 6.51562-.765624 27.4062-11.5742 27.4062 -10.7734 0-11.5391-20.8906-11.5391-27.4062Zm11.6133-42.4687c-14.5273 0-28.9375 11.5391-28.9375 42.4687 0 30.8945 14.4102 42.4687 28.9375 42.4687s28.9375-11.5352 28.9375-42.4687c-.035156-30.9297-14.4492-42.4687-28.9375-42.4687Zm51.9375 37.7187c0-7.28516.765626-27.4062 11.5742-27.4062 10.8086 0 11.5742 20.1211 11.5391 27.4062 0 6.55469-.769532 27.4414-11.5781 27.4414C581.43 410.559 580.664 389.711 580.664 383.156Zm11.5742-42.4687c-14.5273 0-28.9375 11.5742-28.9375 42.4687 0 30.9297 14.4102 42.4687 28.9375 42.4687s28.9375-11.5781 28.9375-42.4687c0-30.8945-14.4102-42.4687-28.9375-42.4687Z"/></g><g stroke-width=".257" fill="#FFF" stroke="#000"><path d="M12.0196 5.59049v3.98995h-3.3591L8.65026 27.0802H4.40961V9.58044H1.08006V5.59049Zm6.18009 1.43903h.57072c2.13918-.119239 2.8801 1.14042 2.8801 2.68035 0 1.77025-.770472 3.07985-2.71092 3.07985L18.1996 12.7602ZM18.1905 25.0103V15.1001h.059111l3.73007 9.92035h4.46996L22.7195 15.2499C24.8302 14.08 25.7596 12.06 25.7698 9.6905c0-5.87027-4.83991-6.15053-7.54982-6.15053H13.9498v21.4805Zm18.2396-6.15053H33.4399L34.35 13.1301l.450462-3.25005h.05911l.480017 3.25005ZM32.75 4.36038L27.7602 25.8297h4.21008l.769454-3.62h4.29977l.800028 3.62h4.53009L37.2301 4.36038Zm11.8098-1.64999L47.1199 13.02c.369949 1.23011.510591 2.45002.770473 3.68013h.060129c.229307-1.25049.30982-2.4704.659386-3.73007l2.58964-10.2597h4.44041L49.68 24.1797H46.1996L40.0001 2.7002Zm21.3704.829583v3.98995H61.6305v4.66972h3.78918v3.98995H61.6305v4.83991h4.3599v3.99097H57.3898V3.53997Zm6.85986 3.31018v17.4895h4.44041v3.98995H68.5403V6.85015Z" transform="translate(159.009 327.885) scale(3.83287)"/><path d="M88.8202.239984L81.4599 17.7295h6.74979v3.99097H75.2798l7.15031-17.4905H76.2001V.239984Zm5.68988 14.4596c0-1.90988.199752-7.14929 3.01972-7.14929s3.01972 5.23942 3.01972 7.14929c0 1.71012-.199752 7.15031-3.01972 7.15031s-3.01972-5.44019-3.01972-7.15031ZM97.54 3.61029c-3.7902 0-7.54982 3.01972-7.54982 11.0801 0 8.05939 3.75962 11.0791 7.54982 11.0791 3.79019 0 7.54982-3.01972 7.54982-11.0791C105.08 6.64021 101.32 3.62048 97.54 3.61029ZM111.09 13.4603C111.09 11.5504 111.29 6.31 114.12 6.31c2.81997 0 3.01972 5.24044 3.01972 7.15031 0 1.71012-.199752 7.14929-3.01972 7.14929 -2.83016 0-3.03093-5.43917-3.03093-7.14929ZM114.11 2.38019c-3.7902 0-7.54982 3.01972-7.54982 11.0801 0 8.05939 3.74943 11.0893 7.54982 11.0893 3.79019 0 7.54982-3.01972 7.54982-11.0801 0-8.06958-3.75962-11.0893-7.54982-11.0893Z" transform="translate(159.009 327.885) scale(3.83287)"/></g><path d="M617.727 336.93c0-4.29297 3.21875-7.55078 7.39844-7.55078 4.10156 0 7.35938 3.25781 7.35938 7.55078 0 4.37109-3.25781 7.58984-7.35938 7.58984 -4.17969 0-7.39844-3.21875-7.39844-7.58984Zm7.39844 9.08594c4.94531 0 9.16016-3.83594 9.16016-9.08594 0-5.21094-4.21484-9.04297-9.16016-9.04297 -5.02344 0-9.23828 3.83203-9.23828 9.04297 0 5.25 4.21484 9.08594 9.23828 9.08594ZM623.207 337.621h1.83984L627.809 342.18H629.57L626.621 337.582c1.53125-.191406 2.71875-1.03516 2.71875-2.875 0-2.07031-1.22656-2.98828-3.67969-2.98828H621.676V342.18h1.60938Zm0-1.34375V333.059h2.14844c1.10938 0 2.26172.230468 2.29688 1.53516 0 1.60938-1.1875 1.72266-2.56641 1.68359Z"/></svg>