<svg viewBox="0 -3e-06 768 768" xmlns="http://www.w3.org/2000/svg" xmlns:xlink="http://www.w3.org/1999/xlink"><defs><clipPath id="a"><use xlink:href="#g"/></clipPath><clipPath id="b"><path d="M384 28.625C187.73 28.625 28.625 187.73 28.625 384c0 196.27 159.105 355.375 355.375 355.375 196.27 0 355.375-159.105 355.375-355.375C739.375 187.73 580.27 28.625 384 28.625Z"/></clipPath><clipPath id="c"><path d="M337 278h96v95h-96Z"/></clipPath><clipPath id="d"><path d="M384.355 278.301L432.41 326.355 385.836 372.93 337.781 324.875Z"/></clipPath><clipPath id="e"><path d="M384.359 278.305l50.4375 50.4375 -47.7852 47.7813 -50.4375-50.4375Z"/></clipPath><clipPath id="f"><path d="M384.359 278.305l47.9219 47.9219L385.527 372.98 337.605 325.059Z"/></clipPath><path id="g" d="M28.625 28.625h710.75v710.75H28.625Z"/><path id="h" d="M2.71875-41.7344h33.3281l1.21875 5.625h-15v36.1094l-5.75.609375v-36.7187h-15Z"/><path id="i" d="M10.5781-5.625H33.75L32.5469 0H4.84375v-41.7344h27.7031l1.20312 5.625H10.5781V-24.5h19.125v5.625h-19.125Z"/></defs><g clip-path="url(#a)"><use clip-path="url(#b)" xlink:href="#g"/></g><g clip-path="url(#c)"><g clip-path="url(#d)"><g clip-path="url(#e)"><g clip-path="url(#f)"><path fill="none" stroke="#FFF" stroke-width="17.2167" d="M.0026007.0006837h129.645v126.486h-129.645Z" transform="scale(.522747) rotate(45-275.014 1153.74)"/></g></g></g></g><g fill="#FFF"><use xlink:href="#h" x="149.31" y="466.806"/><path d="M25.5781-17.2344L36.6563 0 30.4219.609375 19.4688-16.3281H10.8906V-1e-06l-5.75.609375v-41.9219C8.92969-42 13.2852-42.3437 18.2031-42.3437c5.48828 0 9.53125 1.0625 12.125 3.1875 2.60156 2.11719 3.90625 5.39062 3.90625 9.82812 0 6.57422-2.88672 10.6055-8.65625 12.0937ZM10.8906-36.1719v14.2188h8.57812c3.11328 0 5.39453-.59375 6.84375-1.78125 1.44531-1.19531 2.17188-3.0625 2.17188-5.59375 0-2.5-.820313-4.34375-2.45312-5.53125 -1.625-1.19531-4.15234-1.79688-7.57812-1.79688 -2.54297 0-5.0625.164062-7.5625.484375Z" transform="translate(211.188 466.806)"/><path d="M5.4375.609375v-42.3437l5.75-.609375V0Z" transform="translate(272.157 466.806)"/><path d="M10.8906 0l-5.75.609375v-41.9219C9.25391-42 13.6094-42.3437 18.2031-42.3437c5.48828 0 9.53125 1.0625 12.125 3.1875 2.60156 2.11719 3.90625 5.39062 3.90625 9.82812 0 4.42969-1.28125 7.70312-3.84375 9.82812 -2.5625 2.11719-6.54297 3.17187-11.9375 3.17187h-7.5625Zm0-36.1719v14.2188h7.5625c3.46875 0 6.00391-.59375 7.60938-1.78125 1.61328-1.19531 2.42188-3.0625 2.42188-5.59375 0-2.5-.820313-4.34375-2.45312-5.53125 -1.625-1.19531-4.15234-1.79688-7.57812-1.79688 -2.54297 0-5.0625.164062-7.5625.484375Z" transform="translate(311.897 466.806)"/><use xlink:href="#h" x="367.739" y="466.806"/><use xlink:href="#i" x="425.321" y="466.806"/><path d="M11.1875-9.60938L6.34375.609375 .296875 2e-07l20.6875-42.3437h.546875l20.75 42.3437 -6.10938.609375 -4.84375-10.2188Zm17.9063-4.71875L21.2969-30.8438l-7.875 16.5156Z" transform="translate(481.815 466.806)"/><path d="M1.8125-2.71875L3.875-7.98437C7.45703-6.00391 11.832-5.01562 17-5.01562c2.73828 0 4.88281-.539063 6.4375-1.625C24.9883-7.73437 25.7656-9.22656 25.7656-11.125c0-2.38281-2.76172-4.39844-8.28125-6.04687 -1.69922-.488281-3.11719-.910156-4.25-1.26562C12.1094-18.8008 10.7813-19.3594 9.25-20.1094c-1.53125-.75-2.76172-1.51562-3.6875-2.29688 -.929688-.789062-1.72656-1.8125-2.39062-3.0625 -.667969-1.25-.980469-2.61719-.9375-4.10938 0-4.03125 1.30078-7.16406 3.90625-9.40625 2.60156-2.23828 6.24219-3.35938 10.9219-3.35938 3.5 0 7.34766.808594 11.5469 2.42188l-1.875 5.26562c-2.98047-1.33203-6.24609-2-9.79688-2 -2.82422 0-5.02344.558594-6.59375 1.67188 -1.57422 1.10547-2.35938 2.64844-2.35938 4.625 0 2.375 2.75781 4.46875 8.28125 6.28125 2.53906.8125 4.84375 1.62109 6.90625 2.42188 2.45703.886719 4.46094 2.17969 6.01562 3.875C30.7383-16.082 31.5156-14.1289 31.5156-11.9219c0 4.11719-1.27344 7.23438-3.8125 9.35938C25.1602-.445312 21.4297.609375 16.5156.609375 11.6719.609375 6.76953-.5 1.8125-2.71875Z" transform="translate(543.208 466.806)"/><use xlink:href="#i" x="596.254" y="466.806"/></g><path fill="#CAA93E" d="M1.875-28.8594h23.0469l.84375 3.89063h-10.375V-4e-07L11.4219.421875v-25.3906h-10.375Z" transform="translate(371.391 343.089)"/></svg>