<svg viewBox="0 -3e-06 768 768" xmlns="http://www.w3.org/2000/svg" xmlns:xlink="http://www.w3.org/1999/xlink"><defs><clipPath id="a"><use xlink:href="#g"/></clipPath><clipPath id="b"><path d="M384 28.625C187.73 28.625 28.625 187.73 28.625 384c0 196.27 159.105 355.375 355.375 355.375 196.27 0 355.375-159.105 355.375-355.375C739.375 187.73 580.27 28.625 384 28.625Z"/></clipPath><clipPath id="c"><path d="M230.398 246.082h307.5V444h-307.5Z"/></clipPath><clipPath id="d"><path d="M531 506h6.89844v7H531Z"/></clipPath><clipPath id="e"><path d="M230.398 468H263v45H230.398Z"/></clipPath><clipPath id="f"><path d="M518 480h19.8984v33H518Z"/></clipPath><path id="g" d="M28.625 28.625h710.75v710.75H28.625Z"/><path id="h" d="M-76.8-76.8h921.6v921.6H-76.8Z"/></defs><g fill="#FFF"><use xlink:href="#h"/><use xlink:href="#h"/></g><g clip-path="url(#a)"><use clip-path="url(#b)" xlink:href="#g"/></g><g fill="#FFF"><path d="M307.113 387.328c.890625 0 1.78125-.042969 2.66406-.128906 .886718-.089844 1.76953-.21875 2.64062-.390625 .875-.175782 1.73828-.390625 2.58984-.648438 .851563-.257812 1.6875-.558594 2.51172-.898437 .824219-.34375 1.625-.722657 2.41406-1.14062C320.719 383.699 321.48 383.242 322.219 382.75 322.961 382.254 323.676 381.723 324.363 381.16c.6875-.566406 1.34766-1.16406 1.97656-1.79297 .632812-.628907 1.22656-1.28906 1.79297-1.97656 .566407-.6875 1.09375-1.40234 1.58984-2.14453 .496094-.738282.953125-1.50391 1.37109-2.28906 .421875-.785156.800781-1.58984 1.14062-2.41016 .34375-.824219.640625-1.66016.902344-2.51172 .257812-.851562.472656-1.71484.648437-2.58984 .171875-.871093.304688-1.75391.390625-2.64062 .085938-.882813.128907-1.77344.128907-2.66406s-.042969-1.77734-.128907-2.66406C334.09 356.59 333.957 355.711 333.785 354.836 333.609 353.965 333.395 353.102 333.137 352.25 332.879 351.395 332.578 350.559 332.238 349.734c-.34375-.820313-.722656-1.625-1.14062-2.41016 -.421875-.785157-.878906-1.55078-1.375-2.28906C329.23 344.293 328.699 343.578 328.137 342.891c-.566407-.6875-1.16406-1.34766-1.79297-1.97656 -.628906-.628906-1.28906-1.22656-1.97656-1.79297 -.691407-.5625-1.40234-1.09375-2.14453-1.58984C321.48 337.039 320.719 336.582 319.934 336.16 319.148 335.742 318.344 335.359 317.523 335.02 316.699 334.68 315.863 334.379 315.008 334.121 314.156 333.863 313.293 333.648 312.422 333.473c-.875-.171875-1.75391-.304687-2.64062-.390625 -.886719-.085937-1.77344-.132812-2.66406-.132812 -.890626 0-1.78125.046875-2.66406.132812 -.886719.085938-1.76953.21875-2.64062.390625 -.875.175782-1.73828.390625-2.58984.648438 -.851562.257812-1.6875.558594-2.51172.898437 -.824219.34375-1.625.722657-2.41016 1.14453 -.785156.417969-1.55078.875-2.28906 1.37109 -.742188.492188-1.45703 1.02344-2.14453 1.58984 -.6875.5625-1.34766 1.16016-1.97656 1.79297 -.628906.628906-1.22656 1.28906-1.79297 1.97656 -.5625.6875-1.09375 1.40234-1.58984 2.14062 -.492187.742188-.949218 1.50391-1.37109 2.28906 -.417969.785156-.800781 1.58984-1.14062 2.41406 -.339844.824219-.640625 1.66016-.898438 2.51172C280.84 353.102 280.625 353.965 280.449 354.84 280.277 355.711 280.145 356.594 280.059 357.48 279.973 358.363 279.93 359.254 279.93 360.145c0 .890625.042968 1.77734.128906 2.66406 .089844.886718.21875 1.76562.394531 2.63672 .171875.875.386719 1.73828.648437 2.58984C281.359 368.887 281.66 369.723 282 370.547c.339844.820313.71875 1.625 1.14062 2.41016 .417969.785157.875 1.54688 1.37109 2.28906 .496093.738281 1.02344 1.45312 1.58984 2.14062 .5625.691406 1.16016 1.34766 1.78906 1.98047 .632813.628906 1.28906 1.22656 1.97656 1.78906C290.559 381.723 291.27 382.25 292.012 382.746c.738281.496094 1.50391.953125 2.28906 1.37109 .785157.421874 1.58594.800781 2.41016 1.14062 .824218.339844 1.66016.640626 2.51172.898438 .851563.257812 1.71484.476562 2.58594.648438 .875.175781 1.75391.304687 2.64062.394531 .886719.085937 1.77344.128906 2.66406.128906Z"/><path d="M487.574 360.145c0 .890625-.042969 1.77734-.128907 2.66406 -.089843.886718-.21875 1.76562-.390624 2.64062 -.175782.871093-.390626 1.73438-.648438 2.58594 -.261719.851563-.558594 1.69141-.902344 2.51172 -.339844.824219-.71875 1.62891-1.14062 2.41406 -.417969.785156-.875 1.54687-1.37109 2.28906C482.5 375.988 481.969 376.703 481.402 377.391c-.5625.691406-1.16016 1.34766-1.78906 1.97656C478.98 380 478.324 380.598 477.637 381.16 476.945 381.727 476.23 382.254 475.492 382.75c-.742188.496094-1.50391.953125-2.28906 1.37109 -.785156.421875-1.58984.800781-2.41016 1.14062 -.824219.34375-1.66016.640625-2.51562.898437 -.851563.261719-1.71484.476563-2.58594.648438 -.875.175781-1.75391.304687-2.64062.394531 -.886719.085937-1.77344.128906-2.66406.128906s-1.77734-.042969-2.66406-.128906c-.886718-.089844-1.76562-.21875-2.64062-.394531 -.875-.171875-1.73438-.386719-2.58984-.648438 -.851563-.257812-1.6875-.554687-2.51172-.898437 -.820313-.339844-1.625-.71875-2.41016-1.14062 -.785156-.417969-1.55078-.875-2.28906-1.37109C444.539 382.254 443.828 381.727 443.137 381.16 442.449 380.598 441.789 380 441.16 379.367 440.531 378.738 439.934 378.082 439.371 377.391c-.566406-.6875-1.09766-1.40234-1.58984-2.14062 -.496094-.742188-.953125-1.50391-1.375-2.28906 -.417969-.785157-.796875-1.58984-1.14062-2.41406 -.339844-.820313-.640625-1.66016-.898437-2.51172C434.109 367.184 433.895 366.32 433.719 365.449c-.171875-.875-.304688-1.75391-.390625-2.64062 -.085937-.886719-.128906-1.77344-.128906-2.66406s.042969-1.78125.128906-2.66406c.085937-.886719.21875-1.76953.390625-2.64062 .175781-.875.390625-1.73828.648438-2.58984 .257812-.851562.558593-1.6875.898437-2.51172 .34375-.820312.722656-1.625 1.14062-2.41016 .421875-.785156.878906-1.55078 1.375-2.28906 .492188-.742187 1.02344-1.45703 1.58984-2.14453 .5625-.6875 1.16016-1.34766 1.78906-1.97656 .628906-.628907 1.28906-1.22656 1.97656-1.79297 .691406-.5625 1.40234-1.09375 2.14453-1.58984C446.02 337.043 446.785 336.586 447.57 336.164 448.355 335.746 449.16 335.363 449.98 335.023c.824219-.339844 1.66016-.640626 2.51172-.898438 .855468-.257812 1.71484-.472656 2.58984-.648438 .875-.171874 1.75391-.304687 2.64062-.390624C458.609 333 459.496 332.953 460.387 332.953c.890625 0 1.77734.046875 2.66406.132813 .886719.085937 1.76562.21875 2.64062.390624 .871094.175782 1.73438.390626 2.58594.648438 .855468.257812 1.69141.558594 2.51562.898438 .820312.339843 1.625.722656 2.41016 1.14062 .785156.421876 1.54688.878907 2.28906 1.37109 .738281.496094 1.45312 1.02734 2.14453 1.58984 .6875.566406 1.34375 1.16406 1.97656 1.79297 .628907.628906 1.22656 1.28906 1.78906 1.97656 .566406.6875 1.09766 1.40234 1.58984 2.14453 .496093.738282.953124 1.50391 1.37109 2.28906 .421875.785156.800781 1.58984 1.14062 2.41016 .34375.824219.640625 1.66016.902344 2.51172 .257812.851562.472656 1.71484.648438 2.58984 .171874.871094.300781 1.75391.390624 2.64062 .085938.882812.128907 1.77344.128907 2.66406Z"/><path clip-path="url(#c)" d="M230.48 360.145c0 42.3281 34.3086 76.6328 76.6328 76.6328 4.78906.007812 9.53516-.433594 14.2383-1.32031 4.70313-.882812 9.28516-2.20312 13.7422-3.94922 4.45703-1.75 8.71094-3.89844 12.7656-6.44531C351.91 422.516 355.691 419.609 359.199 416.352l24.5625 26.7305 24.5664-26.7148C411.836 419.621 415.613 422.523 419.668 425.07c4.05078 2.54688 8.30469 4.69141 12.7578 6.4375 4.45703 1.74609 9.03516 3.0625 13.7383 3.94922 4.70313.886719 9.44922 1.32422 14.2344 1.31641 42.3281 0 76.668-34.3125 76.668-76.6328C537.07 357.48 536.934 354.828 536.66 352.188 536.387 349.543 535.977 346.918 535.426 344.316 534.879 341.715 534.199 339.148 533.383 336.621 532.57 334.09 531.625 331.609 530.551 329.176 529.477 326.742 528.277 324.375 526.957 322.066c-1.32031-2.30469-2.75781-4.53906-4.3125-6.69531C521.09 313.215 519.43 311.145 517.66 309.16 515.891 307.176 514.02 305.289 512.055 303.504l25.0742-27.2852H481.539C477.965 273.785 474.301 271.488 470.555 269.328c-3.75-2.16016-7.57031-4.17578-11.4688-6.05078 -3.89844-1.875-7.86328-3.59766-11.8906-5.17578C443.168 256.523 439.09 255.098 434.957 253.824 430.82 252.551 426.645 251.434 422.43 250.473 418.211 249.512 413.965 248.707 409.687 248.066 405.41 247.422 401.113 246.937 396.801 246.617c-4.3125-.324219-8.63281-.484376-12.957-.484376 -4.32812 0-8.64453.160157-12.9609.484376C366.57 246.937 362.277 247.422 358 248.066c-4.27734.640625-8.52734 1.44531-12.7422 2.40625 -4.21875.960938-8.39453 2.07812-12.5273 3.35156 -4.13281 1.27344-8.21484 2.69922-12.2422 4.27734C316.461 259.68 312.5 261.402 308.602 263.277c-3.89844 1.875-7.72266 3.89063-11.4688 6.05078 -3.75 2.16016-7.41016 4.45703-10.9883 6.89062H230.398l25.0781 27.2852C253.512 305.293 251.641 307.18 249.871 309.16 248.105 311.145 246.441 313.215 244.891 315.375 243.336 317.531 241.898 319.762 240.578 322.07 239.258 324.379 238.062 326.746 236.988 329.18 235.914 331.609 234.969 334.094 234.156 336.625 233.34 339.152 232.66 341.719 232.113 344.32 231.566 346.922 231.156 349.547 230.883 352.191 230.609 354.836 230.477 357.484 230.48 360.145Zm281.77 0c0 1.69922-.082031 3.39062-.25 5.08203 -.164062 1.69141-.414062 3.37109-.746094 5.03516 -.332031 1.66797-.742187 3.3125-1.23828 4.9375 -.492187 1.625-1.0625 3.22266-1.71094 4.79297 -.652344 1.57031-1.37891 3.10156-2.17969 4.60156C505.324 386.09 504.453 387.547 503.512 388.957 502.566 390.371 501.555 391.734 500.477 393.047c-1.07422 1.3125-2.21484 2.57031-3.41797 3.76953C495.859 398.02 494.602 399.156 493.289 400.234c-1.3125 1.07812-2.67578 2.08984-4.08984 3.03125 -1.41016.945313-2.86719 1.81641-4.36328 2.61719 -1.5.800782-3.03125 1.52734-4.60156 2.17578 -1.57031.652344-3.16797 1.22266-4.79297 1.71484 -1.625.496093-3.26953.90625-4.9375 1.23828 -1.66406.332031-3.34375.582031-5.03516.746093 -1.6875.167969-3.38281.25-5.08203.25 -1.69922 0-3.39453-.082031-5.08203-.25C453.613 411.594 451.934 411.344 450.27 411.012 448.602 410.68 446.957 410.27 445.332 409.773c-1.625-.492188-3.22266-1.0625-4.79297-1.71484 -1.57031-.648438-3.10156-1.375-4.60156-2.17578C434.441 405.082 432.984 404.211 431.57 403.266 430.16 402.324 428.797 401.313 427.484 400.234 426.172 399.156 424.914 398.02 423.711 396.816 422.512 395.617 421.371 394.359 420.293 393.047c-1.07422-1.3125-2.08594-2.67578-3.03125-4.08984C416.32 387.547 415.445 386.09 414.645 384.594c-.800781-1.5-1.52344-3.03125-2.17578-4.60156C411.82 378.422 411.25 376.824 410.754 375.199c-.492187-1.625-.902344-3.26953-1.23438-4.9375 -.332031-1.66406-.582031-3.34375-.746093-5.03516 -.167969-1.69141-.25-3.38281-.25-5.08203 0-1.69922.082031-3.39453.25-5.08594 .164062-1.6875.414062-3.36719.746093-5.03125 .332031-1.66797.742188-3.3125 1.23438-4.9375C411.25 343.461 411.82 341.867 412.469 340.297c.652344-1.57031 1.375-3.10547 2.17578-4.60156 .800781-1.5 1.67578-2.95312 2.61719-4.36719 .945312-1.41016 1.95703-2.77344 3.03125-4.08594 1.07812-1.3125 2.21875-2.57031 3.41797-3.77344C424.914 322.27 426.172 321.129 427.484 320.051 428.797 318.973 430.16 317.965 431.57 317.02c1.41406-.941406 2.87109-1.81641 4.36719-2.61719 1.5-.800782 3.03125-1.52344 4.60156-2.17578 1.57031-.648437 3.16797-1.22266 4.79297-1.71484 1.625-.492188 3.26953-.90625 4.9375-1.23438 1.66406-.332032 3.34375-.582032 5.03516-.75 1.6875-.164063 3.38281-.25 5.08203-.25 1.69922 0 3.39453.085937 5.08203.25 1.69141.167968 3.37109.417968 5.03516.75 1.66797.328125 3.3125.742187 4.9375 1.23438 1.625.492187 3.22266 1.06641 4.79297 1.71484 1.57031.652344 3.10156 1.375 4.60156 2.17578 1.49609.800781 2.95312 1.67578 4.36328 2.61719 1.41406.945313 2.77734 1.95312 4.08984 3.03125 1.3125 1.07812 2.57031 2.21875 3.76953 3.41797C498.262 324.672 499.402 325.93 500.477 327.242c1.07813 1.3125 2.08984 2.67578 3.03516 4.08594 .941406 1.41406 1.8125 2.86719 2.61328 4.36719 .800781 1.49609 1.52734 3.03125 2.17969 4.60156C508.953 341.867 509.523 343.461 510.02 345.09c.492188 1.625.902344 3.26953 1.23438 4.9375C511.586 351.691 511.836 353.371 512 355.059c.167969 1.69141.25 3.38672.25 5.08594ZM383.754 271.203c9.88281-.011719 19.668.949219 29.3594 2.88672 9.69141 1.94141 19.0977 4.8125 28.2187 8.625 -32.7344 12.5273-57.5547 41.8086-57.5547 75.9336 0-34.1289-24.8242-63.4141-57.5625-75.9375C335.328 278.902 344.727 276.031 354.41 274.094c9.68359-1.9375 19.4648-2.90234 29.3437-2.89062ZM307.113 308.277c1.69922 0 3.39453.085937 5.08594.25 1.6875.167968 3.36719.417968 5.03125.75 1.66797.328125 3.3125.742187 4.9375 1.23438 1.625.492187 3.22266 1.06641 4.79297 1.71484 1.57031.652344 3.10156 1.375 4.60156 2.17578C333.059 315.203 334.516 316.078 335.93 317.02c1.41016.945313 2.77344 1.95312 4.08594 3.03125 1.3125 1.07812 2.57031 2.21875 3.77344 3.41797C344.988 324.672 346.129 325.93 347.207 327.242c1.07422 1.3125 2.08594 2.67578 3.03125 4.08594C351.18 332.742 352.055 334.195 352.855 335.695c.800781 1.49609 1.52344 3.03125 2.17578 4.60156C355.68 341.867 356.25 343.461 356.746 345.09c.492187 1.625.902344 3.26953 1.23438 4.93359 .332031 1.66797.582031 3.34766.746093 5.03516 .167969 1.69141.25 3.38672.25 5.08594 0 1.69922-.082031 3.39062-.25 5.08203C358.562 366.918 358.312 368.598 357.98 370.262c-.332031 1.66797-.742188 3.3125-1.23438 4.9375 -.496094 1.625-1.06641 3.22266-1.71484 4.79297 -.652344 1.57031-1.375 3.10156-2.17578 4.60156C352.055 386.09 351.18 387.547 350.238 388.957 349.293 390.371 348.281 391.734 347.207 393.047c-1.07812 1.3125-2.21875 2.57031-3.41797 3.76953C342.586 398.02 341.328 399.156 340.016 400.234 338.703 401.313 337.34 402.324 335.93 403.266c-1.41406.945313-2.87109 1.81641-4.36719 2.61719 -1.5.800782-3.03125 1.52734-4.60156 2.17578 -1.57031.652344-3.16797 1.22266-4.79297 1.71484 -1.625.496093-3.26953.90625-4.9375 1.23828 -1.66406.332031-3.34375.582031-5.03125.746093 -1.69141.167969-3.38672.25-5.08594.25 -1.69922 0-3.39453-.082031-5.08203-.25C300.34 411.594 298.66 411.344 296.996 411.012 295.328 410.68 293.684 410.27 292.059 409.773c-1.625-.492188-3.22266-1.0625-4.79297-1.71484 -1.57031-.648438-3.10156-1.375-4.60156-2.17578 -1.49609-.800781-2.95312-1.67187-4.36328-2.61719 -1.41406-.941406-2.77734-1.95312-4.08984-3.03125 -1.3125-1.07812-2.57031-2.21484-3.76953-3.41797 -1.20312-1.19922-2.33984-2.45703-3.41797-3.76953 -1.07813-1.3125-2.08984-2.67578-3.03516-4.08984 -.941406-1.41016-1.8125-2.86719-2.61328-4.36328 -.800781-1.5-1.52734-3.03125-2.17578-4.60156 -.652344-1.57031-1.22266-3.16797-1.71484-4.79297 -.496094-1.625-.90625-3.26953-1.23828-4.9375C255.914 368.598 255.664 366.918 255.5 365.227c-.167969-1.69141-.25-3.38281-.25-5.08203 0-1.69922.082031-3.39453.25-5.08594 .164062-1.6875.414062-3.36719.746094-5.03125 .332031-1.66797.742187-3.3125 1.23828-4.9375 .492187-1.62891 1.0625-3.22266 1.71484-4.79297 .648437-1.57031 1.375-3.10547 2.17578-4.60156 .800781-1.5 1.67188-2.95312 2.61328-4.36719 .945313-1.41016 1.95703-2.77344 3.03516-4.08594 1.07812-1.3125 2.21484-2.57031 3.41797-3.77344C271.641 322.27 272.898 321.129 274.211 320.051c1.3125-1.07812 2.67578-2.08594 4.08984-3.03125 1.41016-.941406 2.86719-1.81641 4.36328-2.61719 1.5-.800782 3.03125-1.52344 4.60156-2.17578 1.57031-.648437 3.16797-1.22266 4.79297-1.71484 1.625-.492188 3.26953-.90625 4.9375-1.23438 1.66406-.332032 3.34375-.582032 5.03516-.75 1.6875-.164063 3.38281-.25 5.08203-.25Z"/><path clip-path="url(#d)" d="M534.461 506.672c-.414063 0-.8125.078125-1.19922.238281 -.382813.15625-.722657.382813-1.01562.675782 -.292969.296874-.519532.632812-.679688 1.01953 -.15625.382812-.238281.78125-.238281 1.19922 0 .414062.082031.8125.238281 1.19922 .160156.382813.386719.722656.679688 1.01562 .292968.292969.632812.519531 1.01562.679688 .386719.15625.785156.238281 1.19922.238281 .417968 0 .816406-.082031 1.19922-.238281 .386719-.160157.722656-.386719 1.01562-.679688 .296875-.292969.523438-.632812.679688-1.01562 .160156-.386718.238281-.785156.238281-1.19922 0-.417969-.078125-.816407-.238281-1.19922C537.195 508.223 536.969 507.883 536.676 507.59 536.383 507.297 536.043 507.07 535.66 506.91 535.277 506.75 534.879 506.672 534.461 506.672Zm0 5.77344c-.347657 0-.6875-.066406-1.01172-.203124C533.125 512.109 532.84 511.918 532.59 511.672c-.246094-.25-.4375-.535156-.570313-.859375 -.136719-.324219-.203125-.664062-.203125-1.01172 0-.351562.066406-.691406.203125-1.01562 .132813-.324218.324219-.609375.570313-.855468 .25-.25.535156-.441407.859375-.574219 .324219-.132813.664062-.203125 1.01172-.203125 .351562 0 .691406.070312 1.01172.203125 .324219.132812.613282.324219.859375.574219 .25.246093.441407.53125.574219.855468 .132812.324219.203125.664063.203125 1.01562 0 .347657-.070313.6875-.203125 1.01172 -.132812.324219-.324219.609375-.574219.859375 -.246093.246094-.535156.4375-.859375.570313 -.320312.136718-.660156.203124-1.01172.203124Z"/><path d="M535.48 509.27c0-.128906-.023438-.253906-.074219-.371093 -.050781-.121094-.125-.222657-.21875-.308594C535.09 508.5 534.98 508.438 534.859 508.398c-.125-.039063-.25-.050782-.378906-.035157h-1v2.85156h.492187V510.176h.53125l.519532 1.03906h.53125L534.984 510.078c.160156-.066406.285156-.175781.375-.324219 .089844-.148437.128906-.308594.121094-.484375Zm-1.02344.472657H533.973V508.797h.484375c.332031 0 .53125.167969.53125.472656 0 .308594-.199219.472657-.53125.472657Z"/><path d="M266.297 485.73V480.336H258.031v32.125h8.27734V493.191c0-3.48828 2.23828-5.19922 5.72656-5.19922H276.57V480.336H272.68c-3.02734 0-5.66016 1.57812-6.38281 5.39453Z"/><path d="M284.301 467.641c-.328125-.003906-.65625.027344-.980469.089844 -.328124.0625-.640624.15625-.949218.28125 -.304688.125-.597656.277343-.871094.457031 -.277344.183594-.53125.390625-.769531.621094 -.234375.234375-.445313.484375-.628907.757812 -.1875.277344-.34375.566406-.472656.867188C279.5 471.02 279.402 471.336 279.336 471.66c-.066407.324219-.101563.648438-.101563.980469 -.003906.332031.027344.65625.089844.984375 .0625.324219.15625.636719.28125.945312 .121093.304688.277343.597657.457031.871094 .183594.277344.390625.535156.621094.769532 .234375.234374.484375.445312.757812.628906 .273438.1875.5625.34375.867188.472656 .304687.128906.621094.226562.945312.292969 .320313.066406.648438.101562.980469.101562 .328125.003907.65625-.027343.980469-.089843 .324218-.0625.640625-.15625.949218-.277344 .304688-.125.597657-.277344.871094-.460938 .277344-.179687.53125-.386718.769532-.621094C288.039 476.027 288.25 475.773 288.434 475.5c.1875-.273438.34375-.5625.472656-.867188 .128906-.304687.226562-.617187.292969-.941406 .066406-.324218.101562-.652344.101562-.984375 .007813-.332031-.019531-.660156-.078125-.984375C289.164 471.395 289.07 471.078 288.949 470.77 288.828 470.461 288.676 470.168 288.492 469.891 288.313 469.613 288.105 469.355 287.871 469.121 287.637 468.883 287.383 468.672 287.109 468.488c-.277344-.1875-.566406-.34375-.875-.46875C285.93 467.891 285.613 467.797 285.289 467.734c-.328124-.066406-.65625-.097656-.988281-.09375Z"/><path d="M280.176 480.336H288.43v32.1055H280.176Z"/><path d="M311.156 479.797c-1.75781-.011719-3.47266.261719-5.14062.820313 -1.66797.558593-3.20313 1.37109-4.60156 2.4375V480.336H293.18v41.5313h8.25391V509.727c1.39844 1.06641 2.92969 1.875 4.59375 2.43359 1.66406.5625 3.375.835938 5.12891.832032 .546875 0 1.08594-.027344 1.62891-.078126 .539063-.054687 1.07812-.132812 1.60938-.238281C314.93 512.566 315.453 512.437 315.977 512.277c.519532-.15625 1.03125-.339844 1.53125-.546875C318.012 511.523 318.5 511.289 318.98 511.035 319.461 510.777 319.926 510.5 320.379 510.195c.449219-.300781.886719-.625 1.30859-.96875 .417969-.34375.820312-.710937 1.20312-1.09375 .386719-.386718.75-.785156 1.09375-1.20703 .347656-.421875.667969-.855469.972656-1.30859 .300781-.453126.582031-.917969.835938-1.39844 .257812-.476562.488281-.96875.695312-1.46875 .210938-.503906.390625-1.01562.550781-1.53516 .15625-.519532.289063-1.04688.394532-1.57812 .105468-.535157.1875-1.07031.238281-1.61328 .054687-.539063.082031-1.08203.082031-1.625 0-.542969-.027344-1.08594-.082031-1.62891C327.621 494.23 327.539 493.691 327.434 493.16c-.105469-.53125-.238282-1.05859-.394532-1.57812 -.160156-.523437-.339843-1.03125-.550781-1.53516 -.207031-.503906-.4375-.992187-.695312-1.47266C325.539 488.094 325.258 487.629 324.957 487.18c-.304687-.453126-.625-.890626-.972656-1.30859 -.34375-.421875-.707031-.824219-1.09375-1.20703 -.382813-.386718-.785156-.75-1.20312-1.09375 -.421875-.34375-.859375-.667968-1.30859-.972656C319.926 482.297 319.461 482.02 318.98 481.762 318.5 481.504 318.012 481.273 317.508 481.066c-.5-.207031-1.01172-.390625-1.53125-.550781 -.523437-.15625-1.04687-.289063-1.58203-.394531 -.53125-.105469-1.07031-.183594-1.60938-.238282 -.542968-.054687-1.08203-.082031-1.62891-.082031ZM310.43 505.402c-.59375 0-1.17969-.054688-1.76172-.171875C308.09 505.113 307.523 504.945 306.977 504.719 306.43 504.492 305.91 504.215 305.418 503.883 304.926 503.555 304.469 503.18 304.051 502.762c-.417969-.417969-.792969-.875-1.12109-1.36719 -.328126-.492187-.605469-1.01172-.832032-1.55859 -.226562-.546876-.398437-1.10938-.515625-1.69141C301.469 497.563 301.41 496.977 301.41 496.387c0-.59375.058594-1.17969.175782-1.76172 .113281-.578125.285156-1.14453.511718-1.69141 .226563-.546875.503906-1.06641.832032-1.55859 .332031-.492188.703124-.949219 1.125-1.36719 .417968-.417968.871093-.792968 1.36719-1.12109C305.914 488.559 306.434 488.281 306.98 488.055 307.527 487.828 308.09 487.656 308.672 487.543 309.254 487.426 309.84 487.367 310.43 487.367c.59375 0 1.17969.058593 1.76172.175781 .578125.117187 1.14453.285156 1.69141.511719 .546876.226562 1.06641.507812 1.55859.835937 .492188.328125.945313.703125 1.36719 1.12109 .417968.417969.789062.875 1.12109 1.36719 .328124.492188.605468 1.01172.832031 1.55859 .226562.546875.394531 1.11328.511719 1.69141 .113281.582032.171874 1.16797.171874 1.76172 0 .589844-.058593 1.17969-.171874 1.75781 -.117188.582031-.289063 1.14453-.515626 1.69141 -.226562.546875-.503906 1.06641-.832031 1.55859 -.328125.492187-.703125.949218-1.12109 1.36719 -.417969.417969-.875.792969-1.36719 1.12109 -.492188.328125-1.01172.605469-1.55859.832031 -.546875.226562-1.10938.398438-1.69141.511719 -.582031.117187-1.16797.171875-1.75781.171875Z"/><path d="M471.242 493.574L466.426 492.25C463.258 491.43 462.023 490.453 462.023 488.777c0-1.67188 1.73437-2.76953 4.21875-2.76953 2.36328 0 4.21484 1.55078 4.21484 3.52734v.183594h7.60938V489.535c0-5.82812-4.75-9.73828-11.8242-9.73828 -7.00781 0-12.0937 3.91016-12.0937 9.30078 0 4.19141 2.78125 7.34766 7.625 8.66016l4.61328 1.25c3.50391.972657 4.80469 2.05078 4.80469 3.97656 0 2.03516-1.89062 3.40234-4.68359 3.40234 -2.92578 0-4.88672-1.84766-4.88672-4.59766V501.605H453.547v.183593c0 6.58984 5.28906 11.1875 12.8945 11.1875 7.31641 0 12.625-4.49219 12.625-10.6836 0-3.02344-1.35547-6.99609-7.82422-8.71875Z"/><path d="M357.051 483.055c-1.39844-1.06641-2.93359-1.87891-4.60156-2.4375 -1.66797-.558594-3.38281-.832032-5.14062-.820313 -.542969 0-1.08594.023437-1.62891.078125 -.539063.054688-1.07813.132812-1.60938.238281 -.535156.105469-1.05859.238281-1.58203.394531 -.519531.160157-1.03125.34375-1.53125.550782 -.503906.207031-.992187.441406-1.47266.695312 -.480469.257813-.945313.535156-1.39844.835938 -.449219.304687-.886719.628906-1.30469.972656 -.421875.34375-.824219.707031-1.20703 1.09375 -.386719.382812-.75.785156-1.09375 1.20703 -.347657.417969-.667969.855469-.972657 1.30859 -.300781.449219-.578124.917969-.835937 1.39453 -.257813.480469-.488281.972656-.695313 1.47266 -.210937.503907-.390624 1.01563-.550781 1.53516 -.15625.519531-.289062 1.04688-.394531 1.57812 -.105469.535156-.1875 1.07031-.238281 1.60938 -.054688.542969-.082031 1.08594-.082031 1.62891s.027343 1.08594.082031 1.625c.050781.542969.132812 1.07812.238281 1.61328 .105469.53125.238281 1.05859.394531 1.57812 .160157.519531.339844 1.03125.550781 1.53516 .207032.5.4375.992187.695313 1.47266 .257813.476562.535156.941406.835937 1.39453 .304688.453125.625.886719.972657 1.30859 .34375.421875.707031.824219 1.09375 1.20703 .382812.382812.785156.75 1.20703 1.09375 .417969.34375.855469.667969 1.30469.96875 .453124.304688.917968.582031 1.39844.839844 .480469.253906.96875.488281 1.47266.695312 .5.207032 1.01172.390625 1.53125.546875 .523438.160157 1.04688.289063 1.58203.398438 .53125.105469 1.07031.183593 1.60938.238281 .542968.050781 1.08594.078125 1.62891.078125 1.75781.007813 3.47266-.265625 5.14062-.824219 1.66797-.558594 3.20313-1.36719 4.60156-2.43359v2.71875h8.25391V480.32H357.051Zm0 13.3359c0 .589844-.058593 1.17969-.171875 1.75781C356.762 498.731 356.59 499.293 356.363 499.84c-.226562.546875-.503906 1.06641-.832031 1.5625 -.328125.492187-.703125.945312-1.12109 1.36328 -.417968.421875-.875.792969-1.36719 1.12109 -.492188.332031-1.01172.609375-1.55859.835937 -.546875.226563-1.11328.398438-1.69141.511719 -.582031.117187-1.16797.171875-1.76172.171875 -.589844 0-1.17969-.054688-1.75781-.171875 -.582032-.117187-1.14453-.285156-1.69141-.511719 -.546875-.230468-1.06641-.507812-1.55859-.835937 -.492188-.328125-.949219-.703125-1.36719-1.12109 -.417969-.417969-.792969-.875-1.12109-1.36719C340.207 500.906 339.926 500.387 339.699 499.84 339.477 499.293 339.305 498.727 339.188 498.148 339.074 497.566 339.016 496.98 339.016 496.387c0-.589844.058594-1.17578.171875-1.75781 .117188-.582031.289062-1.14453.515625-1.69141 .226563-.546875.503906-1.06641.832031-1.55859 .332032-.492187.703125-.949218 1.125-1.36719 .417969-.417969.875-.792969 1.36719-1.12109C343.52 488.562 344.039 488.285 344.586 488.059 345.133 487.832 345.695 487.66 346.277 487.547 346.859 487.43 347.445 487.371 348.035 487.371c.59375 0 1.17969.058594 1.76172.175781 .578125.113281 1.14453.285156 1.69141.511719 .546875.226562 1.06641.503906 1.55859.832031 .492187.332031.945313.703125 1.36328 1.125 .421875.417969.792969.871094 1.12109 1.36328 .332031.492188.609375 1.01562.835938 1.5625 .226562.546875.394531 1.10938.511718 1.69141 .113282.578126.171875 1.16406.171875 1.75781Z"/><path d="M395.102 483.055C393.703 481.988 392.168 481.176 390.5 480.617 388.832 480.063 387.121 479.785 385.363 479.797c-.542969 0-1.08594.023437-1.62891.078125 -.539063.054688-1.07812.132812-1.60938.238281 -.535156.105469-1.05859.238281-1.58203.394531 -.519531.160157-1.03125.34375-1.53125.550782 -.503907.207031-.992188.441406-1.47266.695312 -.480468.257813-.945312.535156-1.39844.835938 -.449219.304687-.886719.628906-1.30469.972656 -.421876.34375-.824219.707031-1.20703 1.09375 -.386718.382812-.75.785156-1.09375 1.20703 -.347656.417969-.667968.855469-.972656 1.30859 -.300781.449219-.578125.917969-.835938 1.39453 -.257812.480469-.488281.972656-.695312 1.47266C369.82 490.543 369.641 491.055 369.48 491.574c-.15625.519531-.289063 1.04688-.394531 1.57812 -.105469.535156-.1875 1.07031-.238282 1.60938 -.054687.542969-.082031 1.08594-.082031 1.62891s.027344 1.08594.082031 1.625c.050782.542969.132813 1.07812.238282 1.61328 .105468.53125.238281 1.05859.394531 1.57812 .160156.519531.339843 1.03125.550781 1.53516 .207031.5.4375.992187.695312 1.47266 .257813.476562.535157.941406.835938 1.39453 .304688.453125.625.886719.972656 1.30859 .34375.421875.707032.824219 1.09375 1.20703 .382813.382812.785156.75 1.20703 1.09375 .417968.34375.855468.667969 1.30469.96875 .453125.304688.917969.582031 1.39844.839844 .480469.253906.96875.488281 1.47266.695312 .5.207032 1.01172.390625 1.53125.546875 .523437.160157 1.04688.289063 1.58203.398438 .53125.105469 1.07031.183593 1.60938.238281 .542969.050781 1.08594.078125 1.62891.078125C387.121 512.992 388.832 512.719 390.5 512.16c1.66797-.558594 3.20313-1.36719 4.60156-2.43359v2.71875h8.25391V468.906H395.102ZM386.086 505.402c-.589844 0-1.17578-.054688-1.75781-.171875 -.582031-.113281-1.14453-.285157-1.69141-.511719C382.09 504.492 381.57 504.215 381.078 503.887 380.582 503.559 380.129 503.184 379.711 502.766c-.421876-.417969-.792969-.875-1.125-1.36719C378.258 500.906 377.98 500.387 377.754 499.84 377.527 499.293 377.355 498.727 377.238 498.148 377.125 497.566 377.066 496.98 377.066 496.387c0-.589844.058594-1.17969.171875-1.75781 .117188-.582031.289063-1.14453.515625-1.69141 .226563-.546875.503906-1.06641.832032-1.5625 .328124-.492188.703124-.945312 1.12109-1.36328 .417969-.421875.875-.792969 1.36719-1.125 .492187-.328125 1.01172-.605469 1.55859-.832031C383.18 487.828 383.746 487.656 384.324 487.543c.582031-.117188 1.16797-.175781 1.76172-.175781 .589843 0 1.17969.058593 1.75781.175781 .582031.113281 1.14453.285156 1.69141.511719 .546875.226562 1.06641.507812 1.55859.835937 .496094.328125.949219.703125 1.36719 1.12109 .417968.417969.792968.875 1.12109 1.36719 .332031.492188.609375 1.01172.835938 1.55859 .226562.546875.394531 1.11328.511719 1.69141 .113281.582032.171874 1.16797.171874 1.76172 0 .589844-.058593 1.17578-.171874 1.75781 -.117188.582031-.289063 1.14453-.515626 1.69141 -.226562.546875-.503906 1.06641-.832031 1.55859 -.328125.492187-.703125.945312-1.12109 1.36719 -.417969.417969-.875.789063-1.36719 1.12109 -.492188.328125-1.01172.605469-1.55859.832031 -.542968.226562-1.10938.398438-1.6875.511719 -.582031.117187-1.16797.171875-1.76172.171875Z"/><path d="M441.691 480.336h8.25391v32.1055H441.691Z"/><path d="M445.816 467.641c-.328125-.003906-.65625.027344-.980468.089844 -.328126.0625-.640626.15625-.949219.28125 -.304688.125-.597657.277343-.871094.457031 -.277344.183594-.53125.390625-.769531.621094 -.234375.234375-.445313.484375-.628906.757812 -.1875.277344-.34375.566406-.472657.867188 -.128906.304687-.226562.621094-.292969.945312 -.066406.324219-.101562.648438-.101562.980469 -.003906.332031.027344.65625.089844.984375 .0625.324219.15625.636719.277344.945312 .125.304688.28125.597657.460937.871094 .183594.277344.390625.535156.621094.769532 .230469.234374.484375.445312.757812.628906 .273438.1875.5625.34375.867188.472656 .304687.128906.621093.226562.941406.292969 .324219.066406.652344.101562.984375.101562 .328125.003907.65625-.027343.980469-.089843 .324219-.0625.640625-.15625.949219-.277344 .304687-.125.59375-.277344.871093-.460938 .277344-.179687.53125-.386718.769531-.621094 .234376-.230468.445313-.484374.628907-.757812 .1875-.273438.34375-.5625.472656-.867188 .128906-.304687.226563-.617187.292969-.941406 .066406-.324218.101562-.652344.101562-.984375 .007813-.332031-.019531-.660156-.078125-.984375C450.68 471.395 450.586 471.078 450.465 470.77c-.125-.308593-.277344-.601562-.457032-.878906 -.179687-.277344-.390624-.535156-.621093-.769531 -.234375-.238282-.488281-.449219-.761719-.632813 -.277344-.1875-.566406-.34375-.875-.46875 -.304688-.128906-.621094-.222656-.945312-.285156 -.328126-.066406-.65625-.097656-.988282-.09375Z"/><path d="M498.156 479.797c-.542969 0-1.08594.023437-1.625.078125 -.542969.054688-1.07812.132812-1.61328.238281 -.53125.105469-1.05859.238281-1.57812.394531 -.519532.160157-1.03125.34375-1.53125.550782 -.503906.207031-.996094.441406-1.47266.695312 -.480469.257813-.945313.535156-1.39844.835938 -.453125.304687-.886719.628906-1.30859.972656 -.417968.34375-.820312.707031-1.20703 1.09375 -.382813.382812-.746094.785156-1.09375 1.20703 -.34375.417969-.667969.855469-.96875 1.30859 -.300781.449219-.582031.914063-.835937 1.39453 -.257813.480469-.488282.972656-.699219 1.47266 -.207031.503907-.390625 1.01172-.546875 1.53516 -.160156.519531-.289063 1.04688-.394532 1.57812 -.109374.535156-.1875 1.07031-.242187 1.60938 -.050781.542969-.078125 1.08594-.078125 1.62891s.027344 1.08594.078125 1.625c.054687.542969.132813 1.07812.242187 1.61328 .105469.53125.234376 1.05859.394532 1.57812 .15625.519531.339844 1.03125.546875 1.53516 .210937.5.441406.992187.699219 1.47266 .253906.476562.535156.941406.835937 1.39453 .300781.453125.625.886719.96875 1.30859 .347656.421875.710937.824219 1.09375 1.20703 .386719.382812.789063.75 1.20703 1.09375 .421875.34375.855469.667969 1.30859.96875 .453125.304688.917969.582031 1.39844.839844 .476562.253906.96875.488281 1.47266.695312 .5.207032 1.01172.390625 1.53125.546875 .519531.160157 1.04688.289063 1.57812.398438 .535156.105469 1.07031.183593 1.61328.238281 .539062.050781 1.08203.078125 1.625.078125s1.08594-.027344 1.62891-.078125c.539063-.054688 1.07812-.132812 1.60938-.238281C501.93 512.559 502.453 512.43 502.977 512.27c.519532-.15625 1.03125-.339843 1.53125-.546875C505.012 511.516 505.5 511.281 505.98 511.027c.480469-.257813.945312-.535156 1.39844-.839844 .449219-.300781.886719-.625 1.30469-.96875 .421875-.34375.824218-.710938 1.20703-1.09375 .386719-.382812.75-.785156 1.09375-1.20703 .347656-.421875.667969-.855469.972656-1.30859 .300781-.453125.578125-.917969.835938-1.39453 .257812-.480469.488281-.972656.695312-1.47266 .210938-.503907.390625-1.01563.550781-1.53516 .15625-.519531.289063-1.04688.394532-1.57812 .105468-.535156.1875-1.07031.238281-1.61328 .054687-.539063.082031-1.08203.082031-1.625s-.027344-1.08594-.082031-1.62891c-.050781-.539063-.132813-1.07422-.238281-1.60938 -.105469-.53125-.238282-1.05859-.394532-1.57812 -.160156-.523438-.339843-1.03125-.550781-1.53516 -.207031-.5-.4375-.992187-.695312-1.47266C512.535 488.09 512.258 487.621 511.957 487.172c-.304687-.453125-.625-.890625-.972656-1.30859 -.34375-.421875-.707031-.824219-1.09375-1.20703 -.382813-.386719-.785156-.75-1.20703-1.09375 -.417969-.34375-.855469-.667969-1.30469-.972656C506.926 482.289 506.461 482.012 505.98 481.754 505.5 481.5 505.012 481.266 504.508 481.059c-.5-.207032-1.01172-.390625-1.53125-.550782 -.523437-.15625-1.04687-.289062-1.58203-.394531 -.53125-.105469-1.07031-.183593-1.60938-.238281C499.242 479.82 498.699 479.797 498.156 479.797Zm0 25.6055c-.589844 0-1.17578-.054688-1.75781-.171875 -.582032-.113281-1.14453-.285157-1.69141-.511719 -.546875-.226562-1.07031-.503906-1.5625-.832031 -.492187-.328125-.945312-.703125-1.36719-1.12109 -.417969-.417969-.792969-.875-1.12109-1.36719C490.328 500.906 490.051 500.387 489.824 499.84 489.598 499.293 489.426 498.727 489.309 498.148 489.195 497.566 489.137 496.98 489.137 496.387c0-.589844.058593-1.17969.171875-1.75781 .117187-.582031.289062-1.14453.515625-1.69141 .226562-.546875.503906-1.06641.832031-1.5625 .328125-.492188.703125-.945312 1.12109-1.36328 .417968-.421875.875-.792969 1.36719-1.125 .492188-.328125 1.01172-.605469 1.55859-.832031C495.25 487.828 495.816 487.656 496.394 487.543c.582031-.117188 1.16797-.175781 1.76172-.175781 .589844 0 1.17578.058593 1.75781.175781 .582032.113281 1.14453.285156 1.69141.511719 .546875.226562 1.06641.507812 1.55859.835937 .492188.328125.949219.703125 1.36719 1.12109 .417969.417969.792969.875 1.12109 1.36719 .328125.492188.605468 1.01172.832031 1.55859C506.711 493.484 506.883 494.051 507 494.629c.113281.582032.171875 1.16797.171875 1.76172 0 .589844-.058594 1.17578-.171875 1.75781 -.117188.582031-.289062 1.14453-.515625 1.69141 -.226563.546875-.503906 1.06641-.832031 1.55859 -.328125.492187-.703125.945312-1.12109 1.36719 -.417969.417969-.875.789063-1.36719 1.12109 -.492187.328125-1.01172.605469-1.55859.832031 -.546875.226562-1.10938.398438-1.69141.511719 -.578124.117187-1.16406.171875-1.75781.171875Z"/><path clip-path="url(#e)" d="M262.066 468.906h-31.668v7.36719h11.7266v36.1719h8.22266V476.273h11.7187Z"/><path d="M422.223 503.648L414.883 480.336H406.211l11.0117 32.1094h9.93359l11.0781-32.1094H429.566Z"/><path clip-path="url(#f)" d="M537.102 487.992V480.336H533.234c-3.02344 0-5.66797 1.57812-6.38281 5.39453V480.336H518.578v32.125h8.27344V493.191c0-3.48828 2.23828-5.19922 5.72656-5.19922Z"/></g></svg>