<svg viewBox="0 -3e-06 768 768" xmlns="http://www.w3.org/2000/svg" xmlns:xlink="http://www.w3.org/1999/xlink"><defs><clipPath id="a"><path d="M76 76.8008h641V691H76Z"/></clipPath><clipPath id="b"><path d="M242.922 76.8008v613.613c1.80078.128907 3.59766.128907 5.39844.128907h295.629V76.8008Zm347.281 0H543.949v613.613h1.02734c74.7734 0 140.43-61.0273 145.824-135.543l25.3086-342.656c5.52734-74.3867-51.1328-135.414-125.906-135.414Zm-387.109 0c-74.7734 0-131.434 61.0273-125.91 135.543L102.496 555C107.891 627.719 170.59 687.59 243.051 690.414V76.8008Z"/></clipPath><clipPath id="c"><path d="M243.047 245.688H550V443H243.047Z"/></clipPath><clipPath id="d"><path d="M543 506h7.54687v7H543Z"/></clipPath><clipPath id="e"><path d="M305 479h36v42.6875h-36Z"/></clipPath><clipPath id="f"><path d="M243.047 468H275v45H243.047Z"/></clipPath><path id="g" d="M-76.8-76.8h921.6v921.6H-76.8Z"/></defs><g fill="#FFF"><use xlink:href="#g"/><use xlink:href="#g"/></g><g clip-path="url(#a)"><path clip-path="url(#b)" d="M76.8008 76.8008H716.09v613.613H76.8008Z"/></g><g fill="#FFF"><path d="M319.762 386.937c.890625 0 1.77734-.042969 2.66406-.132812C323.312 386.719 324.191 386.59 325.066 386.414c.875-.171874 1.73828-.390624 2.58984-.648437 .851562-.257813 1.6875-.558594 2.51172-.898437 .824219-.339844 1.625-.71875 2.41016-1.14063 .789063-.417968 1.55078-.875 2.28906-1.37109 .742187-.496094 1.45703-1.02344 2.14453-1.58984 .6875-.5625 1.34766-1.16016 1.97656-1.78906 .628907-.632812 1.22656-1.28906 1.79297-1.98047 .566406-.6875 1.09375-1.40234 1.58984-2.14062 .496094-.742188.953125-1.50391 1.37109-2.28906 .421874-.785156.800781-1.58984 1.14062-2.41406 .34375-.820313.640626-1.66016.902344-2.51172 .257813-.851563.472656-1.71484.648438-2.58594 .171875-.875.300781-1.75391.390625-2.64063 .085937-.886718.128906-1.77344.128906-2.66406s-.042969-1.78125-.128906-2.66797c-.085938-.882812-.21875-1.76562-.390625-2.63672 -.175782-.875-.390625-1.73828-.648438-2.58984 -.257812-.851563-.558594-1.6875-.898437-2.51172C344.543 348.52 344.164 347.715 343.746 346.93c-.421875-.785157-.878906-1.54688-1.375-2.28906C341.879 343.902 341.348 343.188 340.781 342.5c-.5625-.6875-1.16016-1.34766-1.78906-1.97656C338.363 339.891 337.703 339.297 337.016 338.73 336.324 338.164 335.609 337.637 334.871 337.141 334.129 336.645 333.367 336.187 332.582 335.77 331.797 335.348 330.992 334.969 330.168 334.629 329.348 334.289 328.508 333.988 327.656 333.73 326.805 333.473 325.941 333.254 325.07 333.082c-.875-.175781-1.75391-.304687-2.64062-.390625 -.886719-.089844-1.77344-.132812-2.66406-.132812s-1.78125.042968-2.66797.132812c-.882812.085938-1.76562.214844-2.63672.390625 -.875.171875-1.73828.390625-2.58984.648438 -.851563.257812-1.6875.558593-2.51172.898437 -.824219.339844-1.625.722656-2.41406 1.14062 -.785156.421875-1.54687.878907-2.28516 1.37109 -.742187.496094-1.45703 1.02734-2.14453 1.58984 -.6875.566406-1.34766 1.16406-1.97656 1.79297C299.91 341.152 299.312 341.813 298.746 342.5c-.5625.691406-1.09375 1.40234-1.58984 2.14453 -.492188.742188-.949219 1.50391-1.37109 2.28906 -.417968.785156-.800781 1.58984-1.14062 2.41406 -.339843.820313-.640625 1.66016-.898437 2.51172 -.257813.851563-.472656 1.71484-.648438 2.58594 -.171875.875-.304687 1.75391-.390625 2.64063 -.085937.886718-.128906 1.77344-.128906 2.66406s.042969 1.78125.128906 2.66406c.089844.886719.21875 1.76563.394531 2.64063 .171876.875.386719 1.73437.648438 2.58594 .257812.855469.554688 1.69141.898438 2.51172 .339843.824218.71875 1.62891 1.14062 2.41406 .417969.785156.875 1.54688 1.37109 2.28906 .492188.738281 1.02344 1.45312 1.58984 2.14062 .5625.6875 1.16016 1.34766 1.78906 1.97656 .628907.628906 1.28906 1.22656 1.97656 1.79297 .691406.5625 1.40234 1.09375 2.14453 1.58984 .738282.492187 1.50391.949219 2.28906 1.37109 .785156.417969 1.58594.796876 2.41016 1.14063 .824219.339843 1.66016.640624 2.51172.898437 .851562.257813 1.71484.472656 2.58594.648437 .875.171876 1.75391.304688 2.64062.390626 .886719.085937 1.77344.132812 2.66406.132812Z"/><path d="M500.223 359.75c0 .890625-.042968 1.78125-.128906 2.66797 -.089844.882812-.21875 1.76562-.394531 2.63672 -.171875.875-.386719 1.73828-.648438 2.58984 -.257812.851563-.554687 1.6875-.898437 2.51172 -.339844.824219-.71875 1.625-1.14062 2.41016 -.417969.785156-.875 1.55078-1.37109 2.28906C495.148 375.598 494.617 376.313 494.051 377c-.5625.6875-1.16016 1.34766-1.78906 1.97656 -.632813.628907-1.28906 1.22656-1.98047 1.79297 -.6875.5625-1.40234 1.09375-2.14062 1.58984 -.742187.492187-1.50391.949219-2.28906 1.37109 -.785156.417969-1.58984.800781-2.41406 1.14062 -.820312.339844-1.66016.640625-2.51172.898437 -.851562.257813-1.71484.472657-2.58594.648438 -.875.171875-1.75391.304687-2.64062.390625 -.886719.089844-1.77344.132812-2.66406.132812s-1.78125-.042968-2.66406-.132812C469.484 386.723 468.606 386.59 467.73 386.418c-.875-.175781-1.73438-.390625-2.58984-.648438 -.851563-.257812-1.6875-.558593-2.51172-.898437 -.820312-.339844-1.625-.722656-2.41016-1.14062C459.434 383.309 458.668 382.852 457.93 382.359 457.188 381.863 456.473 381.332 455.785 380.77c-.6875-.566406-1.34766-1.16406-1.97656-1.79297C453.18 378.348 452.582 377.687 452.016 377c-.5625-.6875-1.09375-1.40234-1.58594-2.14453 -.496094-.738281-.953126-1.50391-1.375-2.28906C448.637 371.781 448.258 370.98 447.914 370.156 447.574 369.332 447.273 368.496 447.016 367.645 446.758 366.793 446.543 365.93 446.367 365.055 446.195 364.184 446.063 363.301 445.977 362.418 445.891 361.531 445.848 360.641 445.848 359.75c0-.890625.042969-1.77734.128906-2.66406 .085938-.886719.21875-1.76563.390626-2.64063 .175781-.871093.390624-1.73437.648437-2.58594 .257813-.851563.558594-1.69141.898437-2.51172 .34375-.824218.722657-1.62891 1.14063-2.41406 .421874-.785156.878906-1.54688 1.375-2.28906 .492187-.738281 1.02344-1.45312 1.58594-2.14062 .566406-.6875 1.16406-1.34766 1.79297-1.97656 .628906-.632813 1.28906-1.22656 1.97656-1.79297s1.40234-1.09375 2.14453-1.58984c.738281-.496093 1.50391-.953125 2.28906-1.37109 .785156-.421876 1.58984-.800782 2.41016-1.14063 .824219-.339843 1.66016-.640624 2.51172-.898437C465.996 333.477 466.855 333.258 467.73 333.086c.875-.175782 1.75391-.304688 2.64062-.390626 .882812-.089843 1.77344-.132812 2.66406-.132812s1.77734.042969 2.66406.132812c.886719.085938 1.76562.214844 2.64062.390626 .871094.171874 1.73438.390624 2.58594.648437 .851563.257813 1.69141.558594 2.51172.898437 .824219.339844 1.62891.71875 2.41406 1.14063 .785157.417968 1.54688.875 2.28906 1.37109 .738281.496094 1.45312 1.02344 2.14062 1.58984 .691406.566406 1.34766 1.16016 1.98047 1.79297 .628906.628906 1.22656 1.28906 1.78906 1.97656 .566407.6875 1.09766 1.40234 1.58984 2.14062 .496094.742188.953125 1.50391 1.37109 2.28906 .421875.785156.800781 1.58984 1.14062 2.41406 .34375.820313.640625 1.66016.898437 2.51172 .261719.851563.476563 1.71484.648438 2.58594 .175781.875.304687 1.75391.394531 2.64063 .085938.886718.128906 1.77344.128906 2.66406Z"/><path clip-path="url(#c)" d="M243.129 359.75c0 42.332 34.3086 76.6367 76.6328 76.6367C324.551 436.391 329.297 435.953 334 435.066 338.703 434.18 343.285 432.863 347.742 431.113c4.45703-1.74609 8.71094-3.89453 12.7656-6.44141C364.559 422.121 368.34 419.219 371.844 415.957L396.41 442.691l24.5664-26.7188C424.484 419.23 428.262 422.133 432.316 424.68c4.05078 2.54297 8.30469 4.69141 12.7578 6.4375 4.45703 1.74609 9.03516 3.0625 13.7383 3.94922 4.70312.882813 9.44922 1.32422 14.2344 1.31641 42.3281 0 76.668-34.3125 76.668-76.6367 .003906-2.65625-.132813-5.30859-.40625-7.95313 -.273438-2.64453-.683594-5.26562-1.23438-7.86719 -.546875-2.60156-1.22656-5.16797-2.04297-7.69922 -.816406-2.53125-1.75781-5.01172-2.83203-7.44141C542.125 326.352 540.926 323.98 539.605 321.676 538.285 319.367 536.848 317.137 535.293 314.98 533.738 312.82 532.078 310.75 530.309 308.77 528.539 306.785 526.668 304.898 524.703 303.109l25.0742-27.2813H494.188C490.613 273.395 486.949 271.098 483.203 268.938c-3.75-2.16016-7.57031-4.17578-11.4688-6.05078 -3.89844-1.875-7.86328-3.60156-11.8906-5.17969C455.816 256.129 451.738 254.703 447.602 253.43 443.469 252.156 439.293 251.039 435.078 250.078 430.859 249.117 426.613 248.316 422.336 247.672c-4.27734-.644531-8.57422-1.125-12.8867-1.44922 -4.3125-.324218-8.63281-.484375-12.957-.484375 -4.32813 0-8.64453.160157-12.9609.484375 -4.3125.324219-8.60547.804688-12.8828 1.44922 -4.27734.644531-8.52734 1.44531-12.7422 2.40625 -4.21875.960937-8.39453 2.07812-12.5273 3.35156 -4.13281 1.27344-8.21484 2.69922-12.2422 4.27734C329.109 259.285 325.148 261.012 321.25 262.887c-3.89844 1.875-7.72266 3.89063-11.4688 6.05078 -3.75 2.16016-7.41016 4.45703-10.9883 6.89062H243.047l25.0781 27.2813C266.156 304.898 264.289 306.785 262.52 308.77 260.75 310.754 259.09 312.824 257.535 314.98 255.984 317.137 254.547 319.371 253.227 321.68 251.906 323.984 250.707 326.355 249.637 328.785 248.563 331.219 247.617 333.699 246.805 336.23 245.988 338.762 245.309 341.328 244.762 343.93 244.215 346.531 243.805 349.152 243.531 351.797 243.258 354.441 243.125 357.094 243.129 359.75Zm281.77 0c0 1.69922-.082032 3.39453-.25 5.08594 -.164063 1.6875-.414063 3.36719-.746094 5.03516C523.57 371.535 523.16 373.18 522.664 374.809c-.492187 1.625-1.0625 3.22266-1.71484 4.78906 -.648438 1.57031-1.375 3.10547-2.17578 4.60156 -.800782 1.5-1.67188 2.95313-2.61719 4.36719C515.215 389.977 514.203 391.34 513.125 392.652 512.047 393.969 510.91 395.223 509.707 396.426 508.508 397.625 507.25 398.766 505.938 399.844 504.625 400.922 503.262 401.93 501.848 402.875 500.437 403.82 498.98 404.691 497.484 405.492c-1.5.800781-3.03125 1.52734-4.60156 2.17578 -1.57031.648437-3.16797 1.22266-4.79297 1.71484 -1.625.492188-3.26953.90625-4.9375 1.23438 -1.66406.332031-3.34375.582031-5.03516.75 -1.69141.164062-3.38281.25-5.08203.25 -1.69922 0-3.39453-.085938-5.08594-.25 -1.6875-.167969-3.36719-.417969-5.03125-.75 -1.66797-.328126-3.3125-.742188-4.9375-1.23438 -1.625-.492187-3.22266-1.06641-4.79297-1.71484 -1.57031-.648438-3.10547-1.375-4.60156-2.17578 -1.5-.800782-2.95313-1.67188-4.36719-2.61719C442.809 401.93 441.445 400.922 440.133 399.844 438.82 398.766 437.562 397.625 436.359 396.426 435.16 395.223 434.02 393.965 432.941 392.652 431.863 391.34 430.855 389.977 429.91 388.566 428.969 387.152 428.094 385.699 427.293 384.199 426.492 382.703 425.77 381.168 425.117 379.598 424.469 378.031 423.898 376.434 423.402 374.809 422.91 373.18 422.5 371.535 422.168 369.871c-.332031-1.66797-.582031-3.34766-.75-5.03516C421.254 363.145 421.172 361.449 421.172 359.75c0-1.69922.082031-3.39062.246094-5.08203 .167969-1.69141.417969-3.36719.75-5.03516C422.5 347.969 422.91 346.32 423.402 344.695c.492187-1.625 1.06641-3.22266 1.71484-4.79297 .652343-1.56641 1.375-3.10156 2.17578-4.60156C428.094 333.805 428.969 332.348 429.91 330.937 430.855 329.523 431.863 328.16 432.941 326.848 434.02 325.535 435.16 324.277 436.359 323.078 437.562 321.875 438.82 320.738 440.133 319.66c1.3125-1.07812 2.67578-2.08984 4.08594-3.03125 1.41406-.945312 2.86719-1.81641 4.36719-2.61719 1.49609-.800781 3.03125-1.52734 4.60156-2.17578C454.758 311.184 456.355 310.613 457.98 310.121c1.625-.492188 3.26953-.90625 4.9375-1.23828 1.66406-.332031 3.34375-.578124 5.03125-.746093 1.69141-.167969 3.38672-.25 5.08594-.25 1.69922 0 3.39063.082031 5.08203.25 1.69141.167969 3.37109.414062 5.03516.746093 1.66797.332032 3.3125.746094 4.9375 1.23828 1.625.492187 3.22266 1.0625 4.79297 1.71484 1.57031.648437 3.10156 1.375 4.60156 2.17578 1.49609.800781 2.95313 1.67188 4.36328 2.61719C503.262 317.57 504.625 318.582 505.938 319.66c1.3125 1.07812 2.57031 2.21484 3.76953 3.41797C510.91 324.277 512.047 325.535 513.125 326.848 514.203 328.16 515.215 329.523 516.16 330.937c.941406 1.41016 1.8125 2.86719 2.61328 4.36328 .800781 1.5 1.52734 3.03516 2.17578 4.60156C521.602 341.473 522.172 343.07 522.664 344.695c.496094 1.625.90625 3.27344 1.23828 4.9375 .332031 1.66797.582031 3.34375.746094 5.03516 .167968 1.69141.25 3.38281.25 5.08203Zm-128.5-88.9375c9.88672-.011719 19.6719.949219 29.3633 2.88672 9.69141 1.9375 19.0977 4.8125 28.2187 8.625 -32.7344 12.5234-57.5547 41.8047-57.5547 75.9297 0-34.1289-24.8242-63.4141-57.5625-75.9336 9.11328-3.80859 18.5117-6.68359 28.1953-8.62109 9.68359-1.93359 19.4648-2.89844 29.3398-2.88672ZM319.762 307.887c1.69922 0 3.39453.082031 5.08203.25 1.69141.167969 3.37109.414062 5.03516.746093 1.66797.332032 3.3125.746094 4.9375 1.23828 1.625.492187 3.22266 1.0625 4.79297 1.71484 1.57031.648437 3.10156 1.375 4.60156 2.17578 1.49609.800781 2.95312 1.67188 4.36719 2.61719C349.988 317.57 351.352 318.582 352.664 319.66c1.3125 1.07812 2.57031 2.21484 3.77344 3.41797 1.19922 1.19922 2.33984 2.45703 3.41797 3.76953C360.93 328.16 361.941 329.523 362.887 330.937c.941406 1.41016 1.81641 2.86719 2.61719 4.36328 .800782 1.5 1.52344 3.03516 2.17578 4.60156C368.328 341.473 368.898 343.07 369.395 344.695c.492188 1.625.902344 3.27344 1.23438 4.9375 .332032 1.66797.582032 3.34375.746094 5.03516 .167969 1.69141.25 3.38281.25 5.08203 0 1.69922-.082031 3.39453-.25 5.08594 -.164062 1.6875-.414062 3.36719-.746094 5.03516 -.332031 1.66406-.742187 3.30859-1.23438 4.9375 -.496093 1.625-1.06641 3.22266-1.71484 4.78906 -.652344 1.57031-1.375 3.10547-2.17578 4.60156 -.800781 1.5-1.67578 2.95313-2.61719 4.36719C361.941 389.977 360.93 391.34 359.855 392.652c-1.07812 1.3125-2.21875 2.57031-3.41797 3.77344 -1.20312 1.19922-2.46094 2.33984-3.77344 3.41797 -1.3125 1.07812-2.67578 2.08594-4.08594 3.03125 -1.41406.945312-2.87109 1.81641-4.36719 2.61719 -1.5.800781-3.03125 1.52734-4.60156 2.17578 -1.57031.648437-3.16797 1.22266-4.79297 1.71484 -1.625.492188-3.26953.90625-4.9375 1.23438 -1.66406.332031-3.34375.582031-5.03516.75 -1.6875.164062-3.38281.25-5.08203.25 -1.69922 0-3.39453-.085938-5.08203-.25 -1.69141-.167969-3.37109-.417969-5.03516-.75 -1.66797-.328126-3.3125-.742188-4.9375-1.23438 -1.625-.492187-3.22266-1.06641-4.79297-1.71484 -1.57031-.648438-3.10156-1.375-4.60156-2.17578C293.816 404.691 292.359 403.82 290.949 402.875 289.535 401.93 288.172 400.922 286.859 399.844 285.547 398.766 284.289 397.625 283.09 396.426 281.887 395.223 280.746 393.969 279.672 392.652 278.594 391.34 277.582 389.977 276.637 388.566c-.941407-1.41406-1.8125-2.86719-2.61328-4.36719 -.800782-1.49609-1.52734-3.03125-2.17969-4.60156 -.648438-1.56641-1.21875-3.16406-1.71484-4.78906 -.492187-1.62891-.902344-3.27344-1.23438-4.9375 -.332031-1.66797-.582031-3.34766-.746093-5.03516 -.167969-1.69141-.25-3.38672-.25-5.08594 0-1.69922.082031-3.39062.25-5.08203 .164062-1.69141.414062-3.36719.746093-5.03516 .332031-1.66406.742188-3.3125 1.23438-4.9375 .496094-1.625 1.06641-3.22266 1.71484-4.79297 .652344-1.56641 1.37891-3.10156 2.17969-4.60156 .800781-1.49609 1.67187-2.95313 2.61328-4.36328C277.582 329.523 278.594 328.16 279.672 326.848c1.07422-1.3125 2.21484-2.57031 3.41797-3.76953C284.289 321.875 285.547 320.738 286.859 319.66c1.3125-1.07812 2.67578-2.08984 4.08984-3.03125 1.41016-.945312 2.86719-1.81641 4.36328-2.61719 1.5-.800781 3.03125-1.52734 4.60156-2.17578 1.57031-.652344 3.16797-1.22266 4.79297-1.71484 1.625-.492188 3.26953-.90625 4.9375-1.23828C311.309 308.551 312.988 308.305 314.68 308.137c1.6875-.167969 3.38281-.25 5.08203-.25Z"/><path clip-path="url(#d)" d="M547.109 506.277c-.414063 0-.8125.078125-1.19922.238281 -.382812.160156-.722656.386719-1.01562.679687 -.292969.292969-.519531.632813-.679687 1.01563 -.15625.382812-.238282.785156-.238282 1.19922 0 .417969.082032.816406.238282 1.19922 .160156.382813.386718.722656.679687 1.01562 .292969.296875.632813.519531 1.01562.679688 .386719.160156.785156.238281 1.19922.238281 .417969 0 .816406-.078125 1.19922-.238281 .382812-.160157.722656-.382813 1.01562-.679688 .296875-.292969.523437-.632812.679687-1.01562 .160156-.382813.238282-.78125.238282-1.19922 0-.414062-.078126-.8125-.238282-1.19922 -.160156-.382813-.386718-.722657-.679687-1.01563 -.292969-.292968-.632813-.519531-1.01562-.679687 -.382813-.15625-.78125-.238281-1.19922-.238281Zm0 5.77344c-.351563 0-.6875-.066406-1.01172-.199219 -.324218-.132812-.609375-.324218-.859375-.574218 -.246093-.246094-.4375-.535156-.570312-.859375 -.136719-.324219-.203125-.660157-.203125-1.01172 0-.351562.066406-.6875.203125-1.01172 .132812-.324219.324219-.609375.570312-.859375 .25-.246094.535157-.4375.859375-.570312 .324219-.136719.660156-.203125 1.01172-.203125 .351563 0 .6875.066406 1.01172.203125 .324218.132812.613281.324218.859375.570312 .25.25.441406.535156.574219.859375 .132812.324219.203124.660157.203124 1.01172 0 .351562-.070312.6875-.203124 1.01172 -.132813.324219-.324219.613281-.574219.859375 -.246094.25-.535157.441406-.859375.574218 -.324219.132813-.660156.199219-1.01172.199219Z"/><path d="M548.129 508.879c0-.128906-.023437-.253906-.074218-.375 -.050782-.117187-.125-.21875-.21875-.308594 -.097657-.085937-.207032-.148437-.328126-.1875 -.125-.039062-.25-.050781-.378906-.035156h-1V510.82h.488282V509.785h.535156L547.668 510.82h.535156L547.633 509.687c.160157-.070312.285157-.179688.375-.328125 .089844-.148437.128907-.308594.121094-.480469Zm-1.02344.472656H546.617V508.406h.488281c.328125 0 .53125.164062.53125.472656 0 .304688-.203125.472656-.53125.472656Z"/><path d="M278.945 485.34V479.941H270.68v32.125h8.27734V492.801c0-3.48828 2.23828-5.19922 5.72656-5.19922h4.53516V479.941H285.328c-3.02734 0-5.66016 1.58203-6.38281 5.39844Z"/><path d="M296.949 467.25c-.332031-.003906-.65625.027344-.980469.089844 -.328125.0625-.640625.152344-.949219.277344 -.304687.125-.597656.277343-.871093.460937 -.277344.179687-.53125.386719-.769532.621094 -.234375.230469-.445312.484375-.628906.757812 -.1875.273438-.34375.5625-.472656.867188 -.128906.304687-.226563.617187-.292969.941406 -.066406.324219-.101563.652344-.101563.984375 -.003906.328125.027344.65625.089844.980469 .0625.324219.15625.640625.277344.945312 .125.308594.28125.597657.460938.875 .183593.277344.390624.53125.621093.765625 .230469.238282.484375.445313.757813.632813 .273437.183593.5625.34375.867187.472656 .304688.125.621094.222656.941407.289063 .324218.070312.652343.101562.984374.105468 .328126.003906.65625-.027344.980469-.089844 .324219-.0625.640625-.15625.949219-.28125 .304688-.125.59375-.277343.871094-.457031 .277344-.183593.53125-.390625.769531-.621093 .234375-.234376.445313-.488282.628906-.761719 .1875-.273438.34375-.5625.472657-.867188 .128906-.304687.226562-.617187.292968-.941406 .066406-.324219.101563-.648437.101563-.980469C301.957 471.984 301.93 471.656 301.871 471.328 301.813 471.004 301.719 470.684 301.598 470.379 301.473 470.07 301.32 469.777 301.141 469.5 300.961 469.219 300.75 468.965 300.52 468.727 300.285 468.492 300.031 468.281 299.758 468.094c-.277343-.183594-.566406-.339844-.875-.46875 -.304687-.125-.621093-.21875-.945312-.285156 -.328125-.0625-.65625-.09375-.988281-.089844Z"/><path d="M292.824 479.941h8.25391v32.1094H292.824Z"/><path clip-path="url(#e)" d="M323.805 479.402c-1.75781-.007813-3.47266.265625-5.14063.824218 -1.66797.558594-3.20312 1.36719-4.60156 2.43359V479.941H305.828v41.5352h8.25391V509.336c1.39844 1.0625 2.92969 1.875 4.59375 2.43359 1.66406.558594 3.375.835938 5.12891.832031 .542968 0 1.08594-.027343 1.62891-.082031 .539062-.050781 1.07812-.132812 1.60938-.238281 .535156-.105469 1.05859-.238281 1.58203-.394531 .519531-.160157 1.03125-.339844 1.53125-.550781 .503906-.207032.992188-.4375 1.47266-.695313 .480469-.253906.945313-.535156 1.39844-.835937 .449218-.304688.886718-.625 1.30469-.972657 .421875-.34375.824219-.707031 1.20703-1.09375 .386719-.382812.75-.785156 1.09375-1.20312 .347657-.421875.667969-.859375.972657-1.30859 .300781-.453124.578125-.917968.835937-1.39844 .257813-.480469.488282-.96875.695313-1.47266 .210937-.5.390625-1.01172.550781-1.53125 .15625-.523438.289062-1.04688.394531-1.58203 .105469-.53125.1875-1.07031.238281-1.60938 .054688-.542968.082032-1.08203.082032-1.62891 0-.542968-.027344-1.08594-.082032-1.625C340.27 493.84 340.188 493.301 340.082 492.77c-.105469-.535156-.238281-1.0625-.394531-1.58203 -.160156-.519531-.339844-1.03125-.550781-1.53125 -.207031-.503906-.4375-.996094-.695313-1.47266 -.257812-.480469-.535156-.945313-.835937-1.39844 -.304688-.453125-.625-.886718-.972657-1.30859 -.34375-.417968-.707031-.820312-1.09375-1.20703 -.382812-.382812-.785156-.746093-1.20703-1.09375 -.417969-.34375-.855469-.667969-1.30469-.96875 -.453125-.300781-.917969-.582031-1.39844-.835937 -.480468-.257813-.96875-.488282-1.47266-.699219 -.5-.207031-1.01172-.390625-1.53125-.546875 -.523438-.15625-1.04688-.289062-1.58203-.394531 -.53125-.109375-1.07031-.1875-1.60938-.242188C324.891 479.438 324.348 479.41 323.805 479.41ZM323.078 505.012c-.59375 0-1.17969-.058594-1.76172-.171875 -.582031-.117188-1.14453-.289063-1.69141-.515625C319.078 504.098 318.559 503.82 318.066 503.492 317.574 503.164 317.117 502.789 316.699 502.371c-.417969-.417969-.792969-.875-1.12109-1.36719C315.25 500.512 314.973 499.992 314.746 499.445 314.52 498.898 314.348 498.332 314.23 497.754 314.117 497.172 314.059 496.586 314.059 495.992c0-.589844.058594-1.17969.171875-1.75781 .117187-.582031.289062-1.14453.515625-1.69141 .226562-.546875.503906-1.06641.832031-1.55859 .332031-.492187.703125-.949219 1.125-1.36719 .417969-.417969.871094-.792969 1.36328-1.12109 .496094-.328125 1.01562-.609375 1.5625-.835938C320.176 487.438 320.738 487.266 321.32 487.148c.578126-.113282 1.16797-.171876 1.75781-.171876 .59375 0 1.17969.058594 1.76172.171876 .578125.117187 1.14453.289062 1.69141.515624 .546875.226563 1.06641.503907 1.55859.832032 .492187.332031.945312.703125 1.36719 1.125 .417969.417968.789063.875 1.11719 1.36719C330.906 491.48 331.184 492 331.41 492.547c.226563.546875.394532 1.10938.511719 1.69141 .113281.582031.171875 1.16797.171875 1.75781 0 .59375-.058594 1.17969-.171875 1.76172 -.117187.578126-.289063 1.14453-.515625 1.69141 -.226562.546875-.503906 1.06641-.832031 1.55859 -.328125.492188-.703125.945313-1.12109 1.36328 -.417969.421875-.875.792968-1.36719 1.12109 -.492188.332031-1.01172.609374-1.55859.835937 -.546875.226563-1.10938.394531-1.69141.511719 -.582032.113281-1.16797.171875-1.75781.171875Z"/><path d="M483.891 493.184L479.074 491.859C475.906 491.035 474.672 490.059 474.672 488.387c0-1.67578 1.73438-2.76953 4.21875-2.76953 2.36328 0 4.21484 1.54687 4.21484 3.52344v.1875h7.60938v-.1875c0-5.82813-4.75-9.73828-11.8242-9.73828 -7.00781 0-12.0977 3.91016-12.0977 9.30078 0 4.19141 2.78516 7.35156 7.62891 8.66406l4.61328 1.25C482.539 499.59 483.84 500.664 483.84 502.594c0 2.03125-1.89062 3.40234-4.68359 3.40234 -2.92578 0-4.88672-1.85156-4.88672-4.59766V501.215H466.195v.183594c0 6.58594 5.28906 11.1875 12.8945 11.1875 7.31641 0 12.625-4.49219 12.625-10.6836 0-3.02344-1.35547-6.99609-7.82422-8.71875Z"/><path d="M369.699 482.66c-1.39844-1.06641-2.93359-1.875-4.60156-2.43359C363.43 479.668 361.715 479.395 359.957 479.402c-.546875 0-1.08594.027344-1.62891.082031 -.539063.050781-1.07812.132813-1.60938.238281 -.535156.105469-1.05859.238282-1.58203.394532 -.519531.15625-1.03125.339843-1.53125.546874 -.503907.210938-.992188.441407-1.47266.699219 -.480468.253907-.945312.535157-1.39844.835938 -.449219.300781-.886719.625-1.30859.96875 -.417969.347656-.820312.710937-1.20312 1.09375 -.386718.386719-.75.789062-1.09375 1.20703 -.347656.421875-.667968.855469-.972656 1.30859 -.300781.453125-.582031.917968-.835938 1.39844 -.257812.476563-.488281.96875-.695312 1.47266 -.210938.5-.390625 1.01172-.550781 1.53125 -.15625.519531-.289063 1.04687-.394531 1.58203 -.105469.53125-.1875 1.07031-.238282 1.60938 -.054687.542968-.082031 1.08203-.082031 1.625 0 .546875.027344 1.08594.082031 1.62891 .050782.539062.132813 1.07812.238282 1.60938 .105468.535156.238281 1.0625.394531 1.58203 .160156.519532.339843 1.03125.550781 1.53125 .207031.503906.4375.992188.695312 1.47266 .253907.480469.535157.945313.835938 1.39844 .304688.449219.625.886719.972656 1.30859 .34375.417968.707032.820312 1.09375 1.20703 .382813.382813.785156.746094 1.20312 1.08984 .421875.347656.859375.671875 1.30859.972656 .453125.300781.917969.582031 1.39844.835937 .480469.257813.96875.488282 1.47266.695313 .5.210937 1.01172.394531 1.53125.550781 .523437.15625 1.04688.289063 1.58203.394532 .53125.105468 1.07031.1875 1.60938.238281 .542969.054687 1.08203.082031 1.62891.082031 1.75781.007812 3.47266-.265625 5.14062-.824219 1.66797-.558593 3.19922-1.37109 4.60156-2.43359v2.71484h8.25391V479.93H369.699Zm0 13.3359c0 .59375-.058594 1.17969-.171875 1.76172C369.41 498.34 369.238 498.902 369.012 499.449 368.785 499.996 368.508 500.516 368.18 501.008 367.852 501.5 367.477 501.957 367.059 502.375c-.421875.417969-.875.792969-1.36719 1.12109 -.492187.328125-1.01172.605468-1.55859.832031 -.546874.226563-1.11328.398437-1.69531.515625 -.578125.113281-1.16406.171875-1.75781.171875s-1.17969-.058594-1.75781-.171875C358.34 504.727 357.777 504.555 357.23 504.328c-.546875-.226563-1.06641-.503906-1.5625-.832031 -.492188-.332032-.945313-.703125-1.36328-1.125C353.887 501.953 353.512 501.5 353.184 501.008c-.332032-.492187-.609375-1.01562-.835938-1.5625 -.226562-.546874-.394531-1.10937-.511718-1.69141 -.113282-.578125-.171876-1.16797-.171876-1.75781 0-.59375.058594-1.17969.171876-1.76172 .117187-.578125.289062-1.14453.515624-1.69141 .226563-.546875.503907-1.06641.832032-1.55859 .332031-.492187.703125-.945313 1.125-1.36328C354.727 489.199 355.18 488.828 355.676 488.5c.492188-.332031 1.01172-.609375 1.55859-.835938C357.781 487.437 358.344 487.27 358.926 487.152 359.508 487.039 360.094 486.98 360.684 486.98c.59375 0 1.17969.058593 1.76172.171875 .578126.117187 1.14453.289062 1.69141.515625 .546875.226562 1.06641.503906 1.55859.832031 .492188.328125.945313.703125 1.36328 1.12109 .421875.417968.792968.875 1.12109 1.36719C368.512 491.48 368.789 492 369.016 492.547c.222656.546875.394531 1.10938.511719 1.69141 .113281.582031.171875 1.16797.171875 1.75781Z"/><path d="M407.75 482.66c-1.39844-1.06641-2.93359-1.875-4.60156-2.43359C401.48 479.668 399.77 479.395 398.012 479.402c-.546875 0-1.08594.027344-1.62891.082031 -.539062.050781-1.07812.132813-1.60937.238281 -.535157.105469-1.05859.238282-1.58203.394532 -.519531.15625-1.03125.339843-1.53125.546874 -.503906.210938-.992187.441407-1.47266.699219 -.480469.253907-.945312.535157-1.39844.835938 -.449218.300781-.886718.625-1.30859.96875 -.417969.347656-.820313.710937-1.20312 1.09375 -.386719.386719-.75.789062-1.09375 1.20703 -.347656.421875-.671875.855469-.972656 1.30859 -.300782.453125-.582032.917968-.835938 1.39844 -.257812.476563-.488281.96875-.695312 1.47266 -.210938.5-.390626 1.01172-.550782 1.53125 -.15625.519531-.289062 1.04687-.394531 1.58203 -.105469.53125-.1875 1.07031-.238281 1.60938 -.054688.542968-.082032 1.08203-.082032 1.625 0 .546875.027344 1.08594.082032 1.62891 .050781.539062.132812 1.07812.238281 1.60938 .105469.535156.238281 1.0625.394531 1.58203 .160156.519532.339844 1.03125.550782 1.53125 .207031.503906.4375.992188.695312 1.47266 .253906.480469.535156.945313.835938 1.39844 .300781.449219.625.886719.972656 1.30859 .34375.417968.707031.820312 1.09375 1.20703 .382812.382813.785156.746094 1.20312 1.08984 .421875.347656.859375.671875 1.30859.972656 .453126.300781.917969.582031 1.39844.835937 .480469.257813.96875.488282 1.47266.695313 .5.210937 1.01172.394531 1.53125.550781 .519532.15625 1.04688.289063 1.58203.394532 .53125.105468 1.07031.1875 1.60937.238281 .542969.054687 1.08203.082031 1.62891.082031C399.77 512.602 401.48 512.324 403.148 511.769 404.816 511.211 406.352 510.398 407.75 509.336v2.71484h8.25391V468.516H407.75ZM398.734 505.012c-.589844 0-1.17578-.058594-1.75781-.171875 -.582031-.117188-1.14453-.285156-1.69141-.511719 -.546875-.226563-1.06641-.503906-1.5625-.835937C393.23 503.164 392.777 502.789 392.355 502.371 391.937 501.953 391.566 501.5 391.234 501.004 390.906 500.512 390.629 499.992 390.402 499.445 390.176 498.898 390.004 498.336 389.887 497.754 389.773 497.176 389.715 496.586 389.715 495.996c0-.59375.058594-1.17969.171875-1.76172 .117187-.578125.289062-1.14453.515625-1.69141 .226562-.546875.503906-1.06641.832031-1.55859 .328125-.492187.703125-.949219 1.12109-1.36719 .417969-.417969.875-.792969 1.36719-1.12109 .492188-.328125 1.01172-.605469 1.55859-.832032 .546875-.226562 1.11328-.398437 1.69141-.515624 .582032-.113282 1.16797-.171876 1.76172-.171876 .589844 0 1.17578.058594 1.75781.171876 .582031.117187 1.14453.289062 1.69141.515624 .546875.226563 1.06641.503907 1.55859.832032 .492187.332031.949218.703125 1.36719 1.125 .417969.417968.792969.871094 1.12109 1.36719C406.559 491.48 406.84 492 407.062 492.547c.226562.546875.398438 1.10938.515625 1.69141 .113281.582031.171875 1.16797.171875 1.75781 0 .59375-.058594 1.17969-.171875 1.76172 -.117187.578126-.289063 1.14453-.515625 1.6875 -.226562.546876-.503906 1.06641-.832031 1.55859 -.328125.492188-.703125.949219-1.12109 1.36719 -.417969.417968-.875.792968-1.36719 1.12109 -.492188.328124-1.01172.605468-1.55859.832031 -.546875.226562-1.10938.398437-1.6875.515625 -.582032.113281-1.16797.171875-1.76172.171875Z"/><path d="M454.34 479.941h8.25391v32.1094H454.34Z"/><path d="M458.465 467.25c-.332032-.003906-.65625.027344-.984375.089844 -.324219.0625-.636719.152344-.945313.277344 -.304687.125-.597656.277343-.871094.460937 -.277343.179687-.535156.386719-.769531.621094 -.234375.230469-.445312.484375-.628906.757812 -.1875.273438-.34375.5625-.472656.867188 -.128907.304687-.226563.617187-.292969.941406 -.066406.324219-.101562.652344-.101562.984375 -.003907.328125.027343.65625.089843.980469 .0625.324219.15625.640625.277344.945312 .125.308594.277344.597657.460937.875 .183594.277344.390626.53125.621094.765625 .230469.238282.484375.445313.757813.632813 .273437.183593.5625.34375.867187.472656 .304688.125.621094.222656.941406.289063 .324219.070312.652344.101562.984376.105468 .328124.003906.65625-.027344.980468-.089844 .324219-.0625.640625-.15625.945313-.28125 .308593-.125.597656-.277343.875-.457031 .277343-.183593.53125-.390625.765625-.621093 .238281-.234376.449218-.488282.632812-.761719 .1875-.273438.34375-.5625.472656-.867188 .128907-.300781.226563-.617187.292969-.941406 .066407-.324219.101563-.648437.101563-.980469 .007812-.332031-.019532-.660156-.078125-.988281 -.058594-.324219-.152344-.644531-.273438-.949219 -.125-.308594-.277343-.601562-.457031-.878906 -.183594-.28125-.390625-.535156-.621094-.773438 -.234375-.234374-.488281-.445312-.761718-.632812 -.277344-.183594-.566407-.339844-.875-.46875 -.304688-.125-.621094-.21875-.949219-.285156 -.324219-.0625-.652344-.09375-.984375-.089844Z"/><path d="M510.805 479.402c-.542969 0-1.08594.027344-1.625.082031 -.542969.050781-1.07813.132813-1.61328.238281 -.53125.105469-1.05859.238282-1.57812.394532s-1.03125.339843-1.53516.546874c-.5.210938-.992187.441407-1.46875.699219 -.480469.253907-.945313.535157-1.39844.835938 -.453126.300781-.886719.625-1.30859.96875 -.417969.347656-.820313.710937-1.20703 1.09375 -.382812.386719-.75.789062-1.09375 1.20703 -.34375.421875-.667968.855469-.96875 1.30859 -.300781.453125-.582031.917968-.839843 1.39844 -.253907.476563-.488281.96875-.695313 1.47266 -.207031.5-.390625 1.01172-.546875 1.53125 -.160156.519531-.289062 1.04687-.398437 1.58203 -.105469.53125-.183594 1.07031-.238282 1.60938 -.050781.539062-.078124 1.08203-.078124 1.625 0 .546875.027343 1.08594.078124 1.62891 .054688.539062.132813 1.07812.238282 1.60938 .109375.535156.238281 1.0625.398437 1.58203 .15625.519532.339844 1.03125.546875 1.53125 .207032.503906.441406.992188.695313 1.47266 .257812.480469.539062.945313.839843 1.39844 .300782.449219.625.886719.96875 1.30859 .34375.417968.710938.820312 1.09375 1.20312 .386719.386719.789063.75 1.20703 1.09375 .421875.347656.855468.671875 1.30859.972656 .453124.300781.917968.582031 1.39844.835937 .476563.257813.96875.488282 1.46875.695313 .503906.210937 1.01562.390625 1.53516.550781 .519531.15625 1.04688.289063 1.57812.394532 .535156.105468 1.07031.1875 1.61328.238281 .539062.054687 1.08203.082031 1.625.082031 .542968 0 1.08594-.027344 1.62891-.082031 .539062-.050781 1.07812-.132813 1.60938-.238281 .535156-.105469 1.05859-.238282 1.57812-.394532 .523437-.160156 1.03125-.339844 1.53516-.550781 .503906-.207031.992188-.4375 1.47266-.695313 .480469-.253906.945313-.535156 1.39844-.835937 .449218-.300781.886718-.625 1.30469-.972656 .421875-.34375.824219-.707031 1.20703-1.09375 .386719-.382813.75-.785157 1.09375-1.20312 .347657-.421875.667969-.859375.972657-1.30859 .300781-.453125.578125-.917969.835937-1.39844 .257813-.480468.488282-.96875.695313-1.47266 .207031-.5.390625-1.01172.550781-1.53125 .15625-.519531.289062-1.04688.394531-1.58203 .105469-.53125.1875-1.07031.238281-1.60938 .054688-.542969.082032-1.08203.082032-1.62891 0-.542969-.027344-1.08594-.082032-1.625C527.27 493.832 527.188 493.293 527.082 492.762 526.977 492.227 526.844 491.699 526.687 491.18 526.527 490.66 526.344 490.148 526.137 489.648c-.207031-.503907-.4375-.996094-.695313-1.47266C525.184 487.695 524.906 487.23 524.605 486.777c-.304688-.453125-.625-.886719-.972657-1.30859 -.34375-.417969-.707031-.820312-1.09375-1.20703 -.382812-.382813-.785156-.746094-1.20703-1.09375 -.417969-.34375-.855469-.667969-1.30469-.96875 -.453125-.300781-.917969-.582031-1.39844-.835938 -.480468-.257812-.96875-.488281-1.47266-.699219 -.503906-.207031-1.01172-.390624-1.53516-.546874 -.519532-.15625-1.04297-.289063-1.57812-.394532 -.53125-.105468-1.07031-.1875-1.60938-.238281C511.891 479.43 511.348 479.402 510.805 479.402Zm0 25.6094c-.589844 0-1.17969-.058594-1.75781-.171875 -.582031-.117188-1.14453-.285156-1.69141-.511719 -.550781-.226563-1.07031-.503906-1.5625-.835937 -.492188-.328126-.945313-.703126-1.36719-1.12109C504.008 501.953 503.633 501.5 503.305 501.004 502.977 500.512 502.699 499.992 502.473 499.445 502.246 498.898 502.074 498.336 501.957 497.754 501.844 497.176 501.785 496.586 501.785 495.996c0-.59375.058594-1.17969.171875-1.76172 .117188-.578125.285157-1.14453.511719-1.69141 .226562-.546875.507812-1.06641.835938-1.55859 .328124-.492187.703124-.949219 1.12109-1.36719 .417969-.417969.875-.792969 1.36719-1.12109 .492187-.328125 1.01172-.605469 1.55859-.832032 .546876-.226562 1.10938-.398437 1.69141-.515624 .582031-.113282 1.16797-.171876 1.76172-.171876 .589843 0 1.17578.058594 1.75781.171876 .582031.117187 1.14453.289062 1.69141.515624 .546875.226563 1.06641.503907 1.55859.832032 .492188.332031.949219.703125 1.36719 1.125 .417968.417968.792968.871094 1.12109 1.36719C518.629 491.48 518.906 492 519.133 492.547c.226563.546875.398438 1.10938.515626 1.69141 .113281.582031.171874 1.16797.171874 1.75781 0 .59375-.058593 1.17969-.175781 1.76172 -.113281.578126-.285156 1.14453-.511719 1.6875 -.226562.546876-.503906 1.06641-.832031 1.55859 -.328125.492188-.703125.949219-1.12109 1.36719 -.417969.417968-.875.792968-1.36719 1.12109 -.492188.328124-1.01172.605468-1.55859.832031 -.546875.226562-1.10938.398437-1.69141.515625 -.578125.113281-1.16406.171875-1.75781.171875Z"/><path clip-path="url(#f)" d="M274.715 468.516h-31.668v7.36328h11.7266v36.1719h8.22266V475.879h11.7188Z"/><path d="M434.871 503.258L427.531 479.941H418.855l11.0156 32.1094h9.93359l11.0781-32.1094H442.215Z"/><path d="M549.75 487.602V479.941H545.883c-3.02344 0-5.66797 1.58203-6.38281 5.39844V479.941H531.227v32.125H539.5V492.801c0-3.48828 2.23438-5.19922 5.72266-5.19922Z"/></g></svg>