<svg viewBox="0 0 768 768" xmlns="http://www.w3.org/2000/svg" xmlns:xlink="http://www.w3.org/1999/xlink"><defs><clipPath id="a"><use xlink:href="#c"/></clipPath><clipPath id="b"><path d="M384 28.625C187.73 28.625 28.625 187.734 28.625 384c0 196.27 159.105 355.375 355.375 355.375 196.27 0 355.375-159.105 355.375-355.375C739.375 187.734 580.27 28.625 384 28.625Z"/></clipPath><path id="c" d="M28.625 28.625h710.75v710.75H28.625Z"/><path id="d" d="M-76.8-76.8h921.6v921.6H-76.8Z"/></defs><g transform="translate(0 3e-06)"><g fill="#FFF"><use xlink:href="#d"/><use xlink:href="#d"/></g></g><g clip-path="url(#a)"><use clip-path="url(#b)" xlink:href="#c" x="0" y="3e-06"/></g><g transform="translate(0 3e-06)"><g fill="#FFF"><path d="M326.484 347.109c-8.08984 0-15.793 3.66406-20.9805 9.83984V350.617H284.523V453h23.1914v-35.934c5.2656 4.352 11.9026 6.715 18.7696 6.715 20.6719 0 37.2305-17.1641 37.2305-38.4492 0-21.0586-16.8633-38.2227-37.2305-38.2227Zm37.2305 38.5273c0-21.2852-16.5586-38.4492-37.2305-38.4492m-2.519 55.6139c-8.92578 0-16.25-7.62891-16.25-16.8594 0-9.53516 7.32422-16.8594 16.25-16.8594s16.25 7.62891 16.25 16.8594c.305 8.9254-6.637 16.4804-15.641 16.7854 -.226563.074219-.457031.074219-.609375.074219Z"/><path d="M402.164 410.051c0 .914063-.089843 1.82422-.269531 2.72266 -.179687.898437-.441406 1.77344-.792969 2.61719 -.351562.847656-.78125 1.65234-1.28906 2.41406 -.511719.761718-1.08984 1.46875-1.73828 2.11719 -.648438.648437-1.35156 1.22656-2.11719 1.73438 -.761719.511719-1.56641.941406-2.41016 1.29297 -.847656.351562-1.72266.613281-2.62109.792969 -.898437.179687-1.80469.269531-2.72266.269531 -.917969 0-1.82422-.089844-2.72266-.269531 -.902344-.179688-1.77344-.441407-2.62109-.792969 -.847656-.351563-1.65234-.78125-2.41406-1.29297 -.76125-.50848-1.46525-1.08648-2.11325-1.73448 -.648-.649-1.23-1.356-1.738-2.117 -.507812-.761719-.9375-1.56641-1.28906-2.41406 -.351563-.84375-.617188-1.71875-.796876-2.61719 -.175781-.898438-.265624-1.80859-.265624-2.72266 0-.917969.089843-1.82422.265624-2.72656 .179688-.898438.445313-1.76953.796876-2.61719 .351562-.847656.78125-1.65234 1.28906-2.41406 .507812-.761719 1.08984-1.46875 1.73828-2.11719 .64772-.64509 1.35172-1.22709 2.11272-1.73509 .762-.507 1.567-.941 2.414-1.289 .848-.351 1.719-.617 2.621-.796 .899-.176 1.805-.266 2.723-.266 .917969 0 1.82422.089844 2.72266.265625 .898438.179687 1.77344.445312 2.62109.796875 .84375.347656 1.64844.78125 2.41016 1.28906 .765625.507813 1.46875 1.08984 2.11719 1.73438 .648437.648438 1.22656 1.35547 1.73828 2.11719 .507812.761719.9375 1.56641 1.28906 2.41406 .351563.847657.613282 1.71875.792969 2.61719 .179688.902343.269531 1.80859.269531 2.72656Z"/><path d="M269.57 328.035c0 .859375-.082031 1.70703-.25 2.54688 -.167968.839844-.414062 1.65625-.742187 2.44531 -.327813.79281-.729813 1.54681-1.20681 2.25781 -.476.711-1.016 1.371-1.621 1.977 -.605469.605469-1.26562 1.14453-1.97656 1.62109 -.714844.476563-1.46484.878907-2.25781 1.20703 -.789063.328125-1.60547.574218-2.44531.742187 -.839843.167969-1.6875.25-2.54687.25 -.855469 0-1.70313-.082031-2.54297-.25 -.83948-.168307-1.65648-.414307-2.44948-.742307 -.789-.328-1.543-.731-2.254-1.207 -.715-.477-1.371-1.016-1.976-1.621 -.605469-.605469-1.14844-1.26562-1.625-1.97656 -.472656-.710937-.875-1.46484-1.20312-2.25781 -.32788-.78963-.57788-1.60563-.74288-2.44563 -.167969-.839843-.25-1.6875-.25-2.54688 0-.855468.082031-1.70312.25-2.54297 .164062-.839844.414062-1.65625.742187-2.44922 .328813-.78893.730813-1.54293 1.20381-2.25393 .476563-.710937 1.01953-1.37109 1.625-1.97656 .60547-.60547 1.26172-1.14844 1.97656-1.62109 .710937-.476562 1.46484-.878906 2.25391-1.20703 .79253-.32832 1.60953-.57432 2.44853-.74232 .839843-.167969 1.6875-.25 2.54297-.25 .859374 0 1.70703.082031 2.54687.25 .839844.167968 1.65625.414062 2.44531.742187 .792969.328125 1.54297.730469 2.25781 1.20703 .710937.472656 1.37109 1.01562 1.97656 1.62109 .60547.60547 1.14453 1.26562 1.62109 1.97656 .47739.711133.87939 1.46513 1.20739 2.25413 .328125.792969.574219 1.60938.742187 2.44922 .167969.839843.25 1.6875.25 2.54297Z"/><path d="M245.082 350.617h23.1914v69.9609H245.082Z"/><path d="M107.68 318.195v19.3789h30.2109v83.0039h23.1953V337.574h30.2109v-19.379Z"/><path d="M450.836 402.801c-8.92578 0-16.25-7.62891-16.25-16.8594 0-9.53516 7.32422-16.8594 16.25-16.8594 4.50391-.078125 8.77344 1.75391 11.75 5.10938l15.2578-15.2578c-7.1718-7.17178-16.8598-11.2148-27.0078-11.1368 -21.2852 0-38.5273 17.1641-38.5273 38.4492 0 21.2852 17.168 38.5273 38.4531 38.5273 10.1445 0 19.9102-3.96875 27.1602-11.1367l-15.258-15.2578c-2.902 2.133-7.019 4.422-11.828 4.422Z"/><path d="M654.762 347.109c-9.53516 0-17.1641 3.50781-21.5898 11.4453 -4.12109-7.32422-11.75-11.4453-20.9805-11.4453 -9.23047 0-15.8672 4.12109-20.3672 11.4453v-7.9375H570.766v69.6562h23.1914v-43.257c0-6.02734 4.42578-10.832 10.1484-10.832 5.72266 0 10.1484 4.80469 10.1484 10.832v43.5625h21.9688V377.016c0-6.02734 4.42578-10.832 10.1484-10.832 5.72266 0 10.1445 4.80469 10.1445 10.832v43.5625h23.3477V372.59c.304688-15.6406-9.53906-25.4805-25.1016-25.4805Z"/><path d="M520.797 347.109c-21.2852 0-38.4531 17.2422-38.4531 38.5273 0 21.2851 17.2422 38.4492 38.5273 38.4492 21.2852 0 38.4531-17.2422 38.4531-38.5273 -.3043-21.2852-17.4723-38.4492-38.5273-38.4492Zm0 55.6914c-8.92578 0-16.25-7.62891-16.25-16.8594 0-9.53516 7.32422-16.8594 16.25-16.8594s16.25 7.62891 16.25 16.8594c0 9.23047-7.32422 16.8594-16.25 16.8594Z"/><path d="M228.527 350.312c-8.547-.074-16.48 4.274-20.98 11.446v-11.141h-20.981v69.9609h23.1914V391.281c0-12.0547 8.92578-19.3789 19.3789-19.3789 1.29688 0 2.51562.308594 3.50781.308594V350.926c-1.29611-.383-2.66711-.614-4.11711-.614Z"/></g></g></svg>