<svg viewBox="0 -3e-06 768 768" xmlns="http://www.w3.org/2000/svg" xmlns:xlink="http://www.w3.org/1999/xlink"><defs><clipPath id="a"><use xlink:href="#c"/></clipPath><clipPath id="b"><path d="M384 28.625C187.73 28.625 28.625 187.734 28.625 384c0 196.27 159.105 355.375 355.375 355.375 196.27 0 355.375-159.105 355.375-355.375C739.375 187.734 580.27 28.625 384 28.625Z"/></clipPath><path id="c" d="M28.625 28.625h710.75v710.75H28.625Z"/></defs><g clip-path="url(#a)"><use clip-path="url(#b)" xlink:href="#c"/></g><g fill="#FFF"><path d="M570.5 358.594v.214844C598.262 361.145 606.414 380.863 606.02 392.32 605.375 425.508 579.656 452.227 538.176 455.496v.179687c45.5781-2.73047 72.2617-26.2891 72.8359-60.0508C610.941 383.195 601.891 360.426 570.5 358.594Z"/><path d="M538.176 455.102C540.27 454.961 542.352 454.723 544.422 454.391c2.07031-.332031 4.12109-.761719 6.15234-1.28516 2.03125-.523438 4.03516-1.13672 6.01172-1.84766 1.97266-.707031 3.91016-1.50391 5.8125-2.39453 1.89844-.886719 3.75391-1.85938 5.56641-2.92187C569.773 444.883 571.531 443.742 573.234 442.52c1.70703-1.22266 3.35156-2.52344 4.93359-3.89844 1.58594-1.375 3.10547-2.82031 4.55469-4.33594C584.172 432.77 585.551 431.191 586.855 429.551 588.16 427.906 589.383 426.207 590.531 424.449c1.14844-1.75781 2.21094-3.5625 3.1875-5.41797 .980469-1.85547 1.875-3.75 2.67578-5.6875 .804688-1.9375 1.51953-3.91016 2.14062-5.91016C599.156 405.43 599.684 403.398 600.117 401.348c.433593-2.05078.769531-4.12109 1.01172-6.20312 .242188-2.08594.390625-4.17578.4375-6.27344 0-10.4883-7.18359-27.7266-31.3164-29.6641v.179688c19.9688 2.11719 27.0078 16.6641 26.8633 26.1797C596.539 417.57 571.723 451.473 538.391 454.887Z"/><path d="M538.461 454.492c29.4883-3.05469 53.2305-40.9805 53.875-72.4102 0-8.51172-5.42188-20.3984-22.2656-22.3008v.214844c13.25 2.01172 17.957 11.2422 17.957 18.8203 -.539063 30.7773-23.668 72.082-49.0625 75.4219Z"/><path d="M538.859 453.664v.25c21.5469-3.125 43.7813-48.4141 44.3203-78.582C583.215 374.406 583.164 373.484 583.02 372.566 582.879 371.652 582.652 370.758 582.336 369.887c-.3125-.871094-.707032-1.70703-1.18359-2.5C580.676 366.59 580.129 365.848 579.508 365.156c-.621093-.6875-1.30078-1.3125-2.03906-1.87109C576.727 362.73 575.941 362.246 575.105 361.84 574.273 361.438 573.41 361.113 572.512 360.875 571.617 360.637 570.707 360.488 569.781 360.426v.214844c.652344.109375 1.28906.28125 1.91016.511719 .617188.226562 1.21094.511718 1.77734.855468 .566406.339844 1.09766.730469 1.58984 1.17188 .492187.441406.9375.925781 1.33984 1.44922 .402343.527344.75 1.08594 1.04687 1.67578 .296876.589843.535157 1.20703.714844 1.83984 .179688.636719.300782 1.28516.359375 1.94531 .058594.65625.054688 1.31641-.011719 1.97266 -.824218 29.4883-22.375 78.4063-39.6484 81.6016Zm-13.543-11.707C525.82 413.582 548.195 363.73 564.824 360.355V360.102c-20.832 3.08984-43.8516 49.1719-44.3906 78.4063 -.070313.941407-.046875 1.87891.070312 2.81641 .117188.9375.328125 1.85547.628906 2.75 .300782.894531.6875 1.75 1.16406 2.56641 .472656.816406 1.02344 1.57812 1.64844 2.28516 .625.707031 1.31641 1.34375 2.07031 1.91406 .753906.566406 1.55859 1.05469 2.41016 1.46094 .851563.40625 1.73438.726563 2.65234.953125 .914063.230469 1.84375.367188 2.78906.410156V453.449c-.660157-.09375-1.30469-.25-1.93359-.46875s-1.23047-.5-1.80469-.839844C529.555 451.801 529.02 451.406 528.527 450.961c-.496094-.445313-.941406-.9375-1.33984-1.46875 -.398438-.535157-.738281-1.10547-1.02344-1.70703 -.285156-.601562-.507812-1.22656-.667968-1.875 -.160156-.644531-.257813-1.30078-.285156-1.96875 -.03125-.664062.003906-1.32812.105468-1.98438Z"/><path d="M516.16 435.203c.539063-29.9883 24.6367-72.082 49.1328-75.4219V359.566c-28.7344 3.05078-53.2656 41.5547-53.875 72.1875 0 8.55078 5.60156 21.1914 22.2695 22.5586v-.21875C520.684 452.406 516.016 442.781 516.16 435.203Z"/><path d="M507 428.453c.539062-31.4297 26.1484-65.9063 58.5781-69.3203V358.918c-2.07422.175781-4.14062.441406-6.19531.804687 -2.05078.359375-4.08203.8125-6.09375 1.35938 -2.01172.542969-3.99609 1.17969-5.94922 1.90234 -1.95703.722656-3.87109 1.53516-5.75391 2.43359 -1.88281.898437-3.71875 1.87891-5.51172 2.94141 -1.79297 1.0625-3.53125 2.20312-5.22266 3.42578 -1.6875 1.22266-3.32031 2.51562-4.89062 3.88281 -1.57422 1.37109-3.07813 2.80469-4.52344 4.30859 -1.44141 1.50781-2.8125 3.07422-4.11328 4.70313 -1.30078 1.625-2.52344 3.30859-3.67578 5.05078C512.5 391.469 511.434 393.258 510.445 395.09 509.461 396.926 508.559 398.805 507.742 400.723 506.922 402.637 506.195 404.59 505.555 406.57 504.91 408.555 504.363 410.562 503.902 412.598 503.441 414.629 503.074 416.68 502.801 418.746 502.527 420.812 502.348 422.887 502.258 424.969c0 10.4844 7.18359 28.3008 31.3555 29.8789V454.633C512.781 452.766 506.855 437.859 507 428.453Z"/><path d="M497.84 421.699c.578125-33.0078 29.0234-60.0156 68.0273-63.1406V358.344C522.191 361.035 493.605 384.598 493.027 418.215c-.25 12.4258 8.83594 35.4141 40.1914 37.2109C505.852 453.27 497.664 433.156 497.84 421.699ZM475.645 359.062c-15.0469-2.04688-33.2227 6.78906-43.457 22.3047l.179688.25C442.062 367.68 458.441 359.387 471.875 361.254c9.05078 1.21875 15.2656 8.07812 14.0078 21.5469 -3.19922 34.3008-32.1094 72.8398-78.3711 72.7305v.25c1.27734.050781 2.55078.070312 3.82813.058594 1.27344-.011719 2.55078-.050782 3.82422-.121094 1.27344-.074219 2.54297-.171875 3.8125-.304688C420.246 455.285 421.512 455.121 422.77 454.934c1.26172-.191406 2.51953-.410156 3.76953-.660156 1.25-.25 2.49609-.53125 3.73438-.839844 1.23828-.304688 2.46875-.644532 3.6875-1.00781 1.22266-.367187 2.4375-.761719 3.64062-1.1875C438.805 450.816 439.996 450.367 441.18 449.887c1.17969-.480469 2.35156-.988281 3.50781-1.51953 1.16016-.535157 2.30469-1.09766 3.4375-1.6875 1.13281-.585938 2.25-1.20313 3.35156-1.84375 1.10156-.640626 2.19141-1.30469 3.26172-2 1.07031-.691407 2.125-1.40625 3.16406-2.14844C458.941 439.945 459.961 439.18 460.961 438.391c1-.789063 1.98437-1.60547 2.94922-2.44141 .960938-.835938 1.90625-1.69141 2.82813-2.57422C467.66 432.496 468.562 431.594 469.445 430.672 470.324 429.746 471.184 428.805 472.02 427.84c.835938-.960938 1.64844-1.94531 2.4375-2.94531 .789063-1.00391 1.55469-2.02344 2.29688-3.05859 .742188-1.03906 1.46094-2.09375 2.15234-3.16406 .691406-1.07422 1.35938-2.16016 2-3.26172C481.547 414.309 482.16 413.188 482.75 412.059c.589844-1.13281 1.14844-2.27734 1.68359-3.4375 .535156-1.15625 1.04297-2.32812 1.52344-3.50781 .476563-1.18359.929688-2.375 1.35156-3.57813 .425781-1.20312.820312-2.41797 1.18359-3.64062 .367187-1.21875.703124-2.44922 1.01172-3.6875 .308594-1.23828.589844-2.48438.839844-3.73438 .246094-1.25.46875-2.50781.660156-3.76562 .1875-1.26172.351563-2.52734.480469-3.79688 1.25781-14.8711-5.63672-22.4492-15.8398-23.8477Z"/><path d="M480.457 382.66C481.57 370.844 476.293 364.699 467.996 363.586 456.035 361.973 441.488 369.262 432.691 382.082l.179688.21875C440.949 371.238 453.879 364.34 464.262 365.777c7.18359.96875 11.9219 6.35937 10.7734 16.7734C472.27 412.074 444.113 452.66 407.656 454.922 448.387 454.887 477.441 414.84 480.457 382.66Z"/><path d="M408.16 454.203v.214844c33.9414-4.05859 59.082-45.2891 61.7734-72.0117 .792968-8.76172-3.23047-13.4336-9.23047-14.3672C451.652 366.785 440.375 372.891 433.41 382.66v.214844C440.055 374.289 449.32 369.191 456.645 370.195c5.17187.71875 8.33594 4.63281 7.65234 11.7812C462.035 406.328 438.941 447.773 408.16 454.203Z"/><path d="M408.555 453.375v.324219c25.1406-6.75 48.4492-50.2813 50.2813-71.832 .503906-5.49219-1.9375-8.72656-5.96094-9.26563 -5.99609-.824218-13.6133 3.59375-19.1797 10.7734v.21875c4.63281-5.53125 10.7773-9.44922 15.2656-8.83594 2.91016.394532 4.8125 2.94531 4.41797 7.00391 -1.40234 18.8203-22.9531 62.2773-44.8242 71.6133Zm-3.94922-24.457C401.922 434.805 400.027 440.934 398.93 447.309c.019531.597656.113281 1.18359.285156 1.75781 .175781.578125.417968 1.11719.734375 1.62891 .316406.511719.691406.972657 1.125 1.38281 .4375.414063.917969.761719 1.44531 1.04688 .347657.175781.707031.320312 1.07812.429688V453.234C403.082 452.73 402.715 452.137 402.496 451.449c-.214844-.6875-.253906-1.38672-.117188-2.09375 1.48828-6.46094 3.65625-12.6875 6.5-18.6758L455.57 312.156 448.996 313.449c.359375 1.50781-12.2461 32.5039-12.75 34.0469Z"/><path d="M396.02 425.219c-2.37891 5.70703-4.08203 11.6094-5.09766 17.707 -.578125 6.5 5.09766 10.0195 12.7109 11.168V453.879C398.426 452.945 394.402 450.289 394.871 445.262 396.07 439.086 397.891 433.098 400.332 427.301l31.1016-80.0195c.753906-2.11719 12.5703-30.707 10.7734-32.5391L435.816 316.035v.359375c.25 6.96484-7.83203 26.0391-9.48438 30.5273Z"/><path d="M416.637 346.527L387.328 421.555C384.977 426.863 383.324 432.383 382.371 438.113 381.582 447.27 389.09 453.594 403.133 454.563 400.227 454.242 397.402 453.582 394.656 452.586 394.02 452.434 393.402 452.223 392.805 451.953 392.207 451.687 391.637 451.367 391.098 450.996 390.559 450.629 390.055 450.211 389.594 449.75 389.129 449.285 388.711 448.785 388.336 448.246 387.965 447.711 387.645 447.141 387.375 446.543c-.269531-.59375-.480469-1.21094-.640625-1.84766 -.15625-.636718-.253906-1.28125-.292969-1.93359 -.039062-.652344-.019531-1.30469.0625-1.95703C387.52 434.816 389.27 429.043 391.746 423.496l29.8828-76.7891c1.50781-4.05859 10.0547-23.4531 8.00781-29.3789L423.461 318.547v.359375c3.375 4.63281-4.85156 22.5938-6.82422 27.6211Z"/><path d="M406.004 348.07L378.926 417.891C376.68 422.875 375.168 428.07 374.398 433.48c-.96875 11.457 8.98047 20.832 28.7344 21.5469 -16.5586-.933594-25.5742-8.76172-24.6758-19.1055 .835938-5.55859 2.41406-10.8984 4.74219-16.0195l27.9766-71.832C413.691 341.5 421.125 325.371 417.102 319.984L410.746 321.277v.359375c4.30859 5.92578-1.86719 19.25-4.74219 26.4336Z"/><path d="M402.844 455.461C380.539 454.492 369.297 443.609 370.52 430.965 371.188 425.887 372.555 421 374.613 416.312l25.8242-66.7344c3.23438-8.33203 9.26562-20.9023 4.52734-27.1133L399.109 323.684v.359375c4.99219 5.60547.359375 14.7969-3.05469 24.1016L370.34 414.23C368.254 418.809 366.926 423.594 366.355 428.594c-1.22266 13.7578 11.0234 26.2187 36.418 26.9727ZM373.465 371.344C373 362.473 367.754 358.414 361.398 358.414c-11.5664 0-21.5508 9.125-27.8359 21.5508V375.582c-.503906-9.66016-7.18359-17.168-19.0703-17.168 -25.1406 0-37.5313 16.5586-41.6641 35.3047h.214844C277.426 376.156 289.133 360.32 311.727 360.32c.539063-.050781 1.07813-.070312 1.62109-.0625 .539063.007813 1.07812.042969 1.61719.105469 .539062.0625 1.07031.152344 1.60156.269531 .527344.121094 1.04688.265626 1.5625.433594 .511719.171875 1.01562.371094 1.50781.59375 .496093.222656.976562.46875 1.44531.742188 .464844.273437.917969.570312 1.35547.886718 .4375.320313.859375.660157 1.26172 1.02344 .402343.363281.785156.742188 1.14844 1.14453 .363282.402344.703125.820313 1.02344 1.25781 .320312.4375.617187.886718.890625 1.35547 .273437.46875.523437.945313.75 1.44141 .222656.492187.421875.996093.59375 1.50781 .171875.511719.320312 1.03516.4375 1.5625 .121093.527344.210937 1.05859.277343 1.59766 .0625.539062.101563 1.07812.109376 1.61719C329.539 387.184 325.77 396.055 321.746 406.293L303.43 454.168h4.88281l18.3164-47.4805C327.852 403.418 329 400.363 330.043 397.418c3.58984-7.53906 8.08203-15.2617 10.4141-15.2617 1.72656 0 2.26562 1.47266 2.37109 2.80078C342.84 388.531 342.383 392.043 341.465 395.496 340.543 398.953 339.191 402.227 337.406 405.32l.214844.214844c2.78516-3.14062 4.98828-6.64844 6.60547-10.5273 1.61719-3.875 2.56641-7.90625 2.83984-12.0977 0-2.47656-1.21875-4.23828-3.58984-4.23828 -3.91797 0-8.91016 8.04687-12.5703 16.5586C331.336 393.863 331.695 392.5 332.055 391.172 335.969 382.66 341.391 375.402 346.422 375.402c3.08594 0 4.95313 2.12109 5.13281 5.60547C351.988 389.484 344.375 401.836 337.98 405.895l.214843.21875c8.69141-3.87891 18.2461-16.6289 17.707-27.0469 -.25-4.63281-2.69531-7.18359-6.57422-7.18359 -6.39062 0-12.5703 7.43359-16.8438 16.6289 0-.71875.289063-1.4375.394531-2.19141 4.77734-9.875 11.7812-17.7031 19.5742-17.7031 4.23828 0 7.47266 2.87109 7.75781 8.47266 .683593 12.3555-10.9883 25.5-21.5469 29.3437l.214844.214844c12.9648-3.30078 26.5039-17.2031 25.75-31.4961C364.27 368.398 360.426 365.133 355.434 365.133c-8.97656.035157-16.9883 8.07813-21.9805 18.8555V382.227C339.164 370.664 348.18 361.898 358.598 361.898c5.60156 0 10.2344 3.59375 10.7734 11.4219 .863281 16.4141-14.3672 30.3125-29.8828 33.7969l.214844.179687c17.957-2.73047 34.7305-17.5977 33.7617-35.9531Z"/><path d="M324.441 376.156C324.43 375.672 324.398 375.184 324.34 374.703 324.281 374.219 324.199 373.738 324.094 373.262 323.988 372.789 323.855 372.32 323.703 371.855c-.15625-.460938-.332031-.914063-.53125-1.35938 -.203125-.441406-.425781-.875-.667969-1.29688 -.246094-.421875-.511718-.828125-.796875-1.22266C321.422 367.582 321.117 367.203 320.793 366.84 320.469 366.477 320.125 366.129 319.766 365.801c-.359375-.328125-.734375-.636719-1.125-.929687C318.25 364.582 317.844 364.313 317.426 364.063c-.417969-.25-.847656-.476562-1.28906-.679688 -.441407-.207031-.894531-.390624-1.35547-.550781 -.457031-.15625-.925781-.292969-1.39844-.40625 -.476562-.113281-.953124-.199219-1.4375-.261719 -.480468-.066406-.96875-.101562-1.45312-.117187 -.488282-.015625-.972657-.003906-1.46094.03125 -20.0391 0-31.5703 14.9063-35.6289 31.6406h.253906C278.109 378.133 288.309 364.02 306.23 364.02 306.66 363.977 307.09 363.961 307.52 363.965c.429688.003906.859375.03125 1.28906.082031 .425781.050781.851562.121094 1.26953.214844 .421875.09375.835937.207031 1.24609.34375 .40625.136719.808593.296875 1.19922.472656 .390624.179687.773437.378906 1.14453.59375 .371093.21875.730469.457031 1.07812.710937 .347656.253907.679687.527344.996094.816407 .320312.292969.621093.597656.910156.917969 .285156.320312.554687.65625.808594 1.00781 .25.347656.484374.710938.699218 1.08203 .214844.375.40625.757813.582032 1.15234 .175781.394531.328124.796875.460937 1.20312 .132813.410156.242187.828125.332031 1.25 .089844.417969.15625.84375.203125 1.27344 .042969.425781.066407.855468.070313 1.28906 .5 9.44531-3.95312 19.8594-7.50781 29.3398L293.41 454.168h5.02734l18.4961-48.0547c3.94922-9.87891 8.04687-19.7188 7.50781-29.957Z"/><path d="M315.496 376.555C315.5 375.801 315.426 375.059 315.273 374.32 315.121 373.586 314.895 372.871 314.594 372.184c-.304688-.6875-.671875-1.33984-1.10938-1.94922 -.4375-.613281-.933594-1.17188-1.49219-1.67969C311.437 368.047 310.84 367.602 310.191 367.223 309.543 366.84 308.863 366.531 308.148 366.289c-.710938-.238281-1.44141-.402343-2.1875-.488281 -.75-.085937-1.49609-.09375-2.24609-.023437 -15.7305 0-25.3555 13.5781-29.5195 27.9805H274.41c4.41797-13.3984 13.4688-26.0391 26.5391-26.0391 .628906-.046875 1.25-.027344 1.875.058594 .621093.082031 1.22656.226562 1.82031.4375 .589844.207031 1.15625.472656 1.69141.796875 .539062.320312 1.03906.695312 1.5 1.12109 .460937.425782.875.894532 1.23828 1.40625 .367187.507813.675781 1.05078.929687 1.625 .253906.574219.449219 1.16797.578125 1.78125 .132813.609376.203125 1.23047.210938 1.85938C311.187 384.312 306.016 396.484 302.602 405l-19.4297 49.168h5.20703L307.453 405.32c3.375-8.87109 8.40234-20.0742 8.04297-28.7656Z"/><path d="M306.34 377.129C306.344 376.605 306.293 376.09 306.191 375.582 306.086 375.07 305.934 374.578 305.727 374.102 305.52 373.621 305.266 373.172 304.965 372.746c-.300782-.425782-.640625-.8125-1.02344-1.16797 -.382812-.351563-.796875-.664063-1.24609-.929687C302.25 370.383 301.781 370.164 301.289 369.996c-.492187-.167969-1-.285156-1.51562-.347656 -.515626-.0625-1.03516-.074219-1.55078-.027344 -10.7773 0-19.3594 11.707-23.4531 24.0977h.25C279.293 382.66 286.621 371.523 295.418 371.523c.40625-.046876.808593-.050782 1.21484-.007813 .40625.039063.800782.125 1.1875.25 .386719.125.757813.292969 1.10547.5 .351563.203125.675781.445313.976563.722656 .296875.277344.5625.582031.796875.914063 .230469.335937.425781.691406.582031 1.06641 .15625.375.269531.761719.339844 1.16406 .070312.398438.101562.804688.085937 1.21094 .320313 5.96094-5.71094 19.5-8.58594 27.0078L273.152 454.168h4.99219l19.6094-49.4219c3.375-7.90234 8.94531-20.7578 8.58594-27.6172Z"/><path d="M297.289 377.703c.027344-.300781.019532-.601563-.019531-.898437 -.035156-.300782-.105469-.589844-.210937-.875 -.101563-.28125-.230469-.550782-.394532-.808594 -.160156-.253906-.34375-.488282-.558593-.699219C295.895 374.207 295.66 374.02 295.406 373.855c-.25-.164063-.519531-.296875-.800781-.402344 -.285157-.101563-.574219-.175781-.875-.214844 -.296875-.042969-.597657-.050781-.898438-.027343 -6.35547 0-13.2148 10.0234-17.3438 20.4375h.25c4.16406-9.26563 10.5938-18.5312 14.3672-18.5312 1.54297 0 2.54688.789062 2.65625 2.73047 .214843 4.05469-6.53516 19.2852-9.26562 25.8594L263.168 453.988h5.02734l20.1484-49.9961c2.83984-6.96875 9.19531-21.4414 8.94531-26.2891Zm-54.918 42.6328l3.23438-6.78906 -10.957-55.8867C231.598 341.93 235.262 335.07 247.617 332.699V332.484H236.195C232.891 334.137 225.887 339.094 229.801 357.625Z"/><path d="M235.906 433.84l3.19922-6.75391 -14.3672-69.7852C222.043 343.762 223.191 336.723 227.684 332.699V332.484H219.926c-2.37109 5.0625-3.08984 10.1289-.359375 23.5234ZM229.297 447.309l3.19922-6.68359 -17.957-84.7969C211.375 342.648 212.094 336.613 213.387 332.484H206.527c-.070313 7.16406.839844 14.207 2.73047 21.1172ZM200.242 332.484H192.16v.214844C195.754 337.082 196.832 342.434 199.703 354.25l21.5508 99.9531h4.84766L204.551 353.926c-1.86328-7.0625-3.29687-14.207-4.30859-21.4414Zm-16.1602 0H175.426v.214844c7.90234 3.125 11.7812 9.12109 14.9023 23.1641l21.3008 98.3047h4.84766L195.035 355.254c-3.69922-17.168-7.57812-20.3281-10.9531-22.7695Zm110.117 0C284 338.445 277.93 349.473 265.215 376.805l.324218.179687c14.6875-27.5117 23.0586-38.4648 42.0195-44.1758V332.484ZM264.496 376.266L264.82 376.48C276.887 348.07 280.047 340.133 284.969 332.699V332.484H275.199V332.77c1.00391 11.3867-2.80078 21.875-10.7031 43.4961Z"/><path d="M263.852 375.836l.320313.214843c7.65234-25.4648 10.1289-36.707 3.37891-43.5664H258.031v.214844c10.7734 3.80859 13 14.6914 5.82031 43.1367Zm349.746-10.668v4.84766h-.71875V365.168H610.797V364.484h4.95703v.683594Zm8.26172 4.84766V365.312L620.137 369.945H619.309L617.766 365.312v4.70312H617.082l.214844-5.53125h1.25781l1.4375 4.63281 1.65234-4.63281h1.14844l.214843 5.53125Z"/></g></svg>